<svg xmlns="http://www.w3.org/2000/svg" 
    xmlns:xlink="http://www.w3.org/1999/xlink" width="224.225" height="312.808">
    <rect y="-2435" x="6704.386" height="311.811" width="223.228" rx="10.63" fill="#fff" stroke="#000" stroke-width=".997" transform="matrix(-1 0 0 -1 6928.1127 -2122.6903)"/>
    <path d="M216.1 266.965v31.507H213v-31.507zm-12.33 31.507c2.994 0 5.4-2.687 5.4-6.022v-19.462c0-3.336-2.407-6.023-5.4-6.023h-1.745c-2.994 0-5.406 2.687-5.406 6.023v19.462c0 3.336 2.412 6.022 5.406 6.022h1.745zm-.9-2.978c-1.77 0-3.2-1.337-3.2-3.002V272.77c0-1.665 1.423-3.007 3.2-3.007s3.2 1.342 3.2 3.007v19.722c0 1.665-1.423 3.002-3.2 3.002zM8.127 45.843V14.336h3.1v31.507zm12.33-31.507c-2.994 0-5.4 2.687-5.4 6.022V39.82c0 3.336 2.407 6.022 5.4 6.022H22.2c2.994 0 5.406-2.687 5.406-6.022V20.36c0-3.336-2.412-6.022-5.406-6.022h-1.745zm.9 2.978c1.77 0 3.2 1.337 3.2 3.002V40.04c0 1.665-1.423 3.007-3.2 3.007s-3.2-1.342-3.2-3.007V20.316c0-1.665 1.423-3.002 3.2-3.002z"/>
    <use xlink:href="#B"/>
    <use xlink:href="#C"/>
    <path d="M103.94 118.804c2.88-5.775 4.976-11.7 5.348-18.037.342-2.332-1.075-2.37-1.288-.73-4.076 15.593-25.763 11.37-25.017-3.296.605-11.895 12.42-14.454 18.582-10.565 2.434 1.433 2.296.575.968-.912-9.155-10.21-3.6-23.362 8.76-23.602 13.38.793 16.85 14.87 8.644 23.148-1.02.995-3.283 4.19.123 1.956 8.287-5.888 19.787.443 19.553 9.52-.433 16.74-20.84 17.987-25.203 4.006-.42-1.55-1.63-2.33-1.295.304.605 4.767 1.857 11.953 5.437 18.206z"/>
    <use xlink:href="#B" y="-65.33"/>
    <use xlink:href="#C" y="-65.33"/>
    <use xlink:href="#D"/>
    <use xlink:href="#D" y="65.332"/>
    <use xlink:href="#E"/>
    <use xlink:href="#E" y="65.332"/>
    <path d="M119.1 194.004c-2.88 5.775-4.976 11.7-5.348 18.037-.342 2.332 1.075 2.37 1.288.73 4.076-15.593 25.763-11.37 25.017 3.297-.605 11.895-12.42 14.454-18.582 10.565-2.434-1.433-2.296-.575-.968.912 9.155 10.2 3.6 23.362-8.76 23.602-13.38-.793-16.85-14.87-8.644-23.148 1.02-.995 3.284-4.2-.123-1.956-8.287 5.888-19.787-.443-19.553-9.52.433-16.74 20.84-17.987 25.203-4.006.42 1.55 1.63 2.33 1.295-.304-.605-4.767-1.856-11.953-5.437-18.206zM13.67 75.74c1.192-2.445 2.352-4.72 2.984-7.4.42-2.528-.438-1.6-.925.068-.72 2.297-2.723 3.344-4.58 3.37-3.37.046-5.053-2.604-4.948-5.454-.368-3 2.67-5.12 4.962-4.957 1.722.123 3.224 1.052 4.133 1.775.596.315 1.234.455.345-.358-1.678-1.833-3.077-2.964-3.046-5.7.03-2.58 2.234-5.268 5.155-5.184 3.652.105 5.312 2.9 5.303 5.48-.01 1.888-.954 3.626-2.4 4.703-.944.766-.68 1.34.398.615 1.035-.892 2.267-1.283 3.545-1.3 3.5-.055 4.855 2.96 4.655 5.764-.187 2.626-2.423 5.328-5.37 5.022-2.63-.3-4.013-2.5-4.805-4.777-.262-.695-.676-.883-.665.153.608 5.057 2.492 8.204 2.505 8.202zm196.905 162.003c-1.192 2.445-2.352 4.72-2.984 7.4-.42 2.528.438 1.6.925-.068.72-2.297 2.723-3.344 4.58-3.37 3.37-.046 5.053 2.604 4.948 5.454.368 3-2.67 5.12-4.962 4.957-1.722-.123-3.224-1.052-4.133-1.775-.596-.315-1.234-.455-.345.358 1.678 1.833 3.077 2.964 3.046 5.7-.03 2.58-2.234 5.268-5.155 5.184-3.65-.105-5.312-2.9-5.303-5.48.01-1.888.954-3.626 2.4-4.703.944-.766.68-1.34-.398-.615-1.035.892-2.267 1.283-3.545 1.3-3.5.055-4.855-2.96-4.655-5.764.187-2.626 2.423-5.328 5.37-5.022 2.63.302 4.013 2.5 4.805 4.777.262.695.676.883.665-.153-.608-5.057-2.492-8.204-2.505-8.202z"/>
    <defs >
        <path id="B" d="M155.757 151.47c2.88-5.775 4.976-11.7 5.348-18.037.342-2.332-1.075-2.37-1.288-.73-4.076 15.593-25.763 11.37-25.017-3.297.605-11.895 12.42-14.454 18.582-10.564 2.434 1.433 2.296.575.968-.912-9.155-10.21-3.6-23.362 8.76-23.602 13.38.793 16.85 14.87 8.644 23.148-1.02.995-3.284 4.19.123 1.956 8.287-5.888 19.787.443 19.553 9.52-.433 16.74-20.84 17.987-25.203 4.006-.42-1.55-1.63-2.33-1.295.304.605 4.767 1.856 11.953 5.437 18.206z"/>
        <path id="C" d="M52.224 151.47c2.88-5.775 4.976-11.7 5.348-18.037.342-2.332-1.075-2.37-1.288-.73-4.076 15.593-25.763 11.37-25.017-3.297.605-11.895 12.42-14.454 18.582-10.564 2.434 1.433 2.296.575.968-.912-9.155-10.21-3.6-23.362 8.76-23.602 13.38.793 16.85 14.87 8.644 23.148-1.02.995-3.284 4.19.123 1.956 8.287-5.888 19.787.443 19.553 9.52-.433 16.74-20.84 17.987-25.203 4.006-.42-1.55-1.63-2.33-1.295.304.605 4.767 1.857 11.953 5.437 18.206z"/>
        <path id="D" d="M66.926 161.338c-2.88 5.776-4.976 11.7-5.348 18.037-.342 2.332 1.075 2.37 1.288.73 4.076-15.593 25.763-11.37 25.017 3.297-.605 11.895-12.42 14.454-18.582 10.564-2.434-1.433-2.296-.575-.968.912 9.155 10.21 3.6 23.362-8.76 23.602-13.38-.793-16.85-14.87-8.644-23.148 1.02-.995 3.284-4.19-.123-1.956-8.287 5.888-19.787-.443-19.553-9.52.433-16.74 20.84-17.987 25.203-4.006.42 1.55 1.63 2.33 1.295-.304-.605-4.767-1.857-11.953-5.437-18.206z"/>
        <path id="E" d="M170.46 161.338c-2.88 5.775-4.976 11.7-5.348 18.037-.342 2.332 1.075 2.37 1.288.73 4.076-15.593 25.763-11.37 25.017 3.297-.605 11.895-12.42 14.454-18.582 10.564-2.434-1.433-2.296-.575-.968.912 9.155 10.21 3.6 23.362-8.76 23.602-13.38-.793-16.85-14.87-8.644-23.148 1.02-.995 3.284-4.19-.123-1.956-8.287 5.888-19.787-.443-19.553-9.52.433-16.74 20.84-17.987 25.203-4.006.42 1.55 1.63 2.33 1.295-.304-.605-4.767-1.857-11.953-5.437-18.206z"/>
    </defs>
</svg>