<svg xmlns="http://www.w3.org/2000/svg" 
    xmlns:xlink="http://www.w3.org/1999/xlink" width="224.225" height="312.808">
    <rect rx="10.63" width="223.228" height="311.811" x=".498" y=".499" fill="#fff" stroke="#000" stroke-width=".997"/>
    <g transform="matrix(.301062 0 0 .301062 -1436.3281 452.7962)" fill="#d40000">
        <use xlink:href="#B"/>
        <use xlink:href="#B" y="217"/>
        <use xlink:href="#B" y="439.204"/>
        <use xlink:href="#B" y="655.456"/>
        <path d="M5068.253-1197.853c32.952-32.158 54.594-67.22 75.29-100.94 18.15 37.102 44.197 69.56 72.365 100.94-30.137 31.118-53.494 64.393-72.274 99.374-20.818-35.86-42.736-68.33-75.38-99.374z"/>
        <use xlink:href="#B" x="185.064" y="540.438"/>
        <use xlink:href="#B" x="370.464"/>
        <use xlink:href="#B" x="370.464" y="217"/>
        <use xlink:href="#B" x="370.464" y="439.204"/>
        <use xlink:href="#B" x="370.464" y="655.456"/>
        <use xlink:href="#C"/>
        <use xlink:href="#C" x="-627.164" y="-617.339"/>
        <path d="M4797.862-1351.724v-104.652h10.333v104.652zm40.953-104.652c-9.945 0-17.94 8.924-17.94 20.004v64.643c0 11.08 7.995 20.004 17.94 20.004h5.797c9.945 0 17.957-8.924 17.957-20.004v-64.643c0-11.08-8-20.004-17.957-20.004h-5.797zm2.993 9.892c5.874 0 10.6 4.44 10.6 9.97v65.5c0 5.53-4.726 9.986-10.6 9.986s-10.6-4.457-10.6-9.986v-65.5c0-5.53 4.726-9.97 10.6-9.97z"/>
        <path d="M3799.25 1843.75v-207.625h20.5v207.625zm81.25-207.625c-19.73 0-35.594 17.705-35.594 39.688v128.25c0 21.983 15.863 39.688 35.594 39.688h11.5c19.73 0 35.625-17.705 35.625-39.687v-128.25c0-21.983-15.894-39.687-35.625-39.687h-11.5zm5.938 19.625c11.654 0 21.03 8.8 21.03 19.78v129.97c0 10.97-9.377 19.813-21.03 19.813s-21.03-8.842-21.03-19.812v-129.97c0-10.97 9.377-19.78 21.03-19.78z" transform="matrix(-.504042 0 0 -.504042 7403.6384 312.07817)"/>
    </g>
    <defs >
        <path id="B" d="M4881.636-1311.994c32.952-32.158 54.594-67.22 75.29-100.94 18.15 37.102 44.197 69.56 72.364 100.94-30.137 31.118-53.494 64.393-72.274 99.374-20.818-35.86-42.735-68.33-75.38-99.374z"/>
        <path id="C" d="M5426.564-676.617c13.5-13.173 22.364-27.536 30.842-41.35 7.435 15.2 18.105 28.495 29.644 41.35-12.346 12.747-21.914 26.378-29.607 40.708-8.528-14.69-17.506-27.99-30.88-40.708z"/>
    </defs>
</svg>