<svg xmlns="http://www.w3.org/2000/svg" 
    xmlns:xlink="http://www.w3.org/1999/xlink" width="224.225" height="312.808">
    <rect rx="10.63" width="223.228" height="311.811" x=".499" y=".499" fill="#fff" stroke="#000" stroke-width=".997"/>
    <g transform="matrix(.301062 0 0 .301062 -1436.3271 452.7962)">
        <path d="M4797.862-1351.724v-104.652h10.333v104.652zm40.953-104.652c-9.945 0-17.94 8.924-17.94 20.004v64.643c0 11.08 7.995 20.004 17.94 20.004h5.797c9.945 0 17.957-8.924 17.957-20.004v-64.643c0-11.08-8-20.004-17.957-20.004h-5.797zm2.993 9.892c5.874 0 10.6 4.44 10.6 9.97v65.5c0 5.53-4.726 9.986-10.6 9.986s-10.6-4.457-10.6-9.986v-65.5c0-5.53 4.726-9.97 10.6-9.97z" fill="#d40000"/>
        <path d="M3799.25 1843.75v-207.625h20.5v207.625zm81.25-207.625c-19.73 0-35.594 17.705-35.594 39.688v128.25c0 21.983 15.863 39.688 35.594 39.688h11.5c19.73 0 35.625-17.705 35.625-39.687v-128.25c0-21.983-15.894-39.687-35.625-39.687h-11.5zm5.938 19.625c11.654 0 21.03 8.8 21.03 19.78v129.97c0 10.97-9.377 19.813-21.03 19.813s-21.03-8.842-21.03-19.812v-129.97c0-10.97 9.377-19.78 21.03-19.78z" transform="matrix(-.504042 0 0 -.504042 7403.6384 312.07817)" fill="#d40000"/>
    </g>
    <g fill="#d40000">
        <path d="M9.023 60.638c-1.583-3.472-1.757-9.405 2.97-10.208 3.562-.458 5.012 1.198 5.3 3.742.142.743.562.788.695-.058.204-2.61 2.787-4.133 4.806-3.75 5.527.945 5.204 7.028 3.4 11.156-2.73 5.48-5.6 8.938-8.245 14.452-3.038-5.74-6.507-10.405-8.926-15.333z"/>
        <use xlink:href="#B"/>
        <use xlink:href="#C"/>
        <use xlink:href="#C" x="55.35" y="-32.665"/>
        <use xlink:href="#C" x="55.35" y="32.666"/>
        <use xlink:href="#B" y="65.331"/>
        <use xlink:href="#D"/>
        <use xlink:href="#D" y="65.105"/>
        <use xlink:href="#E"/>
        <use xlink:href="#E" x="-55.715" y="-32.553"/>
        <use xlink:href="#E" x="-55.715" y="32.552"/>
        <path d="M197.838 251.496c-1.583 3.472-1.757 9.405 2.97 10.208 3.562.458 5.012-1.198 5.3-3.742.142-.743.562-.788.695.058.204 2.61 2.787 4.133 4.806 3.75 5.527-.945 5.204-7.028 3.4-11.156-2.73-5.48-5.6-8.938-8.245-14.452-3.038 5.74-6.507 10.405-8.926 15.333z"/>
    </g>
    <defs >
        <path id="B" d="M43.525 28.822c7.144-.474 10.868 5.627 11.595 10.436.433.764.67.55.837-.042.35-6.174 5.875-11.22 10.993-10.53 8.328.108 13.39 9.375 11.966 17.22-1.738 9.582-6.9 15.35-10.808 21.293-4.42 6.152-10.373 15.04-12.3 19.317 0 0-6.048-9.205-13.917-20.03-5.262-7.24-9.473-15.082-9.865-21.835-.448-7.715 2.72-14.632 11.49-15.828z"/>
        <path id="C" d="M99.708 61.487c7.144-.474 10.868 5.627 11.595 10.436.433.764.67.55.837-.042.35-6.174 5.875-11.22 10.993-10.53 8.328.108 13.4 9.375 11.966 17.22-1.738 9.582-6.9 15.35-10.808 21.293-4.42 6.152-10.373 15.04-12.3 19.317 0 0-6.048-9.205-13.917-20.03-5.262-7.24-9.473-15.082-9.865-21.835-.448-7.715 2.72-14.632 11.49-15.828z"/>
        <path id="D" d="M155.058 218.543c7.144.474 10.868-5.627 11.595-10.436.433-.764.67-.55.837.042.35 6.174 5.875 11.22 10.993 10.53 8.328-.108 13.4-9.375 11.966-17.22-1.738-9.582-6.9-15.35-10.808-21.293-4.42-6.152-10.373-15.04-12.3-19.317 0 0-6.048 9.205-13.917 20.03-5.262 7.24-9.473 15.082-9.865 21.835-.448 7.715 2.72 14.632 11.49 15.828z"/>
        <path id="E" d="M99.24 251.096c7.144.474 10.868-5.627 11.595-10.436.433-.764.67-.55.837.042.35 6.174 5.875 11.22 10.993 10.53 8.328-.108 13.39-9.375 11.966-17.22-1.738-9.582-6.9-15.35-10.808-21.293-4.42-6.152-10.373-15.04-12.3-19.317 0 0-6.048 9.205-13.917 20.03-5.262 7.24-9.473 15.082-9.865 21.835-.448 7.715 2.72 14.632 11.49 15.828z"/>
    </defs>
</svg>