<svg xmlns="http://www.w3.org/2000/svg" 
    xmlns:xlink="http://www.w3.org/1999/xlink" width="224.225" height="312.808">
    <g transform="matrix(-1 0 0 -1 6928.1127 -2122.6903)">
        <rect rx="10.63" width="223.228" height="311.811" x="6704.386" y="-2435" fill="#fff" stroke="#000" stroke-width=".997"/>
        <g transform="matrix(.301062 0 0 .301062 5267.5599 -1982.7028)">
            <path d="M4797.862-1351.724v-104.652h10.333v104.652zm40.953-104.652c-9.945 0-17.94 8.924-17.94 20.004v64.643c0 11.08 7.995 20.004 17.94 20.004h5.797c9.945 0 17.957-8.924 17.957-20.004v-64.643c0-11.08-8-20.004-17.957-20.004h-5.797zm2.993 9.892c5.874 0 10.6 4.44 10.6 9.97v65.5c0 5.53-4.726 9.986-10.6 9.986s-10.6-4.457-10.6-9.986v-65.5c0-5.53 4.726-9.97 10.6-9.97z"/>
            <path d="M3799.25 1843.75v-207.625h20.5v207.625zm81.25-207.625c-19.73 0-35.594 17.705-35.594 39.688v128.25c0 21.983 15.863 39.688 35.594 39.688h11.5c19.73 0 35.625-17.705 35.625-39.687v-128.25c0-21.983-15.894-39.687-35.625-39.687h-11.5zm5.938 19.625c11.654 0 21.03 8.8 21.03 19.78v129.97c0 10.97-9.377 19.813-21.03 19.813s-21.03-8.842-21.03-19.812v-129.97c0-10.97 9.377-19.78 21.03-19.78z" transform="matrix(-.504042 0 0 -.504042 7403.6384 312.07817)" fill="#000"/>
        </g>
    </g>
    <use xlink:href="#B"/>
    <path d="M109.15 101.684c.015-2.026-1.587-2.064-1.57-.586-.134 7.43-6.417 11.086-10.98 10.22-7.036-1.338-9.282-8.322-9.215-12.435.207-12.696 12.988-22.058 24.52-38.335 8.45 14.69 22.397 26.23 23.223 37.586 1.098 15.098-18.01 20.73-20.737 3.133-.176-1.243-1.64-1.8-1.526-.065.415 4.823-.175 6.83 5.266 18.72H103.9c3.15-5.555 5.025-12.375 5.24-18.236z"/>
    <use xlink:href="#C"/>
    <use xlink:href="#C" y="65.33"/>
    <use xlink:href="#B" y="65.33"/>
    <use xlink:href="#D"/>
    <use xlink:href="#D" y="65.331"/>
    <path d="M109.63 211.15c.015 2.026-1.587 2.064-1.57.586-.134-7.43-6.417-11.086-10.98-10.22-7.036 1.338-9.282 8.322-9.215 12.435.207 12.696 12.988 22.058 24.52 38.335 8.45-14.69 22.397-26.23 23.223-37.586 1.098-15.098-18.01-20.73-20.737-3.133-.176 1.243-1.64 1.8-1.526.065.415-4.823-.175-6.83 5.266-18.72H104.39c3.15 5.555 5.025 12.375 5.24 18.236z"/>
    <use xlink:href="#E"/>
    <use xlink:href="#E" y="65.331"/>
    <path d="M17.288 70.37c.01-.872-.895-.465-1.018-.2-1.163 1.986-2.865 2.448-4.548 1.732-1.667-.7-2.604-2.28-2.454-4.522.3-3.438 3.035-7.2 4.355-9.326A69.07 69.07 0 0 0 17.7 50.9c1.697 3.363 2.56 4.32 4.405 7.4 1.626 2.704 3.892 5.353 4.067 8.622 0 2.485-1.046 4.832-3.4 5.26-1.33.242-2.58-.442-3.504-2.037-.282-.407-.85-.195-.84.362.165 2.093.955 3.983 2.83 6.212H14.37c1.4-1.576 2.85-3.704 2.915-6.35zm188.815 172.744c.01.872-.895.465-1.018.2-1.163-1.986-2.865-2.448-4.548-1.732-1.667.7-2.604 2.28-2.454 4.522.3 3.438 3.035 7.2 4.355 9.326a69.07 69.07 0 0 1 4.077 7.154c1.697-3.363 2.56-4.32 4.405-7.392 1.626-2.704 3.892-5.353 4.067-8.622 0-2.485-1.046-4.832-3.4-5.26-1.33-.242-2.58.442-3.504 2.037-.282.407-.85.195-.84-.362.165-2.093.955-3.983 2.83-6.212h-6.887c1.4 1.576 2.85 3.704 2.915 6.35z"/>
    <defs >
        <path id="B" d="M53.435 69.02c.015-2.026-1.587-2.064-1.57-.586-.134 7.43-6.417 11.086-10.98 10.22-7.036-1.338-9.282-8.322-9.215-12.435.207-12.696 12.988-22.058 24.52-38.335 8.45 14.69 22.397 26.23 23.223 37.586 1.098 15.098-18.01 20.73-20.737 3.133-.176-1.243-1.64-1.8-1.526-.065.415 4.823-.175 6.83 5.266 18.72H48.195c3.15-5.555 5.025-12.375 5.24-18.236z"/>
        <path id="C" d="M164.967 69.02c.015-2.026-1.587-2.064-1.57-.586-.134 7.43-6.417 11.086-10.98 10.22-7.036-1.338-9.282-8.322-9.215-12.435.207-12.696 12.988-22.058 24.52-38.335 8.45 14.69 22.397 26.23 23.223 37.586 1.098 15.098-18.01 20.73-20.737 3.133-.176-1.243-1.64-1.8-1.526-.065.415 4.823-.175 6.83 5.266 18.72h-14.222c3.15-5.555 5.025-12.375 5.24-18.236z"/>
        <path id="D" d="M164.978 178.484c.015 2.026-1.587 2.064-1.57.586-.134-7.43-6.417-11.086-10.98-10.22-7.036 1.338-9.282 8.322-9.215 12.435.207 12.696 12.988 22.058 24.52 38.335 8.45-14.69 22.397-26.23 23.223-37.586 1.098-15.098-18.01-20.73-20.737-3.133-.176 1.243-1.64 1.8-1.526.065.415-4.823-.175-6.83 5.266-18.72h-14.222c3.15 5.555 5.025 12.375 5.24 18.236z"/>
        <path id="E" d="M53.445 178.484c.015 2.026-1.587 2.064-1.57.586-.134-7.43-6.417-11.086-10.98-10.22-7.036 1.338-9.282 8.322-9.215 12.435.207 12.696 12.988 22.058 24.52 38.335 8.45-14.69 22.397-26.23 23.223-37.586 1.098-15.098-18.01-20.73-20.737-3.133-.176 1.243-1.64 1.8-1.526.065.415-4.823-.175-6.83 5.266-18.72H48.206c3.15 5.555 5.025 12.375 5.24 18.236z"/>
    </defs>
</svg>