<svg xmlns="http://www.w3.org/2000/svg" xmlns:xlink="http://www.w3.org/1999/xlink" width="224.225" height="312.808">
    <rect y=".499" x=".499" height="311.811" width="223.228" rx="10.63" fill="#fff" stroke="#000" stroke-width=".997" />
    <path d="M8.725 39.85l3.027-.942c1.142 2.995 3.45 3.88 5.892 3.7 4.382-.34 5.836-5.15 6.165-9.4-1.707 1.774-4.274 2.676-6.46 2.588-6.982-.37-8.77-5.855-8.835-11.6-.194-4.846 1.848-8.356 5.348-9.963 1.852-.816 6.095-.817 7.96.15 4.282 2.216 5.867 6.05 5.58 15.2.005 7.524-1.625 16.287-9.837 16.475-4.748.644-8.352-2.98-8.84-6.185zm11.887-8.244c1.425-.886 2.23-1.716 2.868-2.962.524-1.023.702-1.553.552-3.67-.385-5.455-3.3-8.548-7.525-7.933-2.357.343-3.643 1.638-4.383 4.048-1.366 4.45.365 9.657 3.6 10.857 1.463.54 3.715.385 4.88-.34zM214.76 272.96l-3.027.942c-1.142-2.995-3.45-3.88-5.892-3.7-4.382.34-5.836 5.15-6.165 9.4 1.707-1.774 4.274-2.676 6.46-2.588 6.982.37 8.77 5.855 8.835 11.6.194 4.846-1.848 8.356-5.348 9.963-1.852.816-6.095.817-7.96-.15-4.282-2.216-5.867-6.05-5.58-15.2-.005-7.524 1.625-16.287 9.837-16.475 4.748-.644 8.352 2.98 8.84 6.185zm-11.887 8.244c-1.425.886-2.23 1.716-2.868 2.962-.524 1.023-.702 1.553-.552 3.67.385 5.455 3.3 8.548 7.525 7.933 2.357-.343 3.643-1.638 4.383-4.048 1.366-4.45-.365-9.657-3.6-10.857-1.463-.54-3.715-.385-4.88.34z" />
    <use xlink:href="#B" />
    <path d="M104.713 178.975c2.88-5.776 4.976-11.7 5.348-18.037.342-2.332-1.075-2.37-1.288-.73-4.076 15.593-25.763 11.37-25.017-3.297.605-11.895 12.42-14.454 18.582-10.564 2.434 1.433 2.296.575.968-.912-9.155-10.21-3.6-23.362 8.76-23.602 13.38.793 16.85 14.87 8.644 23.148-1.02.995-3.284 4.19.123 1.956 8.287-5.888 19.787.443 19.553 9.52-.433 16.74-20.84 17.987-25.203 4.006-.42-1.55-1.63-2.33-1.295.304.605 4.767 1.857 11.953 5.437 18.206z" />
    <use xlink:href="#B" x="-101.533" />
    <use xlink:href="#B" y="-65.332" />
    <use xlink:href="#B" x="-101.533" y="-65.332" />
    <path d="M68.702 226.683c-2.88 5.775-4.976 11.7-5.348 18.037-.342 2.332 1.075 2.37 1.288.73 4.076-15.593 25.763-11.37 25.017 3.297-.605 11.895-12.42 14.454-18.582 10.564-2.434-1.433-2.296-.575-.968.912 9.155 10.2 3.6 23.362-8.76 23.602-13.38-.793-16.85-14.87-8.644-23.148 1.02-.995 3.284-4.2-.123-1.956-8.287 5.888-19.787-.443-19.553-9.52.433-16.74 20.84-17.987 25.203-4.006.42 1.55 1.63 2.33 1.295-.304-.605-4.767-1.857-11.953-5.437-18.206zm101.533 0c-2.88 5.775-4.976 11.7-5.348 18.037-.342 2.332 1.075 2.37 1.288.73 4.076-15.593 25.763-11.37 25.017 3.297-.605 11.895-12.42 14.454-18.582 10.564-2.434-1.433-2.296-.575-.968.912 9.155 10.2 3.6 23.362-8.76 23.602-13.38-.793-16.85-14.87-8.644-23.148 1.02-.995 3.284-4.2-.123-1.956-8.287 5.888-19.787-.443-19.553-9.52.433-16.74 20.84-17.987 25.203-4.006.42 1.55 1.63 2.33 1.295-.304-.605-4.767-1.856-11.953-5.437-18.206zm0-65.105c-2.88 5.776-4.976 11.7-5.348 18.037-.342 2.332 1.075 2.37 1.288.73 4.076-15.593 25.763-11.37 25.017 3.297-.605 11.895-12.42 14.454-18.582 10.564-2.434-1.433-2.296-.575-.968.912 9.155 10.2 3.6 23.362-8.76 23.602-13.38-.793-16.85-14.87-8.644-23.148 1.02-.995 3.284-4.2-.123-1.956-8.287 5.888-19.787-.443-19.553-9.52.433-16.74 20.84-17.987 25.203-4.006.42 1.55 1.63 2.33 1.295-.304-.605-4.767-1.856-11.953-5.437-18.206zm-101.533 0c-2.88 5.776-4.976 11.7-5.348 18.037-.342 2.332 1.075 2.37 1.288.73 4.076-15.593 25.763-11.37 25.017 3.297-.605 11.895-12.42 14.454-18.582 10.564-2.434-1.433-2.296-.575-.968.912 9.155 10.2 3.6 23.362-8.76 23.602-13.38-.793-16.85-14.87-8.644-23.148 1.02-.995 3.284-4.2-.123-1.956-8.287 5.888-19.787-.443-19.553-9.52.433-16.74 20.84-17.987 25.203-4.006.42 1.55 1.63 2.33 1.295-.304-.605-4.767-1.857-11.953-5.437-18.206zM13.66 73.25c1.192-2.445 2.352-4.72 2.984-7.4.42-2.528-.438-1.6-.925.068-.72 2.297-2.723 3.344-4.58 3.37-3.37.045-5.053-2.604-4.948-5.454-.368-3 2.67-5.12 4.962-4.957 1.722.123 3.224 1.052 4.133 1.775.596.315 1.234.455.345-.358-1.678-1.833-3.077-2.964-3.046-5.7.03-2.58 2.233-5.268 5.155-5.184 3.65.105 5.312 2.9 5.303 5.48-.01 1.888-.954 3.626-2.4 4.703-.944.766-.68 1.34.398.615 1.035-.892 2.267-1.283 3.545-1.3 3.5-.055 4.855 2.96 4.655 5.764-.187 2.626-2.423 5.328-5.37 5.022-2.63-.302-4.013-2.5-4.805-4.777-.262-.695-.676-.883-.664.153.608 5.057 2.492 8.204 2.505 8.202zm196.905 164.674c-1.192 2.445-2.352 4.72-2.984 7.4-.42 2.528.438 1.6.925-.068.72-2.297 2.723-3.344 4.58-3.37 3.37-.046 5.053 2.604 4.948 5.454.368 3-2.67 5.12-4.962 4.957-1.722-.123-3.224-1.052-4.133-1.775-.596-.315-1.234-.455-.345.358 1.678 1.833 3.077 2.964 3.046 5.7-.03 2.58-2.233 5.268-5.155 5.184-3.65-.105-5.312-2.9-5.303-5.48.01-1.888.954-3.626 2.4-4.703.944-.766.68-1.34-.398-.615-1.035.892-2.267 1.283-3.545 1.3-3.5.055-4.855-2.96-4.655-5.764.187-2.626 2.423-5.328 5.37-5.022 2.63.3 4.013 2.5 4.805 4.777.262.695.676.883.664-.153-.608-5.057-2.492-8.204-2.505-8.202z" />
    <defs>
        <path id="B" d="M155.533 151.822c2.88-5.775 4.976-11.7 5.348-18.037.342-2.332-1.075-2.37-1.288-.73-4.076 15.593-25.763 11.37-25.017-3.297.605-11.895 12.42-14.454 18.582-10.564 2.434 1.433 2.296.575.968-.912-9.155-10.21-3.6-23.362 8.76-23.602 13.38.793 16.85 14.87 8.644 23.148-1.02.995-3.284 4.19.123 1.956 8.287-5.888 19.787.443 19.553 9.52-.433 16.74-20.84 17.987-25.203 4.006-.42-1.55-1.63-2.33-1.295.304.605 4.767 1.856 11.953 5.437 18.206z" />
    </defs>
</svg>