<svg xmlns="http://www.w3.org/2000/svg" 
    xmlns:xlink="http://www.w3.org/1999/xlink" width="224.225" height="312.808">
    <rect rx="10.63" width="223.228" height="311.811" x=".498" y=".499" fill="#fff" stroke="#000" stroke-width=".997"/>
    <g fill="#d40000">
        <path d="M33.172 58.157c9.92-9.68 16.436-20.237 22.667-30.4 5.464 11.17 13.306 20.942 21.786 30.4-9.073 9.37-16.105 19.386-21.76 29.918C49.6 77.28 43 67.503 33.172 58.157zm0 65.33c9.92-9.68 16.436-20.237 22.667-30.4 5.464 11.17 13.306 20.942 21.786 30.4-9.073 9.37-16.105 19.386-21.76 29.918C49.6 142.6 43 132.834 33.172 123.487zm0 66.897c9.92-9.68 16.436-20.237 22.667-30.4 5.464 11.17 13.306 20.942 21.786 30.4-9.073 9.37-16.105 19.386-21.76 29.918C49.6 209.506 43 199.73 33.172 190.384zm0 65.116c9.92-9.68 16.436-20.237 22.667-30.4 5.464 11.17 13.306 20.942 21.786 30.4-9.073 9.37-16.105 19.386-21.76 29.918C49.6 274.612 43 264.836 33.172 255.5z"/>
        <use xlink:href="#B"/>
        <use xlink:href="#B" x="55.088" y="-98.468"/>
        <use xlink:href="#B" x="55.088" y="-33.138"/>
        <use xlink:href="#B" x="55.088" y="33.759"/>
        <use xlink:href="#B" x="55.088" y="98.875"/>
        <use xlink:href="#C"/>
        <use xlink:href="#C" x="-188.816" y="-185.858"/>
        <path d="M8.773 39.85l3.027-.942c1.142 2.995 3.45 3.88 5.892 3.7 4.382-.34 5.836-5.15 6.165-9.4-1.707 1.774-4.274 2.676-6.46 2.588-6.982-.37-8.77-5.855-8.835-11.6-.194-4.846 1.848-8.356 5.348-9.963 1.852-.816 6.095-.817 7.96.15 4.282 2.216 5.867 6.05 5.58 15.2.005 7.524-1.625 16.287-9.837 16.475-4.748.644-8.352-2.98-8.84-6.185zm11.887-8.244c1.425-.886 2.23-1.716 2.868-2.962.524-1.023.702-1.553.552-3.67-.385-5.455-3.3-8.548-7.525-7.933-2.357.343-3.643 1.638-4.383 4.048-1.366 4.45.365 9.657 3.6 10.857 1.463.54 3.715.385 4.88-.34zM214.8 272.96l-3.027.942c-1.142-2.995-3.45-3.88-5.892-3.7-4.382.34-5.836 5.15-6.165 9.4 1.707-1.774 4.274-2.676 6.46-2.588 6.982.37 8.77 5.855 8.835 11.6.194 4.846-1.848 8.356-5.348 9.963-1.852.816-6.095.817-7.96-.15-4.282-2.216-5.867-6.05-5.58-15.2-.005-7.524 1.625-16.287 9.837-16.475 4.748-.644 8.352 2.98 8.84 6.185zm-11.887 8.244c-1.425.886-2.23 1.716-2.868 2.962-.524 1.023-.702 1.553-.552 3.67.385 5.455 3.3 8.548 7.525 7.933 2.357-.343 3.643-1.638 4.383-4.048 1.366-4.45-.365-9.657-3.6-10.857-1.463-.54-3.715-.385-4.88.34z"/>
    </g>
    <defs >
        <path id="B" d="M89.617 156.625c9.92-9.68 16.436-20.237 22.667-30.39 5.464 11.17 13.306 20.942 21.786 30.39-9.073 9.37-16.105 19.386-21.76 29.918-6.268-10.796-12.866-20.572-22.694-29.918z"/>
        <path id="C" d="M197.464 247.278c4.064-3.966 6.733-8.3 9.285-12.45 2.238 4.576 5.45 8.58 8.925 12.45-3.717 3.838-6.597 7.94-8.913 12.256-2.567-4.422-5.27-8.427-9.296-12.256z"/>
    </defs>
</svg>