<svg xmlns="http://www.w3.org/2000/svg" 
    xmlns:xlink="http://www.w3.org/1999/xlink" width="224.225" height="312.808">
    <rect rx="10.63" width="223.228" height="311.811" x=".499" y=".499" fill="#fff" stroke="#000" stroke-width=".997"/>
    <g fill="#d40000">
        <path d="M8.774 39.85l3.027-.942c1.142 2.995 3.45 3.88 5.892 3.7 4.382-.34 5.836-5.15 6.165-9.4-1.707 1.774-4.274 2.676-6.46 2.588-6.982-.37-8.77-5.855-8.835-11.6-.194-4.846 1.848-8.356 5.348-9.963 1.852-.816 6.095-.817 7.96.15 4.282 2.216 5.867 6.05 5.58 15.2.005 7.524-1.625 16.287-9.837 16.475-4.748.644-8.352-2.98-8.84-6.185zm11.887-8.244c1.425-.886 2.23-1.716 2.868-2.962.524-1.023.702-1.553.552-3.67-.385-5.455-3.3-8.548-7.525-7.933-2.357.343-3.643 1.638-4.383 4.048-1.366 4.45.365 9.657 3.6 10.857 1.463.54 3.715.385 4.88-.34zM214.8 272.96l-3.027.942c-1.142-2.995-3.45-3.88-5.892-3.7-4.382.34-5.836 5.15-6.165 9.4 1.707-1.774 4.274-2.676 6.46-2.588 6.982.37 8.77 5.855 8.835 11.6.194 4.846-1.848 8.356-5.348 9.963-1.852.816-6.095.817-7.96-.15-4.282-2.216-5.867-6.05-5.58-15.2-.005-7.524 1.625-16.287 9.837-16.475 4.748-.644 8.352 2.98 8.84 6.185zm-11.887 8.244c-1.425.886-2.23 1.716-2.868 2.962-.524 1.023-.702 1.553-.552 3.67.385 5.455 3.3 8.548 7.525 7.933 2.357-.343 3.643-1.638 4.383-4.048 1.366-4.45-.365-9.657-3.6-10.857-1.463-.54-3.715-.385-4.88.34zM9.082 58.824c-1.583-3.472-1.757-9.405 2.97-10.208 3.562-.458 5.012 1.198 5.3 3.742.142.743.562.788.695-.058.204-2.6 2.787-4.133 4.806-3.75 5.527.945 5.204 7.028 3.4 11.156-2.73 5.48-5.6 8.938-8.245 14.452-3.038-5.74-6.507-10.405-8.926-15.333z"/>
        <use xlink:href="#B"/>
        <use xlink:href="#B" x="109.533"/>
        <use xlink:href="#B" x="109.533" y="65.331"/>
        <path d="M100.063 127.658c7.144-.474 10.868 5.627 11.595 10.436.433.764.67.55.837-.042.35-6.174 5.875-11.22 10.993-10.53 8.328.108 13.39 9.375 11.966 17.22-1.74 9.582-6.9 15.35-10.808 21.293-4.42 6.152-10.373 15.04-12.3 19.317 0 0-6.048-9.205-13.917-20.03-5.262-7.24-9.473-15.082-9.865-21.835-.448-7.715 2.72-14.632 11.49-15.828z"/>
        <use xlink:href="#B" y="65.331"/>
        <use xlink:href="#C"/>
        <use xlink:href="#C" y="65.105"/>
        <use xlink:href="#C" x="-109.533" y="65.105"/>
        <use xlink:href="#C" x="-109.533"/>
        <path d="M197.897 249.68c-1.583 3.472-1.757 9.405 2.97 10.208 3.562.458 5.012-1.198 5.3-3.742.142-.743.562-.788.695.058.204 2.61 2.787 4.133 4.806 3.75 5.527-.945 5.204-7.028 3.4-11.156-2.73-5.48-5.6-8.938-8.245-14.452-3.038 5.74-6.507 10.405-8.926 15.333z"/>
    </g>
    <defs >
        <path id="B" d="M45.35 29.174c7.144-.474 10.868 5.627 11.595 10.436.433.764.67.55.837-.042.35-6.174 5.875-11.22 10.993-10.53 8.328.108 13.39 9.375 11.966 17.22-1.738 9.582-6.9 15.35-10.808 21.293-4.42 6.152-10.373 15.04-12.3 19.317 0 0-6.048-9.205-13.917-20.03-5.262-7.24-9.473-15.082-9.865-21.835-.448-7.715 2.72-14.632 11.49-15.828z"/>
        <path id="C" d="M154.883 218.895c7.144.474 10.868-5.627 11.595-10.436.433-.764.67-.55.837.042.35 6.174 5.875 11.22 10.993 10.53 8.328-.108 13.39-9.375 11.966-17.22-1.738-9.582-6.9-15.35-10.808-21.293-4.42-6.152-10.373-15.04-12.3-19.317 0 0-6.048 9.205-13.917 20.03-5.262 7.24-9.473 15.082-9.865 21.835-.448 7.715 2.72 14.632 11.49 15.828z"/>
    </defs>
</svg>