<svg xmlns="http://www.w3.org/2000/svg" 
    xmlns:xlink="http://www.w3.org/1999/xlink" width="224.225" height="312.808">
    <rect rx="10.63" width="223.228" height="311.811" x=".499" y=".499" fill="#fff" stroke="#000" stroke-width=".997"/>
    <path d="M8.774 39.85l3.027-.942c1.142 2.995 3.45 3.88 5.892 3.7 4.382-.34 5.836-5.15 6.165-9.4-1.707 1.774-4.274 2.676-6.46 2.588-6.982-.37-8.77-5.855-8.835-11.6-.194-4.846 1.848-8.356 5.348-9.963 1.852-.816 6.095-.817 7.96.15 4.282 2.216 5.867 6.05 5.58 15.2.005 7.524-1.625 16.287-9.837 16.475-4.748.644-8.352-2.98-8.84-6.185zm11.887-8.244c1.425-.886 2.23-1.716 2.868-2.962.524-1.023.702-1.553.552-3.67-.385-5.455-3.3-8.548-7.525-7.933-2.357.343-3.643 1.638-4.383 4.048-1.366 4.45.365 9.657 3.6 10.857 1.463.54 3.715.385 4.88-.34zM214.8 272.96l-3.027.942c-1.142-2.995-3.45-3.88-5.892-3.7-4.382.34-5.836 5.15-6.165 9.4 1.707-1.774 4.274-2.676 6.46-2.588 6.982.37 8.77 5.855 8.835 11.6.194 4.846-1.848 8.356-5.348 9.963-1.852.816-6.095.817-7.96-.15-4.282-2.216-5.867-6.05-5.58-15.2-.005-7.524 1.625-16.287 9.837-16.475 4.748-.644 8.352 2.98 8.84 6.185zm-11.887 8.244c-1.425.886-2.23 1.716-2.868 2.962-.524 1.023-.702 1.553-.552 3.67.385 5.455 3.3 8.548 7.525 7.933 2.357-.343 3.643-1.638 4.383-4.048 1.366-4.45-.365-9.657-3.6-10.857-1.463-.54-3.715-.385-4.88.34z"/>
    <use xlink:href="#B"/>
    <use xlink:href="#C"/>
    <use xlink:href="#C" y="65.332"/>
    <use xlink:href="#B" y="65.332"/>
    <use xlink:href="#D"/>
    <use xlink:href="#D" y="-65.105"/>
    <path d="M109.715 144.963c.015 2.026-1.587 2.064-1.57.586-.134-7.43-6.417-11.086-10.98-10.22-7.036 1.338-9.282 8.322-9.215 12.435.207 12.696 12.988 22.058 24.52 38.335 8.45-14.69 22.397-26.23 23.223-37.586 1.098-15.098-18.01-20.73-20.737-3.133-.176 1.243-1.64 1.8-1.526.065.415-4.823-.175-6.83 5.266-18.72h-14.222c3.15 5.555 5.025 12.375 5.24 18.236z"/>
    <use xlink:href="#E"/>
    <use xlink:href="#E" y="65.105"/>
    <path d="M17.327 67.88c.01-.872-.895-.465-1.018-.2-1.163 1.986-2.865 2.448-4.548 1.732-1.667-.7-2.604-2.28-2.454-4.522.3-3.438 3.035-7.2 4.355-9.326a69.07 69.07 0 0 0 4.077-7.154c1.697 3.363 2.56 4.32 4.405 7.4 1.626 2.704 3.892 5.353 4.067 8.622 0 2.485-1.046 4.832-3.4 5.26-1.33.242-2.58-.442-3.504-2.037-.282-.407-.85-.195-.84.362.165 2.093.955 3.983 2.83 6.212H14.4c1.4-1.576 2.85-3.704 2.915-6.35zm188.815 172.745c.01.872-.895.465-1.018.2-1.163-1.986-2.865-2.448-4.548-1.732-1.667.7-2.604 2.28-2.454 4.522.3 3.438 3.035 7.2 4.355 9.326a69.07 69.07 0 0 1 4.077 7.154c1.697-3.363 2.56-4.32 4.405-7.392 1.626-2.704 3.892-5.353 4.067-8.622 0-2.485-1.046-4.832-3.4-5.26-1.33-.242-2.58.442-3.504 2.037-.282.407-.85.195-.84-.362.165-2.093.955-3.983 2.83-6.212h-6.887c1.4 1.576 2.85 3.704 2.915 6.35z"/>
    <defs >
        <path id="B" d="M53.26 69.37c.015-2.026-1.587-2.064-1.57-.586-.134 7.43-6.417 11.086-10.98 10.22-7.036-1.338-9.282-8.322-9.215-12.435.207-12.696 12.988-22.058 24.52-38.335 8.45 14.69 22.397 26.23 23.223 37.586 1.098 15.098-18.01 20.73-20.737 3.133-.176-1.243-1.64-1.8-1.526-.065.415 4.823-.175 6.83 5.266 18.72H48.02c3.15-5.555 5.025-12.375 5.24-18.236z"/>
        <path id="C" d="M164.792 69.37c.015-2.026-1.587-2.064-1.57-.586-.134 7.43-6.417 11.086-10.98 10.22-7.036-1.338-9.282-8.322-9.215-12.435.207-12.696 12.988-22.058 24.52-38.335 8.45 14.69 22.397 26.23 23.223 37.586 1.098 15.098-18.01 20.73-20.737 3.133-.176-1.243-1.64-1.8-1.526-.065.414 4.823-.175 6.83 5.266 18.72h-14.222c3.15-5.555 5.025-12.375 5.24-18.236z"/>
        <path id="D" d="M164.803 243.828c.015 2.026-1.587 2.064-1.57.586-.134-7.43-6.417-11.086-10.98-10.22-7.036 1.338-9.282 8.322-9.215 12.435.207 12.696 12.988 22.058 24.52 38.335 8.45-14.69 22.397-26.23 23.223-37.586 1.098-15.098-18.01-20.73-20.737-3.133-.176 1.243-1.64 1.8-1.526.065.414-4.823-.175-6.83 5.266-18.72h-14.222c3.15 5.555 5.025 12.375 5.24 18.236z"/>
        <path id="E" d="M53.27 178.723c.015 2.026-1.587 2.064-1.57.586-.134-7.43-6.417-11.086-10.98-10.22-7.036 1.338-9.282 8.322-9.215 12.435.207 12.696 12.988 22.058 24.52 38.335 8.45-14.69 22.397-26.23 23.223-37.586 1.098-15.098-18.01-20.73-20.737-3.133-.176 1.243-1.64 1.8-1.526.065.415-4.823-.175-6.83 5.266-18.72H48.03c3.15 5.555 5.025 12.375 5.24 18.236z"/>
    </defs>
</svg>