<svg xmlns="http://www.w3.org/2000/svg" height="312.808" width="224.225">
    <rect rx="10.63" width="223.228" height="311.811" x=".498" y=".499" fill="#fff" stroke="#000" stroke-width=".997"/>
    <path d="M7.733 46.564v-2.737h2.66l5.664-29.27h3.223l6.243 29.27h2.148v2.737h-7.318v-2.737h1.977l-.788-4.486h-7.386l-.57 4.486h1.977v2.737zM20.9 36.148l-3.2-15.67-3.007 15.67zM216.5 266.244v2.737h-2.66l-5.664 29.27h-3.223l-6.243-29.27h-2.148v-2.737h7.318v2.737h-1.977l.788 4.486h7.386l.57-4.486h-1.977v-2.737zm-13.178 10.416l3.2 15.67 3.007-15.67zm-98.552-91.685c2.88-5.776 4.976-11.7 5.348-18.037.342-2.332-1.075-2.37-1.288-.73-4.076 15.593-25.763 11.37-25.017-3.297.605-11.895 12.42-14.454 18.582-10.565 2.434 1.433 2.296.575.968-.912-9.155-10.2-3.6-23.362 8.76-23.602 13.38.793 16.85 14.87 8.644 23.148-1.02.995-3.284 4.2.123 1.956 8.287-5.888 19.787.443 19.553 9.52-.433 16.74-20.84 17.987-25.203 4.006-.42-1.55-1.63-2.33-1.295.304.605 4.767 1.856 11.953 5.437 18.206zM13.407 75.68c1.192-2.445 2.352-4.72 2.984-7.4.42-2.528-.438-1.6-.925.068-.72 2.297-2.723 3.344-4.58 3.37-3.37.046-5.053-2.604-4.948-5.454-.368-3 2.67-5.12 4.962-4.957 1.722.123 3.224 1.052 4.133 1.775.596.315 1.234.455.345-.358-1.678-1.833-3.077-2.964-3.046-5.7.03-2.58 2.233-5.268 5.155-5.184 3.65.105 5.312 2.9 5.303 5.48-.01 1.888-.954 3.626-2.4 4.703-.944.766-.68 1.34.398.615 1.035-.892 2.267-1.283 3.545-1.3 3.5-.055 4.855 2.96 4.655 5.764-.187 2.626-2.423 5.328-5.37 5.022-2.63-.302-4.013-2.5-4.805-4.777-.262-.695-.676-.883-.664.153.608 5.057 2.492 8.204 2.505 8.202zm196.47 161.833c-1.192 2.445-2.352 4.72-2.984 7.4-.42 2.528.438 1.6.925-.068.72-2.297 2.723-3.344 4.58-3.37 3.37-.046 5.053 2.604 4.948 5.454.368 3-2.67 5.12-4.962 4.957-1.722-.123-3.224-1.052-4.133-1.775-.596-.315-1.234-.455-.345.358 1.678 1.833 3.077 2.964 3.046 5.7-.03 2.58-2.234 5.268-5.155 5.184-3.65-.105-5.312-2.9-5.303-5.48.01-1.888.954-3.626 2.4-4.703.944-.766.68-1.34-.398-.615-1.035.892-2.267 1.283-3.545 1.3-3.5.055-4.855-2.96-4.655-5.764.187-2.626 2.423-5.328 5.37-5.022 2.63.3 4.013 2.5 4.805 4.777.262.695.676.883.664-.153-.608-5.057-2.492-8.204-2.505-8.202z"/>
</svg>