<svg xmlns="http://www.w3.org/2000/svg" 
    xmlns:xlink="http://www.w3.org/1999/xlink" width="224.225" height="312.808">
    <rect y=".499" x=".498" height="311.811" width="223.228" rx="10.63" fill="#fff" stroke="#000" stroke-width=".997"/>
    <g fill="#d40000">
        <path d="M89.74 156.536c9.92-9.68 16.436-20.237 22.667-30.39 5.464 11.17 13.306 20.942 21.786 30.39-9.073 9.37-16.105 19.386-21.76 29.918-6.268-10.796-12.866-20.572-22.694-29.918z"/>
        <use xlink:href="#B"/>
        <use xlink:href="#B" x="-188.38" y="-185.687"/>
        <path d="M7.733 46.565v-2.737h2.66l5.664-29.27h3.223l6.243 29.27h2.148v2.737h-7.318v-2.737h1.977l-.788-4.486h-7.386l-.57 4.486h1.977v2.737zM20.9 36.15l-3.2-15.67-3.007 15.67zM216.5 266.244v2.737h-2.66l-5.664 29.27h-3.223l-6.243-29.27h-2.148v-2.737h7.318v2.737h-1.977l.788 4.486h7.386l.57-4.486h-1.977v-2.737zm-13.178 10.416l3.2 15.67 3.007-15.67z"/>
    </g>
    <defs >
        <path id="B" d="M196.726 249.537c4.064-3.966 6.733-8.3 9.285-12.45 2.238 4.576 5.45 8.58 8.925 12.45-3.717 3.838-6.597 7.94-8.913 12.256-2.567-4.422-5.27-8.427-9.296-12.256z"/>
    </defs>
</svg>