<svg xmlns="http://www.w3.org/2000/svg" width="224.225" height="312.808">
    <rect y=".499" x=".499" height="311.811" width="223.228" rx="10.63" fill="#fff" stroke="#000" stroke-width=".997"/>
    <path d="M7.734 46.565v-2.737h2.66l5.664-29.27h3.223l6.243 29.27h2.148v2.737h-7.318v-2.737h1.977l-.788-4.486h-7.386l-.57 4.486h1.977v2.737zM20.912 36.15l-3.2-15.67-3.007 15.67zm195.58 230.094v2.737h-2.66l-5.664 29.27h-3.223l-6.243-29.27h-2.148v-2.737h7.318v2.737h-1.977l.788 4.486h7.386l.57-4.486h-1.977v-2.737zm-13.178 10.416l3.2 15.67 3.007-15.67zM8.78 61.253c-1.583-3.472-1.757-9.405 2.97-10.208 3.562-.458 5.012 1.198 5.3 3.742.142.743.562.788.695-.058.204-2.6 2.787-4.133 4.806-3.75 5.527.945 5.204 7.028 3.4 11.156-2.73 5.48-5.6 8.938-8.245 14.452-3.038-5.74-6.507-10.405-8.926-15.333zm91.283 66.405c7.144-.474 10.868 5.627 11.595 10.436.433.764.67.55.837-.042.35-6.174 5.875-11.22 10.993-10.53 8.328.108 13.4 9.375 11.966 17.22-1.738 9.582-6.9 15.35-10.808 21.293-4.42 6.152-10.373 15.04-12.3 19.317 0 0-6.048-9.205-13.917-20.03-5.262-7.24-9.473-15.082-9.865-21.835-.448-7.715 2.72-14.632 11.5-15.828zM197.16 251.94c-1.583 3.472-1.757 9.405 2.97 10.208 3.562.458 5.012-1.198 5.3-3.742.142-.743.562-.788.695.058.204 2.6 2.787 4.133 4.806 3.75 5.527-.945 5.204-7.028 3.4-11.156-2.73-5.48-5.6-8.938-8.245-14.452-3.038 5.74-6.507 10.405-8.926 15.333z" fill="#d40000"/>
</svg>