<svg xmlns="http://www.w3.org/2000/svg" width="224.225" height="312.808">
    <rect rx="10.63" width="223.228" height="311.811" x=".498" y=".499" fill="#fff" stroke="#000" stroke-width=".997"/>
    <path d="M7.733 46.565v-2.737h2.66l5.664-29.27h3.223l6.243 29.27h2.148v2.737h-7.318v-2.737h1.977l-.788-4.486h-7.386l-.57 4.486h1.977v2.737zM20.9 36.15l-3.2-15.67-3.007 15.67zM216.5 266.244v2.737h-2.66l-5.664 29.27h-3.223l-6.243-29.27h-2.148v-2.737h7.318v2.737h-1.977l.788 4.486h7.386l.57-4.486h-1.977v-2.737zm-13.178 10.416l3.2 15.67 3.007-15.67zm-92.488-108.9c.015-2.026-1.587-2.064-1.57-.586-.134 7.43-6.416 11.086-10.98 10.22-7.036-1.338-9.282-8.322-9.215-12.435.207-12.696 12.988-22.058 24.52-38.335 8.45 14.7 22.397 26.23 23.223 37.586 1.098 15.098-18 20.73-20.737 3.133-.176-1.243-1.64-1.8-1.526-.065.414 4.823-.175 6.83 5.266 18.72h-14.222c3.15-5.555 5.025-12.375 5.24-18.236zM18.022 70.3c.01-.872-.895-.465-1.018-.2-1.163 1.986-2.865 2.448-4.548 1.732-1.667-.7-2.604-2.28-2.454-4.522.3-3.438 3.035-7.2 4.355-9.326a69.07 69.07 0 0 0 4.077-7.154c1.697 3.363 2.56 4.32 4.405 7.392 1.626 2.704 3.892 5.353 4.067 8.622 0 2.485-1.046 4.832-3.4 5.26-1.33.242-2.58-.442-3.504-2.037-.282-.407-.85-.195-.84.362.165 2.093.955 3.983 2.83 6.212h-6.887c1.4-1.576 2.85-3.704 2.915-6.35zm188.38 172.574c.01.872-.895.465-1.018.2-1.163-1.986-2.865-2.448-4.548-1.732-1.667.7-2.604 2.28-2.454 4.522.3 3.438 3.035 7.2 4.355 9.326a69.07 69.07 0 0 1 4.077 7.154c1.697-3.363 2.56-4.32 4.405-7.392 1.626-2.704 3.892-5.353 4.067-8.622 0-2.485-1.046-4.832-3.4-5.26-1.33-.242-2.58.442-3.504 2.037-.282.407-.85.195-.84-.362.165-2.093.955-3.983 2.83-6.212h-6.887c1.4 1.576 2.85 3.704 2.915 6.35z"/>
</svg>