<svg xmlns="http://www.w3.org/2000/svg" 
    xmlns:xlink="http://www.w3.org/1999/xlink" width="223.228" height="311.811">
    <defs>
        <pattern patternTransform="matrix(-0.11059956,0.11059956,-0.11059956,-0.11059956,-254.02376,74.426221)" id="A" xlink:href="#B"/>
        <pattern id="B" patternTransform="translate(-254.02376,74.426221)" height="110.741" width="108.618" patternUnits="userSpaceOnUse">
            <g fill="#131f67" stroke="none">
                <path d="M-1016.046 25.72l-10.764 16.12 7.177 18.006-18.658-5.256-14.907 12.4-.767-19.37-16.4-10.35 18.184-6.715 4.777-18.786 12.005 15.22z" transform="translate(1070.355 -11.764)" fill-opacity="1"/>
                <path transform="matrix(.866025 .5 -.5 .866025 946.33909 568.72784)" d="M-1016.046 25.72l-10.764 16.12 7.177 18.006-18.658-5.256-14.907 12.4-.767-19.37-16.4-10.35 18.184-6.715 4.777-18.786 12.005 15.22z" fill-opacity="1"/>
                <path transform="translate(1124.664 -11.764)" d="M-1016.046 25.72l-10.764 16.12 7.177 18.006-18.658-5.256-14.907 12.4-.767-19.37-16.4-10.35 18.184-6.715 4.777-18.786 12.005 15.22z" fill-opacity="1"/>
                <path transform="matrix(.866025 .5 -.5 .866025 1000.6483 568.72784)" d="M-1016.046 25.72l-10.764 16.12 7.177 18.006-18.658-5.256-14.907 12.4-.767-19.37-16.4-10.35 18.184-6.715 4.777-18.786 12.005 15.22z" fill-opacity="1"/>
            </g>
        </pattern>
    </defs>
    <g transform="translate(259.615 -501.317)">
        <rect width="222.228" height="310.811" x="-259.114" y="501.816" rx="10.63" fill="#fff" stroke="#000"/>
        <g stroke="#131f67">
            <path d="M-246.526 513.9h197.052v286.644h-197.052z" fill="none" stroke-width="4.952"/>
            <path d="M-242.14 517.77h188.277v278.906H-242.14z" fill="url(#A)"/>
        </g>
    </g>
</svg>