<svg xmlns="http://www.w3.org/2000/svg" width="224.225" height="312.808">
    <rect y=".498" x=".497" height="311.811" width="223.228" rx="10.63" fill="#fff" stroke="#000" stroke-width=".997"/>
    <path d="M31.462 288.5l-.5-263.005 163.133.307.204 262.593zm58.48-219.153c-5.834-1.6-5.693 4.204-1.42 4.42 4.787.412 6.835-7.745 4.55-10.96 0 0-1.99 6.146-3.13 6.54zM52.086 102.12l-7.007 3.126-.028 5.23c2.922-2.324 5.206-5.158 7.035-8.356zM99.9 259.277c-1.38-.696-3.04-2.19-2.786-2.453.127-.13.874.106 1.55.41 5.475 2.307 9.726 2.158 16.255-.21.494-.18 1.232.762.957 1.28-2.89 4.276-12.248 2.756-15.977.974zm-2.887-6.418c-1.257-1.89.4-.457.97.078 4.05 3.767 9.54 5.044 14.252 1.494.22-.243.248-.47.183-.64-.133-.348-.136.023-2.15.722-4.522 1.693-8.334.302-12.05-2.542-1.53-1.18-2.242-1.76-2.242-2.07 0-.283.286-.46.8-.37.32.055 1.2.24 1.86.293 1.13.093 1.045.044 2.204-.49 2.478-1.144 4.76-1.56 7.35-1.097.6.107 1.354.306 1.456.272.58-.193-.275-.958-2.47-2.698-.432-.343-.97-.636-1.148-.933-.276-.46.025-.584.338-.58.902.01 4.957 3.4 6.347 5.412.423.612.715.677.716 1.314-.08.66-.187 1.293.528 2.22.513.664 1.01 1.73 1.014 1.782.005.058-.102.392-.572.083-.214-.04-.318-.27-.7-.212-.34.05-.896.318-1.505.606-5.68 3.654-10.912 1.87-15.172-2.642zm12.445-.256c.114.01-.392-2.088-.964-2.708-1.128-1.22-2.848-1.444-3.888-.194-.585.703-1.228 2.663-1.228 2.663s.91.268 1.165.268c.036-.44.04-1.667.943-2.387.445-.35 1.404-.34 1.777-.05.74.364 1.055 1.836 1.064 2.41.405.126 1.34.012 1.13-.003zm-6.868-3.026c-.8.357-1.842.598-2.08 1.134-.315.707.797.92 1.376 1.16.8.386.818.245 1.077-.372l.58-1.35c.6-1.157.002-.996-.95-.57zm8.668 2c.46-.46.548-.766.136-1.29-.186-.237-.717-.478-1.295-.673-.742-.25-1.066-.553-.6.452l.665 1.436c.342.688.642.505 1.094.073zM35.47 202.536c.28 0 3.077-.917 4.072-1.36.987-.377 1.104-.366.712-.912-.147-.204-.266-.78-.194-1.413l.074-.88c-1.723-.35-4.296.603-5.18 1.81-.63.77-.565 2.484.517 2.757zm-.35 4.3c.524.524.67.542 2.24-.04.55-.368 1.7-.828 2.508-.88 1.893-.503 1.894-.304 1.358-1.517-.247-.558-.328-1.02-.25-1.535.092-.61.164-.695-.18-.802-.905-.283-5.117 1.292-5.872 2.517-.53.862-.46 1.6.197 2.26zm98.916 37.2c-.275.41-.752 1.14-.953 1.634-.346.85-.136 1.014.002 2.684.08.968.1 2.47.103 3.278.005 1.547-.017 2.027.456 2.118.417.08.608-.233.808-1.04.1-.402.34-.823.412-1.08.297-1.74.847-4.645 2.1-5.866.174-.144.684-.234 1.6-.246 1.133-.014 1.495-.046 1.846-.31 1.983-1.735.42-3.977-1.35-4.135-2.05-.178-4.872 2.65-5.036 2.96zm7.87-.727c.126 1.996-1.864 3.355-3.885 2.893-.82-.206-1.065-.02-1.615 1.15-1.192 3.21-1.664 6.427-1.98 8.532-.137 1.894-.832 6.824-.328 8.395 5.763 7.122 11.83 14.475 18.473 21.806l39.512.054.238-46.515-11.476-10.854.022-17.205-36.792 17.494c2.672 8.57-6.387 10.366-8.374 4.623-1.72 1.577-3.13 10.084-2.495 10.504 0 0 .228.307.61-.37.627-1.114 1.446-1.935 2.323-2.477 2.554-1.58 5.594-.8 5.768 1.97zm-31.448-.868c-1.94-1.54-.9-3.89.71-4.596.854-.373 2.223-.323 3.732.2 1.325.608 2.116.523 3.473.356.9-.1.734 1.786-.207 2.273-.663.343-2.183.18-4.032-.872-3.2-1.816-4.59.538-2.616 2.663 1.095 1.172-.78.233-1.06-.033zm-65.677-28.173c1.705-1.097.997-3.033-.592-3.357-2.14.045-2.683 2.5-1.153 3.35 0 .298-.76.055-1.172-.253-.638-.477-.056-2.345-.65-2.42-.453.008-4.87 1.57-5.347 1.883-1.985 1.126-.122 3.67 1.03 3.378 2.392-.604 5.645-1.14 7.882-2.58zm-9.874-3.633c.04 1.132.358 1.636 1.1 1.646 1.555-.27 3.002-1.01 4.452-1.48 1.134-.37 1.594-.79.73-1.498-.262-.3-.494-.73-.368-1.546.297-.934.07-.98-.327-1.026s-1.297.333-3.61 1.22c-1.218.467-1.452.67-1.768 1.34-.14.513-.23.828-.21 1.344zM47.8 225.26c.268-.315.86-2.288.86-2.776-.12-.813-.725-.997-1.26-.472-.65.582-.476 1.46-.862 2.136-.134.235-.277.56-.238.69.2.71 1.083.84 1.497.42zm5.067-10.745c19.8-21.087 32.067-50.268 10.61-90.514-2.407-1.024-3.15 2.887-3.38 3.047l-2.742 2.39c14.525 25.047 12.003 53.86-5.757 74.347l.02 1.3c.042 2.86.866 2.737 2.07 1.4 1.275-1.345.422-.25-.1.304-.45.476-1.163 1.423-1.354 1.67.233 1.716 1.314 4.916.634 6.058zm-1.314-6.336c-.204-.57-.42-1.87-.53-2.872-.068-.652-.096-1.268-.13-1.905-.2-1.267-.727-4.176-1.147-4.817-.453-.69-1.56-1.196-2.795-1.275-1.055-.068-1.143-.05-1.368.295-.386.6-.122 3.568.27 4.66.442 1.28.182 1.977-.177 3.246-.125.46-.17.49.056.523.988-.07 1.317-1.28 1.708-.92.13.132-.21 1.126-.672 2.13-.487 1.06-.63 2.52-.053 4.317.324 1.006.186 1.324-.01 1.93-.13.405-.36 1.648-.367 2.885.46 1.55.23 2.244-.042 2.756-.59 1.315-1.044 3.098-.728 4.1.14.44.503.063.77-.69.416-1.486.9-1.816 2.12-1.817.89 0 .972.31 1.266-.086.667-.902 2.297-4.1 2.328-5 .63-2.273.66-4.225-.5-7.47zm9.47 14.927c.538-.205 1.366-1.343 1.367-1.735.002-.432-3.32-3.66-4.702-4.552-.626-.404-.924-.117-2.03 1.373-.984 1.324-1.113 1.336-.93 1.59.22.307 3.603 2.506 4.726 3.13.388.216 1.047.39 1.57.192zm6.222-5.746c-.495-.38-4.47-4.785-5.648-5.004-.448-.083-1.885 1.553-1.885 1.925 0 .255 2.48 2.78 4.24 4.315.502.44 1.057.797 1.233.797.56-.287 1.99-1.443 2.062-2.033zm4.22-4.155c0-.26-.438-.798-1.508-1.85-2.725-2.676-4.243-3.9-4.72-3.897-.522.173-1.465 1.76-1.522 2.314.177.332 4.736 4.465 5.326 4.866.728.703 2.323-.936 2.424-1.434zm4.275-4.268c.117-.393-.11-.73-.688-1.28l-3.23-3.162c-2.867-2.824-2.873-2.827-3.793-1.507-.948 1.36-.943 1.37 1.85 4.095 2.98 2.906 3.677 3.496 4.14 3.496.707-.326 1.477-.87 1.722-1.64zm-31.947-2.55c-.5-.15-.958-.062-1.35.252-2.112 1.796.883 4.106 2.115 2.665.82-.81.787-2.548-.765-2.917zm36.334-1.88c0-.3-.615-.975-2.745-3.01-5.27-5.03-5.033-4.84-5.617-4.527-.365.195-1.072 1.548-1.072 2.05 0 .377.506.898 4.412 4.546 2.3 2.14 2.968 2.68 3.363 2.68.625-.31 1.633-.978 1.66-1.74zm-36.2.19c1.035-.45 1.228-1.57.64-2.455-1.125-.992-2.69-.173-2.717 1.106.194 1.198 1.21 1.704 2.076 1.35zm40.53-4.414c0-.6-9.024-9.04-9.667-9.04-.436 0-.748.353-1.158 1.31-.355.83-.32 1.32.128 1.75.652.627 2.392 2.23 4.046 3.728.978.886 2.103 1.943 2.5 2.35.928.953 1.95 1.7 2.34 1.7.56-.326 1.336-.768 1.81-1.788zm-41.004-1.088c.01-.34-.078-.685-.32-.942-.62-.66-1.772-.313-2.06.56-.264 2.055 2.297 2.145 2.38.38zm6.683-65.68l1.765-5.396 5.393-.14.756-5.364 5.55-.8.09-5.542 5.31-.725-.328-5.935 4.923-1.166-.244-5.495 4.474-1.372-.18-4.783.77-.603-1.935-1.968-1.666.54-.03 4.916-4.468 1.438.47 5.44-4.516 1.03-.057 5.914-5.19.582-.37 5.218-5.06.997-.755 5.11-4.912.334-1.5 4.493-3.245.038v3.007zM108.8 230.06c-.17-.405.273-.345 1.044.143.807.5 1.98.934 2.817.936.348 0 1.592-.22 2.765-.493 1.4-.514 2.643-.545 4.1-.23 1.082.146 2.17.263 2.42.26.723.1 1.948-.792 2.277-1.353.9-1.522.678 1.243.682 1.56.016 1.416.193 3.044-.82 2.287-.6-.3-1.648-.586-2.485-.027-.842.562-1.54.682-2.526.09-.8-.32-1.238-.387-1.844.176-.675.628-2.313.404-3.19.116-1.508-.25-2.353-.47-3.364.33-.54.31-.678.08-1.084-1.116s-.727-2.528-.79-2.677zm3.84-1c-.096-.155.714-.947 1.26-1.23 1.605-.83 4.793-.793 7.072.05 1.188.44 1.37 1.2.215 1.032-2.405-.504-5.423-.92-7.748.187-.182.098-.755.035-.8-.038zm2.035-3.758c-1.645-.6-2.453-1.26-2.453-1.467 0-.223.353-.182 1.646.17 1.762.654 3.845.998 5.583.39 1.25-.462 1.874-.755 1.874-.477 0 .294-.516 1.06-1.375 1.5-1.7.697-3.966.366-5.275-.117zm35.708-4.57l1.22-.167-.424-5.095 4.497-1.335-.316-5.067 4.793-1.65-.286-5.703 4.98-.98.65-4.99 4.702-.335.974-5.43 5.05-.174 1.04-4.513 3.36-.02-.015-2.535-5.235.016-1.11 4.885-4.94.142-1.048 5.366-5.18-.038-.663 5.783-4.872.8.004 6.228-4.7 1.22.364 5.325-4.694 1.713.53 5.082zm31.396-119.54c-.672.478-.926 1.426-.718 2.198.662 1.747 3 1.202 3.266-.07.138-.55-.228-1.383-.864-1.564-.11-.032-.506.005-.712-.207-.15-.153.778-.628 1.324-.448.682.225 1.24 1.126 1.24 1.907 0 .303-.085.752.025.902 1.127-.028 2.417-.647 3.624-.982 2.04-.565 2.78-1.736 2.326-3.107-.377-1.143-1.546-1.596-3.082-1.018-2.11.794-4.584 1.173-6.428 2.387zM94.65 226.266c6.91-4.855 10.98-7.63 19.85-8.11-3.164-1.302-3.68-3.01-4.57-4.648-10.99 1.04-16.823 4.547-22.043 7.823 2.157 1.016 4.41 2.197 6.763 4.934zm38.522-6.734c-3.352-2.368-7.34-3.8-11.476-4.906l-3.17 3.285c-.185-.117 9.18.095 14.647 1.62zm32.176-31.164c-21.614-33.213-7.095-62.438 7.934-81.06.483-.61.6-.642.49-1.128-.144-.64-.32-3.868-.2-5.733-27.78 27.532-28.493 63.4-11.067 91.867 1.246-1.113 3.757-2.596 2.853-3.945zm3.24-2.84c-3.548-5.908-22.446-37.9 6.418-73.592 0 0-.1-1.82-.315-2.504-.387-1.225-1-1.72-1-1.72-12.122 18.198-29.74 40.97-7.736 80.514zm-16.527-60.213c.432-.352 1.06-1.632 1.06-2.16 0-.47-.34-.865-3.596-4.17-4.34-4.404-5.1-5.077-5.645-5.077-.525 0-1.895 1.3-1.895 1.797 0 .238 1.277 1.614 4.292 4.624 5.594 5.584 5.33 5.357 5.785 4.986zm3.998-8.11c0-.265-.402-.79-1.353-1.77-2.51-2.583-6.088-5.856-6.402-5.856-.4 0-1.495.886-1.783 1.442-.202.39-.198.48.04.85.443.692 6.042 6.006 7.633 7.342.956.877 1.82-1.342 1.866-2.01zm2.164-3.295c.443-.237 1.285-1.8 1.183-2.212-.047-.188-1.468-1.716-3.156-3.396-3.34-3.324-3.534-3.444-4.367-2.7-.754.674-1.226 1.35-1.133 1.62.114.33 5.113 5.414 6.135 6.237.808.65.902.682 1.338.45zm25.487-.246c1.57-1.507-.21-3.16-1.502-2.397-.55.34-.877 1.08-.71 1.574.28.817 1.388 1.263 2.2.823zm3.108-.384c2.657-.698 3.93-1.164 4.486-1.992.385-.573.43-.926-.004-1.86-.4-.862-.866-1.126-2.53-.214-1.143.626-3.688.926-4.578 1.452-.356.307-.182.303.104.485.64.407.954.684.884 1.222-.152 1.17-.03 1.35 1.64.908zm-2.813-4.165c1.3-.66 1.03-2.253-.41-2.885-1.902-.5-3.127 1.788-1.57 2.903.417.292 1.475.24 1.98-.018zm4.287-.645c1.865-.64 2.582-1.14 3.12-2.17.426-.816.245-1.18.188-1.97-.086-1.198-.688-1.06-2.426-.434-.848.328-4.9 1.47-4.966 1.887 1.96 1.12 1.46 1.71 1.476 3.142.102.325 1.022.092 2.608-.452zm-25.43-1.907c0-.54-5.212-5.645-5.764-5.645-.86 0-2.094 1.338-1.9 2.072.084.333 4.972 5.252 5.58 5.617.854.5 2.038-1.23 2.093-2.044zm2.996-3.182c.224-.177.623-.633.886-1.015.562-.816.522-1.272-.15-1.703-.246-.158-1.338-1.146-2.43-2.197s-2.123-1.963-2.294-2.026c-.9-.12-2.523 1.32-2.354 2.056.097.386 4.092 4.32 4.983 4.907.576.38.853.375 1.358-.022zm7.058-7.604c0-.145-.907-.73-2.36-1.518-4.44-2.412-4.515-2.43-5.902-1.3-.476.387-.865.83-.865.98s.962 1.186 2.188 2.347c2.545 2.408 3.172 2.928 3.526 2.928.733-.54 3.298-2.772 3.41-3.44zm6.213-2.267c.548-.656 1.163-2.93.87-3.388-.27-.27-.96-.228-1.293.073-.342.3-1.187 3.167-1.057 3.505.132.345 1.003.184 1.48-.2zm-48.49 96.802c.42-.056 1.243-.57 2.44-1.597 1.278-1.098 5.33-3.542 5.77-4.524.197-.56.054-1.36-.37-1.42-.32-.046-.4.2-3.082 2.14-1.816 1.31-5.008 3.65-5.488 4.146-.208.53.262 1.2.732 1.256zm-.377 15.644c2.773-1.924 5.018-3.916 8.633-6.143.28-.368.322-.916.152-1.364-.21-.554-.502-.335-1.596.425-2.664 1.795-5.404 3.91-7.7 5.476-.736.5-1.356.774-1.2 1.055.206.372 1.344.485 1.71.552zm2.696 1.18c1.823-1.49 4.005-2.915 5.952-4.358.272-.272.343-1.19.063-1.565-.22-.297-.038-.242-.577.064-.788.447-5.504 3.663-6.383 4.39-.512.423-.938.635-.81.783.59.38 1.215.613 1.755.687zm2.292 1.155c.377-.252 3.618-2.324 3.88-2.6.298-.315.212-1.725-.078-1.837-.82.65-5.142 3.284-5.15 3.71.44.396 1.02.76 1.35.728zm3.466.29c.498-.456.597-.534.607-1.045.02-.926-.2-.887-1.53.057-.922.596-1.483 1.016-1.318 1.373.655 1.025 1.585.216 2.24-.385zm.357 1.89c.26-.096.26-.23.223-.553-.04-.36-.094-.344-.486-.344-1.05.04-.103 1 .262.897zm-12.62-5.182c.476-1.573 1.144-2.817 2.234-3.996 4.36-3.863 3.028-8.62.275-12.49 3.562-4.987 7.12-10.27 10.18-15.112l-.01-7.87.41.043c-.142 17.175.642 45.338.642 45.338l3.542 2.7-.477.236c.583-.09-10.31-6.912-16.796-8.85zm3.2-1.96c3.016-2.276 5.95-4.065 8.94-6.49.318-.262.506-.276.515-.87.017-1.134-.21-1.145-1.327-.346a233.6 233.6 0 0 1-4.03 2.784c-1.796 1.212-3.46 2.29-3.794 2.678-1.683 1.95-2.305 2.87-2.132 3.15.18.292.52-.024 1.828-.905zm3.29-5.515c1.55-1.02 5.257-3.594 5.595-3.912.587-.552.7-1.432.16-1.533-.26-.05-3.13 1.864-5.554 3.703-1.18.895-1.443 1.102-1.443 1.945 0 .51.31.413 1.243-.203zm1.545-4.008c4.752-3.378 4.63-3.093 4.526-4.35-.035-.425-.13-.618-.318-.654-.148-.028-.987.575-1.933 1.24s-2.072 1.558-2.638 1.95c-1.65 1.146-2.198 1.454-2.198 2.11 0 .648.174 1.056.46 1.056.108 0 1.052-.61 2.1-1.353zm-.68-2.616c2.188-1.546 4.6-3.3 4.928-3.704.4-.503.328-1.598-.182-1.598-2.196 1.468-4.84 3.396-6.697 4.92-.24.212-.546.415-.642.69-.018.357.43.83.6.844.362.002.92-.403 1.983-1.154zm-1.425-5.23c1.67-1.132 3.19-2.477 4.85-3.62 1.246-.853 1.6-1.117 1.525-2.2-.043-.62-.587-.263-2.698 1.144-1.548 1.03-2.26 1.44-2.808 2.144-.385.9-1.655 1.726-1.722 2.744-.002.377.25.2.853-.223zm5.13-6.804c1.283-.85 1.405-.87 1.266-2-.174-1.413-.32-1.33-1.546.543-.806 1.232-1.083 1.588-.96 1.817.21.39.44.168 1.24-.362zm-4.674-10.4c-.136-.63-.33-.493-.975.075-1.19 1.044-1.376 1.8-.636 2.196.393.2.697.186.93-.33.504-1.11.645-1.503.68-1.94zm-6.658 9.88c-.154-.574-.855-1.356-1.39-1.633s-.85-.223-1.357.42c-.466.593-.25.945.45 1.83.513.65.722.856 1.125.856.5-.192 1.272-.85 1.17-1.475zm-25.772 24.776c-.34-.656-1.06-1.347-1.4-1.232-.35.122-.69.624-.695.94.144.644.688 1.08 1.106 1.092.788-.112 1.266-.25.98-.8zm3.143-1c-.68-.716-2.02-2.295-2.24-2.295-.343 0-1.163.86-1.163 1.214 0 .417 1.222 2.128 1.628 2.265 1.028-.095 2.915.02 1.775-1.183zm3.88.2c-.07-.346-3.89-4.407-4.173-4.407-.364 0-1.084.8-1.084 1.168 0 .296 1.234 1.906 2.374 3.097.567.593.618.678 1.313.57.758-.118 1.747.046 1.57-.428zm6.75-.907c0-.82-.43-1.27-2.154-3.136l-2.35-2.615c-1.29-1.472-1.84-1.923-2.355-1.924-.406-.002-1.027.657-1.027 1.077 0 .27 3.175 3.91 6.05 7 .638.686.924.885 1.536.56.352-.24.3-.646.3-.96zm-4.97-9.752c-.645.53-.886.747-.89 1.1-.004.54 5.476 6.56 5.964 6.56.287 0 .243-.04.412-.687.34-1.965-.195-2.542-1.615-3.838-.952-.87-2.872-3.86-3.873-3.137zm9.665-4.028c-1.53-1.83-2.376-2.67-2.687-2.67-.212 0-.53.205-.874.585-.57.54-.517.522-.155 1.166.188.334.714.993 1.17 1.462.843.87 1.275 1.147 1.68.73.36-.37 1.247-.805.866-1.27zm-.798-4.564c-.373-.004-1 .668-1 1.034 0 .31 1.24 1.865 2.107 2.64.7.627 1.03.796 1.517.382.364-.53.282-1.012.055-1.416-.62-.706-1.974-2.6-2.68-2.64zm4.3.448c-.01-.533-1.575-2.57-2.07-2.772-.412 0-1.286.96-1.286 1.402 0 .237.335.766.903 1.426 1.117 1.297 1.404 1.582 1.647 1.38.398-.332.816-.913.807-1.436zm1.767-2.292c.103-.447-.174-.907-.8-1.693-.782-.982-1.165-1.048-1.902-.287-.272.28-.4.526-.4.662 0 .375 1.64 2.458 1.944 2.458.704-.087.92-.6 1.155-1.14zm-2.885 5.16c-.147.673-.43 1.112-1.08 1.424-5.007 3.608-4.845 9.486-5.914 14.913-8.107-.08-20.923 3.244-20.844 3.42l43.083-43.463s.535.133.207.514c-3.487 2.506-3.27 7.38-5.563 9.82-3.832 4.63-7.392 8.647-9.89 13.372zm-23.384 17.753c.07-.49-.382-.625-.777-.23-.387.387-.234.7.317.626.3-.034.425-.15.46-.396zm13.277-1.827c.16-.413-.22-.8-2.528-3.362-2.338-2.594-2.868-3.202-3.272-3.202-.343 0-1.18.85-1.18 1.197 0 .16.367.686.817 1.168s1.302 1.43 1.895 2.107c1.02 1.165 1.506 1.727 1.895 1.998.382.266.67.252 1.28.252.84 0 1.02.028 1.093-.16zm3.994-8.156c.16-.5.385-.96.387-1.152.003-.357-2.95-3.365-3.448-3.687-.597-.386-1.72.875-1.44 1.61.077.203.955 1.236 1.95 2.294 1.266 1.346 1.9 1.98 2.105 1.948.21-.032.24-.35.446-1.014zm1.234-3.16c.216-.317.392-.737.392-.93 0-.22-.494-.82-1.2-1.613-1.316-1.48-1.654-1.65-2.375-.96s-.474 1.005.788 2.435c1.58 1.8 1.76 2.007 2.395 1.07zm11.283-14.128c.49-.583.502-.873.052-1.406l-.617-.735c-.405-.486-.94-.405-1.494.224-.264.3-.44.604-.438.707s.284.52.63.923c.78.908 1.26 1.007 1.866.286zm1.73-2.23c.334-.5.183-1.07-.44-1.64-.59-.54-.885-.563-1.3-.1-.555.617-.466.824.13 1.484.675.747 1.217.86 1.61.257zm1.386-1.85c.462-.462.453-.857.04-1.383-.388-.493-.788-.627-1.197-.408-.7.38-.635 1.032.064 1.768.424.447.623.494 1.094.023zm-32.965 92.71c8.824.99 18.303 1.68 35.013-.917l.084-5.67c-5.212 4.065-12.054 1.28-12.448-3.4-.047-4.17 1.067-8.98 2.005-12.41.7-2.55.898-3.532.244-4.03-1.442-.812-4-.915-4.654-2.61-.313-.894-.343-1.85.115-1.17.2.313 1.875 1.087 3.174 1.377 2.263.505 2.627.674 2.884 1.603.162.587-.21 2.612-.807 4.44-.427 1.31-.925 3.41-.925 3.816 0 .442.347.515.736.39.168-.053.963-.85 1.464-1.296 2.174-1.94 2.805-1.882.948.016-.738.755-1.757 1.796-1.757 1.875 0 .402.377.355 1.212.054 1.286-.464 4.3-.408 5.64.265 1.667.838 1.738.8 1.7-1.738-.3-4.744-1.073-10.358-2.62-14.74-2.358-6.68-7.254-12.88-14.488-12.602-8.817.46-14.14 3.97-20.137 8.177 3.623 8.038-1.613 14.195-3.5 15.007-.183.078 2.375 8.17 3.467 12.282.992 3.735 2.66 11.276 2.66 11.276zM135.35 71.91c-.205-.53-5.1-16.513-6.482-23.2-13.26-.77-23.067-1.873-34.744 1.442 0 0-.253 4.504-.13 4.722.12.556.52.543.85.36 5.393-2.963 11.238-1.63 11.644 5.68.155 2.79-.783 4.757-.954 7.405-.15 2.312-1.968 5.393-.866 7.15.14.216.918.64 1.98 1.096 1.98.848 2.756 1.626 2.9 2.92.215.893-.33 1.493-.496.576-.105-.583-.207-1.095-2.65-1.932-2.382-.816-3.025-1.762-3.263-2.26-.328-.687-.266-1.174.04-2.27.652-2.33 1.295-4.706 1.236-5.828-.02-.404-.47-.207-1.04.28-.726.618-3.833 2.663-3.92 2.576-.04-.04.513-.865 1.382-1.697 1.055-1.01 2.368-2.23 2.368-2.455 0-.397-.155-.12-1.178.183-1.783.49-3.838.42-5.22-.19-1.172-.516-1.993-.815-2.167-.533-.434 7.12.623 14.457 3.6 20.18 2.675 5.2 8.236 11.714 16.6 10.253 8.64-1.5 17.046-8.46 16.744-8.468-3.224-7.3.45-12.738 3.756-15.995zM66.858 266.257c-3.828-3.834-13.48-8.005-20.112-9.92-.53-.114-1.054-.367-1.057.262l-.078 13.16-11.853 11.11.21 5.42 25.148-.122L75.81 261.7s.805-.144.894-.294c-3.064-12.998-7.68-23.378-10.6-28.58.05.064-4.215 3.445-7.965-.758-2.104-2.36-.813-6.5 1.183-8.02-1.685-1.24-5.174-3.485-7.462-4.134-.476-.116-1.185.846-1.417 1.717-.418 1.416-1.113 2.682-1.58 4.11-.513 1.192-1.007 1.372-1.773 1.037-1.192-.354-1.508-.477-1.508-.477l.04 15.47c9.15 3.175 18.567 11.31 21.25 24.496zm38.03-165.318l2.71-2.944c-4.29-.526-8.785-1.293-14.046-2.945 3.653 2.716 7.478 4.396 11.335 5.89zM89.99 92.657c4.78 1.594 10.83 5.31 18.382 3.91-6.885-2.73-12.113-9.113-14.34-22.105-.487 2.522-1.494 7.766-3.08 8.333-2.228-8.622-11.186-3.608-7.594 3.424-9.08 6.237-19.994 9.757-29.895 14.568 0 0-1.5 4.574-8.906 10.84-1.4-7.346.268-18.244-.6-25.624l-11.626-10.98c.178 2.09.097 3.388.004 5.837.32.427.76.65 1.208.917.75 42.316-.26 84.146-.25 122.58l.163 70.335-.434.805.018 5.315L44.91 269.51s-.552-8.02.07-14.15c7.492 1.51 14.48 5.03 20.744 8.9.79.22-3.845-15.4-20.693-22.336l-.023-15.483c0-10.23-.16-11.313-.387-11.48-.682.74-9.304 3.646-9.74 3.155.23.077-2.432-18.11-.13-20.87l8.248.174c2.36 1.904 1.41-.415 2.78-.797.822-.22 4.636 1.265 4.636 1.265 15.72-18.557 14.15-49.074 2.868-66.244-2.9 2.347-5.963 5.528-8.86 6.893-.035-.1-.053-9.467-.053-9.467 15.02-9.64 31.36-37.57 30.317-37.663 0 0 4.65 4.53 6.456 7.092L66.32 119.962c3.397 6.84 6.832 13.04 9.06 19.054.302.814 1.23.79 1.465 1.647.2.732-.693 1.748-.57 2.555 3.13 11.967 3.84 24.666.75 36.17-.65 2.6.542 4.69 2.135 6.636.132.17-1.485-1.4-1.63-1.486-.555-.333-1.48.835-1.674 2.31.128.903.618 1.062 1.267 1.794 1.145.95 5.7 5.428 7.693 7.472 1.778 1.816 2.238 1.898 3.436.6.338-.316.7-.746 1.017-1.013.06.1.504-.362.655-.51l26.777-26.136c3.1-3.036-26.738 27.424-26.738 27.424L71.942 214.2c-3.667 3.618-4.163 4.4-4.31 4.68-.262.48 1.183.467 1.84.37.053-.008-.552.14-1.162.135-3.77-.842-5.054 3.324-7.43 4.164-6.287 4.464-2.06 11.634 3.947 9.266l1.463-.704c3.64 6.762 8.892 19.08 11.356 29.785l-.993.46-15.838 23.76h89.823c-6.452-6.423-11.94-14.31-17.53-20.21-8.958 2.68-36.044 2.132-35.617.968l-6.42-24.76c7.364-6.307 6.61-16.255-4.08-20.722 7.782-6.144 15.616-8.227 23.253-8.725 2.48 6.3 8.305 6.697 11.055.928.018-.065 10.328 3.17 14.13 6.67-5.636-.583-11.202-1.705-16.842-1.975 4.964 1.96 10.02 7.08 11.638 12.935.793 2.09 2.005 8.994 2.326 9.02 0 0 1.88-7.973 3.34-7.534 3.72 7.763 10.134 1.924 7.432-4.26l28.85-13.765c2.543-3.836 8.798-11.12 9.21-11.152 0 0 11.505-65.908 11.502-87.94-.382-26.488.53-55.973-.61-80.748l-.01-7.12-24.298.01-17.346 25.508s-.13.404-.128.58c2.367 10.292 5.405 19.05 10.17 28.56 6.577-4.968 12.12 3.213 7.187 7.962-.926.892-.678 1.117.248 1.737.913.612 7.156 3.752 7.446 3.752 1.13-1.677 1.456-4.154 2.217-6.046.192-.72.736-.81 1.824-.682 1.398.164 1.39.746 1.344-8.15l-.04-7.64c-8.433-3.884-19.597-13.76-20.118-24.028 4.876 3.548 16.08 8.705 19.07 9.167 1.314.367 1.112-1.923 1.153-2.842.356.238.485 3.776.485 3.776-4.95-1.496-7.543-1.19-19.896-8.35 2.12 10.1 12.235 18.068 19.57 21.7 0 0 .307 4.797.29 10.172l.117 17.11c0-.008 4.037-1.03 5.157-1.585 2-1.603 5.208-.374 5.652.807.65 6.185.025 11.92-.113 17.827-3.42.244-5.29.963-6.978 1.032-1.096-.147-1.762-.153-2.323-.777-1.633-3.527-1.527-1.3-1.725 1.358-.15.784-4.237-.58-4.645-.816-17.65 20.318-16.146 43.71-4.16 65.372 1.98-1.336 5.4-3.887 8.8-5.562.082 2.756.13 8.43.13 8.43-13.818 10.138-30.365 36.996-29.806 37.07l-5.614-6.703s3.534-5.618 4.78-7.103c.145-.17.238-1.912.238-1.912l8.58-12.404c-3.88-6.87-6.528-12.746-9.287-19.503-.156-.566-.83-2.994-.682-3.224-5.723-25.857.478-38.72.022-39.698 0 0-.076-.517-.198-.618-.188-.156.05-.305.26-.674.408-.716 1.06-2.185.837-2.62-.164-.322-4.805-4.962-8.784-8.783-2.093-2-2-2.24-3.092-1.143-.4.407-1.387 1.566-1.387 1.566-14.377 13.3-25.786 25.413-40.213 39.572l-.693-.63 62.953-62.576-3.656.062c.103-.265.255-.512.467-.584 1.96.002 3.976-.593 5.433-1.42 2.964-2.202 7.22-5.15 7.553-8.055-.213-5.6-4.93-6.4-8.333-3.667-4.733-8.5-8.48-18.728-10.487-28.276-.095-.474-.762-1.29-.862-1.833 1.014-3.17 17.087-25.074 17.087-25.074H76.202L93.38 48.33c0-.816 24.482-3.707 35.695-.293l6.828 24.256c-6.203 5.997-8.037 15.86 3.372 20.994.222.48-1.082 1.272-1.082 1.272.182-.296.497-.602.37-.874-3.075-1.344-6.368-4.747-6.368-4.747-6.863 5.362-13.28 8.347-19.563 8.612 0 0 3.318 2.25 3.96 4.72 0 0-.308-.037-.39-.136-.68-.833-2.246-3.525-3.566-4.318-2.237-.537-3.56-.146-5.326 1.07l-2.4 2.31c-5.484-1.668-11.574-4.396-14.93-8.538zm-.918 59.368l2.503-2.47c.286-1.833.784-4.163 2.898-6.7 2.346-2.815 4.94-5.462 6.848-7.97 2.294-3.01 3.538-5.736 2.936-7 3.418-.616 6.556-3.632 6.656-9.107.04-2.876 1.428-7.07 1.533-7.013 0 0 23.858-.812 40.27-16.458 0 0 1.15.25.88.458-6.22 6.228-12.832 10.82-20.65 13.744l-43.113 43.065zm4.773-4.94c.644-.644.8-.856.425-1.158-.556-.46-1.626.49-1.626 1.447 0 .608.482.43 1.2-.29zm2.232-2.194c.512-.49.494-.848.07-1.272-.582-.582-1.43-.224-1.715.715-.287.947.84 1.328 1.645.557zm1.964-1.987c.264-.3.48-.61.48-.684 0-.333-.823-1.09-1.186-1.09-.463 0-1.29.777-1.29 1.212 0 .363.83 1.108 1.233 1.108.155 0 .497-.246.76-.547zm1.852-3.7c-.587-.494-.973-.497-1.456-.014-.562.562-.504 1.18.167 1.77.5.532.728.48 1.418.055.58-.59.683-1.143-.13-1.81zm2.174-.33c.634-.534.544-.972-.148-1.664-.728-.728-1.3-.733-1.808.038-.194.29-.23.58-.23.662 0 .282 1.2 1.35 1.517 1.35.174 0 .407-.167.67-.387zm2.1-2.064c.54-.563.47-.965-.303-1.76-.65-.67-1.103-.72-1.675-.2-.593.55-.47 1.13.2 1.797.677.677 1.18.78 1.78.154zm2.368-2.397c.396-.42.29-.385.01-.84-.434-.702-1.7-1.864-2.06-1.864-.453 0-.85.724-.846 1.438s.35.998 1.25 1.707c.598.47.415.513.875.243.255-.15.602-.457.77-.684zm1.88-1.717c.848-.965.687-1.152-1.36-3.31-.694-.73-.838-.815-1.335-.773-.47.04-.503.156-.746.653-.447.916-.116 1.38 1.172 2.75 1.326 1.4 1.52 1.53 2.27.678zm2.1-2.253c.327-.288.547-.622.547-.835 0-.376-1.658-2.215-2.25-2.554-.42-.24-.857-.104-1.4.363-.327.28-.318.35-.24.658.127.505 2.26 2.752 2.6 2.75.146 0 .434-.12.735-.384zm2.082-2.02c.352-.36.63-.794.63-.984 0-.405-1.787-2.473-2.34-2.763-.47-.246-.743-.144-1.207.508-.534.75-.326 1.093.734 2.314 1.006 1.158 1.328 1.51 1.515 1.51.062 0 .32-.23.666-.585zm1.965-2.114c.45-.274 1.04-.853.802-1.324-.254-.483-3.382-3.798-3.72-3.98-.66-.353-.64.156-.64 1.798v.852l1.44 1.4c2.098 2.055 1.63 1.554 2.118 1.243zm2.544-2.335c.25-.25.484-.668.48-.823-1.298-1.58-5.075-6.58-5.757-6.396-.07.02-.1.023-.148.166-.17.5-.238 1.537-.12 2.375 1.192 1.146 4.003 4.876 4.638 5.107.38.146.548-.07.907-.428zm2.03-2.13c.24-.23.434-.538.434-.688s-.42-.676-.867-1.202-1.32-1.59-1.943-2.367c-3.558-4.437-3.816-4.77-4.36-4.318-.357.296-.443 1.34-.264 1.732.31.674 4.195 5.36 5.447 6.57.797.77.954.845 1.55.273zm2.047-1.96c.304-.287.552-.666.552-.844s-.573-.9-1.174-1.606l-2.224-2.675c-1.596-1.964-1.61-2.035-2.8-2.157-1.805-.185-1.564.212.48 2.6.495.578 1.43 1.718 2.078 2.534 1.517 1.91 2.186 2.615 2.486 2.615.133 0 .3-.18.602-.466zm2.087-2.045c.925-.78.742-1.034-2.267-4.142-.987-1.02-1.057-1.18-1.824-1.18s-1.02.16-1.02.533c0 .23 3.92 4.888 4.206 5.003.386.155.43.185.904-.213zm2.193-2.245c.247-.264.45-.606.45-.76 0-.335-.85-1.416-1.648-2.115-.374-.328-.844-.667-1.146-.667-.512 0-1.39.29-1.54.534-.098.158 1.067 1.597 2.21 2.803.758.8 1.055.87 1.675.204zm1.925-1.9c.485-.485.48-.928-.015-1.578-.36-.47-.468-.517-1.206-.517-1.4 0-1.44.358-.357 1.517.806.86 1.028 1.13 1.578.578zm2.06-2.028c.544-.692.08-1.072-.815-.665-.212.097-.325.348-.37.464-.276.72.66.867 1.185.2zm-34.417 5.85c-2 1.258-5.335 3.642-7.6 5.234-.06.342-.104 1.212.002 1.9 1.29-.877 5.433-3.524 7.314-5.015.095-.56.232-1.546.294-2.11zm3.65-5.774c-.067-.34-.3-.124-.88.374-.77.652-7.316 5.5-9.054 6.72-.66.464-1.283.855-1.353 1.018-.067.154-.13 1.47.12 1.803 1.418-1.083 8.146-5.595 8.248-5.75.695-1.1 2.247-3.046 2.92-4.165zm-.75 14.615s-8.027 9.65-10.61 14.456l-.092 8.665-.437.123-.146-17.697-.497-28.605-2.607-1.91-.108-.905s11.567 8.1 17.21 9.4c-4.124 6.462-7.937 8.955-2.715 16.482zm-9.526 11.54c.16-.388.05-.37-.28-.355-.243.01-.38.235-.392.482-.013.28.013.348.232.306.157-.03.363-.247.44-.434zm1.93-2.86c1.155-1.423 2.1-2.345 2.28-3.39-.74.123-4.998 3.107-5.065 3.424.04 1.58-.32 1.77.98 1.073.57-.3 1.033-.69 1.804-1.105zm.364-3.525c1.242-1.032 5.768-3.466 6.287-4.666.2-.55-.445-1.068-.546-1.018.082.073-6.482 4.005-8.876 6.068-.214.266-.16.72-.016 1.094.263.69.786.13 3.152-1.48zm-1.506-1.898l5.337-3.66c1.35-.94 1.62-1.253 1.132-1.95a.65.65 0 0 0-.904-.246c-3.91 2.722-4.246 3.183-7.214 5.1-.2.536-.15 1.335.16 1.62.225.013.603-.264 1.5-.855zm-.015-2.937c3.56-2.576 5.482-3.878 5.61-4.162.14-.314.18-1.54-.052-1.67-1.325 1.008-4.867 3.177-7.288 5.14-.063.403-.137 1.31.06 1.504.49.203.637-.063 1.673-.812zm-.425-9.3c2.592-1.923 4.988-3.596 7.686-5.4 2.287-1.518 2.67-1.856 1.79-2.3-.302-.156-.91-.403-1.3-.27-3.04 2.453-6.415 4.8-9.636 7.184-.08.356 0 1.054-.02 1.37-.03.487.61.07 1.478-.572zm-.357-2.744c.213-.187 1.57-1.086 3.016-2.133 3.878-2.806 4.335-3.08 4.335-3.378 0-.815-1.12-.988-2.138-.158-1.87 1.522-6.333 4.297-6.343 4.7-.016.58-.113 1.15.056 1.406.214.322.528.052 1.074-.427zm1.12-3.802c3.946-2.753 3.79-2.624 3.79-3.118 0-.43-.384-.237-.988-.28-.57-.04-.58.118-1.662.936-2.303 1.74-3.145 2.216-3.387 2.73-.076.16-.13.8.01.94.278.278.597-.063 2.236-1.207zm.26-2.737c.772-.643 1.392-1.115 1.443-1.25.112-.293-.47-.816-.9-.816-.476 0-.847.246-2.027 1.262-1.042.896-1.253.708-1.17 1.214.048.293.053.94.15 1.06.252.304.79-.036 2.514-1.47zm-1.598-1.777c.834-.702 1-.846.402-1.455-.55-.55-1.193-.688-1.53-.35-.188.248-.005 1.7-.025 2-.033.466.586.293 1.155-.186zm17.87-15.145c0-.3 1.45-1.363 2.54-1.605 1.388-.31 3.13-.15 4.35.46 1.05.525 2.19 1.786.503 1.018-1.55-.7-4.875-.698-6.08-.14-.893.453-1.315.57-1.315.268zm-1.08-5.317c.113-.113 1.564.26 2.363.472 2.143.565 3.903.233 6.148-.415.527-.152.79.212.464.48-1.14.8-2.62 1.25-3.896 1.37-2.807.26-5.827-1.172-5.08-1.905zM91.195 81.7c1.198-.586 2.66-8.803 2.19-10.217-1.466 2.24-3.1 3.245-5.452 2.857-3.835-.636-3.977-5.355-1.014-5.83 1.183-.2 2.632.6 2.87.407 1.263-.593 2.252-4.835 2.56-6.208.227-1.345.56-5.076.6-6.264.107-2.525.005-6.25.005-6.25l-18.66-22.324-40.87-.176-.033 47.267L44.972 86.07l.147 17.95c12.93-5.643 25.447-11.57 37.7-17.98-1.42-1.698-1.38-5.976 1.21-7.595 3.814-2.383 6.982.77 7.166 3.254zm10.244 3.805c.087-1.012.84-1.844.892-2.874 0-.23.186-.495.793-.172.793.42 1.037.125 1.934-.288 1.59-.733 2.047-.716 3.272-.226.793.424 1.037.422 1.78.037 1.018-.672 2.098-.9 2.993-.576 1.334.465 1.798.72 2.56.353.383-.186.863-.88.947-.83.548.814.437 2.095.787 2.816.62 1.223.377 2.1-.352 1.498-1.534-1.265-2.73-1.296-4.93-.75-1.288.32-1.936.567-3.363.398-4.423-.524-4.722-.392-5.62.21-.873.584-1.544.643-1.69.406zM113.31 77.5c-1.277-.32-2.736-1.48-3.793-1.17-1.303.088-2.047-1.45-1.377-2.29 1.144-1.113 2.92.01 3.6.532 1.498 1.138 1.712 1.228 2.318 1.228 2.487-.05 2.01-2.373.81-3.22-.713-.748-.784-1.232-.632-1.415.246-.297.956-.047 1.734.772 1.49 1.398 1.524 4.185-.303 5.027-.91.507-1.506.75-2.365.536zm5.2-8.055c-1.157-.838-3.217-2.72-3.756-3.4-.9-1.133-1.273-1.857-1.16-2.767.088-.708.196-1.13-.26-1.363-.483-.25-.947-1.318-.853-1.88.026-.156.57-.063.9.35.418.068.33-.18.785-.48 4.73-3.174 8.524-2.562 13.01-.38 1.302.625 4.7 3.202 2.88 2.366-.108-.05-1.3-.566-2.504-1.173-3.89-1.862-8.226-2.99-11.755-.596-.607.425-.975.752-.502.752 1.984-.386 3.946-1.21 5.984-1.082 3.038.04 4.877 1.54 7.156 2.575 2.474 1.105 2.95 1.483 2.05 2.395-.255.28-.46.273-1.653.182-1.284-.098-1.39-.06-2.113.4-1.894 1.213-4.354 1.876-6.54 1.692-2.574-.216-2.85-.423-2.903-.052-.034.237.52.647 1.282 1.345.58.53 1.356 1.3 1.424 1.43.215.38-.766.193-1.474-.32zm-.722-4.12c-.005-.305-.573-1.63-.91-1.972-.325-.328-.58-.2-1.272.287-.52.366-.576.655-.097 1.08 1.018.904 2.29 1.13 2.28.604zm3.877.182c1.04-.503 2.096-2.285 1.616-2.864-.286-.344-.534-.018-1.08.95-.26.463-.7 1.05-.903 1.184-.85.595-1.97.04-2.44-1.272-.285-.792-.584-1.296-.916-.995-.6.543.08 2.5 1.27 3.008.704.3 1.723.344 2.452-.01zm3.232-.293c1.054-.326 1.557-.8 1.47-1.26-.073-.38-.832-.83-1.347-.83-.23 0-.683-.01-.845.206-.358.477-.928 1.926-.953 2.082.122.32.48.17 1.677-.2zm3.642-7.854c-5.255-2-9.406-2.816-14.404-.685-1.6.695-2.515.767-2.595.2-.068-.478 1.085-1.895 2.33-2.55 3.49-1.596 7.678-1.746 11.19-.062 1.312.642 4.994 3.26 4.994 3.497 0 .26-.333.058-1.514-.403zm61.5 58.884c1.252-.66 1.827-1.958 1.06-2.724-.225-.225-.54-.223-.8-.223-.438 0-3.725.88-4.363 1.222-.416.223-.265.61.132.97.184.166.32.52.348.9.037.5-.063.95.268.873.67-.154 1.73-.302 3.354-1.028zm-4.673 1.204c.357-.65.205-1.54-.732-2.085-.488-.253-.875-.118-1.267.443-.93 1.698 1.38 2.427 2 1.642zm-4.7.797c.2-2.17.103-8.578.103-8.578s-1.167.986-1.903 1.02c.27-.937.563-1.282.982-2.2.24-.973.373-2.694.306-3.678-.073-1.078-.833-1.106-.05-3.043.4-.99.472-2.03-.047-3.256-.223-.605-.296-.952.287-1.72.54-.712.327-1.07.317-2.554-.014-2.058-.002-2.393-.625-.733-.93 1.375-1.36 1.112-2.777.947-1.372 3.074-2.976 6.297-3.04 8.947-.04 1.662-.062 1.92.975 5.413.386 1.3.518 1.734.54 3.306.02 1.5.134 2.03.362 2.858.406 1.474 2.06 3.913 4.568 3.27zm-47.716 138.26l.006-3.09s-4.944 1.525-7.453.587c-2.584-.7-2.576-.827-2.524-.547.09.5 2.008 1.51 3.783 1.927 1.25.293 3.75-.003 4.975-.366.696-.206.77-.012.492.2-3.03 2.37-6.876 1.28-9.29-.688-1.3-1.264-2.155-1.27-1.46.427 3.317 6.722 11.555 2.756 11.472 1.55zm-3.337-4.593l1.124.02s-.345-1.96-.928-2.53c-1.192-1.17-2.877-.99-3.946.158-.5.526-.864 2.386-.864 2.386l.904.02c.335-.868 1.76-4.942 3.71-.053zm-4.5-2.963c-.64-.175-2.04.462-2.723.906-.253.28-.255.32.046.716.655.863 1.657 1.275 1.727.952.29-.455 1.017-2.398.95-2.574zm7.43 2.18c.147-.603-.42-1.633-1.306-1.994-.383-.095-.76-.172-.65.25.125.472.39 1.247.637 1.764.18.39.294.585.672.437.297-.1.546-.19.647-.458zm48.248-40.974l.01-5.235c-2.644 2.68-6.1 7.176-7.146 8.86zM100.054 65.868c1.12-.48 1.942-1.944 1.658-2.683-.176-.46-.642-.09-1.112.59-.756 1.094-.948 1.213-1.613 1.213-.708 0-.99-.182-1.474-1.134-.335-.9-.572-1.04-.884-.65-.147.177-.135.43.056 1.087.5 1.716 1.783 2.258 3.37 1.578zm3.052-.54c1.242-.427 1.496-.564 1.437-.977-.062-.433-1.05-1.01-1.61-.904-.405.244-1.455 1.906-1.395 2.202.143.232.56.026 1.568-.32zm-7.165-.724c-.043-.383-.096-.76-.202-.887-.398-.48-1.24-.14-1.24.47 0 .464.66.99 1.195.99.377 0 .322.092.247-.572zm7.02-3.13c1.767.665 2.663.74 1.702-.164-1.32-1.466-7.378-3.14-10.63-.748-.23.33-.183 1.594.07 1.524 2.645-1.783 6.03-1.688 8.858-.612zm-6.05-5.055c-1.485.494-2.88 1.27-3.057 1.993-.288 1.165.234 1.177 2.175.566 2.5-.82 5.298-.448 7.43.784 1.62 1.177 2.098.788 1.824-.2-.905-3.274-5.965-3.863-8.373-3.142z" fill="#131f67"/>
    <path d="M192.228 35.396l-10.92 10.82.153 12.806c1.097 2.012-16.855-5.74-19.69-8.084.33 8.554 12.004 18.3 19.596 21.868l.208 27.164 4.737-1.77c1.245-.433 4.093-.392 5.032-.84 1.5-18.62 2.762-42.848.885-61.965zM131.486 48.8c-1.064.018-1.702.306-1.687.99-.32-.053 4.035 15.99 6.018 22.688-3.86 3.9-7.886 10.672-2.122 16.94 1.23 1.338 3.483 2.47 5.626 3.756.955.927-11.72 9.098-23.002 9.1-3.616-7.93-8.67-3.545-11.455-.778-2.177-.19-10.3-5.03-14.457-7.8-.066-.044-.023-1.192-.015-1.402.29 1.9 16.282 5.97 17.004 4.075-.462 0-7.174-4.54-9.1-9.02-2.46-5.052-4.432-11.992-4.432-11.992-.895 2.566-.59 6.123-3.055 7.395-.738-8.352-12.665-4.093-6.728 4.075-3.335.978-6.187 2.704-9.425 4.142 6.774 9.217 16.098 15.348 25.946 18.962-1.3 2.767-8.968 8.995-2.668 16.337.284.226-6.02 7.102-9.12 12.48-2.334 4.048-1.63 7.154-1.363 7.255 8.54-9.788 13.34-18.068 13.34-18.068-.073 1.138 10.137.522 9.967-8.67.226-2.48.675-5.17 1.63-7.473 15.58.733 28.974-4.817 40.297-16.472 0 0 2.306.658 3.76.885.73.114 1.763-.362 1.933-.41.655-.034 1.6-.16 2.484-.657 1.21-.68 2.43-1.85 3.722-2.895 1.694-1.372 3.386-2.695 3.988-4.108.675-1.57.147-3.465-.43-5.143-3.634-4.28-6.045.322-7.656-.276-5.59-7.6-10.255-29.103-11.015-29.27-3.124-.63-13.807-4.716-17.98-4.645zM93.11 63.473c-.417.028-1.916 6.713-3.243 6.66-5.623-3.622-5.744 3.874-.91 3.533 4.085-.288 6.368-6.88 4.17-10.19zM33.004 76.2l1.87 121.905c3.674-.907 6.344-1.598 9.947-.024.338-11.55-.678-40.7-.435-68.925C58.117 118.468 67.76 106.69 74.534 91.3l-20.963 9.817s-6.85 9.82-9.04 10.45c-.31-1.398-.66-18.02-.377-25.15zm46.58 25.14l-4.118 5.96.334 30.33c.17 1.964 1.955 3.765.527 5.525.87 0 4.677 26.554 1.06 37.32-.648 1.928-.04 3.3.972 3.73l7.85 7.966c2.476.822 4.887.5 6.965 0 7.43-6.797 17.985-18.706 17.985-18.706l-27.904-26.376c-2.393-6.398-3.67-45.75-3.67-45.75zm101.69 85.36c-20.202 15.102-28.886 36.594-29.02 36.45.07.25-.1 1.132 1.165.435 5.23-2.83 18.672-8.937 18.672-8.937 3.193-3.836 5.648-7.54 9.304-11.19 0 0 .396 16.654.073 25.008 3.298 2.452 11.127 10.112 11.127 10.112s2.162-118.322-2.504-121.325c-4.53.878-6.805 2.533-8.495-2.722-1.195 24.1-.013 48.264-.32 72.17zm-43.873-66.59c-4.873 3.983-21.627 20.416-21.59 20.586 4.443 7.45 21.99 22.377 30.403 30.722l1.218 42.5c1.238-1.664 2.137-3.23 3.48-4.896l-.74-31.616c-.154-2.984-.838-5.336-.624-5.607-2.367-12.248-3.35-25.78.002-38.91-7.946-6.843-10.47-11.394-12.148-12.79zm1.305 48.553c-.013.004-.025.013-.04.03-4.113 5.858-11.978 18.576-12.543 18.546-.166-.38-8.127-.025-9.633 4.983-1.264 3.73-1.36 7.16-2.28 11.006-15.974-.522-27.668 4.53-39.982 15.878-3.502.138-6.57.425-8.724 1.223-1.806.67-2.776 1.873-3.886 2.678-3.125 2.265-3.972 4.198-3.818 6.564.278 4.287 7.853 4.897 8.24 1.875.384 0 7.413 16.057 8.096 18.793 1.658 4.423 3.433 12.698 3.644 12.712 2.83.182 18.716 4.637 18.773 3.02 1.497-.642-5.525-23.618-5.525-23.618 12.273-10.295-1.258-21.298-4.437-20.895 6.988-4.975 15.006-8.325 23.848-8.766 1.37 4.914 7.714 7.44 10.91.91 0 0 13.745 4.92 13.688 6.55-5.66-.854-10.313-1.3-15.98-1.842 10.858 5.893 11.19 13.66 13.408 21.393.302-1.37 3.166-7.352 3.166-7.352 3.683 8.167 10.686 2.5 7.796-4.094l8.715-4.04c1.004-.51-13.027-16.29-25.787-18.527.643-1.175.897-2.28 1.56-3.238 3.2-3.14 5.68-7.735.788-13.234 3.23-4.512 10.716-15.404 10.242-15.598 0 0 .146-5.09-.242-4.954zM33.79 218.847c-.123 0-.35 37.768-.084 56.516-.314.777-.517 4.925-.517 4.925l11.62-10.914.348-14.11c3.034-.726 21.944 8.874 20.43 8.82 1.443-.608-8.73-19.818-20.595-21.95l-.643-26.516c-4.12.787-10.56 3.25-10.56 3.226zm103.164 22.72c-3.254.97-4.61 7.81-3.557 11.127.195.614.07.746.6.145 1.268-1.86.868-5.568 3.108-7.526 5.916 1.785 5.33-5.908-.14-3.746z" fill="#e2cf00"/>
    <path d="M198.39 302.414v-3.48h3.132V280.16l.222-5.087c2.415-8.23 15.787-7.658 16.453-.317.282 1.25.204 5.403.204 5.403h-3.538l-.072-2.303c.458-7.795-9.005-6.176-9.475-.94-.196.94-.216 3.244-.216 3.244v18.773h3.654v3.48zm-136.717-16.3l15.382-23.237c18.365 6.137 37.112 6.248 56.06 3.22l16.934 20.017h-6.923l-10.658-15.22c-3.862.892-7.876 1.282-11.876 1.83l4.988 13.39h-5.43l-3.92-13.243c-9.192.357-15.453-.462-21.835-1.2l-2.3 14.453h-5.525l3.73-14.923c-4.342-.813-8.724-1.512-12.362-2.677l-11.292 17.6zM79.3 272.438l6.386 1.73-3.118 11.946H70.874zm16.492 13.675l1.805-10.553c4.288.846 9.885 1.016 15.785.956l2.775 9.597zm30.227-9.784l5.038-1.335 7.552 11.12h-9.18zm39.873 7.933c-5.323-10.705-12.594-20.02-20.5-28.88 7.717-8.113 14.224-17.49 20.472-28.15 6.2 10.76 13.352 20.73 21.23 28.568-8.668 8.622-15.305 18.005-21.204 28.462zm42.903-19.274c-2.564-4.192-5.633-8.383-9.403-12.575 3.44-3.87 6.44-8.014 9.14-12.346 3.112 4.777 6.32 8.923 9.617 12.494-3.486 3.898-6.41 8.17-9.355 12.427zM52.52 209.176c24.57-28.577 21.302-58.577 7.73-82.774l2.886-2.968c15.697 25.794 19.038 62.47-9.9 90.892-.305-1.714-.725-5.15-.725-5.15zm97.982-32.05c3.53 6.008 5.688 12.1 9.418 18.133l-8.85 11.96zM44.788 196.054l.057-57.062 8.3-6.34c9.92 12.04 15.333 43.78-2.48 64.902-1.295-.944-4.823-.55-5.866-1.5zm117.706-3.805c-22.738-38.352-11.174-66.318 10.74-91.152.064 1.914.208 3.82.38 5.726-18.814 21.542-26.338 53.4-7.89 82.223zm-41.174-5.572l10.355-14.1s1.963-5.612 3.616-7.27l1.9-1.68c.633.6 1.837 1.382 1.8 2.084-.04.662-1.016 4.164-1.016 4.164l-12.1 17.71s-3.675-.644-4.543-.896zm55.08-68.487c.327-.37 4.437 1.345 4.437 1.345l.263 57.983-8.23 5.287c-2.388 1.213-21.045-36.84 3.528-64.615zm-86.692 24.425c3.747-5.104 7.694-9.522 11.325-14.2.938.323 3.405.378 3.405.378.26.14-.83 3.89-3.516 6.474-2.7 2.752-9.13 10.293-9.318 14.092-.058 1.17-2.687 2.513-2.687 2.513l-1.87-1.972a24.23 24.23 0 0 1 2.663-7.275zm-23.37-22.24l8.246-10.697.822 28.422zm-28.18-63.03c7.85-8.356 14.79-17.946 21.343-27.857 5.982 9.84 12.616 19.9 20.917 28.06-7.558 8.29-14.72 18.232-20.97 28.1-6-9.6-12.71-19.534-21.3-28.292zM6.835 59.85c3.736-3.618 6.84-7.625 9.372-11.985 2.902 4.404 5.64 8.94 9.52 12.544-3.58 3.838-4.728 5.058-9.61 12.22-2.755-4.464-5.615-8.865-9.284-12.78zm86.492-11.57L77 27.873h7.906l9.723 14.44 11.645-1.33-4.098-13.11H107l3.408 12.9c7.142.17 14.124.725 20.902 1.404l3.484-14.305h4.914l-4.46 14.97 13.15 3.452 11.717-18.42h5.82L149.33 51.656c-21.7-6.52-39.147-5.773-56.004-3.378zM6.024 37.853c-.254-1.803-.31-3.582.017-5.312h3.527s-.022 1.3.027 2.406c.002 6.987 8.363 6.088 9.598 1.686.436-1.555.368-4.042.368-4.042l.015-18.59h-3.582v-3.61h10.61v3.61h-3.308V32.54s-.027.08-.01.4c.063 1.12.1 3.8-.494 5.058-3.352 8.352-15.613 6.458-16.767-.146zm134.372 1.884l3.72-11.877 11.126.012-8.516 13.567zm-26.928-2.89l-2.35-8.975h19.616L128.2 37.907c-5.18-.875-9.91-1.042-14.732-1.06zm-23.515-8.975h7.83l3.05 9.288-4.517.51z" fill="#d40000"/>
    <path d="M74.442 26.558l18.906 22.617c3.94-1.41 23.792-3.674 35.702-.957 2.075 8.13 4.27 16.34 6.593 23.742 0 0-.744.868-1.28 1.42-7.606 8.764-2.222 17.23 4.737 19.992-1.255 2.607-14.592 9.096-22.714 8.325.013-.08-2.495-5.956-7.578-3.97-1.738.68-2.454 1.986-3.8 3.263-4.852-1.463-11.26-4.653-14.59-8.16 6.232 3.103 12.368 4.773 18.53 3.95 0 0-.764-.636-1.63-1.035-.52-.24-1.776-.995-2.79-1.677-2.864-1.93-4.766-4.257-6.728-8.236-2.258-4.032-2.625-8.37-3.863-12.196-.655 1.96-.937 7.14-2.648 8.213-.443.29-.525.203-.856-.894-1.306-3.982-6.084-3.478-7.66-.643-.8 2.437-.684 3.507.326 5.772l-2.897 1.61-.005.48-1.784.85-.372-.25-24.877 12.007s-4.492 7.454-8.604 10.42l-.16-25.312L32.226 74.9l-.058 6.022.875.918.11 157.942-.743.044-.038 4.13.838.188-.118 5.833-.435.03-.063 3.693.664.104-.012 20.844-.657.846.015 5.95 12.712-12.08.284-13.738c10.027 1.893 20.508 9.098 20.508 9.098-1.765-11.506-13.96-20.988-20.966-22.88l.022-27.263s-5.207 2.172-7.78 2.505c-1.274.18-1.764-.013-2.373-.933-.443-.67-.454-1.282-.053-2.668.187-.648.18-.818-.053-1.47-.328-.915-.33-1.33-.01-2.944.336-.95.188-1.455-.164-2.335-.38-.94-.408-1.116-.247-1.658.426-1.427.45-1.66.227-2.296-.437-1.246-.452-2.145-.048-2.953 1.875-3.146 6.077-2.37 8.357-2.257 1.155 1.286 1.846 2.003 1.953.14.81-2.224 3.947.053 5.412.998 12.474-16.715 18.627-39.344 2.98-67.666L44.658 138l.02-8.72c11.542-7.418 24.53-24.284 30.153-37.582 1.87 2.19 4.017 4.345 6.04 6.554l-1.323 2.213-.4-.22c-3.58 6.832-13.305 19.754-13.462 19.623 3.6 6.67 6.805 13.406 9.53 20.222l.714-.32.638 2.053-1.26.377c4.26 13.97 4.398 26.906 1.194 38.835l.752 3.17 5.722 5.648 6.714 6.506 4.113-4.026-.24-.342 36.055-35.797 2.25 2.15-60.44 60.637-1.33.193c-.756.112-1.874.16-2.586.11-1.173-.082-1.317-.055-2.257.392-1.06.504-1.936 1.25-3.108 2.654-.536.642-.904.918-1.498 1.13-7.518 4.483-.72 13.5 5.673 8.758 4.686 8.953 8.655 19.382 10.843 29.697 0 .075-.84.363-.84.363l-16.85 24.984h6.482l.677-1.15h-4.858l15.5-22.39c19.72 5.372 37.82 6.136 56.19 2.94l15.99 19.45h-6.342l.904 1.15 8.207.13-18.794-22.178c-6.73 1.798-24.48 3.245-35.61 1.36-1.704-8.27-4.51-17.26-6.59-24.414 10.626-8.317 2.648-19.296-3.9-20.827-.318-.6 13.298-8.88 22.998-8.305 2.778 6.67 8.86 5.683 11.043.72 4.023 1.477 9.243 2.952 13.387 6.247-5.527-1.21-11.93-1.873-17.2-1.954 10.024 3.887 12.837 12.077 14.07 19.802.217 1.28.904 2.935.904 2.935.854-2.79 1.552-5.67 3.234-8.06.772 2.732 3.618 4.854 6.487 3.23 1.664-1.205 2.243-3.274 1.716-6.134l-.22-1.23 2.227-1.206.3.247s2.44-1.042 3.653-1.632c.2-.093-.223-.472-.223-.472l22.52-10.62c-.085-.047 5.678-7.915 8.986-10.95l.07 24.494 1.27 1.242c1.128 1.1 3.587 3.386 9.13 8.478 1.248 1.146 2.12 1.714 2.12 1.714l-.17-164.866h-.185l-.003-3.172.26-.014.004-8.25-.233-.135-.002-2.6.31-.227.02-22.27-.357-.06-.022-5.34-12.553 13.277.094 12.52c-5.602-.725-12.533-4.31-17.304-7.202-1.542-.94-2.402-1.2-2.354-.653.67 7.454 11.46 18.855 19.754 21.837l.014 28.043c0 .015 1.958-.98 3.154-1.48l.18.498 2.673-1.107.217-.576 2.317-.293c.026.473.105.41.105.41 2.065.577 2.98 1.985 2.147 3.567-.29.53-.347 1.282-.106 1.48.895 1.412 1.13 2.656.048 3.992-.416.683-.413 1.068.015 1.793 1.117 2.253.482 2.104-.358 3.446-.2 1.014.922 1.675.556 2.63-.17.63-.835 1.368-1.286 1.7-.528.383-.962-.33-.962-.33s-1.673.718-2.876.947c-1.183.384-3.22 1.07-3.925-.522-.404-.912-.08-1.745-.106-2.765l-1.735-.19-.063 4.63c-.993.528-4.94-1.49-4.94-1.49-16.936 21.95-16.46 46.296-3.9 66.692.122.327 8.85-5.97 8.85-5.97l.058 7.96c-11.096 9.176-21.813 21.523-29.474 36.744l-4.746-5.626c.817-.722.848-1.866.83-2.73l3.446-5.138.03-1.334 8.96-12.517c.14.75-9.246-16.804-10.496-22.52l.62-.17c-4.212-15.936-3.348-27.096-.306-40.094l-.868-.838L137.3 119.77l-2.872 2.67c-.147.137-.867.056-1.014.193-6.222 5.833-12.203 11.69-18.124 17.773-.153.157.105.806-.048.963-5.93 6.107-12.078 11.904-18.08 18l-2.19-2.1 61.283-60.704s.173-.313.45-.324c1.114-.042 2.11-.296 3.21-.614 1.32-.306 1.532-.403 2.088-.976.34-.35.897-.842 1.237-1.092.58-.426 1.906-1.54 3.978-3.345 1.267-1.103 2.048-2.708 2.02-4.142-.05-2.552-1.738-4.73-3.915-5.04-.904-.13-2.678.34-3.577.947-.685.462-1.007.673-1.3.467-4.337-8.795-8.558-19.857-10.347-28.984-.096-.576-.044-.746.425-1.47l1.416-2.21 12.59-18.56 2.06-2.987 1.03-1.69h-6.687l-.825 1.315h5.504L149.25 51.438c-30.172-9.863-54.898-3.61-55.49-3.476l-16.312-20.09h7.46l-.904-1.315zm14.685 0l.83 1.315h7.825l-.444-1.315zm13.05 1.315H107l-.277-1.315h-4.95zm8.633-1.315l.306 1.315h19.616l.348-1.315zm23.984 1.315h4.914l.37-1.315h-4.943zm9.726-1.315l-.42 1.315h11.143l.835-1.315zm47.65 9.094l.174 3.653-8.033 8.467.01 11.82-2.34-.543-.093-12.216zm-2.252 7.787c.068 3.62-.518 7.092.44 10.783.47 1.817 1.427 3.947 1.547 6.095l-2.65-.063c-.335-1.085-.466-2.28-.864-3.616-.98-3.29-1.772-6.758-1.05-10.247zm-57.832 5.905c.096.18.413 1.71.706 3.128 1.39 7.79 3.256 13.568 5.157 19.45 2.417 7.41 5.995 16.74 9.474 21.064.46.54.688 1.153.522 1.42-.28.454-1.7-.18-2.654-1.184-.4-.41-1.14-1.563-1.692-2.596-1.215-2.275-2.85-5.586-3.01-6.1-.066-.213-.707-1.848-1.426-3.635-1.258-3.125-2.003-5.264-3.055-8.74l-2.533-8.546c-1.52-4.75-2.402-8.528-3.248-12.896-.124-.642-.338-1.4-.26-1.543.48-.347 1.788-.208 2.02.184zm.85.296c-.15-.126 1.38-.15 1.87.26.145.145.405 1.06.628 2.233 1.385 7.166 3.47 14.57 5.892 21.586 1.936 5.605 4.05 11 6.685 15.37.826 1.456 1.944 3.012 3.37 4.693.798.942.863 1.074.648 1.334-.264.318-.725.277-1.614-.145-.83-.393-1.728-1.256-2.57-2.475l-.976-1.392c-3.886-6.717-6.244-13.1-8.38-19.58-2.19-6.646-4.16-13.367-5.5-21.113l-.048-.773zm4.88 1c.34.346.535 1.01.833 2.393 1.617 6.644 2.942 12.58 4.853 18.034 1.028 2.933 1.918 5.864 3.02 8.628 1.76 4.414 3.916 8.435 6.564 11.784.873 1.102 2.458 2.462 3.79 3.253.922.548 1.06.688 1 1.005-.08.285-.98.404-1.276.382-1.457-.25-3.6-1.378-4.224-2.214-4.454-4.813-7.64-12.69-9.96-19.152-3.986-11.126-7.202-25.024-6.6-24.592-.04-.323 1.595.048 2 .48zm1.915.402c.144.003.307.028.488.077.832.227.94.344 1.14 1.262 1.424 6.353 2.933 11.956 4.616 17.284 1.713 5.423 3.475 10.537 6.22 15.902 2.014 3.915 4.562 6.62 7.303 8 .787.393 1.49.77 1.56.84s.052.275-.043.454c-.145.27-.31.326-.98.314-1.243-.02-2.116-.408-3.45-1.305-3.5-2.414-6.562-7.88-7.912-10.982-1.648-3.783-3.163-7.715-4.53-12.002-2.452-7.692-3.98-12.78-5.1-19.27 0-.373.253-.573.686-.566zm52.462 10.382l-.024 2.252c-8.815.585-17.853-3.142-25.117-6.496 5.473 7.26 11.314 13.7 25.117 15.03l.025 2.325c-17.978-.255-30.64-18.46-29.974-22.998 7.394 4.776 20.752 10.3 29.974 9.886zm-49.616-9.536c.432.02 1.015.203 1.242.43 1.47 5.485 2.54 11.574 4.97 17.686 2.985 7.5 4.64 14.138 10.174 20.325 1.72 1.77 5.094 1.716 5.094 1.716s-.426.957-1 1.117c-1.186.18-2.045.233-2.9-.046-3.205-1.354-5.655-4.778-6.92-7.098-1.185-1.74-4.078-8.903-6.462-16.207-2.596-7.952-4.735-16.22-4.5-17.884.09-.035.16-.045.305-.04zm2.963.923c.212 0 .493.08.83.242.36.172.518.28.706.957.122.443.102 1.126.32 2.238 1.25 5.727 2.973 10.376 4.684 14.906 1.625 4.304 3.37 8.53 5.52 12.35 1.086 1.924 2.163 3.724 2.842 4.403 1.852 1.852 4.994 1.944 5.92.106.513-1.045.408-2.7-.608-3.557-.788-.752-2.573-.434-2.62.473 0 .24.444.134 1.088.058 1.797-.208 2.36 2.974.048 3.504-2.926.672-4.956-3.284-2.373-5.708 4.378-2.968 7.72 1.088 6.685 4.988-1 2.306-2.675 3.48-4.887 3.562-2.855.092-4.037-.79-6.965-5.046-3.356-5.387-4.812-10.645-7.178-16.535-2.237-5.57-3.726-11.512-4.427-16.7.062-.16.204-.242.416-.242zm2.776.92c.258.01.802.145 1.042.293.144.09.35.286.35.286 3.936 14.363 7.22 22.967 10.56 29.04 0 0-.054 1.117-.277 1.434-.398.57-.593.43-1.112-.47-2.102-4.07-4.104-8.563-5.97-13.195-2.195-5.45-4.143-11.094-4.97-16.463.043-.692-.112-.886.374-.926zm26.553 8.2c.557 0 1 .45 1 1.005a1.01 1.01 0 1 1-2.02 0c0-.557.453-1.005 1-1.005zm-81.792-.184c-1.167 1.59-2.124 7.283-3.338 7.352-1.335-.02-2.96-.787-4.01.42-1.273 1.467-.492 3.09 1.078 3.983.72.357 2.257.442 3.2.174 3.82-1.28 5.27-7.478 3.08-11.93zm85.6 1.494c.805 0 1.455.655 1.455 1.46s-.65 1.455-1.455 1.455-1.455-.65-1.455-1.455.65-1.46 1.455-1.46zm-85.543.69c1.306 3.282-.14 7.21-1.73 8.53-1.464 1.217-3.763 1.374-5.075.19-1.094-1.027-.607-3.495 1.43-3.31.686.022 1.502.646 1.962 1.305 1.328.137 2.856-6.595 3.412-6.714zm90.618.802c.908 0 1.643.736 1.643 1.643s-.736 1.643-1.643 1.643-1.643-.736-1.643-1.643.736-1.643 1.643-1.643zm5.82 1.16c.927 0 1.677.75 1.677 1.677s-.75 1.677-1.677 1.677-1.677-.75-1.677-1.677.75-1.677 1.677-1.677zm-54.16 7.627c.25-.002.426.24.6.72.34 1 .333 1.117-.198 1.788-5.16 7.14-.456 14.442 7.018 15.235.63.045.947.754 1.28 1.58-.046.4-.05.4-1.745.42-1.11.02-1.998-.05-2.552-.198-2.62-.705-5.827-3.07-7.14-5.264-1.51-2.527-1.764-5.14-.83-8.623.598-2.236 1.358-3.713 2.533-4.93.47-.486.794-.728 1.044-.73zm48.905.793l.087 24.5-2.6.952.106-26.057zm4.938.946c3.25 8.072 3.395 15.47.46 22.202l-2.965.43c4.067-9.483 2.337-16.272.04-22.826zM33.323 76.625l10.556 9.962.367 110.98-1.682-.595-.672-109.16-8.57-7.858zm103.088.32c.018 0 .036.003.053.005.282.034.54.4.778 1.063.28.794.275.817-.04 1.605-1.45 3.55-.266 6.93 3.31 7.995.85.27 1 .407 1.49 1.46.324.684.47.93.343 1.083-.186.135-.64.2-1.987-.092-5.323-1.816-7.254-7.638-4.833-12.258.302-.528.578-.815.83-.856.018-.003.036-.005.053-.005zm-42.38-.44s1.112 3.928 1.005 4.82c-.282 1.722-2.728 4.472-4.867 5.476-1.985.76-4.982.378-6.235-.943-4.555-5.33 3.943-10.683 6.08-5.133 1.284 3.642-3.94 4.503-4.17 1.706-.002-.72.232-.947.904-1.416.598-.417.53-.788.015-.788-1.973.72-2.018 2.538-1.13 3.684 1.777 1.858 3.977.776 5.492-.588 2.04-1.837 2.44-4.474 2.908-6.818zm44.074 4.052c.102 0 2.2 4.99 2.467 5.7-.07.5-.615.464-1.546-.186-.946-.66-1.228-1.127-1.63-2.658-.12-.544-.323-2.526.708-2.855zm-42.377 2.106c.46 0 .937 1.688.72 2.552-.376 1.496-4.297 4.026-7.052 4.548l-1.315.247c-.57.102-1.235-.217-1.93-.923-.49-.498-.722-.994-.604-1.11.096-.096 1.36.124 2.43.107 3.002.035 5.32-2.118 7.1-4.685.27-.404.563-.735.648-.735zm-59.67 1.25l3.103 2.893c-.115 4.894-1.92 10.2-1.92 14.573.043 3.806 2.506 6.974 2.755 10.286.148 2.142-.48 5.323-1.537 7.734-.983 2.244-1.5 4.637-1.498 6.96.125 5.406 4.008 11.317 2.644 16.666-1.282 5.024-2.74 7.926-2.354 10.595.746 5.148 3.483 9.71 2.755 13.993-.678 3.988-2.48 7.97-2.286 11.566.222 4.152 1.775 7.624 2.214 11.412.286 2.467-.41 6.305-.41 6.305l-2.848.235c1.566-5.833-.767-11.107-1.66-16.714-.76-4.774 1.378-8.572 2.016-12.644.396-2.53-.052-4.938-1.305-8.16-2.476-5.948-1.586-9.824.198-15.003 2.206-5.516-.828-9.883-1.585-15.167-.4-4.554-.087-7.774 1.624-11.823 1.275-3.898 1.635-6.158-.266-9.9-1.2-2.364-1.516-3.76-1.518-6.873.62-6.176 2.287-9.64 1.88-16.934zm61.027 2.463c.443 0 .662.312.662.943 0 1.152-1.718 2.612-4.756 4.04-1.576.74-2.49.852-3.412.416-.86-.407-.818-.764.126-1.04 2.375-.693 4.06-1.64 5.98-3.364.6-.548 1.242-.996 1.402-.996zm-13.747.795c7.837 8.388 15.522 12.706 21.398 14.724l-.924 2.192c-7.72-3-15.595-7.15-22.266-16.09zm15.1 1.37c.21 0 1 1.012 1 1.28 0 .157-.29.664-.648 1.12-.52.664-.976 1.007-2.272 1.716-1.755.96-2.815 1.195-3.577.793s-.502-.736 1.387-1.846c.975-.573 2.277-1.5 2.9-2.054s1.155-1 1.208-1zm-20.76 1.237c6.42 8.785 14.688 14.622 24.408 17.736l-1.528 2.066c-8.88-3.06-17.564-8.594-25.498-18.34zm22.422 1.083c.323 0 1.05.82 1.05 1.184 0 .175-.142.497-.314.715-.344.437-2.136 1.785-2.9 2.18-.598.31-1.046.304-1.697-.02-.773-.385-.64-.707.62-1.518.617-.397 1.55-1.133 2.074-1.634s1.05-.91 1.17-.91zm-25.83.64c-.183.23-9.453 21.463-29.093 36.517l-.093-3.526c10.88-8.628 18.788-20.44 24.754-30.755zm27.695 1.525c.297-.008.506.193.715.6.25.474-.023.896-1.12 1.726-.686.518-.94.62-1.508.61-1.462-.026-1.425-.378.18-1.813.832-.744 1.353-1.1 1.735-1.112zm37.928 1.05l4.094.314c1.103.767-16.002 11.962-27.86 10.957l.314-2.683c10.41.297 23.737-8.105 23.452-8.59zm-35.118 1.048c.94.527 2.112 1.15 1.82 1.354-.436.272-3.213.096-3.852-.247-.48-.256-.452-.4.208-1.13.808-.908.948-.464 1.824.023zm-36.495-.666c-6.488 11.445-14.215 21.892-23.16 28.698l-.12-6.054c8.512-6.553 14.956-18.523 14.973-18.566zm81.257.73l1.984 1.16c-12.37 11.45-25.732 16.385-38.572 15.15l1.033-2.32c20.835 1.646 34.67-13.767 35.555-13.988zm3.007.406s.665-.084.594.052c-4.108 4.025-9.747 8.322-13.44 10.72L92 154.503l-2.436-2.55 2.205-2.334c.007-4.6 5.653-9.78 9-13.76 1.397-1.574 4.02-5.622 3.722-7.323-.102-.39-.116-.537-.116-.537 5.294-1.057 6.56-5.35 6.675-9.145.247-2.537.585-4.84 1.44-6.926 23.96 1.92 39.398-15.72 40.057-16.338zm-41.754 2.65c2.718-.01 4.772 2.14 4.766 5.19-.022 1.275-.472 2.243-2.2 5.617-1.674 2.883-1.893 4.638-2.55 7.968l-1.703-1.53-3.098 2.79.043-4.068s1.07-1.358 2.797-3.298c2.2-2.43 4.172-5.56 4.08-7.32-.058-1.76-1.916-3.19-3.817-2.04-1.65 1.154-2.413 3.242-3.385 9.483-.172 1.106-.334 2.408-.424 2.692-.244.768-2.632 3.027-2.632 3.027-.203 0-1.146-4.58-1.146-4.58l-2.412.4c2.796-3.035 4.965-6.694 6.375-10.527 1.295-2.365 2.945-3.78 5.307-3.804zm-52.496.972s-4.804 9.98-13.237 16.47l-.055-3.907c4.9-3.8 8.633-10.348 8.628-10.334zm115.62.253c-16.674 17.266-38.438 49.06-11.43 93.724l3.568-4.117c-21.748-40.395-6.336-61.332 7.98-82.34zM83.75 100.89c4.882 3.47 9.98 6.917 16.568 9.108-.35 1.174-9.41 8.797-2.9 15.846.272.37-.42 1.267-1.478 2.54-3.106 4.245-6.206 7.267-8.802 12.045l-.106 8.975-2.596-2.29zm89.526.827l.11 5.12c-24.776 30.11-21.986 57.223-7.98 82.196l-2.683 2.72c-22.954-39.508-8.633-69.292 10.553-90.036zm-61.123 3.028c-1.093 2.886-5.87 7.83-5.87 7.83s.633-4.814 1.03-6.332c.304-1.16.99-2.725 1.668-3.475 1.93-2.12 3.854.287 3.172 1.98zm-32.872-2.707l.464 40.343-3.482-3.51-.512-30.85zm-4.704 7.895l.693 27.392c-3.476-8.207-8.362-17.19-8.46-17.103l7.767-10.29zm27.505 8.57s.53-.446 1.364-1.402c1.806-1.826 1.97-1.838 1.803.624-.064.947-.01 2.16-.01 2.16 1.057-.613 3.55-3.558 4.254-3.027.545.51.984 1.578.995 3.235-.062 3.243-1.897 6.22-4.804 7.192-8.028 2.486-13.412-6.773-7.837-12.643.554-.583 2.133-1.664 2.89-1.45.94 1.716.906 3.62 1.344 5.3zm79.654-2.9c.467 1.277 1.064 2.54 2.7 3.113l-.063 108.67 7.888 7.402L192.2 238l-10.454-9.57-.01-112.848zm7.833 1.817c.28 3.794-.362 7.8.3 11.687.643 2.695 1.617 5.125 1.697 7.777.073 2.425-.085 3.805-1.12 7.192-.724 2.364-.796 2.74-.962 5.104-.4 3.3.673 6.272 1.49 8.894 1.084 3.476.782 7.68-.952 13.224-.624 1.995-.743 2.837-.653 4.645.24 3.796 1.596 7.405 2.286 11.13.374 2.135-.01 4.93-1.324 9.667-.49 1.763-1.005 4.833-1.005 5.994 0 1.245.398 3.59.783 4.6 1.824 4.794 1.913 5.653 2.007 8.534.013 2.163-.61 4.352-1.38 6.256-1.278 3.042-.438 6.166 0 9.585l-3.145-2.686c-.927-2.927-.6-5.663.26-7.846 1.223-3.418 1.53-3.734 1.513-5.7-.022-2.607-1.517-5.7-2.136-7.524-1.098-3.255-1.1-6.447-.01-9.89.536-1.7 1.3-5.006 1.484-6.35.334-2.587.08-4.63-1.218-9.822-.634-2.533-.768-3.51-.812-6.032-.04-2.335.298-4.764 1.05-7.58 1.08-4.474 1.068-7.16-.338-11.3-1.137-3.43-1.455-5.756-1.165-8.488.168-1.584.6-3.07 1.33-4.553 1.347-3.364 1.553-6.58.55-9.793-1.724-6.573-1.695-9.912-1.525-15.845zm-8.836 2.15l.004 57.656s-7.964 5.575-7.93 5.286c-10.26-16.92-14.172-41.844 3.75-64.324 0 0 2.885 1.23 4.176 1.382zm-121.11 6.407c14.522 27.115 16.412 54.508-7.6 82.61.773 2.484.646 4.8.262 7.066 4.68-3.644 42.22-41.14 10.605-93.347zm74.004-2.207l7.133.42.48 6.136-2.306 2.286-.073-2.402c-.037-1.387-.233-2.6-.363-2.557-.12.04-.25 1.658-.353 3.422l-.106 2.634-.798.798c-1.064 1.062-1.28.98-1.32-.517-.09-3.253-.08-3.476-.32-3.238-.134.134-.21 1.247-.242 2.93-.026 1.335-.12 2.615-.208 2.842-.18.466-1.537 1.677-1.88 1.677-.33 0-.312-.47-.314-2.494-.002-1.708-.18-2.645-.454-2.016-.065.15-.18 1.846-.203 3.224s-.114 2.637-.198 2.794c-.296.553-1.697 1.738-1.943 1.643-.354-.136-.442-1.15-.43-2.842.006-.83.135-1.53-.184-1.755s-.376.734-.3 3.17l-.024 2.65-.894.976c-1.417 1.46-1.515 1.4-1.518-1.13.063-1.995-.008-2.87-.4-2.712s-.237 1.123-.16 3.09c.07 1.757.047 2.638-.072 2.86-.095.178-.555.696-1.02 1.15s-1.038 1.083-1.107 1.083l-.3-6.675-7.44-.33s1.523-1.808 2.17-2.156c.336-.18.86-.202 2.726-.12 1.27.055 2.98-.053 3.132-.11.56-.214-.606-.406-2.248-.512-1.096-.08-1.38-.05-2.596-.227l1.083-1.117.812-.807 2.373.077c1.436.048 2.503.04 2.668-.053 1.405-.277.09-.597-1.513-.6-1.563-.003-2.446-.005-2.446-.348 0-.35 1.75-1.936 2.248-2.04.257-.053 1.53-.106 2.828-.116 2.23-.018 3.04-.05 2.915-.42s-1.603-.26-2.586-.305c-2.73-.004-2.857-.107-.99-1.74l.904-.793 1.71.048c2.582.073 3.833-.03 3.833-.275 0-.22-1.68-.435-3.108-.435l-1.547.015c.638-.83 1.322-1.504 2.07-2.243l2.306-.043c1.683.025 2.717.09 2.745-.217s-.603-.304-1.378-.31c-1.047-.007-2.29-.097-2.455-.26-.177-.177.153-.67.885-1.324l.754-.682zM63 123.84c19.953 32.593 12.75 67.814-9.497 89.735l-.653-4.277c21.003-25.54 24.67-51.913 7.68-82.942zm37.107 4.376c-3.582 5.386-9.06 10.7-11.126 15.098-.423.494-.56 1.61-1.218 1.833-.328 0-.435-.62-.353-2.06.062-1.083.163-1.447.686-2.504 2.827-5.16 6.103-8.87 9.72-13.77zm.84.52l3.31.2a17.03 17.03 0 0 1-2.9 5.534c-1.502 1.95-3.3 3.914-5.415 6.312-3.05 3.473-4.577 7.01-4.435 8.564-.763.805-1.292 1.358-2.26 2.182l-1.93-1.776c1.432-7.345 8.366-14.093 13.632-21.026zm40.51 2.983l1.073.063c3.672.215 5.963.44 6.095.6.082.1.19.663.242 1.252.08.896.003 1.49-.47 3.625-.31 1.404-.66 2.648-.773 2.765-.423.43-.59.002-.788-1.99-.12-1.203-.166-2.08-.324-1.982-.075.047-.24 1.338-.193 2.3.123 2.507.107 3.12-.672 3.876-1.364 1.324-1.44 1.2-1.542-1.16-.043-.975-.275-2.396-.343-2.465-.295-.295-.394 1.056-.396 3.34v2.436l-.648.706c-.845.916-1.12 1.055-1.43.744-.192-.192-.12-.61-.12-2 0-1.63-.285-2.57-.595-2.257-.058.06-.073 1.637-.077 3.01l-.04 2.702c-.05.33-1.597 1.885-1.875 1.885-.325 0-.585-1.795-.585-3.263 0-.98-.21-1.152-.416-.614-.052.135-.092 1.5-.092 2.745v2.243l-.91.938c-1.215 1.258-1.413 1.184-1.416-.537-.002-1.483-.102-2.267-.4-2.267-.172 0-.213.702-.213 2.368 0 1.143-.074 2.274-.164 2.513s-.488.766-.885 1.17-.803.735-.904.735c-.168 0-.407-1.405-.343-2.01.013-.128.013-1.012 0-1.967-.032-2.28.123-2.182-3.514-2.296-4.268-.134-4.33-.16-3.045-1.402 1.22-1.18 1.048-1.136 3.876-.947 2.27.15 2.546.14 2.774-.087.14-.14.217-.3.174-.334s-.91-.123-1.924-.18c-2.8-.155-3.055-.358-1.866-1.547l.672-.677h2.876c1.94 0 3.26-.085 3.333-.2.186-.302-.583-.377-2.43-.485-.99-.058-1.925-.14-2.074-.184-.47-.14-.295-.612.498-1.353l.764-.715h2.538c2.356 0 3.51-.154 3.51-.464 0-.22-.468-.308-1.677-.324-1.71-.022-2.852-.187-2.93-.42.417-.807.994-1.26 1.668-1.933l2.58.092c2.598.092 3.412-.002 3.412-.454 0-.236-1.112-.406-2.552-.32-.927.056-2.05-.166-2.05-.493 0-.14.372-.63.83-1.083l.836-.822 2.528.1c1.4.057 2.914.043 3.026-.034.42-.287-.553-.512-2.14-.604-2.45-.142-2.61-.333-1.315-1.556zm-88.143 1.353c13.096 23.452 11.134 45.545-2.813 64.348-1.602-.932-3.308-1.44-5.133-1.634l-.353-56.624zm93.668 9.164c.262-.04.257.39.184 1.3-.06.73-.17 1.497-.247 1.7-.15.396-.27.414-1.542.232-1.448-.207-1.427-.468.164-2.035.77-.758 1.21-1.163 1.44-1.2zm-70.312 1.054l2.587.02s.134 4.388.487 6.92l5.613.27-2.18 2.266-4.257-.136s-1.294-6.23-2.25-9.34zm66.9 2.654c.8-.013 2.866.342 3.108.585.2.2.196.658.03 3.5-.06 1.02-.122 3.213-.135 4.872-.025 3.003-.025 3.015-.372 3.064-.458.065-.5-.095-.633-2.074-.07-1.114-.223-2.09-.353-2.132-.15-.05-.135.932-.135 2.963v2.625c-.447.37-.86.86-1.373 1.12-.314 0-.483-.493-.638-1.866-.154-1.364-.305-2.324-.488-2.02-.043.07-.025 1.556.063 2.774l.16 2.22-.986.99c-1.01 1.02-1.138 1.103-1.3.84-.377-1 .157-5.64-.754-6.226-.146-.077-1.356-.1-2.76-.17-2.37-.1-3.715-.14-4.046-.425-.2-.173.92-1.47 1.494-1.73.414-.187.883-.2 2.837-.068 2.262.15 3.403.135 3.103-.155-.078-.075-1.23-.244-2.132-.334-1.82-.18-2.46-.363-2.46-.7.423-.75.942-1.194 1.566-1.837l.88.092 2.542.276c.915.105 2.76.122 2.016.058.242-.242-.702-.5-2.01-.653-2.468-.306-2.69-.585-1.45-1.808l.764-.75c1.296.098 2.605.13 3.89.33.94.15 1.45.096 1.45-.222 0-.223-.47-.214-1.605-.44-.412-.082-2.536-.05-2.57-.677.5-.694 1.4-1.96 2.3-2.016zm-57.518 5.322c.377-.02.396.897.435 3.32.043 2.655.086 3.112.314 3.34.218.217.762.292 3.093.41 3.57.18 3.66.233 2.402 1.445-.876.843-.913.737-1.634.653-1.886-.22-4.643-.17-4.75.005-.186.3.016.362 1.74.493 2.1.16 2.673.234 2.673.6 0 .157-.358.618-.793 1.025l-.793.74-2.21-.087c-2.325-.094-3.52-.127-3.52.188 0 .19 1.327.402 3.432.61.546.054 1.106.063 1.136.155.075.23-.988 1.546-1.643 2.035-.534.398-.714.176-3.045.126-2.38-.05-2.585.04-2.14.48.106.105.5.117 1.387.18 1.457.102 2.156.32 2.156.682 0 .345-1.313 1.704-1.93 1.996-.542.257-.776.27-1.977.1-.947-.132-1.127-.33-1.102-1.218l.155-5.766c.142-5.353.186-5.626.894-5.525.302.043.373.408.454 2.223.086 1.932.167 2.315.488 2.315.12 0 .138-.767.063-2.63-.117-2.9-.122-3.32.76-4.157.392-.373.704-.67.89-.4.373 1.14.267 2.385.377 3.528-.01 1.15.437 1.392.54.295l-.077-5.157 1.073-1.063c.566-.562.924-.915 1.15-.928zm-6.955 2.165c.426-.07 2.815-.03 3.16.048-.6.95-1.88 2.185-2.755 2.73-.22.012-.448-2.304-.406-2.78zm67.654 5.254l.507 3.572-3.9-.266zm-52.56.58c.026-.003.05.003.068.01.282.108.362.797.474 4.113.053 1.56.16 2.784.256 2.9.113.136.6.203 1.503.203.734 0 2.117.046 3.074.1 2.087.12 2.142.208.9 1.436l-.84.83-2.615-.106c-2.68-.11-3.127-.064-3.127.305 0 .25.458.37 1.315.348.34-.01 1.193.036 1.895.102 1.566.146 1.598.265.43 1.523l-.84.904-.817-.11c-1.313-.18-4.764-.137-4.964.063-.322.322.097.46 1.668.556 2.437.15 2.86.22 2.86.498 0 .135-.345.59-.764 1l-.76.76-3.093-.16c-2.17-.037-2.9 0-2.958.14-.084.244.272.32 2.51.55 2.147.222 2.46.444 1.643 1.46-.897 1.116-1.234 1.24-2.924 1.078-1.86-.18-3.76-.184-4.036-.01-.428.27.012.453 1.334.55 2.002.15 3.17.364 3.17.657 0 .33-.663 1.183-1.305 1.672l-.527.4-2.286-.242c-2.277-.243-3.442-.122-3.118.203.094.094.942.227 1.88.295 1.718.124 2.57.347 2.57.7 0 .106-.438.626-.972 1.155-.542.537-1.15.893-1.15.893l-7.037-.632s-.36-1.256.348-4.67c.637-3.077.898-3.767 1.204-3.195.085.16.164.906.222 1.416.142 1.235.446 2.01.628 2.01.204 0 .203-.734-.063-2.46-.37-2.406-.413-2.502.503-3.47.785-.83 1.23-1.026 1.474-.648.07.106.163 1.197.256 2.112.164 1.61.26 1.98.47 1.77.135-.135.235-.596.087-2.982l-.19-2.32 1.03-1.05c.94-.96 1.05-1.025 1.237-.778.13.17.275 1.166.343 2.354.102 1.756.242 2.334.498 2.078.12-.12.062-4.11-.068-5.032-.084-.603-.042-.69.72-1.547.908-1.02 1.385-1.44 1.634-1.445.327-.007.505.994.508 2.325.002 1.42.114 1.982.246 2.16.34.457.38-1.146.3-2.73l-.092-2.9.938-.938c.887-.887.96-.926 1.208-.677.206.206.192.697.275 2.156.125 2.017.52 3 .633 1.6.06-.317.05-.934-.02-1.373s-.128-1.434-.126-2.21c.003-1.18.06-1.496.348-1.962.417-.674 1.644-1.726 2.03-1.764zm40.654 2.2s1.57 1.343 1.57 1.726c0 .17-.622.908-1.465 1.735-1.553 1.524-1.7 1.786-1.88 3.422-.067.6-.375 1.42-1.092 2.86-.55 1.106-1.344 2.397-1.344 2.397-2.48 2.962-4.82 5.676-9.166 11.93-.248.575-.26 1.15-.515 1.627-.196.354-.635.645-.828.726-.286.12-.86.475-1.276.793-1.623 1.24-2.67 2.87-3.142 4.9-.255 1.097-.407 2.083-.85 5.467-.182 1.39-.793 3.814-.793 3.814-9.34-.133-18.083 1.485-25.877 5.884zm12.48 1.436l2.078 9.44-2.14-.043-.213-6.854-6.68-.638 2.388-2.3zm-10.136.865c.572.583 1.285 1.223 1.803 1.856-1.786 5.97-7.442 13.718-13.06 21.403l-4.118-.45c-.072-.17 5.704-8.223 8.468-11.276 1.053-1.275 1.77-2.484 2.71-4.363.34-.68.934-2.44 1.4-4.274.97-1.17 2.814-2.877 2.808-2.895zm2.22 2.093l3.113 3.156.76 44.693c-4.8-3.768-10.46-6.56-16.493-8.684l1.053-2.402 1.16-1.247c4.103-4.44 3.19-9.222.068-12.6 3.803-5.545 7.248-9.677 10.145-15.1l-.04-3.712c-.034-3.422.232-4.113.232-4.113zm-37.242 1.866c.326-.033.367.793.45 3.137.077 2.19.17 3.228.314 3.456.195.305.382.332 2.968.41 2.73.083 3.296.162 3.296.454 0 .083-.35.504-.778.933l-.778.778-2.43-.04-2.866.053c-.215.2.594.472 1.78.474.737.002 1.9.132 2.045.184.46.177.245.63-.76 1.595l-1 .967-2.21-.043c-1.213-.022-2.69.014-2.88.077-.67.223-.337.405.773.42 1.858.025 3.14.18 3.195.47.027.14-.318.656-.773 1.146l-.827.885-3.248-.135c-3.07.023-3.485.25-.923.508a58.93 58.93 0 0 1 2.576.348c.055.01.143.124.193.256.108.28-1.13 1.675-1.788 2.016-.34.176-.576.187-1.165.053-.692-.157-3.667-.128-3.988.063-.27.16.315.346 1.14.363 1.243.025 2.726.385 2.726.682 0 .243-.63 1.024-1.3 1.6-.31.27-1.048.03-3.103.097-1.407.046-2.344.178-2.344.27 0 .086.698.36 1.595.425.89.063 2.107.276 2.2.358.21.21-1.373 2.076-1.373 2.076l-6.754-.095-.622-7.153.575-.662c1.292-1.493 1.574-1.276 1.832 1.402.19 1.962.33 2.56.614 2.277.104-.104.062-1.223-.043-2.87l-.16-2.745c0-.373 1.536-1.986 1.837-1.93.295.057.46.725.62 2.557.13 1.505.2 1.916.498 1.62.14-.14.158-.927.02-2.832l-.184-2.49.653-.773c1.31-1.552 1.566-1.38 1.726 1.14.108 1.7.272 2.596.585 2.596.105 0 .108-1.27.043-3.2l-.097-2.88.817-.83c.45-.455.91-.827 1.015-.827.318 0 .5.723.7 2.43.225 1.914.3 2.243.483 2.06.078-.078.062-1.237-.043-2.726l-.227-2.852.996-1c.55-.554 1.1-.986 1.223-.962.3.058.494.92.517 2.14.022 1.14.216 2.12.47 2.373.125.125.162-.576.13-2.6-.05-3.13-.13-3.37 1.28-4.838.376-.392.622-.645.793-.662zm36.463 1.28l.03 4.37c-1.752 3.748-5.8 9.242-9.904 15.138l-2.14-1.16c5.134-6.73 9.426-13.002 12.015-18.35zM80 170.38a4.57 4.57 0 0 1 .324.01c1.108.065 1.137.447.106 1.41-.432.404-.923.725-1.112.725-.32 0-.335-.048-.237-.88.12-1.023.245-1.26.918-1.266zm66.9 3.15l3.026 2.977.76 32.007-3.185 5.194zm3.8 4.22c2.728 6.42 5.562 12.437 8.7 17.318l-8.09 11.42zm-27.213 9.977c3.72-.052 7.143 2.89 7.574 5.882.813 3.434-.956 7.134-3.86 8.27-1.012.363-1.604.387-1.604.387-.353-2.07-.2-4.066-.67-6.168 0 0-1.74 2.296-2.72 3.1-.508.28-.735.356-.67-.31l.122-3.743-4.297 4.447s-.35-.483-.764-1.6c-1.35-3.614.403-7.387 3.17-9.12 1.206-.792 2.477-1.138 3.717-1.155zm57.17-.27l.082 3.913c-6.744 5.228-16.364 16.246-24.607 30.605l-3.63 1.53c5.593-13.364 17.4-26.975 28.155-36.048zm.073 5.145l.072 5.83c-5.95 5.72-11.12 11.63-15.62 19.238l-7.493 3.658c-.61-.148 13.256-21.733 23.042-28.727zm-60.026 4.994c.272-.004.258.522.172 1.282-.193 1.722-.395 2.347-1.025 3.185-2.18 2.573-5.643 6.073-6.114 9.33-.238 1.74 1.12 3.366 2.453 3.2 4.143-.518 4.59-7.88 4.938-11.512.145-.9.212-1.656.362-1.94.873-1.114 1.812-2.2 3-3.08l.508 5.628 2.334-.78c-6.583 8.946-4.69 9.507-8.164 13.172-3.227 3.406-9.487-.474-7.885-5.652 1.392-3.484 3.547-6.98 4.128-10.712l.25-1.878 1.497 3.123c.76-.752 2.984-3.233 3.556-3.365zm60.272 1.93l-.015 4.017c-3.07 3.456-5.72 6.11-8.854 10.888l-4.98 2.27c3.25-6.194 8.586-11.99 13.85-17.176zm-60.857 3.545s.33 1.876-.398 5.28c-.345 1.615-1.9 6.33-4.356 5.218-2.086-1.843.456-5.26 1.737-6.876l3.018-3.623zm-6.556.482l-1.358 2.905c-12.203.044-24.054 4.41-34.603 13.32l-2.668-.875c11.175-10.57 25.03-15.708 38.63-15.35zm12.828 2.233c13.752 4.604 20.102 11.323 25.304 18.37l-2.174 1.114c-5.45-7.054-12.178-13.51-24.705-17.242zm-15.756 4.345l-.585 2.49c-7.702.23-15.83 2.964-23.737 8.454l-2.852-.454c7.96-6.245 17.05-9.81 27.174-10.49zm35.197 16.816L143.4 228.1c-7.29-9.456-13.88-12.148-21.367-14.556l.807-2.098c10.062 2.67 17.446 7.778 23.002 15.5zm-101.635-11.15l.21 25.233-1.757-.35-.25-24.403zm-4.07 1.368c-3.35 12.552-.752 15.8.46 23.126l-2.774-.444c-2.7-7.42-2.977-14.17-.7-22.05zm84.292 1.927c.2.2-.17.816-.686 1.12-.5.295-.39.25-1.19-.04-.778-.28-1.77-1.016-1.77-1.295.567.01 3.147-.018 3.644.213zm2.364.18c.46.056 1.786.03 1.87.445.03.248-.5.65-1.555 1.377-1.618 1.105-2.168 1.323-2.644.798-.45-.497-.318-1.012.44-1.71.738-.68 1.165-.912 1.9-.91zm-55.242.276c.926 0 2.586 1.146 3.586 2.475 1.014 1.588 2.18 3.218 3.122 4.824 2.14 3.65 3.794 7.354 5.177 11.146 3.624 9.016 5.75 17.758 7.516 26.444-.033.732-.668.718-1.19.546-.272-.087-.54-.268-.595-.406-.75-2.128-1.01-4.303-1.58-6.438-1.43-5.34-1.943-8.4-4.698-15.93-1.43-3.908-3.5-9.348-5.76-13.53-1.45-2.68-3.127-5.157-5.302-7.347-.576-.572-1.29-1.096-1.29-1.208 0-.37.362-.575 1.015-.575zm58.77.3c.86.21 2.933.454 2.146 1.14-2.915 1.12-3.86 2.335-5.404 3.572-.233 0-1.155-1.142-1.155-1.42 1.253-1.54 2.833-2.198 4.413-3.292zm-54.555.01c1.218-.044 2.4 1.53 2.973 2.523 3.747 5.514 6.955 13.377 9.594 21.084 2.84 8.295 4.644 16.27 5.428 21.93-.067.175-.42.24-.822.238-.767-.006-.876-.184-1.072-.794-1.954-9.36-4.578-19.025-7.753-27.227-1.706-4.37-3.64-8.76-6.36-13.166-1.855-2.72-2.91-4.147-2.828-4.36.055-.145.362-.217.72-.217.04-.005.082-.008.12-.01zM67.38 220c1.644-.005 4.364 1.946 6.21 4.452 3.916 5.368 6.157 11.64 8.483 17.724 2.67 6.973 4.596 14.722 5.747 20.823.196.874.516 1.257-.31 1.532-1.25-.357-1.222-.322-1.576-1.842-.487-1.634-.636-3.284-1.097-4.945-2.64-9.5-5.597-20.04-10.508-28.62-5.9-9.443-7.616-6.817-8.565-8.483.072-.376.73-.64 1.614-.643zm14.196 2.306c5.07 8.822 7.305 14.238 8.847 19.566 2.337 8.075 5.104 14.523 6.32 23.95 0 0-1.332.025-1.866-.193-.22-.22-.456-1.16-.595-1.933-1.217-6.657-3.2-14.534-5.307-20.74-2.27-6.908-4.972-13.48-8.966-19.827-1.047-1.7-1.246-2.383-.604-2.412 1.144.078 1.647.958 2.17 1.6zm52.82-.943c.236.002.33-.032.76.116.67.23.885.377.923.643.055.387-.36.513-1.658.817-1.02.238-3 1.3-4.394 2.45-.642.534-1.195 1.107-1.35 1.107-.318 0-1.078-.836-1.078-1.184 1.06-1.62 4.432-3.84 6.796-3.95zm-69.858.218c4.292.13 7.65 5.116 9.41 8.478.686 1.316 1.575 2.746 2.248 4.25 3.484 7.787 6.44 17.555 7.883 23.795.695 3.002 1.497 5.204 1.213 5.8-.353.224-1.1.053-1.445-.237-.22-.185-.34-.873-.73-2.127-1-3.215-2.66-12.407-6.98-22.065-.097-.216-2.188-6.326-5.8-12.122-1.47-2.36-3.85-3.842-6.018-4.326-1.09-.178-1.416-.05-1.35-.638.043-.375.16-.477.744-.662.26-.082.533-.128.822-.135zm26.826 19.92c-.294 0-.553-.56-.75-1.48-.096-.452-.228-.774.62-1.305 5.325-5.662.746-13.975-5.945-14.7-.62-.094-1.42-.096-1.653-.184-.34-.192-.962-1.396-1.234-1.88 9.25-2.24 19.063 10.996 8.962 19.546zm46.068-18.498c.55.138 1.75 1.25 1.6 1.494-.18.29-1.217.3-2.712.566-3.18.563-4.544 2.636-6.023 4.176-.33.1-.62-.128-.914-.628-.216-.37-.392-.812-.392-.986 1.653-2.407 6.08-4.84 8.44-4.62zm-75.07.71c2.704 0 5.405 1.31 6.926 3.446 5.55 8.307 11.785 26.77 13.273 35.88-.15.293-.545.324-1.315.1-.43-.124-.377-.262-.648-1.107-1.743-6.635-3.654-13.077-5.902-18.986-1.158-3.046-2.52-6.022-3.804-8.695-.812-1.69-2.445-4.702-3.064-5.62-1.46-2.742-4.408-3.546-6.267-2.66-1.923 1.04-2.165 3.525-.7 4.628 1.215.85 3.133.71 3.836-.605.24-.465.165-1.043.01-1.19-.15-.14-.422-.1-.48.053.1 1.614-1.96 1.718-2.858 1.083-1.436-1.073-.48-4.47 3.433-3.103 1.5.794 2.016 2.296 1.3 3.89-.732 1.632-1.867 2.374-3.62 2.364-2.128-.038-4.54-1.53-4.558-4.215.006-2.003.934-3.67 2.673-4.785.644-.413.897-.48 1.764-.48zm22.896 1.247c6.56.302 9.575 8.024 6.124 12.683-.88 1.113-1.436.91-1.813-.527-.185-.6-.39-.68.14-1.136 3.072-2.944.55-8.667-4.514-8.898 0 0-.945-1.376-1.04-2.107.338-.123.794-.015 1.102-.015zm54.7.532c.498.122 1.552 1.133 1.552 1.49 0 .42-.206.34-1.373.14-2.76-.494-5.523 1.103-7.83 4.587-1.12 2.092-1.258 1.894-1.846.092-.302-.925-.307-.904.865-2.6 2.2-2.81 5.422-4.092 8.633-3.698zm2.567 3.543c2.308 2.097 1.23 6.716-1.89 7.193-2.75.317-5.195-2.656-3.462-4.68 1.127-1.222 2.536-1.346 3.403-.295.897 1.084.517 2.563-.76 2.716-.15.053-.27.168-.27.256 0 .27 1.132.196 1.518-.116.776-.856.8-2.164.097-3.098-.614-.827-1.923-1.485-2.973-1.06-1.85.663-3.736 3.17-4.814 6.332-.303.89-.48 1.723-.61 1.92-.264.402-.244.392-.488.237-.214-.136-.61-2.07-.61-2.808 0-.56.483-2.038 1.12-3.306 2.003-3.724 6.5-6.222 9.735-3.292zm-56.258-.938c2.687.162 4.813 3.967 3.644 6.617-.36.488-.882.82-1.124.512-.087-.1-.5-1.354-1.073-2.673l-1.262-2.93c-.427-.914-.736-1.536-.185-1.527zm-18.255 2.21c3.06 5.42 5.62 11.637 7.743 17.705 1.654 4.728 3.01 9.366 3.79 13.466.074.414.176.63-.005.812-.3.3-1.762-.447-1.762-.447-2.56-8.82-4.627-17.66-10.72-28.89 0 0-.264-.445-.335-.737-.082-.703.123-1.593.552-2.09.172-.184.405-.197.737.183zm-34.342 10.24c14.473.973 25.67 7.07 31.65 23.18-2.125-1.198-12.903-9.468-31.485-10.565l-.03-2.233c13.322-.11 26.316 6.824 26.045 6.723-4.955-10.217-17.408-14.357-26.218-14.626zm100.415 3.256c-.913 1.43-.872 1.37-1.3 2.605.05.4.124 2.898.184 4.355.077 1.857.13 2.666.276 2.842.248.3.752.347.972.077.087-.106.237-.507.338-.89 1.195-4.513 1.757-6.203 2.238-6.762.317-.408.425-.37 1.735-.222 2.95.262 3.953-3.254 2.025-4.67-2.58-1.435-5.317.97-6.458 2.663zm3.114.96c-2.108 1.734-2.17 4.233-2.81 6.533-.343 1.548-.826 2.363-1.02.03-.36-3.238.092-5.656 1.497-7.558.868-1.4 2.296-2.34 3.578-2.43 2.76-.194 3.044 1.995 2.276 3.17-.558.853-2.105 1.225-3.522.257zm-99.7 1.042c1.04 0 1.885.844 1.885 1.885s-.844 1.885-1.885 1.885-1.885-.844-1.885-1.885.844-1.885 1.885-1.885zm6.008 1.29c.93 0 1.687.752 1.687 1.682a1.69 1.69 0 0 1-1.687 1.687c-.93 0-1.682-.757-1.682-1.687a1.68 1.68 0 0 1 1.682-1.682zm5.476 1.846a1.37 1.37 0 0 1 0 2.745c-.758 0-1.373-.615-1.373-1.373s.615-1.373 1.373-1.373zm3.886 2.46c.585 0 1.06.478 1.06 1.063a1.06 1.06 0 0 1-1.059 1.059c-.585 0-1.063-.473-1.063-1.06s.478-1.063 1.063-1.063zm-13.616 3.383c-.403 2.044-.087 4.145.382 5.593 1.072 3.12.585 8.706.585 8.706l-3.142 3.145c.225-2.93.573-6 .412-8.472-.112-1.634-.85-3.16-1.043-4.8-.178-1.518.09-4.556.09-4.556zm5.09.94l.1 13.323-10.754 10.42-.015-2.75 9.17-9.092-.194-12.345zm26.52 30.38l-.706 1.15H82.3l.256-1.15zm15.704 0l-.285 1.15H91.9l.187-1.15h-5.52zm9.203 0l-.18 1.15h20.852l-.31-1.15zm24.37 0l.334 1.15h5.554l-.46-1.15zm9.285 0l.406 1.15h9.546l-.793-1.15z"/>
</svg>