<svg xmlns="http://www.w3.org/2000/svg" width="224.225" height="312.808">
    <rect rx="10.63" width="223.228" height="311.811" x=".498" y=".499" fill="#fff" stroke="#000" stroke-width=".997"/>
    <g transform="matrix(.155156 .000916 -.000916 .155156 56.015576 114.282258)">
        <path d="M877.205-505.407L803.21-456.55l-.698 56.474c-44.174-20.878-63.525-55.38-70.698-95.895-12.368 15.79-9.427 95.116-9.427 95.116-11.285 5.94-15.38 13.635-22.572 20.573 7.177 11.7 27.405 31.544 27.405 31.544-.143-.353-8.733 82.666 2.27 85.905 9.833-35.418 23.014-66.35 72.03-98.986 0 0 1.522 131.71-.878 258.978-20.903-14.206-65.075-39.687-93.672-65.855 36.598-47.776-1.367-109.545-56.153-68.045-35.78-19.093-41.797-110.242-50.902-157.952-1.753-9.57-10.222-37.612-10.222-37.612s-117.72-31.81-168.174-28.867c43.04 110.204 35.608 244.86-151.84 271.182-89.64 41.634-193.216 88.066-293.634 174.258-17.842 127.56-83.207 190.698-129.42 225.683.638 51.646.262 102.776 2.695 154.893-.043.317 42.203-28.09 48.897-22.945C-64.983 572.036 65.074 616.94 52.132 623.4c-2.085 1.04-42.28 42.844-42.28 42.844l-159.02-103.407c-4.49 159.298-.384 321.686 2.84 481.2 27.874-15.974 79.057-54.092 79.057-54.092l.46-54.19c-.268-5.147 72.3 44.714 72.828 104.62 5.65 3.794 17.448-86.31 6.162-95.99l29.444-30.737-32.087-30.53s7.797-51.03-8.913-80.303c-10.32 67.295-66.008 88.59-66.008 88.59l-3.983-245.95 99.933 62.443c-7.402 1.57-26.155 36.92-6.208 65.35 12.15 17.318 55.448 15.908 58.664-4.128 61.565 56.696 38.397 125.05 65.653 205.835l173.935 30.85c-72.4-132.427 4.42-284.26 145.103-274.267 26.276-11.128 50.028-27.108 50.028-27.108s-17.653-28.473-39.887-54.86l-300.992-3.193L315.61 382.51l-92.292-2.425s74.05-159.484 57.774-172.2c-5.716-4.466-3.642-55.76-3.642-55.76l82.44 2.577c3.045-36.728-40.904-176.35-102.284-267.465l338.293 1.035L407.03 154.985l102.297 2.334-60.3 125.733 10.358 97.722-90.73 3.473c16.445 135.47 117.99 277.697 153.65 321.6 58.44-14.217 167.215-98.484 234.713-150.877 8.25-91.02 39.117-168.646 120.665-226.9l-.634-149.76s-46.56 30.45-46.56 28.363c-.001-32.415-17.297-99.787-48.82-159.746C747.857-17.4 692.61-75.538 679.96-79.124c28.782-44.108 41.15-48.117 40.73-48.812L879.463-27.43zM81.822-181.383S51.127-169.493 24.4-169.7c-47.9 2.752-84.405 6.83-103.604 46.237-3.877 11.985 4.8 16.34 11.177 19.434 35.85-45.048 132.164 13.608 149.86-77.354zm-211.438 207c.037 6.332 7.176 16.64 10.66 5.875 3.032-7.685 3.584-20.12.086-27.75-9.65-5.36-10.667 15.674-10.746 21.876zM390.436 239.49l-46.78.495.043 54.907 47.67 1.97zm461.136 270.627c-.995 5.46-5.896 30.02 5.495 25.687 13.41-10.45 1.66-58.07-5.495-25.687zM808.35 648.213c-5.572-8.018-22.544 12.095-36.563 12.928-62.307 3.703-108.274-4.365-115.654 60.884 35.81-23.16 86.23-12.995 118.63-20.607 23.408-7.922 50.187-29.318 33.587-53.205z" fill="#e2cf00"/>
        <path d="M-154.2 1118.652l-11.73-1701.22 1055.17-.313 13.035 1699.825zm38.624-1100.085c.81-16.362-5.958-23.096-11.726-11.8-1.364 2.668-5.726 31.12 5.037 32.004 7.067.58 6.342-13.172 6.69-20.193zm-16.96 19.292c-.086-3.86-2.478-5.524 2.587-39.163-10.075-3.818-18.876-20.084-11.615-30.442 2.832-4.04 1.994-4.923.806-8.295-2.934-8.334-1.45-15.152 6.274-20.523 4.936-3.433 5.147-4.34 3.533-8.81-4.158-11.52-.4-22.81 10.63-26.715 7.633-2.704 6.156-3.075 6.933-7.932 1.738-10.866 7.7-17.47 18.6-16.435 10.135.96 10.802.963 11.643-3.992 2.325-13.707 18.835-28.757 40.445-39.05 10.73-5.11 28.548-8.79 62.727-8.9 19.575-.456 43.968-3.214 57.59-15.327 2.246-2.123 5.352-7.684 6.45-6.936 2.563 1.743 2.022 15.38-2.906 27.838-14.36 36.307-34.027 46.404-89.786 46.404-16.63-.694-41.107 1.7-51.426 12.334-3.072 3.294-5.116 6.4-3.946 8.076 23.12 3.14 46.9 13.423 60.972 58.922 41.715-29.943 108.215-75.82 190.77-117.42-10.265-54.413 36.92-63.094 63.478-52.41 0 0 .653-3.556-.397-7.672-1.023-4.014-2.522-9.246-7.45-15.985-1.245-2.456-8.71-7.096-7.267-10.808 2.365-6.08 1.286-7.74-3.823-13.297-3.315-3.605-1.174-11.375-.392-14.507 1-5.843 4.802-14.19 1.388-17.31-5.276-4.822-23.192-12.935-32.435-19.41-10.218-7.34-10.455-13.998 4.313-38.415 6.707-14.187 13.035-29.418 18.388-39.614 8.1-15.418 8.888-25.555 3.87-34.338-6.552-11.472-5.557-25.13-5.406-24.78l-87.117-120.78-286.28.756 1.046 654.524 50.757-47.37-13.476-15.753c-1.837 9.203-.068 18.186-11.403 18.775-3.862.15-7.444-1.44-8.077-5.242zM42.74 909.534c1.48-25.89-11.162-68.185-29.993-97.425.937 22.283 2.7 49.528-1.646 71.345zm452.148 64.873c-2.26-.713-21.054-1.75-32.86-2.307-39.14-1.846-64.656-20.462-81.767-46.32-4.207-6.357-2.478-6.08 6.81 1.088 26.095 20.142 50.485 32.135 71.816 28.966 30.243-4.493 46.634 6.504 42.517 19.458-.72 2.266-.976.862-6.514-.885zm-102.837-57.13c-6.088-5.216-6.552-7.57.663-2.83 22.055 14.49 48.72 38.204 81.414 24.03 6.772-4.4.522-3.787-10.85-2.5-17.382 1.953-38.624-6.755-64.8-24.598-12.78-8.713-7.218-16.163 7.154-9.364 4.44 2.1 8.935 3.638 11.795 3.804 14.05-9.45 43.707-9.517 43.015-9.46 3.362-2.923-7.745-7.48-24.27-13.61-10.732-3.98-13.332-5.627-5.362-5.984 6.96-.312 17.94 3.094 25.874 8.164 13.237 8.396 19.905 13.053 23.843 13.58 6.47.472 13.077 1.364 2.004 6.578-5.03 2.37-4.582 2.965-3.97 8.625.96 8.847 1.488 8.745 5.602 13.724 6.932 7.55 10.017 21.66.14 12.877-2.123-.967-2.33.914-8.102 3.284-33.914 9.786-59.308-5.024-84.152-26.3zm62.716 2.155c1.88-2.505 4.7-8.896 5.065-10.675-.68-4.125-4.342-2.81-6.185-.475-3.147 3.9-7.55 9.66-3.89 11.59 1.73.917 3.42 1.68 5.01-.44zm-11.615-2.612l7.472-13.502c-1.872-.86-27.416 4.572-23.385 8.22 3.57 3.228 15.913 5.283 15.913 5.283zm28.53-45.326c-11.685-6.16-15.16-19.574-6.5-28.543 7.27-7.538 19.68-6.974 34.57 2.073 5.242 3.184 8.457 4.796 12.024 3.46 5.973-2.24 8.28 1.103 7.816 5.797-1.023 10.332-17.088 12.954-27.303 1.23-13.505-15.5-28.02-4.544-23.678 6.695 2.21 5.723 6.44 6.59 11.305 8.716 0 1.126-4.826 2.365-8.225.574zM418.16 802.4c19.27-5.316 48.086 14.926 63.63 12.054 6.738-1.48 5.844 8.237-1.14 11.8-8.163 4.164-19.816 1.463-44.578-11.264-20.4-10.863-36.745 7.44-23.074 20.944 2.932 2.73 7.192 4.358 12.4 4.083 6.872-.363 8.905 1.502.054 3.833-5.088 1.34-14.576-.67-19.188-5.284-11.015-11.017-8.445-32.347 11.896-36.165zm-408.8-57.205c-.708-22.936 11.473-35.752 11.783-35.85l-87.1-58.332 2.678 235.024c42.82-27.54 56.722-62.01 58.926-106.415 85.413 94.538 59.613 210.387 7.005 276.583-2.417-40.3-14.734-87.883-63.876-112.016l.197 48.1-80.966 58.13.805 53.136 191.294-.53 91.717-135.63c-17.097-61.17-14.883-112.167-26.37-140.133-8.627-22.994-24.937-52.67-35.333-47.99-35.087 28.114-69.907-4.242-70.77-34.075zm73.155 26.692c30.174 21.46 38.4 56.765 44.745 88.154.208.266 16.4 106.434 16.903 107.858 2.05 5.818 1.413 11.635-3.714 16.093-27.52 38.217-81.278 120.156-81.278 120.156l531.65-.012c-28.6-41.094-51.003-81.755-78.148-115.52 1.122-1.816-2.25-24.966-6.787-32.43-4.672-7.688-5.76-11.727-2.668-18.803l22.63-52.323c13.572-30.648 15.146-30.914-3.696-40.728-22.337-12.832-26.33-17.023-21.75-31.85 1.67-5.395 1.873-7.548-5.03-8.915-3.195-.633-10.972-2.444-16.192-3.858-15.055-4.65-10.687-1.733-16.16 2.188-4.175 2.09-7.824-5.823-12.787-15.172-5.704-10.744-7.134-11 2.232-5.496 17.347 10.177 48.006 6 37.127-5.835-5.307-5.773-10.2-8.722-9.733-21.864.474-13.044.653-16.867-8.213-18.628-17.736-3.523-36.984-1.894-53.45 2.32-50.104 12.82-90.105 56.586-105.18 89.02-3.402 5.66 4.492 5.323 7.896 5.323 16.438-1.562 28.26 24.574 17.568 36.387-4.947 5.27-9.93 2.082-4.658-4.758 6-11.304-3.127-26.147-16.347-22.276-16.637 4.872-16.98 26.42-18.957 41.443-5.423 43.29 16.894 100.985 22.338 112.753 0 0 1.185 1.75.784 1.75s-3.028 2.455-4.157 1.187c-3.88-4.357-13.828-39.684-19.26-64.935C287.59 863.26 305.296 798.86 363.255 762c51.31-37.48 77.31-29.628 106.56-31.517 9.967-3.655 23.798-9.188 34.266-14.396l136.63-76.802c42.364-23.392 70.672-56.598 109.41-77.47 1.762-.95 3.574-3.144 5.382-4.046 48.085-42.282 95.605-83.802 124.26-112.707 3.474-3.535 6.337-8.3 6.337-8.3l-6.317-242.306s-4.885-4.01-4.885-7.866c0-8.4-3.1-6.785-20.324 5.478-21.638 15.415-23.12 14.658-23.12 14.658-12.154-111.114-72.922-220.088-146.18-283.6l2.97-4.11 36.687 23.538-.09-15.503-29.458-18.208s-2.624-2.107.21-6.006c1.558-2.144 5.583-.585 5.583-.585l23.622 17.2-.083-14.157-19.084-12.006 6.044-7.707 10.222 6.548c-4.386-11.177 1.725-10.82 8.04-3.43 2.628 3.385 6.018 7.727 7.47 11.844.554 1.572 2.2 5.426 2.2 5.426l16.746 12.305s-.676-6.04-.094-7.897c2.76-8.805 23.052 19.44 20.527 20.12l17.146 12.207c4.006-6.19 19.292 6 19.953 12.05 1.358 2.626 59.08 39.277 59.08 39.277l.507-20.436 6.15-8.105.005-472.045-76.066 49.26-.5 57.15c-36.136-11.453-67.688-63.517-72.452-96.08-2.356-1.267-12.416 64.352-6.72 93.013-9.495 7.156-25.455 23.844-25.327 23.928l29.112 31.478s-5.494 48.498-4.003 72.567c1.24 11.418 1.476 12.576 4.893 12.576 2.77 0 5.244-3 5.244-5.624 6.626-28.867 28.676-73.98 67.2-89.528 2.554-.093 1.3 257.16 1.3 257.16l-96.21-64.805c-4.8-4.072 6.235-3.875 12.84-25.687 17.033-56.252-43.32-75.737-66.39-43.088-3.828 0-19.935-19.664-22.376-27.904-17.933-35.605-21.566-76.06-25.2-108.502-2.165-14.75-7.726-38.918-12.3-53.46-2.444-7.767-2.72-13.384 2.413-20.66 23.548-32.196 46.33-66.02 66.13-98.998 18.1-24.086 14.54-25.275 14.54-25.275l-533.04 1.422 85.874 111.747 8.65 3.31c-14.733 1.987-9.646 14.848-3.84 28.678 7.136 16.997 6.38 20.522-11.27 55.73-25.873 51.618-27.308 47.108-1.1 62.882 16.188 10.228 19.132 12.467 16.844 26.5s-2.974 9.7 10.348 10.768c7.124.57 12.805 1.823 16.02 3.256 3.65 1.627 6.373 3.91 11.05 2.346 7.87-2.63 8.074-.726 8.423 5.052.15 2.462 3.9 7.518 5.066 9.403 3.066 4.962 1.65 5.8-3.935 2.327-17.203-10.694-45.833-5.913-35.22 5.76 4.37 4.806 8.832 20.86 9.253 28.85.752 14.29 10.068 19.306 29.552 16.247 37.442-3.01 121.625-50.005 140.995-102.342-43.17 14.987-34.595-38.156-19.168-36.572 0 0-4.09 9.437-4.19 14.81-.357 19 15.555 20.365 26.43 6.854 4.724-7.1 10.353-33.367 7.333-62.97-3.658-35.852-18.432-75.893-21.122-85.836 62.735 147.303 6.308 212.57-80.37 255.46-33.213 14.1-37.78 14.04-57.394 15.073-13.42 1.164-25.49 7.91-38.35 12.22C168.427-142.1 77.28-97.303-4.095-30.78-62.5 13.03-108.882 52.375-154.915 102.85l1.346 260.545c13.922-2.248 36.457-15.95 49.805-23.837C-87.848 436.78-37.137 549.18 46.153 616.084c-.045-.03-1.935 3.688-1.98 3.658-11.852-7.77-23.696-15.5-35.172-21.446L8.478 610.7l28.01 19.015c.756 2.973-4.74 7.167-4.74 7.167L8.627 621.1l-.103 12.628L26.418 645c4.847 4.796-5.793 7.374-5.793 7.374l-10.603-7.592s.792 6.13.477 7.218c-2.703 9.337-18.075-11.16-20.89-21.4l-15.058-8.8c2.165 6.065-3.203 6.946-7.462 5.45-11.308-5.65-10.74-15.26-13.124-20.938l-20.043-12.547c-3.322 19.045-23.776-7.63-20.607-14.063l-25.712-17.277c1.415.52-9.75 2.898-13.546.45-4.373-2.818-5.97-14.42-5.97-14.42l-15.41-9.415.098 16.64L11.352 665l-2.25 4.296L-156.3 557.56l9.56 489.128 79.988-56.033c-1.65-18.297 1.634-34.666-.005-55.516 41.42 25.44 55.41 42.83 73.927 96.662 11.598-30.773 9.353-60.224 3.904-87.45 10.5-8.695 20.722-17.142 25.947-30.192-10.008-13.604-19.736-17.38-30.263-29.994-.91-15.448 7.865-61.524-4.364-76.632 0 0-21.794 67-69.47 87.373-1.868-70.59-1.268-248.08-1.268-248.08s49.32 33.612 74.45 47.237c11.81 6.215 20.037 10.11 20.217 14.58.092 2.275-4.618 5.204-6.675 8.42-1.277 1.996-6.604 21.125-4.4 36.046 1.027 11 6.255 17.932 11.255 23.177 15.855 16.634 44.674 8.575 56.023-4.4zm94.336-125.497l187.376-265.4c23.05 97.122 61.522 185.965 111.5 266.412zm91.786-278.34s13.033-26.213 18.995-40.113l-23.142.137 13.752-15.606 34.453-.203-18.2 39.383 14.624-.086 19.99-39.393 53.685-.317-18.545 39.385 12.366-.073 19.854-39.393 49.916-.295-17.324 39.378 11.695-.07 10.137-19.88 2.716 36.055-49.587.293 19.365-40.115-15.98.094-21.908 40.13-46.452.274 19.908-40.118-17.656.104-21.892 40.13zM420.8 226.41l19.78-42.433-15.848.094-21.913 41.562-49.51.292 19.242-41.072-12.336.113c-8.286 12.963-21.475 39.277-21.475 39.277l-52.508.3s14.687-27.912 20.463-41.553l-12.952.076-10.446 16.874c-3.75-6.253-1.402-22.94-2.066-30.012l49.493-.292-19.644 40.728 15.79-.093 21.44-40.74 52.262-.308-21.05 40.737 12.375-.073 20.873-38.5 53.172-.314-18.408 38.495 16.42-.097-7.144 16.725zm-49.354-73.446l-10 1.944C347.97 45.325 286.627-66.1 260.67-112.118l301.96 2.462zm350.786-635.23s-28.576 37.192-30.134 99.32l27.296-22.064c-2.112-63.018 2.838-77.256 2.838-77.256zm-29.798 103.98c-.187 46.22 12.106 75.615 27.566 98.592.086-29.772 2.9-59.927 4.624-67.836zM-49.854 510.406l-98.033-66.672.087 14.74 116.507 78.136zm-17.806-36c-26.23-12.974-80.36-53.303-80.36-53.303l.08 13.447 86.146 59.766c1.693 1.65 3.956 1.214 4.738-.645-3.4-5.68-7.523-13.41-10.602-19.265zm-24.304-58.242l-56.315-38.804.072 12.176c14.456 12.796 61.962 43.17 61.962 43.17zm-56.368-47.707l52.963 33.794-3.37-15.08-37.628-25.227zm945.394-478.362l1.39-243.04c-54.824 26.322-65.276 102.205-63.43 104.55-55.06-56.076-76.402-177.558-.125-259.786 5.926 26.195 8.088 64.226 62.592 98.675l1.092-51.485 75.792-49.045-.977-58.483-182.485-.346c-28.096 36.023-56.147 77-83.923 115.215-10.426 14.327-13.01 21.05-10.955 28.494C614.835-359.09 611.628-277.6 650.5-239.32c51.55-49.048 100.547 24.048 60.52 69.536zM14.82 945.637c7.143 22.1 2.582 66.763 2.13 66.766 8.344-4.6 30.725-69.38 24.888-93.638M298.933-269.652c-12.93-3.585-22.677-9.073-36.298-7.692-10.723 1.175-14.388-2.355-7.882-8.233 8.514-7.3 16.79-10.337 32.697-2.136 47.86 24.677 49.114-11.78 27.616-14.232-6.104-.696-5.84-4.59.24-3.64 33.344 1.13 23.446 45.353-16.375 35.935zm-56-36.07c-6.325-2.265-13.966-6.072-16.77-5.3-7.07 1.945-7.338-1.95-6.52-6.565 1.97-11.145 13.364-9.192 28.466.296 21.634 13.592 29.776-6.182 10.1-16.71-6.62-3.542-4.586-4.545-.732-4.727 10.212-.482 19.914 13.367 17.27 24.758-6.763 18.285-23.484 11.235-31.816 8.25zm62.953-34.06c-13.957-2.338-34.266-20.967-43.65-22.196-5.27-.568-11.458.11-13.155-1.997-5.19-6.445 9.4-6.53 10.38-8.886.003-5.462.322-8.883.094-10.747-2.595-3.473-12.823-17.364-12.5-24.122.24-.42 5.343 3.707 7.956 3.706 24.822-13.272 41.876-7.55 62.944 1.6 8.706 3.78 31.22 21.025 31.52 23.778.505 4.66-9.528-4.026-17.36-9.213-19.3-13.25-36.647-22.645-60.73-14.58-3.75 1.314-3.096 2 9.258 1.176 12.075-.806 22 2.837 37.48 12.812 3.85 2.48 8.502 6.72 11.27 8.018 19.468 9.137 23.75 18.205 11.38 15.816-2.647-.51-7.79-3.235-12.835-4.986-8.89-3.086-5.746-2.157-14.26 1.87-2.988 1.414-10.186 4.4-16.105 5.136-4.537.782-19.26.748-12.712 6.928 6.954 6.88 18.45 11.916 26.347 15.027 5.69 2.49 1.318 1.968-5.3.857zm1.48-30.146c9.07-3.42 1.918-11-9.68-12.614-2.653-.37-8.247 12.183-8.356 14.818-.08 1.962 13.066-.33 18.036-2.204zm-25.08 1.497c2.077-1.335 9-11.47 9-13.077 0-6.476-8.286-4.625-10.163 2.13-2.282 8.216-2.452 13.27 1.162 10.946zm-29.35-52.044c-7.492-3.26-17.735-17.654-6.104-15.283 2.507.562 15.55 1.162 23.967 1.15 28.652-.044 57.28 12.766 75.554 31.54 10.168 10.446 10.866 18.217.575 11.04-36.524-32.394-58.78-26.197-93.992-28.446zM542.54 701.954l-10.107 5.453c.058 5.62 2.077 4.735 6.593 8.687 0 0-6.216 1.048-10.768.774-7.41-.447-9.108-.315-5.802 4.878 1.528 2.4 3.622 5.946 3.622 5.946s-4.013.89-10.068-.73c-9.177-2.46-13.863-1.168-10.37 3.905l2.817 4.032c-6.695-1.478-19.013-7.38-19.013-7.38l-8.647 2.682c17.482 33.657 78.825 12.003 61.742-28.245zm299.52-49.94c9.453-8.03 4.782-17.778-9.14-24.862-5.794-2.948-5.224-2.993-14.557 2.562-11.503 6.847-12.316 7.2-4.043 15.87 9.986 10.465 20.79 12.332 27.74 6.43zm-35.4-22.33c8.718-3.927 5.475-3.253 4.83-12.382-2.61-10.51 3.34-11.277 6.23-21.12 1.187-5.38-3.344-3.37-12.125 4.898-7.243 6.156-9.396 7.662-9.396 4.686.806-2.488-5.052-8.836-10.275-9.672-4.416-.707-4.004-1.72.272-7.322 7.423-9.722 10.428-21.943 5.346-32.67-6.423-13.556-8.527-15.54-22.478-3.587-7.142 6.65-17.253 11.786-22.106 19.99-3.47 6.036-1.405 11.846 4.213 23.635 14.02 29.422 35.5 42.548 55.488 33.544zm49.106-.036c15.372-6.127 9.06-22.722-15.12-39.342-14.574-10.02-18.69-9.9-6.3.986 7.925 6.958 9.172 9.426 5.825 14.484-2.792 4.22-5.723 9.176-2.902 13.004 4.443 6.03 12.015 13.452 18.497 10.868zm-867.638-22.538l-16.856-10.502.086 14.5 16.853 9.93zm839.407 8.152c3.317-2.362 6.142-8.958 6.142-11.87.716-6.75-10.26-5.068-15.46 2.423-5.85 8.424 1.167 15.25 9.32 9.446zm37.47-23.053c7.604-8.063 3.83-16.58-11.943-26.664-6.092-3.937-9.195-6.514-8.403 1.36.24 2.402-2.374 5.598-4.06 7.506-5.41 6.126-2.985 7.204 12.596 16.95 7.932 4.962 7.52 5.398 11.8.85zM-12.02 581.97l-16.853-10.042.078 13.162 16.86 11.234zm-36.638 13.355l.14-13.2-21.844-14.338-.223 14.717zm855.62-10.385c-2.76 7.572 8.497 4.08 9.142 3.3 1.93-3.834.202-4.183-.76-4.58-1.987-.82-9.653.544-8.38 1.272zm4.864-9.572c3.86-1.268 4.316-.786 3.737-7.754-.874-10.52.703-11.37 7.666-16.04 5.566-3.734 5.61-3.176 5.482-9.63-.156-7.8.36-11.146 10.598-12.794 4.19-.675 6.582-1.715 6.91-5.027.553-5.565-8.444-14.905-19.598-20.26-1.638 0-26.365 21.77-33.262 29.283l-4.212 4.59 5.128 9.47c7.995 14.768 6.73 20.232 2.196 39.906-.922 5.267 3.133 4.478 4.157-1.858 1.36-5.92 2.16-8.075 11.197-9.886zm37.567-52.643c-1.843 11.947 4.384 19.25 10.186 13.287 3.157-3.244 5.67-29.612 3.44-33.78-12.07-12.764-13.17 17.62-13.625 20.494zM657.454 721.5c44.416-26.358 101.824-5.364 133.97-26.96 14.952-16.675 30.02-27.34 21.423-38.73-6.697-8.87-11.024-10.206-11.024-10.206.476.627-23.395 20.976-58.224 16.505-58.026-1.653-85.338 16.723-86.144 59.39zm75.8-62.582c28.392.82 51.436-4.25 61.94-12.543 6.522-5.15 7.507-6.054-2.768-6.82-22.056-1.646-44.53-27.072-51.667-51.823l-3.166-10.618c-58.455 47.222-187.297 121.82-187.297 121.82 8.813 39.854-19.954 63.824-59.194 49.885-6.815-.577-5.88 8.184-4.573 11.775 2.17 5.892 6.932 10.8 7.86 11.596 5.858 4.96 6.965 8.252 6.115 13.042-.84 4.73-.754 4.568 2.566 6.32 5.9 3.115 5.624 7.605 2.47 16.882-3.38 13.045-3.6 16.324 5.797 22.468 12.093 7.67 35.79 15.996 32.37 27.66-7.757 26.434-20.613 49.22-31.888 73.974-4.202 6.86-3.226 18.14.148 23.386 4.192 8.044 3.77 17.7 9.18 25.075l83.027 122.168 283.01 1.005-10.89-652.62s-43.372 43.217-43.217 46.25c.184 3.616 10.3 9.208 14.636 9.903.167-1.96-.084-9.69.46-12.406.376-3.934 12.976-2.987 17.164.404 2.935 2.376 2.13 18-.75 30.733-2.356 10.416-2.02 10.554 2.478 16.54 5.48 7.292 7.397 13.495 6.732 21.775-.364 4.537-.307 8.12.996 11.113 3.064 7.038 2.234 16.978-1.065 21.62-4.786 6.736-4.858 7.757-3.786 11.335 4.028 12.402 2.61 22.99-11.21 28.453-1.77.7-3.692 3.777-4.81 6.43-5.923 19.914-17.26 19.956-32.793 14.322-10.717 42.834-55.286 53.845-87.44 52.768-33.504-1.122-67.552 1.59-82.58 23.587 3.242-51.914 26.313-77.07 82.146-75.457zm100.57-86.765c5.68-2.16 6.352-8.098 1.547-11.878-7.377-5.803-15.775.195-12.28 8.632 1.96 4.73 5.214 5.344 10.733 3.246zM-47.94 558.516l-22.4-15.322.21 13.84 22.315 14.14zm42.144 11.12l-15.895-18.84c-46.7-28.18-87.22-59.77-126.066-85.168l-.19 17.546 11.097 5.512s.914-3.862 1.658-6.095c1.397-4.2 14.26 7.505 18.39 16.908l3.268 7.574 14.96 8.145.198-5.4c0-8.978 16.022 3.282 23.38 17.918 1.784 3.548 4.115 7.306 4.115 7.306l14.083 8.442c5.493-7.597 19.664 2.673 23.326 11.84 4.646 11.628 12.712 12.6 13.03 12.627zm-84.004-2.052l-.05-13.445-23.346-15.155-.216 13.632zm957.416-4.55c.586-3.53-2.975-17.24-8.2-17.977-3.267-.46-8.344 4.5-8.344 7.964 0 4.48 15.91 13.84 16.544 10.013zm-19.013-16.198c5.048-5.578-1.406-12.77-9.154-10.213-9.206 3.038-5.967 11.374 4.357 11.49 2.305.026 3.69-.053 4.797-1.275zm-939.755-4.346l.013-12.817-21.567-14.07-.372 12.53zm-42.275-4.275l.142-12.335-14.174-9.755.087 14.773zm.292-36.962l-14.467-9.3.08 13.374 15.114 8.524zm58.316-41.016c-1.517-3.942-7.68-16.41-7.68-16.41l-65.655-45.254.083 14.047 73.435 48.766zm-31.24-108.272l-.802-5.7-5.803 3.138zm-13.847 1.507l-9.115 5.002 27.734 17.803-2.3-12.76zm958.4-157.036l7.094-5.2-12.634-8.45-.9 8.652zm12.7-8.28l9.313-7.784-31.438-21.886 2.3 13.717zm22.12-11.683l-.056-9.43-50.97-33.98 3.61 17.213c8.98 5.117 19.96 12.608 31.44 20.576 7.28 5.07 7.315 7.04 15.977 5.623zm-.103-17.465l-.088-14.96-58.96-38.647 4.874 17.528zm-.133-22.468l-.067-15.685-71.37-46.552 7.903 20.704zm-.233-39.396L782.87 37.696l11.603 22.918 78.463 51.768zm-.135-22.912L759.793.077l12.753 20.866 100.245 66.92zm-.144-24.325l-4.208.01c-.27 10.72-11.934 3.016-16.373-8.75l-4.096-9.862-22.74-15.174 1.855 11.986L811.7 18.89l-4.637-14.818-26.174-17.558c.57 3.013 1.04 7.988-.654 8.337 0 0-7.945-3.336-11.603-8.59-3.806-5.467-4.408-10.983-4.408-10.983l-21.354-13.64-5.292.6s-2.878-1.926-5.587-4.093c-5.1-8.992-11.015-10.317-18.093-13.947 0 0 15.073 17.388 23.135 27.664 7.4 9.5 16.35 16.24 16.35 16.24l119.3 78.57zm-.144-24.456L863.208 20l.758 14.47 8.544 5.732zM-54.088-.936c.557-.912-1.798-1.944-4.413-7.606-6.477-14.02-7.134-18.92-3.805-33.712 1.588-7.058-4.83-10.043-7.73-2.5-2.255 5.86-5.794 9.172-9.203 8.765-3.216-.384-3.89.97-2.468 5.397 1.743 6.13-1.916 14.155-7.054 16.365-5.195 1.368-6.124 4.67-4.633 9.434 2.474 7.908-6.038 14.66-12.757 14.32-10.384-.53-6.257 8.896 6.307 17.82 4.653 3.305 6.735 5.095 10.367 3.392 9.415-9.002 26.952-21.908 35.39-31.664zm901.003 23.7l-.603-13.797-26.217-17.482 3.325 18.45zm25.457-5.938L872.3 2.91l-10.79-6.84.637 14.772zM-110.69 1.084c2.516 2.516 5.004 2.73 8.965.316 4.567-2.42 2.793-6.03-2.015-8.357-4.5-2.33-10.72 4.876-6.95 8.04zm-7.83-6.05c-.37-2.908 3.153-6.85 5.605-7.01 5.365-.35 4.397-3.21-1.76-6.887-2.888-1.726-8.013-5.767-9.882-7.107-9.213-6.605-18.016 3.725-11.15 12.372 5.748 7.24 14.188 11.507 17.186 8.63zm962.7 2.936l-2.115-15.348-23.68-15.535 1.962 16.902zM-13.4-34.403c1.27-2.14 1.65-4.174 1.506-6.745-.54-9.66-5.6-20.99-12.63-30.45-5.24-7.04-11.582-13.048-17.99-16.563-18.097-9.17-42.146-5.033-38.573 6.893 2.54 8.06 2 14.824-4.906 18.926-4.696 2.79-5.272 6.512-.29 6.5 3.616-.017 13.19-3.39 17.157-9.714 5.59-8.914 8.786-14.097 7.605.407-.494 6.065.262 5.6 9.66 5.07 12.745-.732 10.397 1.67 2.978 7.457-10.8 8.425-12.87 22.585-7.322 34.583 3.432 7.422 5.8 11.37 10.212 10.347 9.508-6.324 25.01-19.01 32.593-26.7zm815.816 13.108l-23.303-15.143 1.01 16.345 25.152 14.645zm-890.983-9.696c-8.575-10.688-18.48 3.088-11.99 9.046 4.71 4.09 16.51-.196 11.99-9.046zm-20.11 1.614c-1.08-3.34 5.04-8.75 5.994-10.892 2.78-6.238-22.516-23.398-30.29-13.094-5.358 7.1-1.573 14.15 13.045 23.733 8.82 5.783 13.03 5.754 11.253.253zm908.69-15.724l-21.538-13.237.458 14.115 22.87 13.603zm-37.753 12.854l-.085-14.417-21.703-14.942-.265 14.928zM-78.254-44.33c3.9-3.9 2.566-5.153-5.017-4.72-4.79.274-6.265-.514-6.575 1.683-.687 4.864 7.585 7.043 11.592 3.036zm-18.022-5.346c.386-1.005-2.34-2.96-6.787-6.643-8.486-7.03-9.47-11.428-1.38-16.995 11.53-7.935-.676-19.053-14.086-14.426-10.837 3.74-10.805 14.672-4.313 21.667 8.877 5.836 25.01 22.728 26.566 16.398zm858.32-19.478l-21.347-14.45.084 14.195 21.334 12.274zm-854.398 5.972c9.44-4.88 9.875-16.986.42-12.5-3.9 1.85-8.995 6.836-8.995 9.078 0 4.362 3.757 5.913 8.576 3.42zm6.79-27.824c12.232-6.667 10.32-12.78-1.956-20.37-14.973-8.467-25.327 8.004-12.968 19.094 6.47 5.805 7.958 5.074 14.924 1.277zm15.848-11.99c19.824-21.55 33.057-20.535 59.403-20.116 67.95.21 88.584-32.386 86.3-55.14-32.925 16.59-62.446 7.96-93.848 12.893-54.156 12.424-60.365 37.965-64.063 52.582zm271.965-74.623c17.51.052 16.728.592 9.443-13.76 17.057 2.232 23.98 10.358 18.254-6.57 9.06 3.17 14.492 5.617 23.847 8.636l5.907-3.47c-36.27-34.882-76.093-4.91-65.345 30.43l13.356-6.483z" fill="#131f67"/>
        <path d="M921.198 1211.154l-.136-23.103 20.838-.123s-.124 8.076-.443-75.057c-.278-72.5.283-73.05 2.348-80.1 14.238-48.6 100.55-49.064 106.407 4.772l.785 31.736-23.098.136-.06-10.34c-.027-26.992-8.476-38.9-29.837-38.934-16.25-.027-25.28 5.868-30.313 19.192-2.822 6.5-3.082 12.535-3.042 18.427l.767 130.03 23.232-.137.426 22.953zm-623.368-106.43l8.147-40.682 74.87 3.196 12.43 36.923zm-172.857.034l39.325-65.818 56.482 14.968-12.672 51.345zm109.697.338l16.67-70.11c-32.3-6.91-62.76-11.4-98.42-20.8l-57.258 91.654-34.78-.72c29.723-40.1 83.963-121.018 83.963-121.018 125.758 42.434 252.33 48.975 379.583 25.414 0 0 47.3 61.638 64.318 95.113l-33.108-1.43-41.53-68.623c-28.618 3.275-56.76 7.256-86.63 8.678l20.814 60.58-32.87.194-19.003-60.417c-35.846-1.175-65.95 1.8-108.937-4.666l-14.757 65.894zm236.844-1.372l-11.572-42.985 40.365-4.955s18.93 32.716 29.273 47.572zm117.56-129.72c1.795-29.98 7.627-53.538 35.234-93.457 35.285-51.02 99.37-150.4 100.924-155.064l96.84 143.88c25.534 38.367 41.208 81.215 42.195 107 1.894 49.44-29.072 80.56-70.84 85.952-28.67 3.7-58.608-22.112-61.046-52.678-1-12.52-7.842-16.276-9.61-5.274-2.18 38.128-32.227 60.893-66.862 57.7-51.444-4.727-68.8-55.2-66.833-88.07zm360.117-6.64c-13.218-4.122-22.755-17.58-24.52-34.598-2.017-19.453 4.9-39.38 28.45-75.897 11.16-17.745 22.86-36.45 32.038-55.288 14.1 20.444 21.45 36.155 35.68 57.284 32.67 51.687 39.012 79.57 22.642 99.547-11.55 14.094-36.05 14.61-46.258.97-3.064-4.093-3.814-5.97-6.004-15.013-.976-4.03-3.88-4.54-4.68-.822-4.112 19.14-19.953 29.24-37.348 23.816zm-842.53-261.5c49.792-76.66 225.766-323.907 225.766-323.907l25.848 2.314L126.105 716.9zm-256.906-117.28l62.135 44.184 2.492 346.845-62.613 44.62zm253.5-568.957l37.887 73.072c-158.24 151.706-125.976 328.44-39.98 454.13 0 0-10.857 28.293-34.697 58.416C-49.33 529.86-85.58 332.388-84.713 330.268 41.724 216.146 58.648 179.945 103.254 19.624zM756.702 556.1c7.556-111.67 61.72-184.95 122.634-229.89l3.8 113.518C843.315 478.4 801.2 518.344 756.702 556.1zm-166.82-111.455c138.592-130.97 142.254-315.82 39.93-450.892l41.206-58.266c59.265 62.685 117.405 128.39 142.89 281.74-87.845 70.085-165.152 185.493-185.214 301.648zM396.956 294.362l-.57-53.188 52.122-.57-1.17 53.115zm-110.195.235l-1.06-53 51.534.068-.485 53.738zm88.402-142.45l238.595-330.475 14.468 10.5-227.833 321.163zM-29.3-14.554c.393 95.396-60.31 171.348-122.48 221.035l.212-108.613zM6.058-188.366s-125.306-165.614-139.01-237.9c-4.7-44.015 20.056-90.378 63.24-96.546 33.57-4.3 66.122 19.623 70.384 53.915.79 6.742 2.33 8.567 5.874 6.952 2.574-1.173 2.958-2.528 4.022-14.193 3.03-33.213 33.865-51.77 66.007-49.138 57.605 7.028 78.145 78.833 62.273 115.225C105.332-333.2-.935-185.52 6.058-188.366zM-324.33-378.52c-4.915-19.45 2.28-44.596 16.2-50.994 20.717-9.516 40.745 2.22 44.2 20.652 1.296 6.932 4.225 6.45 5.336-.76 2.735-17.753 23.275-27.88 41.21-18.78 22.238 11.282 26.814 40.753 10.48 73.727-18.3 31.364-55.642 91.434-55.642 91.434-1.17-3.444-53.222-80.824-61.784-115.28zM875.536-480.244l2.862 423.413-58.582-34.806 2.856-355.1zM597.444-453.53c-131.976-33.485-252.087-43.03-378.136-15.237-16.565-19.52-72.32-100.895-72.32-100.895l31.906.28 45.578 72.004 85.957-11.748-22.494-58.66 35.465-.055 18.012 57.55c-.184-.452 69.986.28 109.007 4.668l17.354-64.054 39.068-.254c-4.898 20.474-18.092 69.19-18.092 69.19 32.024 4.26 91.464 18.997 92.01 19.646 20.648-29.55 39.83-59.097 58.49-88.637l38.07-.408c-11.1 19.064-77.758 117.544-79.874 116.6zm-921.694-76.426l23.695-.14c-.68 17.286-.3 37.852 15.67 45.152 28.338 9.48 46.992-7.762 48.748-32.602 1.106-28.465-.203-131.41-.203-131.41l-22.5.133-.137-23.275 69.094-.408.137 23.275-22.7.134s2.13 88.173.65 132.16c-.844 43.396-33.898 58.26-61.28 56.843-56.73-1.788-52.246-42.37-51.172-69.863zm897.08 25.815l-58.297-13.23 14.9-51.395 81.373-.527zM238.42-520.727l-27.35-47.456 52.084-.307 17.494 41.835zm118.176-10.398l-8.112-37.87 94.592-.558-9.43 40.446z" fill="#d40000"/>
        <path d="M140.086-570.953l84.84 120.908c.39-.393 47.084-9.588 93.024-12.112 45.67-2.51 100.165.024 100.635 1.406 0 0 14.633 43.317 19.632 64.604 6.603 28.44 6.12 61.217-.54 83.005-9.762 31.923-14.963 41.514-37.063 63.532-16.4 16.078-39.582 33.6-63.56 43.032-33.214 14.1-36.606 14.047-56.22 15.078-12.97.682-14.3 1.194-21.366 4.917-2.184.777-3.593 3.067-5.537 3.734-1.644.564-4.76-.044-4.76-.044C141.24-134.828 56.856-81.448-6.853-33.847c-.742.554-1.207 3.003-1.92 3.593-5.212 4.315-10.017 7.592-15.097 11.536-.698.542-2.278-.41-2.97.13-74.94 58.444-117.31 105.722-132.915 119.392l3.132 270.042s34.174-17.81 51.69-28.648C-91.975 446.69-39.222 547.952 43.54 618.013L8.11 667.473l-165.29-112.37 5.222 498.26 87.17-61.297-.3-52.562c26.187 17.41 51.685 24.107 70.677 103.99 14.64-28.187 13.096-70.026 6.297-97.945.107-.001 22.112-18.407 28.81-32.452l-32.7-28.65S16 814.532.584 800.55c-11.948 31.784-21.426 65.443-66.625 90.176l-1.995-242.71c22.682 14.18 44.15 30.18 66.578 44.733l3.075-.64 23.202 15.703s-2.418 4.962-4.638 8.37c-27.832 42.76 19.272 94.73 57.154 63.07 14.833-12.397 43.107 38.612 48.675 87.808 5.56 31.77 8.686 71.234 17.5 98.805 2.72 8.044 1.702 12.57-3.96 17.492l-87.08 124.266 42.25-.25 3.027-4.862-31.15.184c26.617-35.852 51.965-77.588 79.587-112.597 103.923 38.418 273.827 46.425 376.262 22.155 21.36 29.584 42.142 60.608 62.693 90.757l-29.5.174 4.1 6.32 39.906-.235-84.79-123.252c-57.84 17.578-199.132 11.698-196.568 10.254 0 0-.396-.96-5.37-14.97-24.714-78.148-27.368-147.624 33.14-204.137 32.144-28.926 68.13-48.1 108.457-44.735 18.02-.458 18.356-1.436 25.847-4.87 4.13-1.892 12.696-3.887 12.696-3.887l40.7-22.884 5.38-1.107 11.713-6.257 2.412-2.9 18.92-9.752 2.128.16 25.57-14.912.332-2.085 10.057-6.278 2.42 2.517c2.8.217 100.2-64.52 140.753-100.52l2.537.923c47.386-38.81 111.773-99.936 130.838-123.118l-1.713-115.586-1.633-1.397-1.412-127.994-3.72.022-.25-15.8c-21.007 7.92-44.063 27.615-45.624 26.81-14.047-108.29-64.537-207.82-146.502-280.64l34.435-48.142L882.24-17.73l.25-31.7 2-.012.487-436.48-1.595-.147-.176-25.145-82.097 53.1-.842 53.162c-36.605-11.718-60.002-55.47-67.903-94.538-10.62 4.332-15.317 45.55-11.08 97.692-11.25 6.805-18.436 14.215-25.3 23.18 9.012 11.213 18.996 20.394 29.995 29.78-2.257 4.935-6.678 74.572-1.828 83.18 2.235 6.356 9.838 5.4 9.838-1.298 10.794-54.355 62.077-90.286 64.986-87.02l.22 250.322-91.86-63.577c19.08-21.803 22.905-58.404-1.396-76.162-24.364-17.805-48.024-2.44-53.573 9.004-29.815-19.18-40.233-90.843-44.734-118.894-1.162-13.652-4.773-32.176-8.914-48.886-2.594-10.47-5.67-20.482-6.114-29.87-.197-4.422.317-6.34 4.305-11.9l88.19-126.7-45.406.112-.433.784 35.72-.117-79.545 114.378c-120.895-37.198-246.067-45.628-379.786-20.8l-66.673-92.608 30.06-.302-1.2-1.993zm69.786.65l1.295 2.274 51.967-.463-.793-1.933-52.47.122zm77.063-.174l1.016 2.744 35.463-.084-1.104-2.68zm181.065-.1l-.356 1.252 39.08-.168.336-1.252zm-119.748.738l.384 1.592 94.274-.556.335-1.502zm181.533-.227l-.367 1.315 81.373-.543.68-1.254zm343.747 67.38l.35 17.123-54.45 35.072-1.374 355.046-13.144-8.516.48-352.853s48.177-31.362 68.137-45.872zM730.18-488.058l1.844-.01.586 3.965-3.187.02zm3.936 10.32l1.47 5.366-8 .016 1.313-5.195zm137.983 1.967l.066 11.187-46.982 29.747-.065-11.094zM726.593-465.6l12.345.083 2.1 6.175-15.53.092zm-302.85 5.1l8.257 1.186c19.162 44.98 24.274 83.676 27.795 123.947 7.843 52.253 23.354 104.584 34.06 126.8l-12.094-.054c-1.398-.17-27.377-75.732-32.96-120.4-1.48-8.844-.96-17.07-1.462-25.273-2.897-34.55-7.78-60.5-23.596-106.206zm15.5 1.73l10.537 1.013c7.545 31.977 18.45 62.138 22.994 94.28 7.27 51.412 11.297 103.937 36.412 154.507l-9.844-.036c-15.26-34.198-24.79-69.907-31.016-108.538-4.82-22.148-4.964-38.8-7.566-58.83-3.163-24.054-12.617-54.604-21.518-82.396zm16.01 1.396l10.54 1.5c7.114 31.756 19.214 66.678 22.532 95.4 6.758 58.496 16.266 112.98 34.958 151.578l-7.376-.175c-28.85-55.08-29.593-104.303-37.9-156.03-4.886-30.462-15.042-60.9-22.764-92.274zm16.796 2.37l9.32 1.383c6.654 31.596 18.478 67.334 21.368 99.407 5.118 56.77 15.445 99.712 36.86 145.44l-8.718.208c-25.79-44.51-29.544-99.307-37.82-154.78-4.57-30.64-14.65-61.44-21-91.66zm400.15-2.3l.082 13.844-46.977 30.56-.08-13.656zm-384.915 4.96l9.727 1.443c6.44 30.473 18.28 62.97 21.203 92.658 5 50.742 14.638 101.958 35.85 149.072l-8.965.615c-22.418-47.568-32.315-90.924-36.83-145.723-2.53-30.725-14.583-68.13-20.985-98.065zm256.84-1.36l3.423 8.2-22.587 1.227.227-9.22zM503.3-449.406l11.576 2.182c12.534 48.596 16.016 94.656 24.633 140.865 10.764 57.416 21.918 86.24 30.96 96.904l-9.56.37c-23.634-49.625-32.194-99.053-37.92-150.28-3.377-30.22-13.473-59.964-19.688-90.042zm17.644 3.177l8.823 1.73c10.744 39.714 15.7 76.89 20.534 112.866 8.81 68.33 31.9 120.206 36.762 122.58l-9.72-.38c-21.25-29.007-29.35-78.555-40.127-148.485-4.737-30.74-9.44-59.66-16.27-88.312zm14.204 2.76l9.89 2.38s9.107 34.94 16.105 81.344c5.83 38.67 9.23 114.8 51.56 158.355 21.132 21.738 58.24 40.51 83.368 19.727 10.73-9.258 17.597-24.038 11.016-39.753-11.058-26.32-47.946-21.582-35.496 6.022 1.414 6.63-7.258 6.962-13.34.516-6.39-6.886-4.855-14.79-.394-22.077 9.403-15.356 34.808-17.076 49.806-3.497 23.972 23.2 13.897 63.316-16.207 76.19-34.678 14.975-79.662-15.248-97.575-44.237-29.65-50.507-34.48-98.595-41.666-149.725-3.662-27.614-10.57-56.587-17.066-85.245zm14.9 4.006l10.045 2.378c.035.135 11.28 49.26 15.088 78.38 4.706 36 9.918 78.398 25.53 111.07 9.71 20.318 23.765 37.375 37.936 47.277 12.183 8.512 23.1 13.877 39.218 10.27 18.612-4.167 19.245-33 1.462-32.978-9.084.016-3.22-8.764 4.322-9.057 26.79-1.042 27.818 41.195 2.643 50.767-28.828 10.96-60.184-9.193-79.674-34.624-34.152-52.356-33.1-100.3-40.78-142.637-2.116-22.3-15.033-79.8-15.8-80.846zm202.786.272l6.173 8.15-34.032.045.1-7.782zm-187.824 3.827l9.613 3.287c.27-.002 9.85 38.126 15.93 83.22 7.158 43.47 9.624 79.673 32.343 110.967 9.45 13.02 27.253 30.357 38.4 32.368 6.913 1.45 14.057-.114 15.78-5.374 2.824-8.615 10.22-4.707 10.425 3.095-.002 5.46-3.974 11.15-10.735 13.157-33.087 5.927-63.638-35.477-72.96-56.508-12.636-30.598-18.17-64.844-23.822-107.486-2.393-18.05-13.663-75.584-14.984-76.725zm307.316-.282l-.075 13.782-46.824 29.902-.08-13.406zM579.48-431.23l10.767 2.874s9.162 33.527 14.755 74.977c5.674 42.035 17.613 90.837 39.53 115.988 1.994 2.41 3.357 4.122 4.22 5.538 1.58 3.428-.24 9.244-1.852 9.26-38.902-19.953-48.547-100.99-52.04-128.383-5.163-42.372-15.38-80.254-15.38-80.254zm150.848 5.6l34.224.767 8.203 7.983-45.314-.14c-4.81-4.9-1.828-4.355 2.887-8.61zm142.126 10.35l.067 11.437-46.98 30.153-.07-11.687zm-140.85 4.456l50.067.58 17.624 10.334-76.502-.174zm140.958 13.668l.08 13.72-46.98 29.84-.076-12.875zm-159.388 3.534l85.066.404.273 9.217-92.262-1.83zm-11 15.846l96.22-.318.3 10.186-87.503-.327zm170.506.556l.084 14.312L825.78-333.4l-.08-13.562zm-152.315 15.9l73.75-.09-7.95 8.578-55.627-.234zm152.433 4.132l.08 13.5-46.98 29.934-.08-13.312zm-96.844 10.884l-8.886 8.74-38.22-.306 1.266-7.914zm96.96 8.897L873-322.93l-46.985 29.1-.074-12.53zm-144.56 6.134l31.535.5-4.773 6.653-27.593.288zm-283.5 13.204c4.968 36.368 31.818 109.587 31.803 109.564l-10.406.155c.522.7-19.156-46.1-26.408-90.283-.874-4.214 1.927-18.457 5-19.436zm281.507.433l24.283.294-5.226 9.406-19.78.086zm146.667 1.353l.075 12.656-46.984 29.278-.068-11.53zM725.68-302.59l16.096.405-3.76 8.7-12.47-.3zm147.475 5.942l.08 13.5-46.983 29.528-.077-13.03zm-438.07 5.46c4.893 26.48 25.315 79.608 26.866 83.093l-8.905.178c-.395 1.217-21.188-47.618-23.5-68.55-1.08-4.38 1.193-13.072 5.538-14.72zm290.528 3.91l9.534.38-1.596 4.978-7.717.233zm.914 11.932l4.97.096-1.16 4.726-3.094.018zm146.75-.616l.064 10.906-46.98 30.122-.06-10.344zm-449.89 3.842c7.28 21.207 14.56 42.817 23.156 63.49l-10.564-.188c-7.086-14.9-12.103-31.665-17.66-48.115-1.546-6.87 1.626-12.776 5.067-15.186zm-10.447 14.25l17.852 48.958-9.97.06c-4.16-9.843-8.84-20.85-12.133-30.99-3.372-10.515-3.067-10.86 4.25-18.028zm460.448.345l.076 12.937-46.983 29.465-.066-11.156zm-467.665 21.74l9.79 27.12-12.314-.24c-3.66-8.532-5.9-16-6.864-24.31-.36-4.04-1.118-8.062 1.693-9.78 5.54-3.18 4.925-.583 7.696 7.208zm-13.015 11.203l5.2 15.895-11.5-.213c-3.426-7.507-4.752-12.916-3.78-20.802 6.87-8.026 7.4-3.854 10.07 5.12zm480.803-12.193l.08 13.53-46.988 28.622-.074-12.562zm-497.122 12.653l4.905 15.66-10.376-.19c-1.742-3.67-.675-8.155-.76-12.308zm-13.546 8.11c.152.007.283.044.344.123 1.523 6.932.078 7.375.168 7.312l-14.5-.008s11.713-7.524 13.988-7.426zm510.796 1.048l.064 10.812-46.982 29.684-.065-10.97zM313.03-194.53l283.375-.86 9.516 13.288s-27.564.913-117.872.883c-76.012 1.428-228.787-.275-228.787-.275l14.833-7.088c20.57-.603 39.225-6.056 38.934-5.95zm560.718-1.715l.07 11.906-46.987 28.84-.068-11.53zm-797.323 16.13c-22.725 10.23-43.975 12.84-59.872 11.647-34.232-2.57-86.498 12.044-96.83 44.978-3.237 11.628-3.27 11.952 3.043 17.826 3.136 2.915 6.17 5.123 6.748 4.898 5.474-4.916 12.723-14.023 20.527-16.715 10.263-3.17 15.837-3.628 32.693-4.474 36.32-1.823 44.506-3.4 53.53-5.847 19.855-5.382 39.79-25.057 40.865-46.857.123-2.498-.703-5.456-.703-5.456zm-.953 2.987c-3.57 45.486-52.786 51.7-74.422 50.534-43.877-2.366-61.073 10.833-67.973 19.002-2.276 2.193-3.61 1.686-3.258-.3 4.943-25.202 45.612-26.392 66.092-26.235 50.197 1.99 62.767-22.28 61.345-22.508-3.796 1.73-6.612 3.25-10.46 5.103-1.656.7-1.31-.313-5.663-2.8-.067.33-4.957 11.61-11.43.974.166.532-4.506 9.505-13.307 1.2.065.9-5.233 8.598-13.836.807-8.007 6.938-11.858 3.167-15.344-1.655-2.527 1.538-9.924 11.643-16.2.848-6.6 4.255-9.335 8.835-15.052 6.11-13.284 2.46-24.716 16.176-29.33 28.705-1.438 4.303-4.393 4.995-4.78.278-1.653-13.03 19.678-35.75 41.19-42.118 16.726-4.952 28.13-8.522 64.967-7.333 20.946.676 47.462-10.613 47.462-10.613zm537.605.265l13.334 8.92-229.27 320.077-20.41-.41zm-370.805 2.407l26.28-.155.256 43.437-22.656.134-8.165-11.983c2.1 1.22 4.533 1.942 7.136 1.927 7.777-.046 14.056-6.4 14-14.177s-6.4-14.025-14.177-13.98-14.056 6.37-14 14.145c.004.69.067 1.366.168 2.03l-8.543-12.512s3.587-2.163 12.152-6.04c2.215-1.003 7.546-2.826 7.546-2.826zm81-.478l44.53-.263.256 43.437-44.53.263zm97.56-.576l46.093-.272.258 43.718-46.095-.01zm99.53-.587l46.062-.272.256 43.437-46.062.272zm352.812-1.05l.768 13.558-46.986 28.934-.08-13.406zm-331.436 6.456c-8.23.05-14.898 6.734-14.85 14.963s6.796 14.866 15.025 14.818 14.867-6.765 14.818-14.994-6.765-14.835-14.994-14.787zm-196.054 1.938c-8.23.05-14.867 6.734-14.818 14.963s6.765 14.867 14.994 14.818 14.867-6.765 14.818-14.994-6.765-14.835-14.994-14.787zm97.125-.292c-8.23.05-14.867 6.734-14.818 14.963s6.765 14.867 14.994 14.818 14.867-6.765 14.818-14.994-6.765-14.835-14.994-14.787zm50.197 1.485c6.903-.04 12.533 5.523 12.574 12.426s-5.523 12.533-12.426 12.574-12.533-5.523-12.574-12.426 5.523-12.533 12.426-12.574zm-197.59 1.354a12.5 12.5 0 1 1 .148 25 12.5 12.5 0 1 1-.148-25zm296.185-1.3c2.97-.018 5.68 1.097 7.736 2.923l-13.516 18.58c-3.384-1.998-5.658-5.658-5.683-9.873-.038-6.38 5.082-11.593 11.463-11.63zM395.916-166.3a12.5 12.5 0 0 1 .148 25 12.5 12.5 0 0 1-.148-25zm-150.93 1.797a9.31 9.31 0 0 1 9.367 9.257c.03 5.147-4.11 9.368-9.257 9.4s-9.368-4.142-9.4-9.288 4.14-9.337 9.29-9.367zm-28.6.67C296.4-63.168 339.215 39.113 358.443 150.74l-13.316-.546C322.34 28.8 272.045-75.134 204.176-158.855zm325.37-1.826c5.446-.032 9.9 4.34 9.933 9.785s-4.37 9.9-9.817 9.933-9.9-4.37-9.933-9.817 4.37-9.87 9.817-9.902zm-196.054 1.938c5.446-.032 9.9 4.34 9.933 9.785s-4.37 9.9-9.817 9.933-9.9-4.37-9.933-9.817 4.37-9.87 9.817-9.902zm97.125-.292c5.446-.032 9.9 4.34 9.933 9.785s-4.37 9.9-9.817 9.933-9.9-4.37-9.933-9.817 4.37-9.87 9.817-9.902zM690-158.41c5.47 39.996-4.71 65.9-35.21 70.272-38.89 5.573-43.92 8.53-43.92 45.385 0 43.682-6.384 56.335-37.303 59.97-34.784 4.1-42.855 8.26-39.478 51.515 2.464 31.562-9.9 45.072-36.668 51.092-20.93 4.707-39.035 11.83-46.68 32.995l-19.154.363c4.78-33.29 38.122-49.374 59.546-50.602 23.07-5.616 27.85-13.39 23.87-53.86-2.997-30.47 8.135-39.8 43.91-46.98 28.6-5.813 35.57-14.073 33.873-37.482-3.64-50.193-.38-57.767 28.123-64.042 14.52-3.53 38.192-5.212 47.154-16.372 10.194-12.694 7.513-23.43 6.49-38.945zm183.974.258l.077 13.125-46.984 29.372-.075-12.78zm-693.036 11.87c-9.828 43.594 24.9 52.85 46.043 60.073 24.595 8.402 30.628 20.75 28.097 64.023-1.915 32.732 1.734 39.942 22.99 51.053 32.51 16.53 41.354 40.247 27.162 75.122-8.75 21.502-4.053 27.49 1.68 46.178l-15.72-.063c-1.146.365-14.556-23.267-3.382-48.856 13.24-30.32 12.77-45.5-17.223-58.93-23.207-10.392-30.368-20.28-31.935-41.937-.66-9.12-.623-13.664 1.396-33.51 2.545-25.02-6.43-35.723-43.48-49.244-16.508-6.025-27.782-20.205-31.284-42.785-.982-6.32-.174-13.624-.174-13.624zm552.893 1.456l141.143 92.7-.846 20.818-149.742-98.774zm-90.58 2.597c6.8-.04 12.345 5.44 12.385 12.24s-5.44 12.345-12.24 12.385-12.342-5.44-12.385-12.24 5.438-12.345 12.24-12.385zm-442.273 7.985c6.173-.036 11.185 4.92 11.222 11.1s-4.917 11.217-11.1 11.253a11.2 11.2 0 0 1-11.253-11.121c-.036-6.172 4.947-11.186 11.122-11.222zm672.715-2.657l-.395 12.534-46.112 28.898-.074-12.53zM140.07-123.82c42.84 55.16 84.968 112.007 117.828 219.402l-13.72 5.362C217.063 14.512 175.714-57.187 127.112-116.4zm111.04-1.186l320.294-1.89-8.153 11.11-306.013-1.32zm623.1 6.728l.08 13.72-35.34 21.803-10.478-6.75zm-752.885 5.912l6.33 8.213s-6.77 5.377-14.436 10.93C92.335-78.1 89.62-76.38 88.28-66.607c-3.18 23.21 20.73 34.505 44.593 20.956 8.56-3.975 27.312-16.005 27.312-16.005l5.453 7.937s-26.86 20.34-42.665 25.033C88.302-18.4 62.108-62.252 87.62-88.54c3.9-4.018 12.157-9.433 18.732-13.736l14.972-10.09zm142.998 4.625l295.13.008-186.945 258.7-8.378-.42c-15.18-96.263-51.9-180.222-99.807-258.29zM135.7-96.075l17.392 23.992S141.91-61.265 123.404-51c-14.84 8.23-31.03-6.476-21.743-19.872 9.538-13.305 34.04-25.2 34.04-25.2zm738.627-1.9l.074 12.562L854.04-72.75l-9.38-5.914zm-740.71 14.028c-8.182.48-21.697 9.84-26.27 17.874-1.966 3.453-1.234 6.335.614 8.684 2.812 3.575 6.112 3.35 15.895-1.938 19.977-10.797 23.695-17.16 14.83-23.37-1.224-.858-2.686-1.235-4.32-1.256-.252-.004-.486-.01-.75.004zm-.626 5.16c1.295-.132 2.792.25 4.032.132 3.473 1.405 2.438 5.72-1.18 6.757-.803-1.253-6.817-1.384-6.38 4.725-1.442 3.47-1.384 3.206-5.79 3.722-2.928-.7-4.86 1.343-5.422 2.626-3.03 1.644-6.766 1.158-7.473-.675-.683-1.776 1.783-6.93 3.897-6.93 1.017.075 2.817-1.45 4.672-2.715-.086-3.343 3.838-3.85 4.977-3.842 1.116.227 4.878.255 6.67-2.82.515-.645 1.218-.902 1.994-.98zm741.442-1.375l.114 19.375-14.868-9.38zm-818.846 7.27c54.12 63.148 93.23 130.467 118.416 223.805l-10.737 7.5C146.597 92.977 121.117 23.863 46.4-65.735zm628.84-2.648c24.454 20.523 124.732 113.796 144.72 280.276l-13.295 8.266c-11.234-87.866-46.42-188.474-139.982-277.273zm-48.06 6.065c6.8-.04 12.345 5.44 12.385 12.24s-5.44 12.345-12.24 12.385-12.345-5.44-12.385-12.24 5.44-12.345 12.24-12.385zm-595.68 8.328S52.054-49.595 52.053-46.83c-.004 5.472-4.335 8.6-30.237 18.2-4.372 1.622-23.523 6.154-23.523 6.154l-.752-9.297c9.763-3.585 35.992-10.034 37.883-15.625.927-2.2-3.785-7.728-2.796-7.734zM219.77-59.83c6.174-.036 11.186 4.95 11.222 11.12s-4.916 11.217-11.1 11.253a11.2 11.2 0 0 1-11.253-11.121 11.2 11.2 0 0 1 11.121-11.253zm452.407.53C753.9 19.578 799.18 117.373 810.226 218.575c-94.16 77.51-157.87 174.632-182.695 295.802-12.744-20.965-23.625-45.09-35.437-68.667C717.7 334.022 743.08 134.06 633.058-5.352zM175.4-41.245l5.74 8.78s-1.182 1.1-18.803 12.174C136.56-4.078 132.354 6.418 141.1 22.802c8.93 16.753 18.784 17.59 46.493 3.976 9.786-4.81 18.098-9.857 18.098-9.857l4.492 9.192s-12.38 10.194-36.294 19.12c-22.488 8.395-43.876-5.555-48.03-31.56-3.026-18.905 5.17-29.098 37.936-47.943 3.687-1.98 11.615-6.975 11.615-6.975zm387.143 1.903c6.802-.04 12.342 5.44 12.385 12.24s-5.438 12.345-12.24 12.385-12.345-5.44-12.385-12.24 5.44-12.345 12.24-12.385zM60.49-35.913l7.48 6.97s-3.18 4.736-21.438 15.866c-16.41 10.006-18.118 8.41-9.876 15.29C52.023 15.038 73.4 43.5 73.33 50.9c-.068 7.118-6.403 13.716-18.596 19.29-6.675 3.05-33.107 12.653-36.994 13.353-7.728.89-9.9 4.005-2.11 10.99 13.23 14.996 24.634 47.19 20.184 57.052-5.014 11.1-11.1 13.02-59.748 15.536-5.544.286-8.2-1.267-5.153 5.812 2.216 5.143 4.547 12.214 9.014 34.072 3.982 19.494 3.37 28.27-4.184 32.338-4.342 2.336-38.194 1.722-52.194-.942-16.023-3.05-17.766-3.253-15.114 7.152 3.44 14.37 5.76 52.93-5.08 60.437-4.513 2.976-9.392 2.28-29.307-4.296-12.702-4.195-23.7-9.016-23.7-9.016l.148-11.97c10.36 4.192 38.76 16.26 46.792 12.35 9.475-13.743-4.075-61.667-9.206-71.916-6.19-12.238.2-14.957 14.33-7.428 7.43 5.17 71.3 29.925 67.555 7.465-4.012-21.3-11.085-45.55-24.618-60.72-12.516-14.03-6.362-19.832 7.512-13.73 24.552 10.796 75.135 7.817 72.547-3.5C21.955 124.793 5.05 99.9-17.996 80.64c-6.41-5.353-6.662-7.66.853-9.032 21.4-1.833 82.672-8.49 74.017-22.83-7.422-11.736-17.32-24.7-25.724-31.663C17.347 5.68 3.466.766-2.688-1.592l.34-8.828c27.904-2.483 42.368-10.974 62.84-25.493zm-67.54 9.088c-9.39 105-52.783 191.724-143.043 252.567l-.57-11.747c79.313-60.31 117.057-145.584 126.938-227.94zM186.05-21.37c.036.001.055.017.062.03 0 0 14.735 26.127 14.73 28.507-8.606 8.07-31.25 19.94-40.555 17.24-14.357-4.483-16.7-19.757-2.983-28.858 11.835-8.725 26.597-16.347 28.588-16.888.066-.018.12-.033.156-.032zm-116.133-.947l7.49 6.634s-1.897 2.92-12.57 11.56c-8.307 6.47-5.41 3.92.317 11.528 5.095 6.035 14.17 18.17 14.17 18.17l-2.592 16.234c-9.5-13.376-17.4-23.105-31.47-37.377-7.153-7.286-6.76-7.487 3.362-12.833 7.582-4.25 13.745-9.398 21.293-13.914zm203.496 9.25c6.172-.036 11.183 4.92 11.222 11.1s-4.918 11.217-11.1 11.253a11.2 11.2 0 0 1-11.253-11.121c-.036-6.172 4.95-11.186 11.12-11.222zm-90.368 1.465c-10.627 2.87-21.005 12.437-26.84 16.66-2.125 1.538-.4 9.183 1.663 11.803 2.65 3.364 7.495 2.772 13.28-.485 2.424-1.365 6.807-3.597 9.72-4.964 8.16-3.827 11.57-6.668 11.255-9.817-1.337-4.23-4.736-13.53-9.078-13.197zm.622 4.84c2.99.106 5.17 3.945 4.224 6.225-5.112 2.804-7.97.474-7.287 4.356 0 0 .546 6.043-6.963 6.23-1.836-.8-5.022-.627-6.557.945-5.236 2.203-9.847-2.362-4.155-5.007 1.54-.715 5.346-1.93 6.38-4.288.526-2.917 2.923-5.26 5.572-3.658 1.406.092 4.548.294 5.55-1.94-.403-2.5 1.37-2.725 2.64-2.828a3.45 3.45 0 0 1 .594-.035zm-214.793.5c2.367 11.764-4.616 32.5-8.57 44.172-23.65 31.316-58.114 47.46-90.908 58.538-7.286 2.467-17.104 1.3-17.104 1.3 45.19-47.04 83.974-81.557 116.583-104.01zm-82.988 11.08c.306-2.625-11.696-5.732-12.837-4.08-2.2 2.088-5.53 34.602-3.22 36.926 3.21 3.23 12.032 4.07 12.846.195 2.684-12.764 1.956-22.283 3.2-33.04zm203.772-2.17l7.838 9.6C81.935 168.92-29.11 305.04-148.21 359.452l-.405-10.373C-12.43 276.524 69.077 156.577 89.658 2.636zM630.12.103L645.054 20.4l-21.215.78zM-118.043 8.3c-.092 5.357-.638 16.48-2.667 22.703-1.26 4.842-5.005 3.762-6.442-.68-1.493-4.618-.35-17.765 2.39-23.168 2.926-5.095 5.273-4.257 6.717 1.146zm113.04 2.177c7.327-.043 46.377 23.67 41.247 35.627C32.162 55.62-.4 56.585-15.338 55.342l2.197-9.16s4.558 1.56 21.896-.38c18.212-1.324 16.837-7.57-4.122-20.664l-11.1-6.945zM102.9 22.684c12.175 20.25 23.72 43.082 34.593 68.672C-8.8 231.035 3.743 420 97.225 543.54l-39.65 54.172C-22.788 521.935-66.854 428.387-82.14 328.843c116.15-84.612 170.224-210.17 185.04-306.16zm546.308 2.932l8.88 16.73-21.095-.22zm-91.043 8.944c6.8-.04 12.345 5.44 12.385 12.24s-5.44 12.314-12.24 12.354-12.342-5.41-12.385-12.208 5.438-12.345 12.24-12.385zM215.91 39.892l4.244 9.506c.203 1.194-29.7 10.83-39.27 23.045-8.84 11.283-7.938 22.994-2.88 31.05 8.608 11.474 14.672 13.05 29.05 8.547 11.726-3.672 20.327-8.584 31.946-14.595l1.872 4.802c.016-.254-16.67 9.932-29.4 17.205-4.78 2.73-10.54 3.9-15.54 3.81-29.064-.528-44.688-37.934-20.856-60.222 3.492-3.265 15.324-9.84 25.287-15.056l15.546-8.092zm384.747 3.636c96.76 137.82 31.972 289.854-29.66 343.87l-1.752-16.27c103.606-119.428 66.507-257.968 22.678-319.39zm61.786 5.854l7.632 17.05-22.295-2.212zm-386.694 7.88a11.2 11.2 0 0 1 11.253 11.121c.036 6.172-4.95 11.186-11.12 11.222s-11.183-4.92-11.222-11.1 4.918-11.217 11.1-11.253zm313.554.332c84.815 121.67 39.06 316.746-120.996 377.033l-.893-13.65c163.15-69.34 178.143-251.467 111.82-353.79zm-364.52 2.9l10.794 28.624c-13.315 9.034-18.554 10.6-33.5 14.323-11.788 2.765-21.108-17.59-12.088-25.46 10.296-8.985 21.415-12.9 34.804-17.487zM-47.962 62.2c1.977-.105-.083 4.803-5.087 17.124-11.024 27.148-11.766 27.73-39.903 32.36-14.642 2.4-25.566 3.058-35.988 2.12-15.725-1.417-22.468-5.82-12.298-8.02 29.492-6.665 62.045-22.152 83.19-37.085 5.51-4.002 8.735-6.425 10.087-6.497zm534.527.18a13.86 13.86 0 0 1 13.925 13.762c.045 7.636-6.126 13.85-13.762 13.894s-13.85-6.095-13.894-13.73 6.095-13.88 13.73-13.925zM68.55 68.676l-1.12 10.66s-17.007 9.112-25.063 12.56c-6.16 2.535-6.582 3.092-4.568 8.8 4.06 11.4 11.838 25.524 11.838 25.524l-7.033 16.19c-4.437-14.5-9.108-29.817-17.2-43.3-7.65-10.54-9.074-11.847 2.72-14.13 15.22-5.222 27.065-9.01 40.414-16.304zm152.36 2.562c-8.344.414-25.73 7.537-27.416 14.256-.956 3.796.16 9.1 3.373 10.262 8.695 3.17 26.07-4.072 30.625-10.618 1.418-2.02-.782-6.175-2.333-8.768-1.183-1.98-.98-5.293-4.25-5.13zm.47 5.716c.148-.016.3-.015.437-.003 1.413-.132 6.6 6.354.816 5.84-1.992-.177-3.8.576-5.424 2.282-.182 3.13-4.657 4.342-6.824 3.3-1.612-.783-3.86.866-4.083 1.837-3.23 2.358-7.338 2.268-7.872.61-1.106-1.16 2.144-5.97 4.997-5.81.614.034 2.63-1.345 4.514-2.995.888-3.273 4.34-2.73 6.516-2.57 2.47.977 4.707-2.24 6.923-2.478zm451.776-2.166l6.257 17.088-22.043-1.84zm-94.576 20.29c-4.528 5.838-8.726 5.924-15.38 5.654 5.485 6.417 7.94 15.317 2.67 21.19-8.016 8.27-23.648-4.238-22.5-5.4l27.695-37.36c7.417 2.057 11.56 8.956 7.516 15.915zm-606.235-6.123S6.45 117.982 6.768 131.078c.124 4.99-1.468 6.62-5.45 7.967-13.304 4.497-50.466-6.65-50.466-6.65l4.712-9.075c5.85 1.576 34.636 8.846 37.086 5.17 2.544-3.815-24.184-29.584-24.242-29.613zm168.482 11.226l4.146 14.1-13.895-3.356zm541.85-.666l3.74 19.5-22.25-5.056zm-423.553 2.812l3.38 11.45c-146.98 69.21-189.09 226.4-111.467 355.476l-8.617 11.99c-103.864-166.096-.664-335.902 116.704-378.914zM126.416 115.11l2.103 17.394-17.13-.9zm-202.834.74c2.916.024 3.48 1.59 3.48 3.312 0 2.347-14.758 21.426-19.553 25.727-10.427 4.283-50.855-12.327-56.953-25.33-1.2-3.81 2.783-2.155 11.724-.39 22.663 6.318 45.536-2.677 61.303-3.32zm392.658-2.093c6.173-.036 11.217 4.918 11.253 11.1a11.2 11.2 0 0 1-11.121 11.253c-6.174.036-11.186-4.95-11.222-11.12s4.916-11.185 11.1-11.222zm-464.174 16.49c11.277 10.015 27.81 18.258 42.446 21.08 9.113 1.95 6.478 2.902-1.9 11.668-7.845 8.295-7.2 9.335-15.25 5.307-13.45-6.72-28.128-22.09-27.59-30.5.224-3.5.81-7.565 2.305-7.556zm837.15-3.053l2.89 18.546-21.043-7.157zm-583.544 10.13l6.942 16.584-18.628-.42zm473.398 13.082c0 2.324-.526 6.253-.526 6.253 10.91-7.035 25.487-1.397 25.12 9.868-.516 15.882-8.277 16.076-20.98 14.045 7.015 11.48-1.164 22.624-14.248 18.456-11.93-3.8-9.71-16.373-4.19-23.847-28.058 4.745-35.33 44.742-2.823 56.424-6.58-10.054-8.27-22.095 5.863-24.203 13.128-1.96 18.75 7.97 13.144 19.992 12.317-4.363 23.993 2.64 20.348 14.684-4.402 14.545-17.314 13.616-24.984 4.817 5.545 13.128-7.055 22.684-16.63 17.642-15.097-7.95-7.743-22.338 2.32-26.213-38.778-3.763-47.454 49.9-18.842 57.365-7.363-4.555-8.316-25.658 8.446-22.866 16.463 3.21 12.642 18.5 2.135 25.52 12.716-2.793 24.704 8.264 17.022 19.556-9.057 13.313-21.706 3.932-26.437-5.063 1.542 12.092-6.113 19.842-16.044 15.362-17.047-7.7-4.6-27.27 8.7-26.1-27.06-15.773-63.525 17.86-41.764 45.403-.914-12.564 5.286-22.917 13.93-21.545 7.607.812 14.307 9.434 12.208 16.255-1.956 5.817-8.55 10.32-15.475 11.76 20.634 2.166 22.478 16.742 13.976 23.982-14.437 12.293-21.26-1.762-24.675-9.982-2.83 20.498-27.02 13.676-27.945-1.116-.918-16.2 17.8-15.986 21.255-15.094.433-.564-14.567-15.235-30.495-17.24l.043-9.407c62.522-39.724 83.693-108.56 63.396-173.58l3.756-4.366c10.277 7.757 20.643 24.46 39.532 18.2 0 0-4.42-3.073-6.61-5.206-9.8-9.543-4.392-20.88 9.154-21.586 8.778-.456 12.232 6.303 12.32 11.834zm-425.712 2.48l6.556 9.493C65.416 274.418 83.51 401.867 138.73 485.98l-7.912 9.672c-48.797-61.8-89.223-212.097 22.54-342.764zm81.184 14.927c-.115 2.483.076 4.48.076 4.48s2.03-2.556 3.673-5.616c8.044-13.633 25.583-5.92 22.8 9.698-1.304 7.324-13.62 10.256-16.987 8.185 3.247 8.7 11.907 10.697 22.465 14.408 3.69.682 10.015 2.44 10.015 2.44l.285 5.905c-56.865 36.294-88.82 97.457-67.404 180.713l-6.262 8.568c-11.68-27.627-22.175-26.96-41.112-27.933 0 0 4.726 3.29 7.454 6.475 5.78 6.75 3.305 18.593-4.633 19.87-18.387 2.96-18.65-10.08-16.268-18.936 0 0-3.278 2.784-4.884 3.84-7.273 4.79-16.4-.086-17.306-9.492-.852-8.853 2.14-14.6 11.25-15.754 3.057-.387 7.783.36 7.783.36l-2.845-5.42c-4.413-8.534 5.117-15.915 13.917-14.12 13.893 3.262 12.874 15.235 4.894 24.69 21.528 1.5 32.726-12.64 31.057-26.597-2.036-17.027-9.93-26.192-26.875-29.062 0 0 2.755 4.27 3.936 6.337 4.378 7.658-1.792 17.127-10.9 17.127-9.338 0-15.367-8.525-11.82-16.993.864-2.063 4.35-4.664 3.815-4.898-.368-.16-5.168 1.355-6.49 1.57-11.21 1.815-18.47-8.005-13.824-17.887 3.3-7 13.296-8.94 20.593-5.56 1.16.417 2.573 2.03 2.79 1.67.21-.347-.752-2.63-1.056-4.244-2.36-9.014 1.95-13.858 11.734-13.288 13.696.798 18.863 11.922 9.724 22.037l-5.99 6.47c.468 1.976 19.552 3.304 29.236-6.95 11.208-11.868 12.838-36.51 1.456-44.478l-5.65-3.932c5.46 10.792-4.4 23.31-13.176 21.033-17.55-4.124-16.12-18.48-4.62-23.08 0 0-11.72-4.3-15.113-8.983-4.8-6.622-3.23-12.76 2.452-17.47 7.16-5.822 17.406-2.097 22.382 5 2.925-9.094 7.088-15.25 19.534-10.383 8.707 4.093 8.703 15.68-.82 22.045-3.052 2.04-8.496 3.954-8.496 3.954s8.248 4.633 18.25 4.686c19.295.103 34.428-22.728 26.545-40.064-1.6-3.52-5.57-8.048-5.57-8.048s-.393 6.077-1.58 8.417c-4.405 8.693-14.654 8.9-20.745 3.48-5.537-4.935-3.965-11.594.28-16.15 3.22-3.456 6.14-4.147 10.652-6.28-5.15-1.706-10.877-2.923-13.407-8.225-2.352-5.054-.758-11.3 5.378-15.2 11.083-5.876 19.86 3.9 19.406 11.567zm-382.763-11.768c7.887 4.492 13.168 11.31 20.538 17.25 5.692 4.558 5.636 5.38.975 9.77-10.476 10.224-16.484-4.45-19.925-10.446-4.22-8.03-4.7-16.252-1.587-16.575zm842.53-2.164l1.428 19.648-21.955-8.277zm-603.67 4.72l7.98 17.828-20.344.026zm425.087-2.477c19.537 70.552-7.05 121.438-57.83 161.47l-5.7-7.373c39.675-34.11 69.283-74.214 55.675-145.27zm-234.37 1.696l224.302 2.8-6.65 11.852-17.468.197-34.294 61.453-161.185.92zm-327.85 53.05c-7.75 12.393-54.498-13.908-53.894-15.312l5.808-5.653c7.414 2.958 30.518 15.524 35.605 13.487 1.714-11.57-11.955-26.46-17.128-36.4l5.66-7.182s29.768 38.074 23.95 51.05zm76.172-45.41L22 179.528c-7.246 2.27-29.154 2.792-30.9 4.256 2.686 7.17 5.717 28.262 5.717 28.262l-8.568 11.095c-2.383-13.567-6.327-30.71-9.797-43.282-2.968-10.662-2.142-8.32 20.596-10.215 10.19-.636 20.693-2 30.632-4.18zm46.1 16.635l9.315 16.32-18.686.298zm-224.583 2.42c1.016-.423 6.838 6.024 7.843 7.888-.4 4.26-6.99 6.627-8.016 5.113-.415-.6-.592-10.16.05-12.813.024-.102.056-.16.124-.188zm846.018-4.774l-.067 20.5-22.276-9.712zm176.43 3.584l-.234 13.283c-80.337 39.825-199.9 146.183-233.053 335.88l-7.077-7.708c33.192-181.13 150.81-288.804 240.364-341.456zM63.297 206.39l10.12 15.034-18.082 2.075zm634.523 2.037l-1.674 18.166-21.946-11.996zm-420.877 6.265c.1 4.307.5 7.415.788 11.714-49.457 32.432-65.935 83.112-57.292 146.716l-6.815 10.197c-16.497-57.618-.607-128.832 63.32-168.627zm575.637.353c5.08 2.938 21.5 7.678 21.5 7.678l-.11 12.07-33.852-11.925zm-970.285 57.087c-7.233 5.967-24.05-3.794-31.69-7.767l-.28-10.186s5.825 2.943 11.687 5.244c12.048 5.257 12.042-1.09 5.354-18.838-2.352-6.24-4.685-13.466-4.685-13.466l7.862-7.54s19.163 42.475 11.752 52.555zm169.377-39.204L64.7 246.382l-18.007 4.23zm788.6-3.03c11.45-.054 33.586 9.114 33.586 9.114l-.067 13.39c-11.23-3.18-24.288-9.334-36.152-11.01-9.37-1.238-8.788 4.002-8.76 17.23.037 17.92 4.633 34.084 13.307 51.954 7.184 14.8 3.513 18.793-8.115 12.236-20.944-14.192-65.46-24.732-72.252-16.363-6.986 8.607 7.122 51.182 23.264 71.434 6.557 8.227 6.97 9.55 3.95 12.79-2.447 2.623-6.427 2.805-13.465.61-23.153-7.218-56.608-8.676-66.206-2.4-9.527 6.24 15.617 48.808 36.592 62.472 13.608 9.587 11.02 14.412-10.88 15.033-35.765.38-63.226 8.516-61.643 18.27 2.69 16.58 25.988 39.204 52.646 51.128 16.31 6.55 9.522 9.233-1.27 13.138-18.053 6.215-35.38 16.097-52.347 25.335l-8.25-10.42s17.062-10.985 35.623-21.554c4.352-2.478 4.126-3.37-2.02-8.457-19.936-16.515-34.604-35-37.718-47.466-3.03-12.124 2.985-19.825 20.967-26.78 11.11-4.297 15.204-5.572 25.017-7.835 14.14-3.26 14.375-3.7 8.258-14.55l-9.98-17.848c-21.31-35.954-10.26-49.043 38.705-50.073 12.022-.703 14.31-.753 13.627-4.897-2.706-16.98-10.335-36.455-9.355-50.864 2.114-21.732 24.42-27.114 63.734-17.548 9.103 2.215 9.733 1.75 8.092-5.58-7.793-33.023-.055-62.906 21.112-60.5zm-144.046 3.163l-3.313 21.082-20.988-13.783zm-781.8 9.582l57.678 3.44L-37 256.888l-34.847-.45-1.137 29.757-11.1 9.628zm373.694.076l47.468-.28-.08 50.19-47.312.28zm56.562-.334l44.187-.26.296 50.187-43.81.727zm52.905-.312l47.374-.28-.14 50.19-46.905.277zm413.768 1.56c-1.04 12.91 1.8 36.225 2.95 46.236-.75 2.987-2.82 2.57-15.24-.165-8.62-2.825-32.474-3.53-32.474-3.53l9.933-10.645c8.174.923 14.625.808 23.09 1.815-.167-8.45.1-24.582.1-24.582zM44.3 258.096l13.33 13.265-16.943 4.444zm647.483.523l-5.155 21.5-19.29-17.136zm181.797 10.335l.14 10.955-18.92-8.377c-.14 12.496 11.05 34.998 11.05 34.998l-8.944 4.272c-7.84-12.645-13.31-24.014-13.84-38.31.067-5.176-.694-13.924 3.967-14.194 9.594-.282 17.64 2.924 26.546 10.658zM37.978 284.727l15.805 9.282-17.427 7.165zm647.923.99l-7.588 22.14-16.956-19.025zm-835.194 11.96l42.584 14.155-7.515 8.076-35.378-10.948zM447.013 300l3.962 78.26-224.57-.52 7.747-11.108 14.593-.21 38.054-65.038zm-411.894 8.525l16.757 11.683-17.298 7.758zm839.714 1.95l.107 12.812c-53.982 40.375-112.192 109.754-121.446 231.877l-14.55 12.586c6.435-119.227 55.58-201.688 135.9-257.275zm-197.806 1.636l-7.758 19.92-15.703-18.408zm152.944 26.123l-5.2 5.88c-1.47.5-22.213-10.458-38.483-12.96 5.384 10.494 7.95 18.336 19.832 34.946l-7.55 7.545c-2.29-.495-32.016-43.84-24.274-53.7 12.607-8.6 43.4 9.096 55.665 18.3zm-88.315-22.84c-.262 11.817 9.52 48.43 9.52 48.43-14.777.815-29.124-.795-45.053 3.778l7.437-13.45s6.942-.764 13.017-2.008c12.553-2.572 11.257-1.05 8.275-11.962-2.804-10.26-2.97-12.397-2.97-12.397s8.873-12.45 9.776-12.4zm-828.675 17.57C-66.928 450.373-20.088 530.8 53.48 602.985l-7.38 9.762C-40.343 534.574-87.867 434.71-100.695 340.61zm121.027 4.223l15.863 8.532-16.194 9.564zm840.74-4.618l.005 17.243-9.965-9.934c2.66-2.432 5.89-4.868 9.96-7.31zm-208.417 4.76l-10.664 19.845-14.184-18.658zm207.544 43.527c-2.236-3.474-22.052-15.632-31.038-20.728-.58-1.51 13.788-14.496 16.65-15.405 14.35 1.91 19.125 30.53 14.388 36.132zm-839.5-16.547l17.926 8.613-16.15 11.533zm594.675-3.52l22.952 2.03-12.076 19.01zm212.392 7.163c2.978.001 6.33 1.23 10.52 3.532 16.213 8.905 24.756 18.718 23.913 27.484-.387 4.026-2.636 4.847-5.27 1.937-4.745-5.243-20.683-12.01-34.4-14.6-10.394-1.97-11.35-2.85-8.264-7.67 4.677-7.3 8.542-10.675 13.5-10.674zM565.1 377.9c25.405 93.94 69.514 166.088 124.707 225.362l-11.318 9.754c-41.923-47.527-88.053-103.168-126.167-223.822zm49.64 4.737l22.972 3.335-13.336 17.204zm-323.755 2.912c2.663.075-7.665 40.187-44.12 43.167-23.067 3.968-25.636 7.868-25.773 43.81-.186 48.72-7.98 60.163-47.783 63.408-26.357 2.15-29.795 7.535-25.108 45.368 4.46 36.01-9.053 54.462-42.647 54.628-29.083 2.582-41.027 16.222-40.84 43.18l.268 13.56-18.804 1.58s-.055-17.747 1.313-26.383c5.526-34.9 20.39-48.964 51.868-48.994 24.324-1.995 28.088-5.963 27.03-42.848-1.164-37.517-1.668-37.258 8.066-47.142 6.266-6.364 13.448-9.25 26.22-10.53 39.776-3.984 42.903-6.66 42.564-47.47-3.892-33.884 5.358-54.7 26.886-56.535 43.56-3.71 42.39-27.36 40.46-28.333l20.28-.432c.05-.02.083-.033.125-.032zm89.123-.526c26.377 137.7 108.004 266.313 152.666 313.7l-8.63 4.645c-65.166-79.96-124.5-171.874-154.442-318.063zm-46.155.335l20.22.1-230.968 329.15-12.336-9.177zm28.25.052c22.35 79.327 40.026 156.92 109.445 260.452l-291.88-.184zm80.594-.163c1.695-.797 8.793 40.152-1.317 59.136-9.037 25.667-4.46 40.068 15.582 49.282 34.415 15.82 43.17 31.77 39.046 71.146-2.885 27.57 5.533 40.834 31.45 49.534 30.914 10.377 44.51 26.893 44.507 54.082 0 4.174-1.54 8.947-1.54 8.947l-17.16 10.226s.194-3.7.827-8.13c4.31-30.168-1.452-38.31-37.122-52.313-33.688-13.226-42.11-28.7-36.617-67.44 1.795-12.636-.86-25.385-6.144-34.964-8.888-15.613-28.33-15.34-42.394-29.563-11.62-12.18-13.01-29.283-3.34-58.63 5.993-18.19 6.87-25.077 2.038-40.175-3.18-9.944-4.408-10.818-4.408-10.818zm-405.342 6.767l19.844 5.352-14.815 15.556zm786.373-.537c6.797-.225 19.95 2.077 30.744 7.37 24.76 12.15 29.297 22.2 7.63 16.893-12.218-2.994-29.75-2.196-46.645 2.088-17.855 4.527-17.474 4.724-11.38-6.12 7.717-13.732 9.714-19.902 19.65-20.232zm-44.723 14.784l-4.445 7.746c-9.82-1.568-20.16-6.32-35.097-5.048 6.195 11.688 13.49 17.71 23.295 27.993l-3.582 7.767c-.867 1.053-28.596-21.797-34.217-37.232-2.538-6.97-.292-10.023 9.752-10.34 14.97-.316 30.08 3.876 44.295 9.112zm-368.717-5.4a13.37 13.37 0 0 1 13.454 13.296c.044 7.39-5.903 13.44-13.296 13.485s-13.41-5.936-13.454-13.327a13.37 13.37 0 0 1 13.296-13.454zm188.513 2.512l22.623 3.923-14.963 16.964zm-422.575 2.66c5.345-.456 13.66 9.855 13.638 9.872l-27.166 37.998c-13.05-2.545-10.38-22.302 1.555-22.974 2.758 0 7.795.44 7.795.44s-3.685-1.983-5.817-4.777c-8.06-9.616-.547-19.658 9.996-20.558zm511.145-6.4s22.056 42.998 20.68 44.653c-13.48 6.036-28.217 9.2-43.035 14.7l2.78-12.555s4.94-.38 21.51-6.804c7.933-3.076-8.822-25.077-8.822-25.077zm-150.757 13.633c31.814.077 32.448 39.115 26.433 52.064-4.376 8.887-11.085 13.835-31.395 23.154-17.602 8.077-19.58 7.553-19.58 7.553l-4.274-9.38s10.25-4.592 21.3-9.126c22.823-9.372 28.347-16.465 25.743-32.996-3.686-23.407-21.805-26.948-56.722-11.04-4.052 1.846-9.166 3.7-9.166 3.7l-2.434-4.704c.555-.468 27.95-15.03 43.328-18.694 2.405-.36 4.657-.545 6.778-.54zm-492.03 7.154l18.035 5.83-13.05 12.983zm801.86.3c15.906-.138 29.02 2.47 29.017 8.14-.002 2.69-.612 2.93-14.886 4.995-21.69 3.138-57.86 21.88-78.17 39.198-12.028 10.256-8.92 7.862-3.913-6.932 4.977-14.717 12.438-32.295 16.515-34.994 10.187-6.743 33.41-10.252 51.437-10.408zm-260.077 3.566l15.332 3.253-9.912 9.715zm-51.262 8.615c5.484-.113 8.203 2.457 10.39 7.69 4.725 11.3.162 17.99-17.536 25.698-8.02 3.648-15.17 8.758-23.97 10.423l-11.333-29.87s3.512-1.315 15.09-6.183c13.195-5.55 21.88-7.642 27.36-7.755zm-51.728 3.93c36.007 99.976 79.736 164.796 125.916 218.448l-11.053 7.003c-49.053-57.34-94.28-124.604-127.167-223.816zm49.145 3.273c-4.3.146-10.708 2.782-19.277 6.145-12.46 4.89-13.503 10.72-7.863 17.9 2.46 3.128 4.98 2.414 16.955-2.413 12.226-4.928 17.5-7.115 18.214-11.483 1.033-6.368-2.51-10.328-8.03-10.14zm344.323-.665c-.003 4.202-63.336 64.948-99.58 95.9-16.513 14.103-15.946 13.99-17.374 12.268-.953-10.4 5.882-47.59 10.126-54.095 24.175-25.9 61.583-47.08 98.06-55.174 5.73-1.18 9.29-1.082 8.768 1.1zm-343.178 4.033c2.287.06 4.28 2.026 4.277 4.57-.002 1.947-2.806 3.846-5.727 3.846-1.035 0-3.562.6-5.143 2.25-1.562 2.292-2.57 4.492-5.414 3.97-1.657-.305-4.714-.387-5.902.66-5.565 4.903-11.144.892-8.586-4.012.646-1.236 2.903-1.872 4.74-1.872 1.6 0 5.22-.39 5.736-2.346.616-2.336 4.18-3.008 6.67-2.946 2.7.347 4.885-1.023 5.58-2.158 1-.906 2.178-1.83 3.3-1.926.155-.013.315-.038.47-.034zm-481.642 3.905l20.297 2.63-12.684 16.45zm193.6-1.417c7.393-.044 13.44 5.905 13.485 13.296s-5.934 13.442-13.327 13.485-13.408-5.936-13.454-13.327a13.37 13.37 0 0 1 13.296-13.454zm211.293 9.352c7.39-.044 13.4 5.905 13.454 13.296s-5.905 13.4-13.296 13.454-13.4-5.905-13.454-13.296 5.905-13.4 13.296-13.454zm-395.68 17.45l22.008 1.276-12.494 16.918zm116.173 2.533c7.392-.044 13.408 5.905 13.454 13.296a13.37 13.37 0 0 1-26.75.158 13.37 13.37 0 0 1 13.296-13.454zm549.665 5.1c9.173-.2 19.817.664 19.817.664l-2.51 10.305c-11.177 1.134-25.567-1.888-37.54 3.2 4.5 7.262 30.68 17.42 33.584 19.975.277 1.08-2.086 10.914-2.086 10.914.716 2.5-44.306-17.965-45.897-35.45.002-5.933 19.34-9.275 34.63-9.61zm-154.34 11.598c25.513.085 38.31 35.63 28.492 51.458-3.885 7.15-12.69 15.66-24.332 23.175-5.6 3.615-20.435 10.996-20.435 10.996l-6.75-10.304s5.923-2.418 11.5-5.505c14.008-8.02 42.416-25.098 28.498-48.044-7.81-12.417-19.4-14.785-43.4-2.43-17.902 9.223-21.972 10.1-21.972 10.1l-4.61-8.223c1.198.675 35.73-20.39 53-21.22zM74.803 498.64l20.03-.087-8.456 18.113zm580.226-5.8c12.32 23.495 33.266 41.178 38.983 45.422L661 560.275l-7.332-8.52 17.713-15.383-20.218-27.853zm195.48 4.525c-2.2 11.654-2.475 24.01-3.35 37.614 4.418 3.984 8.378 5.97 11.828 5.716 3.802-12.25 6.51-26.155 4.575-40.443-3.68-2.84-8.5-2.49-13.054-2.888zm10.097 8.792c-.02 7.677 1.1 17.254-2.14 24.678-1.845 4.225-6.114 2.665-6.295-3.06-.245-7.746 1.293-14.257 1.7-21.317.23-4.026 1.958-6.445 4.362-5.527 2.504 1.194 2.308 2.98 2.376 5.227zm-289.178 6.99c13.16.903 18.297 11.87 13.492 19.796-11.795 15.252-23.93 18.078-39.467 26.952l-15.734-29s30.183-17.27 41.71-17.746zm-.32 6.498c-8.7 1.068-14.163 5.343-21.452 8.97-8.93 4.436-11.803 11.238-5.7 17.35 6.742 7.427 30.023-10.504 33.86-14.827 2.352-3.705 1.94-7.072-1.412-9.71-1.456-1.142-3.25-1.782-5.308-1.786zM91.39 523.698l19.595.103-10.505 15.03zm481.536.222c3.35 2.346 3.084 6.592-1.605 7.82-2.377.623-6.475.66-6.55 3.832-.055 2.365-3.66 3.274-5.722 2.95-2.106-.33-5.67-.5-6.342 2.153-1.782 3.603-3.132 3.672-5.67 1.178-2.724-2.72-1.48-6.194 3.804-6.804 2.254-.26 4.208-1.916 5-3.655-.136-2.243 1.43-3.554 3.92-3.054 3.513-.058 5.803-1.37 8.286-4.662 1.746-.83 3.668-.597 4.87.242zm-114.636 1.062c7.39-.044 13.4 5.905 13.454 13.296s-5.905 13.44-13.296 13.485-13.4-5.936-13.454-13.327 5.905-13.4 13.296-13.454zm-285.517 26.3c7.393-.044 13.44 5.936 13.485 13.327s-5.934 13.4-13.327 13.454-13.408-5.905-13.454-13.296 5.903-13.44 13.296-13.485zm-320.018 13.764L6.588 668.92-3.8 684.262l-142.88-95.94zm769.288-1.133c9.97-.05 17.69 5.64 25.196 17.164 14.903 22.882 7.6 41.04-22.867 59.73l-14.26 8.772-7.27-8.863 14.573-8.867c25.042-16.026 32.027-30.12 20.886-45.874-10.74-15.182-21.918-13.9-52.84 6.03-6.254 4.03-13.74 7.206-13.74 7.206l-6.867-9.2s17.522-9.137 23.486-12.983c13.702-8.864 24.906-13.06 33.704-13.105zm114.192-4.62l.156 10.068c.342.45-20.77 9.906-33.137 15.596-4.003 2.218-2.4 6.48-2.14 10.872l-5.95 4.07s-8.284-5.97-9.388-9.826c-3.096-12.18 35.652-27.01 50.457-30.78zM515.1 571.418c7.39-.044 13.44 5.905 13.485 13.296s-5.936 13.442-13.327 13.485-13.4-5.936-13.454-13.327 5.905-13.4 13.296-13.454zm-415.06 6.205c7.39-.044 13.4 5.905 13.454 13.296s-5.905 13.4-13.296 13.454-13.4-5.905-13.454-13.296 5.905-13.4 13.296-13.454zm521.575 7.603c5.076-.214 8.91 3.08 11.017 8.123 5.394 12.91-1.783 22.532-27.874 37.353l-6.822 3.8-19.438-26.51s6.758-4.7 13.137-8.578c14.285-9.465 23.45-13.903 29.98-14.177zm-2.525 6.4c-1.233.04-2.655.527-4.304 1.494-6.697 3.912-17.902 8.185-23.16 15.23-3.072 4.31-1.638 8.568 4.27 14.038 4.998 3.264 30.577-15.81 31.187-21.31-2.208-5.804-4.29-9.574-7.994-9.453zm-765.04 5.952l4.298 2.85-4.26 3.4zm769.16.124c1.912 2.304.795 6.237-3.23 6.95-2.03.36-5.022.933-5.977 3.942-.798 1.983-3.56 3.684-6.29 3.63-3.16-.707-4.807 1.21-4.97 2.598-1.537 2.66-5.376 3.11-7.73.633-1.836-1.93 1.396-7.537 3.55-7.467.385.18 2.756.7 5.6-3.148.563-2.79 3.79-4.512 6.142-4.426 2.392.8 3.778-1.852 4.725-3.32 2.187-1.176 6.635-1.195 8.18.608zm-758.933 6.504l6.18 4.12-16.275 11.7-.055-9.344zm11.983 7.742l8.408 5.544-30.37 22.023-.07-11.844zm15.684 9.876l8.878 5.79-46.407 31.743-.072-12.125zm16.83 8.4l.06 10.125-54.306 38.384-.06-10.25zm6.2 7.245l11.797 7.962 4.962 343.102-73.17 50.9-.027-15 61.423-44.957zm886.324 4.045c-16.36 18.91-38.454 20.308-57.73 19.9-51.928 1.032-84.153 3.992-90.464 65.957 21.065-15.94 43.49-18.114 69.468-17.52 32.896-.24 47.676-2.484 61.01-9.235 21.416-10.844 34.886-30.118 32.21-43.565-2.566-2.892-9.314-14.86-14.493-15.547zm-892.408 8.272l.07 11.875-54.315 36.852-.07-12.062zm622.663-2.574c7.392-.044 13.44 5.905 13.485 13.296s-5.935 13.4-13.327 13.454-13.41-5.905-13.454-13.296a13.37 13.37 0 0 1 13.296-13.454zm-355.965 3.47c96.364 2.426 300.974.068 300.974.068l11 15.654-321.733-1.476zm625.27 6.623c-11.46 11.37-23.386 16.972-61.28 16.518-40.038-.48-55.607 5.938-65.86 23.827-2.98 5.2-2.908 7.216 1.426 3.272 3.632-4.37 11.902-12.796 15.392-4.884 6.772-4.49 12.613-11.305 16.22-2.757 1.97-.45 13.437-12.073 16.232-1.852 5.474-6.196 10.187-8.156 12.826.573 7.816-3.762 11.936-10.823 16.445-1.124 6.287-4.557 11.045-10.232 14.777-1.65 5.376-1.617 10.796-11.528 13.954-3.675.58.19 19.984-11.634 25.428-23.25 4.46-10.243 8.65-3.487 3.572 6.98-13.044 25.636-35.557 35.1-87.355 35.485-31.444.22-44.43 3.378-54.27 9.194-15.807 9.342-7.404-13.987 3.626-28.177 13.9-17.883 29.84-23.24 73.59-21.903 23.912-.001 39.173-3.4 45.606-8.644 5.456-4.456 9.408-7.478 12.356-7.69s3.367 3.752-2.687 9.76zm-707.935-.15c7.39-.044 13.44 5.936 13.485 13.327s-5.936 13.4-13.327 13.454a13.37 13.37 0 0 1-13.454-13.296c-.044-7.39 5.903-13.44 13.296-13.485zM-91.012 668.15l.07 12.062-54.31 37.54-.073-12.344zm263.686 4.225l42.312-.25.264 44.655-42.312.25zm94.81-.56l45.53-.27.264 44.655-45.53.27zm101.35.84l43.937-.26.255 43.218-43.937.26zm95.19.313l29.255.827 23.272 30.05-21.56 11.22-30.718.244zM193.05 677.6c-8.23.05-14.867 6.734-14.818 14.963s6.765 14.867 14.994 14.818 14.867-6.765 14.818-14.994-6.765-14.835-14.994-14.787zm97.3.896c-8.23.05-14.867 6.734-14.818 14.963s6.764 14.867 14.994 14.818 14.867-6.765 14.818-14.994-6.762-14.835-14.994-14.787zm99.5-.2c-8.23.05-14.867 6.734-14.818 14.963s6.764 14.867 14.994 14.818 14.867-6.765 14.818-14.994-6.762-14.835-14.994-14.787zm-237.458 4.42c2.95 2.077 4.907 5.463 4.93 9.346a11.57 11.57 0 0 1-11.494 11.631c-2.248.013-4.354-.614-6.135-1.714zm40.688-.084c5.446-.032 9.9 4.34 9.933 9.785s-4.37 9.9-9.817 9.933-9.9-4.37-9.933-9.817 4.37-9.87 9.817-9.902zm295.84-1.34c-8.23.05-14.867 6.734-14.818 14.963s6.764 14.867 14.994 14.818 14.867-6.765 14.818-14.994-6.762-14.835-14.994-14.787zM241.364 683.2c6.61-.04 12 5.3 12.04 11.898s-5.29 12-11.898 12.04-11.97-5.29-12.008-11.898 5.256-12 11.867-12.04zm197.15-1.632c6.608-.04 12 5.3 12.04 11.898s-5.3 12-11.898 12.04-11.97-5.29-12.008-11.898 5.26-12 11.867-12.04zm-529.42 4.405l.07 12-54.305 38.415-.07-11.812zm381.284-2.437c5.45-.032 9.9 4.34 9.933 9.785s-4.367 9.9-9.817 9.933-9.9-4.37-9.933-9.817 4.37-9.87 9.817-9.902zm99.5-.2c5.45-.032 9.9 4.34 9.933 9.785s-4.367 9.9-9.817 9.933-9.9-4.37-9.933-9.817 4.37-9.87 9.817-9.902zM340 684.858c6.61-.04 12 5.3 12.04 11.898s-5.29 12-11.898 12.04-12-5.3-12.04-11.898 5.287-12 11.898-12.04zm148.95 1.465c5.45-.032 9.9 4.34 9.933 9.785s-4.367 9.9-9.817 9.933-9.9-4.37-9.933-9.817 4.37-9.87 9.817-9.902zM64.893 699.17c25.396-.448 52.95 12.29 68.574 33.596 23.64 31.22 39.553 71.12 46.98 123.57 3.68 25.98 16.263 103.962 23.254 122.365l-9.48-1.756c-1.276.613-13.726-49.017-21.77-114.624-2.98-24.298-8.336-55.65-22.622-84.212-16.31-32.61-43.887-67.114-80.412-69.652-21.302-1.48-41.216 11.978-43.257 30.787-2.978 14.865 5.81 28.646 17.26 33.21 11.244 4.484 24.63 1.012 26.04-14.28.246-2.513-.03-5.04-.98-7.37 5.187-.874 9.15 1.442 11.284 5.81 1.1.13.18 22.167-17.125 26.602-20.865 6.967-45.11-13.584-47.112-34.66-1.535-17.755 11.853-39.78 28.855-45.827 6.46-2.298 13.4-3.433 20.51-3.56zm-155.676 7.763l.072 12.25-54.308 37.946-.073-12.344zm156.95 6.855c30.498-1.048 60.4 32.777 73.108 55.1 13.262 23.3 23.87 60.362 27.656 95.276 6.44 59.383 18.1 107.904 20.525 110.1l-8.323-1.763c-1.732 1.176-13.517-52.393-20.85-112.066-4.112-33.47-16.735-66.598-31.67-92.096-13.782-23.53-32.282-41.062-54.07-43.494-13.656-1.3-27.67 2.734-30.337 17.117-1.41 8.45 3.054 16.698 13.07 17.36 2.36.156 4.617.337 5.034.408 5.305.913-2.968 9.562-8.448 8.83-19.57-2.61-28.74-28.683-13.408-42.672 8.97-8.184 18.374-11.78 27.7-12.1zm65.363 8.333l342.546 1.447s.32 6.13-21 5.25c-18.133-.75-29.815 1.85-41.8 5.778l-269.124.994zm-222.192 5.28l.067 11.375-54.305 38.477-.074-12.562zm159.213 3.873c6.58-.128 13.3 1.526 18.37 4.423 42.572 24.32 59.137 85.226 64.95 123.588 7.958 56.822 17.07 109.6 19.53 110.887l-9.262-2.04c-1.233.052-11.644-49.2-18.273-104.394-5.36-44.63-20.894-89.384-51.295-108.074-19.518-13.112-23.34-14.428-32.3-6.653-7.722 6.708-15.676-3.275-9.224-11.477 4.46-4.22 10.915-6.13 17.495-6.26zM-90.543 747.62l.055 9.344-54.306 38.3-.065-11.062zm249.3-1.22c.698-.65 29.753 48.023 39.3 124.958 5.027 40.51 19.137 109.547 21.338 110.095l-9.975-1.004c-10.435-40.705-16.302-79.253-21.954-113.997-6.395-39.306-11.55-74.227-36.332-119.694l7.592-.295c0-.035.02-.052.03-.063zm6.534.368l8.907.072c15.406 28.916 31.872 73.87 37.734 118.998 5.063 38.978 10.19 78.63 24.395 119.858l-9.578-2.57c-12.188-33.463-16.674-73.965-23.372-115.927-7.404-46.386-18.826-86.744-38.086-120.434zm54.968-.262c15.82 40.265 26.076 59.457 33.488 109.086 5.753 38.518 13.845 86.687 31.906 137.653l-9.023-.333c-13.37-35.174-23.724-82.335-28.607-127.66-6.634-61.563-34.632-118.91-34.888-118.546zm-15.343.247c.834-1.26 30.05 56.334 37.114 119.783 4.7 42.215 14.83 83.958 28.64 124.24l-9.22-.15c-10.72-12.247-19.037-70.537-28.144-124.944-9.295-55.53-22.13-89.65-36.327-118.788l7.906-.047c-.001-.05.018-.074.03-.094zm-23.28.2l8.188-.017c21.69 46.675 30.75 74.47 37.613 119.686 8.68 57.184 17 108.767 25.94 122.16l-10.004-.597c-14.037-41.17-20.497-82.345-25.636-123.57-5.565-44.64-18.633-82.83-36.1-117.664zm45.19.108l9.72.1c16.954 33.837 31.13 75.035 36.315 122.194 2.846 25.573 7.787 64.823 27.365 125.303l-7.784-.448c-15.983-40.545-25.723-88.325-31.61-130.003-5.94-42.04-16.19-76.7-34.004-117.145zm59.876-.072c9.323 23.48 17.03 46.8 22.137 70.84l-5.437 10.75c-8.805-31.704-18.652-56.372-28.45-81.365zm-44.343.293l11.845.21c20.624 47.097 31.37 96.97 34.328 113.706 0 0 2.904 14.806 3.116 19.67-.44 41.265 6.872 70.654 22.49 114.932l-7.034-.458c-18.132-51.458-23.15-88.058-27.914-123.025-4.032-43.968-18.6-89.217-36.832-125.035zm27.346.214c12.303 30.193 21.72 59.324 30.304 88.48-.34 6.635-.94 13.895-5.23 19.28-10.097-35.66-18.658-72.732-34.136-107.644zm22.376.118l9.376.1 19.003 53.42-7.265 8.137c-5.595-17.7-11.33-37.14-21.114-61.658zm54.72.052l6.94 16.053L346.41 770s-7.615-15.016-9.63-22.1zm13.906-.082l3.492 9.26-6.16 4.755-4.894-13.784zm-53.685.504l9.657.006c3.962 11.22 14.5 38.696 14.5 38.696l-6.894 7.322-17.272-46.024zm14.968-.088l8.563.043c2.62 7.292 10.756 27.468 10.756 27.468l-5.873 5.66zm44.783.11l8.47.356-.988 2.1-5.266 2.656zM89.106 761.653c35.58 18.5 45.686 74.437 49.715 105.21 7.03 53.692 14.823 97.366 16.426 98.53l-7.882-1.204s-5.982-27.57-10.162-53.816l-7.13-48.5c-.596-5.23-1.5-11.32-2.017-13.52-5.084-22.042-6.706-27.088-13.177-40.486-6.21-12.86-8.395-16.08-18.663-27.515-3.942-4.4-7.774-7.595-9.124-10.415-1.93-4.03 2.014-8.293 2.014-8.293zm-179.542 3.935l.062 10.562-54.303 38.82-.07-12.062zm.11 18.53l.072 12.156-54.318 36.3-.064-10.78zm.122 20.718l.067 11.28-54.306 38.32-.07-11.656zm91.128 10.87l4.812-.028.4 7.904-7.44-.425zm-91.003 10.287l.07 12.062-54.318 36.32-.066-11.25zm85.463 4.1l11.532.057-.076 8.282-14.815-.413zm-6.61 13.32l18.94.232.046 7.875-23.47-.237zm-78.738 2.183l.075 12.656-54.316 36.57-.075-12.72zm69.17 12.748l27.72.15-.117 6.595-33.094-.024zm-69.05 7.75l.073 12.375-54.324 35.227-.066-11.125zm57.565 5.535l38.065.307-.9 6.38-43.407.07zm-57.45 13.808l.07 11.906-54.32 35.82-.067-11.437zm43.25-.255l50.1.86 10.62 9.53-77.965.93zm-15.052 17.652l86.13.554 6.033 5.527-92.403.89zM-89.6 905.7l.075 12.625-54.32 36.04-.068-11.53zm28.252 10.927l95.438-.126-6.86 7.697-88.653.773zm-28.13 9.73l.068 11.562-54.312 37.32-.078-13.28zm25.848 5.88l82.5-.206-9.643 7.65-56.99 1.65zm-25.728 14.433l.065 11.03-54.3 39.384-.073-12.375zm49.945 1.112l48.438-.067.945 6.495-41.656.152zm13.485 13.327l37.19.156 1.8 8.396-33.096-.242zm-63.308 6.25l.06 10.25-54.306 38.384-.067-11.344zm103.142 7.798l.485 7.997-22.182.975-6.3-8.338zm-.104 14.188l-.138 8.407-15.467.34-3.517-8.073zM.13 1004.4l12.188.022-.993 6.475-9.437.18zm3.748 15.51l5.937-.035-.97 5.068-3.03.018zm121.128 84.85l-2.822 3.673 85.25-.503.916-3.662zm109.904-.65l-1.47 4.946 38.468-.227 1.033-4.944zm62.848.598l-1.16 4.663 98.342-.58-1.652-4.647zm117.654-.694l2.033 5.644 33.093-.195-2.22-5.643zm114.166-.674l-58.073.374 2.13 6.3 60.062-.354z"/>
    </g>
</svg>