<svg xmlns="http://www.w3.org/2000/svg" width="224.224" height="312.806">
    <g transform="matrix(.999995 0 0 .999995 -549.17549 -1753.8439)">
        <rect y="1754.351" x="549.677" height="311.811" width="223.228" rx="10.63" fill="#fff" stroke="#000" stroke-width=".997"/>
        <g transform="matrix(.156465 .002586 -.002586 .156465 828.41743 1874.1434)">
            <path d="M-1606.082-594.84l27.827 1698.866 1051.988-15.104-27.47-1699.934zm334.275 4.414l476.65-6.127s-53.438 71.546-64.198 103.888c-8.587 11.4-12.594 9.425-27.11 6.73-38.91-9.49-104.19-8.22-136.624-8.275-61.263-1.72-115.935 18.166-177.187 22.275-21.766-35.067-53.215-79.018-71.53-118.5zm-320.874 8.397l306.536-4.16 74.032 129.95c2.665 3.604.306 11.17-1.183 15.428-8.456 25.118-16.057 39.72-33.508 69.782-16.53 28.472-22.2 54.39-15.88 71.647.94 2.117 1.776 5.34 1.51 8.07-.85 8.67-7.952 18.808-17.732 25.828-6.704 1.2-20.658 2.28-28.613 10.412-6.818 6.968-12.33 17.092-11.135 35.408.525 6.55 1.427 10.697 1.427 10.697-90.767 39.537-155.533 85.167-153.337 86.764-.866-.382-80.95-35.644-114.183-44.15zm814.583-11.15l210.13-3.285 11.16 599.585-81.51-50.94 17.454-12.353c1.23-.394 3.567-.47 5.08-.834 13.994-3.364 23.614-14.032 18.56-24.84-3.43-7.338 1.095-6.962 5.066-13.054 4.47-6.858 3.418-12.883.412-18.54-1.492-2.808-.715-3.942 1.63-9.216 6.3-8.086 1.428-21.507-6.957-25.732-.89-1.27.856-3.285 1.228-5.146 2.166-10.85-2.296-20.272-11.686-22.53-4.834-1.162-6.45-1.972-4.823-6.296 2.887-7.675-1.13-10.444-7.432-12.816-10.602-3.992-7.632-4.708 5.29-10.776 26.45-12.422 32.137-48.147 13.27-80.168-2.4-4.07-8.785-13.612-13.114-20.005-5.058-7.47-9.95-13.9-9.95-13.9l34.464-49.764s-25.042-28.687-34.055-44.63c1.93-7.975 26.106-33.318 28.896-57.58 4.374-38.04-24.85-61.856-52.068-58.554-18.88 2.29-41.948 14.772-39.62 49.88.724 10.906 5.17 22.107 13.122 35.632 5.567 10.124 12.74 20.82 19.6 31.086l-34.693 49.11 36.62 44.838-1.217 1.99c-3.476 5.736-13.573 22.62-17.903 32.488-12.797 26.375-17.007 55.17 10.5 74.962 4.8 2.84 8.503 5.26 10.56 7.233 2.71 2.6 1.08 4.637-3.187 5.7-5.028 1.148-10.17 1.16-15.447 3.35-16.93 6.496-33.833 16.805-45.813 26.823-6.724 5.623-17.42 23.247-23.883 37.525-7.024 15.517-9 18.964-9 18.964l-126.084-77.802s-3.2-2.45-4.088-3.402c-2.366-2.564-1.556-4.088.01-7 1.326-2.467 1.257-9.657.563-15.105-.343-10.465-.266-10.507 5.604-20.22 2.068-3.423 2.893-6.822 1.583-12.028-2.052-5.84-2.208-3.965 1.46-8.056 1.427-1.817 3.17-2.733 3.423-4.682.34-2.61.024-7.146-.07-15.626-.19-16.994-.396-15.6 9.024-23.215 11.7-9.47 16.046-13.916 17.86-18.14 2.6-6.057-.174-10.55-7.028-22.45-3.132-5.436-7.964-12.764-10.31-16.863-4.382-7.366-10.696-17.057-13.78-26.37-4.556-7.115-4.086-19.585-.102-26.97 5.002-9.27 6.344-14.847 5.855-33.414-.454-17.21-1.675-15.586 2.615-21.42 32.062-43.928 82.782-125.448 82.782-125.448zm134.593 61.253a43.83 43.83 0 0 1 2.126.027c10.328.32 20.636 3.468 30.305 12.532 13.16 12.767 12.59 31.484 8.657 51.02-1.867 5.686-3.232 11.46-7.12 17.433-2.163 3.324-3.924 6.404-3.92 6.816s-3.1 5.597-6.904 11.553c-3.717 5.82-7.96 13.915-7.96 13.915s6.278 10.836 17.31 24.342c8.356 11.984 13.816 22.457 14.425 21.827 0 0-1.98 5.274-4.757 9.05-8.387 11.403-23.792 35.16-24.382 37.627-.142.594-1.76 1.223-1.72 1.8.15 2.18 3.326 4.714 8.154 11.117 29.143 38.652 33.717 71.614 12.637 91.366-10.49 9.828-20.95 13.028-32.244 12.003-20.694-1.878-40.052-19.19-38.248-44.937.81-11.827.14-15.338 6.862-29.18 3.01-7.78 9.898-21.143 14.5-27.9 4.05-4.862 8.338-11.764 8.338-11.764s-10.395-15.446-29.398-37.082c-3.426-3.957-5.593-9.346-5.593-9.346l31.15-47.834s-3.86-9.117-10.24-18.302c-13.084-18.834-21.654-38.947-21.765-50.344-.277-28.403 18.02-45.347 39.773-45.748zm90.7 674.5c-18.692 10.343-36.482 44.894-1 20.418l1.224 19.678c-18.223 26.794-55.034 7.98-46.206-19.597-25.142 3.68-29.492-21.83-28.414-34.016-33.256-6.672-22.39-41.954-22.39-41.954-19.41-15.688-23.045-32.397-7.828-50.324-15.842-9.493-20.364-15.666-37.714-22.464 15.154 117.293 79.587 177.276 147.236 230.567 0 0 2.104 37.818-5.645 30.973-96.5-69.64-159.108-150.065-171.827-281.616-.774 2.082-45.757-33.6-53.066-31.555-11.857 213.56 160.277 350.962 231.355 377.432 0 0 1.492 29.703.28 29.828-107.802-44.92-229.075-179.975-254.696-342.62l-61.53 98.843-23.82-9.733 99.452-162.572-69.768-42.134-109.477 179.99s-2.74 14.902 5.396 14.538c158.087 14.276 395.91 199.993 322.376 509.868-6.865-2.585-17.8-7.687-18.344-7.448 11.893-26.795 43.456-199.633-62.36-337.078C-768.06 208.627-842.733 142-961.085 123.91c10.086 19.964 6.586 65.68 6.586 65.68l27.588 5.107c-9.44-9.655-17.333-17.607-21.187-28.185-5.424-16.49 1.96-26.43 20.474-16.872 7.354 3.968 9.186 3.78 16.194-1.612 14.595-11.227 31.643-.197 28.053 18.133-.53 2.708.212 4.397 7.238 4.912 15.92 1.318 32.064 8.93 42.636 21.11 5.19 6.43 6.324 5.444 10.775 1.447 10.93-9.814 29.527 3.228 26.492 18.2-1.735 8.553-.67 10.576 3.295 12.166 21.825 8.753 27.243 14.413 34.305 33.28 2.587 6.912 4.654 9.164 5.927 8.747.89-.292 4.434-1.543 7.55-2.78 16.08-6.395 25.877 13.015 14.66 28.543-2.298 3.182-.508 6.17 3.7 8.377 13.59 7.125 23.035 24.526 24.93 42.906.722 6.992 1.458 6.99 8.454 6.58 17.905-1.047 26.835 23.004 12.408 32.143-5.025 3.183-4.014 7.17.007 11.783 10.65 12.22 13.24 21.13 12.553 35.266-.915 18.82.278 18.433 6.3 20.617 17.52 6.344 14.733 34.217-2.34 34.407 12.77 28.442-2.844 63.64-2.305 64.276 33.1 17.916 3.812 38.016-5.775 34.726 0 0-4.648 12.95.978 19.486-28.146 38.55-65.717 45.492-107.127 65.092l-3.528-134.023c17.585 13.683 35 26.434 52.404 39.14 0 0 4.336-1.38.308-4.98-7.763-6.94-27.202-19.062-32.665-23.925-11.76-8.62-54.99-48.61-62.72-58.128-3.497-6.368-8.554-2.566-8.412-2.182 5.236 8.708 9.198 18.896 15.94 27.923 14.562 19.495 28.74 41.195 27.66 62.91.166 12.146-4.453 24.76-7.053 30.902-1.863 8.362-15.302-1.168-12.075-8.24 5.585-19.324 10.214-35.156-11.4-65.696-10.54-14.892-24.323-42-24.323-42l-8.496 2.203 3.203 174.877c-7.15.412-25.215 5.415-21.475 5.48 56.355-12.23 74.992 68.385 20.44 71.922-10.364.54-20.79 18.57-21.723 28.27.857 23.482 4.708 48.204-12.11 71.053-4.42 6.006-6.346 15.455-10.404 22.925-20.374 37.5-29.39 58.964-27.1 68.52.59 2.458 1.157 5.7 1.157 5.7-66.57 17.8-116.628 22.922-183.946 25.606-.676-1.043 21.51-66.87 37.935-100.703 12.14-25.006 18.33-42.064 14.723-47.125-53.358 3.56-44.412-74.907 6.732-72.997 0 0 12.072-45.32 26.07-65.91 13.458-7.786 40.964 2.06 56.12-8.335 35.92-11.668 60.264 30.633 60.264 30.633l9.046-40.78-319.294 3.746s-32.694 12.867-49.623 6.196c-10.82-4.263-23.362-16.652-23.372-16.647l136.213-226.532c1.42-2.322-3.297-7.183-3.307-7.228-.778-6.407-138.486 216.26-137.754 225.963 0 0-3.67 5.404-10.55.8-80.858-53.843-273.866-169.28-273.866-169.28l-1.702-87.86c65.76-42.975 59.454-59.986-1.283-13.324-.846.74-1.858-32.974-1.858-32.974 46.183-42.657 7.418-28.898-1.597-14.232.05-10.445-2.608-24.583 3.976-30.938 20.17-19.22 44.598-2.285 46.272 25.61 26.808 4.797 23.882 28.33 30.925 37.655 27.496 14.93 13.537 38.504 20.427 46.325 28.995 17.622 9.46 47.04 3.375 46.482 3.658 2.374 39.715 25.69 42.76 24.766-5.166-125.288-145.16-242.667-148.894-236.322l2.5-27.076s174.312 107.48 175.726 284.54l55.533 31.774c-7.888-181.56-91.03-302.815-231.005-378.516l-3.503-34.166c117.317 52.264 227.097 160.148 255.207 339.485l62.806-101.114 22.897 10.623-100.75 167.772 65.328 41.436c49.04-66.83 89.51-148.457 114.357-187.384-.73-3.51-2.204-8.527-2.204-8.527-247.106-36.577-389.734-265.21-327.557-507.594l17.247 7.247c-48.432 179.554 39.618 435.392 308.502 483.562-.847-18.994-4.96-65.677-4.96-65.677s-35.392-10.006-30.14-5.847c8.748 7.23 28.656 38.7 20.65 50.134-5.875.922-15.786-2.213-26.7-9.935-4.117-2.913-4.22-2.276-8.707 2.675-12.444 13.734-30.98 6.3-31.457-12.294-.202-7.85-.522-9.506-11.657-9.402-16.887.158-24.517-2.614-34.863-15.99-7.338-9.487-6.68-9.54-15.078-6.502-16.06 7.97-29.244-7.993-24.388-21.412 2.4-6.29-.297-8.245-7.687-9.343-14.374-2.135-30.884-19.857-34.106-34.504-.66-2.993-2.172-3.726-10.618-3.294-16.568.848-25.91-9.054-19.606-23.242 3.4-7.673 4.353-10.762-2.355-15.807-8.226-6.185-12.882-10.5-16.614-18.103-2.96-6.03-3.448-9.91-5.628-22.816-.758-4.49-2.266-5.196-8.16-5.866-17.18-1.952-24.23-19.38-11.826-30.965 3.786-3.536 3.774-3.452-2.18-10.903-11.455-14.334-15.97-33.216-11.29-45.913 1.267-3.438-.095-7.597-4.1-8.527-15.697-3.634-16.25-20.965-1.45-30.95 4.298-2.9 4.488-4.776 1.11-10.426-5.92-9.897-6.065-36.07-.71-48.682 3.46-8.155 3.435-8.342-2.195-11.81-12.005-7.393-8.954-28.324 5.035-31.994 6.794-1.783 7.23-2.68 5.258-10.932-3.518-14.71-4.145-18.537 4.47-24.515 23.702-15.957 84.583-46.717 84.583-46.717l20.12-10 3.008 138.5c-.686 6.32 5.043 10.044 11.743 16.496 13.848 13.17 21.582 29.245 39.95 40.19 0 0 11.23-6.49 18.163-11.114l-2.23-176.52c1.37-4.03 2.366-4.488 7-5.117 3.86-.8 13.558-2.054 16.796-3.06 7.79-2.42 8.972-5.6-1.29-4.386-3.092.366-7.718 1.762-12.89 2.9-31.975 10.173-56.57-39.475-32.518-65.097 4.627-4.285 22.053-11.895 30.016-12.53 2.304-.02 9.02-8.576 13.574-16.445 4.577-7.9 6.434-13.763 3.613-21.563-5.94-16.42-.954-41.865 15.537-69.83 17.92-26.432 31.613-55.826 38.535-86.992 64.902-8.916 119.8-25.998 178.638-23.393 2.624 19.83-62 138.056-47.99 144.688 52.576 11.676 35.725 74.072-4.112 72.672-5.963.066-6.54.604-10.116 13.857-6.908 19.376-11.33 34.146-18.796 52.193.05 4.608-3.182 4.21-24.962 4.413-19.954-2.618-33.51 8.457-47.977 9.325-18.446 1.147-34.343-7.442-40.994-22.013-2.964-6.493-5.546-2.148-5.374 13.372.137 12.348-.24 19.57-.24 19.57l163.265-2.323c175.774-2.6 158.31.382 172.13-6.814 8.075-4.205 13.368-8.704 27.602.263 22.804 14.365 22.03 12.366 15.615 21.964-43.096 66.244-138.136 225.5-138.136 225.5l6.953 6.573 139.76-231.216c2-2.405 11.446.436 11.446.436l271.918 170.53c-1.83 26.478 1.79 85.697 1.79 85.697-74.955 41.404-51.513 61.482-.255 11.988zm-466.937-622.057s78.048-.657 117.286 4.97c34.36 4.927 32.58 3.947 32.856 28.836.196 17.676.164 17.274-4.23 25.823-8.1 15.76-6.422 31.136 7.15 52.483 13.175 20.722 22.82 36.024 22.866 39.002.066 4.62-.62 10.276-11.607 18.226-12.963 9.38-15.36 15.825-15.024 25.127.27 7.53-1.114 10.013-5.616 10.063-1.804.02-8.132 3.09-14.927 6.435-11.954 5.883-11.975 5.883-23.217 5.978-5.637.048-8.403-2.036-9.962-1.398-3.003 1.462-5.585 11.64-5.447 14.592.337 1.04 1.94.385 5.237-.805 18.536-6.688 46.313-4.28 47.138-1.498 3.815 3.343 3.91 8.604-1.673 14.155-3.584 5.84-5.204 8.856-3.52 17.78 2.29 12.122.8 16.972-5.337 21.28-18.745 13.133-44.028 15.167-84.628 8.056-42.787-7.494-72.225-23.278-96.966-52-11.053-12.83-13.804-17.344-8.46-18.33 6.595-1.132 13.892-2.622 20.628-5.654 29.76-13.397 28.324-68.28-12.15-73.34-16.483-.312 32.72-78.817 49.603-139.776zm39.128 37.18c-14.363 8.356-21.772 18.383-21.712 23.76.024 2.203.51 1.795 7.36-2.872 19.878-13.546 72.498-33.505 91.573-22.798 13.758 7.953 19 5.2 10.93-5.668-18.94-25.505-68.52-3.543-88.15 7.578zm51.91 7.79c-2.14.053-4.373.336-6.58.828-13.923 3.35-29.107 15.12-41.678 25.473-6.2 5.107-14.925 15.157-16.27 17.77-3.047 5.916 4 12.265 13.366 6.936 5.447-3.1 5.946-2.428 11.253-1.78 12.26 3.476 26.264 8.938 47.743 6.774 2.01.426 1.87.9 1.203 2.793-1.22 3.463-8.73 10.16-18.554 17.684-5.066 3.88-9.5 7.063-9.844 7.632-1.54 2.557 5.314 2.64 12.754-1.742 10.556-6.22 22.61-19.79 29.935-30.655.698-1.035 1.675-1.893 1.982-3.002.692-2.498-3.778-1.397-6.2-2.023-1.04-.27-.87-2.88-1.16-4.075-.764-3.138.382-8.37.88-12.86.404-3.63 4.244-6.57 6.754-9.27 11.043-11.873 10.076-17.155-4.882-7.92-2.52 1.555-4.515 2.5-6.987 2.74-22.285 1.07-35.188.42-53.518 16.387-8.157 6.797-13.113 7.53-5.87.316 11.068-9.272 24.92-22.434 40.418-26.11 9.35-2.493 18.404 4.55 22.484 2.63-.057-5.14-7.96-8.76-17.237-8.53zm-2.7 32.356c2.582 1.64 5.234 10.322 5.047 13.268-.218 3.422-6.122 2.103-6.962.5l-3.347-9.634c-1.443-3.247 2.75-5.172 5.262-4.124zm-11.327 2.162c2.774 2.648 3.498 8.473 5.126 13.26-.93 3.488-22.957-.84-25.775-4.677 3.22-4.332 14.447-9.64 20.648-8.584zm39.53 61.918c-1.653-.082-3.823.757-5.767 2.814-9.713 10.28-6.245 27.464 5.73 32.847 5.84 2.625 14.573.48 27.41-3.703 6.118-1.993 10.554-2.93 11.703-2.944 5.044-.056 7.66-7.92 4.06-11.444-4.157-4.074-13.84-3.304-24.14 4.93-5.21 4.165-8.948 6.203-13.21 6.22-10.435.04-15.686-10.617-5.21-22.073 3.488-3.814 2.177-6.51-.58-6.648zm-71.9 75.37c12.47 9.726 35.75 4.135 51.286-6.52 13.883-9.52 19.66-12.36 30.954-10.607 13.842 2.15 13.24-3.27 7.148-9.994-6.906-7.625-23.608-4.96-37.46 4.557-30.715 21.1-41.89 24.73-51.086 13.74-9.88-11.805 1.392-27.352 12.928-19.16 9.455 6.2 9.237 1.425 5.302-2.875-22.84-18.61-38.532 15.68-19.07 30.86zm-109 11.57c16 19.614 31.276 35.78 54.01 47.52l.312 3.745-72.868 1.048c4.94-8.972 18.702-51.725 18.544-52.314zm-245.86 55.852c-1.048 29.98 4.616 47.486 22.504 68.137 19.013 21.95 18.2 56.67 6.562 78.303-5.15 9.574-16.14-1.912-11.152-8.06 7.086-9.223 7.153-31.453 3.502-45.283-8.058-22.827-25.66-33.782-33.118-57.93-2.546-10.315-2.103-28.938-2.103-28.938zm22.85 2.154c1.272-.222 3.325 1.063 6.373 3.614 10.455 8.75 9.12 34.313-2.41 50.89-3.532 5.03-6.55 3.66-10.08-.896-4.74-4.53-3.132-5.016.657-13.17 3.952-8.502 5.106-18.02 4.082-29.103-.69-7.462-.484-11.012 1.375-11.337zm668.522-2.297c9.092-.287 20.493 1.455 21.58 4.738 1.05 3.998-1.054 7.25-6.094 9.477-13.217 5.84-30.94-1.732-26.66-11.405 1.08-1.734 5.718-2.638 11.174-2.8zm-23.023 2.568c2.614-.102 4.653.508 6.27 1.21 4.4 2.176-2.2 17.65 19.502 16.993 5.202.678 9.016-.578 8.343 1.77-1.02 3.558-10.245 9.02-20.326 10.68-30.173 4.972-28.88 3.442-27.157 24.796 1.125 13.94.295 18.66-1.458 27.153-3.04 14.726-4.105 28.924-1.975 24.223 2.847-6.283 10.055-26.098 9.823-37.292-.342-16.51 5.5-19.875 8.057-7.947 1.14 7.905-2.33 12.432 3.12 20.42 3.09 4.488 4.466 4.39 2.565 11.46-1.678 6.238-.4 8.043 1.8 11.16 2.236 3.138 4.445 3.83 2.67 8.3-3.83 9.64 2.575 18.6 11.663 19.216 4.2.285 5.39 2.093 4.156 3.713-2.174 2.798-6.572 4.183-10.23 5.045l-97.095-59.8 8.95-18.275c13.303-30.493 24.022-44.462 64.126-60.974 2.77-1.246 5.157-1.758 7.19-1.838zm51.384 19.03c2.648-.143 4.633 1.212 6.912 4.043 6.022 7.484 1.032 17.045-13.33 25.443-12.277 7.255-15.87 8.155-18.738-2.878-.654-1.99-2.343-4.417-3.433-5.382-2.913-2.578-2.296-4.775 1.326-6.773 1.733-.956 7.267-3.33 11.678-6.35 7.663-5.246 12.183-7.918 15.587-8.102zm-40.537 22.673c3.034-.002 6.176.68 8.505 2.14 3.884 2.436 4.024 8.714.186 11.28-7.663 3.275-19.917-.74-19.007-7.843.463-3.612 5.26-5.573 10.316-5.577zm49.56 6.932c2.735-.118 4.812 1.128 6.563 3.736 4.64 6.914-.558 14.016-15.674 21.73-9.947 5.076-22.726 7.42-21.928 4.52.642-2.335-3.13-13.744-4.758-15.55-.645-1.932.182-.196 12.773-4.4 4.56-1.522 10.06-4 12.596-5.646 4.306-2.8 7.694-4.274 10.43-4.392zm-720.508 30.035c-6.77 17.06-7.762 24.563-4.114 42.324 3.037 14.784 6.396 22.17 21.977 43.83 11.86 16.487 15.673 22.914 12.968 28.227-1.92 2.87-6.3 5.59-9.095 2.91-5.78-7.305-9.327-16.238-14.982-24.39-21.785-30.846-23.392-38.76-26.52-63.352-1.43-11.237 4.647-35.312 10.12-38.985 6.156-2.53 11.494 5.51 9.645 9.436zm491.304-15.933c-.5.072-1.03.363-1.548.9-2.84 2.944-10.9 16.55-10.57 18.583.703 4.458 4.31 1.477 13.666-12.76 2.247-3.42.622-7.036-1.55-6.725zm183.195 4.63c8.516.116 11.66 7.7 7.914 11.746-5.464 5.902-15.537 1.68-15.67-6.46-.057-3.45 1.52-5.257 7.758-5.285zm47.392 10.093c4.883.128 5.6 4.968 3.137 12.044-3.13 6.583-7.015 7.752-18.655 11.59-13.94 4.598-16.237 4-18.555-8.85-.89-4.937-.475-3.844 12.378-7.487 5.516-1.563 11.945-4.296 15.375-5.786 2.59-1.1 4.692-1.554 6.32-1.51zm-827.39 19.45l3.872 25.97 5.272-19.584zm782.106-4.17c6.895-.086 10.694 6.024 7.257 9.788-1.916 2.097-6.88 2.223-9.296 1.06-5.54-3.91-4.664-10.764 2.04-10.848zM-855.49-83.05l13.573 8.058-106.293 174.124-13.16-.064-1.295-2.73zm247.68-2.437c8.056-.247 8.877 7.34-.76 14.483-3.957 2.63-8.434 3.33-11.912 3.54-4.848.295-8.14-.913-8.572-4.265-2.242-8.192-3.477-10.216 4.025-9.85 1.496.073 5.57-.23 8.817-1.677 3.323-1.48 6.146-2.164 8.402-2.233zm-33.246 8.082c5.57-.062 9.214 5.92 5.524 8.94-4.56 3.73-10.35 1.57-10.41-3.954-.04-3.53.898-4.943 4.887-4.988zm-785.13 25.165l-29.258 26.792c11.1 12.698 20.443 25.408 30.1 38.757zm600.446-8.236c12.878-.73 17.205 5.434 11.162 9.723-8.212 5.687-15.33 5.54-24.774 4.4-12.504-2.11-2.746-12.257 10.897-13.9a43.35 43.35 0 0 1 2.715-.232zm-13.376 18.974c2.6-.113 6.45.555 11.443 2.155 8.478 2.717 19.123 11.38 18.71 16.287-.67 7.944-15.664 4.097-27.87-7.072-7.647-6.996-8.005-11.122-2.282-11.37zm-11.403.313c7.32.57 15.02 25.182 9.482 32.88-5.43 7.545-15.48-8.333-13.91-20.96.62-4.998 1.768-11.603 3.71-11.875.235-.033.482-.062.718-.043zm-477.157 13.324c4.133.916 9.5 6.522 8.43 10.862-.8 1.75-2.54 1.274-4.424.854-3.408-1.375-6.098-6.046-5.51-9.973.3-1.064.743-1.67 1.503-1.744zm553.87-4.903L-752.1-18.56l-21.452 1.198zm-88.47 30.935c16.47-.183 20.04 5.087 7.852 11.778-5.067 2.78-17.505 3.494-23.98 1.365-10.278-3.378 1.83-12.985 16.13-13.143zm133.415 8.9l1.372 14.917-41.278 4.308-2.382-15.525zm-142.795 9.798c2.86-.228 7.447 1.02 13.474 3.997 11.343 5.6 17.904 15.2 12.15 18.364-5.214 2.866-14.64-.276-21.37-7.117-8.91-9.055-9.713-14.81-4.252-15.244zm-14.06.264c7.518.326 14.357 20.802 9.577 31.065-2.615 5.615-6.066 4.454-11.14-4.63-4.907-8.782-5.424-24.423.035-26.223.504-.166 1.027-.235 1.528-.213zm-537.57 14.697l-17.47 36.638 33.213 28.04zm700.2 16.432l3.143 14.325L-759.462 73l-4.133-15.6zm-173.242 5.676c4.842.006 9.407 1.08 12.057 3.332 3.673 3.124 2.906 4.566-5.584 8.187-15.12 6.45-33.932 3.008-23.203-6.43 3.79-3.333 10.506-5.097 16.73-5.1zm257.765-5.102c-14.986 10.4-.3 15.756 10.405 7.898-.854-2.603-7.225-7.91-10.405-7.898zm-268.566 24.815c10.845.176 32.36 14.694 27.928 21.885-2.406 3.94-16.68.847-22.42-4.474-7.543-6.993-11.627-16.443-7.536-17.253.617-.122 1.306-.17 2.03-.16zm-13.674.914c5.577-1.135 14.95 24.8 8.304 31.586-2.485 2.54-3.19 2.404-7.49-1.283-8.593-7.364-7.367-21.214-2.417-29.027.474-.747 1.027-1.16 1.604-1.277zm333.322 8.235c-1.523-2.736-3.383-3.985-5.435-5.47-52.353 21.116-38.527 40.18 5.435 5.47zm-124.813 3.852l5.5 14.474-39.7 16.502-6.138-15.838zm-683.107 38.856l-12.94 35.844c14.71-.157 28.09 6.57 41.62 12.533zm697.015-1.05l8.704 14.17-37.252 20.962-7.748-14.968zm-872.795 42.303l15.584 10.62-22.157 28.495-2.128-3.934-.136-23.345zm893.93-5.93l9.31 12.973-35.767 25.75-9.1-14.133zm-854.698 31.003l16.834 12.536-25.753 32.15-16.105-11.892zm183.042 4.82l-.15 38.164 39.144.853zm452.437 9.722l44.888 24.87-7.343-38.97c-11.58 2.455-26.358 10.27-37.545 14.1zm244.088-12.045l10.587 12.733-32.97 28.642-10.94-13.26zm-845.166 25.282l15.736 14.148-26.82 29.947-14.565-13.292zm874.258 6.492l12.23 12.018-29.94 32.187-12.23-12.018zm-838.44 29.4l12.23 13.8-30.774 25.293-11.793-13.87zm179.748.31l9.366 37.225c-.68-2.707 38.638-11.787 43.825-9.038zm459.412-4.432l37.886 38.704 3.56-37.944zm230.398 2.377l13.64 10.307-24.408 36.033-15.446-11.715zm-842.117 37.67l11.357 15.846-32.36 20.006-9.514-14zm877.85-10.726l2.096 2.028.39 25.434-10.122 15.42-14.292-8.11zm-210.202 32.05l33.933 59.347 8.55-44.818c-12.184.02-31.596-7.463-42.484-14.53zm-640.92 18.584l8.128 17.15-34.266 16.318-8.158-17.055zm19.335 40.936l6.598 17.237-36.512 12.793-6.088-16.62zm-163.617 34.118l11.568 7.824c59.044-32.29 40.328-41.232-11.568-7.824zm336.315-25.47c2.246-.27 4.892 2.797 7.098 9.634 3.334 10.335 1.87 23.24-5.18 23.182-4.755-.497-6.722-12.644-6.8-16.17-.227-10.42 1.994-16.297 4.882-16.645zm32.755 5.678l14.21 1.297.003 4-110.02 181.25-13.83-8.46zm-60.767 5.16c4.503-.034 11.146 2.96 17.1 9.063 3.478 3.647 7.225 8.844 8.205 14.2-.07 1.776-3.1 1.154-6.05.788-7.52-.936-18.644-5.948-22.27-12.3-4.454-7.792-2.08-11.732 3.025-11.77zm519.528-2.198l16.28 73.216c4.36-18.466 14.043-29.23 21.1-43.792-19.347-8.524-27.403-18.873-37.38-29.424zm-648.91 25.6l3.845 18.94-37.912 9.44-4.242-18.37zm142.058 4.247c.54-.02 1.076-.018 1.595.036 13.943 1.327 15.965 4.39 6.71 10.828-5.608 3.903-20.955 4.692-23.555.67-2.77-4.287 7.163-11.322 15.25-11.535zm-275.965 15.72l11.925 6.7c19.992-14.957-2.153-17.52-11.925-6.7zm256.227 2.172c4.255-.018 6.94 7.534 8.553 14.486 1.56 6.73 2.162 12.82-.388 16.26-3.12 4.208-6.23 4.995-8.83.927-7.622-11.925-7.708-31.636.664-31.672zm-31.188 11.548c1.985-.103 4.496.356 7.43 1.41 9.937 3.563 23.278 18.467 17.78 20.646-8.115 3.218-26.11-5.447-29.618-14.45-1.767-4.537.04-7.38 4.406-7.605zm-81.225 13.532l1.217 18.764-40 2.286-1.496-18.665zm98.3 14.2c3.94-.178 7.89.277 11.1 1.598 5.77 2.382 1.672 6.937-8.11 10.5-6.457 2.36-15.705 3.092-18.993.564-7.692-5.862 4.19-12.14 16.012-12.673zm-309.484 7.303c27.69 16.197 84.814 52.356 84.814 52.356-2.674.574-5.495 2.723-8.11 4.822-2.015 1.714-4.204 3.31-6.12 4.133-3.017 1.294-5.8 1.512-8.34 2.107-17.607 4.134-26.097 14.277-20.375 26.622 2.248 4.85 2.798 4.054-.895 8.235-10.372 10.23-9.035 13.217-5.07 26.025.08 1.82-12.26 17.493-.928 28.957 6.25 5.268 6.488 1.902 4.453 14.147-.66 7.354 1.444 13.345 12.16 15.27 5.984 2.626 5.884 1.68 3.862 6.75-1.32 7.25.79 10.204 5.9 12.748 4.648 2.802 6.53 3.553 3.32 6.133-35.277 18.804-45.696 50.68-11.37 96.826 4.046 5.44 14.258 20.812 14.258 20.812-11.034 16.977-21.603 30.983-32.89 46.168l34.355 46.4c-5.302 8.614-17.727 26.155-25.258 43.383-11.313 25.88-2.968 61.755 30.975 71.967 14.553 4.378 33.6.317 45.427-13.877 9.587-11.515 14.542-34.16 5.232-57.5-11.717-26.132-25.46-38.816-29.962-46.23l35.205-45.725-35.454-48.002c66.056-83.642 10.6-105.806-.08-112.7-1.66-1.07-1.355-6.353-1.355-6.353 60.44-7.94 80.57-41.558 97.688-83.97l125.383 76.97c3.546 3.183 5.87 5.15 5.365 6.944-.412 1.466-1.703 8.186-1.658 15.06 1.866 10.92 1.144 15.885-3.2 20.15-4.087 4.013-3.227 5.79-2.49 10.043 1.28 7.385 2.414 8.107-.835 11.9-4.003 4.663-5.334 6.838-4.39 17.98.56 6.617 1.485 11.567-.18 15.505-2.17 5.126-8.3 7.805-16.297 14.302-13.994 11.37-12.025 14.742 8.22 54.84 17.252 34.17 19.288 42.016 13.087 54.354-5.16 10.265-7.035 18.165-6.145 32.856l.63 9.772c.04 4.757.094 4.212-2.6 7.23-2.097 2.352-5.57 6.992-7.706 10.316l-82.474 125.16-205.946 3.06zm289.073 11.475c2.4-.213 5.394 4.058 8.837 12.73 1.988 5.008 1.932 13.76-1.09 17.177-6.02 6.802-14.72-8.76-12.26-21.238 1.112-5.635 2.64-8.504 4.514-8.67zm579.028-19c.56 31.817.558 73.123-9.894 103.748l12.516 5.423c-4.524-31.188.022-56.93 28.47-70.927-13.192-8.64-23.407-23.436-31.092-38.244zm-609.723 30.144c.995-.042 2.15.186 3.416.57 4.67 1.2 10.372 3.82 13.872 7.272 5.99 5.907 12.19 13.022 10.666 13.732-9.67 4.435-34.598-8.216-31.53-18.482.676-2.174 1.917-3.02 3.574-3.09zm-43.284 2.06l.508 15.587-24.187-14.915zm546.705-1.534c3.88.275 9.957 5.25 9.084 8.79-1.604 3.842-3.656 3.52-6.392-.44-3.415-4.943-4.82-8.042-2.692-8.35zm-484.646 27.294c5.81-.253 10.845.947 11.442 3.968.03 2.865-4.322 6.646-9.737 8.412-13.538 4.416-23.787 1.88-20.177-4.855 2.26-4.456 11.003-7.2 18.472-7.525zm474.228 9.85c-5.582 10.407-5.748 43.395 4.625 56.683 16.058 17.155 30.995 39.59 29.814 69.798l-15.042 7.03c.427-24.833-.83-40.952-20.56-62.044-23.488-24.694-18.78-68.23-11.03-81.14 6.63-12.726 16.766 4.97 12.192 9.67zm-664.136-2.743c4.842-.366 10.815 2.4 21.657 9.3 27.747 18.96 42.74 26.206 70.253 44.97 4.038 3.66 3.833 3.128 3.194 6.073-9.74 39.962-39.4 72.032-84.057 78.556-5.165.755-2.548-2.53-5.77-8.718-3.317-6.37-9.29-9.068-15.87-9.02-18.48.135-2.853-10.49 19.65-13.827 7.436-1.27 16.4-2.428 21.075-7.005 1.038.47-4.43-31.057.458-42.263 2.422-10.046-.106-14.842-2.8-8.642-1.69 3.89-3.98 14.076-5.127 24.494-.97 8.797-2.798 10.03-4.936 5.8-.976-1.93-1.033-6.536.394-10.195 1.544-8.304-8.996-14.37-7.02-21.98 2.692-6.374-.328-13.304-3.883-15.563-1.982-4.07-1.805-7.04-1.6-9.912.477-6.72-4.096-13.095-11.2-15.786-3.145-1.525-2.24-3.248.98-4.923 1.504-.782 2.99-1.236 4.603-1.358zm-22.247 11.713c1.776-.06 3.543.104 5.228.507 3.67 2.15 6.797 14.677 2.752 15.238-1.5.207-6.148.85-9.75 1.974-12.205 3.807-18.03 3.42-17.906-3.642.125-7.2 10.086-13.754 19.676-14.077zm16.332 1.012c4.83-.054 8.818 5.537 5.83 8.592-3.09 3.16-9.165.99-9.215-3.504-.027-2.423 1.027-5.062 3.385-5.088zm3.605 19.537c1.383-.076 2.92.19 4.578.924 4.523 2 7.237 9.68 4.427 12.554-2.137 2.185-8.367 1.532-11.74-1.244-6.028-4.96-3.256-11.903 2.736-12.234zm-15.198 1.376c2.78.013 4.795.874 5.36 2.787.484 1.645-.256 3.182.53 5.523 1.236 3.684 3.63 6.485 1.6 8.006-9.417-.408-28.752 11.725-34.412 11.258-4.716-.553-5.32-4.88-1.354-11.98 4.583-8.205 19.937-15.632 28.277-15.594zm6.064 22.747c2.047-.164 2.41.964 1.628 3.974-.556 2.14.017 7.2 1.517 10.445 1.61 3.48 4.458 5.523 3.02 6.92-2.398.733-10.45 2.482-17.2 5.13-8.684 4.995-33.056 20-27.248-3.456 1.845-7.837 10.812-13.404 26.53-19.19 5.962-2.195 9.704-3.656 11.75-3.82zm12.91.068c3.8-.34 8.173 1.42 10.196 6.114 5.896 11.27-10.454 13.168-15.846 3.794-3.194-5.553.765-9.47 5.65-9.907zm3.562 26.414c8.51-.095 15.288 10.348 9.177 14.444-4.533 2.828-10.217 2.404-15.482 1.193-7.94-3.332-4.502-15.52 6.305-15.638zm814.767-13.247c32.657 16.414 76.947 31.312 119.84 42.213l5.504 420.03-290.49 4.988-82.22-137.44s-2.726-4.468-3.607-6.44c-1.676-3.753-1.148-6.842-.116-10.78 2.49-9.51 10.203-28.194 17.38-41.48 18.718-35.76 45.497-75.083 30.08-108.887-1.763-3.865 14.926-25.263 14.926-25.263 26.277 1.7 47.7-15.756 39.255-56.013 54.407-23.302 99.235-42.253 149.448-80.923zm-829.82 15.777c.742-.04-1.34 9.215 3.4 14.8 2.97 4.403 2.498 4.266-7.27 8.31-3.643 2.053-7.28 5.145-9.323 7.03-13.87 12.793-28.072-3.402-14.686-16.822 10.82-10.052 22.268-12.4 27.692-13.178.078-.09.136-.125.185-.128zm669.447-2.38c4.736.76 10.958 6.945 9.054 10.403-6.475 11.268-6.678 17.273-7.082 28.826-.45 12.897 1.784 14.76-3.167 12.616-3.227-1.444-9.255-3.915-10.65-7.17-3.22-7.502 4.063-45.927 11.846-44.676zm-673.362 43.483c5.228-.177 10.744 1.44 13.903 5.365 2.632 3.27 2.946 6.098.405 7.494-6.04 3.32-26.237 1.978-27.32-2.143-1.67-6.358 5.37-10.457 13.012-10.716zm305.656 3.137c24.64-.307 53.477 4.458 75.895 13.8 31.79 11.393 60.122 41.302 66.623 54.188 1.975 3.915-1.932 3.98-5.303 4.4-37.525 6.838-49.287 53.345-17.17 74.95 10.06 6.06 18.09 5.264 18.09 5.264 8.046-.82-34.41 84.032-50.997 136.736-54.04-1.32-94.708 7.675-147.804-9.62-5.833-9.33-4.825-30.17-.865-40.99 3.63-9.824 8.5-17.438 5.903-28.633-4.525-19.496-22.775-44.687-29.008-60.748-5.44-12.247-5.18-16.853 3.822-24.066 10.607-8.502 13.225-10.292 16.106-14.55 2.683-3.965 1.497-4.848 1.4-13.68-.12-10.715-.347-9.046 8.48-10.767 3.078-.6 10.323-3.05 15.84-6.075 11.442-6.275 19.495-6.2 26.337-2.53 2.962.746 2.63-2.306 3.8-6.376.5-1.774 1.71-4.683 1.596-5.558-.24-1.81-4.13-1.22-8.416-.548-17.185 2.696-30.748 3.452-37.77.968-6.09-2.154-6.173-6.23-2.747-13.05 3.055-6.08 5.283-6.02 3.787-18.565-1.878-15.752.26-19.1 7.535-24.41 9.076-6.61 25.704-9.9 44.87-10.15zm89.28 12.433l80.083-1.324c-7.65 12.81-16.07 32.508-20.72 51.13-.7 1.457-1.533 2.89-3.42 1.057-11.057-15.3-23.627-31.628-55.942-50.864zm-65.465 57.496c-9.566.43-21.463 5.23-36.366 14.103-10.128 6.03-18.42 9.807-29.3 7.985-6.224-1.04-7.006-.144-7.783 1.88-3.503 9.12 10.21 18.615 23.795 12.015 3.95-1.732 34.21-18.06 35.87-19.44 1.81-1.502 14.387-5.436 17.725-5.45 10.1-.042 16.458 7.793 15.376 16.967-1.446 12.258-18.776 13.158-20.1 2.3-1.01-8.36-4.442-4.582-4.696-.454.04 3.515 2.825 11.5 5.75 13.25 14.802 8.908 33.825-9.22 24.27-27.405-5.848-11.13-13.703-16.24-24.545-15.753zm-65.012 43.71c-9.905 2.056-16.305 6.03-27.005 7.097-8.807 2.098-8.035 9.125-2.447 12.698 4.3 2.743 9.612.955 24.915-9.132 15.03-9.907 28.385 9.992 16.403 20.494-7.542 6.61-2.262 8.228 2.91 4.234 13.29-10.26 5.083-39.514-14.778-35.392zm47.887 50.99c-1.166-.063-2.998.39-5.444 1.56-11.298 5.4-19.96 11.04-25.292 18.452-.908 1.605-.354 4.282-.77 6.39-.327 1.658-1.608 3.78-1.357 4.898.22.974 3.452 1.965 3.954 2.872 2.042 3.7.923 13.192-.106 20.067-.493 3.293-5.352 4.388-7.27 6.402-6.307 6.624-4.662 8.59 2.13 5.934 4.744-1.856 2.665-5.117 14.514-3.022 15.35 2.714 27.407-1.642 39.333-8.526 13.245-7.646 18.015-11.843 18.57-10.965.916 1.447.225 2.23-9.175 10.31-23.562 20.25-41.25 25.156-54.773 17.94-4.06-2.662-7.287-3.722-4.154 2.07.4.63 3.69 3.103 5.975 4.09 13.87 5.986 31.044.445 52.722-17.28 4.76-3.89 8.946-8.233 14.444-13 17.974-15.555 13.064-22.458-7.4-14.692-6.452 2.448-8.32-.047-17.15-3.31-11.86-4.384-15.736-4.75-29.302-4.766-11.81-.013-13.557 1.12-13.58-.87-.028-2.528 7.76-11.586 16.62-15.62 8.644-3.937 11.007-8.75 7.5-8.938zm22.338 37.292c2.236 2.186-.893 3.66-9.34 7.843-4.784 2.37-9.185 4.322-9.805 4.32-.734 1.385-9.065-16.59-6.884-17.514.932-.394 20.624.946 26.03 5.352zm-30.934-1.395c2.04 4.074 3.617 8.346 4.454 12.303.198 1.216 1.098 2.966-.826 2.983-1.51.244-4.002.413-4.923-.98-1.976-3-4.283-13.246-3.596-15.255 1.445-2.028 4.07-.667 4.89.95zm70.59 31.4c-.713.022-2.042.572-4.126 1.85-33.55 20.568-74.014 31.662-100.303 22.223-8.868-3.184-10.46-1.983-7.154 3.994 2.293 4.147 6.784 8.98 13.523 10.716 21.443 5.52 55.68-3.598 81.845-21.387 10.65-7.24 19.304-17.468 16.215-17.395zm200.296 50.322s61.92 122.438 73.657 128.05l-487.198 7.177 80.143-118.684c.833 6.512 198.55 30.345 333.397-16.543z" fill="#131f67"/>
            <path d="M-1336.735 1087.2l76.752-117.49c116.73 20.196 221.222 6.778 335.56-15.58l78.502 127.547zm609.793-443.205l-1.644-68.972 24.177 8.537c-8.87-31.947 11.635-65.82 30.787-67.47-62.04-45.215-11.956-95.498-13.027-96.538-67.595-33.483-34.844-87.147-39.57-91.833-82.008-19.823-51.194-85.172-57.257-78.378-47.3 15.08-74.14-24.325-75.477-56.705-40.75 23.996-104.855-7.988-85.553-45.437 0 0 21.96 9.983 25.776 7.832 33.18-24.974 31.13 10.117 38.237 17.615 24.99-4.043 40.093 14.886 46.488 24.097 36.95-.574 35.285-9.4 36.197 26.42 27.954 6.61 27.094 21.68 43.564 41.98 35.1-.194 29.383 11.325 21.76 30.88 25.63 19.722 27.94 35.454 32.413 53.7 27.763 9.548 32.783 13.537 15.155 37.1 24.958 36.113 13.587 57.453 17.32 59.385 30.73 21.41 15.684 29.592 2.56 38.225 5.088 29.04 8.847 33.257-1.37 63.076 35.317 24.196-4.947 36.04-7.015 35.558l.307 24.546zM-1575.16 478.1l-2.118-85.46 299.084 186.334-36.42 59.3zm395.202 119.3l67.52-147.607-27.772-159.323 200.546 1.068c23.382 50.863 37.695 94.202 96.848 178.05l-60.7 20.023 3.82 102.628zm170.81-41.35c-2.114-4.203-3.3-7.077-2.95-8.975.7-2.45 2.573-2.37 4.986-1.098 8.6 3.997 17.168 7.423 23.317-.512 3.077-4.148 2.16-9.974-.566-13.302-4.97-9.707-19.972-2.373-25.05-1.94-4.72.183-6.606-3.757-2.818-9.474 2.273-2.5 3.676-5.238 4.003-8.444 2.283-22.43-35.74-13.836-22.144 7.652 6.15 7.944 2.72 12.835-6.204 7.896-9.82-5.433-23.26.007-22.62 11.766.487 8.908 11.774 14.232 21.106 8.698 2.155-1.278 3.826-2.652 5.358-3.348 4.344-1.976 7.517-.46 6.144 4.496-3.814 6.225-8.267 15.156-4.32 20.9 3.988 8.43 17.248 7.42 21.712 2.06 3.073-3.7 3.857-9.62.045-16.388zM-554.11 99.512L-853.788-87.755l9.982-16.416c13.155-7.626 18.47-16.94 17.806-29.782l7.76-17.88L-555.272 10.84zm-464.647-57.3l32.932 154.644-206.946 6.368c-12.233-51.903-85.277-168.633-85.054-166.572l52.95-136.558 274.68-4.866zm-78.632-56.482c5.163-4.9 4.69-12.218-1.23-20.374-5.732-7.9-3.332-13.707 5.73-8.443 5.03 3.253 12.928 3.817 18.233 2.033 6.726-2.417 9.447-7.868 8.334-14.67-1.346-8.23-10.53-10.342-20.24-6.58-2.81.642-4.496 2.976-6.913 4.115-5.227 2.406-7.43-3.895-2.746-12.183 5.193-9.188-.514-18.857-10.35-19.554-10.514-.745-16.568 11.3-12.18 17.778 6.3 9.302 1.957 15.923-6.962 9.78-12.835-8.84-29.202 2.905-22.12 16.25 3.436 6.475 14.36 8.006 24.052 3.708 8.103-3.593 10.595.346 5.787 8.788-9.88 17.348 7.063 32.176 20.606 19.35zm-302.845-147.37l-.824 82.7c-31.276-18.428-26.68-18.74-27.817-18.436 9.52 24.7-.607 55.584-26.625 71.106 48.07 43.627 23.013 75.266 15.59 96.48 61.053 34.116 31.374 95.288 31.566 92.143 59.63-.65 59.288 51.505 61.366 73.23 73.65-5.848 64.74 53.222 74.546 58.13 35.473-16.587 77.307-11.79 89.17 36.063 7.618 27.135-19.1 1.305-30.53 2.643-40.33 26.05-33.13-12.808-35.513-18.162-33.697 3.76-38.504-12.258-53.478-23.428-36.336 7.617-33.533-4.423-31.75-26.6-28.694-5.32-35.204-23.066-46.89-40.343-39.46 1.925-23.818-26.227-23.758-31.712-4.865-4.2-27.906-26.146-29.443-51.67-40.72-10.785-15.6-31.655-14.262-38.695-15.646-18.852-19.91-32.877-15.175-57.028-36.26-16.233-6.468-32.453-4.078-42.06-12.25-31.163-3.858-40.7.492-57.73-23.605-26.764-9.742-25.487 6.93-42.236 2.096-3.005-4.05-16.54-3.853-24.57zm202.838-309.836l-66.81-115.085 463.485-7.66s-49.285 70.732-68.262 106.224c-115.887-16.334-223.907-5.887-328.414 16.52z" fill="#d40000"/>
            <path d="M-1496.45 1014.375c-40.802-8.563-48.552-59.547-11.1-102.672 3.03-3.486 5.043-8.84 5.043-8.84s-6.978-11.06-25.194-35.424c-3.4-4.534-8.335-11.805-8.335-11.805 9.515-14.23 19.564-26.05 30.227-41.485 1.43-2.084 4.103-4.435 3.692-6.327-.585-2.693-4.59-5.325-9.443-12.224-28.195-40.093-31.496-56.117-17.924-80.462 12.76-22.888 44.095-26.024 63.522-6.358 20.995 21.254 20.364 40.892-5.786 81.276-5.74 8.864-9.856 16.847-9.856 16.847s-.198 2.784 9.713 15.156c13.75 17.163 23.88 31.917 23.88 31.917s-6 7.92-11.685 14.828c-15.237 18.514-22.02 31.216-22.02 31.216s1.117 3.624 3.482 6.216c43.393 47.558 40.952 103.044-7.138 108.553-2.472.283-8.497.014-11.086-.413zm332.43-621.573c-1.147-1.81-149.242 246.958-149.242 246.958l17.554 10.854 141.8-230.042c2.225 1.63 4.406 3.583 4.006 6.357l-136.12 228.916c-.523.848 30.037 18.275 31.052 18.31 44.222-22.7 230.506-6.76 353.862-16.365.493.37-1.18 43.41-1.18 43.41s-28.695-32.104-34.388-32.208c-28.09-.516-57.42 11.93-78.592 10.937-13.44 4.357-28.045 53.84-30.873 66.233-24.623-2.448-47.936 23.656-41.86 47.512 8.474 26.475 22.244 24.242 37.185 24.432-.89 30.146-52.762 110.418-52.338 149.54 56.168-5.376 117.007-7.407 174.732-25.86 0 0 20.755-63.027 47.568-104.786 8.807-15.95 12.767-39.744 8.84-54.63-2.6-16.334 4.388-20.587 10.5-32.152 3.718-7.227 17.9-7.165 19.7-7.72 36.725-11.298 22.752-58.8 6.912-67.026-19.763-10.264-47.18 6.6-58.177-14.695-11.637-22.534-8.767-69.582-8.767-69.582l-278.58 5.935 74.23-151.953c-21.72-11.46-57.556-51.952-57.824-52.376zm-184.095 139.236c1.052-15.15-.59-261.02-234.896-379.386l.7-32.337c1.4-1.688 212.87 91.242 253.006 341.05l63.084-102.57 23.98 8.956c-34.323 53.482-102.222 183.026-105.875 164.287zm-142.517-86.225c9.1-28.542-6.347-13.226-20.678-14.15-9.87-5.162-19.588-11.878-28.772-17.707 67.286-37.09 26.89-34.684-12.24-8.773-10.345-5.393-23.512-17.355-24.312-16.31 75.785-50.545 47.035-51.06-1.394-14.577l.622-32.167c41.05-45.466 2.53-20.495-.33-19.912-11.024-44.504 38.332-35.965 43.4-2.265 8.765 6.296 25.92 13.985 31.393 41.61 23.878 14.656 21.604 27.16 20.806 45.203 9.392 8.978 33.564 27.852 6.036 46.108zm-91.48-202.39l1.162-24.74c3.04-10.128 184.3 114.72 174.093 279.167 2.094-1.187-20.015-11.14-26.402-16.676-1.902-120.855-146.183-243.798-148.853-237.752zM-552.347 365.08c-120.437-52.81-236.106-182.216-244.9-352.868L-862.88 126.41l-24.133-9.752c2.27 1.815 51.855-93.982 103.44-160.482 18.417 215.195 104.56 313.98 233.75 384.637zm-627.28-68.433c-116.057-12.462-286.13-167.39-239.614-381.978 6.74-21.826 120.428 96.596 120.434 96.6.614-5.465 103.052 153.64 100.772 185.1 84.613 22.602 248.623-2.866 248.623-2.866 137.187 28.27 282.54 173.375 234.407 383.804 0 0-36.724-23.26-67.552-50.52-93.72-87.648-124.203-160.438-158.223-240.73-118.282-8.744-228.656 14.275-238.847 10.61zm624.15-188.39c2.194 10.614 1.25 32.69 1.647 32.64-30.228 34.03-33.41 34.693 4.996 23.283-4.25 32.223-27.924 37.895-42.223 27.188-5.27-3.945-5.685-26.097-5.685-26.097-23.5-5.477-31.65-12.384-28.748-37.612-27.008-2.772-26.163-15.913-24.4-43.342-24.77-13.4-19.02-35.48-4.655-45.103l12.278 8.163c-3.835 3.547-1.58 25.34 19.666 8.748 0 0 17.438 14 25.798 19.406-61.576 41.05-23.994 31.628 13.908 4.706 7.275 4.788 17.228 12.65 22.4 16.03-49.907 37.054-65.98 67.612 5.02 11.992zm5.27 136.025l-1.58 28.885C-675.912 200-710.814 101.406-721.693-4.05l24.32 16.79c13.217 136.056 139.488 225.983 147.165 231.54zm-679.125-346.37l294.715-2.987L-1010.3 45.69l42.058 48.056 149.82-245.655-17.982-10.352-143.1 233.338-5.943-6.377 141.025-233.116c-8.778-5.55-25.37-14.402-25.37-14.402l-359.975 9.54c3.29-15.118 3.6-41.816 3.6-41.816 16.464 22.833 34.045 43.174 71.173 19.856 0 0 44.385.765 45.98-1.374 5.278-8.87 14.443-36.634 25.14-67.996 42.744-3.57 38.14-24.192 42.893-31.056-4.28-60.765-37.846-27.452-35.277-49.61 8.988-39.558 56.787-129.564 50.435-137.28-12.856-8.228-138.484 18.678-175.1 23.802-3.418-1.25-20.35 57.585-38.827 82.925-20.098 27.565-26.94 56.884-15.994 84.247-10.375 30.453-31.256 27.694-47.853 36.543-18.64 20.878-12.888 52.277 5.405 64.157 12.74 8.273 32.07 7.512 51.515-8.82zm582.1-221.108l-35.245-45.743 32.62-49.263c-13.537-20.703-35.823-52.358-32.34-77.8 7.684-50.46 75.674-44.2 82.377 3.84 3.582 22.287-12.246 49.955-28.397 73.545 11.24 19.722 15.994 22.89 32.24 45.442-9.158 16.802-31.576 49.758-31.576 49.758 14.714 23.854 35.07 50.075 34.034 74.605-1.166 21.07-23.743 42.773-45.22 38.644-66.78-12.837-30.787-84.625-8.493-113.028z" fill="#e2cf00"/>
            <path d="M-1693.235-686.57l.368 22.247 21.997-.364 1.826 66.98c.92 44.195 2.19 66.1-.45 78.737-7.26 29.156-50.063 30.003-58.917 9.287-5.156-12.063-3.97-21.51-4.433-33.713l-23.653.39.382 13.652c.67 32.656 11.944 48.047 37.8 53.79 26.6 6.58 57.35-4.625 68-27.034 6.36-12.772 5.59-13.597 4.48-90.15l-.29-72.35 20.247-.335-.368-22.247zm417.938 94.888c18.84 34.03 72.276 125.792 72.276 125.792 123.004-27.64 226.7-35.87 336.162-13.776l75.974-119.46zm16.207 6.702l22.3-.37 45.264 89.358 75.27-16.34-14.11-74.6 21.374-.228 12 71.75 110.907-4.646 13.226-69.666 20.47-.088-13.52 70.796 88.06 10.4 41.628-83.356 29.527-.488-63.68 103.13c-116.66-20.742-232.05-11.22-328.342 14.178zm42.088-.696l65.147-1.077 16.628 60.546c-7.93 4.31-37.686 11.943-47.698 11.102-12.283-20.71-25.113-50.742-34.077-70.572zm125.64-2.076l99.143-1.64-7.612 51.914-83.1 4.03zm157.166-2.597l76.396-1.263-29.113 63.365-57.747-6.9zm-488.142 23.82c-14.785 33.24-35.846 65.78-53.554 89.866-52.49 71.02-63.682 91.172-73.6 132.64-15.527 64.91 42.545 116.19 91.59 80.247 11.553-8.467 24.12-31.49 24.008-41.34-.08-7.084 4.703-10.988 8.697-7.082.804.787 1.057 3.954.9 8.486-2.265 29.335-13.227 77.153-35.48 107.413l90.894-1.502c-28.114-36.027-37.923-72.643-37.996-107.23-.174-14.862 8.644-13.546 10.872 1.633 10.93 74.442 106.902 58.844 110.16-15.854 1.997-39.063-23.322-80.232-56.18-125.776-26.807-37.158-59.33-77.222-80.3-121.502zm780.048 34.302c-4.468.05-8.582.505-12.354 1.36-19.748 4.478-29.882 19.878-29.64 44.746.113 11.397 8.843 31.404 21.927 50.238 6.38 9.185 10.668 17.67 10.668 17.67l-32.438 49.418 36.134 45.628s-5.402 6.553-8.597 11.237c-15.843 23.214-22.99 44.788-21.66 62.366 1.435 18.986 12.756 33.306 33.633 39.918 11.457 3.63 27.622-1.307 38.38-11.386 8.68-8.133 12.945-18.588 12.93-30.78-.02-17.418-8.778-38.375-25.92-61.11-4.654-6.172-6.965-11.043-6.965-11.043s22.906-33.8 31.504-49.215l-32.82-45.526c24.858-38.725 29.855-47.3 30.177-70.852-1.54-23.31-18.795-42.96-44.96-42.67zm-3.14 2.865c1.1-.036 2.212-.028 3.314.04 29.147 1.762 44.877 23.143 41.473 50.978-3.515 26.548-26.977 51.62-30.666 60.202 11.788 18.468 33.867 44.634 33.867 44.634-8.908 16.847-32.09 49.6-32.09 49.6s1.412 2.654 2.954 4.764c25.344 34.682 32.43 51.154 31.073 72.215-1.07 16.614-13.922 31.634-30.21 34.9-25.798 5.2-47.33-12.824-50.347-37.58-1.95-21.68 11.693-43.015 22.3-59.658 4.494-6.974 8.338-13.64 8.338-13.64l-36-45.692s2.46-4.02 4.05-6.412c6.048-9.096 13.88-20.365 17.89-25.768 7.254-9.77 11.54-16.505 11.54-16.505l-10.39-15.987c-19.833-30.214-25.484-45.773-22.79-62.694 3.313-20.816 19.202-32.86 35.703-33.407zm2.883 15.61c-10.752.464-20.894 8.566-24.796 20.1-5.555 21.602 17.614 53.786 28.066 62.357 18.935-22.513 30.817-47.614 23.4-64.927-4.866-10.463-15.92-17.994-26.668-17.53zm2.77 6.924c19.5.08 27.177 23.102 12.573 49.674-5.045 9.07-12.538 18.585-12.538 18.585s-7.3-8.783-11.694-15.434c-17.873-26.984-13.733-48.35 7.602-52.508 1.402-.204 2.758-.322 4.058-.317zm-387.717 18.44c-51.02 1.113-119.06 10.74-178.762 25.332-4.67 32.23-20.273 64.735-37.445 90.63-16.49 27.963-22.214 52.17-16.275 68.59 5.562 15.374-8.54 38.695-24.43 40.41-19.746 2.13-32.106 16.108-31.54 35.714-.043 31.427 21.957 50.33 51.217 39.16 2.952-.42 4.963 1.48 4.963 1.48l1.253 179.848C-1275.034-4.348-1286.037-.56-1300 7.152l-6.042-6.276-9.35-9.847c-1.828-1.975-5.128-4.717-7.32-6.067s-5.182-4.293-6.64-6.547c-3.562-5.507-18.53-19.422-26.663-24.782-1.385-.913-4.906-3.8-7.826-6.403l-5.33-4.725-.956-59.71-1.75-60.48c-.438-.427-7.118 2.552-14.86 6.62-26.627 12.182-51.987 28.796-71.437 42.25-8.615 5.977-9.434 9.236-5.918 23.945 1.974 8.253 1.535 9.15-5.258 10.932-13.99 3.67-18.012 26.117-6 33.5 5.63 3.467 5.657 3.654 2.195 11.81-5.352 12.614-4.745 36.56 1.174 46.456 3.38 5.65 3.188 7.496-1.1 10.395-14.8 9.984-13.44 30.802 2.257 34.436 4.014.93 5.086 2.625 3.82 6.063-4.678 12.697.09 31.794 11.545 46.128 5.952 7.45 5.935 7.367 2.15 10.903-12.403 11.584-5.244 31.855 11.935 33.807 5.895.67 5.924.682 6.68 5.172 2.18 12.903 3.132 16.498 6.092 22.527 3.732 7.6 8.15 12.703 16.377 18.888 6.71 5.045 6.716 5.118 3.306 12.79-6.304 14.186 4.32 27.975 20.89 27.127 8.445-.432 8.45-.455 9.106 2.537 3.223 14.647 20.97 31.598 35.343 33.733 7.4 1.098 8.58 2.83 6.183 9.118-3.86 10.12-1.146 16.557 9.108 21.602 6.875 3.385 8.87 3.48 16.297.793 8.4-3.04 8.5-2.998 15.828 6.49 10.344 13.373 17.11 16.662 33.996 16.503 11.136-.104 11.558.176 11.76 8.026.477 18.584 20.263 26.007 32.707 12.274 4.487-4.952 4.476-4.93 8.593-2.017 18.034 12.76 33.894 15.874 32.222 3.687-3.915-28.53-24.882-45.626-24.882-45.626l25.952 6.322c1.633 30.163 3.31 66.538 10.015 91.597l-112.14 185.347s-7.055-4.154-14.496-9.105c-10.95-7.29-24.353-15.853-32.567-20.808-4.205-2.54-9.568-5.63-13.808-9.085-4.065-3.274 2.348-7.8 3.657-11.343 25.738-47.79 66.3-105.397 95.6-161.227l-29.433-10.828-58.092 97.036c-23.26-151.854-131.687-283.71-261.12-337.856l1.096 39.83c136.044 66.78 234.68 207.61 234.896 375.638-.517.64-11.4-5.628-26.096-15.07l-25.295-15.772c3.167-186.137-183.147-293.088-183.376-287.884l-1.106 35.21c79.488 51.375 142.837 146.183 150.5 231.357.082.696-37.282-22.45-37.282-22.45 21.822-11.317 15.294-39.6-.683-47.026-4.996-2.144-5.306-3.215-2.946-9.953 4.842-13.828-4.797-34.36-17.655-37.62-5.637-1.43-6.59-2.886-6.99-10.76-.74-14.402-8.865-23.693-23.287-26.62-3.98-.808-4.017-.842-4.315-5.804-1.672-27.895-29.16-38.813-49.33-19.594-2.254 2.148-4.586 6.202-4.586 6.202l.344 30.28c6.93-3.964 17.327-17.295 21.694-16.83 4.824.483 2.543 3.76-8.125 13.292-6.92 6.184-13.636 12.696-13.636 12.696l1.096 39.862c11.54-7.766 23.078-16.52 33.884-24.313 9.313-6.727 14.1-8.944 15.292-7.066 1.336 2.11-.72 4.932-6.02 8.226-14.203 9.804-30.728 21.307-42.65 30.96l.423 27.466 2.368 3.368 1.085 24.048-2.147.567.532 30.308 286.738 176.567 140.622-230.168 2.414 2.367-140.67 229.2s6.024 5.01 11.694 7.87c5.785 3.115 13.02 7.273 19.22 11.246 2.968 4.688 8.097 8.776 13.51 8.1 4.88-5.508 26.478-11.607 28.52-14.144 80.762-2.524 312.682-4.778 312.682-4.778l1.925 37.067c-11.016-35.792-44.755-42.655-70.9-26.113l-43.4.78c-.335.006-24.92 46.616-28.24 70.79-18.28-2.178-42.26 16-43.193 34.062-2.53 25.72 14.646 44.16 36.637 40.15.404.154-3.04 25.494-15.19 45.445-15.972 35.127-24.182 54.765-33.793 84.664-6.53 18.797-4.14 22.076-2.972 22.52 64.73-2.006 124.194-9.26 185.31-30.098l-1.8-6.815c-2.384-9.912 5.642-30.412 28.58-72.857 17.715-32.784 22.738-45.267 24.314-60.63.8-7.776.596-9.782-2.338-24.215-.192-1.344-1.278-3.273-1.016-4.734 1.753-9.78 16.305-27.158 16.654-26.748 0 0 5.368-1.09 7.51-1.312 33.436-2.902 43.054-48.57 14.462-68.623-13.906-8.208-22.024-8.71-36.55-4.647l-3.166-176.44 20.36.428 22.183-11.414c36.44 30.092 60.395 61.07 99.465 84.055l-.6 1.573-29.072-19.24 1.974 115.608c32.99-17.87 63.744-34.356 93.255-59.08l-6.117-5.118-.023-16.533c28.145 1.753 30.26-34.076 7.092-37.966 0 0 .484-2.89 2.627-7.482 6.847-14.658 7.503-28.378 2.095-43.416-3.302-9.177-3.203-11.498.528-11.542 17.074-.19 15.006-30.463-2.515-36.807-6.03-2.184-5.575-.293-4.66-19.113.687-14.135-2.914-23.655-13.563-35.875-4.02-4.61-3.722-6.87 1.303-10.054 14.427-9.14 3.442-34.654-14.464-33.61-6.994.41-6.982.4-7.704-6.592-1.896-18.38-12.468-35.763-26.056-42.888-4.2-2.207-4.854-4.06-2.557-7.24 11.216-15.528.145-36.322-15.934-29.928-3.115 1.24-6.41 2.485-7.3 2.777-1.272.417-2.333-1.353-4.92-8.264-7.042-18.816-13.113-24.653-34.68-33.306-4.24-1.702-4.51-2.945-2.755-11.612 3.035-14.962-17.726-28.498-28.656-18.685-4.45 3.997-4.603 3.965-9.792-2.464-10.322-11.487-26.937-19.336-41.628-20.627-7.024-.515-8.092-1.044-7.563-3.75 3.6-18.33-14.375-29.936-28.97-18.71-7.008 5.39-8.84 5.58-16.194 1.612-15.455-8.34-22.173-8.552-23.64-.766-.385 6.472 1.168 14.097 2.812 18.83 3.94 12.77 8.844 17.452 19.562 26.305l-22.06-5.386c.428-.466-2.28-60.87-14.35-94.9l109.19-180.33 64.94 41.308L-891.42 118.3l30.103 11.66 59.202-99.867c16.356 161.308 143.574 300.89 257.4 341.043-.38.197-.02-23.23.273-34.572C-664.668 285.98-780.616 141-776.38-35.35l48.438 29.89c16.248 141.027 79.147 222.787 182.866 291.08l-.715-43.275C-617.285 191.24-677.106 123.93-694.475 14.928l35.052 21.736s-3 1.78-4.543 3.107c-12.638 10.878-8.424 32.694 8.68 44.8 2.777 1.967 2.804 1.97.335 8.902-4.9 13.755 3.275 30.146 16.68 33.385 7.7 1.858 7.642 1.765 7.925 10.527.553 17.014 7.54 24.744 25.787 28.515 2.494.514 2.585.77 2.67 8.395.21 18.813 18.492 31.167 34.104 23.033 4.888-2.547 20.18-15.773 20.18-15.773l-.5-30.277s-6.926 5.858-11.92 10.667c-8.744 8.42-11.526 9.494-11.584 4.442-.04-3.665 3.966-8.54 12.38-15.02 4.364-3.36 10.953-10.495 10.953-10.495l-.583-35.276s-4.066-6.217-3.947-13.75c.065-4.097 1.11-10.332 1.11-10.332l4.25.023-.737-40.837-5.222-3.945-.23-27.062-283.557-176.9-142.295 234.82-3.727-4.22 142.476-233.355-39.28-24.198-23.275 11.95-320.777 4.77s-.45-4.363-.59-16.71c-.172-15.52.508-17.708 3.47-11.215 6.65 14.57 22.705 23.157 41.15 22.01 10.417-.648 11.86-1.097 23.347-7.543 4.27-2.396 5.052-2.48 25.366-2.67 21.778-.204 25.68-1.066 25.628-5.674 7.297-17.37 14.43-37.505 18.508-52.626 1.964-7.327 2.84-10.56 4.52-12.076 1.304-1.176 2.35-.933 5.512-1.185 13.92-1.127 17.78-2.1 27.648-12.052 19.784-20.547 7.567-61.475-21.576-61.152-7.718.086-2.778-20.54 12.982-54.128 16.304-34.75 18.583-40.077 26.926-63.33 5.453-15.198 7.998-26.072 8.586-32.678l-4.906.08zm-1.366 9.993c4.09 3.32-5.58 28.382-23.125 66.36-14.482 31.35-20.935 47.017-23.945 58.34l-2.765 10.453c-.926 3.493-2.188 5.23-5.59 7.75-2.42 1.79-5.788 4.425-7.498 5.843-4.848 4.022-6.034 2.79-4.96-5.17 1.99-14.768 7.567-30.755 20.596-58.63 10.324-22.183 20.4-45.942 28.126-70.13 1.735-5.648 2.49-11.368 5.496-13.5 4.328-2.523 8.96-2.116 13.668-1.32zm-21.848 1.8c2.812 1.878-9.813 36.193-31.868 83.913-27.52 59.543-28.346 100.95-2.547 110.65 20.34 7.648 40.323-14.955 27.585-30.99-6.125-7.7-19.06-8.155-23.41.012-2.372 4.456 1.105 9.5 5.335 3.225 6.154-9.117 18.947 1.08 16.072 11.8-1.97 7.35-12.118 13.407-18.488 12.245-28.09-5.126-23.468-44.696 5.53-47.348 27.75-2.538 41 34.563 21.182 56.25-6.283 7.02-13.718 10.59-26.763 10.787-18.087.275-35.235-14.384-33.753-28.26 2.18-12.715 2.376-22.962-2.075-32.876-1.43-3.184-3.166-6.345-3.14-10.387.07-11.23 9.027-28.812 28.936-72.207 7.133-15.55 15.758-42.44 19.96-59.4 1.5-4.964.697-6.338 2.542-7.053 4.595-1.09 11.157-2.587 14.9-.362zm-23.83.988c4.234.113-4.992 31.337-16.825 58.005-8.983 20.418-21.268 46.658-30.333 70.886-2.944 5.154-4.958 5.584-11.212 2.373-6.89-3.538-4.966-9.38 10.625-41.713 11.753-24.554 22.978-52.297 30.71-80.175.685-3.344 1.76-6.245 4.495-7.888 4.177-1.908 8.284-1.605 12.54-1.49zm-22.627 3.874c2.306 2.946-11.777 45.067-33.848 92.666-4.716 10.106-7.866 19.325-12.605 29.65-2.32 2.412-11.39 3.768-15.923 4.764-4.702-.548-.4-9.425 12.52-36.68 10.532-22.218 13.525-28.505 19.027-42.008 4.008-9.886 9.802-26.852 15.234-42.695.437-1.278.83-4.112 2.046-4.784 4.212-1.86 9.367-2.674 13.55-.912zm-22.266 2.993c.387 1-.42 3.094-.704 4.7-3.315 16.91-11.27 32.736-17.006 48.944-.68 2.208-7.033 16.03-14.12 30.706s-13.577 28.686-14.425 31.15l-5.167 14.525c-12.685 28.428 1.824 50.43 19.267 51.697 27.202 1.8 29.138-36.327 9.9-39.673-7.25-1.095-15.13 3-15.037 11.314-.436 4.356 4.993 9.31 4.813 3.07-.473-11.343 15.39-11.082 17.503-1.477 4.116 18.72-17.076 28.253-30.036 13.717-5.338-5.988-5.407-12.916-4.536-19.146 2.36-16.852 21.532-29.33 39.694-16.94 24.85 16.954 17.007 55.48-14.63 62.25-10.803 3.005-24.54-.384-33.248-9.046-5.544-5.516-9.263-13.72-10.804-23.95-.86-5.695-1.27-12.407-.497-18.713 2.246-19.75 16.147-48.77 28.354-73.354 9.4-20.385 16.605-47.224 25.116-68.862 2.47-1.873 15.878-3.79 15.55-.913zm-23.92 3.083c1.452.422-5.582 23.895-15.75 49.298-11.225 25.783-25.86 55.312-34.016 80.636-2.596 6.223-4.566 6.072-12.36-.952-4.114-3.707-1.927-9.37 11.8-38.607 21.118-44.976 28.915-64.142 32.018-74.82 1.458-5.02 2.595-11.165 5.846-13.16 4.166-2.054 8.273-3.582 12.462-2.394zm-21.748 5.954c-2.188 7.55-9.394 29.935-21.913 56.526-7.852 16.784-15.485 35.358-23.227 52.672-4.304 10.677-4.434 10.668-12.047 12.388-12.832 2.9-12.836 2.757-1.84-20.504 3.268-6.912 9.56-19.612 14.005-28.204 8.19-15.835 20.744-46.6 25.23-61.925 1.2-4.1 2.903-7.96 4.928-10.083 1.31-.726 11.4-3.92 14.863-.87zm-28.106 3.277c2.3-.12 4.377.257 5.37 1.505.66 5.23-12.94 38.97-21.38 54.642-2.577 4.805-5.11 11.02-8.01 16.572-10.79 17.816-23.554 51.924-26.756 66.045-5.088 22.434 20.73 38.904 33.707 22.44 8.243-9.972-.797-27.52-12.828-22.38-4.202 1.795-2.443 3.656 3.342 4.045 9.55.643 10.516 15.335.463 18.733-11.176 3.625-19.615-5.982-19.738-15.96-.252-20.46 22.004-28.346 36.196-17.4 14.167 11.406 16.85 39.032-4.14 50.103-20.462 10.792-46.106-2.955-51.62-27.65-4.208-18.848-.273-36.248 17.448-65.704 10.183-16.955 25.954-46.195 33.85-71.757 1.56-4.336 2.938-7.93 4.402-9.762 1.36-1.628 5.86-3.27 9.694-3.473zm-497.19 13.343s-7.97 15.918-19.017 35.038c-13.473 23.643-33.5 47.096-36.075 73.325-.685 7.47.674 14.93 2.26 19.497 6.653 19.16 34.29 21.61 43.655 5.217 2.81-4.924 3.773-5.842 6.616-4.36 1.22.636 1.76 2.522 1.742 5.19-2.11 17.325-8.613 26.935-17.965 40.084l46.025-.76c-9.866-10.507-18.33-25.087-19.57-39.963-.398-6.096 3.316-6.67 9-.086 18.363 24.517 46.126-3.827 43.436-26.94-2.994-25.722-30.486-58.6-38.125-71.567-11.498-16.423-21.982-34.673-21.982-34.673zm1051.38 37.038l-27.132 35.703c8.186 11.42 27.563 33.83 27.563 33.83l25.717-34.367zm.576 19.712l11.713 14.683-12.867 15.715-12.55-14.263zm2.297 76.597s-32.9 37.27-24.752 64.387c7.28 24.157 43.884 29.453 52.186-6.207.58-2.838.022-6.653-.438-11.4-1-14.45-26.995-46.78-26.995-46.78zm.12 7.25s9.852 13.792 16.84 26.038c7.785 11.63 10.32 44.45-16.652 43.875-14.586 1.748-28.85-17.28-17.618-41.027 3.044-7.225 17.43-28.886 17.43-28.886zm-552.952 15.046c1.858-.32 3.795 3.67 5.016 6.574 1.663 3.948-2.7 15.473-7.43 21.25-.9.974-7.047 1.604-16.115 6.423-.096-4.286 2.366-13.724 4.017-17.913 6.133-6.267 11.305-13.695 13.74-15.917.258-.237.51-.373.774-.42zm-66.738 3.166c4.193 4.594 8.307 8.572 8.2 11.46-.173 4.226-5.054 9.528-8.75 13.303-4.64 4.737-14.092 2.12-14.16-3.923-.025-2.234 13.104-20.822 14.72-20.84zm141.925 3.718c4.015 2.067 8.165 9.262 8.74 12.545-5.314 31.496-26.26 70.227-25.555 68.775 0 0-13.19 2.576-18.85-.19 14.203-20.417 23.51-46.248 29.766-67.376 2.683-9.112 3.898-13.696 5.9-13.756zm-12.176 4.608c2.222-.165 3.11 1.617 1.327 6.5-7.967 34.864-26.568 71.68-41.55 78.572-19.678 9.054-39.504 2.134-48.215-12.642-9.43-15.994-8.223-41.508 22.217-47.592 17.93-2.138 36.565 11.717 27.358 34.646-10.388 17.067-39.214 8.127-31.17-13.8 6.218-8.09 19.635-1.384 15.442 7.715-2.128 4.615.05 7.394 3.257 4.166 10.287-10.352-7.2-27.534-18.654-18.6-18.682 14.57 5.197 45.525 26.997 31.714 6.644-4.21 18.4-27.4 22.68-44.225 1.842-7.242 3.496-14.12 8.07-18.573 4.35-4.238 9.4-7.68 12.246-7.89zm-50.127 2.204c1.08.024 2.36.54 4.117 1.37 2.225 1.05 4.85 2.99 4.592 5.55-.298 2.963-1.878 9.415-5.23 12.588-2.062-.668-7.754-2.834-11.627-3.808-2.432-.612.705-5.878 2.136-8.787 2.3-4.686 3.594-6.657 5.543-6.874.146-.016.314-.042.468-.04zm-62.378 2.22c2.85-.1 7.415 2.984 10.4 3.36.645 4.3-4.688 13.62-13.438 24.663-7.177 9.058-7.14 9.074-12.17-.674-3.276-6.348-3.357-6.17 5.492-17.562 4.756-6.124 7.053-8.93 9.153-9.715.174-.037.372-.065.56-.072zm28.392 2.687c.172 2.302-.92 7.404-1.86 10.376-9.627 30.418-32.79 60.78-52.188 68.465-25.338 8.747-48.9-4.287-49.995-35.2.044-36.46 43.27-47.278 56.93-14.255 6.167 14.9-9.59 37.74-23.594 34.207-14.133-3.565-20.37-25.425-8.858-31.045 7.544-3.683 15.508 2.15 13.984 10.24-.53 2.805-.364 3.187 1.266 2.854 7.207-1.47 3.152-15.932-5.447-19.413-16.246-6.578-28.076 15.354-16.92 31.378 13.353 19.183 33.8 15.126 45.2-8.998 1.942-4.106 5.672-10.015 8.253-13.107 7.013-8.393 9.237-11.684 15.377-22.726 3.383-6.082 5.186-9.923 6.93-11.93 2.827-.24 4.78.514 10.925-.837zm57.175.65c3.057-.027 5.444 1.92 5.446 6.16 0 3.546-4.826 18.57-7.134 22.183-.887 1.387-2.927 6.224-3.26 5.18-3.143-9.892-8.52-12.877-9.32-15.473-.938-3.044 1.702-6.024 2.855-8.798 2.45-5.897 7.48-9.218 11.41-9.252zm53.946 3.828c3.694-.092 8.95 1.517 10.07 4.24 3.47 5.862-18.437 61.334-19.267 61.514l-17.04-.468c9.864-22.137 18.546-44.057 24.77-65.137a9.21 9.21 0 0 1 1.467-.149zm229.9 83.43l21.866 12.515-138.982 229.172-21.01-15.53zm-356.03 10.572l316.93-4.988-7.506 14.845-309.205 3.36zm-179.822 12.254l.95 74.557s-1.008-.42-13.864-8.678c-15.427-9.908-32.35-20.1-37.787-22.754-8.013-3.91-7.006-5.877 8.114-15.855l42.586-27.27zm570.95-2.03l13.544 8.246L-966.44 89.308l-8.613-16.235zm-390.767 9.77l20.872-.345.4 23.59-20.872.345zm47.806-.8l25.34-.42.4 23.59-25.34.42zm55.372-.665l26.06-.43.4 23.59-26.06.43zm54.338-.804l26.34-.435.4 23.59-26.34.435zm54.745-.748l25.996-.43.4 23.59-25.996.43zm54.782-.405l26.6-.44.275 16.623-3.915 7.034-22.56.373zm143.45 5.318l257.09 160.367.22 22.718-267.636-166.756zm-16.367 19.523l2.213 1.526-10.507 16.676-2.24-1.213zm-392.906 8.93l285.524-4.72-8.354 14.61-276.938 4.17zm-234.284 11.248c1.92-.155 5.695 1.477 11.578 4.653 14.17 7.646 23.28 24.117 17.314 30.218-5.308 5.427-18.135-5.8-26.242-22.007-4.3-8.59-5.456-12.638-2.65-12.864zm505.448 5.9l-89.68 148.752c-21.295-28.194-45.045-52.465-95.746-34.923-26.915-20.1-55.067-22.816-84.686-4.883l-1.374-103.96zm-474.184 7.9l7.29 6.1c-2.054 4.1-2.932 9.973-4.218 15.228-.227-7.173-.97-14.303-3.072-21.327zm583.977-8.12l286.89 182.034.286 17.3L-852.2-88.104zm-621.532 14.523c3.67-.13 7.287 1.378 10.046 4.585 4.378 5.088 2.766 14.573-3.19 18.712-11.862 8.242-26.515-7.09-17.174-17.97 2.927-3.41 6.65-5.196 10.32-5.328zm47.03 1.442l15.703 12.148c-24.366 153.86 55.044 307.467 221.333 351.14l2.2 19.623c.328.932-70.668-19.816-101.902-42.384-42.652-27.837-78.953-67.43-104.3-113.76-17.262-29.86-27.01-62.894-33.392-89.617-7.785-45.898-8.338-91.45.36-137.15zm-17.247 21.1c5.944.145 6.66 4.415 2.023 12.718-5.96 10.677-15.038 18.19-29.846 24.715-8.157 3.594-10.326 2.06-9.52-6.72 1.212-13.198 10.218-22.992 26.004-28.34 3.792-1.12 7.625-2.336 11.337-2.375zm45.646.902l6.242 5.116c-5.056 1.827-8.64 6.686-8.547 12.362a12.94 12.94 0 0 0 13.15 12.722c6.403-.106 11.606-4.833 12.54-10.96l6.274 5.2c-2.86 7.575-10.108 13.013-18.69 13.154-11.226.186-20.492-8.78-20.677-20.005-.123-7.442 3.798-13.965 9.7-17.6zm10.51 10.015c.705-.012 1.388.102 2.036.28l4.563 3.77c.466.937.75 1.966.77 3.08.066 4.002-3.127 7.303-7.13 7.37s-7.303-3.127-7.37-7.13 3.127-7.303 7.13-7.37zm-48.76 5.494c-1.357 19.812-.487 40.5.48 61.188-4.1-16.347-12.815-28.486-27.14-36.65 9.684-6.93 19.798-15.333 26.66-24.538zm74.84 14.297l13.976 11.677c-9.165 162.595 134.176 221.87 137.952 219.094l6.303 18.273c-98.827-31.822-168.442-132.28-158.23-249.044zm799.17 376.234l-.38 20.464c-112.234-41.43-241.97-198.978-242.88-351.972-27.906 44.37-43.514 73.933-67.44 113.88l-19.72-8.992 92.618-147.87c3.584-5.38 6.557-7.867 6.915 3.758.848 52.632 20.752 268.89 230.887 370.732zm-912.976-361.664c3.582-.288 8.742 1.364 15.282 5.592 10.314 6.668 22.103 27.61 18.225 32.39-3.488 4.3-18.692-.496-26.33-8.316-15.133-15.497-16.333-28.93-7.18-29.667zm86.992.688c11.224-.186 20.49 8.748 20.677 19.974s-8.78 20.492-20.005 20.677-20.492-8.78-20.677-20.005 8.78-20.46 20.005-20.646zm45.557 1.185l13.537 15.34c4.848 136.257 113.125 176.507 112.125 176.86l3.492 14.6c-5.983.94-134.047-54.824-129.154-206.8zm-45.435 6.19a12.94 12.94 0 0 0-12.722 13.15 12.94 12.94 0 0 0 13.15 12.722 12.94 12.94 0 0 0 12.722-13.15 12.94 12.94 0 0 0-13.15-12.722zm.094 5.687c4-.066 7.303 3.127 7.37 7.13s-3.13 7.303-7.13 7.37-7.303-3.127-7.37-7.13 3.127-7.303 7.13-7.37zm68.945 11.206c1.634-.018 9.496 11 9.496 11s-8.38 3.095-12.073-.52c-3.67-3.59-1.837-10.433 2.577-10.482zm589.16-4.705l20.16 13.294c10.827 91.8 64.888 174.813 145.286 231.693l-.123 22.786C-653.058 203.51-708.244 115.57-720.546-.487zm-746.872 13.906c.324-.025.653-.016.97-.016 12.2.003 17.674 18.653 4.714 24.238-8.148 3.512-17.15-1.217-18.16-9.545-.71-5.864 3.553-12.224 9.456-14.064 1.044-.326 2.048-.538 3.022-.613zm166.555 9.53c3.197-.043 6.702 1.735 10.06 5.397 8.906 9.717 8.872 12.582-.3 16.476-12.885 5.477-23.79-1.657-19.653-12.865 2.172-5.886 5.773-8.947 9.884-9.008zm-132.818 2.664c1.053-.04 2.037.083 2.945.42 9.626 3.57-10.477 41.892-24.12 45.967-8.667 2.6-10.547-.778-7.922-14.152 2.92-14.866 18.915-31.856 29.096-32.235zm61.006-.133c11.226-.186 20.49 8.747 20.677 19.974s-8.78 20.492-20.005 20.677-20.492-8.78-20.677-20.005 8.78-20.46 20.005-20.646zm.122 7.374a12.94 12.94 0 0 0-12.722 13.15 12.94 12.94 0 0 0 13.15 12.722 12.94 12.94 0 0 0 12.722-13.15 12.94 12.94 0 0 0-13.15-12.722zm-50.82 1.934c2.117 18.778 5.462 36.13 14.198 59.148-8.04-12.396-19.315-18.433-30.142-25.35 7.323-11.3 15.826-22.62 15.944-33.8zm50.913 3.753c4.002-.066 7.303 3.127 7.37 7.13s-3.127 7.303-7.13 7.37-7.303-3.127-7.37-7.13 3.13-7.303 7.13-7.37zm115.146.316c21.202-.806 36.5 16.412 35.834 33.162.942 19.424 1.848 31.86.645 56.028l-17.737-31.242c-.392-8.93 1.018-15.72.187-24.6-2.348-23.877-25.724-20.17-26.797-17.778l-7.604-11.907c5.4-2.33 10.58-3.476 15.473-3.662zm74.748 1.17c19.873-.35 31.573 10.653 32.51 30.56 1.793 38.115 1.194 125.216 1.194 125.216l-42.994.742-24.427-57.792s-1.024-5.58-.91-9.643c1.185-18.683-.093-39.434.257-56.293 2.18-17.904 16.624-32.478 34.37-32.79zm-99.387 7.675c2.765-.08 5.344.72 7.326 2.66 10.143 9.92 10.193 16.533.164 21.25-13.267 6.238-20.23 5.213-24.94-3.65-4.617-8.7 7.575-19.972 17.45-20.26zm626.835-7.61l11.02 6.85s-2.233 3.624-3.436 5.776c-6.016 10.754 4.61 16.83 19.1 10.936 2.614-1.064 4.834-2.55 4.834-2.55l9.1 5.975s-6.43 3.612-13.445 7.192c-18.04 9.2-31.177 5.64-35.82-9.69-1.844-6.085-.228-13.77 3.104-18.304 1.704-2.32 5.555-6.186 5.555-6.186zm-461.166 8.903c16.63-.842 33.04 11.9 37.177 29.296 1.73 8.155 1.454 116.367 1.454 116.367l-66.023 1.06-.72-113.504c-.554-7.168-.236-14.277 3.523-19.436 7.108-9.157 15.877-13.342 24.588-13.783zm-68.47 6.1c-13.326.834-20.54 22.56-6.65 32.52 5.8 4.16 5.933 4.96 3.102 19.39-3.228 16.463.766 38.877 9.163 51.387 6.452 10.368 5.08 5.037 1.71-4.248-4.42-17.44-2.61-30.335 7.16-50.844 8.748-17.285 17.06-43.78-11.733-48.063-.938-.14-1.864-.198-2.753-.142zm548.007-4.12l6.035 3.932s-.88.76-2.154 2.036c-2.348 2.352-7.09 2.798-8.578 1.048-2.462-2.9 4.697-7.016 4.697-7.016zm-475.484 16.234c-14.34-.244-23.34 26.495-4.9 32.617 4.21 2.62 4.967 6.13 2.466 11.148-3.362 6.74-6.574 22.67-5.923 29.29.935 9.502 3.57 21.882 5.558 26.162 5.008 11.8 3.966 7.07 2.484-6.636-.736-15.33 2.173-26.445 10.85-41.247 10.307-17.75 24.428-46.573-9.13-51.23-.473-.066-.946-.094-1.408-.102zm-246.6 4.17c11.226-.186 20.49 8.747 20.677 19.974s-8.78 20.492-20.005 20.677-20.492-8.78-20.677-20.005 8.78-20.46 20.005-20.646zm94.302.504c3.508-.092 6.186 2.197 9.46 6.907 8.997 12.95 8.033 15.648-8.74 25.242-17.774 10.163-30.18-14.453-13.216-26.223 5.13-3.558 8.773-5.545 11.78-5.883.242-.027.486-.037.718-.043zm-186.146 4.045c18.923-.118 48.923 26.402 34.572 30.558-2.05.594-4.634 1.02-5.735.97-23.79-1.058-51.532-31.385-28.837-31.528zm91.966 2.824a12.94 12.94 0 0 0-12.722 13.15 12.94 12.94 0 0 0 13.15 12.722 12.94 12.94 0 0 0 12.722-13.15 12.94 12.94 0 0 0-13.149-12.722zm749.336-8.57l9.542 6.25s-5.725 2.748-12.457 6.488c-18.3 10.16-23.527 17.48-17.046 23.816 2.314 2.263 5.023 3.22 9.836 1.306 12.708-5.178 24.494-14.122 36.3-21.228l7.173 4.757c-.168-.323-27.878 20.408-43.055 29.184-23.84 12.743-37.993-12.27-24.895-29.343 10.15-10.432 21.15-13.98 34.59-21.23zm-749.242 14.258c4.002-.066 7.303 3.127 7.37 7.13s-3.127 7.303-7.13 7.37-7.303-3.127-7.37-7.13 3.127-7.303 7.13-7.37zm764.133-5.846l5.213 3.383s-.552.27-16.156 9.58c-16.98 10.13-17.727 10.315-18.7 8.78-.85-.453.254-4.495 5.46-8.123 9.12-6.355 25.312-14.164 24.185-13.62zm-445.962 7.87c11.673-.42 23.662 4.93 30.655 16.683 3.612 8.955 4.047 17.315 4.162 26.78l.77 63.527-66.49 1.1s-3.8-43.247-1.31-79.333c2.72-18.153 17.21-28.217 32.217-28.755zm-206.348 12.818c4.22-.38 7.396 3.713 11.554 12.623 4.12 8.825 1.216 13.9-11.18 19.5-1.566.708-3.356 1.24-3.98 1.19-12.643-.996-18.047-15.462-9.124-24.446 5.533-5.57 9.45-8.573 12.73-8.868zm675.9-4.67l5.84 3.498s-2.917 2.73-24.13 18.745c-17.13 12.935-19.573 16.414-15.833 23.452 3.018 5.68 9.348 4.83 18-2.048 12-9.54 30.86-25.67 30.86-25.67l.804 10.8c-12.42 10.322-27.325 27.826-39.31 34.592-23.144 11.88-40.407-19.407-19.336-35.3 18.16-13.7 43.105-28.06 43.105-28.06zm-466.748 7.745c-17.384.143-23.42 26.048-4.64 31.206 5.426 2.793 5.003 4.286 1.628 17.194-2.043 7.815-2.585 17.417-1.3 23.493 1.526 7.748 3.247 7.538 2.393-.8-.05-4.562 4.442-16.813 9.002-24.527 16.933-24.446 12.02-46.66-7.083-46.577zm-404.94 7.005c11.467-.11 18.148 15.754 8.315 22.803-6.965 4.995-21.807-.714-21.892-8.42-.073-6.57 4.995-12.908 11.237-14.125.804-.157 1.575-.25 2.34-.257zm33.018.798c3.6-.07 5.772 5.185 5.916 15.654.208 15.015-4.91 28.187-13.97 35.986-13.12 11.3-16.59-18.834-4.49-38.994 5.04-8.397 9.357-12.59 12.543-12.646zm850.95-10.094c3.275-.105 2.805 2.41-.947 5.1-2.913 2.096-7.847 6.28-23.117 19.603-2.77 2.418-6.75 5.58-8.823 7.022-5.1 3.543-9.487 2.715-7.054-1.32 2.396-3.972 36.995-30.318 39.94-30.414zm-779.195 13.565c11.226-.186 20.49 8.75 20.677 19.974s-8.78 20.492-20.005 20.677-20.492-8.78-20.677-20.005 8.78-20.46 20.005-20.646zm.122 7.374a12.94 12.94 0 0 0-12.722 13.15 12.94 12.94 0 0 0 13.149 12.722 12.94 12.94 0 0 0 12.722-13.15 12.94 12.94 0 0 0-13.15-12.722zm-243.242 4.395c138.72 67.28 226.632 195.992 250.248 343.88l65.083-107.12 18.173 6.513-94.77 160.338-4.24-1.243c-2.97-155.06-82.68-300.48-234.41-378.49zm243.336 1.292c4.002-.066 7.303 3.128 7.37 7.13s-3.127 7.303-7.13 7.37-7.303-3.127-7.37-7.13 3.127-7.303 7.13-7.37zm-56.76 1.782c6.234 13.203 13.79 27.04 25.367 42.805-11.652-10.587-24.182-9.914-36.63-11.334zm163.62.17c2.134-.14 4.28.726 5.988 2.995 5.754 7.64 6.91 14.795 3.06 18.733-5.274 5.392-13.842 3.438-17.82-4.05-4.138-7.788 2.37-17.26 8.772-17.68zm674.836-.4l.417 12.026s-2.514 3.128-5.188 5.712c-7.55 7.3-17.847 18.9-18.548 21.84-2.277 9.527 7.16 12.853 16.284 5.732 3.148-2.46 7.68-6.2 7.68-6.2l.245 14.8c-7.692 6.758-15.356 13.403-26.033 11.432-6.236-1.8-11.758-6.578-12.994-12.787-4.75-18.586 13.15-29.3 26.966-42.014l11.17-10.56zm-752.63 22.94c.345-.023.68-.01 1.03-.017 11.226-.186 20.49 8.747 20.677 19.974s-8.78 20.492-20.005 20.677-20.492-8.78-20.677-20.005c-.18-10.875 8.242-19.908 18.974-20.63zm408.52-2.188c11.085-.227 17.2 14.605 8.416 23.208-3.452 3.382-11.33 5.873-15.862 2.825-12.5-8.405-3.678-25.282 7.446-26.033zm-21.926 12.208c6.528 6.697 11.714 26.385 8 30.184-8.22 8.768-32.987-19.537-31.846-38.32 2.394-11.294 21.43 5.658 23.846 8.136zm-297.45-5.867c4.645-.052 5.588 4.103 4.578 6.58-.96 2.36-4.595 2.608-7.508 1.468-4.95-1.937-2.747-7.987 2.93-8.05zm-88 3.204a12.94 12.94 0 0 0-12.722 13.15 12.94 12.94 0 0 0 13.15 12.722 12.94 12.94 0 0 0 12.722-13.15 12.94 12.94 0 0 0-13.149-12.722zm-96.737 7.287c24.533-.375 50.73 18.52 28.286 22.723-16.662 3.12-27.554-.003-40.76-11.672-6.714-5.93-4.41-9.177 7.605-10.72 1.606-.206 3.236-.306 4.87-.33zm96.83-1.6c4.002-.066 7.303 3.127 7.37 7.13s-3.127 7.303-7.13 7.37-7.303-3.127-7.37-7.13 3.127-7.303 7.13-7.37zm34.268 17.842c.345-.024.713-.012 1.062-.018 11.226-.186 20.49 8.75 20.677 19.974s-8.78 20.492-20.005 20.677-20.492-8.78-20.677-20.005a20.34 20.34 0 0 1 18.943-20.628zm399.744-5.575c5.802-.193 10.914.813 13.903 3.458 3.654 3.235-1.65 9.65-12.594 15.2-12.787 6.497-35.285 5.995-35.362-.79-.1-9.025 19.226-17.384 34.053-17.878zm-489.595 13.436c11.277-.127 14.905 34.786 5.386 51.7-4.937 8.776-11.876 3.08-17.046-14-4.24-14.008 3.062-37.602 11.66-37.698zm91.035-.504c-7.143.118-12.84 6.007-12.722 13.15a12.94 12.94 0 0 0 13.15 12.722 12.94 12.94 0 0 0 12.722-13.15 12.94 12.94 0 0 0-13.15-12.722zm421.51-4.685c.958 0 2.182.458 3.802 1.22 12.408 5.84 21.823 33.905 15.616 46.592-6.536 13.358-22.144-11.89-22.415-36.26-.09-7.97.378-11.188 2.59-11.513.126-.017.27-.04.406-.038zm-544.427 10.8a9.69 9.69 0 0 1 .781-.013c11.135.1 19.482 15.342 9.138 23.415-4.528 3.534-11.572 4.196-15.946 1.514-8.62-5.284-8.376-18.498.428-23.26 1.883-1.018 3.775-1.55 5.598-1.655zm123-.44c4.002-.066 7.303 3.128 7.37 7.13s-3.127 7.303-7.13 7.37-7.303-3.127-7.37-7.13 3.128-7.303 7.13-7.37zm-75.95 3.693c6.243 8.964 31.313 32.483 34.762 34.493-10.96-3.348-22.156-1.666-33.348.02 1.127-8.303 2.238-21.915-1.414-34.513zm396.574-4.49c167.91 36.386 272.947 212.183 235.332 379.35 0 0-14.213-7.63-16.502-11.354 5.44-28.91 8.33-74.598.167-120.363-13.846-77.625-78.825-190.794-217.698-227.684-1.61-5.008-1.3-19.95-1.3-19.95zm90.15-.27c2.08 11.354 4.092 22.797 7.066 32.996-11.922-8.27-25.4-15.325-39.152-20.976 9.725-2.213 18.61-4.088 32.086-12.02zm48.288 2.858c6.653-.282 13.504 4.352 13.49 12.56-.003 3.613-3.75 10.163-6.713 11.738-11.023 5.856-22.61-4.758-17.898-16.394 2.113-5.22 6.57-7.71 11.12-7.904zm-420.15 11.35c11.225-.186 20.49 8.747 20.677 19.974s-8.78 20.492-20.005 20.677-20.492-8.78-20.677-20.005 8.78-20.46 20.005-20.646zm.122 7.374a12.94 12.94 0 0 0-12.722 13.15 12.94 12.94 0 0 0 13.15 12.722 12.94 12.94 0 0 0 12.722-13.15 12.94 12.94 0 0 0-13.15-12.722zm-346.077 7.657c83.918 47.678 160.196 150.762 167.68 268.64l-20.34-12.822c-9.98-79.314-52.086-165.097-147.644-234.405l.302-21.414zm460.218-7.606l107.423-1.775.383 23.153 31.94-17.124.846 51.212-32.537-18.965.37 22.34-107.423 1.775-.388-23.497-32.64 16.448-.467-50.968 32.83 17.74zm-114.047 5.635c4-.066 7.303 3.127 7.37 7.13s-3.128 7.303-7.13 7.37-7.303-3.127-7.37-7.13 3.127-7.303 7.13-7.37zm42.31 3.364c.132-.012.273-.005.406-.007l1.403 7.353c-.2-.007-.413-.024-.625-.02a12.94 12.94 0 0 0-12.722 13.15 12.94 12.94 0 0 0 13.15 12.722c1.727-.03 3.363-.38 4.86-1.018l1.372 7.385c-1.927.646-3.97 1.003-6.11 1.04-11.226.186-20.492-8.78-20.677-20.005-.18-10.875 8.212-19.876 18.944-20.597zm242.697-1.448c.355-.02.706-.012 1.062-.018 11.226-.186 20.49 8.747 20.677 19.974.16 9.64-6.447 17.8-15.42 20.04l-1.34-7.29c5.477-1.58 9.454-6.652 9.355-12.625a12.94 12.94 0 0 0-13.15-12.722c-.29.005-.59.023-.874.046l-1.37-7.29c.346-.042.706-.09 1.06-.11zm142.75 4.517c25.086-.28 35.735 13.95 15.277 20.407-9.477 2.992-21.968 1.694-34.376-3.557-10.344-4.376 3.598-16.677 19.1-16.85zm-524.312 10.04c6.07-.122 11.958.715 16.328 2.7 10.565 4.796 10.383 8.174-.724 14.826-15.487 9.277-52.465.756-41.507-9.565 5.15-4.85 15.79-7.757 25.903-7.96zm140.143-.097c.556-.01 1.106.05 1.628.16l2.468 13.15c-1.1.73-2.428 1.165-3.856 1.19-4.002.066-7.303-3.127-7.37-7.13s3.127-7.303 7.13-7.37zm242.76-1.418c3.973-.03 7.24 3.15 7.306 7.13.052 3.157-1.93 5.85-4.73 6.892zm44.33 4.456c11.226-.186 20.49 8.747 20.677 19.974s-8.78 20.492-20.005 20.677-20.492-8.78-20.677-20.005 8.78-20.46 20.005-20.646zm-395.892 11.67c1.204-.087 2.58.45 4.06 1.62 12.353 9.766 18.777 30.756 14.24 46.52-4.33 15.04-23.77-11.222-24.008-32.42-.11-9.777 2.096-15.46 5.7-15.72zm526.676-6.923c1.68-.014 3.482 1.236 5.288 4.132 7.78 12.478 7.865 38.517.148 46.754-4.38 4.673-6.048 3.832-10.842-5.478-8.193-15.913-2.695-45.338 5.407-45.408zm-130.662 2.628a12.94 12.94 0 0 0-12.722 13.15 12.94 12.94 0 0 0 13.15 12.722 12.94 12.94 0 0 0 12.722-13.15 12.94 12.94 0 0 0-13.15-12.722zm-379.766 9.746c15.517 9.44 31.383 18.025 47.86 25.12-15.363-3.367-26.587 1.96-38.137 9.07 2.026-12.833-2.506-23.164-9.722-34.188zm461.544-4.89c11.475 1.427 22.84 3.115 36.074.4-2.267 11.295-2.937 22.776-1.662 34.483-10.088-12.62-21.3-24.43-34.413-34.882zm-81.684.83c4.002-.066 7.303 3.127 7.37 7.13s-3.127 7.303-7.13 7.37-7.303-3.127-7.37-7.13 3.128-7.303 7.13-7.37zM-1321 265.722c2.263.006 4.674.605 7.187 1.788 9.487 4.462 9.953 15.87.895 21.988-11.388 7.7-26.615-5.224-19.622-16.647 2.686-4.386 6.344-6.78 10.572-7.082.317-.023.644-.05.968-.047zm460.328.893c11.225-.186 20.49 8.747 20.677 19.974s-8.78 20.492-20.005 20.677-20.492-8.78-20.677-20.005 8.78-20.46 20.005-20.646zm119.04 1.44c1.958-.07 4.008.34 6.055 1.37 7.295 3.67 8.97 13.246 3.314 18.948-6.265 6.315-14.97 5.388-19.38-2.055-5.03-8.493 1.522-17.96 10.012-18.262zm-196.142 6.242c100.68 32.422 169.57 142.695 155.187 250.19l-12.693-11.604c8.514-60.92-26.778-176.474-139.067-222.295zm77.224-.307a12.94 12.94 0 0 0-12.722 13.15 12.94 12.94 0 0 0 13.15 12.722 12.94 12.94 0 0 0 12.722-13.15 12.94 12.94 0 0 0-13.15-12.722zm.094 5.687c4-.066 7.303 3.127 7.37 7.13s-3.128 7.303-7.13 7.37-7.303-3.127-7.37-7.13 3.127-7.303 7.13-7.37zm-380.646 7.572c5.115.366 13.72-.697 15.82 4.083 2.375 6.054-9.94 16.788-25.75 19.116-6.445.5-20.238 2.36-23.228-2.24-2.827-5.754 15.583-20.5 33.158-20.957zm-317.773 8.815c13.523-.82 29.077 17.033 15.625 32.027-10.775 11.527-32.96 27.36-32.96 27.36l-.164-9.936s21.716-16.443 21.956-23.68c-.093-8.402-7.09-13.028-14.726-7.85-1.51 1.022-7.464 6.03-7.464 6.03l.225-16.662c4.017-4.548 11.202-6.908 17.507-7.3zm345.804-1.464c10.04.217 33.897 35.698 28.092 43.135-4.598 5.893-23.704-6.687-31.03-20.428-3.932-7.375-3.007-20.652 1.566-22.466.422-.167.88-.252 1.37-.24zm154.8 1.786s2.413 83.436-2.146 91.392c-18.243 34.35-59.133 17.307-63.018-8.147-2.75-15.344-2.355-81.972-2.355-81.972zm5.937-.098l64.866-1.072s1.65 117.47-.853 124.25c-2.038 5.52-11.303 15.134-17.177 17.818-18.913 8.64-39.477-2.832-44.89-25.043-3.902-16.015-1.947-115.952-1.947-115.952zm70.303-1.162l43.057-.712s1.58 6.203 3.375 11.29c3.133 8.878 13.7 34.308 14.907 35.852 5.375 6.934 6.902 83.714 1.842 92.545-18.52 28.79-50.262 21.026-62.335-10.315-3.063-10.057-.845-128.66-.845-128.66zm50.26 2.076c77.828 35.403 138.212 112.198 132.46 212.12l-14.42-13.92c4.036-68.967-49.82-154.2-111.438-178.777zm106.368.586c11.225-.186 20.49 8.747 20.677 19.974s-8.78 20.492-20.005 20.677-20.492-8.78-20.677-20.005 8.78-20.46 20.005-20.646zm76.21.803c7.556-.014 16.83 2.44 23.823 8.014 8.36 6.664 9.598 12.026 3.234 14.105-12.298 4.016-27.204.572-36.676-8.458-8.8-8.388-1.422-13.64 9.62-13.66zm-76.09 6.57a12.94 12.94 0 0 0-12.722 13.15 12.94 12.94 0 0 0 13.15 12.722 12.94 12.94 0 0 0 12.722-13.15 12.94 12.94 0 0 0-13.15-12.722zm-406.855 8.35c10.835-.12 16.058 15.048 7.88 22.904-3.353 3.22-12.64 4.054-16.728 1.495-11.245-7.04-5.01-24.246 8.848-24.4zm143.263 1.508c-3.414 10.37-8.99 22.1-13.63 30.136-12.434 21.533-10.537 35.8 3.083 42.8 19.998 10.275 33.927-18.427 14.206-29.27-6.918-3.802-6.918-3.85-4.615-14.457 2.875-13.235 3.156-28.967.955-29.207zm263.686-4.17c4-.066 7.303 3.127 7.37 7.13s-3.128 7.303-7.13 7.37-7.303-3.127-7.37-7.13 3.127-7.303 7.13-7.37zm-194.092 7.396c-.907-.045-.126 5.247-.04 14.66.14 15.193-1.054 19.837-10.428 40.365-11.97 26.22-10.024 43.97 5.443 49.48 12.014 4.278 23.47-5.045 23.315-18.982-.074-6.636-3.12-11.792-7.686-13.062-4.116-.194-8.698-2.04-8.41-4.018 2.26-15.575 15.237-45.057-2.194-68.442zm256.562-2.146c10.143 6.15 20.567 11.97 35.524 12.477-6.115 15.37-5.282 26.514-6.143 38.7-6.66-16.285-16.832-34.256-29.38-51.178zm-765.856 15.032c.806-.023 1.612.017 2.41.117 9.62 1.334 17.93 13.49 15.502 22.684-2.12 8.027-2.8 9.387-33.344 30.524-16.95 11.728-18.738 12.25-18.738 12.25l-9.288-6.035 19.868-13.8c23.435-16.322 26.858-20.173 24.303-27.25-2.778-7.69-11.615-5.918-25.45 5.11-20.48 16.317-22.622 17.407-22.622 17.407l-.157-9.53 12.854-10.84c9.504-6.994 22.572-20.313 34.664-20.638zm613.766-5.987c2.33-.062 4.156 2.08 3.382 4.163-.37 1-1.725 1.664-3.535 1.684-3.72.043-4.006-5.24-.315-5.808a3.56 3.56 0 0 1 .468-.039zm208.436 7.644c4.632 14.967-4.385 40.188-10.106 43.5-6.05 6.188-9.995.444-11.587-15.278-.177-12.773 13.787-52.93 21.693-28.213zm-247.075-4.35c2.242 21.63 3.22 39.608-6.646 57.368-12.794 23.028-9.053 42.53 5.115 46.61 14.11 4.066 26.356-6.186 23.645-19.8-.828-4.168-6.68-10.9-10.195-11.74-4.336-1.038-4.894-3.708-2.58-12.334 4.488-16.717 2.54-37.76-4.905-52.864-.7-2.262-3.422-7.338-4.433-7.24zm47.363 6.437c11.844-.132 17.685 15.174 8.95 23.45-4.865 4.6-8.04 2.608-13.39-8.405-4.963-10.215-3.563-14.955 4.44-15.044zm110.35 1.333c11.226-.186 20.49 8.748 20.677 19.973s-8.78 20.492-20.005 20.677-20.492-8.78-20.677-20.005 8.78-20.46 20.005-20.646zm.122 7.374a12.94 12.94 0 0 0-12.722 13.149 12.94 12.94 0 0 0 13.15 12.722 12.94 12.94 0 0 0 12.722-13.15 12.94 12.94 0 0 0-13.149-12.722zm.094 5.687c4.002-.066 7.303 3.128 7.37 7.13s-3.127 7.303-7.13 7.37-7.303-3.127-7.37-7.13 3.127-7.303 7.13-7.37zm-87.18 6.785c1.66-.096 3.28.156 4.796.858 10.8 5.004 9.874 19.857-1.804 28.91-7.39 5.728-10.586 3.84-17.8-10.52-3.915-7.79 5.842-18.724 14.81-19.247zm-621.012 11.95c1.093.01 2.116.166 3.1.418 11.097 2.856 18.305 15.627 15.704 25.463-5.842 15.197-26.38 20.62-41.93 27.197l-8.222-5.802s11.37-6.7 22.43-12.03c10.356-4.98 12.01-6.92 11.13-12.967-1.718-11.815-7.43-11.293-33.14 3.11-10.46 5.86-18.133 11.02-18.133 11.02l-5.827-4.623 22.87-15.568c15.487-10.984 24.347-15.744 30.893-16.17.377-.025.76-.054 1.124-.05zm825.197-4.867c3.967 11.416-3.567 21.606-15.245 17.288-6.338-2.343-10.937-10.32-7.15-17.844 5.082-8.27 19.737-7.095 22.396.556zm-232.887-.14l18.82 32.537.64 14.2c1.05 21.3 5.73 28.29 18.182 26.016.9-.163 5.32-1.526 5.32-1.526l8.158 13.242s-8.52 3.892-10.74 4.397c-14.652 3.33-35.183-7.377-38.59-22.084-3.298-14.23-1.79-66.792-1.79-66.792zm-598.57 23.394c5.524.312 3.25 4.566.724 5.99-10.646 5.645-20.692 11.76-31.794 18.403l-7.576-4.532s5.733-3.327 9.686-5.848c12.157-7.754 24.57-13.762 28.96-14.012zm734.657-7.922c11.225-.186 20.49 8.747 20.677 19.974s-8.78 20.492-20.005 20.677-20.492-8.78-20.677-20.005 8.78-20.46 20.005-20.646zm-86.005 4.203c4.678-.212 8.616 1.734 11.224 5.91 5.58 8.926.008 20.035-13.07 26.126-7.305 3.4-8.544 2.743-16.584-8.758-5.436-7.774-5.426-9.185.358-14.29 6.483-5.72 12.773-8.75 18.073-8.987zm-713.842 13.58l294.42 183.816-8.078 14.26-285.486-180.213zm865.6-11.868c17.705.046 41.15 20.162 33.1 28.394-.855.874-2.527 1.55-3.726 1.5-25.295-1.074-53.675-29.957-29.373-29.894zm-65.64 1.46a12.94 12.94 0 0 0-12.722 13.15 12.94 12.94 0 0 0 13.15 12.722 12.94 12.94 0 0 0 12.722-13.15 12.94 12.94 0 0 0-13.15-12.722zm-388.98 10.023l8.05 19.932-141.166 233.208-14.4-8.92zm389.075-4.336c4.002-.066 7.303 3.127 7.37 7.13s-3.128 7.303-7.13 7.37-7.303-3.127-7.37-7.13 3.127-7.303 7.13-7.37zm53.282 1.526c7.317 13.083 19.275 20.976 32.816 26.43-12.523 10.687-18.7 24.382-17.96 38.583-3.57-21.276-6.71-42.446-14.858-65.013zm-766.31 19.634c3.107-.028 5.923.574 8.16 2.053 27.478 18.166 2.832 36.995.494 35.6l-9.345-5.7c3.094-5.325 10.196-12.595-1.534-19.07-6.64-2.765-13.93.8-20.258 5.367l-9.827-6.495s18.845-11.63 32.3-11.754zm640.9-.06c1.022-.05 2.025-.003 3.003.17 15.385 2.7 14.59 19.002-1.307 26.806-9.045 4.442-10.67 3.596-18.854-9.94-3.842-6.353 7.275-16.547 17.158-17.036zm-645.532 16.638c1.633.016 3.745 1.41 4.015 2.747.86 4.258-6.983 8.68-6.983 8.68l-9.192-5.88c3.848-2.206 7.863-5.172 12.16-5.545zm817.11-9.597c2.218-.21 3.86.81 4.558 3.456 3.316 12.59-10.342 36.274-23.244 40.296-7.532 2.347-9.782-1.176-7.475-11.69 3.24-14.773 18.24-31.31 26.16-32.062zm-469.857 8.734l23.873 16.733-137.846 226.06-24.737-14.156zm385.196-4.553c11.225-.186 20.49 8.747 20.677 19.974s-8.78 20.492-20.005 20.677-20.492-8.78-20.677-20.005 8.78-20.46 20.005-20.646zm.122 7.374a12.94 12.94 0 0 0-12.722 13.15 12.94 12.94 0 0 0 13.15 12.722 12.94 12.94 0 0 0 12.722-13.15 12.94 12.94 0 0 0-13.15-12.722zm.094 5.687c4.002-.066 7.303 3.127 7.37 7.13s-3.127 7.303-7.13 7.37-7.303-3.127-7.37-7.13 3.127-7.303 7.13-7.37zm-325.224 6.125c15.64 17.064 33.54 55.505 93.487 36.24 20.8 16.384 49.303 25.435 83.928 6.302l1.975 104.357-267.5 4.702zm-488.514 10.73l266.298 169.03-8.008 14.697-258.132-159.037zm739.558-12.066a2.81 2.81 0 0 1 .657.051c13.52 3.072 15.26 16.507 2.83 21.862-6.653 2.867-8.037 2.205-14.588-7.104-2.613-3.713-4.106-6.803-3.754-7.752.86-2.318 11.083-7.044 14.854-7.06zm169.275 11.454c4.7-.046 9.436 2.37 11.715 7.245 3.42 7.317 1.618 13.537-5.114 17.743-11.145 6.966-23.934-5.276-18.292-17.513 2.266-4.92 6.983-7.43 11.69-7.476zm-164.712 16.88c6.212-.07 11.524 5.773 8.563 9.422-1.965 2.422-4.55 1.778-7.91-1.963-3.943-4.392-4.22-7.42-.655-7.46zm75.564 1.345c11.226-.186 20.49 8.747 20.677 19.974s-8.78 20.492-20.005 20.677-20.492-8.78-20.677-20.005 8.78-20.46 20.005-20.646zm57.323.178c15.332-.17 36.997 25.088 33.62 39.2-1.1 4.604-9.74 2.27-20.092-5.42-13.985-10.388-23.312-33.672-13.53-33.78zm-57.2 7.196a12.94 12.94 0 0 0-12.722 13.15 12.94 12.94 0 0 0 13.15 12.722 12.94 12.94 0 0 0 12.722-13.15 12.94 12.94 0 0 0-13.15-12.722zm49.318 1.8c4.44 12.33 8.987 25.17 28.25 33.82-29.436 14.31-34.708 37.675-29.765 67.438l-7.007-4.135c5.914-26.837 10.224-57.365 8.52-97.123zm-49.224 3.876c4.002-.066 7.303 3.127 7.37 7.13s-3.127 7.303-7.13 7.37-7.303-3.127-7.37-7.13 3.127-7.303 7.13-7.37zm-3.24 32.714c11.226-.186 20.49 8.747 20.677 19.974.117 7.096-3.42 13.418-8.874 17.15l-6.643-4.797c4.825-1.943 8.203-6.718 8.112-12.23a12.94 12.94 0 0 0-13.15-12.722c-6.804.112-12.27 5.47-12.676 12.15l-6.674-4.828c2.4-8.36 10.073-14.543 19.23-14.695zm92.593 1.064c9.68-.107-4.925 26.984-18.62 34.53-10.428 5.745-20.05 6.34-20.107 1.24-.15-13.346 23.945-35.606 38.727-35.77zm-92.377 11.997c4.002-.066 7.303 3.127 7.37 7.13s-3.127 7.303-7.13 7.37c-3.982-.368-7.262-3.44-7.37-7.13-.066-4.002 3.127-7.303 7.13-7.37zm89.83 22.987c4.766-.01 9.525 1.975 11.6 5.965 2.683 5.158 1.768 9.824-2.915 14.613-11.506 11.765-27.618.146-20.212-14.574 2.012-3.998 6.76-5.995 11.527-6.004zm-37.22 11.523c16.3.238 28.967 20.306 26.217 31.82-2.534 3.08-20.705-10.235-22.664-11.596-2.36-4.024-2.605-10.592-3.553-20.225zm-22.008 12.928l51.563 29.84-50.4 33.556zm-454.375 22.7l274.26-3.533.222 11.53-281.772 4.813 7.29-12.8zm-10.888 18.214l18.435-.305.37 22.466-25.31.418-.205-12.405zm263.535-3.824l22.185-.367.37 22.466-22.185.367zm-217.686 3.754l25.247-.417.37 22.466-25.247.417zm52.527-.68l27.277-.45.37 22.466-27.277.45zm55.805-.922l26.246-.434.37 22.466-26.246.434zm56.06-.55l24.997-.413.37 22.466-24.997.413zm-227.886 31.458l304.19-4.308.223 13.467-312.875 4.452zm259.996 24.082c30.963-.854 49.58 33.412 25.776 58.082-21.882 22.678-59.47-5.2-41.355-30.602 10.116-14.18 35.74-3.312 29.635 11.73-4.018 9.9-17.8 5.543-17.556-5.117-.048-4.28-3.158-1.302-3.447 3.245-.366 5.77 5.655 12.05 12.543 11.95 17.973-.256 20.27-24.12 2.806-32.582-15.603-7.557-31.73 2.68-35.164 22.522-.373 2.166-2.833 7.607-4.718 11.455-5.532 11.583-7.27 18.25-9.92 31.418-1.29 1.66-5.26 4.348-8.03 5.8-8.755 4.56-8.42 2.692-5.35-11.726 8.835-41.525 23.95-68.426 42.874-74.156 4.12-1.247 8.104-1.905 11.906-2zm91.617.642c19.114-.727 33.774 14.79 36.487 26.913 11.598 36.844-37.18 60.334-54.865 27.07-9.89-19.018 9.56-42.223 27.872-33.607 14.992 7.053 14.407 29.753-.787 29.924-8.242.524-13.385-6.804-8.932-12.823 2.322-2.38 5.18-.597 6.3-4.542.47-1.653-1.89-2.925-7.498-1.69-9.294 2.047-8.035 20.83 2.84 24.394 16.202 5.3 29.696-11.906 21.75-28.582-9.554-20.048-34.51-19.723-45.574 1.597-1.606 3.1-4.13 7.53-5.53 9.5-16.644 23.385-17.927 26.865-22.783 39.82-.482 1.29-1.36 2.26-2.903 2.11-4.69.078-9.274 1.17-12.4 2.455-2.13-.527.558-8.676.753-9.295 11.008-36 40.21-71.96 65.267-73.245zm-148 12.5c-3.92 7.1-15.685 30.152-23.538 64.054-2.24-1.342-8.248-3.73-12.587-5.168-1.643-.544-.346-2.453-.494-5.305 2.812-15.28 12.21-42.057 22.83-55.79 2.276-1.73 17.065-2.508 13.788 2.2zm17.453 6.462c-10.167 13.432-20.432 48.847-22.395 67.067-.297 2.75-.743 5.802-1.013 6.768-1.53 5.464-11.9-6.045-11.97-13.273-.12-12.277 12.865-49.9 22.346-64.347 3.304-5.035 3.696-5.866 10.93-6.244 11.623-.483 6.588 4.105 2.103 10.03zm-508.044-.355a36.36 36.36 0 0 0-7.607 1.126c-14.98 3.978-32.647 20.218-34.11 37.163-.817.523-2.672 12.39-1.26 18.367 5.347 22.62 18.847 37.8 35.435 60.048 0 0-19.843 31.907-33.576 46.717l33.85 47.29c-8.846 18.205-24.514 32.128-28.135 54.472-5.75 29.436 10.082 57.77 42.808 59.863 24.398.33 40.112-16.413 42.727-41.43.96-16.615-6.213-37.317-31.314-69.805-1.243-1.61-3.676-4.94-3.676-4.94s2.706-3.282 4.13-5.475c8.44-11.826 30.487-40.76 30.487-40.76l-34.438-47.03s1.406-3.223 3.95-6.816c26.846-37.914 31.648-57.043 26.474-75.573-2.038-7.303-6.69-12.87-12.973-19.038-10.154-9.973-21.66-14.63-32.77-14.18zm-.705 4.606c10.73-.333 21.873 3.782 31 13.02 20.993 21.254 19.468 39.55-6.68 79.934-5.74 8.862-11.35 18.596-11.35 18.596l34.612 46.184s-5.35 8.296-10.94 15.09c-15.17 18.433-23.605 31.644-23.605 31.644 6.01 8.903 15.696 18.363 21.86 29.08 7.43 12.133 11.934 24.277 13.4 35.44 3.086 23.474-11.79 48.78-37.932 49.82-25.378.596-45.05-20.235-44.936-46.795.05-11.843 4.763-22.86 10.54-33.616 5.905-10.946 19.813-32.27 19.813-32.27l-33.535-47.202 33.918-46.88s-25.735-30.468-33.843-52.604c-6.707-25.18 4.84-39.787 6.37-42.017 7.507-10.948 19.15-17.048 31.3-17.426zm730.13-9.44c19.845 21.875 30.9 53.455 35.87 80.668 2.01 11.174 2.656 30.292 1.098 32.392-3 4.04-9.968 2.003-9.6-2.8 2.875-38.542-39.002-65.42-74.587-48.15-27.446 13.32-41.73 43.468-34.205 80.545C-834.07 898.88-774.387 949.302-733.42 1019c14.487 23.595 18.05 36.952 17.95 36.5 0 0 4.987-14.007 16.503-33.996 27.513-52.568 65.477-86.8 93.272-139.404 13.045-24.69 21.198-49.028 22.27-70.91-.57-50.872-50.86-88.395-89.208-61.034-15.2 9.69-27.87 28.13-29.665 43.184-.767 6.43-1.863 8.36-4.737 8.392-6.62.073-6.753-2.432-1.915-32.692 7.596-30.106 16.797-58.696 33.956-84.23zm-750.48 76.873c5.25 13.033 13.603 22.662 23.03 31.828 8.43-10.19 17.803-23.564 22.857-36.26 24.34-61.142-73.634-64.474-45.886 4.43zm22.56 25.864c-12.66-14.244-21.632-26.112-22.794-45.156-1.99-37.73 47.426-34.304 45.532-.513-2.444 18.42-11.904 30.2-22.738 45.67zm610.61-69.45c1.038 5.3 6.367 14.212 5.958 16.34-2.308 5.614-5.765 8.448-10.5 17.707-.99 1.973-.507 2.368-3.25 1.93-2.576-.32-7.118-1.66-9.54-2.31-1.384-.377-2.982-1.102-2.36-2.868 4.503-10.84 9.534-23.758 19.68-30.798zm-81.533 17.6l-5.557 15.15c-.525 1.63-.578 1.897-2.287 1.57-3.314-.364-6.217-.574-9.512-.274-7.213-.764 5.9-27.894 7.872-32.003 2.953.448 7.498 11.867 9.483 15.558zm5.525 3.378c.122-.018.25-.014.375-.006 2.962.333 7.387 1.856 10.68 3.23 1.813.713 1.87.762 1.113 3.013-1.6 3.343-3.496 12.933-5.638 16.308-.06.488-10.36-5.887-13.282-7.1-.143-1.815 2.98-14.873 6.752-15.445zm86.486.352c3.372.06 7.584 3.057 9.893 4.775 1.105 2.1.164 4.242-3.48 10.778-3.223 5.78-6.585 12.02-7.438 11.374-2.552-1.933-7.265-4.417-9.626-7.56-1.76-2.344 1.414-8.457 3.587-11.81 3.427-5.292 5.086-7.21 7.064-7.555zm-55.005.146c3.13.647-1.547 16.786-2.44 18.806-2.875 4.46-7.366 10.345-10.978 12.746-1.844 1.226-7.634-2.106-7.57-6.126.045-2.854 5.267-17.333 7.02-21.182.257-.564 10.476-4.125 13.97-4.244zm-127.1 8.24c.698-.034 1.397-.033 2.094-.004 12.244-.56 24.938 5.275 33.094 18.643 3.857 6.322 3.91 6.597 3.146 12.575-1.794 14.05-.935 23.458 2.904 31.988 4.372 9.713 3.794 13.08-6.14 35.012-9.97 22.08-22.068 48.973-31.2 73.87-4.052 10.67-7.73 22.738-9.994 32.607-1.493 6.207-9.066 4.474-16.587 4.306-3.805.898 5.102-24.97 18.422-55.937 10.663-24.786 25.26-52.75 30.814-80.383 4.526-22.526 2.806-31.73-.036-41.11-10.818-27.256-46.766-19.937-46.262 5.328 1.044 16.354 20.126 24.814 26.803 8.652 1.035-7.396-2.535-3.043-5.522.59-6.406 7.786-17.742-.566-16.168-11.922 2.068-14.916 21.194-20.124 30.676-8.508 10.385 12.722 8.372 26.048-6.152 36.263-14.947 11.365-28.83 5.273-36.575-6.146-16.562-25.658 5.026-54.793 26.675-55.823zm75.013 9.637c15.026.06 31.54 12.38 34.343 22.302 1.525 6.74-.518 14.737 2.006 21.228 2.098 5.203 4.082 8.187 2.713 12.863-11.704 39.982-40.184 82.89-53.824 130.22-1.61 3.307-3.125 3.743-6.827 4.863-5.735 1.737-7.99 1.603-8.65-1.39-.627-2.86 1.214-8.325 4.412-18.575 3.83-12.278 12.404-33.344 17.475-43.263 11.813-23.107 18.347-38.89 26.88-58.608 1.595-3.684 2.025-5.86 4.535-11.17 10.785-22.81-2.2-44.907-25.304-44.65-18.312.204-26.026 29.018-9.856 37.137 15.815 7.94 27.157-13.793 13.09-21.188-3.395-1.786-4.23-.013-1.48 3.18 6.33 7.357.926 17.48-7.776 13.63-13.475-5.958-6.963-28.86 8.667-27.803 24.13 1.632 27.843 36.63 3.415 45.92-33.584 12.768-52.207-41.333-20.716-60.166 5.224-3.125 11.075-4.535 16.896-4.53zm71.196-.083c8.887-.37 18.28 2.643 26.073 9.883 19.196 17.833 14.624 45.916-16.403 100.597-10.154 18.322-19.992 40.285-25.292 56.3-1.317 3.992-2.445 6.025-5.56 7.812-5.485 3.146-11.754 3.628-12.602 1.49-2.167-5.47 13.084-39.94 40.356-94.148 7.166-14.445 16.242-31.227 15.486-48.262-2.08-13.502-13.496-23.05-28.495-18.375-10.093 3.147-14.002 17.523-6.407 24.61 3.17 2.96 7.036 4.476 9.508 4.187 4.675.073 9.91-4.634.855-4.984-9.565.106-13.026-11.86-5.04-17.42 11.48-8 24.958.98 24.27 16.164-1.436 30.53-46.043 26.716-47.74-4.68-1.05-19.427 14.018-32.467 30.987-33.173zm441.69 5.9c11.167 7.633 19.345 21.763 21.43 35.37.658 4.207 1.274 8.487-.53 9.48-2.214 1.218-3.814-.493-8.515-6.485-10.952-13.96-32.054-7.584-38.84 11.925-6.463 18.575.882 39.2 30.013 79.984 10.48 15.09 19.683 27.596 28.392 42.412 5.75-14.98 15.65-31.16 24.11-44.53 31.69-49.757 37.22-75.43 19.27-91.612-11.533-10.158-29.522-10.182-35.4 3.148-4.053 5.51-6.472 8.178-8.264 4.918-.78-1.42-.768-5.774-.336-8.996 2.826-15.68 7.75-26.003 18.838-36.44zm-566.708 45.027c6.722-.628-4.26 35.824-23.827 76.842-10.67 22.713-18.635 47.062-26.834 70.765-2.277 3.2-16.213 3.998-16.24.737 23.436-79.694 40.7-93.636 48.645-123.977 1.39-5.24 2.338-12.797 2.528-13.45 6.222-1.9 11.37-9.476 15.728-10.918zm-457.974 12.913l-25.65 34.616 26.2 35.885 26.016-35.154zm567.847 1.18c.046 4.096-7.485 23.934-13.16 35.88-24.822 52.246-30.973 66.328-35.18 80.217-.76 2.505-2.03 4.178-3.64 4.81-3.176 1.247-12.05 3.105-12.814 1.9 4.93-30.38 45.355-99.974 52.917-130.298 3.233-.197 11.557 4.578 11.875 7.492zm20.507-3.496c1.735-.155 2.445.545 1.985 2.874-.744 3.768-5.08 12.683-12.63 28.15-20.928 42.872-31.855 68.245-35.256 81.25-.796 3.047-1.277 5.436-2.712 6.232-2.948 1.635-13.28 6-13.85 1.48 2.932-19.27 15.387-31.985 46.8-112.664 1.487-2.658 2.806-3.966 4.243-4.227 4.015-.728 7.472-2.7 11.42-3.095zm-88.522 14.628c-.742 4.96-6.243 15.42-15.302 34.72-15.07 32.11-24.773 56-30.54 77.172-.937 3.437-2.24 7.054-3.556 7.997-2.504 1.796-13.884 1.448-13.884 1.448-1.868-8.68 11.314-41.38 26.032-75.784 8.005-18.71 17.335-37.38 23.526-54.15 4.443.587 13.048 4.7 13.724 8.6zm23.008-8.588c4.626-.122 1.163 7.713-9.56 29.8-8.696 17.92-22.623 43.08-31.4 71.873-2.313 6.35-5.026 14.234-6.023 17.54-1.288 4.27-2.52 6.388-4.255 7.3-3.313 1.723-11.395 1.76-12.845.056-2.302-2.714 9.134-35.145 20.385-60.095 9.95-20.976 16.92-37.8 25.496-57.18 2.37-3.86 2.47-4.126 4.935-4.66 5.135-.495 10.4-4.023 13.28-4.62zm-522.13 12.766l13.797 17.837-15.516 19.978-13.503-18.967zm-.744 77.93s-5.624 6.7-11.34 17.252c-16.77 28.998-16.893 50.2 3.657 62.448 8.657 4.23 19.83 3.087 26.795-3.193 22.707-20.48 5.124-47.803-10.065-66.28-4.04-5.432-9.045-10.227-9.045-10.227zm.965 7.33c8.806 10.048 15.255 17.595 21.222 30.3 6.905 17.097 2.884 30.694-9.823 37.26-20.083 10.38-38.875-11.873-29.663-36.11 6.825-17.96 18.264-31.462 18.264-31.462zm567.578 24.624c1.958 3.588-191.92 51.823-336.133 15.557l-85.274 127.864 504.354-9.2zm-7.226 9.09l71.895 119.735-32.34.534-47.718-97.912c-24.54 7.28-48.765 12.653-73.368 16.183l17.787 83.436-24.215.4-15.008-79.763c-35.283 3.31-71.243 4.94-108.003 4.504l-14.565 77.532-25.34.42 14.98-77.008-84.186-10.58-46.06 89.492-35.776.59 72.744-112.56c111.71 20.503 214.304 13.55 329.172-15.004zm504.113 10.265c-22.032.438-45.1 12.66-51.283 38.165-2.186 8.105-2.192 8.124-1.084 79.998l.656 73.75-20.3.336.392 23.734 66.116-1.093-.392-23.734-21.935.363-2.304-120.5c-1.107-12.067-.18-22.723 2.908-30.177 11.248-27.14 52.5-21.92 57.837.982 3.182 13.653 1.584 17.27 1.98 29.096l22.903-.38s.265-20.808-2.17-32.906c-3.46-27.035-27.02-38.7-51.19-37.628-.708-.01-1.415-.01-2.125.004zm-521.016 33.583l37.836 76.73-69.24 1.144-13.888-68.78zm-296.335 10.523l60.653 6.842-14.567 64.124-81.74 1.35zm197.756 6.264l9.34 62.042-104.298 1.724 10.585-61.152z"/>
        </g>
    </g>
</svg>