<svg xmlns="http://www.w3.org/2000/svg" width="224.225" height="312.808">
    <rect y=".499" x=".498" height="311.811" width="223.228" rx="10.63" fill="#fff" stroke="#000" stroke-width=".997"/>
    <g transform="matrix(.150867 -.003115 .003115 .150835 22.847618 127.073347)">
        <path d="M930.228-621.01l-533.576-8.425 65.1 129.778c138.922-9.6 260.2 3.992 386.716 10.737zM556.532-177.164c-.57.736-22.327 5.878-20.224 10.835C590.3-44.188 613.51 54.768 634.54 179.586c12.126-9.435 31.412-8.647 31.412-8.647-8.564-46.367 49.754-50.923 49.137-2.61 11.118 2.822 22.608 3.098 32.46 14.593C754.886 47.146 806.54-92.423 871.51-188.53 799.176-161.614 692.448-93 692.448-93s-86.852-37.992-135.917-84.153zm435.796 23.472C894.97-65.02 852.402 185.835 859.18 189.445c-122.998-6.648-163.103 128.263-57.923 203.63-4.51 14.103-15.167 25.434-23.5 37.804 10.873 6.528 22.86 8.122 34.83 9.7 8.888 10.982 17.585 23.623 27.456 24.853 10.873-6.54 18.705-16.278 27.82-24.65 11.212-2.607 22.34-5.52 33.022-10.133-9.104-13.272-19.944-26.725-19.976-38.983 94.114-63.474 83.22-152.66.534-199.907C909.45 42.515 947.763-52.394 991.342-119.55zM332.313-51.58c-12.253 5.668-19.13 18.023-28.133 27.644-12.096.3-23.82 4.19-35.438 9.083 0 0 26.88 38.788 25.126 40.81-90.935 56.903-91.975 142.8-6.997 201.148C298.94 349.63 191.076 540.9 185.947 535.18l-1.013 39.988c73.93-78.467 117.837-222.88 127.47-342.035C460.235 226.355 468.41 83.85 367.887 28.1c-7.665-7.325 26.384-39.776 26.384-39.776-8.298-8.514-22.448-9.753-34.835-11.034-7.635-9.515-14.268-18.98-27.122-28.88zM954.665 60.014c19.92 46.854 97.338-8.136 110.058 16.84 10.45 14.23 33.812 16.15 33.03-7.476-3.91-23.463-19.194-28.962-80.46-20.04-23.24 3.384-32.786 5.475-32.426-5.077-15.623-19.67-29.91 6.352-30.2 15.755zm69.422 69.208c-17.118-.37-21.412 66.497-21.577 86.595-51.18 77.236 100.24 71.463 36.596-15.142 2.51-11.093-7.732-29.476-7.274-37.502-5.345-.793-7.075-31.06-7.745-33.95zM151.37 151.447c-26.834.123-56.83 24.136-14.56 60.43 2.85 1.044-1.62 8.42-.38 19.934 11.58 26.4 7.503 65.055 16.65 59.294 10.575-6.66 19.887-35.37 18.47-75.76-.093-2.65-3.54-5.525-2.827-8.373 24.958-39.316 4.88-55.628-17.353-55.526zM424.268 232.1c-9.587 130.573-44.266 258.163-119.14 367.884 63.075-27.825 124.482-64.138 183.818-95.084l135.355 87.69c8.012-3.282 13.545-4.864 18.915-9.956-61.275-93.706-78.084-227.105-103.127-347.985-10.63 7.208-30.405 10.53-30.405 10.53-2.27 41.7-46.324 54.32-54.14-.288zM91.24 327.243c-14.644.624-26.39 36.6 14.928 42.817 29.15 4.738 66.886-8.88 85.32-1.833 20.88 34.884 41.31-15.41 12.626-24.276-30.814-9.525-94.425 12.348-101-7.493-3.45-6.8-7.772-9.39-11.872-9.216zM328.225 898.57l-85.73 144.386 528.902 7.735-66.25-140.773c1.214-1.52-231.54 22.83-376.922-11.347z" fill="#e2cf00"/>
        <path d="M471.65-486.954l8.168 20.674c113.883-11.39 233.015-23.16 351.375 9.56 0 0 9.12-18.77 9.013-20.143-110.285-30.492-358.35-28.295-368.556-10.09zm109.004 290.217l106.653 72.16 74.906-50.532-12.988-19.952c-47.797 99.844-126.51 18.475-155.662-29.57l-12.9 27.893zM870.3-156.908c7.494-.005 11.586 2.968 15.194 10.67 4.074 8.697 5.74 6.61 3.23-4.185-3.96-17.02 14.246-27.666 30.95-16.012 12.063 8.415 11.12 28.154-2.32 31.537-10.855 2.732-11.195 5.558-1.702 5.292 17.03-.477 21.085 22.315 8.75 33.165-14.18 12.475-31.737 3.063-33.027-12.976-.65-4.54-1.607-4.497-3.155-1.965-4.448 7.296-5.042 16.9-4.386 25.6l-24.813-16.113c9.04-4.245 14.55-6.81 21.158-13.395.863-.86 1.512-1.487 1.512-1.87.004-.683-2.803.174-7.936.602-15.22 1.27-26.7-8.817-23.292-23.05 2.9-12.1 9.31-17.283 19.84-17.3zM751.306 235.284c27.987-30.716 62.355-50.092 109.487-46.3 8.704-130.947 56.56-246.56 131.514-350.058l-79.08-49.798-32.526 18.72C801.18-84.168 750.847 53.906 751.306 235.284zM157.464-83.384l-80.63 58.572-6.245 361.437 6.952 2.543c.483.78-.5-5.372 2.768-8.108 2.672-2.237 6.89-4.75 9.376-5.6 7.02-2.392 7.426-7.03 1.006-11.182-4.98-3.22-6.8-8.076-6.057-16.07.525-5.64.31-6.878-1.965-10.762-2.83-4.827-2.95-10.862-.333-17.065 1.216-2.88 1.12-3.665-.86-7.63-2.522-5.05-2.724-10.437-.65-16.192.793-2.2 1.433-7.033 1.44-10.773.032-14.4 12.114-23.703 34.123-26.26 8.604-1 8.874-1.348 5.083-8.625-21.387-41.058 28.983-61.182 32.585-54.606zm683.433 34.282c20.288.124 36.64 16.65 36.516 36.943s-16.678 36.65-36.967 36.524-36.64-16.68-36.516-36.974 16.678-36.617 36.966-36.493zm.2 6.564c-16.245-.1-29.48 12.977-29.58 29.226s12.974 29.518 29.22 29.617 29.51-13.008 29.61-29.257-13.006-29.486-29.25-29.586zm.568 9.347c11.016.067 19.91 9.04 19.842 20.06s-9.07 19.914-20.086 19.846-19.878-9.072-19.81-20.1a19.93 19.93 0 0 1 20.055-19.815zm-729.39.033c1.494.004 3.08.264 4.682.8 9.092 3.098 12.124 11.225 7.01 18.762-4.018 5.92-3.58 6.444 3.287 4.05 5.402-1.882 8.12-1.197 12.26 3.075 12.415 12.81-6.886 33.513-19.028 20.478-6.014-6.456-6.637-4.604-2.6 6.36l3.473 9.066-18.183-.64 4.35-10.584c3.317-8.178 3.446-9.38-3.223-4.332C89.27 25.273 72.905 4.923 86.79-7.876c2.824-2.603 7.273-2.632 13.404-.074 4.467 1.863 5.036.644 1.74-3.677-7.168-9.398-.11-21.562 10.35-21.53zM488.562 7.015c-8.396 48.28-3.344 116.383-4.252 152.7 19.642 4.165 19.585 17.605 22.27 34.367 9.654-3.144 30.32 11.45 33.214 10.264 3.197-49.095-19.404-192.27-51.232-197.33zM814.76 62.313c27.95 2.823 22.14 24.336 13.617 33.048-4.043 4.475-3.355 6.538 1.038 4.006 11.97-6.9 21.247-1.546 24.804 10.84 6.076 21.16-21.93 38.7-33.863 19.574-4.043-6.48-6.63-5.087-5.745 1.625.497 6.46 6.52 19.95 6.52 19.95l-27.418-3.03s8.68-13.8 10.232-17.52c3.22-7.74 1.648-9.852-4.35-3.684-17.502 15.367-40.89-5.253-29.367-25.868 5.68-10.163 15.832-13.28 26.556-4.87 7.24 4.945 8.867 2.9 2.425-3.048-12.04-11.115-.903-32.688 15.553-31.026zm-703.17 2.652c.314-.01.62-.007.937.006 2.352.094 4.805.798 7.235 2.232 6.745 3.98 8.46 11.6 4.045 18.088-2.54 3.74-1.873 6.142 1.04 3.725 3.9-3.236 12.3-.858 15.5 4.376 8.197 13.443-8.712 30.46-19.05 19.196-4.564-4.973-6.345-5.207-5.87-1.993 1.395 6.042 5.14 16.378 5.14 16.378l-19.03-.063s4.33-10.7 5.355-16.152c.8-4.315-.95-3.72-5.586 1.3-4.51 4.884-8.528 5.316-14.07 1.476-13.674-9.476-2.083-32.84 12.21-24.613 4.924 2.834 5.654 1.27 1.868-3.957-6.762-9.335.55-19.73 10.277-20zm987.798 11.97c-31.45 31.187-21.404 12.574-7.628 37.125-.278 15.997 8.796 28.707.88 53.798-2.474 4.882-2.73 7.226-1.534 12.214-2.834 27.84-25.16 27.022-46.965 30.9 3.605-.163 33.235 57.4-24.333 60.668l-4.124 231.435 91.494-64.594 7.067-361.24zM420.583 185.15c-25.89 15.942-62.635 56.357-107.593 46.483-8.444 144.274-58.13 255.075-127.7 349.744 23.047 14.28 48.388 31.37 72.03 42.477 20.39-9.992 31.808-14.096 51.944-29.982 83.834-123.845 112.43-260.532 111.31-408.722zm211.6 30.79c3.03 74.248 13.643 144.72 51.046 201.853l5.864-157.538c-13.676-3.575-24.75-12.692-28.24-37.97zm-279.628 38l25.76 1.14s-6.088 11.53-8.753 17.993c-3.24 7.897-1.813 9.55 4.177 4.137 7.797-7.044 20-7.46 26.282-.902 16.678 17.416-1.707 44.86-21.6 32.243-8.517-5.4-9.996-3.68-3.304 3.855 13.057 12.63-1.212 30.132-16.77 29.89-11.248-.278-18.35-9.424-19.03-19.35-.303-6.243 2.957-12.433 8.43-15.362 5.706-3.054 1.708-5.198-4.487-2.028-20.226 10.35-33.042-17.572-17.622-32.992 8.89-8.892 18.085-7.856 26.754.985 6.053 6.173 8.277 5.68 6.68-1.506-1.6-8.085-6.515-18.104-6.515-18.104zm695.19 36.068l18.463.403c-1.9 4.532-4.352 9.142-5.92 13.63-1.69 4.887-.54 5.54 4.45.882 12.904-8.284 26.302.547 23.263 14.028-2.097 9.3-10.01 13.72-18.96 9.478-7.89-3.74-5.367-2.155-.95 3.388 5.253 6.594 3.728 14.13-3.5 18.992-12.784 8.6-29.117-6.464-20.515-19.14 5.072-7.538 2.802-6.756-1.75-3.154-6.82 4.777-16.83-2.39-16.83-12.04-.49-13.89 13.675-21.41 23.346-11.388 4.62 4.057 5.8 3.597 3.797-2.206-1.86-4.224-2.395-8.717-4.895-12.87zm-1.095 100.933l19.356.18s-.3 1.475-3.397 7.014c-3.64 6.51-3.245 13.33.51 8.785 6.333-7.672 19.4-5.23 23.5 4.394 4.777 11.21-5.234 23.28-15.266 18.407-6.52-3.168-6.986-2.524-2.742 3.9 4.13 6.24 2.086 13.76-4.922 18.033-13.77 8.395-29.705-9.26-18.154-20.112 3.092-2.905 2.17-4.37-1.547-2.447-15.172 7.845-25.817-12.66-12.6-24.265 5.628-4.942 9.844-4.506 18.797 1.96 2.787 2.012 3.37.01 1.437-4.99-3.297-8.522-4.97-10.845-4.97-10.845zm-718.617-2.695c21.544.132 38.884 17.69 38.752 39.238s-17.686 38.924-39.23 38.792-38.915-17.72-38.783-39.27 17.717-38.892 39.26-38.76zm.3 6.97c-17.698-.108-32.143 14.132-32.25 31.834s14.16 32.15 31.858 32.258 32.143-14.163 32.252-31.866-14.16-32.12-31.86-32.227zm.112 12.313a19.71 19.71 0 0 1 19.593 19.839c-.067 10.898-8.94 19.696-19.835 19.63s-19.69-8.973-19.624-19.87 8.97-19.664 19.866-19.597zm-50.974 93.496l22.286 11.472s-10.824 8.444-15.153 12.82c-5.534 5.64-5.214 8.34 2.155 5.74 14.052-4.958 27.854 3.185 27.816 17.666-.05 19.325-23.087 28.152-33.755 13.298-3.17-4.416-7.028-6.306-5.576-2.722 3.535 8.723 1.04 19.563-5.52 23.904-5.25 3.475-14.75 4.332-19.476 1.756-16.258-8.86-16.72-27.817-.848-34.975 7.98-3.598 8.314-7.118.5-5.34-16.267 3.7-25.3-16.085-13.35-29.3 12.683-14.027 32.82-10.656 34.616 10.525.32 3.768 2.938 1.1 4.2-4.635 1.463-4.25 2.1-20.208 2.1-20.208zm209.198 36.108s-83.4 45.217-80.94 47.25c.48.297 17.75 25.697 17.75 25.697 42.815-91.85 139.18-13.062 153.895 34.588 3.36 2.167 3.953 1.58 7.618 3.315.418-3.333 7.89-36.065 7.89-36.065zM347.428 875.196c-4.237 5.086-18.358 19.463-16.63 20.05 120.62 28.55 245.612 29.06 373.088 17.878L694.8 882.37c-126.258 29.418-347.382-7.172-347.382-7.172z" fill="#d40000"/>
        <path d="M72.906-650.852l-27.75 1703.788 1063.322 18.2 28.77-1702.06zm323.11 18.817l530.34 8.786c-26.198 64.073-99.938 164.637-96.55 164.95-109.932-20.51-223.45-32.056-351.178-7.515zm-311.168-2.27l297.594 5.76 94.516 177.988s5.537 11.1 1.857 22.517c-4.016 12.46-7.36 17.958-10.875 24.288.414-3.644-28.132-7.856-26.243 16.702 1.28 16.623 22.078 26.438 37.974 13.854 2.502-.157 2.435 2.16 1.805 6.2-1.64 9.475-12.352 39.428-19.315 41.286-34.64-29.625-48.3 22.89-24.76 33.9 13.627 6.375 34.883 1.778 45.1-14.555 7.823-12.494 6.942-10.422 9.01 4.98.768 5.727 1.884 12.37 2.468 15.36 1.825 9.347-.227 11.1-15.973 15.01-12.702 4.65-25.53 7.096-38.583 9.64-23.83 3.405-36.338 21.072-37.38 42.866-.225 4.71-.105 6.894-1.144 8.274C299.643-174.17 191.77-123.004 77.89-34.18zm666.068 431.743c-3.678-6.235-15.178-38.81-18.238-52.363-7.37-65.563-7.424-143.21-15.485-204.265l12.247 1.63s4.252 17.718 8.235 65.428c1.974 23.65 3.53 72.765 5.116 95.363 2.41 33.578 16.442 87.48 25.542 101.2 14.84 22.378 45.88 8.742 36.14-17.666-5.054-13.7-25.76-11.927-23.186 2.236 0 2.516 2-1.758 5.077-4.347 8.998-3.197 18.853 6.303 13.38 17.385-6.805 14.152-25.93 7.235-31.948-10.905-7.188-21.67 18.858-37.265 37.824-23.748 21.127 15.057 20.407 52.11 2.907 63.446-29.264 9.995-48.575-11.578-57.6-33.394zm71.245 28.738c-1.156-.715.1-2.94 1.647-8.26 5.784-19.884 2.724-35.558-9.907-50.53-7.038-8.342-9.72-9.837-5.913-11.245 8.066-2.984 25.477 10.22 30.074 22.942 4.538 12.493 5.473 25.335-1.567 39.208-4.757 2.91-12.183 8.788-14.334 7.886zm22.16-12.864c.03-2.34 1.755-9.686 2.192-13.288 1.69-13.922-4.543-28.222-15.856-39.535-9.494-9.494-10.363-10.47-1.193-10.435 23.65.1 37.94 38.63 26.64 57.24-2.87 2.926-11.562 8.857-11.782 6.018zm20.285-12.525c7.634-32.448-23.433-54.82-24.09-53.818 1.724-7.27 14.152-2.814 18.358.116 15.71 11.028 24.295 39.182 14.187 54.876-1.103 1.93-2.433 3.023-4.174 4.04-3.33 1.996-5.303 3.617-5.942 2.156-.484-1.107 1.442-5.813 1.66-7.37zm-275.09-111.464c3.36-3.164 4.348-3.237 10.627-.716 19.676 7.897 35.806-6.005 31.435-21.058-1.583-5.45-8.892-11.483-13.455-12.05-7.455-.93-7.687 3.013.306 6.19 9.818 3.902 10.6 14.423 1.8 18.98-10.372 6.698-26.767-11.186-39.088-9.958-5.912 1.635-9.786 7.052-6.567 13.835 2.523 4.762 11.304 7.796 14.952 4.78zm-21.95-2.596c-6.81-3.335-9.43-3.33-7.96-10.806.968-4.922 8.696-38.02 12.31-50.8 10.82-38.274 1.84-59.8-26.376-68.987-19.122-6.227-35.75-3.615-55.572 6.41l-3.303-10.953c82.637-19.808 222.8-12.14 222.293-11.32 2.54 11.122 3.366 22.21 4.22 33.296 0 0-26.014-13.437-39.637-18.012-20.988-6.91-54.517-.5-60.684 11.504-3.496 6.806-1.846 11.427 12.504 4.077 23.485-12.03 70.725-1.518 87.17 12.09 3.79 3.135 3.58 3.8 3.58 7.384 0 5.466.314 5.793-7.208 1.57-39.443-21.208-73.558-19.547-85.863 6.972-2.69-.874-13-2.867-13-2.867l10.76 16.645 1.755 17.226s17.928 10.437 27.838 14.905c9.753 4.374 4.182-.182-7.723-8.838-8.74-6.355-1.646-8.187 4.155-5.703 11.976 3.01 29.496 6.878 50.123-5.63 6.407-3.885 20.8-.103 21 1.72 0 0 1.617 15.066 2.883 46.458.6 14.85 2.024 34.262 2.897 42.237 2.637 24.093 3.51 25.478-8.895 13.696-4.162-3.953-11.096-10.512-11.186-10.13-1.757 7.418 16.622 20.89 20.87 25.472 6.45 6.952 11.378 24.51 8.717 25.49-1.685.62-19.1-14.773-32.756-28.576-5.12-5.17-12.76-12.12-12.987-11.892-2.923 1.86 8.515 15.322 19.278 25.43 12.56 11.797 14.018 12.86 9.68 14.51-8 3.045-15.076-1.094-34.032-17.44-1.845-1.59-9.04-6.923-9.395-6.558-1.807 2.31 15.637 19.526 19.648 21.058 7.45 2.846 9.46 10.142 3.483 12.865-4 1.818-18.548-6.557-30.14-17.03-2.077-1.876-7.884-5.118-8.282-4.707-2.372 1.456 10.59 13.142 23.023 20.985 12.173 7.678 14.108 9.552 10.84 15.66-3.058 6.296-29.81-8.982-43.03-24.42-2.813-3.285-5.06-4.72-4.508-3.62 5.556 16.46 24.71 28.57 39.042 33.53 2.558.897 6.27 2.014 7.925 3.385 4.04 3.35 3.063 6.73-1.43 8.55-15.476 4-39.355-15.14-56.3-35.024-1.994-.873-.846 1.707-.334 2.563 14 23.408 41.36 41.562 58.123 38.626 9.8-1.717 17.582 1.384 17.59 4.66.008 2.686-5.462 6.853-15.975 7.384-23.784 1.202-60.35-25.552-81.372-59.093-.655-1.045-1.45-1.442-1.514-.817-.734 7.003 12.406 24.486 22.554 34.54 30.15 29.873 59.02 40.355 82.037 24.352 13-9.647 25.798-31.06 6.9-38.695-10.008-4.043-16.675 9.714-7.965 5.93 11.364-1.13 13.812 4.935 12.22 10.557-3.088 9.647-12.734 10.99-20.468 6.75-13.455-7.652-10.044-32.854 7.662-36.904 15.952-3.506 29.524 10.24 31.08 23.043 2.417 19.89-20.395 40.888-38.443 45.855-61.562 16.944-107.594-69.076-107.83-71.006-2.948-5.97-6.576-9.176-9.046-2.337-2.71 9.922-17.124 38.884-24.508 38.555 2.512-10.27 12.554-27.414 10.518-42.655-4.342 12.392-13.502 38.836-30.268 52.674-4.35 3.8-16.976 8.125-8.144-1.706 10.715-14.426 24.753-34.163 22.32-53.02-2.85 4.167-4.577 14.83-7.882 21.827-8.274 17.517-25.986 38.14-37.465 41.303-8.476 2.335-7.63-.493 1.182-9.4 9.448-9.548 26.4-37.806 25.584-50.157-.354-5.454-17.956 46.74-49.3 60.48-8.446 2.893-13.132-1.065-13.132-1.065 12.35-6.776 46.746-39.316 44.343-77.144l-4.74 13.885c-12.173 35.805-37.22 58.994-56.4 60.56-15.31 1.25-25.85-5.133-22.005-7.778 19.807.555 36.228-5.958 49.345-25.006 13.332-19.36 18.8-50.8 11.657-84.34-6.443-30.248-7.435-57.348-9.304-86.335 21.55 7.862 43.286 13.247 64.6 5.424-2.298 8.578-5.848 9.577-11.558 15.97-4.143 4.675-2.785 5.835 13.235-4.99 4.66-3.15 6.372-5.717 7.185-4.83 1.318 1.437-.96 10.27-5.92 27.87-7.415 26.317-5.67 28.25 19.54 38.745 4.703 1.958 6.437 3.816 8.056 5.83.758.943 4.774 8.54 5.164 8.813.915.64.843-7.644.372-9.748-1.25-5.587-4.166-9.82-6.76-11.52-4.893-4.698-12.08-5.252-16.653-7.46zm472.688 355.038l.82-27.47 26.295 19.487-.514 9.06zm-45.73 5.03l9.513-508.177 31.14-19.72c5.98 20.28 5.045 63.48 2.25 82.667-4.267 12.446-7.206 68.168-3.246 96.633 3.157 22.69 1.718 60.082-2.07 77.914-1.48 6.967-1.126 39.77.76 70.15 1.44 23.218.453 44.277-2.594 56.28-2.402 9.46-2.34 43.533-.095 56.65 3.303 19.297 2.66 81.054.934 84.374-4.5 4.9-38.93 4.88-36.59 3.228zm51.557-530.948l30.154 21.072-.315 21.896-29.408-20.08zM737.44-455.138l12.74 1.057c4.536 26.566 6.117 56.69 7.518 86.89-.313 46.512 4.414 95.672 14.667 128.042l-9.584 9.643c-15.208-37.165-15.266-95.297-18.016-134.7-.647-44.264-6.965-90.64-7.325-90.932zm310.485 1.774L1075.28-434l-.204 23.817-27.568-19.123zM755.813-453l11.178 1.45c2.76 31.487 7.544 52.913 8.818 87.564 1.648 44.816 8.648 81.732 12.748 116.795l-8.447 2.616c-5.67 2.473-14.132-39.04-16.547-122.88-.73-25.374-4.434-53.975-7.75-85.543zm16.923 1.53l13.33 2.674c4.274 79.647 12.082 154.528 20.99 197.528l-11.652.53c-13.166-61.464-12.644-132.256-22.668-200.73zm19.27 3.218l12.252 2.386c11.036 182.172 20.21 180.014 22.917 187.223l-13.42 5.125c-13.31-52.56-14.69-126.297-21.75-194.734zm52.14 179.787c-2.23 6.083-7.203 5.4-12.656 5.927-5.746-16.84-8.894-36.836-11.045-56.395-4.725-42.963-5.92-83.18-10.893-125.586l14.636 1.805c-.482.313 7.33 149.344 19.96 174.25zM531.852-434.846c19.315 1.333 35.174 10.343 36.457 23.078.288 2.865-1.95 1.43-4.525-.63-16.365-13.09-35.205-17.45-58.223-9.7-5.016 1.69-9.15 4.43-11.366 3.993-1.973-1.318-2.527-4.43-.946-6.953 5.513-8.8 29.045-10.445 38.604-9.785zm-45.36 24.583c0 20.04-5.1 30.982-15.704 35.393-12.798 5.324-28.813-6.975-20.635-20.194 6.183-9.995 16.4-6.733 18.128 3.938l16.855-35.554s1.417 11.4 1.356 16.417zm588.64 8.943l-.602 20.64-29.324-20.49 2.394-19.808zm-527.436-13.584c14.53 6.105 19.76 13.305 20.24 16.468-.894 2.33-2.325.698-12.903-5.298-16.265-10.445-37.702-12.536-56.832-.098-4.72.832-5.15-1.845-.333-6.815 14.607-10.963 34.466-10.712 49.83-4.257zm111.332-1.568c12.897-.14 28.238 3.453 41.117 10.252 5.695 3.007 10.822 4.914 14.505 8.31 2.968 1.626 3.06 8.44.855 8.91-1.967.235-5.144-1.36-9.875-4.81-30.508-20.722-52.81-18.71-70.945-6.716-1.006.662-4.094 1.303-5.307 1.186-3.404-.328-3.55-1.727-2.09-3.545 8.468-9.182 20.933-13.438 31.74-13.586zm386.12 22.437l29.368 21.442-.438 20.48-31.228-22.686zm-538.067-2.787l4.348.215c9.634 24.79 22.618 12.383 28.106 2.65l5.28.972c-8.974 32.752-42.374 14.828-37.735-3.837zm-7.475 3.125c4.912.694 4.624 6.264 6.082 10.352 3.26 9.136-9.65 1.195-11.845-1.06-3.71-4.07 1.782-8.965 5.763-9.293zm147.5 2.088c12.442 19.814 20.092 8.395 27.6.032l3.467 1.187c-1.21 14.016-25.14 28.49-35.75-.972zm39.462 3.026c1.376.05 4.115 1.093 6.63 2.17 6.967 2.987 6.555 5.06-1.3 8.362-12.56 5.278-16.9 5.906-13.013-1.836 2.22-3.533 3.736-8.24 7.68-8.697zm-48.876 1.973c3.084 2.367 5.09 4.956 5.365 9.106.194 2.925-9.452-.64-9.34-5.29.37-2.95 2.02-5.315 3.974-3.815zm-86.122-.665c6.335 2.497 5.508 5.524 1.004 8.19-8.08 4.287-11.48 3.34-6.17-3.553 2.45-3.18 2.993-4.615 5.168-4.637zm491.007 20.45l31.803 23.354-.716 20.824-31.8-22.646c-1.315-8.956.223-14.93.703-21.53zm-558.364 20.723c1.53.07 2.03 5.142 2.235 12.545.342 12.31-12.528 29.177-25.302 34.814-15.384 6.8-31.494-3.51-28.458-18.217 2.798-13.555 22.138-13.72 22.61-1.132-1.948 3.268.63 6.09 1.714 5.823 5-1.232 16.94-11.538 21.95-23.24 1.953-4.56 3.18-9.27 4.53-10.316.262-.203.502-.287.72-.277zm556.91 7.66l31.764 24.2-.284 20.7-31.526-22.663c-1.073-9.25-.388-15.817.046-22.235zm-391.97 24.694c-2.522 4.045-.674 11.425 4.453 5.278 13.158-14.693 31.38 4.4 21.18 16.1-9.26 10.608-20.305 6.903-43.6-2.548-16.97-6.885-19.712-4.715-24.026-.085-3.552 3.813-1.946 11.672 2.553 11.672l40.024 10.027c30.2 6.85 49.504-31.842 22.095-46.772-6.556-3.57-20.366.61-22.676 6.33zm-133.944 1.736c-12.044 10.36-2.92 38.435 14.44 41.284 3.635.597 9.08.558 15.297-1.097 12.256-3.264 25.826-10.195 26.463-14.383 2.894-19.028-25.86-2.505-29.666-.32-9.067 5.252-18.53 4.352-23.17-2.204-10.456-14.777 9.17-31.08 20.513-13.03 2.862 4.554 1.98-3.08-1.136-8.32-4.4-7.398-16.162-7.167-22.74-1.927zm527.402 4.88l29.87 22.05-.583 19.925-28.952-21.798zm1.668 29.22l28.28 21.243.063 20.722-29.716-20.455c.744-7.444 1.03-14.45 1.374-21.5zm-161.182 8.573c25.227.936 38.7 38.525 25.07 53.77-4.055 4.535-7.24 5.706-8.998 3.948-.378-.38.342-4.537.697-9.246 1.13-15.016-1.852-25.373-12.612-37.02-8.07-8.736-11.135-11.45-4.155-11.45zm-310.9-.474c-4.802 1.6-9.916 4.94-13.803 4.01-3.84-.92-5.724.952-7.297 3.946-6.017 11.453-4.306 15.232 7.28 8.898 5.5-3.006 7.377-1.85 21.863 1.196 10.352 2.176 17.426 2.128 26.62-.056 11.43-2.715 18.212-2.805 23.9.46s9.534 7.68 9.754 4.154c-.555-4.144-3.94-14.783-4.7-18.3-.365-1.697-3.224-.27-5.904-.13-9.438.49-20.504-8.22-27.877-3.9-5.9 3.467-6.69 4.39-14.588-.464-5.88-3.616-10.05-1.544-15.248.188zm303.94 8.87c16.794 14.627 20.91 27.382 19.038 37.74-1.004 7.54-1.74 15.88-9.24 20.276-1.378.624-3.424.985-5.318 1.224 6.19-21.35-.186-40.718-23.922-61.732 7.1-3.335 14.245-2.024 19.44 2.494zm-385.46-7.995a7.8 7.8 0 0 1 2.434.452c2.946 1.038 3.253 8.81.87 11.193s-4.228.34-6.806-5.886c-1.94-3.4.215-5.818 3.503-5.76zm-15.907 5.715c6.24 0 8.5 5.764 9.466 10.34.832 3.9-.557 15.46-3.788 11.352-.745-2.47-3.97-10.46-6.64-12.572-5.946-4.706-5.254-9.12.962-9.12zm-17.686 5.392c.912-.007 2.08.13 3.497.396 9.707 1.833 16.847 17.494 14.4 26.245-5.35 9.357-7.127 2.937-8.65-5.678-1.257-3.585-5.132-9.242-7.518-12.17-4.952-6.08-5.68-8.762-1.727-8.792zm585.8 7.59l29.223 21.873-.424 22.76-30.612-21.51c.856-7.95 1.368-15.57 1.813-23.123zm-605.157-3.27c14.528.328 26.58 17.474 21.664 33.665-6.03 16.866-34.232 12.66-29.188-4.18 1.45-4.843 6.722-8.3 11.623-5.148 7.078 4.552 6.438-2.632 1.938-5.27-6.945-4.07-16.654-1.894-18.97 6.01-8.076 27.55 27.336 37.73 47.308 9.51 7.3-10.315 15.238-21.35 19.593-26.037 3.913-4.21 4.72-3.743 3.988 1.774-3 25.69-21.612 57.493-55.233 55.038-32.646-3.783-42.156-38.7-17.005-59.855 4.226-3.555 8.634-5.26 12.875-5.484a18.58 18.58 0 0 1 1.406-.023zm173.297 4.983c-12.1 5.55-22.98 7.52-34.658 2.146-8.63-3.972-8.58.148-4.864 3.607 10.75 9.543 30.738 5.738 39.37.67 2.8-1.645 3.815-6.555.15-6.422zm460.546 50.677l-.334 20.7-32.655-22.87c-.42-4.962.3-12.478 1.54-20.228zm-32.063 6.254l31.103 21.416.408 20.53-30.243-19.632zm1.608 28.814l29.687 21.455-.028 22.4-29.434-20.25zm-734.97 8.374l-19.585 55.32 12.054.98 7.845 14.86 8.683-14.885 12.72-.703zm735.583 22.627l28.617 20.548.013 20.7-29.73-21.472zm-1.702 25.296l29.317 22.112.138 21.982-33.264-23.17zm-666.086-1.32L354.457-48.55l10.318-1.187 9.305 16.15 10.022-14.126 9.213.713zm-137.483 1.596L217.85-47.293l11.653.196 9.53 15.152 8.93-14.258 13.217-.075zm799.12 27.422L1070-53.564l-.193 23.335-33.387-23.378zm33.382 56.123l-.033 20.44-28.956-21.524-2.72-22.754zm-623.53-9.358l-22.58 59.8 14.307.43 8.377 14.645 7.243-14.393 11.496.352zM1041.7-13.7l26.877 19.25-.642 20.975-26.47-18.537zM519.96 219.393l-15.225-15.25c-.167-1.223 12.854-7.203 20.712-3.065 10.375 5.464 15.37 24.447 3.428 34.14-9.503 7.713-23.625.842-23.886-.093zm-13.316-24.908c.75-23.058-11.272-29.23-21.22-34.108l1.648-150.55c-.004.638-2.248-15.88-2.52-16.86h0c0 .01-2.398-.692-2.397-.667.116 14.828-2.05 166.714-2.308 167.694-18.84 1.78-24.354 14.398-26.407 31.45-14.643-1.403-24.364 7.23-24.688 8.687-5.262-7.55-1-18.423-5.115-26.273-13.93 45.177 10.777 72.9 32.884 70.812 2.638 43.707 50.526 52.588 49.985-.373 58.203-2.212 39.61-56.07.138-49.8zM237.305 5.36l-22.26 58.584 14.787-1.378 5.15 11c24.06-20.338 35.326 12.064 23.873-15.76zm797.868 121.535c2.72-.145 6.24 2.376 6.887 5.728.3 9.975-13.035 7.46-13.33 1.16-.21-4.474 3.89-6.752 6.443-6.888zm7.4 64.978c5.87-4.62 15.007-1.753 15.007 5.4 0 6.33-7.297 8.266-12.9 4.594-4.345-2.772-4.52-7.782-2.106-9.984zm.453 17.577c31.6 3.063 55.59-17.95 45.822-33.6 8.72-10.51 1.912-16.794 4.364-22.874 6.86-6.75 1.547-21.68-.135-21.77-.968-19.91-6.688-22.575-15.064-33.345-2.518-3.123 6.145-5.948 9.558-11.157-8.814 3.18-17.27-3.487-17.192-4.965l-3.63-4.7c-58.665 1.52-111.374 4.524-111.03 84.044-9.127 33.56 4.537 63.902 45.633 55.465 9.12-7.816 3.46-19.534 2.48-25.128-3.177-15.405 1.06-25.284 2.335-32.444 3.94-22.145 20.643-42.43 21.694-7.57 2.944-4.312 1.6-4.986 6.357-6.702 11.317-3.818 11.066 7.535 8.67 12.067-1.527 2.324-3.75 2.08-6.032 1.768-3.26-.46-7.5-1.757-7.548-2.957-.954 3.597 5.727 10.463 4.944 13.84-.97 3.202-1.538 2.928 1.487.858 14.306-9.792 22.667 12.923 2.32 9.927 9.94 5.573-5.258 20.976 4.962 29.234zm-18.362-121.73c11.127-.336 13.8-.38 13.154 5.442 1.884 10.807 4.48 15.854 18.534 15.015 14.178-1.548 18.683-2.34 4.273 5.913-7.25 3.02-9.6 3.586-18.102 2.644-8.572-.95-7.897-1.8-12.86 1.028-2.774 1.58-5.807 3.513-8.045 3.87-3.313.53-9.158 1.68-9.158 1.68-3.65 16.646-8.855 24.958-15.942 32.758-10.027 10.93-15.036 12.776-3.008 12.19 4.436.367 2.183-1.905 3.75 16.153.55 6.325 1.578 13.667 2.462 16.142 2.953 8.274 3.287 12.365-8.598 12.703-29.68 1.63-36.003-27.36-31.754-42.017.4-2.312 1.9-9.957 2.317-16.04.228-3.324-.386-6.154-.23-9.555 1.244-27.47 7.91-34.58 32.674-51.944 7.47-5.238 20.704-6.072 30.535-5.985zm26 2.02c13.686 0 26.766 6.846 20.085 10.975-4.318 2.67-19.684 1.206-23.894-1.922-5.434-4.037-3.26-9.053 3.81-9.053zm-610.523 10.74l-5.62 9.497-6.585 44.617.82 9.1 10.892 14.904 9.168-15.032 13.926.53zm639.733 8.75c8.823 1.957 9.006 10.053 6.652 14.985-5.177 10.847-38.434 15.458-38.434 15.463-.17-4.707.58-9.224-2.758-14.586 0 0 22.193-5.32 26.95-9.48 3.177-2.78 5.14-6.34 7.59-6.38zm6.042 25.044c3.2.1 4.87 2.47 5.642 7.222.36 2.546-.642 4.69-2.764 7.42-8.607 8.97-32.388 14.815-40.88 12.314-.587-.805 1.067-10.406 1.774-14.678 11.367.578 30.73-9.116 36.228-12.28zM747.61 183.62c-10.964-16.537-36.085-14.664-33.42-13.467.467-13.96-1.526-33.188-22.673-35.666-21.338-2.06-32.902 25.9-25.04 38.014-13.077-5.748-33.142 7.57-33.17 8.86-1.685.02-17.627 39.66 28.07 42.663 3.774 18.948 10.718 28.218 25.18 36.28l-2.818 153.954 5.02 7.094 3.788-161.32c23.43-.553 26.87-27.286 25.262-33.5 10.388.668 19.875-1.228 27.954-7.13l2.194 26.354s5.683-9.164 4.575-14.1c-7.064-151.403 50.996-313.83 124.977-418.367 3.93-4.37 5.2-9.66 7.112-9.66l28.892-15.192c28.584 14.47 79.44 49.028 79.44 49.028l-3.612 215.46c-.756-2.136 96.28-8.822 94.772-6.235 0 0-8.42-3.497-8.43-9.168l7.9-504.208-41.803-28.557s-35.3 22.05-45.214 29.63l-5.064 296.837-74.147-45.524s1.418-10.473 1.6-13.877c-.364-40.526-19.968-54.528-58.067-43.294-5.106 1.505-8.662 2.843-11.1.717-14.974-46.926-19.616-169.524-19.595-169.522L940.74-619.073l181.23 2.745-11.15 691.586-.928 362.603-93.878 65.457 3.445-232.22s-13.12-6.61-16.58-7.108c-1.3-.128-3.045 2.754-.72 4.305 3.354 2.237 11.654 5.446 11.654 5.446l-2.79 230.175-52.74 33.21c-12.14 7.202-50.44 25.513-73.12 36.044-8.8 4.086-17.668 7.327-18.493 7.974-30.856 12.51-58.624 21.146-84.395 34.187-17.74 6.834-16.8-.203-20.428-6.03-35.957-37.06-83.304-40.186-122.047-24.217-5.996 2.083-13.405 3.85-18.447 7.2-1.46 1.032-3.987 2.17-5.64 2.528-3.383.732-7.1 2.147-10.244 4.53-5.61 4.25-9.43 11.295-12.735 18.297-2.045 4.334-8.334 24.62-9.238 30.657-.15 1.01 1.945.828 2.015.93.26.376 6.413-24.595 8.746-29.296 4.983-10.04 11.124-15.982 14.33-16.873 1.458-.216 2.678 2.068.632 5.597-4.066 7.015-7.563 22.04-8.655 28.823-.98 6.26-1.253 11.298-.087 11.538.203.203 6.148-18.887 8.784-25.616 6.874-17.542 11.13-24.78 17.478-28.42 6.51-3.734 8.026-3.16 6.672.925-9.953 18.46-14.19 32.49-16.474 52.326-.368 3.956 1.633 4.112 3.354-2.42 5.67-20.755 13.442-48.826 30.612-56.9 7.32-3.13 10.538-2.904 9.712-.58-20.764 25.145-26.41 53.43-26.36 62.6.016 3.06 1.266 2.478 4-4.09 7.375-25.053 17.976-46.274 30.25-56.537 4.75-3.972 10.423-4.976 15.167-5.465 14.327-1.478 14.704 3.83 2.116 10.817-14.338 7.96-31.345 37.644-33.63 60.148-.79 7.788 1.95 8.69 4.117-1.67 9.328-44.63 48.347-73.46 78.847-59.103 13.723 6.46 16.056 15.09 4.08 11.025-24.246-8.226-51.702 8.51-63.374 32.416-10.552 21.612-10.576 33.078-4.076 62.446 4.286 27.09 13.015 61.775 9.354 88.145-3.462 5.07-13.91-2.4-26.393-4.2-7.52-1.57-16.735-2.117-24.68.737-6.926 2.488-10.837 3.064-12.033-.66-.386-1.2 5.445-6.9 8.055-10.066 4.17-5.06 1.858-5.93-3.987-.462-2.86 2.676-9.022 8.95-10.68 9.25-3.635.657-3.697-3.426-.562-13.75 11.08-40.11 8.352-40.852-9.057-49.382-17.28-6.995-11.702-10.226-19.28-16.984-5.524 4.135 6.6 23.883 20.706 28.435 11.53 3.724 9.994 9.628 4.584 25.484-5.615 22.233-15.02 51.62-10.342 71.564 9.828 41.903 52.16 41.928 84.918 25.75l3.734 10.707c-27.63 10.53-172.253 17.03-220.81 10.43-3.5-13.232-3.795-16.623-5-32.14 0 0 29.787 14.2 44.747 16.865 18.676 3.327 47.533 4.062 55.278-13.044 2.367-5.012.132-9.338-6.395-6.54-11.997 5.142-32.396 8.7-48.786 7.358-13.76-1.135-33.284-7.072-41.667-12.36-3.984-2.514-7.29-7.336-4.007-13.24 2.814-.563 6.433 2.608 8.59 3.772 24.6 13.058 38.183 15.777 54.495 11.3 12.374-3.396 29.217-16.322 25.203-20.17-4.184 1.36-18.203 12.648-27.756 14.976-19.666 4.792-40.354-3.596-60.4-17.177-6.158-5.57-3.213-9.477 4.377-4.97 30.116 15.95 42.597 26.376 72.16 5.475 6.605-4.69 10.22-3.997 13.98-.997 14.84 13.856 14.95 6.25 4.165-8.05-2.45-3.25-4.638-7.772-6.047-12.568-1.04-3.546-1.218-7.078-3.187-9.437-3.354-4.02-9.497-6.062-16.503-9.318-10.116-4.702-13.552-2.608-6.095 1.22 13.06 6.703 19.34 13.73 3.033 9.675-14.733-6.96-39.638-3.748-53.886 5.712-11.14 5.15-16.117 10.808-18.47-1.412-4.93-25.506 1.097-59.846-5.298-104.3-1.22-8.477-2.81-13.868-1.02-14.987 2.3-1.436 7.846 4.15 14.663 14.15 3.106 4.558 9.284 13.334 9.284 11.535.436-9.38-13.793-27.29-25.694-34.476-6.538-3.948-10.67-21.658-3.18-17.624 5.785 2.966 35.637 30.327 41.23 39.975 2.598 4.482 4.93 1.705 2.19-3.558-1.643-3.158-8.603-12.48-15.405-19.403-12.07-12.283-13.5-11.75-11.094-14.166 4.78-4.78 14.67 1.71 32.192 18.24 4.462 5.877 10.4 11.223 9.725 8.335 1.92-4.463-15.56-24.053-26.06-29.422-1.957-1.283-2.2-2.6-1.967-4.983 1.196-9.058 21.442 4.698 38.152 20.615 6.26 5.962 1.197-5.116-6.037-12.722-5.686-5.978-14.9-13.457-21.195-16.088-6.252-2.73-6.532-8.237-1.54-10.443 17.087-.368 34.35 17.443 44.572 31.377 2.822 3.828 5.42 6.786 2.552-.408-9.287-21.678-29.273-34.196-43.24-36.938-11.346-2.228-10.883-12.5-.205-11.118 11.747 1.523 30.806 12.548 46.807 29.332 4.655 4.883 12.43 15.9 10.914 9.5 0-1.737-4.88-8.64-10.538-15.313-13.094-13.555-28.393-25.612-44.8-29.448-7.658-2.338-30.614 1.6-30.67-2.368 0-2.93 2.487-4.633 9.82-6.906 28.456-8.822 69.32 16.316 91.177 54.117 1.564 2.705 4.605 3.904 4.805 3.306-10.3-30.734-43.66-59.1-70.56-64.387-18.302-3.325-36.91.978-45.97 13.172-10.192 13.72-6.7 32.43 8.203 31.243 7.82-.56 7.3-5.002 7.148-5.148-.52-.536-5.1 1.502-7.894.893-10.13-2.207-8.685-20.58 6.166-18.458 17.078 2.44 18.936 29.494-.312 34.776-17.766 4.876-24.07-3.323-28.702-12.99-6.786-14.16 1.275-36.598 13.927-45.003 35.414-23.527 79.15-2.293 103.605 22.268a110.74 110.74 0 0 1 26.178 41.849c1.382 3.575 4.01 3.42 3.15-.4-33.238-90.26-137.758-102.1-154.732-33.73 0 0-.585 2.087-10.36-12.44-15.843-23.545-40.117-29.22-70.47-14.018-30.574 10.772-40.956 17.822-62.217 28.268-3.09 1.023-22.815 14.04-25.876 11.186-29.385-20.376-55.224-27.65-69.07-42.424.54-2.65-1.143-42.852-1.143-42.852l4.27-173.1c.246-1.685-15.795.82-42.49 4.445-71.045 12.664-64.087-24.425-73.396-27.236-4.926-1.092-4.604 1.036-3.195-132.464L70.917 58.59l1.38-82.43c.413-.776 4.46-4.106 9.105-7.257 17.492-11.863 27.328-19.057 65.65-47.068 8.68-6.343 10.856-7.402 10.856-7.402 2.675 80.28-2.95 164.415-2.242 233.397l3.186.082 3.543-231.514c-6.473-1.84 150.676-89.512 236.377-117.237 1.607-.52 5.55 1.335 5.55 1.335 47.602 60.872 176.48 45.402 188.343-27.264 20.374 44.867 112.13 133.127 157.02 29.952 0 0 14.87 30.212 28.12 32.46 29.787 4.583 33.197-.063 99.6-30.597C799.88-82.443 755.937 37.47 747.61 183.62zm-39.366-29.264c1.54 5.07 1.963 11.595.445 16.706-2.002 3.978-4.86 3.863-4.86 3.863l-14.3-12.745-14.514 12.913s-8.532-8.96-3.496-21.034c9.458-16.817 30.25-13.317 36.726.298zm376.19 5.76c9.332-.396 4.294 10.23-9.644 17.21-8.747 4.38-15.948 5.52-19.02 3.807-1.598-5.07-.062-9.633 1.043-11.654 5.945-2.898 22.216-7.866 27.62-9.363zm-602.078 7.778c10.353-.038 19.17 7.52 19.23 20.586.025 5.323-2.814 10.542-2.814 10.542l-17.026-13.102-13.5 13.812c-2.268.74-10.15-9.518-4.362-20.385 4.208-7.9 11.387-11.426 18.47-11.452zm249.87 11.158c14.408 6.895 16.51 27.286 2.204 34.83-6.8 3.585-17.42 5.44-22.216-2.195l14.617-15.294-16.127-14.148c-.628-.655 12.728-7.402 21.522-3.193zm349.225 1.863c2.506.048 3.124 1.02 3.796 3.376 1.905 6.685-3.42 13.263-12.417 15.192-8.315 1.783-7.547 2.767-11.313-4.708-2.95-5.857-3.776-5.63 1.067-7.364 5.847-1.766 12.105-3.837 18.866-6.496zm-413.872 1.434l-15.143 14.568 15.198 16.527c.708 1.985-18.13 10.05-27.685-2.9-6.204-8.406-2.29-24.07 6.87-29.285 9.357-5.326 22.512-.47 20.76 1.1zm22.283-1.372c9.17.056 16.544 7.523 16.488 16.695s-7.522 16.58-16.692 16.523a16.64 16.64 0 0 1-16.519-16.726c.056-9.172 7.553-16.548 16.723-16.492zM462.35 204.23l-15.213 15.284 15.743 17.86s-12.784 1.82-17.293.878c-21.837-4.556-19.162-30.225-2.067-36.674 7.207-2.363 12.5-1.412 18.83 2.65zm-292.4-.74s2.248 33.09 4.693 44.426c-2.03 12.837-10.533 21.428-14.553 34.568-2.117 5.84-9.785 13.59-11.06 5.276-5.204-10.347.233-22.894-4.095-30.276-2.125-6.847-1.367-10.763-2.733-17.923-3.183-5.862-5.782-8.655-5.226-13.907-.406-23.37-6.333-18.86-16.735-17.165-8.598 2.64-20.155 3.537-27.015 8.397-14.89 10.03-7.025 16.122-12.88 31.61.732 6.855 2.35 9.354 1.03 15.225-6.237 27.758 4.26 25.662 3.933 26.087-4.485 6.316.59 20.836 2.69 20.142 12.686 3.39 7.875 12.608 11.92 17.636 4.064 4.864 3.797 7.27 21.26 8.068 31.512 3.12 81.762-.538 93.398-38.8 7.88-54.133 18.75-101.74-44.626-93.362zm313.898 1.163a16.03 16.03 0 1 1-.196 32.062 16.03 16.03 0 1 1 .196-32.062zm-300.143 2.225c5.967.05 12.972 1.45 18.64 7.114 12.143 12.133 12.457 22.913 6.017 68.507-1.814 12.844-6.57 23.515-12.67 28.08-12.254 9.17-27.155 15.58-39.386 18.322-6.452 1.447-12.037 1.367-16.38 1.243-4.7-.133-7.38-2.358-7.647-6.297 1.252-10.622-9.592-11.882-15.896-11.4-11.227.213-12.397 1.37-5.287-3.907 8.114-6.023 26.524-5.732 29.944-2.035 7.327-7.04 14.833-7.724 24.017-8.603-1.316-2.022-4.435-10.063-2.157-15.138 4.918-8.245 13.205-22.8 21.7-28.15 8.514-10.67 1.37-5.915-3.776-5.836-2.94.045-2.67-.918-3.107-2.894-1.872-8.5-4.494-24.342-4.324-33.746.082-4.532 4.344-5.3 10.31-5.25zM130.65 217.49c3.18 2.947 3.057 6.967-.41 9.9-3.964 3.343-11.654 1.294-11.71-5.15.65-6.5 8.266-8.17 12.12-4.738zm558.84 34.433c-13.465.393-24.242-14.228-18.874-28.465 2.856-3.826 4.042-3.243 4.042-3.243l15.03 13.998 15.006-15.065c11.8 14.852 1.057 32.02-15.204 32.775zm-575.237-34.167c-1.19 4.174.174 8.387.313 10.43-2.704 1.844-14.127 4.928-20.277 7.8-4.26 1.367-7.242-2.672-6.58-6.3 1.742-6.727 11.778-10.94 19.044-12.884 2.24-.5 5.917-.63 7.5.943zm2.09 19.397c4.104-.41 2.717 8.485 1.086 13.014-1.594 3.23-6.1 3-10.16 3.153-7.172.27-16.368 8.346-20.218 6.936-1.27-.62-2.12-4.038-2.212-6.2 1.087-11.9 20.953-15.85 31.504-16.9zm21.386 12.85c-1.41 1.967-5.82 2.84-9.478 1.754-5.98-1.775-6.727-10.432-1.387-13.3 9.388-2.892 14.81 5.973 10.865 11.535zm594.804-7.39l-8.417 12.26-12.4-.482 18.773 61.93 9.77-23.847 4.546-33.067zm-263.964-.263l15.594 13.267 13.9-13.63c9.654 22.773-2.222 32.862-14.62 32.333-13.68-.584-28.002-13.856-14.863-31.97zm-348.67 16.137c5.045-.85 2.614 12.69 1.906 13.065-3.23 1.118-17.102 2.64-23.027 7.43-12.607 9.465-17.78 3.423-11.792-8.104 5.58-6.66 25.706-12.412 32.913-12.392zm15.772.972c5.54-.403 9.3 5.794 5.794 11.553-4.67 4.165-12.645.876-12.488-5.156.05-3.792 3.235-6.27 6.694-6.397zm-8.865 34.3c.693 3.186-.396 2.183-6.24 3.774-3.22.877-8.298 2.91-13.593 5.448-7.766 3.72-9.965 5.765-12.686 5.266-2.158-.518-4.637-1.507-5.262-3.717-2.496-8.832 4.836-17.632 21.613-23.433 3.49-1.206 9.702-2.11 11.827-2.302 5.65.133-.568 8.687 4.342 14.964zm10.11-13c8.05.05 9.34 10.765 3.278 12.52-14.172 3.354-12.648-12.724-3.278-12.52zm-10.738 39.154c2.22 2.22 2.466 5.8-.11 7.593-4.696 2.2-22.5-.124-22.527-5.138 0-3.308 5.993-4.304 11.542-4.298s9.317.067 11.093 1.842zm805.926 22.123l-15.116 19.377 18.722 49.834 19.267-59.477-14.28 5.32zM98.75 375.62c.26 152.29-7.518 501.1-7.518 501.1l42.706 30.343 46.282-31.836 4.588-287.21 66.066 38.093s2 3 1.397 16.728c-5.4 37.838 30.766 63.22 55.41 48.746 9.47-3.752 10.25-4.437 12.176-1.43 5.303 8.274 10.748 43.345 11.32 65.66.86 33.623 8.284 102.292 10.405 102.795L229.006 1040.7l-169.568-2.678 12.22-685.553c8.594 10.564 12.474 17.454 27.093 23.16zm631.42-1.642l-8.417 12.292-9.84-.217 15.948 64.068 22.187-61.865-11.488-1.664zm-555.093 496.8l-28.33 18.982c-3.58 1.26-5.308 1.472-6.08-1.944-.95-4.198.878-12.07 2.622-25.11 1.612-12.056 1.62-12.737-.035-30-1.727-18.032-1.962-18.79.23-42.5 2.444-26.444 3.34-52.153 1.573-68.117-1.68-15.176-.94-49.696.985-68.933 2.356-23.553 2.174-44.263-.56-61.442-4.876-30.63-5.57-41.157.642-63.997 2.324-8.547 3.486-13.095 3.337-27.5-.167-16.006-.357-21.234-5.35-56.774-2.875-20.46-3.07-23.264.683-55.466.757-6.498 1.06-10.848 3.583-12.863 2.946-2.353 33.17-3.486 33.17-3.486zM105.87 376.342l32.888.322c-2.75 10.245-3.48 18.07-3.895 25.512l-28.81-19.802zm.2 13.17l28.522 19.476c-.132 7.967-.884 15.55.11 23.536l-28.906-20.056zm-.566 29.956l30.51 21.796c1.037 8.266 3.384 16.65 4.198 24.076l-34.59-24.467zM1105.97 448.47l-10.93 607.85-308.043-4.98-93.755-189.625s1.35-17.236 3.946-25.992c3.138-10.584 3.965-12.888 8.07-13.307 10.842 5.903 23.212-1.394 27.122-9.624 4.815-10.134-4.188-25.8-18.426-29.46-6.28-1.632-13.23 1.062-20.31 6.235-4.118 3.296-5.028 3.658-5.774.702-1.68-6.658 4.57-24.536 15.4-39.77 6.023-8.473 7.655-10.9 9.48-7.602 7.377 13.378 23.84 10.98 30.22 3.64 7.72-8.883 6.57-29.524-10.38-35.337-33.164-11.375-49.18 21.815-48.762 21.74l-6.317-40.317c40.392-9.02 63.663-12.02 76.678-23.943 10.243-9.383 15.374-25.87 14.438-40.644 0 0 112.578-43.05 165.404-70.135 90.96-46.636 171.94-109.428 171.94-109.428zm-170.085.894l-8.555 14.354-11.715-.228 22.43 61.826 19.418-63.664-11.315.774zm-829.545.483l34.95 25.183c.61 7.954 1.483 15.046.235 24.02l-36.813-25.46zm691.872 6.768l-9.07 11.538-10.146-1.28 18.684 61.147c6.426-17.43 12.437-41.15 18.793-58.605l-9.437.255zm-693.14 24.443l36.183 25.06c-.014 7.508.195 14.585-2.527 19.833l-34.165-22.928zm761.015 19.223l-9.258 16.944L845 515.37 865 574.026l24.377-57.196-14.375.474zm-761.532 9.087l31.325 24.018c.45.345-1.997 10.62-1.6 16.477l-29.876-19.277zm.26 28.908l29.24 20.992c-.093 7.727.284 15.004 1.367 21.603l-31.768-21.57zm-1.118 29.43l33.785 25.12 1.41 19.658-35.854-23.596zm282.11 14.01c32.654 12.95 62.217 76.174 59.596 157.185-1.82 56.24 13.516 136.888 13.218 135.953 0 0-9.57 1.08-12.228-1.093-11.54-41.56-14.77-85.293-15.983-121.332-.985-30.052-2.104-59.55-3.863-66.468-4.908-24.32-10.183-52.687-25.273-71.407-11.768-14.124-25.46-16.823-33.996-1.412-6.99 12.623 6.737 34.035 18.642 27.258 2.875-1.54 4.628-4.21.9-4.21-12.243 1.558-20.093-15.5-12.203-23.388 13.896-13.893 37.043 18.18 25.645 35.332-5.018 7.416-17.764 8.48-27.885 5.5-22.4-11.414-27.535-38.33-19.594-55.833 6.056-13.347 18.905-21.128 33.023-16.086zm-39.974 7.224c2.67.18.747 5.074-1.882 12.715-6.204 18.318 4.126 47.185 19.13 53.204 4.474 3.183 4.205 4.35 1.142 5.99-9.988 5.345-27.562-11.666-31.91-30.302-3.145-13.483-1.975-29.295 4.6-35.88 3.6-3.6 6.44-5.475 8.346-5.7.2-.023.385-.04.563-.028zm-243.05 5.855l36.123 24.7c1.55 7.505.636 15.45-.675 23.465l-36.125-26.3zm220.962 4.26c2.717-.03 1.61 4.5.684 12.79-2.148 19.2 3.524 33.31 16.868 45.202 5.63 5.017 7.168 6.585 4.65 9.105-3.576 3.576-13.512-1.52-21.215-9.9-14.103-15.324-18.292-43.79-6.85-53.836 2.51-2.205 4.44-3.355 5.863-3.37zm407.2 11.748c15.66-.285 28.74 6.057 29.8 25.2 1.55 28.042-24.852 42.814-42.716 26.364-15.975-16.475 1.076-41.396 19.736-29.17 9.38 6.193-2.245 19.628-9.788 12.402-3.402-3.26-4.966-1.31-2.577 2.422 7.212 11.264 22.055 2.327 21.21-7.48-1.665-19.282-25.308-19.522-34.364-12.172-12.393 10.058-23.436 25.02-31.668 35.917-6.753 9.463-8.154 9.178-6.94-2.66 3.205-31.284 32.88-50.388 57.31-50.833zm-426.222-2.677c2.494-.04 1.43 3.515 1.43 12.732.517 23.674 10.182 38.606 22.657 47.108 4.14 4.768-1.352 7.974-9.28 5.545-18.05-5.97-35.792-45.39-20.048-61.856 2.21-2.31 3.933-3.5 5.24-3.53zm-17.823 7.39c2.52-.108.99 5.09 1.024 14.962.07 20.778 6.29 30.884 21.468 43.878 4.946 4.234 5.58 3.783 3.547 6.03-5.414 5.982-23.15-3.01-30.532-15.607-8.785-15-9.66-37.348-1.028-45.6 2.414-2.3 4.2-3.597 5.52-3.654zm-17.774 9.64c2.084.054.844 3.782.98 12.756.33 21.762 5.073 32.628 18.662 42.972 8.538 6.5 10.684 4.648 7.982 7.094-4.734 4.284-17.357.26-26.718-7.98-14.032-12.352-17.427-42.175-5.608-52.12 2.108-1.774 3.61-2.75 4.703-2.72zm-166.34-.362l34.683 25.12-1.42 20.574-34.518-24.42zm614.41 51.326c-14.267-3.23-19.47-13.68-17.487-25.36.663-3.903 2.996-6.093 5.345-.93 1.94 8.163 7.123 19.53 14.483 21.87 2.964.942.387 5.036-2.34 4.418zm-307.542-30.678c15.314 41.002 14.11 85.44 15.92 127.485 2.408 55.888 11.504 93.682 14.598 100.085 0 0-15.778-.145-16.53-2.446 0 0-13.357-74.325-10.36-110.88 1.007-40.957-6.222-77.127-10.76-93.408-4.853-14.443-5.272-4.976 7.13-20.835zm-307.685 9.535l33.392 22.83c-.635 7.564-.86 15.137-.92 22.713l-32.696-24.17zm455.217 7.506c.002 1.233 4.847 2.37 12.52.683 8.516-1.873 16.952-1.336 23.423.587 6.884 2.044 7.69-.172 1.487-3.035-3.025-1.396-7.82-4.53-15.096-4.55s-22.333 3.63-22.333 6.315zm137.135 1.978c.794 1.536 3.3 5.005 5.545 7.722 4.25 5.144 5.476 5.204 3.452 7.228-4.66 4.662-14.106-2.43-14.953-11.243-.76-6.44 2.525-10.428 5.956-3.706zm-303.133-4.53c15.34 22.86 16.583 75.758 16.13 113.332-.406 33.836 9.757 96.055 10.686 95.808-3.296 1.852-7.664 1.09-11.744-.582-3.955-5.38-6.14-20.28-10.03-60.58-1.004-10.397-2.71-43.444-2.7-70.022.01-23.45-12.034-74.444-12.034-74.444s5.157-3.5 9.7-3.5zm-17.714 5.272c13.746 32.453 15.43 64.43 15.278 103.19-.144 36.662 7.108 79.764 9.796 98.774-4.875.404-10.016.703-12-1.53-1.26-1.804-2.232-4.608-2.794-8.21-5.9-31.833-6.754-66.33-8.033-95.52-1.885-45.236-2.38-56.432-8.318-79.086-3.37-12.85-4.65-12.608-1.858-15.01 2.123-1.826 6.125-2.68 7.94-2.608zm161.838 10.74c.088 14.973 2.14 8.915 7.47 6.64 3.986-.257 7.19 1.986 14.53 4.854 9.347 3.652 8.473 4.795 15.16 1.684 4.124-1.92 7.394-2.544 9.314-.917 7.6 6.448 17.672 3.113 23.397-1.864 4.434-2.2 9.197-.852 12.903-.434 5.346.603 4.02-2.84 4.82-9.595.7-5.997-1.573-6.57-7.83-4.673-6.402 1.942-12.722 2.11-18.206.3-14.025-4.6-24.413-2.015-31.434-1.06-16.58 2.257-17.426.57-21.123-1.874-2.758-1.824-7.3-5.174-8.898-5.11s-1.18 5.493-.107 12.038zm146.75-3.847c1.59-.77 2.27 1.38 4.4 4.277 3.56 4.843 4.583 7.11 1.507 7.492-8.14 1.007-10.14.117-9.75-4.922.3-4.018 1.227-5.576 3.846-6.847zm-325.728.376c11.666 12.25 13.298 79.655 14.353 94.18 2.672 78.647 9.895 90.086 5.942 95.903-4.508-.17-6.115 1.468-8.978-2.535-9.602-28.987-8.4-58.548-9.43-88.603-1.51-39.81-5.012-61.427-10.198-81.246-3.448-13.178-3.4-13.394 3.384-16.855 1.203-.614 3.855-.904 4.926-.845zM340.1 681.61c3.997 9.63 11.532 53.173 11.903 90.64.295 29.748 6.194 88.023 7.502 88.368-4.342.305-9.526-.683-11.564-4.01-11.812-57.575-6.524-113.043-20.357-170.98.952-2.775 5.8-7.284 12.516-4.015zm-238.23 2.15l34.585 25.9.306 21.502-35.302-26.166zm521.83 8.066c-19.978 7.284-25.24 13.49-22.235 19.103 2.53 4.727 10.45 3.25 31.743-5.126 15.915-6.26 20.806-3.283 23.804 6.724-.46 14.677-14.73 16.092-22.723 13.907-3.45-.203-2.944.127.64 4.802 16.072 13.16 36.633-11.497 26.974-27.6-7.518-14.684-20.958-19.097-38.203-11.81zm-124.535 3.388c-16.617 12.498-11.252 35.743 2.285 39.494 3.748 2.002 9.41 1.21 11.655-.2 2.07-1.31 2.097-3.513-2.067-4.294-12.59-2.362-19.575-11.778-13.275-21.05 6.114-8.998 17.057-7.02 37.977 2.514 18.087 8.242 26.14 5.978 28.484-3.42 1.035-4.15-.04-8.082-8.8-8.588-24.332-1.406-40.173-16.554-56.27-4.447zm218.14 39.92c-.948-6.678-11.907-.074-19.32 11.572-7.29 11.456-8.058 13.1-9.244 1.024-1.77-18.008 17.162-31.673 28.8-31.883 14.038-1.326 23.076 6.7 23.247 15.735.338 17.787-20.874 17.526-23.484 3.552zm-616.792-23.35l36.65 26.3s.973 13.713.02 21.05l-36.842-24.664zm446.2 17.795c-16.394 10.633-7.306 30.844 3.957 33.33 11.874 2.62 12.884-5.684 1.082-8.384-6.286-2.62-7.783-8.687-5.216-13.295 5.844-9.133 16.173-2.93 22.194.08 13.36 6.7 20.3 9.2 24.653 4.84 7.733-7.734 1.272-21.934-8.83-17.18-2.726 1.283-4.782 2.512-10.492.97-8.674-2.004-19.088-4.165-27.348-.36zm-446.52 12.57l36.054 25.793-1.573 22.116-33.815-25.902zm.126 30.448l33.9 25.226c-.7 9.345-.543 13.074-.292 19.043l-34.32-23.18zm608.155 17.28c27.528 3.266 17.73 34.765-1.35 25.813-5.057-3.97-6.6-3.7-12.603 10.093-7.666 17.63-9.417 16.147-8-4.375 1.15-20.097 10.63-31.608 21.944-31.53zm-217.413.336c.65.03 1.176.15 1.497.415 1.82 2.13-3.944 10.286-8.787 15.04-3.544 2.222-11.91-4.15-9.786-7.126 2.47-2.9 12.62-7.972 17.075-8.33zm36.466 17.08l-4.943.605c-7.103-16.74-22.648-13.26-27.74 2.043l-6.782-.913c7.257-18.74 31.986-29.818 39.466-1.734zm138.797 6.656l-8.35.328c-7.113-18.15-17.657-21.06-27.007-3.466l-6.424-2c11.588-22.492 30.22-23.932 41.782 5.14zM625.04 792.56c4.274-.17 3.68 1.785-.887 7.768-3.97 5.2-4.927 6.01-8.75 3.05-6.268-4.858 4.432-10.574 9.636-10.817zm39.518 1.346c.815.066 1.764.165 2.84.455 8.555 2.304 12.417 6.458 8.09 11.6-2.696 3.204-5.284 4.43-6.97 2.21-5.604-9.688-8.717-14.65-3.962-14.265zm-130.022 2.98c.826 3.58-2.046 6.052-5.126 3.025-1.255-1.233-2.324-3.316-2.135-4.827 2.006-1.812 6.677-.177 7.26 1.8zM99.4 800.14l34.84 26.133c.977 8.973 1.075 15.773.895 21.883l-35.908-24.88zm515.332 18.343c20.082 14.38 43.972 14.687 59.166 2.734 3.396-2.67 6.313-2.73 6.313-.094-2.33 9.742-28.565 21.756-48.708 14.224-11.065-4.138-20.143-8.2-27.242-18.764-4.207-6.87 4.647-2.312 10.47 1.9zm-8.762 6.625c29.243 26.303 53.06 19.657 71.267 7.074 2.662-.607 2.657 1.778 3.155 6.225.64 5.698-4.137 8.406-17.115 12.003-25.092 6.953-54.182-1.83-59.106-18.666-.55-3.302-1.726-7.6 1.8-6.637zm-507.315 4.916L134 855.365l-1.53 18.775-34.438-24.336zm-.02 28.813l33.372 23.644-.43 15.558-32.44-24.137zm245.69 12.38c143.722 35.655 246.378 22.252 347.172 6.626l85.372 176.37-536.2-10.355c36.186-55.998 66.598-117.417 103.646-172.64z" fill="#131f67"/>
        <path d="M-84.202-749.984l-.393 19.027 19.46.402-3.418 165.527-19.46-.402-.423 20.496 56.538 1.168.423-20.496-14.994-.3.97-46.96 23.36-30.993L10.29-563.4l-21.74-.45-.423 20.496 61.66 1.273.423-20.496-14.744-.304L-7.6-664.634l44.23-64.132 15.893.64.393-19.027-61.224-1.264-.393 19.027 17.65.364-53.657 78.753 1.648-79.827 15.43.32.393-19.027zM388.985-637.97l25.687 50.507.01 2.35 14.173 29.154 2.198 1.475 3.2 6.353.308 3.064 7.974 13.362-.11 2.832 33.637 65.8c29.074-10.177 266.47-24.678 353.567 8.865l13.228-21.402 3.06.042 23.355-39.08-.3-3.334 7.763-8.493 1.183-3.917 25.673-38.413.218-6.273 32.178-51.22zm536.46 18.55s-16.867 30.86-25.488 43.295c-6.655-5.477-26.343-2.258-25.6 18.444-31.723-12.774-40.22 25.21-15.677 34.31-12.915 10.816-24.78-1.964-34.222-10.658-9.456 2.137-29.13 8.647-39.77-11.927 0 0 4.572 2.592 9.13 5.4 25.988 8.492 28.826-26.756 9.493-32.936-2.436-.695-7.04-1.052-7.04-1.052 7.1-27.005-34.684-37.346-36.152-4.747 0 0-4.974-.918-8.775-.306-22.337 3.597-17.916 36.522 4.862 35.42 3.14-.152 5.928.466 5.928.466-.48 5.248-28.215 14.723-47.672-3.766-9.553 6.97-24.625 15.643-43.665-2.62 12.775-.256 25.1-3.636 25.25-18.108.104-9.423-8.193-18.006-20.395-18.706-.475-10.54-8.105-20.745-18.27-21.726-12.44.47-19.002 10.363-19.308 20.95-10.59.873-20.667 9.983-18.615 20.714 2.8 14.64 14 16.664 26.864 14.15-16.107 24.74-41.218 11.144-48.874 2.992-9.498 8.502-25.987 19.94-45.665 3.433 10.702-1.605 22.7-7.616 20.997-22.54-1.335-11.76-14.426-15.515-20.16-15.013.147-7.75-5.44-20.657-19.282-19.62-15.103 1.13-14.595 20.21-14.42 20.363-12.426-1.283-21.76 13.173-18.404 22.594 4.085 11.465 13.058 15.188 29.743 12.46-19.768 17.8-31.94 10.48-42.445 6.437-9.572 9.627-22.147 12.536-34.792 3.564 28.66 1.96 25.144-48.856-9.263-31.167-2.745-9.576-6.887-21.38-24.764-19.015l-19.494-39.63zm-657.577 18.864a86 86 0 0 0-4.471.095c-55.027 2.378-76.105 40.162-74.216 74.046 1.274 22.867 13.327 42.615 31.206 53.562 7.64 6.075 9.225 8.328 7.803 11.07-1.678 3.235-3.846 2.876-8.162-1.263-61.626-61.453-151.612 7.385-114.06 86.195 29.86 62.67 117.534 50.12 137.71-19.286 1.604-5.517 4.05-7.877 6.6-6.303 1.81 1.118.21 8.28-1.5 19.192-.7 39.512-43.105 100.844-45.468 102.896l107.8 2.133c-24.03-34.28-37.85-67.704-39.855-115.973 0-14.594 5.397-11.373 9.673 5.263 19.51 75.902 115.48 77.18 138.76 4.116 21.72-68.17-53.456-127.065-105.027-81.936-7.415 6.49-12.37 7.62-12.37 2.776-.002-2.062 6.955-9.555 13.295-14.29 12.833-9.586 23.743-27.803 24.24-46.478 1.006-37.736-26.293-75.398-71.966-75.815zm-64.55 320.204l-.125-.003c-.02.08.04.075.125.003zm453.74-294.6c1.39-.03 2.858.29 4.29 1.058 4.44 2.376 5.198 6.378 2.342 12.207-1.004 2.048-2.44 4.4-2.26 6.58 30.387 58.92 100.577 34.317 107.69 7.38.45-1.708-.307-3.604-1.168-5.463-2.585-4.51-2.156-8.15 1.386-11.13 7.547-6.35 18.022 1.545 13.54 10.22-1.183 2.29-2.43 4.796-1.632 7.905 17.045 40.977 52.588 44.764 82.8 29.3-14.274 24.363-67.94 38.374-89.12-21.438-36.758 47.612-93.486 45.527-118.114-9.597-24.317 55.362-94.225 55.24-118.703 8.332-24.248 52.583-77.693 39.436-92.216 5.9 49.133 37.13 82.776.124 89.014-15.822 0 0-1.12-1.9-2.678-3.494-6.253-6.396-5.925-13.762.748-16.55 8.55-3.572 16.315 4.726 11.802 12.62-1.264 2.21-2.355 2.68-1.595 4.624 14.776 36.503 91.005 48.595 107.538-1.842.585-2.89.34-5.576-.933-7.802-3.508-6.137 1.252-12.883 7.27-13.01zM433.48-559.067c12.044.934 8.466 11.234 6.034 11.97zm447.613 15.714c.078.197-7.712 13.28-7.712 13.28-3.85-6.44-2.653-14.33 7.712-13.28zm-42.145 66.05s-8.05 16.875-10.627 18.253c-142.07-39.542-342.008-11.84-346.982-8.416l-8.436-16.71c125.747-22.437 250.498-14.514 366.045 6.872zM-25.126-500.93c-4.424-.038-9.11.877-13.967 2.962-25.068 10.76-27.785 39.206-5.94 62.172 3.48 3.66 6.34 7.124 6.34 7.695.001 2.54-2.515 2.027-8.526-1.77-33.704-21.286-67.527 2.727-54.392 38.635 10.61 29.002 54.952 25.552 62.444-4.868.997-4.058 3.996-6.498 5.244-4.268 1.065 1.903-2.503 17.398-5.974 25.976-4.557 11.264-7.248 17.156-9.95 21.737-3.292 5.583-3.548 7.434-1.104 8.073 3.517.92 42.225.656 42.225-.284.001-.52-1.545-4.332-3.45-8.51-7.44-16.328-12.8-44.434-9.05-47.54 2.107-1.748 2.776-.82 5.407 7.52 12.998 41.23 64.66 32.416 64.57-11.013-.06-29.545-26.807-43.072-51.524-26.07-5.622 3.867-7.266 4.054-7.707.966-.18-1.233.815-2.63 2.8-3.912 31.272-20.218 13.516-67.233-17.45-67.5zM592.45-229.152c-14.887 52.912-48.382 57.635-88.838 63.273-50.107 6.983-82.278-11.888-96.924-40 0 0-71.983 25.52-98.37 40.665 53.68 25.952 124.142 82.415 163.554 145.69C485.977-.198 485.334-4.52 484.448 37.237l-2.41 124.227c22.3 3.812 23.197 19.216 21.622 36.464 18.1-7.556 35.178 2.5 34.752 19.437-.784 31.13-31.193 22.04-37.474 18.478 9.38 27.647-2.53 38.768-14.477 39.87-14.73 1.358-31.44-6.056-25.877-37.362-16.148 5.894-36.198-5.836-38.62-24.804l-.12-32.04c41.16-73.743-7.326-135.395-53.616-156.297 0 0 13.777-27.05 31.022-34.367 1.75-.488-9.983-18.485-30.408-15.037-9.367 0-7.187-.02-15.76-11.64-16.945-22.973-25.11-24.692-42.576-.848-7.688 10.496-9.48 10.75-18.316 10.75-9.735 0-24.813 6.68-28.14 12.86-.762 1.413 3.024 2.95 7.97 8.98 7.118 8.673 18.13 20.613 16.1 32.496-38.783 14.855-104 82.21-38.73 171.518l-48.523-.377 4.152-313.044-34.123 18.08-3.563 245.197-9.555-3.386c2.354-78.186 2.788-156.36 1.938-234.573l-90.3 62.993-3.624 367.69 9.423 2.195c5.986 50.233 105.912 17.25 111.614 21.715l-3.03 204.293-4.55 10.033 78.044 44.777 73.182-36.06s9.81-1.557 13.508-3.41c30.35-15.203 52.652-11.19 68.495 12.354l11.437 16.677c6.956-41.183 43.894-55.652 79.192-44.124 25.963 8.48 61.124 35.254 71.392 67.27 0 0 1.865 4.824 3.76 7.017l1.486.687c-.076-.83-1.626-4.826-2.204-6.766-34.9-84.913-137.878-99.952-155.224-31.524L408.13 586.84l77.847-45.56 103.62 71.31s-5.44 24.203-6.216 34.692l1.794.88c.54-1.314 1.4-6.343 1.915-9.494 1.905-11.446 5.148-21.026 9.428-28.31 2.58-4.4 5.533-7.945 8.812-10.57 6.35-3.515 12.16-3.02 18.652-8.867l-15.1-11.783.416-36.812 29.94 43.815c9.74-2.043 47.73-12.53 69.866.41 2.512.835 35.55-7.85 55.05 38.395l99.302-38.864s6.35-3.406 6.433-4.337c-97.428-38.262-193.906-168.6-184.324-170.467 0 0-.02-13.17 1.407-45.45l3.216-108.847c-33.19-11.36-24.33-38.12-24.33-38.12-20.175 3.992-23.296.025-28.31-3.617L634.8 181.09c12.256-10 19.5-10.806 34.337-7.23 0 0-6.92-14.96-.1-27.008 5.73-9.523 20.584-15.303 32.202-8.274 14.985 10.67 9.692 32.27 7.46 35.255 15.943-6.75 35.094 1.535 39.52 17.257 3.32-46.152 8.403-97.792 18.504-137.897 18.593-72.38 48.148-147.97 84.434-207.145 5.94-9.888 13.467-19.76 19.568-29.008 5.655-8.23 8.374-13.58 8.374-13.58s-7.58 3.974-15.562 6.024c-11.474 2.86-20.126 5.627-21.455 6.902-8.49 6.854-19.548 11.835-28.57 15.538-31.787 11.623-52.607-7.12-65.122-35.345-8.02 35.353-41.172 64.723-88.763 45.063-26.8-14.948-35.142-24.324-59.715-62.4-2.05-3.88-7.45-8.406-7.45-8.406zm.925 5.824c17.206 35.842 43.54 61.53 69.437 72.115 46.29 16.243 77.652-12.966 86.886-40.206l8.68 15.418-71.602 48.653-105.084-69.905c1.814-1.595 11.83-25.254 11.683-26.076zm320.392 9.063l-31.996 17.968-29.014 46.067c-38.224 64.384-67.37 134.685-83.258 204.7-6.364 25.627-13.527 72.528-16.057 95.095-4.036 36-4.185 50.81-3.92 83.906l2.412 2.738s-4.015 6.72-6.912 12.39c-7.87 15.414-9.897 24.182-9.8 42.244.195 41.563 24.623 81.85 59.96 98.8l4.642 2.2s-6.456 16.4-17.793 27.826c-7.563 7.614-9.157 7.96-6.62 11.835 3.53 5.39 15.185 10.25 29.787 10.336 5.168.03 5.136.017 14.468 10.613 18.22 20.687 23.83 20.386 41.266-2.273 5.183-6.736 8.086-8.315 15.453-8.34 10.838-.035 30.79-8.37 30.79-12.46-13.216-6.183-28.04-36.953-25.575-37.223 73.73-37.092 90.838-116.777 38.784-176.706l50.89.238-4.716 319.19 32.916-20.168 4.383-248.365c3.485.736 6.997 3.316 13.776 4.563l-2.85 234.866s6.673-2.548 12.503-6.18c28.816-18.143 85.37-60.313 85.37-60.313l5.567-361.93-7.434-.154-6.282 361.73-87.672 61.297 4.08-224.807 9.4-1.18c25.352-3.016 37.727-35.014 21.384-56.414-5.8-7.596-1.587-6.98 11.126-9.147 22.498-1.516 35.285-18.236 29.004-30.47-2.694-5.248.94-4.612 3.415-9.494 1.636-3.846 1.443-8.662.852-12.485-.776-5.018 1.32-7.19 2.65-10.354 2.086-4.958.28-10.645-2.932-15.408-3.39-5.027-2.316-10.325-2.28-13.613 0-7.353-2.636-8.457-10.27-15.715-5.775-5.49-1.027-6.565 7.724-10.843 13.768-6.73 15.218-31.527-2.685-42.47-9.57-5.85-27.2-5.753-65.52-.51-14.528 1.988-31.565 3.16-31.565 3.16l3.303-214.446zm-.103 5s76.61 46.977 75.973 48.235C962.855-125.89 862.78 14.263 858.53 186.15c-71.05-10.412-101.365 44.69-104.823 44.408-5.017-210.606 83.47-359.384 128.534-422.374zm-49.488 26.67l-.356 5.15-15.843 22.646.068-22.972zm-23.905 7.508l-.202 37.004-31.983 23.407-1.046-38.624zm-292.02 2.44l15.95 11.52-1.32 36.7-23.45-44.837zm442.68 21.52l-.423 26.56C926.62-38.266 891.98 61.097 879.406 187.58l-15.108-.812C870.9 60.874 915.676-53.194 990.93-151.126zM570.43-157.09l37.78 25.817-2.52 41.832-34.306-23.026-3.072-8.628zm231.802 6.57l-.96 38.926-30.035 21.353-.576-38.676zm-358.745 2.78c4.387.144 7.826 3.412 8.523 9.5 2.714 25.94 22.55 18.88 27.073 26.752 1.716 2.7-2.53 4.908-15.98 3.546-24.664-2.358-42.257-22.713-29.358-35.614 3.307-2.915 6.74-4.273 9.742-4.175zm170.364 20.21l32.275 21.515-.982 42.99-31.645-20.22zm149.215 3.207l1.745 38.075-36.29 23.068-.5-37.8zm68.124 1.563l-21.458 43.347-121.7 83.818-98.19-66.5-17.59-42.622 114.542 78.163zM507.438-112.07c31.875.267 55.63 34.602 63.39 64.416 5.68 19.725 6.46 26.798 6.46 57.927.002 31.7.884 37.203 6.73 41.804 3.602 2.834 4.68 2.11 5.26-3.486 1.3-12.433 16.017-4.45 16.008 8.676-.012 14.58-16.15 18.932-27.78 7.49-6.193-6.092-6.275-6.036-8.49 5.638-1.477 7.82-11.636 56.762 11.472 69.47 4.4.507 5.516-3 2.336-7.172-6.385-8.37 6.904-17.605 17.47-12.142 12.77 6.604 11.033 27.37-2.9 34.48-15.937 8.132-36.12-1.9-45.223-22.47-6.68-15.1-6.22-35.833 1.498-66.483 3.557-14.126 5.18-23.135 6.14-34.005.315-3.57.82-7.45 1.116-8.635.83-3.302-.805-3.493-6.516-.76-15.584 7.458-32.293 1.584-36.144-12.718-4.604-17.1 14.698-34.268 26.168-23.277 4.354 4.172 3.732 8.213-1.628 10.72-9.288 4.34-6.394 16.324 3.426 14.168 32.415-8.978 4.828-100.004-31.32-107.013-23.9-4.634-43.294 22.303-26.24 37.28 6.682 5.867 13.646 2.937 12.326-5.184-1.838-11.327 13.125-9.8 18.43 1.88 8.63 19.006-14.972 33.842-36.506 22.97-38.554-24-10.836-73.59 24.52-73.572zm144.32 10.17l31.697 22.253-.585 41.966-31.533-19.593zm70.74 5.087l-.64 38.526-31.484 21.917.846-40.99zm83.037 26.97l-16.78 43.882-101.528 66.418-81.52-53.507-13.368-41.19 96 65.06zm-649.82-10.2l-4.652 223.795c-32.468.71-51.755 32.42-28.087 63.246l-9.21 1.06c-22.007 2.557-36.948 13.887-34.33 28.047.802 4.338-.2 8.684-1.473 10.816-2.073 5.754-1.648 10.19.873 15.24 1.98 3.965 1.604 5.535.39 8.416-2.618 6.203-2.123 11.034.704 15.862 3.54 3.61 2.478 6.446 1.875 12.104-.744 7.993.627 11.243 5.608 14.463 6.42 4.15 8.707 10.786 1.323 10.092-3.665-.344-16.838 11.842-16.838 11.842l6.198-359.167zm175.3 32.345c5.806.105 11.633 7.523 19.962 20 5.006 8.924 5.12 7.73 17 7.51 12.106 1.134 19.424 4.49 22.518 8.217 1.17 1.41-2.018 1.707-9.85 9.33-8.118 7.905-9.288 11.09-14.757 20.012-1.97 3.217-6.127 3.438-8.01.428-1.52-2.435 2.663-10.168 10.397-19.227 10.855-10.054 8.64-11.136-6.86-9.83-10.888.917-12.038.35-16.025-6.332-11.795-24.713-18.347-24.022-30.627.118-3.353 6.757-2.068 6.345-15.978 4.984-10.954-1.072-13.725 1.64-7.656 7.53 9.502 8.136 12.88 26.937 12.355 26.698l-7.48.533s-2.194-4.263-3.138-6.94c-1.913-5.42-7.186-13.615-12.96-20.116-8.178-9.2-3.48-14.06 15.23-15.69 10.428-.908 10.668-1.047 15.602-7.96 8.69-12.18 14.467-19.378 20.273-19.273zm453.66 31.655l-11.565 37.957-86.638 58.13-68.513-47.8-8.473-36.09 78.766 52.2zM489.612 8.12s23.692 48.608 32.005 79.96c7.23 27.274 16.444 105.998 13.494 110.77-5.896-8.454-25.99-7-26.263-6.92 1.888-9.16-5.16-27.85-22.186-31.87zm280.61 23.393l-9.304 37.4-73.805 51.08-59.16-42.23-7.12-36.5L686.327 87zm-422.8-6.637l9.366 3.475.38 67.93 72.5 13.594 1.415 11.657-83.965-15.33.304-81.324zm-36.964 1.268l.4 78.994c-.78-.28-60.818 7.02-83.853 12.553l1.566-10.782s41.798-8.192 72.01-11.047l1.18-67.803zM986.995 54.65s9.88 1.125 31.138-2.17c54.802-8.428 69.51-4.25 76.143 12.73 7.088 26.265-21.543 26.306-26.3 9.627-3.022-10.808-14.798-8.698-54.144-.224-33.65 7.248-54.737.454-53.937-18.512.822-19.5 23.077-20.766 27.1-1.453zm-448.45-23.546c6.754.04 12.225 5.56 12.183 12.317a12.24 12.24 0 0 1-12.313 12.155c-6.754-.04-12.194-5.53-12.153-12.285s5.53-12.228 12.283-12.186zm-177.438-1.508l8.568 2.77.465 51.614c18.47 4.473 57.27 12.59 57.27 12.59l1.85 10.228c-16.226-4.165-68.028-13.75-68.028-13.75-1.16-22.368-.127-63.454-.127-63.454zm-62.962-.33l-1.96 63.16c.294-.187-44.254 6.16-66.902 10.37l1.92-8.212 57.134-11c-.056-16.173.69-51.622.69-51.622zm31.523 9.497a9.89 9.89 0 0 1 9.795 9.923c-.033 5.424-4.497 9.768-9.92 9.735a9.78 9.78 0 0 1-9.734-9.859c.033-5.424 4.436-9.832 9.86-9.8zm738.28 40.91c5.856 9.076 10.925 8.913 16.894 8.163-1.508.4-8.62 4.42-8.245 5.8.187.7-3.212 11.94 1.585 12.504 18.084 2.124 8.526 20.755 10.636 23.693 4.784 5.685 8.294 9.302 4.79 16.196-3.108 6.12-7.384 5.836-4.17 11.198 6.996 11.005-3.025 13.05-2.297 20.457.515 4.474 1.958 10.602.24 14.04-5.176 10.36-22.818 15.967-42.307 16.38-2.777.067-.58-4.425-1.818-7.32-4.75-3.144-2-8.218-.324-11.54 1.69-4.423 1.703-4.426-1.236-6.746-8.203-5.336-7.727-7.71-6.983-11.428 2.05-10.996.358-12.11-2.933-13.814-4.217-2.18-3.538-6.823-1.518-12.753 1.395-4.1.49-5.152-1.44-8.938-1.136-2.226-1.463-3.43-1.462-4.844.716-5.686-4.39-5.77-11.65-.334-6.275 10.317-8.638 23.98-12.6 32.56-3.072 6.6-3.68 13.53-.503 28.933 6.223 23.574 1.162 27.38-25.107 21.83-19.732-5.288-25.153-26.577-19.106-52.374.978-4.173.818-8.23.488-11.524-1.8-17.882 3.174-34.92 15.864-46.37 21.18-19.11 31.514-21.876 74.408-18.25 16.784 1.536 18.04 2.623 18.04 2.623s.24-8.09.762-8.142zM758.5 78.655l-5.748 36.233-40.914 27.63c-18.678-15.387-33.443-10.694-47.136 5.1-10.473-5.586-31.324-20.65-31.324-20.65l-4.553-41.322 57.79 41.9zm-428.776-.228c5.422.033 9.767 4.466 9.733 9.89s-4.436 9.8-9.858 9.767-9.83-4.436-9.796-9.86a9.89 9.89 0 0 1 9.921-9.797zm421.083 45.923l-2.94 34.947-14.56 10.483-14.4-1.766-2.957-21.753zM328.7 115.913a9.89 9.89 0 0 1 9.795 9.923c-.033 5.424-4.497 9.768-9.92 9.735a9.78 9.78 0 0 1-9.734-9.859c.033-5.424 4.436-9.832 9.86-9.8zm39.523 1.9c5.422.033 9.767 4.435 9.734 9.86s-4.436 9.8-9.858 9.767-9.796-4.467-9.765-9.89 4.466-9.77 9.89-9.735zm-78.66.25c5.423.033 9.798 4.467 9.764 9.89s-4.435 9.8-9.858 9.767-9.83-4.468-9.796-9.892 4.466-9.8 9.89-9.767zm730.25 16.675c2.77-.166 6.783 4.022 4.666 10.13-2.81 6.962-.987 9.387 3.343 15.166 3.664 4.9 2.985 5.544 2.353 8.613-1.283 20.183 11.91 11.722 5.957 26.285-1.295 3.17.24 7.764.73 11.55-1.2-3.48-25.14-3.66-27.246-.188-3.395-.578-7.245-23.157-3.743-26.052.443 0 2.856 3.917 4.092 6.117 3.102 5.52 3.798 5.335 2.927-1.002-3.458-25.153-.55-50.618 6.92-50.618zm-612.056-10.9c5.423.033 9.798 4.467 9.765 9.89s-4.466 9.77-9.89 9.735a9.78 9.78 0 0 1-9.734-9.859c.033-5.424 4.435-9.8 9.858-9.767zm-159.095-1.473c5.423.033 9.766 4.466 9.733 9.89a9.78 9.78 0 0 1-9.857 9.736c-5.422-.033-9.83-4.436-9.796-9.86s4.498-9.8 9.92-9.766zm385.027 10.796l29.03 19.697c.363 6.028-.593 14.628 1.324 17.594-19.167-2.187-29.113 8.556-29.114 8.557zm-302.322 9.54c32.2.9 63.305 6.68 92.094 16.655l-2.495 10.326c-57.67-16.123-122.456-18.247-184.717-3.127l-4.585-11.003c31.4-9.072 62.815-13.185 93.267-12.952l6.435.102zm-182.4 10.33c8.446.028 17.01 3.352 22.944 10.288 11.15 13.027 5.168 36.635-11.124 43.842-24.38 10.785-49.034-13.862-38.267-38.517 4.47-10.237 15.59-15.65 26.447-15.614zm597.526 15.372l-.6 10.396-7.214-6.275zm-153.663-2.705c10.65.065 19.226 8.78 19.16 19.43s-8.747 19.23-19.396 19.166-19.227-8.75-19.162-19.4 8.748-19.263 19.396-19.197zM149.41 157.19c-2.595-.017-6.934.954-8.93 2.722-5.236 4.636-.078 4.877 6.683 6.264 12.006 2.463 15.112 12.912 13.784 24.102-1.207 10.17 2.22 10.082 5.056 6.356 11.55-15.167 2.425-37.807-16.592-39.445zm559.25 16.676c-.25.124-.538.3-.538.3.133.117.32-.024.538-.3zm-381.025-1.805c14.43 0 15.452 23.753 2.155 49.993-3.998 7.89-5.933 6.857-9.89-5.268-9.756-29.886-7.196-44.725 7.736-44.725zm33.347 1.376c2.784-.083 5.458 1.034 7.613 3.595 7.572 9 1.312 23.188-19.8 44.788-5.132 5.25-7.774 7.24-9.618 7.24-5.174 0-5.134-.86 1.13-19.856 2.762-8.378 5.51-17.58 6.1-20.44 1.912-9.15 8.44-15.144 14.566-15.328zm-52.635 20.136c1.274 6.6 3.556 15.783 5.047 20.42s2.45 9.042 2.173 9.766c-1.347 3.5-10.455-1.488-16.87-9.257-12.92-15.646-17.923-29.126-15.038-36.25 4.133-5.666 14.455-8.006 19.084-2.88 4.778 5.3 5.276 16.428 5.604 18.2zm91.558-13.425c13.785 8.52-2.68 26.98-34.272 41.926-13.517 6.395-12.5 3.4-2.084-9.545 3.986-4.958 9.354-13.05 11.997-18.006 5.842-10.957 11.69-21.92 24.36-14.375zm-139.317-2.815c4.43.055 8.866 4.89 17.02 17.23 3.633 5.5 9.553 13.337 13.17 17.432s6.445 8.152 6.283 9.007c-1.618 8.5-44.59-19.423-47.488-30.862-.933-6.958 4.652-13.05 11.014-12.807zm622.536 37.612c7.517 16.3 7.985 26.363 1.414 29.88-9.334 4.997-21.04-3.16-21.04-14.656 0-3.863-3.692-17.418-7.146-26.247-2.844-7.265-3.16-11.72-.692-12.025 9.59 1.74 23.558 15.38 27.465 23.05zm-51.85-13.323c-3.23 9.168-6.742 23.51-6.79 27.71-.02 1.65-1.092 5.007-2.34 7.453-8.31 16.25-26.896 2.474-19.606-14.533 6.576-15.333 22.828-31.1 29.112-31.503 4.3-.276.086 9.53-.373 10.873zm12.89-8.6c3.15-.245 5.647 6.684 9.472 18.344 5.167 15.75 4.686 27.942-1.338 33.01-12.912 10.866-25.886-5.566-20.343-25.77 4.432-16.147 8.637-25.307 12.21-25.585zm-425.59-5.925c10.988 232.733-111.82 409.078-120.406 413.78l-40.988 21.33-70.3-40.205c75.76-99.52 122.192-214.422 128.304-348.844 68.02 8.026 104.21-45.803 103.39-46.063zm390.575 8.804c5-1.26 1.44 3.01-3.638 10.022-5.42 7.48-12.677 27.975-18.163 31.17-12.275 5.593-25.8-5.828-18.225-15.353 6.974-8.77 27.22-22.6 40.026-25.84zm72.274 3.067c1.908.03 5.446 1.363 10.574 4 25.052 12.884 37.196 29.446 26.205 37.02-7.717 5.32-15.76.903-23.063-13.67-2.478-4.95-7.04-12.315-10.1-16.4-5.545-7.402-6.796-11.005-3.618-10.952zm142.112 11.218c16.27.1 29.363 13.338 29.264 29.61s-13.368 29.4-29.636 29.3-29.362-13.4-29.262-29.673 13.366-29.338 29.635-29.238zm-9.12 7.46c-19.313 8.085-14.17 38.256 2.234 42.94 6.925 2.093 15.46-.63 12.036-4.054-21.648-7.29-21.456-23.357-12.436-34.933 1.45-1.86-.387-4.557-1.834-3.952zM216.4 242.52c-1.095 16.97 2.177 36.742-6.317 55.013-12.877 28.084-52.633 40.218-73.676 37.268-4.356-1.896-9.44-3.712-13.81-1.963-2.644 1.058-5.873.85-8.642-.5-2.67-1.31-5.293.28-7.887-.717-3.015-2.13-7.913-6.923-7.254-10.402 1.056-4.903.75-8.558-4.975-10.292-7.935-2.403-9.46-6.747-6.85-19.333.564-2.72 1.2-3.942-.55-5.17-5.797-4.062-7.877-11.394-3.858-19 2.608-4.37 4.62-7.453.166-11.06-1.704-4.08-1.36-5.613 2.596-10.7 4.203-4.818 4.93-5.365 2.386-9.61-5.716-9.54 1.125-16.35 9.164-20.065 10.754-4.155 20.12-6.22 31.4-7.29 4.18.322 3.927 4 6.374 7.602 3.587 5.84-1.8 14.07 1.147 17.1 4.32 2.102 6.217 6.162 5.802 9.59-.317 8 .1 10.747 2.208 14.142 2.324 3.76 3.086 10.593.75 15.18-2.08 4.082-1.858 3.807.714 6.293 2.545 2.46 3.574 14.552 2.657 14.302l10.966-.777c-1.167 1.195 4.582-22.475 17.437-40.6-.4-14.416-5.603-27.772-4.722-46.782 27.24-9.125 46.292 14.27 44.775 37.78zm420.652-23.688c3.84 3.146 23.106 8.94 23.828 8.338-.8 9.27 4.477 27.416 24.55 33.858l-2.97 145.313c-27.16-47.733-43.34-108.962-45.41-187.51zm-470.7-5.5s1 3.464 1.853 10.134c1.447 13.623-.455 15.44-3.875 6.078-4.005-10.963-4.4-2.494-.152 22.502 1.028 6.054.955 7.453-.612 11.5-.98 2.53-2.757 8.423-4.144 13.042-4.087 13.6-6.392 17.472-10.072 6.512-1.876-5.588-3.525-6.487-2.014-10.8 1.89-5.4 1.545-9.484-1.925-14.85-.567-.876-1.812-2.884-1.918-8.5 1.36-12.6-4.254-12.834-5.29-16.12.3-4.934-1.77-16.95 1.622-16.557 2.792.323 12.908.812 17.736-.853 2.14-.738 8.793-2.07 8.793-2.07zm419.35 10.223c10.452.064 18.858 8.595 18.794 19.048s-8.593 18.862-19.044 18.798-18.9-8.564-18.826-19.018 8.625-18.893 19.076-18.83zM293.33 229.05l14.282 3.014c3.173 1.13-3.24 198.806-120.94 339.138l-.317-33.076c56.237-77.917 97.56-174.045 106.976-309.076zm243.03 9.176l1.648 47.294c-7.93-7.033-28.17-20.31-28.013-20.583l.455-17.463c.018.037 17.595 1.714 25.9-9.248zM425.83 236.6c3.428 1.527 6.373 4.935 9.285 7.412l-9.5 6.118zm328.436 9.158c61.526 19.644 122.498 20.37 183.05 8.188l3.885 11.645c-65.766 16.382-130.74 14.016-194.9-7.932zm-299.992 2.65l2.9 20.44-35.4 21.895 2.337-30.893 18.455-11.434zM763.2 271.762c5.645.035 10.197 4.657 10.162 10.306s-4.66 10.2-10.304 10.164-10.166-4.657-10.13-10.305 4.625-10.2 10.272-10.165zm159.04 4.128c5.647.035 10.197 4.657 10.162 10.306s-4.656 10.2-10.304 10.164-10.166-4.657-10.13-10.305 4.625-10.2 10.272-10.165zm-298.56 25.63c4.245 16.235 2.494 52.686-3.91 77.303-1.922 7.392-3.54 33.74-3.54 33.74-1.122 1.358 35.682-29.204 46.46 12.093 3.706 14.2-12.816 27.247-23.61 23.106-2.102-.807-1.318-7.784.79-11.855 6.285-12.153-10.778-18.89-20.8-8.212-23.154 24.674-1.18 88.8 34.18 95.726 29.353 5.74 53.58-23.103 34.284-40.988-8.44-7.82-22.4 2.43-16.316 12.29 6.5 10.534-5.958 14.425-15.126 4.595-15.986-17.14 2.874-42.053 27.424-35.69 39.254 9.784 29.866 71.284-11.557 73.902-31.676 2.002-52.68-12.216-65.55-36.924-12.077-23.736-12.624-42.466-6.025-83.517 3.92-24.37 1.535-45.024-5.258-45.024-3.726 0-6.666 1.735-7.345 6.1-1.39 8.93-2.45 10.58-7.993 7.212-7.036-4.277-10.72-17.66 1.108-26.42 12.126-8.98 27.295 5.74 26.612 8.207.297-.45 1.548-2.766 3.367-13.215 5.92-33.996-4.92-70.266-19.35-64.788-3.166 1.202-2.82 2.63 1.24 5.027 9.423 5.56.738 19.128-11.205 17.49-16.912-2.318-20.277-26.054-5.127-36.207 23.784-12.198 42.538 8.058 47.243 26.05zm-115.145-30.798s29.695 18.967 31.198 23.712c.962 3.042 1.643 29.384 1.643 29.384l-51.522-33.758-75.787 44.726c1.434-10.13 7.36-36.168 7.36-36.168l40.316-24.36c.166 1.52 27.124 20.128 46.792-3.535zm373.648 9.467c5.647.035 10.197 4.657 10.162 10.306s-4.625 10.2-10.272 10.165-10.197-4.626-10.163-10.275 4.628-10.23 10.273-10.196zm-79.657-1.49c5.645.035 10.227 4.627 10.194 10.275s-4.7 10.23-10.336 10.195-10.166-4.657-10.13-10.305 4.625-10.2 10.272-10.165zm39.998 3.14a10.27 10.27 0 0 1 10.193 10.306c-.035 5.65-4.656 10.2-10.304 10.164s-10.195-4.657-10.162-10.306 4.625-10.2 10.272-10.165zm-100.57 12.426c26.983 6.2 54.03 12.558 79.952 15.935l-.585 79.786-7.58-.594.378-71.29c-25.06-2.315-48.62-8.192-70.734-14.4zm201.454 6.755l-1.6 9.344-71.61 9.805c-.722 16.048-1.783 69.697-1.783 69.697L859 391.4l1.646-81.202c27.867-2.45 55.7-5.002 82.752-9.168zm-453.774-4.87l54.442 37.632 5.7 38.813-63.464-44.1-81.265 52.177 7.406-36.324zm254.65 12.48c22.123 5.162 44.24 10.508 66.422 12.874l-.388 64.193-10.158-2.93.263-52.1c-17.323-1.86-35.077-5.592-52.924-9.75zm196.533 5.965l-2.054 8.678-54.093 7.54c-1.632.34-2.197 56.467-2.197 56.467l-8.805 1.162.322-65.54zm-99.762 5.13c5.647.035 10.164 4.657 10.13 10.305s-4.625 10.2-10.272 10.165-10.196-4.626-10.163-10.275a10.27 10.27 0 0 1 10.304-10.196zm-353.078 15.87l64.344 45.4s7.09 23.1 8.447 35.838l-74.092-50.04-95.246 60.36 11.665-38.267zm-395.547-6.825c3.87.132 7.68 2.802 9.568 8.793 2.66 8.433 7.893 11.016 21.803 11.046 27.33-.893 56.21-13.132 81.78-2.968 12.428 4.873 16.507 23.44 5.92 28.034-11.5 4.986-16.273 1.606-20.034-7.415-3.568-3.875-8.11-3.374-32.663.326-10.828 1.528-23.543 2.84-34.228 3.482-27.32 1.64-42.203-7.265-45.263-23.565-1.955-10.422 6.668-17.953 13.116-17.733zm747.248 30.342c5.647.035 10.196 4.626 10.163 10.275a10.27 10.27 0 0 1-10.304 10.196c-5.647-.035-10.197-4.657-10.162-10.306s4.656-10.2 10.304-10.164zm-200.172 8.337c7.345.045 13.268 6.054 13.223 13.4s-6.053 13.27-13.398 13.226-13.237-6.053-13.192-13.4 6.02-13.272 13.367-13.227zm-152.22 6.17l77.477 54.08 12.93 39.775-90.233-61.376-113.418 70.515 14.263-40.337zm387.455 20.348c4.6 13.223 13.23 23.403 22.366 33.75 0 0-5.408 9.756-23.963 8.788-10.136-.528-10.712 1.053-14.32 7.862-5.87 8.6-10.615 14.202-14.35 16.957-6.606 4.873-18.64-2.86-28.373-18.277-3.546-5.618-5.035-6.958-16.075-6.958-16.95 0-22.986-4.827-14.028-12.26 7.867-9.193 13.594-19.36 20.662-29.048l7.604 1.032c.3 1.138-6.338 19.888-15.284 27.378-4.564 4.944 1.642 6.9 12.588 4.823 6.956-1.94 8.71-1.086 13.614 9.596 10.25 20.394 15.817 19.534 28.888-.654 4.606-9.037 4.457-9.946 16.552-7.066 13.016 1.583 16.984.026 11.72-4.634-10.64-9.416-16.168-31.215-16.168-31.215zm-387.8 19.028l95.58 64.237 18.513 46.267-112.417-78.182-141.123 87.7 21.772-44.966zm2.886 41.85l33.4 22.976-.922 40.083-34.1-23.96zm-8.708.977l-.192 39.567L450.2 512.85l-.92-37.152zm-39.04 24.7l-.313 1.525.71.4.25.036.357 35.67-35.423 23.492.957-40.27zm89.42 2.284l31.392 21.903.436 42.456-34.08-23.334zm38.76 26.712l31.466 22.842.25 42.39-32.158-22.638zm-168.962-3.333l-.965 39.145-32.226 21.527-.674-40.022zm334.938 57.46c-6.44 6.442-8.75 5.58-13.92-5.382-5.367-11.374-13.66-16.81-25.84-16.85-15.364-.05-5.115-9.915 11.19-10.77 28.176-.66 42.074 18.528 28.568 33.003zm-376.084-30.74l.032 39.3-31.95 15.78-.584-18.64 16.862-28.127zm-41.848 51.647l.945 7.177-5.888 2.13zm543.05 109.61c-.083-.012-.118.02-.128.122l.375.008c-.095-.066-.188-.122-.247-.13zm.247.13c4.026 2.775 39.3 56.26 40.66 113.3 1.1 15.122-5.488 17.867-8.446 3.45-4.812-23.466-19.058-44.195-37.89-55.2-95.506-37.658-139.103 82.296-76.672 132.445 22.247 16.814 65.827 15.857 81.6-6.4 4.904-6.922 9.705-6.144 10.223-1.696.256 2.213-.883 3.707-6.87 8.86-24.233 20.86-39.072 50.78-31.977 73.043 9.418 29.552 36.387 50.432 67.88 55.726 33.797 5.68 69.535-17.458 80.56-48.253 10.108-28.237 2.226-52.392-23.662-76.88-12.173-11.513-12.78-12.43-10.158-15.057 2.554-2.554 4.172-1.88 10.195 4.18 18.582 18.705 53.724 29.294 77.233 19.005 37.638-16.458 54.873-74.207 30.14-112.745-14.793-31.23-56.63-43.6-92.156-27.252-18.92 8.712-35.853 29.634-41.206 50.847-2.403 9.536-7.944 11.153-8.583 2.51 3.305-34.628 8.648-57.23 47.958-117.535zm319.072 66.133s13.274 28.92 15.028 44.038c1.3 11.12 1.425 15.625-1.604 15.626-.965.004-3.25-5.41-4.083-9.618-6.73-34.495-56.606-34.987-64.546-.802-8.068 34.74 22.98 60.112 50.977 38.967 11.5-7.555 11.964-3.966.508 7.168-22.045 21.173-13.153 51.615 13.85 60.236 36.715 11.72 60.38-32.85 29.627-62.12-3.92-4.2-7.463-8.375-7.465-9.25 0-2.2 2.735-2.326 4.844.006 17.587 19.243 53.93 14.163 59.986-9.92 11.355-45.16-46.82-65.756-63.785-25.54-4.15 10.03-3.58 11.438-5.57 9.45-1.113-1.114-.706-5.302.664-10.957 2.77-11.44 19.886-45.943 19.886-45.943zM692.89 875.47c-133.62 25.72-260.953 13.028-352.13-5.803l-43.302 70.62-2.87-.184-11.16 18.273 1.112 2.148s-36.13 65.98-51.197 86.71l546.287 8.813-21.916-46.462 1.275-1.224-21.593-48.487-7.17-8.462s-4.304-8.77-7.47-18.158c-2.9-8.64-15.675-32.393-15.675-32.393l-1.877.117zm-347.497 2.888c1.734 1.435 169.715 36.704 345.185 7.66l9.228 16.194c-153.707 32.055-374.362-6.154-365.56-9.237zm2.255 31.522c15.432-.232 30.885 8.377 41.13 22.417 3.26 4.468 8.48 17.554 8.48 17.554s7.632-12.07 14.997-18.038c11.14-9.026 25.5-16.46 46.035-15.303 18.903 1.065 39.52 11.738 57.7 41.73 5.096-16.984 68.455-73.744 118.163-.3 6.253-19.11 34.447-56.96 78.26-29.203l5.872 13.75c-25.806-18.882-69.23-7.47-80.026 20.946-.987 3.468.134 5.305 1.414 8.72 13.095 19.57-22.004 18.38-11.28 2.987 2.02-3.508 2.24-6.426-.77-11.143-7.98-12.51-32.44-28.382-50.633-28.364-21.01.023-44.565 13.48-52.6 25.982-2.964 4.613-3.713 9.278-1.277 13.414 1.745 4.156 1.048 7.6-2.083 10.053-7.355 5.786-16.298-1.247-12.638-9.95 2.37-3.82 2.114-8.565-2.435-15.24-9.137-13.408-30.808-27.787-49.926-27.787-27.363.067-55.397 19.198-53.982 35.455.622 7.146-1.382 9.764-7.182 8.822-7.054-1.144-7.718-7.842-2.603-13.182.778-1.728 2.063-5.93-.157-9.068-28.073-39.662-71.55-29.17-81.637-20.628 9.966-16.307 23.56-23.407 37.175-23.612zm-26.268 26.588c10.836.313 22.34 8.75 25.904 15.226 2.736-2.718 27.492-13.907 39.062 3.057-31.158-2.995-32.225 30.12-9.23 33.785-11.176 31.738 35.93 34.642 33.562 4.57 35.118 5.934 31.694-38.82-1.563-34.8 17.633-12.295 29.37-7.965 49.95 6.97 7.207-8.995 36.004-16.946 42.705-.837-32.764-2.702-27.96 35.412-3.467 36.25-7.823 26.183 40.174 36.865 33.554-2.62 30.547 2.777 26.972-38.652-2.416-35.84 2.328-7.476 32.15-10.113 45 4.524 12.31-10.78 25.803-18.06 49.568-1.8-32.735-6.154-34.024 36.49-3.464 34.56-3.43 28.187 39.693 29.553 33.16-3.222 33.022-8.187 15.69-43.713-8.63-34.53 11-12.545 29.11-6.148 36.29-3.408 22.88-25.126 41.912-3.323 41.912-3.323-38.815-4.866-31.5 50.76 6.82 31.43-.274 11.408 4.42 21.387 19.862 23.32l17.612 38.466-521.435-7.33 29.81-50.01c2.89.976 19.483 2.83 23.463-16.59 34.036 11.578 37.16-28.274 11.694-35.1 3.146-2.077 6.664-2.86 10.276-2.757zm807.09 21.388l-.4 19.34 15.275.315 41.496 98.565-43.078 67.344-16.056-.332-.357 17.31 60.787 1.255.357-17.31-20.24-.418 57.387-79.27-1.66 80.42-16.743-.346-.357 17.31 55.508 1.146.348-16.87-18.242-.377 3.434-166.308 18.242.377.4-19.34-55.508-1.146-.4 19.34 16.743.346-1.014 49.115-24.307 30.005-33.84-80.34 23.677.49.4-19.34zm-827.722-7.373c3.294 5.545.367 9.052-5.5 9.076 0 0 3.93-5.463 5.5-9.076zm428.765 15.92l3.227 7.162c-3.62-1.555-4.036-3.13-3.227-7.162z"/>
    </g>
</svg>