<svg xmlns="http://www.w3.org/2000/svg" width="224.225" height="312.808">
    <rect y=".498" x=".498" height="311.811" width="223.228" rx="10.63" fill="#fff" stroke="#000" stroke-width=".997"/>
    <g transform="matrix(.154435 .002726 -.002726 .154435 -234.48306 13.511065)">
        <path d="M1710.814 46.367l36.366 1699.404 1059.768-18.952-37.006-1696.674zm313.456 5.345c182.927 1.736 366.806-6.877 551.026-8.693l-84.5 154.796c-4.298 8.146-4.65 13.863-2.197 17.166 3.794 5.11 3.644 13.873-.415 19-1.738 2.2-2.52 3.62-2.632 4.922s1.077 2.698 2.058 5.027c3.472 11.118-4.845 19-13.632 22.744-5.893 2.51-19.08 4.33-28.84 4.04-61.177-1.822-181.968-51.364-231.435-54.52-34.445-8.965-78.676-4.837-115.15-2.125-6.886.536-5.963-15.553-5.963-15.553-6.69-52.967-45.09-98.506-68.32-146.817zm561.03-5.056l172.79-2.862 1.274 27.888-71.392 75.803-12.023 12.964.75 67.247c-50.032-25.756-60.47-57.403-70.14-92.246-81.77 62.585-83.288 196.412 8.373 263.675.212-29.925 21.968-89.102 62.285-94.176l4.674 232.985-50.536-47.647-108 3.312c17.296-29.207 17.294-52.162 5.294-79.043-20.2-43.906-51.948-144.382-49.644-144.084 0 0 .822-2.187 3.264-2.777 8.92-2.154 14.46-10.897 11.72-21.24-.544-3.337-.513-2.55 1.7-6.937 8.524-15.152-2.24-31.247-2.24-31.247zm-573.042 11.52l66.902 116.056s-.75 5.39-.35 8.54c.59 4.53 2.18 8.543 4.85 12.73 1.768 2.77 3.103 6.57 3.554 10.095.743 5.806.746 5.8 9.393 13.336 1.817 1.58 2.177 2.568 1.544 4.255-2.692 7.17-.784 21.697 5.095 38.98 7.425 21.827 9.238 21.508-3.35 51.098-2.626 6.18-5.787 14.422-9.207 22-15.595 33.517-17.932 42.575 10.15 59.8 7.906 4.85 10.272 9.135 8.495 19.103-1.4 7.842-1.624 12.842 2.2 17.182 2.485 2.814 4.7 3.245 4.128 5.46-.39 1.507-2.1 8.04-1.387 13.495 1.894 14.7-14.735 36.694-30.124 44.57-3.067 2.257-4-.416-5.812-3.46-16.58-27.88-56.4-15.76-58.475 17.878-.546 8.895-.202 12.742-2.46 14.67-.765.654-3.1 2.024-3.1 2.024s-59.22 40.02-96.975 60.72c-2.46 1.35-4.654 3.542-6.4 3.926-2.018.443-3.527.104-4.802-1.134-14.537-26.504-7.298-58.24-6.29-69.462-.373-3.963-3.778-4.624-8.895-4.594-8.664.052-20.977 9.058-23.542 17.293-2.182 7-3.58 11.533-5.672 11.54-2.1.006-3.174-2.783-8.57-12.726-11.225-20.687-12.95-23.303-23.313-35.25-8.267-9.53-15.193-10.7-23-3.345-5.428 5.107-5.323.75-10.063-1.698-8.202-5.373-20.3-.22-20.464 7.55-.137 6.52-.107 11.418-6.696 11.964-7.34.608-10.36 10.153-8.053 23.646 1.215 7.1 1.45 8.242-.683 10.89-6.956 8.637-7.78 14.534-3.66 26.35 11.742 33.68 28.3 56.2 44.006 86.737l-60.818 35.672-11.717-630.298zM2761.95 78.45l10.57 547.524-84.172-79.87-4.14-147.794-1.124-93.776c-.314-7.974-.31-41.93-.667-76.78-.746-73.015-7.267-63.873 6.06-78.12zm-160.535 68.5l4.795 13.136c-34.32 20.488-74.785 131.93 4.52 211.828l-1.267 16.775c-82.927-72.592-69.695-179.03-8.048-241.74zm6.212 15.518c12.333 24.348 26.257 45.854 44.95 58.84-9.522 23.904-13.336 50.155 4.128 85.16-11.698 6.7-27.808 24.182-44.172 59.726-62.544-61-50.454-151.23-4.908-203.726zm-456.33 54.467c34.08-.545 69.723 4.387 102.475 13.63 22.384 103.52 59.71 172.727 60.275 213.407 0 0-2.853-.427-9-4.686-15.034-10.456-34.42-4.13-44.617 9.695-9.666 13.107.616 30.918-4.32 38.55-9.35 14.235-33.587 40.678-37.74 39.89-3.02-.572-2.56-1.897 7.74-18.327 10.726-17.112 18.9-32.592 15.206-36.274-1.572-1.563-2.332 1.81-10.31 16.247-18.72 33.883-35.34 54.922-42.114 52.345-3.17-1.206-1.592-4.015 12.375-23.16 15.774-21.622 20.02-35.047 18.312-40.923-1.313-4.516-3.682 2.86-10.155 16.088-6.898 14-19.538 29.688-29.716 44.72-3.215 5.432-7.408 8.618-12.805 11.165-4 1.818-10.376 4.786-14.112 4.375-1.92-.212-.62-1.362 1.96-3.973 20.228-21.58 37.523-45.55 47.175-68.437 1.5-3.006-.8-7.207-3.29-4.036-14.936 27.396-35.8 61.615-58.84 76.956-4.946 3.288-12.42 6.134-19.215 5.684-11.476-.126-7.465-2.75 2.862-9.646 22.106-14.76 52.754-56.61 57.563-71.308 1.137-3.473-.232-5.423-2.435-5.145-17.878 29.755-41.61 62.568-69.628 76.615-15.098 7.572-34.27 9.35-43.795 4.9-6.98-3.26-5.264-4.457 6.998-5.468 29.493-3.435 63.617-31.778 80.24-61.425 9.748-16.424 2.772-12.57-8.412 3.305-19.1 27.095-57.48 53.425-81.598 51.823-24.382-1.012-38.733-19.64-35.89-35.872 1.72-9.82 8.495-19.92 22.066-23.018 23.242-5.308 39.164 31.375 17.936 38.72-7.23 2.502-10.028.75-7.447-2.213 15.715-7.2 8.34-26.113-5.054-27.82-8.427-1.075-18.07 4.757-18.25 17.794.415 9.708 8.578 19.063 24.62 19.006 19.02-.067 47.954-14.27 65.214-39.782 12.224-19.482.768-12.775-8.372.24-8.064 11.485-34.48 27.82-36.524 27.274l.676-13.076c.446 2.25 40.646-26.328 37.895-47.02-1.792-15.023.326-19.665 15.998-19.754 11.716-.067 26.68 3.78 31.102 9.078 4.556 5.238 9.585 6.827 7.214-2.096-3.848-14.483.41-16.957-7.968-14.05-5.782 2.007-11.027-2.57-16.932-6.61-6.496-4.44-14.646-6.247-24.324-5.728-7.23.388-10.5.01-9.466-6.834.73-4.827 1.576-9.218.126-12.348-2.357-5.09-11.51-10.23-21.876-17.585-12.24-8.686-10.012-9.25 14.7-69.05 10.372-25.11 10.327-30.223 3.52-48.507-10.757-28.89-12.573-40.505 6.552-44.904 10.845-1.44 22.04-2.252 33.4-2.433zM2260.6 231.85l10.017 2.667c.075.008 32.996 105.705 51.69 157.27 5.704 15.732 10.212 37.046 11.603 57.117 0 27.67-15.224 47.792-34.18 50.298-13.42 1.774-28.132-4.943-35.073-19.8-5.887-14.13-1.935-30.99 14.192-37.07 27.917-10.52 49.126 24.972 21.772 36.497-14.15 5.96-27.872-4.09-21.664-16.183 4.352-8.477 17.028-7.8 20.174.832 2.602 9.2 6.563 4.764 4.725-1.46-5.576-19.826-31.085-14.682-32.815 3.705.4 22.736 25.4 27.638 40.014 14.61 11.326-10.41 12.21-28.872 9.054-44.823-4.537-33.168-24.112-75.944-38.335-124.906-7.102-24.448-17.28-53.565-21.174-78.764zm396.615-5.812l18.846 7.075.65 61.686-15.776 5.748c-21.33-31.368-4.81-74.46-3.72-74.508zm-379.277 10.694l13.8 5.038c8.28 43.405 45.167 126.005 58.762 187.9 4.14 37.27 4.892 48.216-20.044 68.552l-.005-.28-13.685.242s-.064-.834 5.843-5.416c32.68-25.352 11.95-79.582-1.297-121.308-22.974-66.61-43.655-134.804-43.384-134.724zm-128.122 6.605a127.24 127.24 0 0 0-5.277.281c-20.67 1.476-24.043 2.862-24.03 7.363.025 8.477 3.565 12.175 22.77 9.756 16.62-2.094 40.8.065 57.537 6.923 19.104 7.824 23.64 9.67 30.516 13.057 17.263 8.505 14.12-.204-1.522-10.1-31.955-20.215-53.934-28.054-79.994-27.28zm149.31.365l12.96 4.678s3.58 9.975 4.903 15.697c13.508 55.357 48.683 117.26 53.817 182.204 1.276 21.29-2.027 41.217-17.476 51.098l-11.78.208c12.372-12.747 20.7-16.513 16.413-59.986-6.56-55.814-44.675-125.026-58.837-193.898zm23 8.627l11.95 4.165c14.996 74.813 84.76 185.76 42.565 240.63l-10.78.2c9.36-15.184 13.1-28.44 11.3-48.676-5.4-68.124-41.356-133.697-55.035-196.31zm20.025 6.554l12.848 3.68c18.69 75.737 87.562 199.173 40.644 234.476l-9.378-.085c34.628-67.57-20.88-135.882-44.114-238.07zm22.403 6.7c3.963 2.113 9.59 3.06 13.89 4.224 14.463 57.26 40.04 113.375 52.17 166.73 4.283 29.253-1.763 51.322-20.038 59.988l-3.937.07c16.09-25.25 12.418-56.673 2.997-90.536-12.67-45.54-36.602-95.465-45.08-140.476zm-201.326 4.553c-5.938.05-12.132 1.06-18.664 3.267-6.683 2.66-5.762 7.95.463 6.743l8.317-1.616c15.282-2.944 34.273 2.248 57.41 15.708 5.588 3.25 11.654 6.37 13.165 7.456 4.262 3.064 8.75 2.972 7.14-1-.644-1.59-9.59-8.274-17.473-12.506-16.872-9.797-32.544-18.198-50.358-18.052zm223.147 1.063l12.908 1.74c26.178 110.852 80.55 179.06 35.814 221.152l-11.373.2c12.215-12.926 17.484-32.92 12.945-56.362-4.633-23.93-17.7-61.813-28.59-95.135-12.612-38.63-22.793-71.304-21.704-71.597zm18.52 2.8l10.94 1.838c13.573 45.008 36.253 100.697 50.136 147.17 8.538 28.58 5.935 64.012-11.877 70.846l-9.215.32c14.857-20.6 16.654-41.815 9.22-69.08-15.26-55.962-37.72-104.638-49.205-151.093zm67.303-1.125c11.846 46.698 39.55 117.77 49.487 142.305 13.086 25.003 9.954 62.422-8.79 77.542l-8.995.346c10.69-10.356 14.122-27.54 12.078-45.25-5.777-50.056-42.5-118.972-56.296-172.158zm-47.797 3.063l11.266.833c12.13 48.85 34.882 96.144 49.972 144.953 2.845 11.027 5.392 24.513 4.64 34.486-1.576 20.908-9.933 37.525-17.526 37.66l-7.75.137c15.493-19.137 14.268-44.835 7.006-72.354-12.002-45.48-40.055-100.074-47.6-145.714zm-292.856 5.418c-4.687.107-4.693 4.4 2.9 10.825 4.652 3.93 4.276 2.6 4.06 5.148-.922 10.883.962 20.796 5.23 9.534 1.14-3.007 2.827-6.407 4.582-6.02 3.32.96 1.75 7.057 3.397 10.098 2.79 5.364-.05 6.74-6.628 5.18-4.734-1.122-4.956 1.434-7.824 4.733-5.02 5.775-4.127 9.154 3.722 7.248 1.295-.314 2.4.04 3.41.252 2.468.52 4.743 2.04 10.677 6.406 7.624 5.608 18.416 13.07 25.347 14.117 11.102 1.677 8.54-3.582-.59-6.897-7.822-2.84-17.604-10.935-17.61-13.223-.01-1.757 2.453-.758 16.386-4.852 6.045-1.776 14.52-5.66 18.09-7.383 5.894-2.842 6.176-2.825 15.486-2.71 15.856.193 18.265-.4 7.008-8.437-22.747-16.262-52.9-26.577-68.665-19.385-4.78 2.18-4.7.895-8.207-1.043-4.596-2.532-8.33-3.648-10.784-3.592zm321.414-4.172c16.622 59.678 47.675 112.862 56 169.6 1.944 16.237-.505 32.177-13.782 46.157l-9.12.317c-1.337.046 12.353-21.966 10.817-40.572.2-9.944-1.094-20.584-4.11-31.057-18.576-50.247-36.797-95.763-51.17-143.713zm-280.703 24.644c.088-.012.17-.016.25-.004 4.257.59 4.432 2.277 3.236 4.506-1.773 3.305-4.893 9.65-4.893 9.65s-4.29.922-5.19-.158c-1.59-2.225 3.886-13.614 6.598-13.994zm10.814 1.747c.47-.015 1.058.215 1.98.56 4.103 1.538 11.235 4.717 8.224 7.325-3.567 3.09-17.57 4.697-16.91 3.424l4.534-8.738c.962-1.857 1.388-2.544 2.174-2.57zm-42.037 53.156c-.362.027-.667.12-.902.266-.805.5 1.095 3.727 3.85 7.37 12.707 16.526-4.387 21.795-16.7 13.047-11.708-8.777-29.525-7.616-26.786 1.754.966 3.304.11 4.935 6.557 4.916 5.73-.017 7.215.277 12.443 3.72 19.99 13.16 45.193-5.374 32.384-24.544-2.418-3.62-8.298-6.717-10.836-6.53zm49.204 25.292c-7.173.127-11.606 5.556-2.595 7 32.187 5.195 11.256 38.842-11.675 22.1-20.716-18.047-47.99-17.437-48.085-4.37.01 3.288.164 3.397 5.013 4.225 11.403 1.947 28.468 6.816 35.025 9.977 3.855 1.86 7.906 3.588 9.007 3.842 13.677 4.7 30.993-2.027 34.24-13.533 2.972-10.53.085-29.61-20.93-29.24zM1789.67 496.17c4.297-.024 8.93 3.653 12.287 9.097 7.756 12.58 17.288 33.793 23.337 45.47 1.525 2.944 1.63 5.593 1.56 7.005.58 6.898 2.943 9.466 6.987 6.284 3.977-3.13 9.48-8.346 2.903-9.053-6.684-4.854-10.488-12.1-6.482-16.607 2.95-3.325 1.736-5.43-.69-5.52-9.247.027-23.5-27.228-17.12-33.266 8.62-8.147 18.49 1.582 39.844 42.147 9.4 17.915 10.18 37.7 2.214 28.028-2.692-2.423-2.133-1.153-5.102 6.685-2.232 5.892-4.1 8.7-12.85 17.417-10.656 10.615-17.08 18.967-17.292 20.777-.404 3.46 5.86.128 10.365-5.965 10.123-10.244 10.46-12.932 10.603.407.13 12.064-.453 14.28 1.72 14.16 3.384-.187 5.028-9.762 6.406-21.304 1.705-10.404 7.002-15.73 15.87-21.658 2.434-1.627 2.457-2.72 1.903-7.285-1.915-14.622 5.934-42.086 9.846-35.398.562 1.51 2.27 5.035 3.195 7.507.777 3.843 3.28 8.152 6.993 8.378 4.667 3.366 4.684 5.23 6.503 17.826.594 4.112 2.527 10.263 3.864 13.528 2.5 6.077 4.683 9.624 3.4 11.473-.826.914-2.58 2.64-2.58 2.64l-74.328 45.85s-5.84 3.364-7.957 4.297c-5.905 2.793-9.56.87-12.564-3.53-16.335-23.423-27.73-49.86-39.347-74.224-6.972-14.46-.57-24.218 8.3-12.617 3.452 4.51 1.78 7.452.257 16.31-.275 1.602 1.198.966 3.993 1.367 4.38-.55 6.564 3.33 6.52 9.98-2.602 9.572 1.138 4.362 2.943 3.855 3.473-.01 4.28 2.063 6.294 5.984 1.313 5.555 3.738 3.897 7.254.153 2.906-3.094 2.917-3.02-3.178-10.04-10.507-10.988-25.25-35.953-29.22-51.242-1.096-4.218-.784-7.608-.05-9.876 4.473-10.57 10.96-10.72 18.29 3.803 1.247 2.47 3.686 6.447 5.407 8.843 2.79 3.883 4.533 7.23 4.55 13.484-2 5.276-2.337 5.388-.518 6.073 4.515 1.693 12.626 9.653 13.113 16.896.494 7.357 1.81 11.246 7.527 6.774 6.52-5.098 3.67-7.052-2.954-13.325-6.97-8.002-7.504-15.038-3.558-20.972.628-1.98.338-2.53-2.165-2.243-7.913.907-15.797-8.995-10.422-16.725 2.457-4.517 2.14-5.665-1.445-5.725-1.868-.032-4.943.38-6.478-.448-2.42-4.352-7.422-10.406-7.46-15.433 2.187-7.11 5.72-10.023 9.512-10.044zm470.777-7.933c13.164 7.756 26.208 15.842 40.91 19.375-32.83 61.67-86.785 95.355-132.192 108.943 1.69 7.79 2.93 15.56 10.577 20.223-.278-1.177-3.875-14.99-3.19-17.853 62.58-17.16 116.833-79.72 130.424-111.725l276.217-7.875c-201.34 200.08-204.622 476.73-33.43 705.543l-19.018 11.556c-132.166-190.6-134.134-376.448-97.71-501.573 25.826-88.715 73.77-156.985 110.43-196.167 0 0-149.824.585-224.328 4.646-10.538 16.76-20.372 30.47-34.656 46.37 0 0 37.234-37.25 36.143-43.582 69.092-1.256 140.272-6.506 209.356-2.913-79.04 98.057-117.078 198.517-122.327 292.485-.04 12.21-.9 5.404-4.856 9.962l-12.4 20.003-10.58-20.38c-6.985-2.12-20.58 1.74-26.415-.253-26.17 127.232 5.236 279.68 44.38 378.838 0 0-9.293 5.423-20.857 4.744-12.69-2.584-15.72.96-26.632 3.377-12.55 2.618-16.947 2.68-19.68 5.91-1.52 1.797-4.28 4.318-7.425 6.1-30.48 11.686-65.743 54.107-65.754 53.512l-34.043-14.558c30.043-61.665 66.18-84.304 129.91-112.56l-6.45-27.203c-67.937 26.682-110.918 57.948-144.194 117.813l-210.52 2.465c67.423-79.456 119.586-198.428 123.893-290.544 1.14-17.947-1.216-9.288 6.615-14.775l12.205-15.06 10.038 14.45s7.24 8.89 11.587 1.296c10.283-128.53-5.572-274.602-69.2-375.494 10.956-.918 21.877-1.414 32.493 4.615 25.148 54.335 40.593 121.738 47.673 172.342 8.96 64.05 9.134 136.466 2.246 198.085l4.134.5c10.64-80.11 5.058-165.016-7.314-239.096-6.36-38.648-25.71-98.925-38.773-126.68-3.61-7.67-6.34-9.62-3.066-10.823 75.232-7.67 109.42-33.42 135.777-74.032zm-208.786 10.436a10.44 10.44 0 0 1 10.62 10.252 10.44 10.44 0 0 1-10.252 10.62 10.44 10.44 0 0 1-10.62-10.252 10.44 10.44 0 0 1 10.252-10.62zm566.38-4.682c-21.706 20.355-39.062 41.36-57.29 63.74 56.435 74.796 119.116 155.852 171.762 220.566 0 0 17.634-10.873 17.538-12.186-.05-.692-1.498-4.157-1.8-3.375-.732 1.836-14.268 9.722-14.268 9.722l-166.717-210.966 11.315-14.108c12.588-4.386 47.046-48.642 48.8-47.775 27.977 20.658 112.807 108.825 145.355 135.738l4.797 248.798c-3.143 10.013-91.22 49.94-151.38 194.17-31.21 18.218-65.966 28.338-98.172 44.27 0 0 8.496 12.854 12.603 16.343-5.15-10.633-6.065-12.665 5.1-17.436l232.87-99.75-.097 19.317-3.223 33.406c-63.138 40.49-116.72 57.937-203.528 118.86-6.25 1.57-11.194 7.685-17.797 8.128-230.265-326.564-91.2-578.127 37.4-705.55zm-730.557 29.8c6.126-.007 4.83 14.225 2.65 19.175-4.46 3.633-9.027.557-9.046-6.09-.01-2.168-.467-4.207-1.018-4.545-3.432-2.107 2.136-8.523 7.413-8.538zm137.23 6.455c5.225 3.823 7.226 9.002 9.22 14.183-6.976-.97-25.69-5.98-17.028-10.295zm-33.575 19.064c166.2 241.945 163.535 502.076-13.64 702.35l228.552-4.377c28.08-57.92 75.927-93.766 137.56-116.414l5.724 17.933c-70.867 24.138-106.258 62.7-134 115.758l-272.583 4.8c102.74-114.53 149.037-210.564 154.316-339.463 5.027-122.758-28.15-234.203-125.28-367.284zm45.668 2.007l38.5 17.355-4.964 39.28-40.32-17.73zm-68.64 12.213c209.6 305.216 125.875 523.987-33.925 707.646l-30.018 1.03-71.137-63.786 8.253 395.072-74.76 76.206c-7.615 7.595-13.63-3.76-13.63-3.76l-9.056-523.765 2.67-20.582-1.054-112.874 43.088-23.7 166.872 210.9s-6.38 9.774-9.39 11.543c-1.958 1.15-.476 3.038 1.174 2.792 4.57-.68 17.38-15.524 14.594-17.823-60.458-72.252-172.987-213.825-172.987-213.825l-45.383 24.71-1.788-129.676c1.61-8.516 8.01-6.354 12.228-10.217 52.148-34.832 88.587-76.868 110.82-117.41l12.442-22.88c3.475-5.896 12.03-24.288 16.992-36.024 2.774-6.56 5.706-14.5 6.853-15.467 31.554-10.893 64.608-26.15 96.248-39.892l-47.115-68.086zm-125.036 6.145c-1.723.005-6.07 2.074-11.9 7.555-10.765 10.12-24.894 26.683-24.884 29.787 2.953 1.007 5.52-.726 7.82-3.138 8.912-13.67 22.967-19.2 31.05-31.178 1.25-2.21-.125-3.088-2.085-3.026zm103.08 12.527l40.806 57.695c-82.877 34.52-169.44 79.706-246.297 109.3l-.326-18.497 11.63-33.43zm124.706 28.304l31.498 15.572-8.2 35.37-31.806-17.066zm26.78 58.13l25.982 18.232-11.2 30.077-26.153-17.322zm-208.925 25.597s-3.71 13.92-10.13 26.433c-30.77 55.714-60.967 105.275-124.39 148.968-2.48-2.13-9.7-14.237-9.7-14.237l-.913-16.33c33.54-27.932 62.55-48.514 106.2-129.52l12.967-5.542 11.208 4.615 7.293-13.568zm133.513-2.23c-28.468 63.264-56.427 128.49-102.684 178.215l132.125 177.728c40.187-127.84 22.333-246.676-29.44-355.942zm-162.014 16.55l-5.997 10.826 10.826 5.997 5.998-10.826zm-17.477 1.465c-22.44 52.646-56.796 93.452-102.31 123.168l-3.134-76.613zm8.493 15.446l-5.998 10.826 10.826 5.997 5.997-10.826zm263.592-2.4l23.636 21.65-13.38 24.584L2100.946 750zm356.323 4.557c-.026.01-.047.037-.06.064-38.613 127.703-24.205 248.777 33.71 353.366 26.292-68.922 48.06-115.12 100.463-188.927-33.826-42.704-130.813-165.932-134.112-164.503zm-628.772 13.128l-6.313 10.644 10.644 6.313 6.313-10.644zm178.515 11.664c38.383 87.4 36.536 166.827 18.166 235.966L1945.075 873.8c32.962-42.425 54.643-82.428 75.87-121.39zm-187.746 3.626l-6.787 10.34 10.34 6.82 6.787-10.37zm-10.022 14.804l-7.45 9.914 9.883 7.452 7.45-9.914zm303.23 5.057l21.2 19.4-12.7 25.884-21.494-18.967zm-314.99 10.372l-7.833 9.546 9.546 7.833 7.833-9.546zm671.944-9.077l94.91 118.094c-30.388 37.49-55.414 81.47-77.646 128.796-27.285-80.56-40.36-159.957-17.265-246.9zm-684.71 24.2l-8.403 9.087 9.087 8.403 8.403-9.087zm217 8.14l-41.38 62.146 49.777 61.287c4.644-33.734 5.132-72.807-8.398-123.434zm-230.585 6.07l-8.976 8.535 8.535 8.976 8.976-8.535zm-13.193 12.203l-9.486 7.98 7.98 9.486 9.454-7.98zm362.774-.057l17.794 20.064-17.315 21.278-16.89-18.33zm221.717-.256l11.85.228c-16.042 191.91 23.842 288.16 59.102 371.86 0 0-.02 3.38-1.14 4.396-5.468 1.992-16.562 4.235-25.627-3.455-47.497-115.983-59.946-259.664-44.183-373.028zM1756.49 840.56l-9.902 7.426 7.426 9.902 9.902-7.426zm742.317-6.287c-3.013.053-4.24 78.914 7.788 117.193l41.69-58.62zm-110.19 14.947l14.618 18.933-14.79 20.92-15.843-19.286zm-643.276 16.572c.714-.126 1.924 1.85 4.248 3.394 2.173 2.194 1.863 2.032-.492 3.978-3.682 3.043-4.805 2.583-4.82-2.072.253-3.834.507-5.203 1.063-5.3zm390.943 7.51l16.178 22.312-17.07 22.773-15.353-23.39zm251.935 24.183l16.98 19.954-13.887 22.467L2372.783 919zm384.953-2.512l1.88 23.314-5.9-8.428-10.418 8.28 7.546 9.65 9.09-7.35.728 9.395c-57.796 43.34-82.188 92.38-105.298 129.253l-10.482 4.654-12.097-3.6-5.7 10.508-10.175 2.586c-.313-.057 19.724-45.035 54.558-91.07 31.018-40.993 86.084-87.56 86.256-87.192zm7.425 36.406l1.964 82.978-104.052 42.32c26.373-46.81 57.676-90.37 102.088-125.298zm-26.205-9.633l-9.423 8.01 8.416 9.322 9.39-8.01zm-14.496 12.758l-9.072 8.38 8.754 9.003 9.07-8.443zm-349.77 10.767l20.118 20.68-14.028 25.095-20.907-19.353zm335.135 2.93l-8.5 8.995 9.628 8.925 8.5-8.995zm-13.376 14.207l-8.15 9.333 10.215 8.54 8.15-9.333zm-13.41 15.895l-7.547 9.822 10.6 7.908 7.546-9.853zm-300.628 20.183l24.967 15.593-11.542 29.583-24.984-18.343zm288.957-4.974l-7.07 10.19 11.29 7.427 7.16-10.534zm-10.874 16.07l-6.534 10.523 11.407 7.05 6.497-10.866zm-9.7 15.892l-5.997 10.826 11.803 6.45 5.995-10.95zm-8.712 16.406l-5.997 10.826 13.034 5.365 4.944-10.308zm-245.345 10.956l25.58 16.676-10.643 30.974-27.016-18.4zm367.07 23.808l12.426 633.254-278.283 5.88s-13.417-22.668-41.58-75.1c-11.925-22.194-21.84-31.536-23.154-49.255.858-10.435-4.165-22.168-12.787-26.78-2.895-1.548-7.66.468-6.134-4.017 1.677-4.937-3.867-12.392-5.372-13.97-1.734-2.808-.696-3.518-1.06-14.077-.352-10.206-.973-14.465-3.297-22.133-5.874-19.377-7.274-29.087-4.287-39.243 7.767-25.76 16-45.56 26.65-69.637 6.198-14.092 5.118-19.535-14.832-29.337-14.938-7.34-16.904-7.224-15.233-18.36.783-5.217 1.538-8.512.4-11.01-.693-1.52-3.19-3.62-4.648-4.825-1.96-1.617-1.44-5.034.49-7.604 1.895-2.52 1.848-6.074-.18-11.967-4.264-12.396 4.596-29.077 21.7-40.795 7.555-5.18 7.36-4.13 15.48 4.102 23.734 24.062 58.085 8.076 57.543-26.426-.17-10.754-3.82-10.05 6.262-15.3 34.087-22.544 104.14-63.69 103.693-62.59 4.774 9.31 6.454 17.303 9.547 27.367 2.67 8.628 2.354 9.297 1.712 26.193-.58 15.27-.975 18.824 2.63 19.738 20.46 1.887 24.994-5.417 28.675-18.665 1.59-5.853 4.87-4.728 6.93-2.3 8.02 14.003 18.1 28.536 24.745 38.476 8.295 12.693 22 18.836 29.01 12.646 1.41-5.015 2.64-5.19 11.694-3.3 10.98 2.293 17.102-3.943 18-12.007.362-3.217-1.973-3.044 3.827-6.32 14.337-11.008 8.54-25.593 6.207-34.396.197.464 6.144-3.77 6.132-12.047-.064-42.987-38.4-104.22-37.536-102.635zm-350.946 30.947l29.8 13.757-6.345 35.43-30.61-13.118zm287.843 8.047c17.37 19.438 30.263 52.128 36.99 73.452 3.323 10.623 3.92 22.803 1.152 24.546-2.733 1.722-4.054-.047-3.645-6.437.34-5.323.423-9.443-1.853-9.344-6.575 1.822-7.01-8.182-6.375-10.545.424-1.58 1.22-2.7 1.562-3.56 1.56-3.907-2.684-3.307-7.1-3.282-3.896.163-4.944-2.188-4.823-5.885-.185-4.095-5.596-3.2-8.627-.035-2.77 2.89-2.12 6.23 1.744 8.502 5.55 3.264 10.883 11.437 24.173 39.705 7.716 16.41 5.723 28.2-3.128 28.216-6.138-.074-13.582-16.753-19.578-29.034-1.55-3.173 2.13-6.816 3.412-8.562 3.317-4.515 2.777-5.913-2.26-5.9-4.717.014-6.712.468-9.658-5.3-1.11-2.17-1.943-5.497-1.604-7.63 2.317-6.458-2.702-7.92-7.502-5.368-6.06 2.653-5.92 8.098 3.548 16.846 6.17 9.73 4.59 9.075-.97 15.8-1.146 2.36-.406 3.784 2.098 3.776 7.164-2.326 15.237 10.507 13.173 14.99-2.173 1.95-8.084 8.974-2.274 7.54 11.802-3.434 19.326 13.803 12.445 19.815-10.326 5.4-12.824 3.82-29.435-27.954-5.16-9.867-11.344-20.458-12.1-21.54s-1.134-4.017-1.144-6.387c.596-5.812-1.9-7.084-6.896-4.692-3.767.972-7.126 4.143-2.283 7 5.765 9.553 7.77 11.072 4.74 13.575-6.898 5.695-3.867 5.416 3.996 6.837 3.856 1.085 5.842 3.027 6.94 5.378 4.21 9.02 11.612 21.717 12.368 24.317 2.49 6.626-1.743 9.696-7.615 9.51-6.137.256-9.033-4.544-12.092-8.632-11.436-15.313-19.745-30.538-31.445-47.953l1.24-16.493s2.996.594 4.653-.238c3.25-1.634 5.105-6.812 6.853-13.685 2.9-6 20.326-19.84 26.96-27.23 1.235-.844 2.26-2.22 2.26-3.04-.1-2.663-7.684-.748-12.6 5.098-7.255 6.674-10.438 4.485-10.35-3.88-.907-10.313-7.116-5.025-7.255 5.066-.67 7.982-3.353 12.883-8.85 17.44-10.375 8.6-8.66 6.438-7.963 18.112 1.212 20.36-6.356 37.256-11.695 26.242-1.896-3.912-4.115-8.354-8.713-8.473-3.257-.084-4.922-3.247-6.853-11.1-2.888-12.708-6.753-20.853-10.357-32.54zm-261.216 48.523l34.297 12.96-5.745 35.732-33.972-12.31zm259.736-1.302c-.228.02-.494.078-.778.2-9.467 7.42-18.174 15.71-28.52 22.132-3.88 2.385-8.356 8.454-8.355 10.055 0 1.56 4.682 1.44 9.21-.63 4.297-1.966 28.588-25.596 28.578-27.727 1.67-1.907 1.465-4.16-.133-4.03zm-311.97 48.762c8.053-.16 3.397 2.31-13.96 14.81-16.944 12.203-44.554 50.33-47.59 64.35-1.38 6.367 2.652 6.787 7.028-2 20.12-40.4 58.875-77.677 94.974-76.688 17.685.484 27.316 5.083 12.727 7.433-40.01 5.63-69.576 29.024-95.003 75.063 0 1.022 2.395.93 5.1-.872 23.492-29.777 49.855-69.13 97.43-66.823 34.313 1.46 44.77 42.05 16.562 56.467-24.592 12.567-47.988-16.568-27.737-34.453 6.575-5.808 10.792-3.384 4.483 2.546-13.537 12.726 3.72 34.663 20.336 25.927 10.127-4.455 14.002-19.13 4.815-29.996-20.436-24.17-63.2-4.764-92.515 35.388-3.074 4.225-5.64 13.326-3.002 12.305 4.626-2.002 7.377-5.706 10.046-9.866 10.455-15.05 18.557-22.653 32.93-30.898 11.102-6.37 11.814-5.225 7.818 5.55-1.683 4.54-3.07 6.063-7.375 8.944-18.06 12.808-29.12 29.735-29.385 40.4-.193 7.787 5.68 17.85-.46 20.043-10.384 5.13-39.018 1.6-46.9-8.11-5.67-6.985-7.747-2.845-3.38 8.592 2.884 7.554 2.842 11.853 6.976 11.004 5.198-2.87 8.813-2.283 19.09 3.1 4.953 2.595 13.696 4.943 19.016 6.072 9.7 2.058 11.702 1.08 11.563 5.266-.042 1.283.462 4.88.22 7.153-1.346 12.62 9.243 16.718 23.72 24.742 8.46 4.69 5.242 9.724-4.028 33.858-4.847 10.93-8.893 25.59-14.917 36.706-5.592 12.47-5.85 26.016-1.833 41.383 7.456 28.517 12.718 42.983.37 45.782-31.806 5.388-102.255 6.434-140.97-7.67-11.14-73.642-65.194-182.244-59.008-210.68 13.694 19.876 69.536 13.568 51.698-42.356 0 0 4.46-6.938 13.4-16.333 23.057-24.23 28.78-28.27 18.003-7.1-8.287 16.276-18.846 37.5-19.02 41.592-.138 3.252 2.408 3.962 4.337 1.33 1.43-1.95 3.084-6.657 4.54-10.238 13.413-33.003 36.813-62.955 53.173-70.355 4.213-1.906 4.032.05 1.16 3.7-18.97 24.476-33.39 47.055-43.41 76.372-.416 3.012 3.87 4.192 5.18 1.315 17.522-38.45 22.81-47.2 44.693-74.456 8.603-10.714 16.683-16.186 23.226-15.725 5.66.4 4.002 1.357-1.126 7.02-3.917 4.326-9.712 10.35-19.043 22.527-16.456 21.475-32.777 56.234-26.577 54.32 1.125 2.85 6.273-6.4 10.608-15.22 11.936-20.87 24.517-48.39 53.414-66.848 6.057-2.633 12.7-4.2 18.59-4.37zm-564.857 16.626l52.94 51.074 104.616-3.2c-16.783 27.12-6.834 68.523 3.104 92.647 19.483 47.292 48.196 125.43 46.2 126.61 0 0-15.147 4.18-16.352 13.853-1.786 14.338 4.395 13.166-4.32 26.236-1.96 2.94-.57 8.402 1.662 12.723 1.476 3.17 2.916 7.956.332 11.746l-89.392 166.29-175.145 3.935-.58-32.932 86.138-90.346-2.215-65.315c48.088 13.375 65.386 62.44 70.132 98.934 85.018-80.38 80.787-199.06-2.176-272.098-14.527 79-71.246 96.364-70.026 94.782zm650.907-2.142c5.604.305 13.175 1.072 18.35 3.74-3.435 2.14-5.86 4.656-8.124 7.238-2.89-4.924-6.715-7.574-10.226-10.978zm145.05-1.997c4.66-.098 10.618 13.436 7.39 16.685-1.82 1.83-7.81 2.617-9.98 1.3-2.784-1.988-1.662-17.896 2.59-17.986zm-164.62 26.565c6.005-.106 10.96 4.676 11.065 10.68s-4.676 10.96-10.68 11.065-10.96-4.676-11.065-10.68 4.676-10.96 10.68-11.065zm-459.936 23.62l7.846.05c-13.92 19.3-15.552 35.75-10.078 59.437 6.156 26.654 51.282 126.448 54.57 154.092.15 1.25.334 4.776.334 4.776l-10.642.907-1.195-3.948c-15.795-49.875-31.3-87.853-42.194-116.9-10.89-31.336-27.532-77.79 1.358-98.414zm57.307-.824c.074-.01.135.008.188.028l7.53-.07c-.275.17-10.824 23.87-11.36 38.144-.608 16.18 3.61 33.718 9.276 51 13.316 37.37 32.573 78.915 43.702 126.186.13.55 1.34 5.133 1.34 5.133l-11.18-1.303-1.316-5.51c-8.44-41.602-30.684-84.57-44.22-125.427-6.894-18.56-11.862-41.434-9.824-59.023 1.437-12.408 13.57-28.877 15.863-29.16zm91.08-1.513c-7.758 12.5-14.746 28.095-15.042 40.24-.062 22.586 6.852 41.53 13.772 61.36 21.307 61.057 31.7 93.286 42.675 142.363l-10.83-4.403s-.467-2.76-.72-3.55c-6.287-30.742-6.6-28.045-42.165-131.183-8.345-24.758-16.263-46.457-15.157-67.212.126-11.814 10.017-35.378 20.843-37.436zm12.904-.228l10.03-.177s-5.42 5.945-6.982 8.156c-17.09 24.6-11.56 50.593-2.312 81.522 12.726 42.557 35.704 89.997 48.43 154.982.235 1.203.132 7.5.132 7.5l-12.02-4.6c-11.9-59.58-39.747-121.082-53.59-174.613-8.14-31.432-6.334-51.42 10.88-68.92 4.33-3.468 5.433-3.846 5.433-3.846zm-122.38 2.503l7.5-.132s-12.176 20.814-11.952 32.935c-1.713 21.738 6.566 45.574 16.028 70.54 14.542 38.37 33.686 84.742 39.746 109.222.238.962 1.063 5.357 1.063 5.357l-13.104-.456s-.79-5.938-1.622-8.66c-16.042-52.586-31.362-86.512-49.568-134.46-2.755-7.257-7.458-36.062-2.844-54.865 3.622-14.76 14.752-19.482 14.752-19.482zm-20.1.386l8.096.076s-1.178 2.22-4.18 7.575c-14.294 26.996-7.246 51.283 2.382 78.314 12.847 36.067 32.794 80.032 45.5 121.747.717 2.352 1.76 9.47 1.76 9.47l-11.688.05-2.698-9.423c-7.26-38.748-43.923-102.9-54.035-152.04-5.534-26.357-1.47-42.813 14.862-55.77zm108.39-1.913s-12.378 22.36-13.327 34.71c-1.86 24.214 6.16 44.094 15.415 71.208 15.966 46.778 38.3 101.603 40.65 126.802.078.83.444 3.9.444 3.9l-13.237-4.455-.906-3.547c-12.272-45.456-26.63-90.69-45.756-141.62-4.8-17.212-11.005-34.507-10.748-49.38 2.32-19.897 5.603-25.31 17.22-37.278zm57.867-1l10.596.032s-3.134 1.753-10.545 9.938c-41.112 38.92 28.587 145.533 45.958 243.415.2 1.05.74 4.738.74 4.738l-11.728-3.98c-1.19-4.87-2.123-10.807-3.566-16.127-13.555-49.954-31.37-101.25-47.71-147.775-9.306-33.946-13.016-63.924 2.32-80.99 4.795-5.887 13.933-9.247 13.933-9.247zm-108.95 1.985l11.285.113c-7.972 10.364-12.473 26.37-12.662 40.542-.14 16.76 4.628 32.97 10.448 50.105 11.936 35.145 28.767 73.274 40.7 120.77.682 3.147 1.24 5.163 1.553 6.536.497 2.178 1.818 5.625 1.818 5.625l-11.946-2.165s-1.283-3.07-2.114-4.682c-1.247-2.42-2.4-5.514-3.445-9.222-6.204-24.777-28.417-80.854-42.034-120.215-10.685-24.766-14.246-68.32 6.396-87.408zm140.83-2.048c14.418-.785 27.68 11.226 30.967 22.676 3.2 12.162-.38 26.015-13.7 33.06-21.6 11.423-45.58-17.53-28.667-34 12.82-12.482 32.263-3.755 28.34 12.002-2.528 10.257-18 11.188-20.737.928-.76-3.417-2.543-6.812-3.743-4.903-7.683 18.964 19.418 27.304 30.3 9.592 6.388-14.155-6.563-32.014-25.096-28.25-25.4 5.162-27.773 37.566-16.52 75.116 15.82 59.386 52.46 138.986 53.048 175.8.01.486.16 1.997.16 1.997l-11.245-3.146-.177-1.153c-7.615-51.31-47.32-135.784-59.432-201.045-5.276-29.76 5.968-51.628 32.013-58.01 1.507-.37 2.997-.592 4.49-.673zm-110.6 2.42c-7.66 10.624-12.51 26.473-12.555 37.727.054 16.483 6.25 32.422 11.437 49.493 13.11 42.152 43.364 119.88 42.568 134.55.328 1.568 1.207 6.417 1.207 6.417l-11.213-3.115s-.456-.696-1.33-2.696c-3.974-14.478-22.758-76.48-43.52-130.002-8.005-21.527-12.012-38.336-11.744-52.707 1.26-19.843 6.788-28.216 15.276-39.4zm213.644 66.49c-28.884 2.16-25.48 37.358-7.46 43.013 6.44 1.653 10.173.06 11.165-1.353 1.13-1.608-.2-4.012-4.425-4.548-12.226-3.777-16.822-18.008-5.95-24.204 5.938-3.247 15.546-1.396 27.243 6.95 20.9 14.914 46.204 15.427 42.632.03-.867-3.736-2.493-4.21-17.64-6.002-12.3-1.454-17.9-5.237-23.302-8.028-8.512-4.4-15.975-6.155-22.263-5.858zm-413.357 40.08c75.983 71.63 66.93 186.16 4.128 244.528-1.394-4.598-4.383-15.87-4.68-15.545 47.108-50.78 68.267-133.033-2.68-215.705.366.314 1.438-6.082 3.235-13.278zm468.18-6.323c-.706.028-1.323.116-1.87.314-19.25 5.632-22.924 24.82-10.24 32.467 7.775 4.687 13.63 1.627 3.96-4.04-8.29-4.857-4.476-18.07 5.463-18.1 4.344-.012 7.335 1.822 18.52 9.768 9.206 6.54 17.776 6.923 19.558-2.19 1.064-5.437-.79-7.81-6.55-6.292-2.547.672-4.075-.8-7.588-3.148-7.812-5.224-16.314-8.98-21.252-8.783zm-475.61 22.708c68.7 76.96 48.533 158.846 3.973 207.4-13.115-36.568-44.08-58.98-44.08-58.98 11.064-25.75 17.46-52.554-4.672-85.868 19.715-18.458 35.97-38.645 44.778-62.55zm437.967 20.807c-3.16 0-2.08 3.026 5.456 8.092 17.96 11.757 19.515 13.9 2.31 13.93-4.364-.18-11.14 3.03-14.987 4.4-22.318 7.885-23.414 7.308-34.2 4.98-3.595-.772-7.252-2.21-8.796-.75-2.387 2.253-5.082 3.763-1.97 7.005 2.268 2.364 6.443 4.126 11.53 6.923 26.332 14.474 28.763 18.008 59.425 18.267 3.51.03 5.283-1.82 7.343-1.88 5.004-.145 7.648 1.03 12.787 5.556 9.41 8.29 9.737 2.138 4.032-8.854-2.992-5.764-5.543-7.105-4.204-11.553 3.052-10.14-1.586-12.065-7.46-3.025-4.398 7.074-4.913 6.92-9.35-1.992-5.87-11.124-3.297-16.352 5.432-9.19 6.616 5.427 8.206 1.277 10.665-3.157 3.232-5.83 2.635-11-3.3-10.443-3.42.32-6.645-1.2-9.386-4.085-5.372-5.656-15.605-12.692-25.317-14.212zm7.9 30.24c.71.026 1.205.306 1.456 1.037.124 3.696-2.282 11.295-4.293 15.297-.635 1.778-1.772 2.02-3.365 2.372-5.355 1.088-5.76-.568-4.85-3.915 1.88-5.174 3.38-12.515 10.273-14.746a4.86 4.86 0 0 1 .781-.045zm-13.61 2.803c2.172-.198 2.26.705 1.423 2.694-1.492 3.358-4.167 6.558-6.15 9.204-4.258 2.86-11.42-5.53-8.358-7.79 4.297-1.787 7.52-3.605 12.026-3.963.4-.074.75-.115 1.06-.144zm-482.233 14.074c1.16-.02 2.346.2 3.575.687 16.682 21.706 16.162 55.2 3.837 73.944-.92 1.4-1.877 1.666-3.48 1.155-5.502-3.127-12.44-4.2-17.64-5.97l-1.136-64.396c5.3-1.22 9.82-5.343 14.844-5.42zm429.463-2.328c-1.243.078-1.746.934-.143 2.534 24.063 16.773 57.108 36.123 87.13 27.873 2.758-.65 4.963-2.202 4.38-5.047-.363-1.772-3.455-3.253-6.76-2.32-6.883 1.947-20.14 2.416-25.6 1.64-20.8-3.038-39.352-15.978-55.423-23.463-1.198-.882-2.618-1.28-3.585-1.218zm-6.647 16.526c-1.063-.03-.962 1.028-.26 3.005 3.52 9.9 37.55 32.513 64.242 39.716 22.916 6.185 55.555-.87 53.46-11.664-1.094-5.63-5.263-6.906-19.775-4.808-31.924 6.8-62.99-5.764-86.646-19.912-6.377-3.86-9.653-6.3-11.02-6.338zm-209.54 17.325c13.988-.414 27.88.478 42.93 2.712 29.277 4.465 63.268 12.91 92.123 25.66 48.962 17.4 110.367 30.403 162.23 27.58 12.674.128 35.55-1.355 39.955-2.893 11.523-2.798 14.765-.397 17.78 13.907.54 3.114 1.522 4.003 5.587 6.652 6.22 4.053 5.267 8.186 4.683 17.39-.49 7.742 4.256 12 23.6 46.247 22.016 38.976 43.62 84.337 43.62 84.337-186.903 3.17-365.336-.618-556.465 8.695 16.48-41.08 62.075-115.445 90.42-174.988-7.427-18.037 1.295-21.28-2.463-25.52-6.13-10-2.085-24.225 10.44-27.637 8.748-1.163 17.167-1.89 25.56-2.14z" fill="#131f67"/>
        <path d="M1950.018 1727.99s59.062-124.9 84.213-162.45c36.298-47.72 205.07 16.844 288.712 32.242 33.99 5.933 112.457 1.485 112.457 1.485l67.722 117.14zm-129.662-138.44l-9.4-385.415 19.388 11.627 11.227 387.107-81.483 80.822-.866-23.24zm49.39-44.87c19.04-40.082-3.855-88.215-3.85-88.196 11.5 2.623 42.342-58.493 45.208-56.795 49.89 59.027 59.93 148.115 1.24 204.47-15.74-38.176-42.402-59.484-42.596-59.48zm31.64-273.262c36.436-38.575 65.34-68.63 94.002-111.584 2.347-3.494-160.176-202.597-157.766-206.18 24.043-27.534 56.563-48.027 81.56-81.203 0 0 133.374 168.348 136.347 166.795 12.266-53.637 21.085-102.156 17.58-157.933-10.564-142.676-73.14-229.03-73.582-227.303-18.32 131.582-217.642 333.912-257.827 320.455l-1.843-91.694c2.496 4.546 127.063-83.39 158.31-197.25 2.245-8.18 99.524-41.213 98.818-42.398-4.326-10.56-48.193-70.35-48.193-70.35s17.146-8.358 19.066-8.363c56.696 68.002 100.162 158.14 115.934 244.422 18.928 92.9 33.195 267.92-150.327 462.577zm556.04-251.012c-30.848-90.255-31.708-184.246-19.418-250.1 18.42-119.26 92.062-205.72 151.186-271.702l26.145-.45-41.855 44.87c-19.125 22.738-46.576 69.95-46.576 69.95l159.57 201.12 88.564-20.784s-1.072 91.248 1.684 91.2c-68.085 58.41-116.828 111.048-151.002 195.002-21.705 8.465-93.584 40.97-93.584 40.97-34.58-7.81 98.518-224.837 72.42-228.014-10.88-8.656-132.44-166.733-134.75-166.36-51.778 168.54 4.723 343.578 103.187 464.788-10.806 7.274-20.6 12.962-19.724 11.285-42.257-56.494-79.603-124.176-95.85-181.774zm-286.42-79c6.34 9.444 30.31-205.108-45.645-375.17 6.847-5.382 66.81-17.953 66.81-17.953l17.1 51.018-40.738 18.103 8 23.915c31.59-16.017 100.188-40.05 141.39-111.304l210.603-5.12c4.285.283-41.273 45.5-83.637 136.187-19.35 41.418-34.385 94.833-36.612 157.23-.44 12.33-48.21-57.08-48.21-57.08 10.55-59.545 40.536-118.508 70.415-177.474 0 0-47.473-1.86-80.59-.305-50.532 57.216-82.316 87.462-159.528 115.723 29.934 90.253 204 130.815 165.315 123.2-7.905-1.716-16.38 83.745-6.344 179.696 2.965 76.8 46.57 204.17 48.006 203.114 0 0-27.448 6.692-29.736 2.312 4.627-1.198-40.817 11.162-40.817 11.162l-17.17-47.45 43.818-21.105-7.62-26.82c-.173.02-96.962 31.166-143.126 116.89l-213.145 4.007c80.63-90.646 112.6-179.458 128.395-296.407 17.495 2.82 53.062-6.37 53.062-6.37zm510.62-779.315c26.405-22.9 79.164-82.25 79.164-82.25l1.23 29.9-59.927 64.563 7.537 391.955-21-19.428zm-25.682 143.96c-10.902 5.43-32.36 31.58-42.296 60.713-71.84-61.938-44.763-178.573-6.473-203.43 11.68 25.157 44.806 58.197 44.04 57.504-7.007 26.68-12.262 53.714 4.727 85.213zM2025.108 53.98l545.474-8.67c-30.033 61.8-57.704 111.834-89.7 172.727-16.84 21.06-390.878-60.152-392.473-51.376z" fill="#e2cf00"/>
        <path d="M2825.265 1818.966l-.318-17.997 17.916-.316 41.645-65.698-46.142-101.703-17.28.305-.356-20.15 64.294-1.135.356 20.15-22.658.4 35.182 79.316 21.934-32.438-1.35-47.862-15.786.28-.356-20.15 58.68-1.036.356 20.15-20.97.37 3.985 167.41 17.777-.314.318 17.997-55.74.984-.318-17.997 15.342-.27-2.886-78.705-49.837 79.635 18.133-.32.318 17.997zm-206.252-113.183c-36.97-68.988-83.974-131.282-137.577-184.87 51.4-58.157 94.055-118.22 130.254-183.644 39.61 63.8 82.95 123.908 143.026 181.727-57.495 58.63-100.334 122.24-135.703 186.786zm-860.62-52.46l-12.722-514.605 63.065 59.135 10.657 395.175zm1071.54-162.06c22.16-24.323 42.205-51.216 58.626-80.152 21.85 31.163 45.008 63.03 63.97 78.786-20.77 24.502-40.322 52.83-59.132 81.994-17.3-26.58-36.06-53.347-63.464-80.628zm-788.8 57.308c-12.798 2.184-5.744-9.823-3.6-21.157 1.195-6.315-4.997-12.127-5.003-14.05-.033-11.175 8.253-16.038 46.188-16.267 89.527 4.626 136.258 32.434 187.784 44.836 49.343 11.877 98.028 10.76 152.207 8.555 4.007 2.217 19.2 39.382 16.565 43.176-122.186 26.325-280.235-60.93-394.142-45.094zm216.283-270.403c-13.084-9.132-25.24-10.652-37.258-12.473 20.375-37.357 45.245-71.513 87.403-93.355l20.656 48.614c-24.788 13.3-49.074 29.043-70.8 57.214zm-260.548-122.596s-17.822 30.324-34.884 45.222c-52.71-68.134-170.446-213.102-170.446-213.102l-48.423 25.6s-.695-28.455.374-30.466c130.766-70.33 219.047-200.452 256.798-321.507 0 0 21.63 21.305 18.997 30.527-34.007 95.564-93.343 191.844-181.81 264.828zm162.116-142.963l166.605-2.704 8.4 57.784c-63.417 22.502-115.295 67.1-163.632 118.478l-79.045.018c24.906-57.22 59.883-115.437 67.673-173.576zm612.5-254.88c5.678 16.233.56 33.942 2.616 33.167-197.814 102.212-251.017 319.827-251.017 319.827s-19.475-29.66-18.692-34.314c99.238-231.392 168.222-239.447 181.058-264.613l-160.685-200.532 34.683-48.955 172.367 216.286c16.612-8.01 26.045-14.64 39.67-20.866zm-93.154 298.73c32.766-61.454 67.05-97.446 101.398-122.4l-.272 80.345zm-937.176-222.395l-.507-77.934 102.01-46.05c-27.328 62.453-65.322 96.335-101.504 123.984zm456.706-78.138l-7.045-54.697c61.92-28.32 116.406-65.694 160.03-116.303 47.77-3.14 80.484-.477 80.213-1.122.082-.098-44.303 67.53-72.615 173.273zm506.836-584.812l55.785-58.392 10.83 512.126-58.008-53.282zm-491.82 425.844l-18.918-50.46c28.16-11.123 49.212-34.642 68.8-57.9 13.768 11.892 31.335 15.854 37.448 18.08 8.345 1.795-56.04 81.934-87.33 90.292zm-445.53-342.93c59.782-60.436 98.203-123.742 135.3-186.66 34.714 67.898 84.275 126.96 137.294 183.966-52.568 59.204-92.187 122.305-130.18 185.796-39.598-65.516-81.152-126.858-142.425-183.1zM1628.93 358.8c-18.026-27.688-36.167-54.327-62.1-80.916 24.315-26.962 44.9-53.624 58.585-79.732 20.013 28.05 39.063 57.384 63.413 79.65-22.872 26.087-41.137 53.62-59.898 80.998zm470.67-144.52s-7.16-3.977-6.484-9.77c2.214-7.528-8.003-24.303-8.007-24.302 120.31-38.83 298.264 61.324 402.418 37.76-.744 7.315.612 16-2.23 22.933 3.55 14.57 5.885 15-8.24 24.184-73.076 22.076-151.258-20.868-223.367-40.785-58.85-17.4-106.303-11.864-154.1-10.018zm-540.813-54.727l-.386-21.878 20.532-.362-2.902-164.432-20.532.362-.335-18.99 56.942-1.005.335 18.99-14.847.262 2.77 79.035 50.263-79.97-20.14.355-.103-18.995 64.44-1.137.335 18.99-18.382.324-39.98 65.775 42.882 98.658 18.382-.324.386 21.878-64.423 1.137-.362-20.497 24.156-.807-35.61-76.803-22.5 32.173.794 45.022 16.79-.296.38 21.497z" fill="#d40000"/>
        <path d="M2018.745 46.868l22.828 41.217-3.775 2.658c6.192 9.916 11.503 21.102 17.83 30.934l4.43-.59c7.503 13.777 10.533 18.87 20.317 35.176l-4.287.057c2.336 7.284 8.084 12.05 8.292 17.303.172 6.538-1.392 13.205 2.703 17.56 4.85 5.16 5.447 6.602 4.523 9.69-2.452 8.206 5.1 17.108 12.6 16.166 52.753-8 106.742-2.954 160.894 12.372 38.954 11.532 73.58 24.607 106.305 33.652 10.318 2.884 31.15 7.35 49.03 8.343 49.597 2.754 77.215-7.828 68.51-28.28-.7-1.638-2.2-2.82-2.345-3.667-.27-1.563-.056-3.263 2.715-5.617 7.98-8.443 3.335-14.404-1.78-23.505l92.378-171.936zm550.932.492l-45 80.97c-24.896-4.058-30.36 16.915-30.685 19.857-32.376-7.694-26.69 34-10.47 36.548 1.153 6.044-26.253 14.06-41.016.116 22.354 2.594 29.733-27.052 2.376-33.127 35.442-27.33-32.642-66.113-32.47-10.872-31.78-5.02-26.924 36.773-6.77 39.673-10.08 11.515-40.298 12.363-56.52-11.247 27.12 13.483 41.025-22.797 12.93-32.39 33.92-30.822-34.037-57.488-31.596-8.694-25.697-14.622-42.505 24.108-8.45 29.404-1.814 6.948-46.272 7.787-57.87-9.887 31.65 6.637 32.424-31.766 4.55-34.398 27.297-35.93-43.898-52.6-31.146-4.45-27.576-10.347-37.318 23.977-10.456 34.47 1.576 5.407-43 10.818-59-8.506 34.24-5.758 21.64-38.816-.55-35.762 0 0 .302-.963 1.5-4.222 9.9-33.583-46.588-35.378-38.144-.1 1.31 3.238 2.77 7.556 2.77 7.556-15.617-2.895-25.014 3.61-23.63 18.19 4.217 19.317 14.43 17.704 27.463 13.61 5.596 5.645-31.165 25.492-54.758 8.766 28.38-8.7 13.34-41.873-10.45-36.94-1.175-10.652-13.036-25.413-28.026-17.845L2027.704 56.9zm54.513 444.453l-33.503 1.085c-23.113 24.446-190.79 184.458-157.9 421.1 14.068 101.22 43.943 188.477 121.505 290.81l20.027-12.235 3.133 2.02 207.737-124.43-.537-36.663-241.805 106.496c-4.925-5.057-7.868-10.743-12.05-17.003l96.9-43.214s2.237-5.972 2.942-8.714c30.66-81.767 94.825-141.702 150.784-188.12l-5.038-247.31-149.358-143.585c-18.518 17.54-34.896 35.537-51.252 55.035L2748.2 765.938l-14.768 9.986L2562.794 558.2c19.327-24.095 40.397-45.18 61.396-66.388zm152.262 141.58l-11.884-564.7-85.876 91.27 7.152 386.015zm-16.763-528.347l-60.668 64.848 7.617 392.366-16.156-15.373-6.734-381.817 75.767-82.244zm-601.516 1.168c1.905 3.224 1.185 7.75-1.72 11.486-12.36 15.9 27.813 42.44 56.3 37.2 21.674-3.987 39.976-17.368 31.807-27.16-6.653-7.974-2.546-16.23 5.275-16.314 8.044-.086 14.615 6.198 7.8 15.083-15.164 19.766 8.89 42.22 45.062 42.055 25.58-.117 33.987-6.566 32.287-24.76-.796-8.52.837-10.91 6.753-12.31 9.448-2.236 14.424 8.548 6.707 16.978-16.666 18.203 3.097 44.19 35.243 45.323 11.762.414 14.072-.252 27.053-7.885 10.146-5.965 13.608-14.765 8.466-21.465-6.617-8.623 1.912-19.212 12.048-15.1 7.245 2.946 10.884 8.4 3.095 17.887-10.232 12.465-5.104 22.507 15.14 28.986 15.77 5.047 26.613 4.195 33.834-2.63 2.247-2.124 7.25-6.564 7.2-5.234l-9.012 16.6c-32.576 15.228-58.7-11.733-57.864-12.77-33.482 20.115-63.548 16.527-89.47-15.814-6.526 3.768-53.554 13.198-88.274-23.58-34.064 17.85-66.14 11.182-94.872-7.6-20.63 20.175-42.69 23.698-65.838 14.592l-7.048-13.57c1.705-.674 9.366 13.567 45.21 6.234 12.034-2.462 32.45-23.12 20.643-32.807-5.46-7.44-5.678-10.833-1.055-15.484 4.55-4.582 12.493-2.404 15.242 2.06zm-87.778 19.506c2.075 3.85 2.457 10.306.177 6.467-1.203-2.026-7.453-11.06-7.17-11.344 2.83-.286 5.69 2.588 6.993 4.877zm689.526-9.046l9.34 506.35-53.543-51.276-9.53-396.634zm-608.963 35.274l16.755 10.126-29.674.346zm93.304 7.07l14.15 13.268-29.36-5.617zm260.768 2.413l-5.993 12.858c-3.657-3.946-4.85-12.438 5.993-12.858zm108.863 208.65c10.143-23.896 23.74-54.34 46.443-64.347-17.624-33.53-16.008-67.4-4.256-86.146-17.558-15.775-35.628-34.725-47.122-62.23-53.73 49.154-60.756 148.295 4.936 212.722zm-5.225-203.457l3.92 9.2c-47.56 60.345-31.174 138.174 4.77 179.226l-4.872 10.586c-43.83-44.622-64.358-140.214-3.817-199.002zm-289.995 38.78c56.615 15.532 102.18 40.498 166.895 16.398l.528 12.67c-40.977 27.337-124.045.684-180.19-18.92-90.248-31.512-159.994-28.35-209.78-23.7-4.403-.782-8.095-12.18-1.066-12.382 93.207-2.673 77.94-14.04 223.6 25.922zm12.33-22.65l18.843 19.296c-13.97-4.113-27.56-8.715-40.23-14.51zm282.405-.14l3.713 4.935c1.608 2.137-10.17 3.468-8.236.895zm-317.178 41.52c67.68 24.06 142.156 47.95 190.34 24.495 0 0 .476 9.615-5.03 12.438 0 0-5.05 4.234-22.157 6.896-78.498 7.84-130.1-23.805-193.9-41.918-24.197-6.87-63.022-15.028-102.755-15.972-23.596-.657-59.606 3.365-59.606 3.365-7.868-.516-7.837-5.157-7.985-9.704 68.187-10.32 131.158-4.63 201.08 20.4zm324.696-29.942c.867-.056 1.752-.01 2.627.1l7.03 8.66-7.926 13.11s-7.3-6.495-11.074-12.932c-2.085-4.174 3.278-8.558 9.343-8.948zm-198.05 5.966l21.576 15.694c-15.993 1.068-34 1.983-51.956-4.785zm180.48 5c1.676-.07 3.468 1.67 5.592 5.152 4.083 6.693 3.583 7.998-4.064 10.605-10.042 3.424-10.847 2.725-7.74-6.396 2.117-6.21 4.055-9.27 6.21-9.36zm32.414 3.575l14.606 11.826c-7.584 20.822-12.322 47.164 4.307 84.565-1.77.15-11.934 10.54-15.15 12.34-9.186-3.66-30.574-77.973-3.762-108.73zm-16.094 16.11l-3.252 22.936c-.267 1.88-16.116-10.548-14.77-16.93 2.65-7.597 12.19-6.155 18.022-6.006zm-25.688 8.485c1.9-.02 4.937 4.5 8.685 10.41 2.924 4.612 2.373 6.384-3.817 12.163-9.096 9.527-10.97 6.503-9.2-9.464.875-7.89 2.19-13.088 4.332-13.1zm19.52 20.388c1.257.004 2.362.287 3.173.913l1.455 22.26c.13 2.01-17.4-.485-19.848-8.932-3-5.383 8.43-14.26 15.22-14.24zm-22.746 19.237c1.25-.2 5.214 2.336 8.955 4.468 6.505 3.706 6.673 5.383 1.254 12.605-6.367 8.484-9.626 7.2-10.88-7.34-.46-5.338-.934-9.474.672-9.732zm25.81 8.067c.563-.01 1.07.143 1.51.505 3.144 2.594 8.276 24.84 6.325 27.205-2.78 3.37-17.78-.78-21.202-5.97-3.256-4.938 7.926-21.64 13.37-21.74zm-17.803 26.6c1.713-.147 4.82.978 9.526 3.145 2.83 1.303 7.56 3.765 8.633 5.917 1.89 3.787-1.04 9.5-4.87 14.27-2.534 3.155-4.998.885-10.2-9.447-4.183-8.31-5.944-13.64-3.09-13.885zm30.305 9.455c.344-.014.656.05.94.202 5.132 2.727 4.428 11.11-1.474 17.404-7.084 7.556-13.45 2.07-8.633-7.443 3.052-6.026 6.76-10.064 9.166-10.163zm-415.64 215.142c-4.392.276-11.18 4.377-14.106 8.28-3.697 4.934-7 4.356-11.21 4.073-4.992.015-12.568 1.252-22.77 6.12-5.78 2.76-8.43 3.405-16.964 3.987-5.57.38-11.146 1.233-12.375 1.906s-5.218 2.148-8.85 3.282c-7.425 2.317-4.73 4.39-.28 13.933 22.765 55.455 39.52 120.246 46.143 173.14 7.458 60.686 6.827 134.447-.682 190.9-20.846.508-33.96-.33-55.91.428-12.827 122.023-51.762 219.426-131.444 307.813l219.567-3.316c23.97-67.534 137.862-120.73 141.702-117.024l6.48 24.378s-82.37 13.257-136.135 119.027c5.627-3.54 26.382-1.52 40.306 12.433 26.7-35.1 71.102-58.527 71.403-58l1.426-4.203s8.165-2.937 15.362-4.438c2.31-.482 7.04-1.46 10.174-2.618 4.843-1.792 7.228-3.65 14.76-3.136 15.68 1.22 31.3-3.6 30.977-3.677-48.874-127.713-61.937-243.548-46.11-378.655l54.835-.187c3.12-37.937 7.246-75.914 18.248-111.876 14.125-46.17 31.384-89.163 59.696-128.696 15.943-24.796 29.935-42.487 46.457-65.755l-214.914 4.3c-27.6 48.306-81.695 89.197-125.446 106.608-14.89 5.896-17.022 5.1-19.63-1.904-4.66-12.515-4.438-11.986 7.227-15.536 3.896-1.186 16.308-8.004 35.697-17.508 41.118-21.793 68.968-60.854 85.288-87.175 6.495-10.397 2.053-7.997-9.36-7.9-10.466-.633-15.3-3.78-24.847-12.376-3.52-3.168-5.048-5.443-6.625-5.228-11.956 17.833-32.14 41.438-48.087 48.606zm49.72-41.586c9.842 10.172 21.413 16.02 36.534 17.723-23.444 38.26-52.373 68.365-85.905 86.95l-18.063-48.1c41.84-20.386 52.77-40.258 67.435-56.57zm350.6 9.215C2390.15 714 2408.197 978.7 2571.17 1191.086l-16.5 10.323c-153.032-197.693-185.31-493.565 39.5-702.104zm-142.845 28.16l55.72-1.098-37.067 49.838-50.9.71zm-8.724.562l-30.126 49.405-83.573 2.55c-48.93 62.547-102.127 93.576-156.458 115.07l-11.603-52.466c-.001 0 86.228-22.4 140.737-112.738zm-84.87 5.54l-18.994 21.776 20.483 20.1L2396.8 554.9zm43.86-1.274l-19.262 20.75 15.672 20.258 19.99-20.293zm-96.7 5.426l-2.777 32.148 25.392 7.834 3.203-27.498zm153.603-1.514l-17.816 28.966 27.597-.05 18.787-28.858zm-288.294 12.41l18.756 49.25-15.566 7.85-16.842-51.48zm-21.025 8.325l19.34 50.948-15.345 5.365-17.877-53.068zm25.663 202.047c3.315 71.27 5.096 114.24-5.72 177.13-.565 3.287-13.422.61-13.422.61 1.63.51 5.965-70.958 4.73-115.78-2.353-85.357-18.32-169.557-53.317-253.574 6.318-4.02 22.035-6.29 22.035-6.29 22.277 63.786 42.238 132.475 45.693 197.905zm-226.655-193.77c75.097 96.06 129.876 227.215 123.4 357.69-5.73 151.686-61.642 240.034-160.69 346.753l-26.022 1.064c117.42-116.632 168.537-215.573 170.42-344.954 2.167-148.803-44.997-246.912-123.357-350.97zm-232.35 137.972l.882 35.46 248.106-111.632-36.994-52.48zm583.87-126.496l-27.2 1.855 1.39 27.448 28.358-1.188zm242.495-9.5l165.755 209.577-39.562 30.484-157.968-196.9zm-126.72 16.75l48.506-.106-18.2 31.44-46.874.452zm-8.94.924c-21.564 41.858-51.484 89.68-67.406 166.396l-159.63 2.952c-.603-17.44-3.17-34.845-6.08-52.245 68.344-26.39 120.962-64.96 159.27-115.4zm29.557 1.67l-20.598 12.365 12.975 14.398 22.78-9.185zm-189.74 18.633l-6.396 27.18 26.047 9.51 4.213-32.236zm149.21 17.59l46.53-.54-18.9 39.465-46.1.126zm110.68-7.076l156.812 196.016-14.172 11.624-153.25-191.602zm-92.97 9.92l-20.657 17.836 16.1 17.937 19.068-15.776c.402-.333-14.51-19.997-14.51-19.997zM2229.4 631.18l-5.972 26.422 27.028 6.68 4.314-28.3zm-36.904 18.154l-5.01 26 25.46 6.395 4.902-25.06zm-209.263 1.094c1.295-.283-3.692 30.903-11.742 36.65-3.847 2.746-5.874 2.19-9.315-1.396-2.37-2.47-13.215-19.477-13.215-19.477l8.924-4.684c11.235 17.28 11.077 8.828 14.95-6.135zm-41.7 18.648c3.568-.09 7.97 4.27 13.01 12.772 7.286 12.297 7.065 13.11-4.484 16.894-20.806 5.9-28.556 7.363-22.37-6.544 6.66-14.973 9.256-23.008 13.844-23.123zm62.182-3.562l14.737 24.232C1963.67 836.807 1873 943.208 1746.77 1008.85l-.72-24.26c148.636-88.11 208.42-190.153 257.665-319.078zm390.194 3.675l45.164.016-11.45 34.74-48 .503zm-465.824 6.712c-35.204 88.223-84.068 165.516-183.326 231.795l-.812-23.257c111.55-69.937 158.04-198.07 158.03-198.1zm570.654-10.22c26.745.26 55.37 28.908 52.943 52.98-1.7 16.965 1.755 29.468 6.24 22.456 9.913-15.495 40.098-5.844 40.152 12.55.03 9.8-6.483 11.514-10.39 2.746-5.775-12.955-21.357-13.003-23.415.718-1.93 12.86 9.11 22.09 38.353 32.078 34.2 7.386 55.226 37.544 43.426 55.303-4.124 4.712-6.636 5.898-7.47 3.507-.24-.686-1.138-4.3-1.985-7.998-4.186-18.32-13.135-25.888-23.73-19.385-5.31 3.26-4.555 7.437-1.327 12.908 4.298 7.285 1.74 10.19-5.79 6.572-11.887-5.712-16.03-19.672-4.72-26.345 13.49-5.672 8.87-6.76-8.594-12.32-37.17-11.972-53.433-34.846-56.15-78.928.355-20.122-2.523-27.244-12.028-29.824-8.704-2.362-18.314 8.81-11.996 14.495 3.432 3.088 6.24 5.902 4.48 7.672-5.644 5.677-20.17-3.12-20.198-12.833-.02-6.35 2.362-7.702 11.73-15.334 2.6-2.117.284-5.98-3.575-5.97-14.44 4.936-13.755-14.3-5.954-15.054zm-83.607 6.568l-22.342 13.37 12.044 16.218 24.785-12.18zm-438.925 20.498c2.593-.046 4.755 2 4.8 4.604s-2.042 4.756-4.635 4.8-4.724-2.042-4.77-4.635a4.68 4.68 0 0 1 4.604-4.769zm46.3 1.216c49.472 103.124 62.9 221.8 31.847 341.2l-131.6-165.1c48.375-56.438 80.433-120.64 99.752-176.1zm-173.846 10.705l-113.94 50.254.884 86.08c63.362-44.9 89.773-90.185 113.055-136.335zm110.325-2.665c11.305-.55 6.263 30.08-8.24 40.76-5.315 4.233-8.955 3.8-10.877-4.454-.996-4.272-5.672-13.27-11.49-20.476-6.768-8.383-6.696-8.593 2.96-9.366 10.677-.027 19.336-5.306 27.648-6.462zm-10.952 13.173c-8.346.024-10.777 3.973-5.713 9.227 4.264 4.424 7.567 3.402 10.26-3.15 1.64-3.993.07-6.1-4.546-6.077zm-205.07 115.303l-1.008-73.056 97.436-43.065c-18.94 43.03-54.646 85.992-96.428 116.12zm873.107 43.625l-12.847 13.377-129.644-162.964 7.573-20.994zm-697.47-154.846c4.252-.012 14.15 14.55 17.04 25.078 2.144 7.81.048 9.506-14.79 11.982-6.136 1.797-22.817.46-21.543-3.996 2.304-6.442 17.795-33.06 19.295-33.064zm459.135-6.416l46.252-.316-9.923 38.12-48.443.136zm20.475 1.952l-21.265 15.284 17.325 16.478 22.56-14.494zm72.83 15.04l131.135 164.118c-37.4 49.325-74.552 105.884-98.327 180.197-47.528-105.953-66.072-209.575-32.808-344.315zm-520.422 23.344c2.593-.046 4.755 2 4.8 4.604s-2.042 4.756-4.635 4.8-4.724-2.042-4.77-4.635a4.68 4.68 0 0 1 4.604-4.769zm-14.635 6.603c8.015.426.9 26.047-10.973 35.556-9.367 7.495-13.51 4.168-15.94-9.202-.88-4.832-6.118-12.976-10.716-19.396-5.138-7.173-3.094-8.366 9.65-5.67 8.892 1.562 19.794-.734 27.98-1.287zm428.56-1.333l48.5-.563-6.45 57.732zm-472.363 11.004c7.766 6.987 17.858 31.806 12.94 33.692-5.72 2.194-31.844-.37-34.814-3.324-2.046-2.034-2.052-2.045 2.112-7.82 2.3-3.176 6.643-9.508 9.69-14.08 2.758-3.348 5.72-12.345 10.072-8.47zm27 .376c-7.38.378-7.855 1.398-4.212 9.295 2.972 6.44 4.964 6.985 9.798 2.64 6.727-6.046 3.746-12.412-5.586-11.935zm851.124-10.02l2.25 28.37c-184.748 95.735-250.692 315.226-251.695 315.24l-13.974-24.945c81.802-212.253 194.468-275.282 263.418-318.666zM1892.67 808.9c11.094-.427 14.322-1.24 14.334 2.873.324 11.057-9.737 26.94-22.264 33.085-8.433 4.137-8.622 4.234-9.76-5.766-.875-7.694-3.563-17.57-7.7-25.4-1.306-2.907-6.242-9.54-.153-7.735s18.624 3.21 25.54 2.943zm24.85-3.008a4.68 4.68 0 0 1 .165 9.374 4.68 4.68 0 0 1-.165-9.374zm-59.276 7.522c2.012-.095 4 4.006 6.397 10.045 5.21 13.13 6.863 20.272 5.445 23.408-2.185 4.833-32.828 2.278-38.12-2.984-.976.758 22.018-27.736 26.28-30.468zm22.086 2.892c-4.38.377-2.012 2.977 1.374 10.57 2.344 5.258 5.405 6.057 8.823 2.282 4.572-5.05 5.13-9.007 2.153-11.075-4.348-1.658-7.54-1.84-12.35-1.778zm892.518 12.988l.33 9.51c-7.297-2.038-11.848-5.032-20.173-7.64-5.103-1.613-8.122-2.772-3.736-8.193 6.872-8.493 14.3-13.86 22.774-19.196l.238 10.777c-13.57 6.302-12.144 11.87.566 14.74zm-538.924-.163l51.492-.91.6 33.995 40.275-.71-2.44 38.8-37.15.656.6 33.995-51.492.91-.6-33.995-36.776.65 2.285-38.796 33.807-.597zm116.296-1.935c-23.797 129.66 2.545 266.402 44.746 377.444l-20.26 2.593c-32.934-88.815-60.105-215.606-37.64-379.732l13.156-.305zm382.235-4.237a4.68 4.68 0 1 1 .166 9.374 4.68 4.68 0 1 1-.166-9.374zm-905.636 26.828c1.706-.08 6.983 2.085 11.654 3.295 7.024 1.82 12.55 2.562 18.923 2.573 12.803.02 14.478-.124 9.155 10.496-3.834 7.65-12.59 17.828-18.79 20.99-8.768 4.882-12.172 4.3-11.8-4.417-.04-5.907-2.787-16.13-6.257-23.393-2.698-5.647-5.73-9.41-2.888-9.544zm54.225 3.194c2.593-.046 4.755 2 4.8 4.604s-2.042 4.755-4.635 4.8-4.724-2.042-4.77-4.635a4.68 4.68 0 0 1 4.604-4.769zm866.382-15.908c3.628-.142 9.9 1.973 15.615 4.63 15.18 7.048 14.806 8.735-5.335 23.567-14.61 11.5-18.093 12.82-18.933-4.885-.797-14.92.67-23 8.652-23.312zm-928.186 20.662c5.976-.02 13.137 30.97 7.817 33.836-8.284 4.465-34.328-3.5-34.348-10.583-.01-2.307 23.895-23.245 26.53-23.253zm910.242-17.345c3.568-.22 4.092 2.572 3.94 12.495-.08 5.254.972 13.804 1.408 17.8.905 8.277.2 8.86-6.408 5.27-4.235-2.302-12.824-6.04-22.06-6.674-7.566-.52-8.174-3.618-5.92-8.64 6.478-11.155 18.425-19.115 29.04-20.24zm-887.998 20.36c-5.214.054-3.873 2.804-.502 10.542 2.39 5.483 6.368 5.94 10.366 1.16 5.597-6.692 4.412-10.16-3.918-11.276-1.762-.235-4.743-.44-5.946-.426zm881.306-8.145c-2.165.24-5.1 2.006-6.51 2.96-4.846 3.158-6.797 5.404.355 7.714 6.365 2.055 9.743 2.94 9.145-2.505-.36-3.28-.187-8.05-2.988-8.167zm-483.23 12.56l.598 33.87 40.994-.723-.598-33.87zm446.732-4.946a4.68 4.68 0 1 1 .165 9.374 4.68 4.68 0 1 1-.165-9.374zm-767.287 18.823l132.252 163.704-8.21 21.792-136.3-172.872zm855.26-15.875l.666 21.686c-14.423 10.948-106.016 79.818-152.02 193.83l-24.94 11.142c33.656-98.02 107.838-182.774 176.292-226.66zm-983.622 26.548c8.464 2.412 16.605 8.124 24.57 9.037 9.155.95 12.295.314 9.904 5.076-5.353 10.664-15.612 21.913-26.582 25.723-7.842 2.725-11.585 1.824-10.43-3.098 2.16-9.214 2.425-16.75 1.964-25.1 1.17-4.577-2.835-10.9.576-11.637zm-9.84 2.11c5.448 4.495 4.895 33.518-.984 39.867-3.074 3.32-12.21.5-25.97-6.98-8.995-4.89-10.71-7.94-6.322-11.11 7.452-4.706 29.204-22.792 33.277-21.778zm923.93-15.68c2.8-.11 6.252.313 10.43 1.19 16.18 3.336 19.838 6.953 6.29 18.11-5.008 4.125-10.304 9.232-11.836 11.18-7.232 9.194-12.492 2.713-14.4-13.717-1.336-11.5.286-18.09 9.518-16.764zm-20.157 1.918c2.618-.046 4.32 1.29 4.33 4.55.012 4.163 3.317 22.11 5.072 27.04 3.054 8.38.98 10.32-6.07 6.764-5.136-2.653-18.64-4.495-25.915-3.793-8.28.797-8.078-1.426-5.775-8.43 4.083-12.414 20.5-25.985 28.356-26.13zm-885.88 21.635c-3.15.046-3.205 4.295-.878 13.986.74 3.084 3.4 2.846 8.363-.773 5.872-4.28 5.582-6.897-1.19-10.793-2.8-1.605-4.862-2.442-6.294-2.42zm36.67.416a4.68 4.68 0 1 1 .166 9.374 4.68 4.68 0 1 1-.166-9.374zm834.348 3.497c2.3 2.153 10.602 1.916 12.012.57 2.16-2.064.973-11.452-.878-12.55-4.713-1.512-14.002 8.56-11.134 11.98zm-775.876 31.6c3.064 13.36 21.91 12.287 19.536-1.657-1.386-8.142-1.673-7.967 2.424-7.856 19.5.6 16.657 31.366-5.826 29.39-4.672.642-5.262 2.57-1.27 4.148 3.965 1.57 19.114 5.17 21.438 5.123 24.415-.514 60.3 36.403 60.02 69.733-.182 21.798 7.48 37.347 15.065 39 6.03 1.306 14.65-4.306 13.777-10.964-1.204-9.185 6.33-6.444 10.753.09 6.734 9.018-1.513 22.345-17.184 21.588-6.638 1.417 4.99 5.44 13.598 7.764 7.775.307 1.38 9.988-.033 11.718-4.3 5.176-18.754 1.535-30.197-7.375-14.05-10.94-20.262-25.824-22.416-55.238-1.385-18.91-2.864-22.73-8.232-14.826-9.592 17.585-33.44 9.484-36.725-8.853-1.83-9.707 6.62-16.885 9.546-8.107 7.67 18.213 25.574 13.49 22.327-4.676-2.142-11.984-14.284-18.403-38.16-24.674-28.702-7.54-37.367-17.166-43.346-40.49-2.647-10.325-2.353-15.757 3.03-21.276 2.66-2.727 6.06-5.514 6.06-5.514l5.813 22.964zm746.823-28.05a4.68 4.68 0 1 1 .165 9.374 4.68 4.68 0 1 1-.165-9.374zm-896.357 20.274c8.558 2.93 15.947 7.362 24.767 10.19 5.723 1.834 4.25 6.415-1.53 12.985-6.434 7.873-12.823 11.803-21.854 16.286l-.136-13.114c11.002-4.06 17.883-13.406-.765-16.033zm918.693-8.892c3.22-.028 7.785.01 13.155 1.02 13.6 2.56 15.21 3.738 7.238 13.406l-9.758 12.018c-7.816 11.305-12.2 7.55-16.185-6.81-4.897-14.98-6.055-20.74 5.55-19.633zm-875.977 20.835a4.68 4.68 0 1 1 .165 9.374 4.68 4.68 0 1 1-.165-9.374zm862.59-5.014c1.376 4.736 3.445 10.76 5.018 15.03 7.64 16.1 2.878 9.9-10.326 8.702-8.875-.805-22.95.922-26.48-1.465-1.556-1.95-.245-7.183 2.493-13.1 3.854-8.342 11-15.52 16.367-18.815 13.626-6.587 10.567 1.536 12.93 9.66zm-791.88 8.204l151.164 192.698-11.29 16.717-155.483-198.13zm925.762-15.607c-75.805 56.844-104.107 124.7-109.94 133.615l111.8-45.417zm-146.497 8.95c-4.19 1.23-10.095 9.145-7.443 12.164 1.582 1.572 7.78 1.672 10.73.53 4.54-1.758 1.224-12.796-3.287-12.694zm-643.61 222.64l-30.764 40.205-167.686-209.167 40.84-30.6zm782.122-219.975l2.446 72.867-95.58 41.843c31.282-55.038 62.27-89.268 93.135-114.71zm-658.287 17.8l39.45 49.528-47.143-.24zm487.722-4.497a4.68 4.68 0 0 1 .165 9.374 4.68 4.68 0 0 1-.165-9.374zm28.472 11.38c17.643-.07 23.545.782 18.57 9.54-6.695 8.582-10.595 16.692-17.923 24.65-4.23 4.462-9.778-4.488-14.536-18.88-3.842-11.622-2.053-14.598 4.852-14.817s8.075-.49 9.036-.493zm-20.093 16.17c1.524 4.59 5.032 12.123 7.796 16.71s5.862 9.682 5.69 10.582c-.414 2.182-2.47 2.386-7.145.72-10.13-4.354-33.67.853-34.333-1.37-3.597-4.937 1.425-18.664 11.178-28.282 4.764-4.698 9.147-7.776 11.71-7.867s3.09 3.45 5.102 9.508zM1789.29 990.38l170.64 213.694-11.296 14.254-172.586-217.843-34.165 18 3.034 112.03-4.566-.138 10.698 567.513 91.447-94.46-8.007-385.062c20.08 18.232 37.33 37.752 60.257 55.565l38.707-.987c99.246-104.57 153.044-193.515 162.41-351.255 6.267-105.528-31.087-237.43-126.217-364.22l-22.434 14.17 45.997 66.73-94.168 43.736c-36.393 80.36-79.908 154.7-161.127 198.265l1.36 103.153-1.395 2.158 1.655 32.367zm815.736-6.996c-4.424.4-11.184 10.087-7.954 13.3 3.77 1.708 9.535 1.48 11.89-1.762 1.595-3.164 1.058-9.79-3.937-11.537zm-497.24 31.094l48.997-.583-12.07 42.25-47.727-.06zm465.378-8.4a4.68 4.68 0 0 1 .165 9.374 4.68 4.68 0 0 1-.165-9.374zm-249.568 5.685l7.296 54.465c-53.093 20.372-110.126 54.35-159.448 115.845-8.62-.414-77.312 1.958-77.312 1.958 1.723.215 61.61-117.772 67.847-168.634zm-193.944 8.508l-22.193 15.832 17.9 18.406 22.968-16.158zm467.558-8.024c4.776-.107 11.19.362 16.34 1.18 8.31 1.46 9.53 1.594 6.86 8.478-3.566 9.134-11.677 25.63-13.776 26.97-7.508 4.836-24.963-28.594-19.316-34.527 1.5-1.222 4.712-1.985 9.892-2.102zm-21.298 10.75c2.167-.228 5.135 3.94 6.056 7.562 1.117 4.398 8.962 15.395 13.875 20.646 6.178 6.603 5.878 7.548-2.8 8.394-10.323 1.007-20.384 3.22-26.166 5.436-8.964 3.437-10.204 2.735-9.233-7.834 1.46-15.906 11.757-33.525 18.258-34.204zm-7.34 32.98c1.182 3.054 15.077-2.838 15.8-6.54-.162-1.652-5.82-11.13-9.133-11.507-5.583.974-7.705 13.715-6.656 18.05zm-472.777 6.187l46.313-.38-14.512 38.418-45.776.683zm20.82 4.748l-21.936 14.42 17.573 16.41 20.988-15.03zm471.004-1.394c3.93-.106 8.1.197 9 1.623 2.53 4.007-7.1 26.822-7.1 26.822l-16.207 6.76c-3.637-7.16-9.77-14.56-11.363-22.36-.64-3.41 1.068-4.69 4.81-6.876 5.576-3.26 14.3-5.788 20.852-5.967zm-43.686 2.62a4.68 4.68 0 1 1 .166 9.373 4.68 4.68 0 1 1-.166-9.373zm-211.148 4.378s11.004 56.356 11.436 50.118c-76.713 30.445-121.12 74.16-141.786 116.406l-144.888 2.452 31.453-50.75 85.765-1.947c40.57-51.04 91-92.068 158.02-116.278zm-18.314 13.636l-6.752 22.966 21.896 13.428 7.722-24.67zm237.345-3.747c1.833-.203 3.704 2.858 7.542 9.4 2.837 4.835 6.583 11.868 6.583 11.868l-6.437 2.525c-5.54-17.763-10.215-11.04-10.497 4.73l-8.816 3.694s.697-15.208 5.6-24.172c2.825-5.152 4.398-7.867 6.015-8.045zm-471.994 23.953l44.91-.23-18.092 39.232-45.67-.444zm195.9-.332l-3.052 28.933 24.274 4.697 2.828-27.492zm-176.748 3.463l-21.93 14.733 14.898 18.896 21.087-14.718zm142.518 22.77l-4.124 26.67 22.775 4.755 4.684-26.837zm-492.958 10.262l57.764 55.27 10.055 392.54-55.456 57.614zm309.13 8.922c-.197.318 45.31.502 45.31.502l-17.627 33.18-15.563-.423 20.22-14.328-13.42-16.547-20.786 14.088 12.016 16.76-30.726-.114zm293.027 4.553l16.315 50.667-18.476 3.546-14.77-47.68c5.63-3.04 11.284-4.592 16.932-6.532zm-145.59 5.754l.852 30.552 24.783 1.657.463-28.67zm123.1 2.707l14.956 48.147-11.703 3.556-17.66-45.644c4.562-2.81 9.346-4.892 14.408-6.06zm-21.295 10.367l18.96 47.065c-24.858 10.593-50.436 32.78-69.596 54.813-14.675-10.39-23.22-11.355-32.198-13.604 23.837-46.353 52.52-70.974 82.835-88.274zm-273.33 16.707l47.643.597-32.247 50.046-53.868.888zm141.784-.658l-2.583 28.988 25.762 14.6 3.35-29.782zm-30.642 4.604l-17.784 19.473 19.635 21.626 17.25-23.246zm-40.508 1.715l-21.18 20.127 17.517 22.038 19.288-22.812zm-273.958 23.26l8.877 383.5-77.746 78.053-.955-20.62 61.724-66.773-7.644-389.18zm210.23-16.104l-21.315 30.162 25.903-.394 18.27-29.17zm-131.422 187.974c-8.066 31.14-47.177 65.453-47.897 64.898 20.155 27.825 20.2 68.005 3.215 88.102.073-.446 32.055 25.16 36.72 38.67 2.6 5.367 3.707 11.94 6.962 17.255.86 1.407 3.59 4.895 3.59 4.895 75.615-79.432 37.336-170.28-2.588-213.82zm1.297 8.08c76.394 91.43 28.607 177.192 2.942 201.333l-5.127-8.14c54.412-65.54 29.47-144.435-3.562-181.414zm-7.772 18.195c.525 1.497 3.513 5.814 1.35 5.57l-3.763-.684zm-.38 10.352c1.624-.03 2.99.453 3.747 1.56 1.567 2.505-5.782 23.967-10.643 19.08-1.49-2.8-3.226-5.202-4.602-8.095-1.618-3.452-.625-5.15 2.878-8.673 2.414-2.43 5.913-3.82 8.62-3.87zm10.85 5.59c3.785.227 9.37 12.025 10.02 20.514.25.877-12.797-1.773-16.322-5.682.356-3.49 3.46-12.4 6.302-14.832zm-29.07 10.223c23.307 44.86 22.522 80.23 3.277 113.08l-15.76-13.006c10.004-24.897 14.705-51.37-3.466-84.646zm15.382 11.054c1.556-.163 6.376.464 10.658 1.75 15.15 4.55 15.886 14.395 1.51 21.883-5.954 3.1-7.85 1.81-11.578-13.204-1.844-7.424-3.184-10.156-.59-10.43zm29.395 16.828c2.904-.066 4.336 5.4 4.857 14.854.494 8.98-1.403 9.72-8.753 3.436-7.946-6.792-9.322-8.415-2.252-14.244 2.07-1.707 4.83-4.017 6.148-4.047zm-20.266 15.204c1.428-.15 5.635 2.43 9.754 5.454 10.438 7.665 8.248 13.1-3.386 17.094-8.06 2.773-7.653 3.097-7.694-10.928-.02-6.936-.5-11.427 1.326-11.62zm136.58 10.36c-12.515 3.412-17.597 14.72-13.247 24.74 1.976 4.553 4.86 4.54 1.53 7.405-3.698 4.422-5.525 14.54-1.308 18.14 4.95 2.72 6.123-2.142 1.13 7.428l-91.632 175.623 568.428-11.086-70.578-126.754c.154-.186 5.09-21.208-5.883-23.538-3.526-.748-5.592-3.973-6.36-7.084.734-8.918-3.376-12.634-6.86-17.172-53.903 8.585-100.907 5.612-139.836-2.425-56.075-11.578-96.378-32.623-122.456-38.997-35.962-8.8-79.236-12.123-112.925-6.28zm30.64.66c44.04-1.04 93.582 11.57 128.352 25.895 36.06 14.155 74.183 24.506 112.6 29.486 31.696 3.42 63.204.865 93.407-2.07 3.297-.554 6.73-.162 9.24 2.414 6.4 6.855 2.2 11.293-13.46 13.02-25.146 2.523-56.4 2.185-84.164-1.484-43.952-4.266-90.685-16.707-131.096-32.63-50.47-17.928-96.63-23.413-132.918-17.22-19.93 3.4-22.857 3.93-22.873-1.44-.03-10.475 8.55-15.41 40.912-15.974zm-143.787 32.913c-1.855 4.47-15.81-9.81-15.745-13.91.258-1.81 11.22-9.243 15.568-12.262 2.1-1.67 1.976-.82 2.037 1.098.174 5.47-.013 19.614-1.86 25.072zm-21.278-10.34c6.336.74 17.03 17.62 7.924 20.426-8.063 2.484-15.408 4.12-16.492-1.3 3.938-13.423 5.413-18.734 7.818-19.082.245-.037.505-.044.75-.044zm368.618 51.792c40.473 6.265 93.507 9.508 128.076 6.19 19.8-2.347 24-1.78 24.025 6.495.015 5.185.58 5.047-25.032 5.474-21.26 1.795-40.463-.15-61.087-.85-42.672-1.365-81.534-7.986-117.555-19.782-39.895-9.6-74.652-28.788-113.586-32.188-35.703-2.866-67.65 4-74.307 7.862-2.244.01-3.476-3.296-3.397-6.366.077-3.003 1.153-5.43 3.623-7.387 101.7-27.572 157.366 26.657 239.24 40.552zm-354.85-27.875c3.405-.022 2.41 5.033-2.972 15.805-4.576 9.157-6.442 9.143-9.285-.117-3.036-9.892-2.78-10.997 2.873-12.553 3.33-.862 6.125-2.66 9.383-3.135zm-23.75 5.483c3.992-.01 9.976 17.958 7.13 21.41-2.25 2.727-10.59 1.05-13.068-2.08-3.986-5.037.747-19.312 5.94-19.328zm178.674 1.73c15.843-.44 31.666.976 46.228 3.217-8.305 3.237-16.574 6.235-25.166 11.404-6.085-5.046-12.985-9.942-21.062-14.62zm20.978 21.567c55.448-32.21 79.852 10.478 88.067 17.285 48.767-11.7 58.447-6.53 86.28 22.495 48.6-24.834 72.726-4.877 93.415 7.65 23.61-22.857 54.037-24.012 70.1-13.033 3.057 4.91 7.3 11.136 7.66 13.01.29 1.46-1.983-.206-7.57-4.057-29.154-20.092-76.48 6.405-63.234 33.34 3.566 7.256 3.075 10.418-2.013 13.444-7.215 5.07-16.33-2.97-11.39-11.426 8.246-14.12 1.647-25.7-19.203-36.136-29.385-14.71-76.652 3.184-66.467 25.458 6.39 7.058.67 12.216-7.6 12.105-9.364-.126-12.648-6.332-6.764-13.133 7.338-8.68 5.218-17.31-3.68-27.03-26.8-36.78-79.44-21.08-71.86 11.43 3.215 8.055-5.47 11.48-14.61 8.034-5.816-2.19-5.1-11.135 1.152-14.398 7.26-.864 8.105-11.414 7.118-18.16-1.436-9.814-16.118-19.254-30.558-24.14-10.452-3.538-20.114-4.166-27.717-3.335-16.05 1.754-24.83 12.828-21.896 29.14 1.732 9.624-.79 19.676-12.214 14.57-6.25-2.794-4.817-9.836 1.398-16.41 21.874-22.13-23.4-47.788-50.146-29.088-4.52 3.85-7.855 4.567-7.855 4.567 16.223-42.54 70.05-3.918 69.586-2.182zm73.65-6.99l34.038 12.137c-7.77 1.677-13.224 3.972-18.71 6.26zm-88.07 15.293c-31.31-5.362-32.393 29.537-11.957 34.867-27.297 38.93 46.227 52.556 31.95 5.365 37.24 6.032 29.78-36.092 2.182-35.218 6.18-15.852 57.348-4.825 55.358 6.907-34.387 4.262-20.066 35.404-5.16 35.176-35.424 34.74 37.22 64.9 34.4 13.532 29.03 5.57 31.755-32.883 3.91-34.918 9.93-14.505 46.452-6.115 56.826 10.1-28.634 4.313-26.395 29.5-3.863 33.165-27.826 36.746 42.468 48.906 34.443 6.9 25.255 8.188 38.443-25.547 5.75-34.548 32.966-20.434 69.664 8.51 65.756 9.183-38.06-1.578-29.818 36.385-2.34 33.832-16.806 39.87 52.598 40.846 34.282.13 31.208.022 27.834-36.082-2.1-37.97 18.58-14.054 39.782-15.632 53.662-3.034-28.315 7.985-15.912 40.84 12.543 31.182 3.136 27.62 25.528 21.354 26.015 20.5l20.8 37.2-545.405 10.5 45.035-86.736c27.54.925 26.1-25.543 24.872-26.172 18.527 12.74 37.632-20.077 10.697-28.91 21.464-23.27 54.267-2.706 52.356-1.028zm-177.6.738c-1.12 1.186-1.4 1.888-3.3.184-4.85-5.357 8.074-6.04 3.3-.184zm113.035 12.4c2.438 1.925.88 7.34-1.038 9.215-4.823 5.35-6.49 4.96-2.322-4.203 1.227-2.773 2.398-5.025 3.36-5.012zm239-1.78l28.48 6.355-13.332 7.83c-5.068-5.314-9.94-9.896-15.147-14.187zm88.832 9.855l30.874 1.424c-4.026 2.845-7.98 5.495-12.877 10.635-3.955-4.056-11.383-8.05-17.997-12.06zm103.3 29.637c1.778 3.546 8.806 15.866 8.17 16.203-9.944 1.913-12.877-12.882-8.17-16.203z" fill="#100f08"/>
    </g>
</svg>