<svg xmlns="http://www.w3.org/2000/svg" width="224.225" height="312.808">
    <rect y=".5" x=".498" height="311.811" width="223.228" rx="10.63" fill="#fff" stroke="#000" stroke-width=".997"/>
    <path d="M81.73 261.567l53.415 1.14 14.23 19.738-86.3 1.135zm-22.353 4.52c2.308-4.627 2.754-9.086 2.315-15.513-.347-4.932 2.758-8.773 5.96-7.3 2.477 1.138 1.334 5.804-1.227 4.817-.98-.378-1.84-.035-1.71 2.18.23 5.462 1.693 11.614.434 16.85-.877 5.088-7.916 2.744-5.773-1.034zm-21.626-7.135c-2.72-4.055 2.154-7.854 5.204-5.983 1.447.673 1.242 2.137-.58 1.356-2.544-1.09-5.284 2.764-3.07 4.312 1.02.713 1.408.617.633-.275-2.064-2.386 3.215-3.44 3.062-1.87-.36 1.914-.406 2.72-.582 3.096-1.075 1.67-3.14.818-4.667-.638zm7.584-17.05c-2.937-3.644.43-6.5.386-6.406.87-.938-6.998-15.52-6.004-15.614 9.94-1.05 19.984-.258 29.945.05.003.001-5.31 9.493-7.428 14.2-.853 1.893 1.14 4.12.316 5.527-2.564 2.785-.97 5.87-2.568 6-4.484-.573-8.916-1.312-13.89-.322-.367 0-.405-2.08-.758-3.435zm43.024-101.3c5.026 25.427-2.384 52.38-19.37 70.163-2.398-2.3-4.236-6.636-6.627-9.47-6.64-1.982-11.415.35-16.07 2.634-4.136-2.37-8.794-3.763-13.335-3.703l-.147-3.932c4.595-.1 9.447.323 13.538 2.84l6.4-2.582-19.96-20.584.27-3.518 24.22 24.293 3.12.1c-6.855-18.114-.858-46.885 27.96-56.25zm33.773 31.894l3.5 16.605s-18.513 19.823-29.96 29.233l-8.625-.78s11.782-20.83 9.62-19.24zm69.596 22.774c-8.222 9.152-18.045 14.97-28.955 21.382-4.362-4.844-9.655-10.17-12.712-14.947 9.517-5.056 18.59-8.973 27.9-17.822-.5.572-11.89 4.4-11.852 3.968-.4 1.89-.164 3.054-2.015 3.55-2.192-3.043-4.31-5.513-7.767-6.874-1.45.13-3.374-.822-3.374-.822.968-.197.54-11.875.003-12 0 0 .283-.346 2.815-.296 4.52-.31 7.443-5.746 10.248-7.607 8.766-.717 16.53.142 25.166-.1-.066 10.394.537 21.17.534 31.566zm-55.663-26.326c-.22-.44-2.433-17.664-.33-28.465.387-2.533 4.402-3.393 5.172-5.28 1.277-4.102-.642-9.168.37-13.766 1.03-4.68 3.254-7.312 5.2-10.79 2.108-3.768 5.126-8.47 8.47-11.28.982-.955 4.41 2.123 6.973 7.443 7.444 4.663 16.988-1.354 16.988-1.354s3.704 3.007 12.08 4.65l-.143 3.236c-.042.94-9.422-1.002-11.44-2.88 0 0-6.998 2.33-6.997 2.754.002 1.813 18.474 18.84 18.474 18.84l.104 4.2c-2.77-3.836-24.436-22.27-24.436-22.27 4.804 28.05-6.67 45.516-30.485 54.963zm-30.996-5.5l-.416-16.518 15.787.187.65 16.7zM32.83 145.592c.422-.586-.614-30.787-.55-30.787 10.047-9.945 19.874-15.504 29.726-21.55 4.455 4.39 8.24 8.095 11.523 13.414L59.938 115c.516 2.03-.824 2.762 7.938 10.666.148-.54 3.034-2.15 3.54.257-1.187 5.08.527 9.4.752 12.13-1.197 1.6-3.87-.118-3.87-.118-1.73-1.795-8.514 7.068-10.45 8.06-8.45-.314-25.5.257-25.015-.402zm95.103-53.853c.11-.108 8.593.065 8.48.368-1.545 4.123-5.382 11.44-8.892 19.886-4.045 7.197-9.656 11.437-14.447 16.153-3.83 3.77-7.245 9.713-9.86 8.17-1.597-5.108-1.966-9.64-3.727-15.298-.807-3.353 4.1-5.538 28.448-29.28zm37.118-28.317c3.107 1.32 11.836.63 13.222.035 1.775 1.2.667 2.798.443 3.685 1.823 2.296 2.82 3.11.75 6.813-.473 0 6.362 15.32 6.546 15.33 0 0-7.223-3.412-9.77-5.717l-4.982 6.595-5.79-7.447c-.02.672-11.153 8.025-11.288 7.67-.35-.35 10.166-11.62 8.08-18.235-.503-1.595.648-3.215 1.434-4.62.54-.964-.186-2.828 1.355-4.11zm-5.78-1.373c.47-.54-2.7-14.39.738-19.982 1.456-2.033 4.09-2.137 5.2-.473.842 2.315-1.665 5.537-2.168 7.11-1.63 4.385.8 10.168-.39 14.312-3.538 9.05-9.805-.9-3.37-.968zm23.553-6.152c-1.865.08-.563-5.467-.256-7.057-.008-.315 3.413-1.1 4.647 1.072 2 3.26-.402 7.375-4.39 5.984zm-22.24-27.973l-17.568 21.27c-17.763-2.036-35.59-3.33-53.753-.56l-14.608-20.29z" fill="#e2cf00"/>
    <path d="M192.465 26.367l-162.533.503 1.784 258.01 162.163-.958zm-37.395 1.58l5.348.01L140.96 51.8l-.48.16c1.297 3.782 3.148 8.497 4.915 12.078 2.815 5.787 9.89 16.422 5.476 24.93-.433.73-.835 1.084-1.376 1.082-.75-.004-.736-.442-.29-1.295.983-1.88 1.65-6.335 1.257-8.693-.25-1.505-1.1-3.825-2.686-7.33-7.395-13.597-9.705-20.844-9.286-20.845-.097-.06-.262-.145-.53-.21l-.726-.24c2.562 8.595 6.727 15.822 10.022 22.513 2.703 6.218 2.993 8.63 1.58 13.158-.547 1.753-1.537 2.875-2.5 2.87-.73-.003-.687-.15-.2-1.04 2.6-4.63 1.99-9.684-1.23-15.563-4.676-9.7-7.482-15.853-9.148-22.083-.042-.002-.853-.274-1.145-.343 1.387 6.484 5.263 13.962 8.87 21.615 2.983 5.893 3.842 10.188 2.766 13.58-.352 1.47-1.477 3.66-2.9 3.725-.556-.003-.644-.292-.12-1.05 2.2-3.774 2.603-7.255-1.352-15.18-3.636-7.286-7.285-15.44-8.53-22.562-.08-.584-1.66-1.277-1.32-.308 1.952 8.413 5.84 17.03 9.97 25.428 2.325 5.214 2.565 8.55.82 11.47-.975 1.63-1.224 2.002-1.955 2.018-.864.02-.85.05-.372-.94 2.11-4.385 1.763-8.248-1.056-14.586-3.866-8.7-7.122-15.882-8.512-23.53-.25-.07-1.56-.577-1.37-.195 1.933 7.286 4.408 14.048 7.597 20.887 1.1 2.373 2.91 6.988 3.492 9.3 1.102 4.402-1.383 10.447-4.636 10.752-1.213.114-1.062-.49.29-1.74 2.327-2.157 2.778-5.598 1.988-9.6-.593-3.073-1.614-6.37-3.018-9.722-2.838-6.777-5.927-13.868-6.904-20.123.032-.56-1.268-.562-.902.024.702 4.398 2.378 9.407 4.214 14.06 2.008 5.1 4.997 10.793 5.975 17.04.8 5.11-2.4 9.936-6.28 10.224-4.676.347-5.597-4.266-4.472-6.43 1.835-3.23 7.164-1.384 5.58 1.917-.912 1.9-3.696 1.4-3.578-.683-.032-.2.267-.76.214-.792-.097-.056-.505.317-.636.55-.946 1.688 1.896 3.952 3.872 2.595 6.62-3.575 2.15-14.478-.735-21.14-2.794-6.205-4.843-11.813-5.732-17.556-.242-.167-1.334-.444-1.18-.247.802 3.066 1.172 5.652 1.97 8.228 1.25 4.04 3.494 8.562 5.324 13.09 1.663 4.458 3.332 8.244 2.572 12.892-.07.43-.247.944-.54 1.257s-.543.263-.63-.92c-.03-.16-.24-.374-.27-.58.163-1.746.044-3.477-.408-5.12-.387-1.375-1.124-2.78-2.68-5.452-.614-.995-2.22-4.037-1.657-1.935.324 1.19 1.426 3.83 2.572 5.745.712 1.188 1.46 4.432 1.238 5.058-.234.613-.777.648-1.03.437-.228-.2-.226-1.058-.285-1.594-.24-2.204-2.502-6.05-4.07-7.56-1.127-1.254 2.655 5.333 2.932 7.09.117.744.35 1.348.095 1.713-.168.24-.507.242-.84.157-.32-.082-.306-.302-.645-1.433-.58-1.935-1.297-2.9-2.785-4.655-.5-.598-.85.15-.038 1.12 1.124 1.77 1.968 2.9 2.254 5.177-.728 1.03-1.086.83-2.6-1.78-1.006-1.724-1.6-2.167-1.874-2.154-.668.032-.037.856 1.836 3.8.97 1.572.994 2.548-.11 2.543-.374-.002-2.47-2.3-2.994-3.298-.435-.827-.976-1.46-.977-.45 0 .4 1.297 2.517 2.187 3.544 1.403 1.62 1.805 1.945 1.983 2.662.085.342.255.94.375 1.33.36 1.166.177 1.498-.55.883-.33-.863-.596-.953-1.5-1.618-.76-.56-1.818-2.013-2.5-3.037-.26-.387-.486-.877-.753-1.27-.68-1.267-1.583-1.376-.93-.1.31.593.8 1.565 1.336 2.286.88 1.25.7 1.903-.346 1.898-.447-.002-1.7-1.64-2.482-2.918-.5-.834-1.308-1.425-1.2-.598.024.205.64 1.672 1.566 2.818 1.005 1.246 1.137 1.907.16 1.903-.666-.003-1.24-.636-2.088-1.926-.806-1.226-1.3-1.658-1.537-1.518-.29.177 1.157 2.607 2.344 3.934 1.123 1.255.3 1.97-.992.854-.7-.605-2.103-2.41-2.496-3.27-.703-1.534-1.156-1.116-.702.1.5 1.34 1.28 2.806 2.225 3.758.495.5 1.514.9 2.012 1.32 1.4 1.216 2.303 2.338 2.187 2.54-4.02.226-7.32-4.05-8.223-6.638-.64-1.702-1.373-1.953-.68.45 1.96 5.97 8.07 9.073 12.294 6.396 2.55-1.615.297-5.82-1.79-4.465-.567.368-.592 1.412.128.854 1.355-1.05 2.717 1.54 1.238 2.306-2.08 1.077-4.385-1.03-2.97-3.587 1.397-2.624 6.998-1.122 5.903 3.117-.664 1.903-3.572 4.28-6.064 4.327-4.632.087-7.83-3.452-9.613-6.947-.228-.45-.638-1.333-.977-2.054-.293-.623-.524-1.086-.548-1.08.515 4.243 4.583 9.5 8.225 10.357 6.052 1.418 7.708-2.177 11.668-5.893 0 0 2.893.375 2.994.313.267-.163 5.63-.402 5.79-.25-21.665 39.15-20.016 85.627-1.386 120.906 1.232 2.58 1.447 2.092-.593 1.566-2.108-.548-4.02.294-5.732-.1-3.542-.72-4.296 1.688-7.018 2.975-3.395 1.278-2.627 3.63-3.435 5.903-.255.352-.44.64-.3.594.225-.075.948-.742 1.003-1.33.14-1.504.678-2.694 1.29-3.293.584-.57.993-.86 1.134-.612.1.193.028.866-.26 1.41-.823 1.55.27 6.736.337 3.045.054-2.93 1.836-6.195 4.327-7.532 1.995-.973 2.613-.874 1 .624-1.846 1.96-3.1 4.244-3.174 7.087-.03 1.18.44 2.162.607 1.106-.07-5.414 5.356-11.443 11.176-8.446.3.21.535.6.45.822-5.636-.942-10.54 2.127-9.817 9.393 0 0 .506-1.424.8-2.845.888-4.45 5.938-6.397 9.48-5.177.666.28 1.19 1.217 1.096 1.343-4.332-1.355-9.086 2.725-9.362 7.146-.1 1.438-.056 2.67.683.076 2.797-9.822 11.427-5.37 10.366-4.565-6.68-.794-9.096 3.685-8.943 8.864.096.473.34.632.54 1.072.9 1.95 1.295 3.624 1.367 7.165-.068.912.69 6.72-.074 6.474-2.426-.894-4.27-1.95-8.473-.066-.378.02-.502-.188-.373-.515.175-.44.832-1.308 1.978-2.592 2.582-2.743 1.1-2.008-1.024-.105-1.37 1.23-1.073.39.218-3.807.523-1.7.197-1.907-2.055-3.048-2.32-1.174-3.923-1.353-1.955-.123.772.47 1.595.964 2.47 1.312 1.026.56.91.794.152 3.246-1.47 4.763-1.983 6.503-1.906 9.706.187 7.79 7.638 7.018 11.88 5.266l.176 5.13 15.973 22.42s-55.835-.058-85.708.432c1.706-4.082 19.765-21.372 20.84-24.465.103.015-2.002-6.32-3.108-9.077-5.223-13.015-12.088-18.486-8.112-27.037.855-1.695 1.004-2.266 1.654-2.263.882.004 1.165.588.172 2.246-4.27 7.133 4.84 19.442 7.916 27.292.493 1.258 2.554 7.15 2.917 9.133.035.606 1.48.813 1.076.105-1.134-4.01-2.56-8.392-3.22-9.97-2.432-5.796-5-9.75-7.36-15.416-1.325-3.58-2.03-7.715.025-11.426.748-1.35.962-2.102 1.455-2.173.425.002.675.146.702.493.03.38-.205 1.002-.764 1.95-3.59 6.088 2.8 15.924 5.95 22.937 2.06 4.572 3.893 9.38 4.54 13.718.01.3.406 1.093 1.197.552-1.367-8.1-5.385-15.956-8.905-23.525-3.006-5.913-4.135-11.067-.117-15.935.35-.336 1.1-.28 1.153.218.028.338-.23.98-.86 2.278-3.54 7.377 1.94 13.37 4.512 20.403 2.51 5.88 4.842 10.82 5.78 17.087.7.268 1.06.605 1.137-.283-1.835-8.854-5.79-16.813-9.222-24.48-1.586-3.33-2.146-4.93-2.254-7.16-.148-3.068 1.402-6.95 2.79-7.975.36-.265.585-.313.914-.134.45.244.36.407-.53 2.088-1.703 3.21-1.85 6.818-.27 10.633 2.728 5.86 5.026 10.668 6.655 14.975 1.782 4.712 2.783 8.803 3.187 12.496 0 0 1.214.537 1.033-.266-.757-5.167-2.47-10.528-4.318-15.065-1.745-4.282-3.93-8.403-5.703-12.648-2.15-5.09-.37-10.656 4.038-13.436l2.028.044c-.118-.053-4.624 1.73-4.86 8.15-.225 6.116 2.68 9.875 4.783 15.056 2.562 6.25 4.855 11.728 5.4 18.406.2.233 1.31.282 1.292.184-.546-4.492-1.86-8.762-3.74-14-1.997-5.578-3.983-8.05-5.836-13.907-1.254-3.962-1.085-9.33 1.708-11.782 4.18-4.21 10.012-1.212 8.55 3.606-1.127 3.39-5.787 2.717-5.762-.46-.006-2.052 2.528-2.607 3.366-1.058.195.3.326 1.62.413 1.67s.35-1.038.35-1.28c.008-1.685-2.286-3.105-3.995-2.25-2.34 1.172-3.86 3.866-3.706 7.473.164 3.837.86 6.318 4.01 12.335 3.67 7.01 4.887 14.6 5.67 19.715.338-.142.745.04.877 0-.535-6.973-2.833-14.135-5.7-20.09-3.473-7.21-4.445-11.624-3.287-14.855.17-.475.332-.832.54-.864.388-.058.508.56.868 1.855.1.397-.03 1.022-.11 1.504-.302 2.958 1.777 9.11 3.71 11.843.566.78 1.29.753.664-.63-1.992-3.574-3.205-6.815-3.364-11.16-.047-1.277 1.445-.704 1.48-.063.108 2.075.316 4.52 1.31 6.26 2.02 3.443 3.144 3.593 1.077-.25-.46-.892-1.772-4.663-1.243-5.96.295-.264.653-.312.83-.047.584 2.132 1.393 4.242 2.823 5.884.75.855.873.47.48-.598-.658-1.234-2.72-5.362-1.77-6.292.306-.252.126-.115.958 1.238 1.158 1.885 1.8 2.623 2.353 3.174.75.733.93.24.157-1.05-1.546-2.573-2.426-4.71-1.882-5.25.537-.53.666-.285 1.887 1.786.543.922 1.33 2.28 1.6 2.6s.512.4.517.138c-.285-2.5-2.44-5.35-3.307-5.846-.125-.232-.08-2.206-.08-2.206 3.237 1.66 3.37 3.534 5.514 6.42.22.215.535-.047.44-.446-.075-.54-1.344-2.94-2.14-3.995-.626-.828-.654-1.303-.123-1.542.858-.386 2.055.883 3.33 3.15.592 1.052 1.383 1.662 1.386 1.1.002-.304-1.1-3.017-1.86-3.8-1.266-1.306-.64-2.22.826-1.01.665.548 1.567.96 2.496 2.956.542 1.165 1.008 1.314 1.01.384.003-1.045-1.76-3.598-2.947-4.304-.918-.547-1.44-1.158-1.18-1.566.805-1.178 4.06 1.827 5.172 4.622.328.825.903 1.246 1.044.883.25-.185-.4-2.2-1.087-3.132-1.118-2.132-3.76-4.192-5.324-3.943-.303.048-1.134-1.7-1.134-1.7 3.992-.642 7.87 4.117 8.56 5.898 1.31 3.38 1.975 2.983.83.02-2.237-5.792-9.187-9.037-13.044-6.235-2.196 1.596-.883 5.412 1.376 4.765.898-.335 1.768-1.246.19-.946-1.757.175-2.317-2.488-.526-3.022 2.882-.86 3.543 3.712 1.215 4.73-2.415 1.03-4.82-.507-4.593-3.146.428-4.99 6.585-6.432 12.664-2.396 1.7 1.135 3.813 4.835 4.536 7.18.24.775 1.044 1.046 1.143.948.23-.23-1.688-4.347-2.32-5.394-2.647-6.033-12.217-6.33-12.217-6.02 0 0-3.748 2.348-7.077 6.217l-8.553-.784c21.792-34.833 23.505-86.047 1.153-122.303.286.184 4.297 1.216 5.68.133 1.02-.486 1.313-.655 2.44-.25 1.268.454 2.604.052 3.986-1.205 1.04-.947 1.06-1.24 1.732-1.153 1.984.256 3.302-.9 3.71-3.75.16-1.12.27-2.282.11-2.11-.094.1-.324 1.067-.47 1.675-.4 1.674-.773 2.287-1.428 2.833-1.08.9-1.703.396-1.253-.968.426-.88.78-3.145.195-4.176-.102-.185-.127.516-.275 1.077-1.178 4.463-2.412 6.73-4.548 7.252-1.002.245-1.466.093-1.142-.48 3.767-3.995 3.516-8.422 3.23-8.043-.8 2.56-2.288 6.38-4.73 7.948-2.11 1.355-5.2 1.484-6.918.346-.976-.646.5-.837 2.708-.867 3.72-.05 7.198-4.995 6.62-9.164-.136-.77-.348.057-.65 1.324-1.373 4.514-3.727 7.684-9.106 6.738-.42-.074-.7-.35-.93-.508-.876-.604-.553-1.018 1.186-.792 3.89.506 7.276-3.124 7.255-7.51-.01-2.105-.313-2.08-.65-.512-.473 2.2-2.202 9-8.493 6.776-1.133-.612-1.75-1.394-1.348-1.51 3.67.737 7.032-.066 8.34-4.864.564-2.07.43-4.094-.145-5.79-.182-1.15-.57-2.03-.702-3.198-.35-3.133-.853-6.593-.702-10.02.3-.298.353-.233 1.41.465 2.074 1.37 3.642 1.055 5.75.242 2.713-.975 2.467-.8-.37 2.39-.592.665-1.2 1.477-1.257 1.604-.722 1.346.632.358 1.647-.91 1.4-1.763 1.705-2.17 1.983-2.168.094 1.906-.596 4.222-.954 5.784-.47 1.732-.463 2.132.645 2.577.48.193 1.407.57 1.922.816 2.32 1.103 2.106.205.256-.835-2.498-1.405-2.52-1.334-1.803-3.668.838-2.737 1.25-5.106 1.703-7.815 1.122-6.698-3.953-10.382-10.695-8.043-.386.193-.832-3.52-.77-4.503.06-.355-1.02-.277-1.903-1.357.27-.24-9.94-12.974-14.695-20.697l80.18-.474zm-16.58 23.93c.065.042.104.076.104.076-.044-.052-.08-.076-.104-.076zm23.108-23.32h28.593l.413 61.59-2.534.062s-4.773-8.176-6.03-12.038c-.314-.965-.863-2.292-1.077-2.814-.485-1.182-.825-1.328-.18-2.05 1.292-1.446 1.037-4.37-.218-5.78-.388-.457-.59-.303-.57-1.414.017-.956.107-1.567-.147-2.06-.424-.823-.712-.882-.104-1.79.636-.95 1.48-2.49 1.836-3.7.575-1.954.17-2.32 1.452-1.86 3.217 1.02 5.91-1.266 5.828-4.497-.07-2.72-2.625-5.143-5.595-4.4-.685.17-.82.113-1.874-.546-.302-.19-.762-.587-1.153-.735-.49-.185-.893-.17-1.096-.517-.4-.683-1.64-1.768-3.155-1.7-.924.043-2.125-.3-2.444-.456-.527-.274-2.008-.05-3.89-.332-.837-.125-1.51.2-1.917.204-1.16.014-.686-.13-.906-1.006-1.453-4.573-5.695-4.028-7.64-.588-.714 1.35-1.23 3.352-1.5 5.42l-11.426-.17zm-88.427.133c4.268 5.407 8.352 11.467 12.655 16.987 5.295 6.686 5.47 7.454 4.047 14.183-.795 3.803-1.136 4.68-2.747 4.394-1.513-.27-2.793.915-3 2.415-.387 2.816 2.34 4.55 5.077 3.14 1.444-.743 1.492-.823 1.01 1.632-.69 3.518-2.072 6.547-2.96 6.448-2.296-4.853-7.88-1.4-6.026 3.645-.58.88.182 1.997.474 2.92 0 0 .012.11-3.178 1.16-15.665 4.618-35.067 16.674-45.66 28l-.72-84.683zM163.06 40.24c.657-.017 1.3.192 1.813.66 1.366 1.222 1.045 2.93-.845 6.145-1.982 4.48-1.44 8.008-.987 12.712-.013 2.73-.94 5.326-2.415 6.448-2.392 1.818-5.34-.617-4.1-3.084.635-1.226 1.984-.51 2.3-1.67.113-.693.1-1.784.176-2.3-.285-2.062-.876-8.35-.878-10.534.025-1.88.644-4.242 1.5-6.012.836-1.475 2.18-2.33 3.435-2.363zm3.767 7.31c-.542.45-1.447.46-1.552-.103.003-.59.465-2.467.784-2.674 1.96-.456 1.335 2.29.768 2.777zm2.928-2.93c1.618-.063 2.685 4.063 1.28 6.477-.267.05-2.23.037-2.24.076-.033-.432.096-1.292.242-2.116.125-.705.2-1.24-.014-1.998-.53-1.9-.877-2.245.73-2.44zm3.084.057c.06-.002.123 0 .2 0 1.644.008 2.58 3.172 2.064 6.63-.074.496-.117 1.017-.3 1.134-.687-.186-2.595.492-2.628.487-.18-.183-.107-1.166.137-2.053.45-1.64.576-2.73.047-4.427-.38-1.466-.394-1.745.49-1.77zm4.095.91c1.806.303 1.923 5.29 1.18 6.91-.177.24-.858.18-1.1.27-1.535.438-1.194.667-1.015-1.77.122-1.672.152-2.97-.1-4.35-.122-.606-.17-1.028.27-1.068.256-.05.53-.043.764.01zm-9.01 1.95c.72.983.14 3.257-.408 4.1-.627.932-.878 1.01-.536 1.417.145.173.447 1.054.26 1.423-.344.685.54.807 1.343 1.224 1.303.68 1.935 1.933 2.907 4.214.34.795 1.034.544.697-.31-.29-.733-.4-1.81-.6-2.53-.208-.74.02-1.11.875-.892 1.286.326 1.108.02 1.578-.152 1.032-.57 1.724.237 1.1.683-.358.256-1.12.412-1.965.644-.717.197-.55.886.17.883.666-.003 2.575-.538 3.82-.914 3.57-1.078 3.69-1.652 3.355.375-.44 2.68-1.906 4.69-4.327 5.37-2.108.592-6.975.48-9.144-.214-2.06-.93-2.196-1.582-2.818-3.393-.852-2.478-1.354-6.672-.375-9.1.863-2.058.776-1.842 1.604-1.74.736.256 1.726-.03 1.945-.48.11-.215.39-.608.517-.6zm13.67 1.485c.203 1.102.222 2.236-.16 3.09-.222.4-1.472.38-1.955.384-.286.067-.264-3.725.043-4.138.727-1.09 1.666-.214 2.074.664zm-36.218-.655l3.535.043v.86l-4.17-.028zm12.37.147l.005 1.115-5.324.01v6.985l5.955.02.033 1.452-7.97-.028.024-9.547 7.28-.005zm27.06-.223c5.458 1.198 3.023 7.227.977 7.592-2.55.455-4.712.168-4.005-2.074.71-1.52.217-3.412.418-4.792.492-.455 1.777-.91 2.6-.726zM143.66 50.41l5.253.052v1.153l-6.002-.014zm11.668 1.063a1.52 1.52 0 0 1 1.518 1.518 1.52 1.52 0 0 1-1.518 1.518 1.52 1.52 0 0 1-1.518-1.518 1.52 1.52 0 0 1 1.518-1.518zm14.818.603c.977.107 1.06 1.6.663 2.038-.512.507-1.468.29-1.76-.486-.263-.7.325-1.582 1.096-1.552zm-27.952.65l6.72.02v.935l-6.785.057-.18-.603zm37.822.403c.932-.022 1.503.76.92 1.428-.877.974-2.667-.516-.92-1.428zM108.42 55.17c-1.503 1.27-.3 2.516 1.7 1.314 4.296-2.584 10.634-.536 14.765 1.617.81.414.92-.552.123-1.22-3.816-3.36-11.95-5.285-16.587-1.71zm65.106-1.766c1.05.005 1.034 1.312.36 1.78-.674.292-.79.2-1.238.036-.614-.24-.155-1.8.878-1.816zm3.717.02c1.244.06 1.106 2.563-.773 1.66-.68-.732-.24-1.666.773-1.66zm-34.727 1.29l6.53.057v1.063l-6.107-.062zm-42.197 2.5c1.784 1.415 1.23 1.502-1.727.46-1.933-.43-3.857-.156-5.068.323-1.432.566-1.763.403-1.144-.555 1.665-1.868 6.255-1.49 7.938-.228zm8.58 2.344c-.18.442-.8-.353-1.618-.2-1.18.22-.84.276.408 1.694s1.656 1.755 1.58 2.3c-.112.805.114 1.247.916 1.158.385-.043.843.403 1.433.94 2.043 1.856 3.075 2.78 3.74 3.065 2.705 1.167 1.487-.15-.242-1.343-2.882-1.99-3.884-3.314-1.836-2.605 2.176.754 5.637.326 7.34-.7.84-.506 1.37-1.28 2.553-.903 1.66.53 2.297-.448 1.836-.996-.754-.484-2.476-1.06-4.11-2.16-3.497-1.774-7.174-1.722-9.623-.294-1.444.84-1.946.25-.53-.584 5.677-3.06 10.168-.13 13.803 2.07.63.382 1.07.35 1.072.08-.096-.888-1.713-1.433-2.368-1.832-5.063-3.08-10.385-4.064-14.353.308zm34.472-2.71l5.675.005v1.12l-5.257-.024zm-46.173 1.428c1.572-.007 4.99 1.403 4.935 2.572-.066.444-.922.046-1.665-.408-1.438-.878-3.645-1.113-5.722-.726-1.595.297-2.102.56-2.33.37-.55-1.238 3.324-1.8 4.783-1.808zm61.362.835l.01 2.007c-3.08.225-3.715 3.647-1.738 5.553 1.62 1.563 4.298.947 5.644-1.27.235-.394.263-.632.408-.437.1.122.168.495.242.86.213 1.053-.1 1.323-.788 2.225-1.128 1.458-1.282 3.296-.574 4.664.195.377.602.914.53 1.163.394-.012-3.498 10.88-9.184 16.368-.952.633-1.642-.11-1.15-1.132 4.632-10.584-4.23-20.416-7.668-29.874l14.268-.128zm-41.172 1.827l.81.07c-.653 4.876-5.384 4.09-5.57.12l.683-.024c.922 3.695 4.086 2.182 4.076-.166zm-26.728.1s.34.544.342.85l-.047 3.274c-.274 4.692-6.227 5.562-5.775 1.547.354-1.705 2.507-1.893 3.037-.35.773 1.94.91-.467.92-1.22.63-1.182 1.093-2.617 1.523-4.1zm28.688.332c.244.006.68.22 1.025.588.392.42.246.63-.67 1.1-1 .51-1.438.465-1.082-.565.22-.64.412-1.133.726-1.125zm44.536.247c.135.006.48.183.4.693-.135.85-.87 1.335-1.063 1.134.123-.45.27-1.65.664-1.827zm-51.644 1.646c-.117.344-.32.195-.84-.247-.573-.487-.543-.798.047-1.148.848-.51.9 1.078.792 1.395zm-18.026-1.272c.993 3.14 3.02 2.74 3.924.152l.868-.014c-.19 4.042-5.308 3.97-5.352.062zm-1.794.39c.303-.048.085 1 .085 1s-.84-.434-.346-.892c.062-.057.218-.102.26-.11zm7.516.266c.104-.006.3.073.512.214.497.33.412.523-.157.996-.875.73-1.27.324-.797-.655.176-.364.308-.547.44-.555zm65.352.683c.37-.023.89.145 1.988.437 3.028.804 7.08.775 10.53-.176 1.09-.3 1.898 1.6 1.3 3-.26.613-.214.7.58 1.514 1.124 1.17 1.305 3.053.45 4.77-.622 1.25-.58 1.137.157 3.27.337.976.772 1.97.85 2.24.93 3.142 3.228 6.854 4.63 9.96 1.4 2.183-2.5.024-2.5.024s1.05 1.408 2.448 2.463c1.355 1.03 4.02.333 5.238 1.585.285.394-.277 8.727-.565 8.958-12.038-.56-32.118-.12-32.118-.12l3.763 5.865c5.92 2.365 11.58 1.773 16.992-1.632-.134.5 6.586 3.775 12.104 4.133l.033 3.948c-4.094-.46-8.243-.554-12.047-2.947 0 0-3.496 1.462-7 2.558l19.616 20.29.01 3.39s-8.374-7.816-16.992-16.626l.185 43.326 16.973.332c-.533 11.276-.318 18.445-.204 31.36-8.02 8.228-19.056 16.46-29.253 21.404-4.812-4.64-8.787-9.667-12.266-15.04-.074-.114.35-.33.278-.444-.106-.165-.71-.228-.82-.39-2.12-3.158-7.048-11.913-6.268-12.12 1.508.104 8.497-.76 9.888-4.95.01-.266-.152-1.013.038-1.888.49-2.27.743-5.718-.1-7.9-1.502-3.95 3.017-2.684 3.17-2.42l-.005-14.923c-5.88 4.714-11.812 9.353-19.673 11.293-4.89-24.643 2.864-55.29 24.968-76.076l-1.212-.104c-22.7 23.497-28.665 49.336-24.8 76.55 0 0 .144.85.166 1.138.053.677-.11.935-.712 1.424-.574.377-1.096.783-1.044 1.248.097.874-.743.902-1.84.897-.506-.443-1.187.116-1.594.318-.57.084-.853-2.24-1.58-.536-.277 1.076-.802 1.157-2.017.622-.763-.223-.78.156-.047 1.04 1.013 1.1 1.87 2.72 1.703 3.208-.372 1.096-.2 2.2 1.338 2.828-.088.007-.935 3.342 1.466 3.246.764.008 2.7.4 2.7.4.126.637-.08 1-.38 1.28l-1.67-.835-.437 1.988-2.225-.157 5.414 6.686.63-5.215 6.33.802c1.016 2.636 7.41 17.302 19.635 28.213l-8.555 3.82-1.163-4.157-1.05 1.51-1.87-.48-.218 1.708-1.665.536 2.904 2.192-7.464 2.27c-21.322-34.39-30.97-82.162-4.418-132.68l6.71.085-1.3 2.24 1.907-.304.54 1.632 1.4-.66 1.41 1.765 1.602-4.715 5.346.047c.465-.053 10.047-8.092 9.84-8.4-.148-.22-10.435 7.296-10.78 7.008 0 0-1.032.246-.228-.716 1.445-1.727 2.463-3.04 3.93-5.523 2.422-3.296 3.5-7.317 4.08-10.04.01-.19.062-.63-.1-.95-.924-1.832-.72-3.03.94-5.19.58-.757.616-.944.45-1.41-.374-1.05-.015-1.947.75-2.652.304-.28.5-.414.788-.432zm-56.534 7.317c4.21 1.73.83 5.56-2.298 2.22-1.64-1.75-2.933-1.638-3.824-.36-.402.576.183 1.588.702 1.267.482-.298.977-.65 1.68-.005 5.325 4.903 9.15-1.96 4.56-3.668-.568-.26-1.375.318-.82.546zm-17.344-.166c.04-.002.086.02.147.057.2.125.214 1.857.014 2.586-.665 3.692-3.297 12.27-8.697 8.07-2.144-1.667-.194-5.854 2.372-4.432 2.004 1.11.65 3.76-1.518 2.24-1.053-.74-.72.785.17 1.22 1.508.79 4.238-.562 5.518-2.97.51-.96.99-2.657 1.528-5.1.27-1.23.293-1.66.465-1.67zm.456 6.39c.445 2.67-1.587 7.343-4.48 8.033-2.214.528-4.95-.914-4.754-2.25.057-.388.215.124 2.22.456 2.8.463 4.584-1.05 6.197-4.53.51-1.1.727-1.684.816-1.708zm6.97 1.276c-.002.3-.145 1.096-.27 1.623-.298 1.25-.486 1.725.883 1.106.904-.417 2.227-.83 3.597-.07 1.5.837 2.952.682 4.73-.07 1.545-.514 2.298-.52 3.16-.024 1.574.905 1.034.327.83-1.955-.14-1.607-.58-1.395-1.144-.788-.37.4-1.12.486-1.955.038-.995-.534-2.38-.28-2.847.1s-1.14.43-2.055-.185c-.605-.408-.943-.195-1.684.138-1.222.547-1.69.252-2.353-.26-.603-.44-.885-.3-.892.35zm-6.064 1.917c.16-.002.177.615.066 1.855-.51 4.577-4.094 7.126-8.313 4.91-1.848-1.055-1.597-1.8.223-1.14 2.9 1.052 5.832-.42 7.264-4.18.367-.964.62-1.446.76-1.447zm10.297 3.265c2.086.863 4.4.59 4.988-.176.66-.858-.353-.717-.884-.588-1.826.437-3.08.278-3.82-.052-2.163-.835-2.026.07-.285.816zM81.3 85.897c2.705 3.3 3.06 3.957 5.4 7.72 17.032 28.908 22.485 65.445 11.288 98.614-3.073 9.152-7.407 18.48-12.266 25.974l-5.832.062 2.002-2.282-2.714.2-.166-1.51-2.06.664-.992-2.278-1.865 5.215-10.81.028c25.316-24.6 30.302-54.414 25.58-78.348 0 0 2.116-1.323 2.4-2.097.07-.188.23-.987.375-1.106.94-.616 1.566-1.214 2.03-1.096.267.068.404.19.598.474.892 1.307 1.084 1.51 1.57.195.35-.945.2-1.286 1.348-1.106.672.357 1.567.347 1.485.214-.06-.1-1.014-1.22-1.466-1.855-1.068-1.504-1.375-1.775-1.276-2.434.15-1.003-.65-2.086-1.148-2.358.144-2.703-.894-2.973-3.834-3.578-.015-.466.064-.845.27-1.262l1.727 1.376.626-2.553 2.344.128-6.795-6.576c.034 1.855.122 3.73-.047 5.518-3.185-.174-6.328-1.2-6.376-1.006C78.025 109.82 70.9 100.51 63.374 93.242l7.516-3.61 2.13 4.062.522-2.3 1.865.327.313-1.476 2.06-.29-2.273-2.16zm44.76 4.75c.287.362.518.387.902.716l-.77.546c.036-.516-.01-.78-.133-1.262zm-50.007 1.357a1.16 1.16 0 0 0-1.158 1.158c0 .637.52 1.153 1.158 1.153a1.15 1.15 0 0 0 1.153-1.153c0-.637-.516-1.158-1.153-1.158zm6.27.183a1.16 1.16 0 0 0-1.158 1.158 1.16 1.16 0 0 0 1.158 1.158 1.16 1.16 0 0 0 1.158-1.158 1.16 1.16 0 0 0-1.158-1.158zm-20.202.846c3.722 3.093 7.143 7.123 11.293 13.428l-.085.85 1.267.47s6.903 9.086 6.54 13.124c-2.37.495-4.204-.38-8.44 3.582l-2.724-.593-2.866.698s.037.898.75 1.2c.3.13.823-1.125 1.158-1.087 1.393.16 2.796.183 2.54.622-.292.125-1.04 9.152.413 11.075.81 1.957.23 1.94-.498 2.3-.8.517-3.28-.574-3.28-.574l.574 14.334c6.566-7.5 20.434-12.486 19.45-11.943 6.96 36.765-9.587 61.29-26.91 79.27l9.077.052s-7.826 12.553-8.408 16.024c.444 1.153 1.675 3.543-.403 5.22-.703.77-.778 4.27-.778 4.27-4.773.164-8.91-1.493-14.415.437-.57.192-.694-2.997-.72-3.573-1.69-1.582-1.96-4.8-.498-6.472.542-.616.312-.29-.142-2.372-.725-3.324-3.14-7.883-4.977-10.81-.602-.96-1.206-2.08-1.352-2.425-1.314-1.558-4.767-.838-5.186-1.248-.382-.32-.63-8.82-.242-9.025 13.604 1.08 34.894-.157 34.894-.157l-5.713-7.98c-7.037-2.743-16.706 1.94-16.24 2.188.023.027-7.728-4.227-13.105-3.622l.177-4.168c4.776-.02 9.183.87 13.03 3.14l6.536-2.434-20.033-21.015.233-3.464 10.68 11.33c4.773 5.02 6.558 5.865 6.558 5.865l.014-43.587-17.224-.043-.46-8.906-.446-.778-.204-6.39.48-.65-.166-2.733-.16-.39-.218-6.53.37-.55.057-4.11c8.323-8.147 29.812-21.85 29.812-21.85zm14.714 1.238l2.007 8.797 1.348-1.67 2.07.65.142-2.026 1.884-.655zm68.447 1.463a1.16 1.16 0 0 0-1.158 1.158 1.16 1.16 0 0 0 1.158 1.158 1.16 1.16 0 0 0 1.158-1.158 1.16 1.16 0 0 0-1.158-1.158zm-5.42.724a1.16 1.16 0 0 0-1.158 1.158 1.16 1.16 0 0 0 1.158 1.158 1.16 1.16 0 0 0 1.158-1.158 1.16 1.16 0 0 0-1.158-1.158zm-66.37 1.025a1.16 1.16 0 0 0-1.158 1.158 1.16 1.16 0 0 0 1.158 1.158 1.16 1.16 0 0 0 1.158-1.158 1.16 1.16 0 0 0-1.158-1.158zm70.524.698l-8.057 7.578 2.26-.095.404 2.21 2.02-.925 1.636 1.51zm3.43 2.546a1.16 1.16 0 0 0-1.158 1.158 1.16 1.16 0 0 0 1.158 1.158 1.16 1.16 0 0 0 1.158-1.158 1.16 1.16 0 0 0-1.158-1.158zm-64.074 1.492a1.16 1.16 0 0 0-1.158 1.158 1.16 1.16 0 0 0 1.158 1.158 1.16 1.16 0 0 0 1.158-1.158 1.16 1.16 0 0 0-1.158-1.158zm5.01.968a1.16 1.16 0 0 0-1.158 1.158 1.16 1.16 0 0 0 1.158 1.158 1.16 1.16 0 0 0 1.158-1.158 1.16 1.16 0 0 0-1.158-1.158zm-4.546 1.722c.222 3.096.583 6.768.664 9.87l1.528-1.504 1.765.716.626-1.903 1.922-.095zm49.608 2.583a1.16 1.16 0 0 0-1.158 1.158 1.16 1.16 0 0 0 1.158 1.158 1.16 1.16 0 0 0 1.158-1.158 1.16 1.16 0 0 0-1.158-1.158zm-52.93.203a1.16 1.16 0 0 0-1.158 1.158 1.16 1.16 0 0 0 1.158 1.158 1.16 1.16 0 0 0 1.158-1.158 1.16 1.16 0 0 0-1.158-1.158zm57.52.28a1.16 1.16 0 0 0-1.158 1.158c0 .64.612 1.158 1.158 1.158s1.158-.518 1.158-1.158a1.16 1.16 0 0 0-1.158-1.158zm-.686 2.5l-6.68 6.87 2.187.204.688 1.95 1.4-1.186 1.7 1.243zm3.668 1.473a1.16 1.16 0 0 0-1.158 1.158 1.16 1.16 0 0 0 1.158 1.158 1.16 1.16 0 0 0 1.158-1.158 1.16 1.16 0 0 0-1.158-1.158zm-52.662 2.142a1.16 1.16 0 0 0-1.158 1.158 1.16 1.16 0 0 0 1.158 1.158c.64 0 1.158-.612 1.158-1.158s-.518-1.158-1.158-1.158zm-28.37.707l-2.173 1.665.536-.08s1.314 1.53 1.314 1.637.807-.028.807-.028zm33.846 1.01a1.16 1.16 0 0 0-1.158 1.158 1.16 1.16 0 0 0 1.158 1.158 1.16 1.16 0 0 0 1.158-1.158 1.16 1.16 0 0 0-1.158-1.158zm-8.294 1.65a1.16 1.16 0 0 0-1.158 1.158 1.16 1.16 0 0 0 1.158 1.158 1.16 1.16 0 0 0 1.158-1.158 1.16 1.16 0 0 0-1.158-1.158zm47.83 2.333a1.16 1.16 0 0 0-1.158 1.158 1.16 1.16 0 0 0 1.158 1.158 1.16 1.16 0 0 0 1.158-1.158 1.16 1.16 0 0 0-1.158-1.158zm-4.57 1.7a1.16 1.16 0 0 0-1.158 1.158 1.16 1.16 0 0 0 1.158 1.158 1.16 1.16 0 0 0 1.158-1.158 1.16 1.16 0 0 0-1.158-1.158zm46.643.286l2.406 2.614v38.254l-2.35.047zm-93.65.27c1.96.002 4.145.285 4.84 1.476 1.082 1.336-1.22.82-3.155 1.1-1.79.22-.75.583 1.775.73 3.482.206 4.85.296 5.368 1.1.294.747.08 1.252.14 2.056l-3.953-.185c-2.05.003-3.254-.036-3.862.12-.484.124-.345.512-.18.68.086.087 1.66.108 3.497.157 4.946.13 6.04.297 6.39 1.888.265 1.46-.925 1.237-6.007.683-2.26-.185-3.478.347-3.805.508-.557.273 1.615.543 2.325.427.444-.07 3.706.283 4.906.508 1 .153.12.125-.39.74-.338.51-.23 1.094-.76 1.38-.648.343-1.933.336-4.237.337-2.635.001-3.864.64-.247.797 2.336.102 2.468.06 2.667.735.528 1.663-.597 1.956-2.98 2.335-1.14.195-2.828.086-4.104-.005-5.04-.36-6.787-1.56-7.47-3.782-2.542-8.288.596-13.348 7.938-13.756a24 24 0 0 1 1.3-.038zm50.948.37l-5.692 8.28 2.194-.854 1.044 2.244 1.756-1.253 1.754 1.08zm-42.587 1.006c.295.36.165.63-.323.897-.412.224-1.116.058-1.58-.142-.612-.265-.674-1.358-.17-1.476.723-.145 1.62.192 2.074.72zm-41.23-.422l-3.113 2.98.095.114 4.1-1.613zm87.365 1.272a1.16 1.16 0 0 0-1.158 1.158 1.16 1.16 0 0 0 1.158 1.158 1.16 1.16 0 0 0 1.158-1.158 1.16 1.16 0 0 0-1.158-1.158zm42.38 1l4.1 4.066-1.077-.005.028 2.26 3.43.038 1.884 1.846-5.238-.024v2.306l6.486.005-.033-.987 2.562 2.32.304 25.65-12.36-.038-.076-37.438zm-84.797 2.78c-.178.555-.575.556-1.253.28-1.003-.408-.86-1.515-.1-1.632 1.435-.163 1.7.498 1.352 1.352zm3.89.484a1.16 1.16 0 0 0-1.158 1.158 1.16 1.16 0 0 0 1.158 1.158 1.16 1.16 0 0 0 1.158-1.158 1.16 1.16 0 0 0-1.158-1.158zm-4.076.887a1.93 1.93 0 0 1 1.158.512c.633.64.41 1.235-.3 1.604-.794.413-1.353-.15-1.585-1.09-.156-.635.215-1.004.726-1.025zm36.345 3.036c-.642 0-1.163.52-1.163 1.163s.52 1.163 1.163 1.163 1.163-.52 1.163-1.163-.52-1.163-1.163-1.163zm-38.262 1.4c.998.034 1.298 1.053.778 1.6-.747.74-1.91.423-2.074-.285-.052-.796.596-1.314 1.295-1.314zm34.113.47a1.16 1.16 0 0 0-1.158 1.158 1.16 1.16 0 0 0 1.158 1.158 1.16 1.16 0 0 0 1.158-1.158 1.16 1.16 0 0 0-1.158-1.158zm4.112.77l-5.18 8.693 2.097-.83 1.272 1.675 1.3-1.144 1.98.968zm-40.66 1.452c.927.004 1.186.732.512 1.4-.458.453-.975.467-1.504.047-.8-.636-.187-1.453.992-1.447zm44.29.107a1.16 1.16 0 0 0-1.158 1.158 1.16 1.16 0 0 0 1.158 1.158 1.16 1.16 0 0 0 1.158-1.158 1.16 1.16 0 0 0-1.158-1.158zm-37.722.913c-.64 0-1.1.518-1.1 1.158a1.16 1.16 0 0 0 1.158 1.158 1.16 1.16 0 0 0 1.158-1.158c0-.64-.566-1.158-1.205-1.158zm85.84.256v2.458l6.53.005v-2.458zm-85.755 2.183l-2.5 9.134 2.093-1.19 1.305 1.333 1.215-1.495 2.183.57zm4.446.992a1.16 1.16 0 0 0-1.158 1.158 1.16 1.16 0 0 0 1.158 1.158 1.16 1.16 0 0 0 1.158-1.158 1.16 1.16 0 0 0-1.158-1.158zm-8.152.465a1.16 1.16 0 0 0-1.158 1.158 1.16 1.16 0 0 0 1.158 1.158 1.16 1.16 0 0 0 1.158-1.158 1.16 1.16 0 0 0-1.158-1.158zm89.456.72l.005 2.206h6.53l-.005-2.192zm-53.73 2.885a1.16 1.16 0 0 0-1.158 1.158 1.16 1.16 0 0 0 1.158 1.158 1.16 1.16 0 0 0 1.158-1.158 1.16 1.16 0 0 0-1.158-1.158zm53.733 1.234v2.377h6.53v-2.377zm-134.623.29l2.297.043.038 41.438-2.24-2.368zm-.958.08l-.114 37.874-4.35-4.574 1.158-.014v-2.58l-3.767-.028-1.61-1.566 5.37.005v-2.534l-6.372-.024v1.533l-3.132-3.34.052-24.73zm82.02 1.157l-3.486 9.01 2.192-1.248 1.134 1.115 1.172-1.058 1.993.973zm-91.69.432l-.033 2.425H42.9v-2.425zm95.637.488a1.16 1.16 0 0 0-1.158 1.158 1.16 1.16 0 0 0 1.158 1.158 1.16 1.16 0 0 0 1.158-1.158 1.16 1.16 0 0 0-1.158-1.158zm-7.88.13a1.16 1.16 0 0 0-1.158 1.158 1.16 1.16 0 0 0 1.158 1.158 1.16 1.16 0 0 0 1.158-1.158 1.16 1.16 0 0 0-1.158-1.158zm-27.245.43a1.16 1.16 0 0 0-1.158 1.158 1.16 1.16 0 0 0 1.158 1.158 1.16 1.16 0 0 0 1.158-1.158 1.16 1.16 0 0 0-1.158-1.158zm84.74.935v2.548h6.53v-2.548zM96.86 151.7l-.968 1.495-2.216-.754 3.023 9.143 3.79-9.537-2.178 1.243zm-60.37.664v2.42h6.4v-2.42zm145.252 2.168v2.524h6.524l.005-2.524h-6.53zm-145.252 2.11v2.425h6.4v-2.425zm91.606.456c-.642 0-1.163.52-1.163 1.163s.52 1.163 1.163 1.163 1.163-.52 1.163-1.163-.52-1.163-1.163-1.163zm-34.856 1.2c-.642 0-1.163.52-1.163 1.163s.52 1.163 1.163 1.163 1.163-.52 1.163-1.163-.52-1.163-1.163-1.163zm7.43.218c-.642 0-1.163.52-1.163 1.163s.52 1.163 1.163 1.163 1.163-.52 1.163-1.163-.52-1.163-1.163-1.163zm81.072.16v2.278h6.524l.005-2.278h-6.53zm-53.656 1.063l-1.386 1.457-1.988-.565 4.508 8.408 2.278-9.044-1.988 1.267zm-91.596.854v2.752h6.4v-2.752zm60.413 1.248c-.642 0-1.163.52-1.163 1.163s.52 1.163 1.163 1.163 1.163-.52 1.163-1.163-.52-1.163-1.163-1.163zm-.076 2.396c-.496.35-.712.968-1.23 1.286l-2.116-.902 1.272 11.45 5.874-10.818-2.686.45zm-60.337.375v2.86h6.4v-2.86zm96.14 1.327c-.642 0-1.163.52-1.163 1.163s.52 1.163 1.163 1.163 1.163-.52 1.163-1.163-.52-1.163-1.163-1.163zm-7.516.133c-.642 0-1.163.52-1.163 1.163s.52 1.163 1.163 1.163 1.163-.52 1.163-1.163-.52-1.163-1.163-1.163zm-88.623 2.692v2.866h6.4v-2.866zm92.816.64c-.642 0-1.163.52-1.163 1.163s.52 1.163 1.163 1.163 1.163-.52 1.163-1.163-.52-1.163-1.163-1.163zm16.41.092c6.225.2 7.136 2.202 7.173 9.115.03 5.518-1.614 7.675-5.632 8.74-1.463.388-6.937.03-8.488-.468-.026-.473-.8-1.57-.974-2.413.395-.112 1.645.062 4.013.287 1.92.183 2.414-.125 1.808-.503-3.612-.852-6.07-.62-9.542-1.286-.05-1.037-.887-2.246-.887-2.246.188-.075 5.35.48 8.073.394 1.2-.05.477-.613-.007-.717-3.176-.454-5.238-.382-8.597-.805.092-.86-.346-1.64-.887-2.297 0 0 1.7-.015 5.2.038l4.253.077c1.353-.002 1.23-.633.057-.72-1.43-.16-7.062-.193-7.062-.193.42-.194.966-2.716.75-2.743 0 0 1.46.03 2.387-.005 4.512-.17 5.29-.097 5.376-.266.593-.542-1.008-.754-2.676-.75-.72.002-1.768.16-1.76-.233.007-.36-.01-1.098-.376-1.858 2.768-1.065 5.314-1.23 7.8-1.15zm-53.673 1.42c-.642 0-1.163.52-1.163 1.163s.52 1.163 1.163 1.163 1.163-.52 1.163-1.163-.52-1.163-1.163-1.163zm44.408.242c.768.004 1.01 1.384.29 1.6-1.105.33-1.71.07-1.67-.584.022-.37.884-1.018 1.38-1.015zm-36.816 1.2c-.642 0-1.163.52-1.163 1.163s.52 1.163 1.163 1.163 1.163-.52 1.163-1.163-.52-1.163-1.163-1.163zm33.105 1.305c2.63-.024 1.27 3.554-.754 2.263-1.003-.64-.297-2.256.754-2.263zm-41.604 2.86c-.054-.005-.083.05-.076.18l.607 10.875 6.33-10.16-2.515.935-1.082-1.642-1.357 1.068c-.56.44-1.616-1.23-1.907-1.257zm39.165 1.113c1.18.164 1.967 1.346 1.148 1.914-1.845.808-2.832-1.835-1.148-1.914zm-2.834 2.387c-.642 0-1.163.52-1.163 1.163s.52 1.163 1.163 1.163 1.163-.52 1.163-1.163-.52-1.163-1.163-1.163zm4.47.984c1.005-.015 1.478 1.444.484 1.903-.212.098-.84.168-1.12-.038-1.174-.866-.566-1.773.636-1.865zm-43.527 1.793c-.642 0-1.163.52-1.163 1.163s.52 1.163 1.163 1.163 1.163-.52 1.163-1.163-.52-1.163-1.163-1.163zm88.8 1.457l-4.308 1.447v2.037c1.88-.598 2.956-2.126 4.31-3.485zm-40.375.984c.747.314.95 1.326.308 1.666-.506.268-1.878.225-2.213-.216-.87-1.395 1-1.79 1.906-1.45zm-40.616.402c-.642 0-1.163.52-1.163 1.163s.52 1.163 1.163 1.163 1.163-.52 1.163-1.163-.52-1.163-1.163-1.163zm-4.762 2.01c-.566 0-1.025.46-1.025 1.025s.46 1.025 1.025 1.025 1.025-.46 1.025-1.025-.46-1.025-1.025-1.025zm48.324 1.73c-.642 0-1.163.52-1.163 1.163s.52 1.163 1.163 1.163 1.163-.52 1.163-1.163-.52-1.163-1.163-1.163zm-52.07.063l-.057 10.273 6.852-8.408-2.377.517-1.015-2.083-1.466.954zm43.5 2.366c-.642 0-1.163.52-1.163 1.163s.52 1.163 1.163 1.163 1.163-.52 1.163-1.163-.52-1.163-1.163-1.163zm34.29.04l-1.125 1.917 3.19-1.77zm-29.648 1.365c-.642 0-1.163.52-1.163 1.163s.52 1.163 1.163 1.163 1.163-.52 1.163-1.163-.52-1.163-1.163-1.163zm3.916 1.254l-1.4 1.983-1.832-.588-.54 1.888-2.197-.08 7.14 6.216zm-55.66.794c-.642 0-1.163.52-1.163 1.163s.52 1.163 1.163 1.163 1.163-.52 1.163-1.163-.52-1.163-1.163-1.163zm107.08 1.67l.58 85.18-40.602.085-16.716-22.826c-.344-3.718-.144-7.536 1.42-12.526 1.635 1.132 5.215.514 5.094-3.874-.08-2.874-4.5-4.344-6.717-2.182.114-2.778 1.242-6.952 2.866-8.184 1.116 1.013 1.362 2.513 3.884 2.094 1.792-.298 3.2-2.3 2.434-4.634-.2-.592-.306-1.312-.304-1.794s.046-1.338-.047-1.817c-.124-.633-.17-1.32-.17-1.32 21.63-6.788 37.098-17.65 48.28-28.204zm-98.942 1.463c-.642 0-1.163.52-1.163 1.163s.52 1.163 1.163 1.163 1.163-.52 1.163-1.163-.52-1.163-1.163-1.163zm-5.482 1.136c-.642 0-1.163.52-1.163 1.163s.52 1.163 1.163 1.163 1.163-.52 1.163-1.163-.52-1.163-1.163-1.163zm57.524.56c-.642 0-1.163.52-1.163 1.163s.52 1.163 1.163 1.163 1.163-.52 1.163-1.163-.52-1.163-1.163-1.163zm-61.694 1.24l-1.813 10.823 7.915-8.1-2.15-.047-.427-1.846-2.012.65zm53.812 2.31c-.642 0-1.163.52-1.163 1.163s.52 1.163 1.163 1.163 1.163-.52 1.163-1.163-.52-1.163-1.163-1.163zm5.13 1.262c-.642 0-1.163.52-1.163 1.163s.52 1.163 1.163 1.163 1.163-.52 1.163-1.163-.52-1.163-1.163-1.163zm-63.87 1.41c-.642 0-1.163.52-1.163 1.163s.52 1.163 1.163 1.163 1.163-.52 1.163-1.163-.52-1.163-1.163-1.163zm68.498.878l-1.893 1.438-1.742-1.065-.408 2.298-1.485.778 6.23 4.365zm4.604 3.095c-.642 0-1.163.52-1.163 1.163s.52 1.163 1.163 1.163 1.163-.52 1.163-1.163-.52-1.163-1.163-1.163zm-65.738.392c-.642 0-1.163.52-1.163 1.163s.52 1.163 1.163 1.163 1.163-.52 1.163-1.163-.52-1.163-1.163-1.163zm-5.162 1.518c-.642 0-1.163.52-1.163 1.163s.52 1.163 1.163 1.163 1.163-.52 1.163-1.163-.52-1.163-1.163-1.163zm67.922 3.073c-.642 0-1.163.52-1.163 1.163s.52 1.163 1.163 1.163 1.163-.52 1.163-1.163-.52-1.163-1.163-1.163zm-4.873 1.04c-.642 0-1.163.52-1.163 1.163s.52 1.163 1.163 1.163 1.163-.52 1.163-1.163-.52-1.163-1.163-1.163zM97.9 217.975c.007 0 .015.005.02.01.13.14.535 1.198.176 1.737-.185-.087-1.02-.865-.807-1.13.098-.122.504-.618.612-.617zM71.52 219.8s1.125.058 1.37.166c0 .287-.27.915-.574 1.618-1.518 3.513-1.75 7.45-.21 11.246 2.42 5.15 9.247 17.338 8.74 18.453l-15.09.062.065-2.295c4.24-.166 4.907-2.76 3.85-4.902-.733-1.484-2.787-2.334-4.665-1.554-2.712 1.125-2.88 2.465-3.847 4.542l-.432-.548c.815-1.082 1.087-2.122 1.02-3.308-.066-1.163-.1-.842.306-1.48 2.36-2.537.815-5.84.815-5.84-.282-2.03 7.066-14.972 8.65-16.16zm-34.505.332c4.29 3.415 8.006 14.916 7.782 15.094-.2-.162-3.458 3.695.052 7.288 0 0-.214 2.16.46 3.27-1.55 3.216-1.823 3.46-1.955 6.102-.03-.01-.27-.03-1.708-.038-7.11-.034-7.442 9.008-.337 9.504.973.068 1.307-.152 1.893.427.595.738 1.13 1.48 2.145 1.096.24.002.632.228 1.04.607.683.924 1.674 1.582 3.09 1.33.502.05 1.014.193 1.556.39.622.49 1.703.862 2.548.493.25-.1.735-.146 1.13.033 1.027.468 2.073.175 2.458-.12.953-.495 1.165.3 1.12 1.03-.486 1.674.582 3.242 2.202 3.858 3.414 1.055 5.135-1.045 5.87-5.2.182-.913.342-1.998.342-1.998l11.43.3-16.413 19.022-27.938.342-.147-62.847c1.228-.072 2.154.03 3.383.028zm102.78 3.393c2.085.804 2.25 2.276.176 1.637-3.372-1.038-7 1.022-7.758 3.967-.14.543-.29.954-.375 1.058-.472.57-.45.05-.308-1.585.273-3.173 2.516-5.47 5.442-5.566.96.002 1.992.2 2.823.49zm-1.034 2.244c.872 0 1.795.255 2.485.855.782.858.55 1.427-.05 1.397-2.825-1.18-6.416.248-7.823 3.814-.863 2.188-1.02 1.015-.637-.68.708-3.066 3.04-5.332 6.026-5.388zm-19.644.845c-1.232.005-2.403.248-3 .81-1.132 1.07-.2 1.087 1.86.375.997-.346 2.916-.187 4.142.237 1.028.356 1.39.506 1.333.185-.054-.962-2.283-1.617-4.337-1.61zm23.027 3.58c.52 1.19.183 3.285-1.632 3.498-2.14.25-3.247-3.34.662-2.71-.506-1.435-2.26-1.038-3.125-.675-1.764.77-2.966 2.504-4.047 5.69-.32.944-.555 1.438-.68 1.343-.204-.158-.3-1.626.17-3.393.85-3.186 2.924-5.11 5.12-5.172 1.422-.218 3.08.4 3.53 1.42zm-30.627-1.382c-.2.043.144.712.664 1.75.288.575.484 1.32.484 1.466-.003.564.43.704 1.068.342.735-.418.853-.734 1.893-.27.98.515 1.947.84 2.842.318.485-.283.807-.27 1.746-.024 1.12.295 1.27.34 2.107-.01 1.07-.447 2.34-.14 2.6.16.257.287.107-.1.69-1.458.27-.624.656-1.384.55-1.597-.144-.288-1.117.03-2.178.308-.573.15-1.12.106-2.22-.204-2.32-.654-3.78-.466-5.234.223-.812.385-2.846-.147-4.902-.982-.05-.02-.092-.03-.12-.024zm4.563 6.21c-1.046-.016-1.995.642-2.43 1.547-.504 1.255.354 3.52 1.66 3.715 1.162.173 1.118-.538.533-.73-.886-.29-1.93-1.56-1.255-2.662.464-.758 1.864-.753 2.838.18 1.962 1.882 4.21 2.007 4.636.373.13-.653-.368-1.523-1.135-1.286-.593.183-1.965.24-3.113-.54-.595-.404-1.188-.6-1.737-.598zm20.72 5.98c5.01-.3 2.855 6.54-.036 4.785-1.032-.627-.575-2.932 2.17-2.9-2.692-2.097-4.527.457-3.87 3.322-.604.935-.772 2.717-1.168 3.725-.61 1.152-1.088-1.864-.473-4.778.595-2.82 1.603-4.057 3.376-4.164zm-28.332.237c-1.034.012.03 1.125.2 1.257 3.12 2.448 4.645 3.962 2.135 3.155-4.077-.97-5.128.183-8.232 1.552-.57.274-.732.104-1.42-.1-2.728-.807-2.528.904.323 2.448 4.304 2.33 7.858 2.857 11.203 1.1 2.15-1.123 2.26-.388.26.854-3.422 1.995-7.024 1.692-12.555-1.75-1.787-1.112-2.036-.368-.21.802 4.177 2.522 9.8 4.81 14.39 1.087.903-.803 1.085-1.22 1.78-.873 1.836.916 1.232-.68-.02-2.183-.442-.53-.77-.96-.74-1.324.104-1.304-.618-1.3-1.276-1.267-.787.04-.7-.225-1.665-1.286-1.41-1.55-3.13-3.206-4.166-3.483zm-41.684 6.937c-1.734.137-2.13.215-1.708 3.767l.46 3.42c1.028 9.303.196 13.418-2.396 14.557-.932.4-1.85.26-2.534-.014-1.64-.656-2.316-2.648-1.125-5.02a14.39 14.39 0 0 0 .864-2.197l.773-2.78c.653-2.332 1.006-5.882.622-9.272-.26-2.302-.204-2.495.37-4.047 1.26-2.294 2.073-3.47 4.724-3.497 2.965.31 3.795 4.798-.05 5.082zm63.74-.204l-.81.038c-.977-3.252-3.018-2.2-3.357.083l-.69-.007c.12-4.342 5.55-3.165 4.857-.114zm-76.19-2.428c5.537.548 6.546 1.924 6.982 8.61.04 3.236-.174 5.2-.67 5.927-.83.398-1.623-.347-2.805.403-.65.397-.525.438-.805.007-.263-.405.045-2.113.47-3.476.405-1.3-.29-2.056-2.122-3.724-.496-.452-.93-1.08-1.376-1.974-.954-2.56-1.438-1.433-.644.773.393.95.484 1.42-.71 1.01-.702-.243-1.315.044-1.857.332-1.52.386-2.83-.444-1.51-.943.802-.304 2.24-.744 2.685-.742.323.002.48-.072.48-.223.003-.64-2.928-.57-5.164.2-2.745 1.264-2.903 1.04-2.65-.927.643-4.985 5.283-5.594 9.696-5.254zm54.15.435c1.416-.063 2.716 1.56 2.458 2.937l-.674-.043c-.317-2.593-2.768-2.704-3.42.2l-.973.024c.618-2.24 1.64-3.074 2.6-3.117zm16.462.052c.56.33.17 1.23-.425 1.41-.225.056-.938-.44-.767-.743.32-.365.81-.556 1.192-.666zm6.346.44c.4 0 .894.198.963.723.022.767-.56.608-.754.54-.387-.36-.533-1.234-.21-1.262zm-19.4.614c1.037.122 1.414 1.426.237 1.51-.525.108-.55-1.196-.237-1.51zm-6.316.142c.124.002-.068 1.072-.327 1.23-.513.312-1.168-.028-1.144-.35.058-.772.993-.883 1.47-.878zm18.11 2.6c1.977.75 4.548 1.476 6.966.63.882-.333 1.588-.73 1.586-.354-.002.392-.7.987-1.964 1.34-2.604.73-4.49.447-6.278-.895-.505-.38-.682-.728-.3-.723zm-.816 1.117c3.207 1.87 6.102 2.057 8.708.693 1.055-.366 1.09-.03 1.086.646-4.695 4.126-10.564-.157-9.794-1.34zm-78.718 2.85c-.795 1.603-1.222 5.554-2.52 6.725-8.86-.51-3.16-12.195 2.52-6.725zm54.908-1.3c-.5.263-.058 1.52.73 1.86 6.777 2.916 10.252 3.263 14.107 1.922 1.597-.556 2.47-1.862 2.548-2.496.094-.755-.937-.828-2.743-.028-5.495 2.155-8.943.474-13.38-1.195-.41-.155-.83-.21-1.263-.063zm-25.95.1l-.024 9.88-6.453-.114.076-1.46 4.83.142-.076-7.056-5.604-.052-.01-1.3 7.26-.028zm1.5.024l6.44.01.323 1.006H74.6v-1.015zm-25.98 3.137c-.423.38-1.162.463-1.466.157-.682-.688.007-1.953 1.096-1.945s1.182 1.06.37 1.788zm2.966-1.606c.974.005 1.296.913.555 1.647-.502.457-.758.486-1.2.152-.57-.5-.272-1.766.655-1.798zm-6.354.244c.256-.01.48.016.645.27.592 1.21-1.35 2.05-1.756 1.148-.3-.73.456-1.395 1.1-1.42zm36.413.132l.375 1.272-7.42.033v-1.272zm-26.564.366c1.106.133.936 1.246.422 1.74-.882.816-1.74.552-1.514-.546.14-.686.585-1.182 1.09-1.196zm-5.968 3.643c-.4 1.39.443 4.206.194 4.5-.54.64-1.412.312-1.798.093-1.34-.86-1.425-5.91-.128-6.21.834.418 1.394-.33 1.775-.44s.126.58-.043 2.057zm19.616-2.073c.73 0 1.324.593 1.324 1.324s-.593 1.324-1.324 1.324-1.324-.593-1.324-1.324.593-1.324 1.324-1.324zm5.87.17h7.592c.455.633.408 1.06.28 1.5l-7.872.01v-1.51zm-22.295.172c.347-.004.52.738.288 1.585-.418 1.53-.396 3.613-.11 4.515.193.624.383 1.05.27 1.23-.393.62-1.596.197-2.107-.622-1.247-2.312-1.048-6.626.44-6.292.56.28.88-.16 1.216-.416zm-6.692.582c-.367.585-.105 3.87-.142 4.142-.047.342-.986.165-1.51-.07-1.29-.604-.938-2.14-.688-3.378.28-.973.9-1.046 1.666-1.135.423-.048.98-.01.674.442zm10.327.18c.4-.015.467.288.373 1.504-.073.952-.11 1.764.047 2.662.33 1.908.37 2.426-.108 2.8-.57.443-1.337.31-1.93-.214-1.218-.966-1.3-5.702-.342-6.11.9.222 1.45-.482 1.96-.64zm26.22 1.432l-1.09 1.5h-6.472l.005-1.495 7.56-.005zm-23.08 2.006c1 .01.843 1.797.3 2.918-.46.677-.798.746-1.5.11-.786-.722.147-3.034 1.2-3.03zm21.2.5l-.91.835-4.745.005v-.83l5.656-.01z" fill="#131f67"/>
    <path d="M197.305 298.544v-2.96h3.027l6.403-9.823-6.898-15.268h-2.53v-3.227h9.756v3.227h-3.138l4.822 11.923 3.513-4.62v-7.302h-2.578v-3.227h8.73v3.227h-3.037v25.09h3.037v2.96h-8.73v-2.96h2.467v-11.606l-8.17 11.606h3.083v2.96zm-42.657-23.003c-7.172-2.587-10.097-11.53-6.03-20.358 5.45-11.828 13.582-19.424 19-30.583-.064 0 10.628 15.706 14.898 21.533 9.16 13.22 8.7 24.1-.172 28.393-6.372 3.083-12.905-.458-13.657-7.124-.117-1.04-.187-1.178-.67-1.18-.533-.003-.633.368-.766 1.908-.512 5.93-6.945 9.453-12.603 7.412zm44.122-23.03c2.778-6.537 6.012-10.037 9.404-16.97 2.735 5.362 7.793 11.15 9.492 16.57 1.274 4.188.284 7.595-2.45 8.61-3.177 1.18-5.56-.155-6.192-3.134-.253-1.194-.856-1.076-.89-.175-.106 2.922-3.472 4.2-6.166 3.427-1.547-.444-4.323-3.603-3.2-8.33zM48.502 225.838l-7.868-6.17c9.357-.205 18.71.012 28.067.17l-9.344 6.658c-1.913-2.1-3.043-4.898-5.758-6.253-2.02.834-3.404 3.712-5.098 5.593zm69.007-2.15c-.16-.025-.29-.038-.383-.097-.215-.135-.354-.436-.512-1.427-2.335-10.89-13.814-10.12-13.738-9.8-.086-.43 14.267-13.39 22.703-23.556 2.55 7.77 10.28 25.522 9.958 25.458 0 0-2.236.018-8.035-.126-5.278 2.383-8.95 4.703-8.777 8.063-.03 1.183-.315 1.675-.71 1.573-.056-.013-.284-.052-.508-.087zm25.773-35.055c7.467-.117 8.875-3.764 9.725-4.204 4.905-.806 7.935 2.386 10.084 5.8 2.744 1.652 2.4.127 2.97-2.447l6.834-2.003-.008 2.177c-2.1 1.136-5.24 4.047-5.24 4.047l-2.08-.123-1.193 1.59c-4.748 2.568-9.402 5.628-14.41 7.613 0 0-5.998-7.756-6.683-12.45zm-93.032.683l-.077-43.058c3.09-.218 8.775-.2 8.775-.2 2.377-4.196 5.62-6.17 8.96-8.607a142.77 142.77 0 0 1 .541 15.688c-8.85 10.8-13.764 24.093-8.307 43.96l-3.274-.363zm48.896 2.413c2.52-8.98 4.477-18.094 5.288-27.502l16.846-.25.336 5.77zm57.36-19.607l-.313-16.1c12.294-14.687 13.02-27.496 8.462-43.7 4.06.935 6.152 4.1 10.02 8.464l.003 42c-2.69.4-9.356.792-9.356.792-.202 1.968-5.835 6.675-8.817 8.534zm-52.057-25.39l-.75-7.103 21.9-20.908c-1.807 9.06-3.993 18.362-4.63 28.006zm-36.318-22.19c-1.562 1.024-7.32-4.96-8.263-8.983 1.444-1.95 14.118-8.16 14.118-8.16s7.407 9.507 7.104 13.472c-3.3.875-6.143 1.124-8.64 3.806-1.43.127-1.93-1.48-4.318-.134zm-9.996-8.038c1.763.283.632 2.662.362 4.404l-9.314 2.76c3.202-2.732 5.473-5.057 8.953-7.165zm30.33-21.02c1.915-.058 3.91.732 5.387.137.552-.215 1.655-.548 2.864-.32 2.784.86 3.76-2.206 5.536-2.22 2.297.006 3.57-1.6 3.586-4.82.007-1.392.123-1.548.385-1.687.783-.414 1.62.167 1.724.93 1.647 5.926 5.806 11.256 12.365 10.83l-21.1 21.687c-2.862-8.718-6.663-16.833-10.737-24.542zm67.587-5.107l9.57-6.945 5.728 6.97 4.952-6.636 9.53 6.733s-19.847.293-29.778-.122zM56.27 86.834c2.013 1.424-19.176-24.29-21.62-33.38-1.832-5.357-.453-11.905 3.536-14.71 6.758-4.753 14.684-2.853 16.188 5.147.427 2.27 1.135 2 1.385.006.903-10.192 13.418-10.936 18.234-3.827 3.297 4.866 3.32 12.604-1.45 20.352-1.154 2.46-16.372 25.71-16.272 26.414zm-40.457-9.8c-2.84-5.537-7.055-11.118-9.29-16.288-1.677-4.227-.257-8.605 2.868-9.414 3.08-.798 5.315.472 5.9 3.352.198.975.586 1.048.778.145 1.158-5.446 8.84-4.27 9.368 1.436.337 3.634-.61 6.035-5.095 12.913-1.084 2.232-4.014 5.46-4.528 7.856zM17.31 42.06h3.198l-4.7-11.53-3.594 4.87.022 6.66h2.523v3.436H5.875V42.06H8.8v-24.8l-2.926.006v-3h9.02v3.1h-2.49l-.054 12.1 7.873-12.19h-2.778v-3h9.594v3h-2.53l-6.482 9.965 6.343 14.83h2.818l.013 3.436h-9.864z" fill="#d40000"/>
    <path d="M161.48 27.42l-87.97.565 17.096 22.833c18.162-3.697 33.973-1.295 50.382 1.57zm-2.25 1.158l-5.855 7.274c-1.62-1.465-5.236-.936-4.724 2.27-4.487-2.333-5.438 4.072-1.63 3.81-.478 1.258-4.324 1.59-5.41-.693-3.95 2.213-5.156.066-6.202-1.33 5.02 3.407 7.46-3.596 1.936-4 2.17-4.39-5.57-6.383-5.115-.67-5.106-1.157-3.935 6.028-.185 4.555-2.436 3.662-6.432 1.202-7.24.49-2.054 1.54-5.94 1.6-7.027-.873 5.683 1.143 5.06-6.34.014-4.617 2.7-5.747-6.26-4.973-4.085-.266-5.09-.194-3.964 6.084.508 5.015-3.973 3.744-6.95.255-7.578.18-2.352 2.595-6.483 1.173-7.05-.36 4.053 1.6 5.38-5.208.272-4.8 1.31-4.386-6.043-4.918-4.42.064-4.05-.917-4.27 5.57.267 4.56.28 1.776-3.29 3.477-5.485 1.76-1.61.882-3.374 2.254-5.47.223 3.194-.514 3.718-5.91-1.438-4.745.246-3.313-1.657-3.494-4.007-2.653l-3.766-5.1zm-60.688 8.138c-.28.617-.752 1.038-.642 1.508.09.386.487.922 1.04 1.647 4.402 5.737 13.325 5.545 16.01-.37.547-1.098.436-1.348-.223-2.282-.795-1.128.103-2.33 1.077-2.23 1.454.15 1.706 1.42 1.006 2.32-1.52 1.912 2.653 6.238 6.818 6.918 5.34.872 10.403-2.884 9.698-6.25-.04-.193-.14-.373-.18-.575-.568-2.818 3.9-1.468 2.292.327-.604.65-.93.843-.85 1.556 1.297 5.963 8.547 6.588 12 4.75-4.455 7.266-11.512 1.666-12.754-3.412-6.256 9.03-13.77 7.155-17.96-.783.495.495-8.25 14.228-18.178.147-4.202 11.333-11.865 3.672-11.34 3.208 3.52 1.96 9.913 1.25 10.53-4.81.085-.75-.483-.795-.81-1.386-1.664-2.996 3.706-3.017 2.467-.285zm-16.54.745c.796.074.93.406.797 1.215zm68.265 2.13l-1.153 1.447c-.275-.708-.282-1.358 1.153-1.447zm12.54.48c-2.736.116-4.85 3.897-4.712 8.94.067 2.445.497 8.582.664 9.495.234 1.276-.02 3.006-.47 3.19-1.184.48-1.63.792-1.95 1.357-.83 1.47-.144 3.128 1.61 3.872 1.25.53 2.837-.202 3.9-1.803.596-.89.736-1.285 1.262-3.52.242-1.03.22-2.737-.057-4.304-.63-3.562-.162-8 1.063-10.083 2.196-3.737 2.156-6.184-.114-6.956-.412-.14-.814-.202-1.205-.185zm-.142.57c3.185.012 3.1 3.19 1.333 4.166-.685.306-1.52.378-2.358-.17-.94-.543-.812.077.16.783 1.143.83 1.63.778 1.015 2.724-.573 1.812-.873 5.728-.56 7.953.857 6.087.133 9.122-2.43 10.178-1.263.52-2.626-.213-2.976-1.227-.548-1.587.428-2.95 2.84-2.57 0 0 .17-.506-.456-5.79-.87-7.35-.528-12.48.82-14.273.72-.958 1.652-1.778 2.6-1.775zm21.604 7.578c-.744.006-1.546.208-2.363.67 0 0-.088 3.305-.185 3.805-.54 2.796-.383 3.13.92 3.525 3.16.962 5.757-1.134 5.642-4.422-.065-1.848-1.78-3.596-4.014-3.578zm.427.44c1.728-.052 3.297 1.968 3.127 3.872-.09 2.278-2.27 3.52-4.223 3.122-.578-.087-1.176-.197-1.362-.63-.39-.604.238-.822 1.552-.816 1.438.007 1.705-.19 2.183-.996.946-1.596-.264-3.62-1.808-3.24-.526.13-.603.368.014.54 1.89.852 1.187 2.042.53 2.524-.78.574-2.07-.213-2.292-.688l.133-3.084s.625-.585 2.145-.603zM165.215 62.95s-.72.344-1.068.664c-.764.705-.924 1.774-.55 2.823.166.465.14.543-.44 1.3-1.655 2.156-1.868 3.233-1.02 5.177.385.883.388.883.024 2.05-1.56 5.006-4.638 10.68-7.924 14.6-.508.608-.712 1.23-.712 1.23s.77-.04 1.196-.25c3.395-1.69 6.982-4.962 10.316-7.108-5.272 4.277-10.9 8.104-10.9 8.104l7.174.384c-1.8 1.847-33.26 28.503-24.906 76.313 9.82-2.442 14.4-6.493 19.625-11.18l.166 14.22c.1-.17-4.544-1.75-3.44 2.074.657 2.097.99 7.405-.176 10.4-.05.127.5.328.446.446-.063.136-.745.138-.745.138-1.783 3.326-6.375 4.054-8.64 3.954-.835-.08-.498 1.065-.388 1.48.42 1.713 2.394 5.38 6.08 11.27l.968.128-.56.517c.434.793 1.598 2.284 1.598 2.284l.05.506s2.022 2.814 3.107 4.136c.074.1.243-.123.318-.034.602.723 1.324 1.534 1.936 2.256.047.056-.095.262-.046.315l3.418 3.795.45-.108 1.78 2.007c14.78-6.72 30.225-21.588 30.064-21.556l.127-31.998-17.5-.052-.075-42.388 17.48 17.28-.114-4.958c-3.965-3.77-19.9-19.848-19.9-19.848 2.32-.323 4.566-1.077 6.743-2.26 3.8 2.09 7.865 3.348 12.522 2.728l-.02-4.702c-5.287-.01-8.566-1.76-10.937-3.877l-3.265-.11c-6.03 4.586-10.294 2.458-14.88 1.556l-3.17-4.565 32.47-.166-.233-11.08-4.93.11-3.203-2.368 3.715 1.57s-.06-.6-.802-1.77c-2-3.27-4.54-8.083-6.064-12.28-.737-2.132-.736-2.044-.114-3.293.854-1.716.67-3.794-.456-4.963-.793-.824-.767-1-.508-1.613 1.054-2.43-1.49-3.326-1.5-3.17-5.438 2.096-12.734-.063-12.603-.128zm12.65.883c1.086-.01 1.204.467 1.2 1.276-.092 1.483-2.023 2.02-2.894 2.225-4.172.955-11.446.4-11.92-1.556-.348-1.43.544-2.223 3.507-1.514 4.762 1.023 7.708-.077 10.107-.432zM164.4 67.96c.433-.003.952.438 1.1 1.158.127.615-.513 2.425-1.05 2.842-1.326 1.033-2.523-.573-1.637-2.32.51-1.007 1.028-1.676 1.585-1.68zm14.235.204c.198.005.553.046.783.21 1.05.743 1.148 3.315.166 3.687-1 .38-1.93-.665-1.922-2.3.005-1.003.378-1.61.973-1.594zm-3.336.53c.214-.01.44.035.674.142.875.404 1.3 3.1.432 3.962-.673.667-2.12.63-2.543-.754-.505-1.656.283-3.292 1.438-3.35zm-7.397.076c1.28.01 1.573 2.86.318 4.033-1.05.982-2.652.015-2.15-1.93.25-.973.827-2.034 1.832-2.102zm3.644.456c1.876.32 1.717 4.914-.74 4.455-1.4-.976-1.362-4.387.74-4.455zm-8.204 4.92l2.652.247s-3.433 7.43-6.572 10.268c-1.174 1.2-1.85 1.24-.958-.028 1.968-2.43 4.878-10.486 4.878-10.486zm15.9.047c1.55 4.13 3.14 8.323 5.253 12.546-3.213-3.097-6.06-7.858-8.683-12.327zm-12.47.4l1.756.02c.584 2.675 1.596 4.38 2.785 5.846 1.03-1.738 1.68-3.648 2.31-5.684l1.395-.02c.534.318-1.642 8.38-3.772 9.362-2.257-1.832-4.16-6.786-4.474-9.523zm-.74 1.907c-.147.193 2.727 7.1 5.158 9.314 2.292-2.223 3.753-5.153 4.735-8.645l7.54 10.58-7.35-5.03c-1.468 2.438-3.026 4.764-4.897 6.7-2.017-2.182-3.763-4.77-5.594-7.23-2.836 2.1-4.826 4.346-8.508 6.306.016.082 7.215-7.764 8.916-11.995zm-.707 7.52l5.13 6.268-13.656-.195zm11.108.1l8.617 5.93-12.84.133zm-68.654 2.918s.072.376.157.603c1.53 6.238 5.748 11.425 12.095 10.81l-20.863 20.854s-3.445-11.69-10.425-23.672l2.268.456c.932.142 1.64.098 2.34-.085.534-.08.942-.428 1.42-.53.804-.17 1.814.12 2.35.308 1.434.27 2.41-.53 4.204-2.116.478-.422.66-.32 1.262-.318 2.25.006 3.683-1.923 3.43-4.916l-.114-1.33-.285 1.495c-.537 2.818-.912 4.032-3.7 4.152-.675.03-.93.483-1.998 1.4-1.496 1.284-2.55 1.394-3.61.892-1.08-.512-1.182-.21-2.202.275-1.168.557-2.87.492-4.403.052-2.14-.613-1.88-.408-1.88-.408 12.398 22.066 16.754 43.23 16.48 62.03-.39 26.788-9.762 48.408-17.983 61.442 0 0 1.41-.143 2.667-.327.606-.168 1.072-.006 1.67.204.56.196.98.187 1.528.123.428-.05 1.472.008 2.145.104 1.526.22 1.627.02 3.288-1.594 4.715-4.58 4.408-4.4 7.824-4.3 5.125.166 9.224 3.547 10.932 9.03.216.693.5 1.665.537 1.665l-.333-1.452c-1.5-7.35-7.786-10.04-13.034-9.94l22.15-22.206c-.113.02 5.134 16.896 9.703 24.417.007.052-1.386-.6-3.934-.27-1.385.18-2.935-.003-3.806-.152-1.12-.028-1.802.302-3.197 1.45-.58.496-1.102 1.04-2.235 1.518-2.694 1.138-3.768 2.314-3.782 5.267-.003.537-.084 1.224-.076 1.5.002.07-.003.197.014.197.045 0 .108-.1.16-.188.134-.196.406-.73.615-1.968.373-2.21.838-2.98 2.93-3.96a17.47 17.47 0 0 0 2.536-1.562c1.928-1.537 2.57-1.888 4.135-1.525.89.208 1.647.315 2.842.17 1.42-.172 1.504-.245 3.024.147 1.03.266 2.307.524 2.307.524-21.467-43.108-20.76-83.07.43-123.617 0 0-6.272.074-6.54.237-.1.062-.863-.007-1.694-.157-1.707-.308-1.333-.1-5.362 3.948-4.98 5.005-12.946 1.013-15.345-7.388-.125-.44-.233-.704-.422-1.015-.06-.1-.218-.266-.218-.266zm20.295 4.93c.922.098 1.61.34 1.495 1.205L100 122.124l-.46-1.865zm6.234.176c-.364.72-1.35 1.62-1.784 2.297l1.61 2.002-.892 1.613-2.472-2.078-4.707 4.645 3.924 4.403-3.715 3.75-1.238-1.4 1.964-2.055-3.05-2.856-5.376 5.224 4.38 4.45-3.212 3.08-1.28-1.215 1.684-1.86-2.856-2.95-5.006 5.106 3.962 4.408-3.06 3.037-1.357-1.376 1.47-1.533-2.833-2.966-5.1 5.03 4.138 4.49-3.042 2.72-1.072-1.134 1.47-1.58-2.78-2.975-3.165 2.87-.527-1.97 31.307-31.098zm1.803.46l-1.32 2.648-1.02-1.12 1.33-1.367zm-73.84.17c-.812.198-19.452 10.58-30.064 21.98l-.033 4.247-.394.508.2 6.572.266.35.1 2.68-.422.707-.005 7.36.565.095.1 9.006 17.433.047-.02 43.027s-10.237-11.252-17.608-17.893l.028 5.03 19.502 20.147c-1.34.188-3.086.513-5.718 1.964-6.328-3.952-13.642-2.743-13.642-2.743l.028 5.125c4.65-.45 8.848.187 13.737 3.478 4.024-2.728 8.874-4.387 16.104-2.22 1.59 2.52 3.182 5.12 4.773 6.81l-34.53.257.043 10.377c1.532.03 5.362 0 5.362 0 1.942 3.805 5.76 9 7.344 15.534-2.176 2.613-2.002 4.716.114 7.348-.02 1.187-.376 2.498.958 3.82 4.393-2.148 9.353-1.195 13.045-.098 1.25.372 1.724-1.053 1.68-2.847-.11-1.027-.106-1.466.683-2.15 1.878-1.628.712-4.974.418-5.048-.11-2.933 9.294-17.63 9.3-17.36l-1.874.678-8.038.036c21.142-20.384 29.978-43.637 28.128-69.893-.413-6.616-1.442-9.646-1.442-9.646-7.447 3.31-13.566 5.714-19.51 12.08l-.394-13.684c.33.648 2.537 1.246 3.525.418.676-.442.744-.916.12-2.577-.908-2.41-1.123-7.58-.446-9.338.08-.205.147-.75.204-1.286.077-.72-.08-.762-.147-.75.173-.042.9.105.987.028 2.54-2.234 5.265-3.63 8.607-3.777l.085-1.632c-2.48-6.26-4.578-8.714-6.823-12.213 0 0-.637-.21-1.04-.128l.517-.546c-3.15-4.998-7.632-9.546-11.753-13.865.012-.015.002-.02-.024-.014zm-.138.85l2.235 2.064c-10.665 5.126-21.188 12.636-31.55 22.823l.142-3.744C44.67 103.756 53.507 98.465 62.13 93.626zm68.493 3.744l1.343 1.338-1.86 2.16 1.2 1.234-.674 1.646-3.094-3.212zm-66.58.17a1.27 1.27 0 1 1 0 2.543 1.27 1.27 0 1 1 0-2.543zm91.264 1.756c21.74 24.197 10.577 59.362-18.444 67.8l-.323-1.988c29.28-9.862 36.147-42.854 17.148-63.596zm-87.497.16l1.386 1.604c-12.394 5.916-24.485 14.786-36.17 27.582l-.114-3.23c10.976-11.536 22.71-19.883 34.9-25.955zm-7.995.493a1.27 1.27 0 1 1 0 2.543 1.27 1.27 0 1 1 0-2.543zm-3.872 2.39a1.27 1.27 0 1 1 0 2.543 1.27 1.27 0 1 1 0-2.543zm12.892.835a1.27 1.27 0 1 1 0 2.543 1.27 1.27 0 1 1 0-2.543zm55.226.878l1.272 1.343-2.017 2.02 2.87 3 2.762-2.657-1.386 3.957-24.346 24.332-.508-2.553 1.917-1.926-2.937-2.932-.517-1.955 2.9-2.705 1.2 1.243-1.69 1.95 2.72 2.676 4.94-4.546-4.076-4.474 3.364-3.255 1.163 1.134-1.61 1.656 2.833 3.07 5.068-4.854-4.16-4.4 3.345-3.298 1.267 1.2-1.684 2.02 2.88 2.785 4.963-4.902-4.08-4.29zm-71.914.854a1.27 1.27 0 1 1 0 2.543 1.27 1.27 0 1 1 0-2.543zm20.052.247l.968 1.61c-14.755 7.454-24.96 14.92-40.06 32.076v-2.16c11.658-14.313 23.78-23.54 39.094-31.525zm-7.412.2a1.27 1.27 0 1 1 0 2.543 1.27 1.27 0 1 1 0-2.543zm114.168.49c2.603 2.316 8.07 4.625 11.592 4.38l.095 2.785c-6.145.583-11.51-3.35-11.51-3.35-4.733 2.885-9.55 3.25-14.572 1.998l-1.93-4.138c7.447 3.452 14.432.158 16.327-1.675zm-29.404.754c.273.504 1.19 1.087 1.19 1.087 5.732-1.492 7.518 4.416 4.845 7.79l.764 2.477c1.023.185 1.92.544 2.648 1.05 1.395.967 2.162 2.64 1.988 4.4.195 1.904-2.654 3.677-2.81 3.544l-.038 2.724c.802.668 1.767 1.314 2.382 2.26 1.37 2.3.827 4.616-1.286 6.074-1.258.85-2.622.96-2.676.873l-1.324 3.094c1.166.658 1.492 1.777 1.675 2.577.396 1.734-.82 3.992-2.35 4.826-1.93 1.052-4.557.117-4.555.12l-1.88 1.88c.484 1.628.617 2.6.36 3.554-.633 2.363-3.11 3.3-5.1 3.113-1.563-.14-2.738-1.28-2.738-1.28l-2.083.797c.058 0 .03 2.638-1.02 3.445-.33.342-1.504 1.1-1.504 1.1l-.275-1.817c.825-.594 1.338-2.035 1.172-3.09l4.498-2.202c0 .163 1.232 1.356 2.074 1.528 1.727.352 3.53-.996 3.535-2.58.002-.925-.532-1.555-.683-2.3l3.82-3.953c1.58.543 2.7.636 3.397.228 1.335-.77 1.695-2.36 1.438-3.317-.304-1.13-1.312-1.862-1.38-1.97l2.13-5.386c.993-.005 1.608-.16 2.382-.664 1.58-1.037 1.375-3.053.702-4.01-.82-1.164-2.01-1.38-2.102-1.352l.157-5.594c0 .046 2.155-1.035 2.387-2.282.34-1.837-.433-3.006-2.7-3.525-1.252-.288-1.186-.047-1.186-.047l-1.784-5.063c2.828-1.724 1.93-4.466.498-5.386-1.51-.97-3.644-.07-3.644-.07l-1.708-1.74zm-75.663 1.025c1.858 2.498 5.003 7.503 6.762 11.98.077.195.038 1.186.038 1.186-5.016.436-6.74 2.403-8.522 3.786-1.382-.7-1.965-1.54-4.465.024-.008.074-6.374-3.85-7.592-9.177 4.55-2.804 8.887-5.474 13.78-7.8zm-25.466.033a1.27 1.27 0 1 1 0 2.543 1.27 1.27 0 1 1 0-2.543zm12.057.25a1.27 1.27 0 1 1 0 2.543 1.27 1.27 0 1 1 0-2.543zm87.022 1.56c2.193 2.885 5.496 8.34 6.282 13.172 1.105 6.795.37 13.924-2.747 18.91-5.654 10.648-15.458 12.915-15.464 13.286l-.1-2.183c.092.49 7.493-2.627 12.53-9.665 3.1-4.77 4.876-11.587 4.275-16.906-.374-7.666-5.815-14.736-5.86-14.762zM44.456 110.5a1.27 1.27 0 1 1 0 2.543 1.27 1.27 0 1 1 0-2.543zm12.043.02a1.27 1.27 0 1 1 0 2.543 1.27 1.27 0 1 1 0-2.543zm108.574 2.145c2.822.306 6.273 5.422 9.414 8.342l.033 41.708-9.38.2c-1.222 2.935-4.055 5.834-8.57 8.697l-.005-15.63c15.394-16.49 11.205-34.54 8.508-43.307zm-124.07.474a1.27 1.27 0 1 1 0 2.543 1.27 1.27 0 1 1 0-2.543zm11.592.228a1.27 1.27 0 1 1 0 2.543 1.27 1.27 0 1 1 0-2.543zm119.093.1l19.18 19.336-.066 2.837-21.613-21.96zm-112.06 1.817l.508 2.43c-.62-.974-.643-1.334-1.718-1.504zm-10.382.707a1.27 1.27 0 1 1 0 2.543 1.27 1.27 0 1 1 0-2.543zm-11.487.356a1.27 1.27 0 1 1 0 2.543 1.27 1.27 0 1 1 0-2.543zm107.905 0l3.786 2.68-1.234 4.835-3.877-3.483zm-87.5.394l.674.4-.783 3.307-8.716 3.146c2.803-2.393 5.684-5.002 8.826-6.852zm1.428 1.537c.62 2.45 1.964 6.076 3.612 9.146-1.12.578-5.14 2.854-5.13 3.912.568 1.918 4.816 3.677 4.816 3.677-1.61 2.61-3.14 5.688-4.394 9.23-.726-1.236-.8-6.1.754-8.138-1.543-.608-3.653-1.998-5.257-3.435 1.035-3.66 5.444-5.847 5.637-5.874-.077.184-1.302-7.646-.038-8.517zm-14.15.617a1.27 1.27 0 1 1 0 2.543 1.27 1.27 0 1 1 0-2.543zm97.08.104c5.658 10.54 2.293 19.697-6.733 26.258l.21-2.486c6.228-4.518 10.26-13.412 5.713-21.893zm-107.824.304a1.27 1.27 0 1 1 0 2.543 1.27 1.27 0 1 1 0-2.543zm90.5.066c-4.152 15.477-4.05 22.57-4.53 26.766l-16.12.138-.626-5.58zm-64.394.427l6.633 6.078-.375.74-3.05.408c-2.334-4.597-3.208-7.227-3.208-7.227zm-2.894 1.7l.024.005.195 2.306c-1.048-.04-12.383 4.696-21.09 12.256 1.298-2.286 3.487-4.48 5.604-6.35 4.503-4.42 15.27-8.218 15.27-8.218zm-16.114.527a1.27 1.27 0 1 1 0 2.543 1.27 1.27 0 1 1 0-2.543zm7.136 1.447l.645.664-3.008 1.556zm20.973.68a.8.8 0 0 1 .128.005c.466.06.66.28.925.503-.59-.122-1.167-.19-1.718-.16.14-.166.377-.335.664-.346zm-11.51.48l.275 1.722c-6.522 3.708-14.28 7.212-25.57 17.885v-3.55c7.085-6.564 15.35-12.068 25.295-16.057zm8.773.16c.407.1.77.105 1.14.014 0 0-.237.47-.517.48-.296.01-.622-.493-.622-.493zm2.766.1c.82-.05 1.38.7 1.215 1.665-.63 3.274-.605 6.59.07 8.906.527 1.806.66 2.44.223 2.743-3.845 2.652-5.953-9.302-2.743-12.693.435-.41.86-.598 1.234-.622zm-31.397.418a1.27 1.27 0 1 1 0 2.543 1.27 1.27 0 1 1 0-2.543zm110.495.294l2.39 4.01-3.33 3.73-2.026-4.332zm-82.296 2.178l-.124 1.385c-1.717.52-3.214 1.26-4.502 2.354-.25.213 3.98 2.12 4.422 1.68l-.01 1.476c-.06.485-7-1.716-7.46-3.36.786-1.093 5.17-3.633 7.672-3.535zm-31.544.735a1.27 1.27 0 1 1 0 2.543 1.27 1.27 0 1 1 0-2.543zm18.905 1.46c-.492.934-1.22 2.176-1.36 3.533-4.755 2.884-9.632 5.577-15.566 12.193l-3.198-.02-.07-.84c6.485-6.182 13.508-11.517 20.196-14.867zm12.25.4l.033 1.74c-1.106.014-1.7-.347-2.534-.764.695-.438 1.232-.874 2.5-.977zm35.782.185l.892.935-.555.522zm-48.18 3.62l1.76 1.096c-4.533 2.365-9.304 5.86-13.433 10.425h-3.488c4.404-4.774 9.15-9.057 15.16-11.52zm93.912 1.257l.35 4.735-4.422 2.425.085-4.996zm-84.1.02l3.042.332.313 1.286c-2.552 1.623-4.77 3.526-6.894 5.504a26.88 26.88 0 0 1 3.54-7.122zm-7.293.508l1.305.603-.517 2.225c-3.726 1.656-6.695 3.893-9.874 6.91H43.81c3.133-3.358 8.343-7.584 12.664-9.737zm11.317 2.093l.49 14.6c-13.137 15.38-12.424 30.252-8.593 43.74l-2.505-.114c-2.912-3.618-6.785-7.302-6.785-7.302l-.01-42.458 9.058.033c2.136-4.942 8.01-8.458 8.346-8.498zm-10.695 2.05l.11 1.945c-1.873 1.11-3.463 2.335-4.83 3.65h-3.402c2.352-2.19 4.686-4.392 8.123-5.594zm30.885.954l.498 2.297c-30.492 11.03-36.002 43.094-18.007 65.105l-1.224 1.367c-20.664-22.2-11.594-58.438 18.733-68.768zm-30.643 2.297l.218 2.344H54.14c.77-.9 1.45-1.835 3.198-2.344zm85.807.735l-1.964 4.58-5.243.08 2.382-4.58zm-33.19 3.136h4.778v4.565h-4.778zm-20.678.45l.08 2.007c-2.123 1.08-1.587 2.798-2.12 2.77-1.305.33-4.745 2.154-4.745 2.154-1.22-1.106-2.865-.828-3.63-.29-1.06.694-1.294 2.3-.992 3.677l-3.65 4.266c-1.762-.753-3.48-.706-4.337.47-.966 1.326-.6 2.972.996 4.816l-1.988 5.1c-.23-.305-3.556.67-3.6 2.648-.048 2.092 2.75 3.456 2.747 3.616l-.133 5.627c-.126-.27-2.856.844-2.486 3.54.34 2.483 3.72 2.18 3.79 2.387l1.836 5.386c-.123-.164-2.49 2.15-1.04 4.342 1.208 1.826 4.717.645 4.688.527l.973 1.37-1.077 1.167s-.465-.558-.726-.508c-2.043.4-4.324-.078-5.42-1.708-1.5-2.3.173-5.895.702-5.865l-1.262-3.103c-2.3-.045-4.247-2.1-4.35-3.82-.217-3.603 2.74-5.1 2.747-5.087l.085-3.36c-.18.2-2.922-1.744-2.856-3.976.048-1.63 1.422-3.55 3.113-4.323l1.253-.593 1.144-2.752s-1.62-2.34-1.2-4.697c.78-3.57 5.433-3.326 6.168-2.98l2.16-2.705c-1.063-2.468.773-5.332 3.174-5.798 1.067-.17 4.057.536 4.057.536l2.766-1.428c-.047-1.512 1.602-2.496 3.132-3.416zm15.73 4.996h4.095v4.565h-4.095zm10.91 0h4.617v4.565h-4.617zm-26.306 1.144l-.052 1.746c-26.436 12.818-15.624 39.356-11.853 42.443l-.85 1.874c-4.64-2.82-16.598-33.444 12.754-46.064zm20.346 4.622h4.968l.043 4.693h-4.968zM88.46 160.72l-1.575 4.275-4.854.408 1.794-4.266zm99.188 3.127l3.32.02c-6.2 7.263-12.91 12.212-19.525 14.923 0 0-.023-.647.18-1.158.16-.405-.1-1.428-.1-1.428 7.353-3.62 12.403-7.827 16.123-12.356zm-17.02.062c-.854 1.027-1.83 1.933-3.04 2.603l-.48-2.645c1.016-.012 3.52.043 3.52.043zm5.846-.057c.336.845-8.717 5.734-8.75 5.317l.023-1.625 4.885-3.625zm1.955 0h.02l2.548.014c-2.302 3.63-14.474 10.22-13.968 9.294l.49-2.655c3.924-1.726 7.485-4.072 10.9-6.653zm4.294 0l3.353.014c-5.044 6.405-10.16 8.744-15.07 11.5-.295-.043-.162-.154-1.08-.127l-1.68-1.31c.314.288 11.28-6.142 14.476-10.078zm-93.812.228l-.114 1.936c-7.056 6.068-9.887 13.823-6.216 22.823l-.873 1.922c-3.948-9.604-2.783-18.936 7.203-26.68zm32.133.304l.375 5.224-21.907 21.324c3.335-11.913 4.257-19.104 5.153-26.52zm70.154 1.23l.01 2.9c-8.637 9.514-17.342 13.777-24.863 15.502l-.17-1.115 3.483-2.145c11.222-4.888 16.137-9.8 21.542-15.14zm-26.213.078c.152 2.095-1.714 6.05-3.846 8.283l-3.654-.01-.403-1.585c3.03-1.633 5.834-3.845 7.903-6.688zm1.103.624c1.342 2.16-.67 7.747-.754 7.525-.16.385 11.478 2.845-.48 8.603.26 1.69 1.38 5.303.517 7.535-.27-.855-2.35-6.65-3.957-8.133 3.733-1.064 6.42-3.347 6.13-4.1-.607-1.07-2.28-2.386-5.09-3.35 2.394-3.322 3.106-5.817 3.635-8.08zm-85.48 1.058l.375 4.403-4.25 2.558-.327-4.835zm73.964 4.1c.332.004.644.1.797.256 2.1.85 2.252 11.095.346 12.138-1.385.87-2.36-.53-2.31-.778.918-4.714.344-7.628-.038-10.923.04-.48.652-.7 1.205-.693zm36.626.152v3.644c-12.347 12.798-25.65 22.885-39.23 28.55l-1.238-2.102c16.495-7.627 30.287-18.508 40.47-30.092zm-2.168.332c-5.72 7.96-12.686 13.157-22.23 15.516l-.18-2.26c11.887-2.7 22.72-13.257 22.4-13.257zm-155.634 1.29l22.662 22.975-3.013.157-19.74-20.48zm88.664.38l.266 1.88-2.168 2.377 3.426 3.682.176.868-2.942 3.075-1.33-1.314 1.628-1.827-2.762-2.904-5.12 4.925 4.218 4.58-3.184 3.027-1.253-1.295 1.628-1.88-2.828-2.985-5.22 5.19 3.948 4.36-2.633 2.913-1.248-1.314 1.352-1.552-2.86-2.947-5.015 4.83 4.128 4.565-3.355 3.34-1.3-1.262 1.884-2.05-3.094-2.947-2.482 2.344 1.072-2.72c.2-.578 1.022-1.035 6.24-6.183 6.228-6.2 12.614-12.008 18.828-18.78zm35.72 1.253c1.82.03 4.917.47 6.42 1.262 2.79 1.47 1.912 2.63.1 3.492-2.166 1.032-3.944 1.537-6.39 1.61l.07-1.2c1.42-.344 2.896-.69 4.152-1.386.864-.478 1.087-.864 1.087-.864s-.842-.856-2.183-1.343c-.98-.356-2.383-.353-3.146-.48zm-81.46 1.585l2.292 3.435-2.714 4.55-2.605-3.924zm46.23.37c.08.647.9 3.164.47 2.676l-1.523-1.713zm35.374.337c1.267.107 2.6.145 3.525.593-1.073.832-2.29 1.018-3.502 1.224zm31.796 1.718c.765 0 1.386.62 1.386 1.386s-.62 1.386-1.386 1.386-1.386-.62-1.386-1.386.62-1.386 1.386-1.386zm-71.506 2.4l1.18 1.144-1.528 1.78 2.77 2.918 3.43-3.212.456 2.04-32.142 31.625-1.784-.128 2.045-2.415-2.325-2.377.954-1.708 2.743 2.44 5.025-4.807-4.07-4.285 3.483-3.573 1.314 1.134-1.998 2.164 2.91 2.97 5.257-5.172-4.114-4.474 3.283-3.132 1.205 1.144-1.528 1.618 3 3.122 4.432-4.612-4.033-4.44 3.582-3.488 1.1 1.1-1.65 1.84 3.013 3.117 4.835-4.968-3.98-4.318zm68.29.826c.765 0 1.386.62 1.386 1.386s-.62 1.386-1.386 1.386-1.386-.62-1.386-1.386.62-1.386 1.386-1.386zm-26.126.062c2.183 2.563 3.496 5.415 3.758 8.484-1.744-2.646-3.963-4.993-6.87-7.032l.498-1.286zm30.823.21v3.094c-9.737 11.032-21.557 19.347-33.694 25.134l-2.064-2.5c14.353-6.408 24.74-14.365 35.758-25.718zm-14.325 2.16l-3.948 3.065-.005-1.33 3.953-1.737zm-20.346.228c3.36 1.64 6.178 4.413 7.858 8.522-4.6 2.88-9.625 5.213-14.425 7.535-2.304-3.71-4.624-7.188-6.443-11.965 7.402-.055 9.433-4.098 9.484-4.13 1.784.675 2.157.755 3.525.038zm26.595.603c.7.013 1.38.54 1.405 1.333 0 .765-.62 1.386-1.386 1.386s-1.386-.62-1.386-1.386c.15-.956.758-1.345 1.367-1.333zm-10.244.91l.01 1.338c-1.9 1.656-5.56 4.337-5.56 4.337l-1.518-.08.493-3.796c2.3-.463 4.527-1.135 6.576-1.798zm-96.688.157l3.625 2.98-1.1 4.622-3.568-2.71zm48.683.873l.337 1.338-29.784 29.442-1.694-.275zm54.946 1.14c.765 0 1.386.62 1.386 1.386s-.62 1.386-1.386 1.386-1.386-.62-1.386-1.386.62-1.386 1.386-1.386zm11-.01c.163 0 .356-.012.356.142v2.548c-.145.052-.302.08-.465.08-.765 0-1.276-.62-1.276-1.386s.62-1.386 1.386-1.386zm-3.36 3.09c.765 0 1.386.62 1.386 1.386s-.62 1.386-1.386 1.386-1.386-.62-1.386-1.386.62-1.386 1.386-1.386zm-11.642.014c.765 0 1.386.62 1.386 1.386s-.62 1.386-1.386 1.386-1.386-.62-1.386-1.386.62-1.386 1.386-1.386zm-10.017.427l1.423.047-2.648 1.575c.486-.608.94-1.074 1.224-1.623zm25.395.648l.02 2.85c-6.813 6.8-15.415 13.874-28.57 20.683l-1.677-1.697c10.726-5.115 20.8-12.282 30.227-21.835zm-19.345 1.554c.765 0 1.386.62 1.386 1.386s-.62 1.386-1.386 1.386-1.386-.62-1.386-1.386.62-1.386 1.386-1.386zm12.318.104c.765 0 1.386.62 1.386 1.386s-.62 1.386-1.386 1.386-1.386-.62-1.386-1.386.62-1.386 1.386-1.386zm-137.983 5.56c4.7-2.728 8.48-3.048 13.865-2.225l1.61 3.174c-5.244-.93-10.768-.846-15.492 2.8-4.895-3.093-8.614-3.986-12.634-3.483l-.073-3.346c5.24-.732 9.94 1.063 12.726 3.08zm121.845-3.018c.765 0 1.386.62 1.386 1.386s-.62 1.386-1.386 1.386-1.386-.62-1.386-1.386.62-1.386 1.386-1.386zm12.67.57c.765 0 1.386.62 1.386 1.386s-.62 1.386-1.386 1.386-1.386-.62-1.386-1.386.62-1.386 1.386-1.386zm-16.835 2.07c.765 0 1.386.62 1.386 1.386s-.62 1.386-1.386 1.386-1.386-.62-1.386-1.386.62-1.386 1.386-1.386zm12.917.803c.765 0 1.386.62 1.386 1.386s-.62 1.386-1.386 1.386-1.386-.62-1.386-1.386.62-1.386 1.386-1.386zm-17.188 1.645c.776 0 1.405.63 1.405 1.405s-.63 1.405-1.405 1.405-1.405-.63-1.405-1.405.63-1.405 1.405-1.405zm13.485 1.162c.765 0 1.386.62 1.386 1.386s-.62 1.386-1.386 1.386-1.386-.62-1.386-1.386.62-1.386 1.386-1.386zm-17.59.96c.765 0 1.386.62 1.386 1.386s-.62 1.386-1.386 1.386-1.386-.62-1.386-1.386.62-1.386 1.386-1.386zm-61.252 1.253l3.445 3.155-3.563 3.578-1.305-1.253 1.983-2.074-1.343-1.808zm75.02.307c.765 0 1.386.62 1.386 1.386s-.62 1.386-1.386 1.386-1.386-.62-1.386-1.386.62-1.386 1.386-1.386zm-3.99 2.346c.765 0 1.386.62 1.386 1.386s-.62 1.386-1.386 1.386-1.386-.62-1.386-1.386.62-1.386 1.386-1.386zm-4.335 2.353c.765 0 1.386.62 1.386 1.386s-.62 1.386-1.386 1.386-1.386-.62-1.386-1.386.62-1.386 1.386-1.386zm-71.255 3.92l1.125.916-1.765 2.126-1.348-.02zM67.9 219.932c-3.927 1.943-5.793 3.174-8.53 5.556l-3.924-5.442zm-26.72.038l10.458.147-3.478 4.92c-2.294-2.417-4.62-4.06-6.98-5.068zm12.455.536c1.133.36 4.1 4.587 5.495 6.894 2.974-2.365 5.886-5.008 9.063-6.43-3.777 3.988-7.093 8.115-9.452 12.104-.67-1.8-2.53-6.948-4.887-9.186-3.717 3.47-5.186 7.658-5.186 7.658-2-3.406-4.408-6.82-7.193-10.012-.46-.622 3.4 1.77 7.203 5.48 1.073-2.705 3.947-6.404 4.958-6.5zm-12.56 2.657c1.796 1.426 6.68 7.69 7.24 11.46l-2.34.147c-1.244-3.87-3.333-7.737-4.902-11.606zm26.007.64c-1.77 3.627-3.962 7.33-5.537 11.345l-2.31-.1c2.53-5.53 3.453-6.544 7.848-11.246zm-13.253 1.613c.022-.002.043.003.057.014 2.196 2.997 3.232 5.91 3.886 9.457l-1.7-.066s-1.185-3.56-1.998-4.816c-.526-.768-.948-.67-1.32-.033-.838 1.505-1.152 3.012-1.623 4.65l-1.955-.142c-.36-2.687 3.964-8.994 4.65-9.063zm-.308 10.33c.795.01 1.625.87 1.618 2.383.062.71-.5 2.28-1.086 2.36-1.108.587-2.418-1.24-2.088-2.762.28-1.298.855-1.992 1.557-1.983zm-3.847.286c1.57.14 1.908 3.66 1.272 4.38-.73.724-2.662.2-2.845-1.044-.63-1.597.52-3.32 1.574-3.336zm7.738-.02c1.71.24 1.28 4.104.395 4.672-1.375.727-2.422-.488-1.958-2.305.374-1.463.93-2.333 1.563-2.367zm3.953.64c1.958.22.827 3.622-.03 4.314-1.242.968-2.442-.48-1.846-2.208.462-1.34 1.23-2.116 1.874-2.107zm-15.804.104c1.424.228 2.25 3.45 1.402 4.37-.442.528-1.73-.242-2.32-1.126-.706-1.06-.044-3.25.917-3.246zm15.162 7.02c.17 1.692-1.107 1.692-4.786.867-1.858-.417-5.15-.153-6.833.152-2.832.514-3.232.317-3.227-.835.006-1.337 1.593-2.096 5.267-2.2 2.628-.08 9.17-.107 9.578 2.026zm5.72-.993c-4.38.412-5.546 5.9-5.063 7.93.385 3.4.22 6.94-.432 9.272-.468 1.675-.883 3.46-1.637 4.977-1.152 2.294-.855 3.997.854 4.91 1.403.75 3.13.494 4.214-.67 1.957-2.103 2.19-6.566.992-16.693-.423-3.573-.196-4.286 1.537-4.085 3.64-.028 3.493-5.636-.465-5.642zm-.527 4.612c-.98-.378-1.644.51-1.514 2.728.034.984.208 2.1.332 2.97 1.417 9.716.887 16.225-2.097 16.546-2.598.417-4.356-1.495-3.09-3.473.718-1.12 1.336-1.27 2.733-.683 1.92 1.2 1.438-.543-.29-1.822-1.11-.784-1.193-.784-.598-3.236.802-3.307 1.072-5.667.778-9.85-.414-2.96.575-6.885 4.342-7.116 3.81-.115 2.66 5.294-.598 3.937zm-26.9 12.797c1.24.598 2.446.496 3.625.01.46-2.065.488-3.784 1.88-6.593-2.316-2.317-6.213-1.407-7.31 1.022s-.075 4.653 1.807 5.56zm3.715-7.17c1.404.298 1.193 1.773-.128 1.292-3.15-1.483-5.717 2.98-3.174 4.66 1.297.725 1.87.31.584-.688-.527-.606-.394-.853-.076-1.46.66-1.226 3.06-1.028 2.9-.138-.546 2.826-.907 3.642-1.756 3.65-4.9.252-5.81-8.902 1.66-7.313zm41.542 5.083L62.7 283.01l87.947-.408-16.735-23.09c-14.357 3.314-31.225 2.357-49.627-1.41zm-.437 5.262c2.197.024 4.696 1.62 6.856 6.937.117.05 9.672-14.5 17.945.565 1.35-3.384 9.143-12.21 18.15-.883 3.2-7.58 10.578-5.017 11.27-2.372-.155-.57-7.03-2.2-10.007 2.823-.55 1.064-.578 2.073.052 2.67 1.487 1.4-.132 3.43-1.825 2.28-.66-.448-.744-1.388-.238-2.066 1.495-1.114-1.568-4.58-4.086-5.828-3.456-1.712-8.277-.957-10.594 1.5-1.247 1.32-2.008 2.508-2.19 3.456-.096.44-.037.67.224.964 1.005 1.213.342 2.873-1.018 2.672-1.782-.264-1.543-1.93-.352-2.84.365-.18.227-.394.117-.705-3.253-9.16-15.38-7.416-16.69-1.072-.048.23-.152.472-.1.71.136.607.49 1.12.355 1.596-.557 1.948-2.994 1.39-3.104-.225-.05-.734.742-.955 1.13-1.625.232-.42.34-.934.116-1.4-3.286-6.884-8.926-5.443-11.724-3.888-.06.033 2.502-3.304 5.713-3.27zm-3.644 3.99c1.2-.043 2.295.548 3.317 1.732 3.443-1.82 5.892 1.332 5.485 1.637-4.877-3.165-6.46 4.2-1.655 3.93-2.112 4.367 5.43 6.238 4.583.657 4.654 1.624 5.422-4.766.707-4.67 1.523-2.637 5.477-1.91 7.15-.26 1.966-2.4 6.795-.11 7.274 1.94-5.415-2.774-5.96 5.704-.716 3.9-1.553 5.396 6.784 4.63 4.48-.024 5.193 1.707 4.486-6.053-.617-4.48-.31-.402 4.034-4.89 7.193-.674.427-.742 5.358-3.174 8.057.645-5.847-1.977-4.74 5.892-.55 4.327-1.12 5.214 6.44 4.368 4.508-.076 5.857 1.48 3.264-7.442-.853-4.147.67-3.586 5.594-2.1 5.54-1.547 0-.003 2.615-2.827 5.542-.76-4.574.385-3.018 6.553 1.304 4.797-.047 2.094 1.694 3.48 4.048 2.77l3.696 5.167-84.308.53 6.735-8.028c2.253 1.862 4.588.982 4.876-1.938 4.903 3.007 6.176-4.136 1.576-4.445.934-.636 1.807-.962 2.63-.992zm-4.712 2.32c.29.206-.105 1.2-.75.91zm65.736 2.074l.68.95c.12.32-1.314-.17-.68-.95z"/>
</svg>