<svg xmlns="http://www.w3.org/2000/svg" width="224.225" height="312.808">
    <rect y=".499" x=".498" height="311.811" width="223.228" rx="10.63" fill="#fff" stroke="#000" stroke-width=".997"/>
    <g transform="matrix(.153592 .001705 -.001705 .153592 17.8233 55.5167)">
        <path d="M78.178-191.196l1064.59-11.82 20.835 1701.464-1067.442 9L78.178-191.196zm774.935 1680.842l-106.25-187.797c-23.036 12.535-258.915 46.63-372.88 17.415-38.214 58.526-75.734 116.484-108.928 174.445zM487.93 1279.75c-5.94.198-12.53 3.876-11.342.726.687-1.822 2.162-20.18 2.822-26.75 1.745-2.938 4.333 4.685 4.126 11.792-.12 4.08 1.818 1.146 15.28 1.7 14.56.598 26.513 3.18 31.462 4.187 17.25 3.512 50.515.484 64.667-10 7.66-5.674 10.65.328 2.754 6.415-35.654 27.486-64.276 17.474-95.563 13.282-4.663-.625-9.385-1.514-14.206-1.353zm15.003-25.87c-2.252-1.422-3.723-1.556-6.568-.197-10.977 5.243-8.173-2.134-.306-9.62 3.593-3.42 3.47-5.14.673-8.66-1.416-1.782-3.747-1.978-3.223-4.678 2.258-11.635 18.458-29.377 36.695-37.426 7.586-3.348 8.832.207-.745 5.945-14.727 8.825-19.44 16.267-11.088 13.167 16.19-6 31.066-2.06 51.98 8.023 5.975 2.88 8.703 3.427 13.753 2.834 3.7-3.122 7.09.545 9.426 2.454 1.467 1.146 1.785 1.7 3.437 1.295 11.807-2.895 4.797 4.682-11.25 16.595-28.748 20.676-60.25 30.625-82.782 10.267zm44.635 4.51c11.802-3.677 26.163-11.246 34.934-19.07 10.66-9.51 4.588-8.015-7.717-1.958-17.8 8.766-30.32 11.382-50.466 11.145-16.864-.198-16.342-.88-16.933 1.213-2.075 7.35 21.2 14.582 40.183 8.67zm-33.03-28.254c.927-3.166 1.616-7.38.74-8.738-1.586-2.46-4.918-.592-9.12 4.804-2.604 3.344-2.236 3.79.375 6.374 1.308.86 2.31 1.503 3.1 1.942 3.615 1.485 4.157-1.838 4.907-4.382zm7.418 4.243c4.992-17.6 16.603-17.378 25.07-.692l5.84-.033c-12.37-32.5-35.434-15.72-36.032.526 2.748.872 5.12.198 5.12.198zm43.336-3.435c5.447-3.096 4.62-5.152-2.402-8.652-4.99-2.487-7.622-2.97-8.505-1.32.108 3.617.312 8.79 2.45 11.634 2.2 1.296 5.197-.04 8.456-1.662zm-77.38-49.08c-1.022-1.636-.88-4.65 2.914-6.447 23.39-11.07 6.005-33.694-11.953-16.382-5.704 4.755-14.24 7.028-20.88 4.308-6.248-2.62-6.448-10.168 1.794-11.87 2.704-.56 9.643-2.103 12.2-3.9 31.366-17.117 48.528 19.153 26.276 31.535-4.572 2.72-9.437 4.263-10.34 2.757zm-88.76-32.122c-12.87-5.618-14.846-25.604-2.932-33.528 7.582-5.27 15.377-6.77 36.533 3.333 14.944 7.137 23.364-.82 23.074 7.682-.176 5.17-.43 10.383-9.055 11.723-14.022 2.18-23.82-16.636-41.84-14.652-13 1.432-11.18 16.872-1.74 19.91 12.58 4.047 5.035 9.093-4.04 5.534zm235.485.292c-2.34 1.12-3.5-3.973-2.513-6.708l17.632-41.37c4.503-11.3 7.554-16.17 9.63-16.18 2.12-.01 3.124 1.625-.35 8.59-5.2 14.03-24.36 56.865-24.4 55.67zm-105.18-2.737c-5.708-3.943-4.82-9.895 1.677-5.467 8.348 5.7 21.8-5.043 18.93-15-3.48-12.03-19.662-14.774-33.062-3.816-21.14 17.288-44.53 18.413-44.678 5.087-.006-3.812-.55-4.67 8.318-5.364 10.312-.806 21.9-5.63 27.645-9.194 25.772-16 53.495-5.456 48.07 20.805-2.442 12.386-17.63 18.54-26.9 12.95zm-95.565-37.61c-2.105-.04-5.933 2.11-7.045 1.303-2.178-1.58-1.917-6.228-3.748-11.186-3.25-8.8-.147-6.072 5.428-3.746 7.567 2.81 14.7 2.17 21.03-.1 6.53-2.332 15.135-1.91 28.92-.28 11.09 1.312 17.305.826 27.325-2.14 10.87-3.514 7.996-2.262 6.25 4.44-1.135 4.396-2.562 10.29-3.933 11.72-7.587-4.112-13.295-2.423-18.22.486-8.104 3.652-13.87 4.33-20.56 2.42-6.313-3.477-10.033-3.144-15.04-.026-8.637 4.273-12.566-2.59-20.4-2.9zm162.457-20.168c1.5-2.683 3.678-6.378 5.72-10.518 16.483-33.43 17.53-42.69 5.51-53.757-16.153-14.875-29.704-8.193-44.686 22.03-3.637 7.337-5.8 12.844-7.276 15.112-1.702 2.614-3.747.636-4.756-.363-1.9-1.89 14.732-33.985 21.317-41.023 17.233-18.42 49.793-4.2 48.006 20.615-.9 12.498-3.214 19.366-14.456 42.386-2.783 5.698-5.2 10.527-6.68 12.856-5.353 3.648-4.212-4.597-2.7-7.34zm-158.864.44c2.53-11.87 40.683-17.774 50.927-2.36 1 1.506.424 1.45-3.912.32-19.5-6.162-23.35-5.77-41.885 1.743-2.787 1.103-4.773 1.567-5.13.295zm145.784-3.868c-.005-1.112 1.36-5.504 3.472-9.765 12.465-25.154 15.91-31.227 11.972-35.862-7.674-9.03-17.757-.996-26.814 25.228-3.385 9.803-5.79 7.746-7.5 6.224-3.297-2.916 10.816-33.467 17.733-38.076 15.685-10.154 28.247 1.257 21.493 21.745-5.344 9.276-9.685 23.504-14.688 31.02-2.377 3.373-5.644 2.418-5.658-.514zm-57.593-39.993c-.782-1.253.7-2.965 6.033-14.675 7.346-16.097 9.614-22.06 6.455-31.17-5.63-16.233-26.213-19.998-38.572-9.167-4.044 3.495-6.76 8.303-8.636 12.613-4.398 9.98-8.014 22.865-10.655 25.59-2.31 2.365-5.564 2.876-5.396-1.206 2.87-8.68 4.196-15.4 11.068-28.148 17.063-37.93 67.65-21.017 56.296 18.838-4.225 14.47-9.148 25.447-12.092 29.027-1.638 1.99-4.4.308-4.5-1.702zm-11.772-6.802c-.006-1.24 1.844-4.802 3.796-9.755 8.3-21.035 8.275-27.454-4.15-27.585-7.418 1.03-8.49 4.07-14.828 20.663-2.06 5.4-3.185 9.225-4.425 10.876-1.332 1.772-3.878.758-4.93-.284-2.694-2.668 8.636-29.89 14.727-35.067 14.002-12.38 32.51 4.773 24.104 20.45-3.9 10.94-7.284 18.368-9.606 21.762-2.054 3.002-4.67 2.61-4.687-1.062zm-303.66-240.804l-42.974-2.452c8.115 45.574 9.06 95.83 1.77 131.557-6.233 30.546-6.06 52.994-3.804 79.392 2.623 30.715 16.004 56.635 19.66 89.23 2.65 23.616-2.338 48.35-6.777 71.908-7.418 39.37-5.754 43.454-4.086 89.536 1.547 42.726-2.48 41.238-4.973 38.77-.378-.374-.807-7.928-.85-16.916s-.846-30.965-1.53-46.22c-1.368-30.473 1.742-57.45 4.09-68.565 4.776-22.62 10.167-45.8 6.412-70.733-7.418-31.442-17.73-62.81-21.563-93.152-4.725-37.414 5.45-75.118 8.65-102.365 3.1-26.307-.998-71.712-8.13-90.55-1.262-6.278-7.006-14.42-7.006-14.42-6.485-.848-12.996-1.686-22.075-1.528l6.148 541.302 40.453 36.525 40.71-39.375zm5.188 206.913s61.487 34.323 129.236 67.972c-6.852-39.284 13.428-45.444 32.48-50.223-5.42-75.977 64.755-61.158 76.214 4.78l6.898-.05c11.764-33.07 23.507-55.93 51.063-61.662 21.355-4.44 42.615 8.812 48.32 40.52-.968-2.223 70.5-42.786 73.414 41.204 32.43-20.535 55.927-3.368 65.63 22.143 13.556-21.06 48.055-22.363 59.072-24.005 3.793-4.453 10.544-7.045 22.864-7.104 10.555-.653 24.657-8.68 32.064.826 11.123 1.62 19.56-.47 29.13 6.72 7.617 5.628 16.18 18.27 28.655 9.35 23.842-11.755 50.723-17.233 72.002-31.323 0 0-5.764-7.222-4.094-6.192.61.377 3.318 3.787 7.357 5.347 1.446.56 14.53-7.44 14.53-7.44-90.413-101.364-166.072-300.37-119.632-485.782 1.31-3.162-4.094-4.31-6.757-5.397.8-1.427 13.924.33 8.492 12.146-5.21 35.483-11.133 73.937-12.22 103.32a71.45 71.45 0 0 0 .376 6.775c201.2 89.662 178.862 288.953 128.206 358.797l8.225 10.657c3.614 2.352 156.512-88.662 151.395-92.27l28.96-14.75-9.052-390.202-115.263-7.485s1.192-3.29 2.64-4.157c.79-23.835-1.743-59.05-.923-88.558l-1.077-115.285c-35.78-22.882-89.122-56.33-133.88-72.34 1.835.5-.338 34.935-1.672 36.913-41.558 13.706-22.012 30.418-37.224 48.77-10.228 11.44-34.44 13.865-46.29.408-14.132-13.31-21.03-44.125-21.03-44.125-21.8 23.722-16.956 52.035-46.38 63.04-47.226 23.97-63.082-45.948-60.302-44.354-18.006 17.66-68.908 32.424-75.243-41.232-22.723 21.3-48.574 11.133-59.78-14.63-14.008.65-29.602 11.752-43.722 17.815-13.098 5.944-29.898 9.537-42.4 9.417-15.612 2.055-28.488 2.126-42.623-1.892-6.593 2.21-21.588-4.02-26.295-13.13-7.136-8.16-13.283-8.573-19.963-7.01-22.68 12.212-47.1 15.37-73.9 28.19-1.67 1.18 2.403 3.325 1.037 2.91-.575-.175-14.073 6.787-14.073 6.787 138.393 176.965 147.815 357.083 120.64 485.12-1.072 4.438-1.656 7.66 1.332 11.11-4.335-.693-4.39.567-5.23-2.183l12.994-107.36c.274-12.953 1.912-12.014-9.574-16.716-10.623-4.35-20.668-8.542-29.452-13.785-33.534-24.158-71.464-53.932-90.202-91.4-53.17-80.387-36.998-177.19 1.306-254.174l-9.85-9.958C158.156 338.55 91.332 400.768 91.332 400.768l4.743 382.937 117.645 12.18zM155.912 750.32c-3.813-4.103-13.415-4.724-17.38-1.528-.914.785-2.84 4.867-3.425 4.725-5.34-1.3-9.035-2.36-9.793-6.823l5.555-8.56c4.396-6.775 10.818-9.233 21.65-11.88 3.845-.94 9.654-1.825 11.7-2.716 8.123-3.6 10.88-11.23 2.652-7.734-6.02 1.717-14.46 1.265-15.642-4.216-.97-4.504-4.853-6.23-9.155-5.652-7.938 1.992-15.164 6.2-22.165 10.452-3.105 1.91-8.984 6.22-8.984 6.22-.918 1.47-4.485-9.133-1.305-12.278 3.998.437 7.434.436 11.31-1.15 9.67-3.96 18.97-8.712 28.733-12.55 6.216-2.508 6.79-2.308 5.097-6.7-.83-1.617-1.608-7.012-.564-9.852 1.11-3.018.965-4.53-.988-5.793-4.444-2.876-14.993-.034-29.793 7.244-4.507 2.22-7.485 3.122-10.324 5.456 1.796-4.707.7-5.56.607-10.466 6.083.69 11.523-1.77 16.344-4.367 3.977-2.126 8.44-4.23 19.417-5.75 2.998-.415 1.51-11.337-1.944-14.47-3.267-2.96-10.065-2.95-18.26-.438-7.326 1.76-16.438 3.56-21.402 11.467-6.306 6.074.044-9.954 11.593-16.45 5.094-.165 16.303-2.69 18.94-3.3 4.473-1.036 5.075-11.517-1.492-15.93-4.12-3.5 14.786-3.8 14.433-2.716-.234.62-.36 5.097 1.098 6.222 8.17 2.348 8.17 8.975 8.915 11.758 9.52 15.172 14.016 5.538 20.394.203-.987 33.282 10.744 36.937 12.313 39.026-15.725 29.985-3.608 30.583 11.52 37.272 0 0-5.696 2.374-9.507 2.183-5.994-.3-17.38 6.895-22.348 11.115-2.74 2.328-2.846.413-13.908.216-10.42-.186-11.178.597-15.905 2.744-9.327 4.236-9.235 8.138-.095 6.5 9.735-1.75 19.356 4.04 20.568 12.055.8 1.5.13 4.2-.026 4.113-2.036-.358-6.62.455-6.562-.513s-.053-4.604-1.88-7.138zm13.786-40.472c2.626-1.7 3.028-6.5.704-8.41-2.115-1.738-11.006-.698-13.497 1.58-5.637 4.52 4.84 11.856 12.793 6.832zm5.478-20.1c3.244-2.577 3.576-8.69.702-12.204-4.874-5.96-17.4-2.22-17.996 5.373-.635 8.086 10.5 12.22 17.294 6.83zm-4.394-27.43c.518-6.64-6.127-10.77-12.162-7.556-7.516 4.003-2.834 12.21 6.628 11.62 5.242-.327 5.242-.327 5.533-4.065zm-22.427-26.673c-3.512 1.763-3.644 5.9-.272 8.526 13.343 7.14 9.088-12.334.272-8.526zm926.678 29.37c-6.06-21.293-21.874.06-21.893.356-.812-21.88 3.24-31.668-13.327-38.962 16.266-25.132 12.778-28.534-4.87-37.912 1.618.12 23.233-4.954 26.805-17.318.83.567 34.106 8.337 38.045-9.74-9.962 4.654-29.65 5.55-30.09-13.836 1.857-.578 6.536.326 6.153.948-2.482 12.464 20.306 15.287 23.918 5.424 0 0 7.7 5.014 11.07 5.764.377.246-10.18 15.17-19.935 17.513-17.565 6.006-23.627 7.64-23.6 11.13.01 1.355 2.895 1.54 8.144 2.547 10.956.63 10.753 2.974 12.23 6.57 1.306 3.18 2.548 3.805 6.195 3.44 12.46-4.276 18.69-6.518 27.307-15.29 1.057-.217 2.394 9.095 3.072 9.407.086-1.488-8.836 1.207-22.493 9.368-11.147 6.66-15.528 7.66-16.935 9.44-1.043 1.32 1.727 5.414 2.065 9.888.284 3.762-2.24 5.616-.356 6.77 2.175 1.333 5.518 1.048 9.9-.138 9.673-2.436 16.77-6.31 25.427-11.772-1.814 3.51 1.39 12.334 1.39 12.334s-4.336-2.966-7.86-1.363c-6.8 3.055-17.775 7.242-20.746 7.973-2.877.708-4.125 1.096-5.242 2.06-1.374 1.187-1.11 4.003-1.09 8.14.014 2.904-.8 5.593 1.053 6.45 4.088 1.26 12.303.756 20.642-2.244 3.55-1.59 11.078-5.777 11.078-5.777l-2.236 12.273c-3.216-3.528-12.303-.802-18.378 1.66-3.068.998-3.968 2.936-4.72 5.617-1.312 4.587 1.64 7.702 5.018 9.166 2.25.975 5.694.527 5.694.527-15.742 6.167-12.572 8.34-21.848 3.898-4.037-4.255-7.995-8.75-9.577-14.31zm16.547-.18c-2.656-2.99-7.245-4.668-9.89-3.447-2.356 1.28-1.475 3.89-.697 5.884 2.063 5.522 15.935 3.578 10.588-2.437zm-9.396-15.164c3.653-4.88-.498-11.34-7.345-11.308-4.76.023-7.264 3.003-7.172 6.71.174 7.024 11.467 8.67 14.518 4.597zm-7.813-18.35c6.844-1.937 8.878-8.586 4.08-13.34-3.41-3.38-14.01-3.686-16.806-.565-7.144 7.97 1.063 17.204 12.727 13.904zm5.44-24.3c4.008-2.097 4.75-5.527 1.143-9.377-6.527-5.407-17.764-1.008-14.03 6.94 1.83 3.893 8 4.993 12.886 2.437zM251.388 432.16c6.04-2.265 10.365-6.998 16.707-10.664 4.28-2.388 2.987-2-2.558-5.147-4.355-1.935-13.135-10.593-13.923-8.496-1.926 3.754-1.418 24.15-.226 24.307zm155.68 211.967c.204-4.166.637-10.444.47-15.04.724-8.774-.83-6.196-5.563-3.28-3.5 2.303-9.116 5.806-11.32 6.932-8.694 4.438-7.645 4.654 4.726 10.414 10.382 4.492 11.54 4.028 11.688.975zm-12.223-20.382c8.296-5.334 11.04-8.067 11.378-13.957-.033-6.768-.85-9.22-6.758-4.47-20.155 16.212-41.433-14.92-23.013-32.553 3.756-3.595 8.515-9.2 8.542-10.622.192-10.1-11.124-.17-20.307 13.812-10.196 12.732-16.46 28.594-7.223 43.653 7.378 11.013 23.55 13.03 37.382 4.135zm-46.426-19.9c-.422-4.943.915-10.486 1.545-12.138 2.216-5.815 2.113-6.534-8.194-1.6-4.116 1.404-9.036 2.56-10.935 2.57-8.462.04-6.32 2.667 5.92 12.6 12.3 9.982 12.717 10.892 11.665-1.43zm28.28-48.772c1.26-3.06-1.44-4.2-4.004-3.6-.2.047-4.604 3.392-9.77 7.536-15.665 12.562-27.24 14.137-35.183 4.788-8.055-9.48-4.86-20.865 12.764-34.054 7.775-5.82 9.652-6.23 5.854-8.69-2.89-1.873-3.058-1.58-14.242 6.138-22.537 15.556-29.22 26.082-26.775 41.286.535 6.25 3.864 9.49 7.076 11.887 21.862 18.857 51.604-7.807 64.28-25.29zm23.018 8.78l-1.602-21.057c-23.308-19.557-45.575-53.157-53.456-81.1-8-24.84-2.42-76.906-1.218-73.057l-12.735-23.38c-10.58 25.08-14.898 63.196-2.657 101.845 10.39 32.81 30.905 72.458 71.668 96.75zm-97.372-11.196c7.18-14.102 7.424-12.6-6.748-12.554-16.174.04-14.39-1.94-5.12 11.71 7.442 10.96 6.22 11.937 11.87.845zm9.502-19.323c9.283-3.08 7.164-2.373 19.44-10.515 14.09-9.345 14.627-14.376.46-7.138-18.19 9.293-34.28 7.148-40.374-4.65-5.43-10.515 5.514-23.822 23.72-29.183 6.22-1.832 9.492-3.357 9.48-6.078-.04-8.293-31.005 3.115-43.675 15.78-24.46 24.445-2.502 52.884 30.954 41.784zm-40.395-37.19c.82-1.27 3.007-4.317 5.024-7.472 8.644-10.227 1.316-7.118-6.49-9.8-4.123-1.465-8.35-2.917-10.756-2.527-4.644.754 1.673 9.626 3.233 15.38 4.328 12.807 3.842 12.418 8.988 4.42zm32.843-23.53c15.658-1.7 17.24-3.226 17.224-6.46-.016-3.207-1.945-2.572-9.802-1.397-20.804 3.112-34.66-2.013-37.762-13.036-3.202-11.382 10.79-22.344 29.605-21.915 10.19.233 16.935-3.347 10.694-6.65-3.25-1.72-31.3-1.03-37.625.88-18.583 5.61-26.065 16.016-24.205 30.286 2.774 17.616 12.5 22.566 36.092 21.052 4.52-.3 10.26-2.164 15.78-2.763zm11.5-57.608c-.014-2.753-4.493-3.104-19.308-5.125-19.733-2.692-28.736-20.74-16.982-31.79 4.456-4.19 15.162-6.084 21.15-5.066 13.014 2.21 20.985 4.782 21.06.394-.018-3.913-3.8-4.15-28.228-9.007-36.92-7.345-56.744 28.87-27.097 46.147 11.263 6.563 49.43 9.942 49.405 4.45zm8.56-51.6c-.006-1.38-1.214-2.425-4.017-3.48-4.072-1.534-6.8-1.795-16.007-7.826-12.25-8.022-16.116-23.888-8.104-32.843 7.785-8.363-6.494-17.975-17.683-8.51-11.625 9.832-10.47 25.054 3.176 36.962 12.564 10.965 42.666 22.175 42.635 15.7zm-59.708-1.49c12.737-6.12 21.97-2.782 12.082-10.925-5.557-5.012-10.4-19.38-14.097-7.106-2.845 7.323-4.852 20.206-4.917 21.473.868.86.657-.63 6.932-3.44zm452.516-36.064c-14.623-3.453-24.772-20.197-21.24-36.44 1.996-9.176 10.41-30.844 12.097-32.205 6.38-5.15 5.57 1.617-.203 13.422-5.252 12.043-9.342 21.725-7.596 28.837 2.485 10.123 6.695 17.824 17.326 20.28 7.473 1.728 14.46-1.44 19.182-4.84 6.242-4.493 12.066-15.904 19.002-31.693 2.223-4.443 5.123-18.047 9.002-9.81 1.873 4.265-12.984 32.938-18.574 40.225-7.034 9.167-19.03 14.632-28.995 12.218zm87.806-10.513c7.18 6.695 19.223 9.97 27.033 7.454 19.16-6.96 27.697-25.143 20.093-54.138-3.867-16.258-7.132-26.36-10.344-28.34-1.56-.962-3.236.882-4.717 3.168-1.322 2.04.765 4.862 3.032 12.51 9.55 32.208 7.308 46.845-3.84 53.145-16.175 9.14-30.233-1.023-35.212-24.023-.796-3.554-3.106-10.793-3.106-10.793-1.282-3.19-11.354-2.37-7.57 8.32 1.195 8.29 9.1 28.008 14.63 32.698zm81.568-85.54c-.38-11.365-24.95-60.423-26.527-55.17 0 0 .024 11.53 1.016 16.055.375 1.708 1.638 3.28 2.686 5.093 21.286 36.816 18.353 62.96.316 68.88-6.135 2.854-7.445 5.61-4.657 8.453 5.646 5.975 19.504-6.12 22.18-10.484 6.74-9.798 5.592-27.524 4.987-32.83zm-349.667-4.504c7.77-8.83 24.69-39.2 29.834-55.093C582.54 122.9 599.14 68.51 603.337 18.357c.456-6.327.68-15.952.987-16.778-1.302-1.37-9.408-.553-12.118.862-1.287 1.706-.372 5.448-.783 10.342-6.697 56.405-19.647 107.867-39.116 160.323-8.518 22.788-16.494 37.816-26.883 53.714-1.813 2.775-4.128 5.64-5.034 7.25-2.628 3.867-.636 6.352 2.44 4.695 5.46-3.156 10.132-9.15 14.032-13.468zM510.2 239.3c24.717-34.66 42.1-76.133 55.424-125.003 8.413-31.63 15.77-63.62 20.034-96.184.872-6.95 1.586-11.605.203-13.666-3.398-.87-9.717-.237-11.89 1.473-1.32 2.037-.38 6.073-1.517 15.445-2.942 24.233-7.48 48.58-15.24 80.476-20.64 70.634-39.885 110.264-65.36 145.033-2.057 2.924-3.897 4.83-3.697 6.058.295 1.802 2.8 1.626 6.883-.975 5.323-4.262 11.422-7.998 15.16-12.656zm-38.03 18.695c12.2-7.075 33.482-37.504 48.396-70.187 16.7-38.574 30.57-82.09 39.544-119.743 3.892-16.5 9.23-57.657 8.372-60.353-1.02-3.202-12.988-.393-11.298 1.807 0 0-11.188 66.187-23.61 102.74-23.063 67.86-43.148 113.95-65.066 136.244l-8.53 8.64s.147 2.52 2 2.885c4.43.764 7.36-.543 10.193-2.034zm-18.82-2.485c27.532-15.747 59.18-88.22 84.66-179.057 4.36-15.54 12.066-67.497 12.066-67.497s-11.034.53-13.14 2.867c-2.107 3.158-1.675 11.133-4.556 30.118-11.275 57.404-28.66 109.844-55.09 161.776-11.425 23.008-30.6 44.77-42.772 51.042-6.81 3.507-8.772 7.3-3.755 7.527 8.45.207 9.22 1.96 15.32-1.392zm388.58 802.247c-20.775.157-38.202 20.224-53.647 45.374-32.875 51.543-54.405 137.3-59.372 182.816l12.59-2.514c-1.884.888 22.243-121.227 60.482-173.825 20.62-33.146 19.73-33.634 31.477-36.784 14.852-3.982 26.98 11.953 19.695 21.715-2.638 3.306-5.598.932-4.822-3.746 2.476-14.928-19.36-17.55-25.287-2.845-6.82 16.916 11.976 31.728 30.104 24.904 16.2-5.908 22.762-28.656 11.158-45.277-5.934-5.6-14.48-10.534-22.38-9.817zm-109.39-.874c-24.532 31.426-36.5 63.573-51.3 107.444-14.778 43.836-25.268 86.668-29.476 135.73l13.402-1.873c-.842-31.502 32.122-181.9 80.156-238.636 2.677-3.588 4.826-6.568 4.614-7.392-2.784-7.555-14.22 1.71-17.406 4.727zm54.832-12.24c-31.95 26.7-57.067 84.534-73.46 137.92-17.72 57.707-25.373 110.493-23.994 110.477l12.8-2.02c-.99-3.328 33.704-206.356 101.852-244.006 5.912-3.022 7.126-6.018 2.1-7.254-7.728-.994-13.908 1.603-19.285 4.884zm36.1-.267c-70.3 10.025-113.916 225.923-115.254 243.822-.02.276-.24 1.668-.24 1.668l13.984-3.036.17-1.034c9.043-55.138 18.02-93.825 39.4-143.81 16.696-37.053 39.767-84.446 74.973-89.41 2.86-.403 5.59.713 4.55-2.602-2.206-5.258-12.752-5.814-17.593-5.6zm-420.34-63.167c-25.373 6.806-25.863 37.237-8.484 75.92 1.313 2.922 1.1 4.53 2.4 5.647 2.925 2.496 5.16-1.055 5.456-3.386.45-3.54-1.116-8.277-3.884-15.154-10.783-26.8-8.442-42.32 1.868-49.292 26.464-13.975 33.938 14.034 38.105 26.913 1.02 3.14 1.407 7.462 3.146 7.68 5.318.667 7.83-1.24 7.75-1.24 0 0-7.32-24.114-11.718-33.154-7.12-14.63-23.695-17.52-34.648-13.936zm-184.29 30.77l3.296 320.65-48.202 46.19c-21.104-17.65-48.875-45.346-48.875-45.346L119.9 791.4l-15.686-1.08 6.515 702.625 144.038-.538 117.138-187.122s1.483-2.23 1.946-3.403c1.423-3.605 1.194-8.95.257-28.7-.38-8.026.454-14.203-.753-16.072-1.222-1.893-3.75-.502-6.112.587-2.405 1.1-3.848.742-2.578-2.117.72-1.62 3.067-5.188 5.09-8.587 6.57-11.038 8.17-14.568 5.772-26.7-.59-2.98-3.365-5.48-5.795-8.977-20.4-29.336-29.047-73.06-19.442-105.26 3.017-14.222 1.843-17.083-5.138-28.062zm626.655-351.774c-13.17-6.568-12.914-6.422-12.853 6.283.177 9.5.383 11.796 3.94 10.476 5.136-2.677 11.422-5.15 16.163-7.223 9.063-3.22-2.535-7.1-7.25-9.536zm52.21 32.45c-10.253-7.986-6.5-7.097-9.165 11.197-1.615 11.05-3.854 11.36 7.535 7.585 6.464-2.313 19.82-1.05 13.752-8.586.04.134-10.11-8.53-12.122-10.195zM492.46 977.53c-15.485 9.59-30.903 55.41-30.903 55.41-54.41 7.087-76.622 60.846-78.562 105.487-1.532 35.24-3.467 76.392.132 79.956 35.545-16.437 49.51 1.923 52.84-3.106 1.522-2.196-8.025-9.315-20-15.664-2.778-1.474-7.087-4.135-8.723-5.458-4.378-3.542 8.653-.6 16.927 4.893 10.556 7.007 12.3 5.502 7.522-15.258-5.195-22.568-6.034-25.332 11.277-34.492 6.927-3.666 10.853-6.756 15.78-12.394 3.94-4.512 4.95-5.612 3.553.97-2.42 11.402-12.492 16.473-21.562 21.192-4.512 2.373-6.337 7.07-6.317 11.08.02 4.094 4.973 26.15 7.23 33.19 2.094 6.7 2.91 13.41 4.547 20.234 4.29 17.713 4.6 21.192 2.666 34.103-1.13 7.572-1.696 11.886-1.225 16.448l1.067 9.786c.02-.197-9.837-9.872-31.076-1.247-15.312 6.217-27.533.05-36.2-4.33-1.906 7.014-1.372 14.605-1.044 22.628 88.873 15.215 164.598 12.2 228.3 4.823 1.443-18.856 8.82-78.838 25.108-133.034 6.778-22.55 14.463-46.332 23.25-62.24 5.99-10.848 12.146-18.182 14.336-19.46.682-.423.743-.644.722-.935-.017-.6.001-1.108-.036-1.686-.263-3.5-1.17-8.912-4.212-11.28-7.425-5.783-19.085 1.9-22.8 15.022-3.296 7.873-18.357 41.942-19.465 41.383-.915-.56-3.057-.58-2.31-3.207 5.758-13.805 13.715-28.42 18.15-40.804 6.118-17.827 19.748-27.354 30.137-16.27 3.56 3.8 5.013 7.322 6.64 8.524 1.228.907 2.86.26 3.85-1.27 3.805-5.87-5.312-18.992-14.967-21.542-13.935-3.68-24.176 6.56-39.567 39.563-8.887 19.056-10.46 23.834-11.917 22.39-.317.132-2.733.155-1.9-3.527 1.79-7.913 13.606-30.98 22.188-45.625 12.703-21.677 36.714-23.69 47.027-5.112 1.573 2.53 1.688 5.86 3.43 8.114 3.146 3.972 8.24 3.12 9.43-3.473-1.425-4.34-10.047-19.976-15.945-22.65-13.618-9.13-30-7.127-43.665 5.34-3.1 2.828-6.302 8.54-15.25 27.21-13.155 29.92-13.513 30.04-17.25 25.284 5.26-14.543 19.266-38.23 24.864-52.742 1.073-2.165 1.27-4.48 1.16-6.702-.45-10.495 1.058-29.07-21.31-42.008-19.064-9.993-43.965 1.02-52.26 21.197-6.354 15.455-11.004 26.076-14.27 28.292-4.587 3.114-3.772-1.162-3.33-2.716 6.412-13.993 15.494-28.162 16.8-42.188.536-37.918-38.075-51.504-62.87-32.096zM286.038 269.374c29.854-14.275 50.324-21.52 80.802-30.87 4.11-1.856 4.764-2.278.283-10.905-19.8-38.117 33.022-69.262 51.506-31.837 2.464 5 3.054 7.758 5.402 5.332 4.376-5.872 9.566-14.197 14.95-23.692 19.983-31.72 28.788-67.748 39.28-99.575 4.3-18.677 10.353-38.22 11.908-58.217-41.124-69.746-69.972-136.97-113.495-198.992l-282.42 2.932 5.204 564.278c78.233-66.73 131.728-91.15 186.58-118.453zM603.7 245.112c3.386-3.654 6.283-9.687 18.286-35.012l6.953-14.785c1.777-5.948 8.637-9.732 5.393.92-.738 2.3-2.02 5.404-4.058 9.536-4.004 7.386-7.785 16.42-10.627 22.325-15.355 31.633-14.406 49.955 3.293 63.4 13.246 12.38 40.787 13.488 55.212-6.898 2.157-3.282 4.066-7.494 4.683-9.038 6.194-15.514 10.806-23.288 11.994-24.83 6.425-8.34 7.583 1.892-1.977 17.77-10.956 18.193-10.932 37.78-1.136 51.452 14.52 20.264 41.677 20.543 58.536 3.97h0c8.744-10.476 15.638-23.756 21.12-40.695 1.215-3.754 2.483-6.547 3.378-8.75 1.38-3.396 3.4-4.677 8.7-5.75 36.196-7.346 66.225-44.897 70.095-85.576.507-5.503 1.963-15.244 2.47-21.02 1.01-11.527.37-71.168-.802-74.714-.633-1.912-1.727-2.916-4.087-2.863-1.812.04-4.37.705-8.04 2.06-11.91 4.4-17.465 5.542-29 1.564-3.81-1.314-6.442-1.748-7.998-1.596-5.063.494 1.752 7.686 16.618 15.55 6.37 3.37 11.424 7.95 6.3 7.664-1.492-.083-19.43-9.095-21.908-10.576-8.18-4.888-6 1.356-1.62 17.803 5.866 22.086 2.698 28.34-14.706 37.212-3.245 1.654-7.536 5.078-9.715 7.277-9.12 13.8-6.84 3.682-2.246-3.665 7.886-8.44 2.96-11.233-13.337-5.264-18.59 6.81-27.078 2.083-32.413-8.23-6.033-11.66 4.905-26.865 14.17-26.672 3 .062 2.472 1.147-1.913 4.21-5.3 3.7-7.788 7.242-8.274 13.47-.99 12.693 8.146 17.977 20.736 9.33 5.945-4.083 10.63-6.91 15.154-7.99 4.484-1.07 11.254.524 11.27 4.117.007 1.48-.157 5.118.17 5.92 1.234 4 7.596-1.753 10.37-3.802 9.473-7.244 9.147-8.647 6.41-20.195-4.445-16.154-6.763-30.945-11.01-47.324-2.268-8.58-2.744-18.3-1.52-27.083.614-4.403 2.225-13.456 2.503-19.645s-.205-15.022.023-15.023c9.566 7.15 13.437 8.375 22.654 4.76 14.26-6.026 23.313-5.516 35.445.12 4.49 2.085 8.574 3.545 8.574 3.545l.342-18.605S846.956 1.32 826.28-1.162c-62.24-7.47-189.796-7.778-194.46-.225-1.186 1.92-2.243 15.22-5.425 33.73-7.095 38.468-15.098 76.817-25.96 114.398-2.228 7.657-4.403 10.755-3.22 10.97.487.088 2.76-2.893 3.82-4.142 5.97-7.04 1.52 9.572-7.385 29.62-.804 1.8-1.46 3.8-1.457 4.4.005 1.204-5.573 15.17-9.434 23.62-2.4 5.25-4.42 6.847-4.435 3.507 2.645-11.524 9.813-26.47 10.756-36.722-6.32 9.344-15.506 24.758-22.483 33.97-1.278 2.475.115 3.22 1.288 6.25 4.38 11.308 14.695 12.2 20.537 1.862 3.257-5.77 13.33-27.483 16.815-36.977 3.583-9.765 6.12-14.922 7.34-15.57 2.455-1.303 2.99 4.22-1.284 13.467-12.972 28.06-18.488 43.767-24.928 49.61-4.997 4.533-13.73 4.345-18.67-3.57-8.374-13.42-15.344-8.868-7.644 4.903 7.954 14.227 25.782 15.368 34.94 2.372 3.024-4.3 17.17-32.02 21.59-43.282 2.467-6.287 5.12-11.19 6.022-11.55 4.833-1.92-.547 12.432-14.164 41.198-4.393 11.098-11.516 22.772-21.294 26.47-23.794 5.486-27.16-7.085-35.618-21.36-4.073-3.528-7.662 2.227-6.048 8.527 2.618 10.22 7.343 14.18 14.63 19.24 15.204 9.436 36.12 2.594 43.606-8.44zm107.08 58.683c-2.216-4.76-1.96-9.623-.905-14.167 2.388-10.242 6.417-20.2 11.16-28.877 7.793-3.8 1.972 11.01 1.017 13.208-9.23 19.8-10.038 27.417-1.196 29.6 7.576 1.863 11.586-2.8 18.532-20.53 3.564-9.098 4.984-13.126 6.276-13.66 2.738-1.135 4.074-.04 3.942 2.724-4.595 11.64-8.155 23.867-15.803 33.576-7.52 6.437-18.956 6.598-23.022-1.863zm-71.024-14.34c-3.296-.604-8.978-4.784-12.934-8.323-13.484-12.065-11.468-28.975 4.73-60.903 1.258-2.48 5.966-12.132 7.478-15.302 2.708-5.676 5.46-3.496 5.477.24.005 1.05-4.034 9.862-8.12 18.044-17.88 35.907-17.093 50.463.763 58.76 17.427 8.098 25.14 3.24 38.66-24.166 7.77-20.55 11.71-20.932 11.356-13.15.014 2.902-9.446 22.626-15.59 31.813-8.908 13.322-16.72 15.758-31.825 12.987zm1.12-17.243c-6.852-4.132-9.744-14.57-5.817-23.183 3.58-7.107 12.652-34.296 17.04-35.87 7.08-.32 3.366 5.648-5.225 22.4-10.135 22.18-9.697 28.075-1.647 31.364 7.45 3.044 10.896-3.402 21.546-29.33 1.672-4.07 4.023-8.306 5.438-7.44 1.737-.15 4.77 1.124-.85 12.882-1.333 2.81-3.584 8.702-6.082 14.193-7.3 16.05-15.736 20.214-24.406 14.985zm122.33-48.2c-3.012-1.504-17.1-6.858-15.078-11.447.25-.432 1.07-.104 1.49.17 12.947 8.458 28.956 10.465 45.494-1.66 2.777-2.5 4.89-.854 3.36 2.264-4.94 10.06-27.36 14.586-35.265 10.673zm-41.445-14.047c.377-.964 1.502-3.836 2.485-7.69 1.477-5.794 1.07-10.044 2.443-9.322 5.858 3.078 16.272 3.038 21.334-.126 5.55-3.47 16.874-4.635 21.035-1.997 5.945 3.77 8.93 1.952 13.03-1.314 4.63-3.686 4.73-2.134 13.195.695 6.25 2.09 8.715 3.54 11.355 3.03 1.012-.195 3.046-2.526 3.703-2.415 2.03.34 2.322 6.08 4.26 12.612 1.715 5.78.8 7.188-4.45 3.772-3.896-2.54-15.03-3.634-26.554.035-8.54 2.72-10.522 1.685-16.82.693-15.697-2.47-27.026-4.388-38.626 2.493-6.196 3.676-8.44 5.574-6.388-.465zm-39.3-28.2c-7.762-15.125 9.477-35.46 24.905-28.518 5.116 2.3 9.742 11.183 2.166 7.17-34.988-6.65-25.7 44.31 11.488 16.924 24.732-16.794 42.332-19.544 43.976-3.58-.63 5.878-5.863 5-9.815 5.58-10.31 1.553-14.11 3.272-26.017 8.524-18.142 5.932-35.883 10.8-46.702-6.1zm136.674 5.512c-8.542-2.09-15.978-5.367-24.877-6.876-8.815-1.433-12.835-5.975-11.313-12.164 1.58-6.43 10.383-7.205 23.71.72 14.776 8.785 25.442 10.835 30.773 7.402 10.785-6.945 4.803-17.987-5.59-20.714-7.804-2.076-2.114-5.16 6.277-2.762 13.55 4.96 14.107 29.31.286 34.52-4.623 1.743-12.8 1.376-19.264-.124zm-119.798-79.295c9.844-6.227 19.356-11.8 22.725-15.5 1.767-1.936 6.67-8.424 2.83-6.417-20.077 12.35-43.655 2.54-60.75-5.57-8.207-3.723-6.18-2.057-12.445-1.57-4.25.33-7.653 1.26-8.448-1.767-.35-1.336-2.723-.75-4.247-.882-6.288-.55-2.41-8.898 10.684-18.198 15.443-10.967 28.942-18.164 42.388-21.22 13.966-3.175 28.26-1.626 38.843 8.325 4.066 3.823 3.74 6.406 7.4 4 8.33-5.514 8.482 1.68 1.48 8.415-4.81 4.626-3.018 5.848 2.974 10.132 2.86 2.046.557 4.048-.994 7.1-.58 1.855-.085 3.88-.356 5.283-1.254 6.514-30.633 29.816-41.32 33.858-7.365 1.456-3.557-4.14-.755-5.98zm20.1-42.438l-4.92.12c-5.41 17.137-15.686 23.072-24.517 2.694l-3.915.438c.018 17.342 30.013 27.9 33.353-3.253zm-32.18 16.373c-2.07-3.378-4.438-11.156-6.562-11.245-5.78-.18-13.754.948-11.82 4.5 3.046 5.626 20.78 10.66 18.383 6.746zm39.562-3.485c5.29-3.26 6.4-5.482 2.887-8.962-4.538-4.494-6.854-2.15-8.182 5.124-1.14 6.25-.255 7.26 5.295 3.84zm-72.343-11.206c35.497-16.514 49.004-18.747 63.544-14.92 3.367.886 6.362 2.727 8.238 2.594 6.935-.49 2.422-8.205-10.086-12.513-14.285-4.92-23.284-2.512-50.476 12.028-15.922 8.514-28.795 20.986-11.22 12.8zm103.182-20.7c-.518-.96-2.75-7.347-3.39-9.682s-1.22-4.744-1.887-4.748c-16.524 2.824-31.112-.103-35.034-.99-25.102-5.685-49.278-4.207-67.256 3.054-4.392 1.774-9.83 4.627-10.35 5.123-1.414 1.348-3.54-.143-3.547-1.807-.01-1.953 10.976-10.833 17.924-14.366 21.13-10.745 43.533-12.792 68.228-6.45 16.107 5.96 26.436 4.853 36.64.257 5.01-2.256 1.5 3.226-.014 10.464-1.048 5.014.21 9.28.45 12.105.705 6.822-.034 10.253-1.766 7.04zM1146.64 1483.92l-6.277-565.396c-93.096 70.173-269.82 144.253-269.82 144.253 22.86 45.23-25.957 84.694-54.716 38.827-28.707 32.908-67.484 147.48-68.482 185.4l117.285 200.057zM627.583 1303.49c2.265-28.416 7.81-76.608 26.12-132.825 7.68-23.58 16.962-50.648 30.23-74.928 5.308-8.495 5.647-11.763-.077-8.664-3.602 1.95-19.94 20.76-22.14 25.487-24.786 53.74-35.817 118.1-44.56 167.24-1.983 11.046-2.453 24.758-2.453 24.758zm18.54-2.537c5.273-69.027 29.654-162.413 67.163-223.52 3.525-5.822 7.892-10.888 7.7-12.888-.564-5.895-15.15 4.466-26.365 22-12.45 25.35-24.913 52.383-34.344 82.266-13.313 42.182-22.94 81.12-26.275 133.856zm36.63-6.166c3.386-39.78 15.337-76.374 25.288-113 12.17-44.8 28.7-77.854 48.082-107.668 6.213-9.562 13.57-18.53 20.558-27.66.892-1.097 1.78-3.064 1.564-3.88-4.56-.744-8.166.706-11.663 2.712-4.884 2.802-11.72 9.8-15.698 14.995-27.663 36.04-42.3 77.916-55.842 120.212-13.006 40.62-22.266 79.648-23.756 116.315zm-252.364-27.662c5.64-.503 9.286.518 10.907-.998 1.61-1.505 1.035-5.5 1.5-10.62.973-10.948-.155-10.336-6.92-3.195-11.203 11.824-31.83 16.563-44.2 9.628-6.246-3.5-10.588-5.923-11.14-2.95-.644 3.468.328 6.106 3.003 7.925 14.976 6.617 29.07 1.798 46.87.21zm-13.413-8.23c7.82-2.69 15.75-6.96 20.166-13.395 4.214-6.142 4.133-7.012.905-5.817-15.865 8.006-26.3 12.103-40.58 10.098-19.338-2.716-20.11-.25-7.262 7.585 8.407 5.126 15.336 5.203 26.772 1.53zm-28.613-24.122c2.967-2.233 3.63-11.205 1.217-11.69-2.444-.49-5.948 4-6.78 7.632-.922 4.818 2.663 6.008 5.562 4.056zm29.883-.717l5.127-.52c-2.873-22.45-27.335-23.15-31.56 2.6l3.88.533c4.82-20.545 19.61-20.146 22.555-2.614zm16.08-3.8c7.435-4.245 4.79-9.375-5.32-11.235-6.64-1.48-6.214 3.922-2.7 11.214 1.746 3.623 2.932 2.927 8.02.02zm-57.89-26.912c-.094-2.503-1.166-6.532-2.384-8.954-8.815-17.53-13.806-38.297-13.115-64.184.495-18.557.664-24.295-3.2-24.276-5.367 2.65-8.172 37.198-.984 65.858 5.07 20.222 20.192 45.222 19.682 31.555zm-.522-28.087c-.633-9.685 1.262-31.427.145-36.154-1.47-6.214-5.227-11.797-7.33-13.272-3.263-2.29-4.023 2.177-2.774 13.808 2.93 27.287 7.557 47.922 9.96 35.62zm2.175-49.754c2.09-3.854 1.21-7.91-3.583-16.993-18.883-35.777-21.554-60.342-2.346-69.49 2.15-1.024 3.51-1.23 4.942-2.042 6.052-3.436 3.665-9.522-5.412-6.898-25.075 7.25-29.774 30.8-8.09 74.04 11.04 21.574 12.75 24.6 14.487 21.383zm4.352-20.455c.313-1.514.9-7.4 1.137-8.605.238-1.21-2.334-4.644-5.135-11.554-7.31-18.04-7.543-25.555.134-30.892 2.492-1.494 5.078-1.596 5.448-3.3.577-2.636.484-6.957-1.11-8.19-11.092.202-16.146 6.713-18.02 12.877-2.823 9.746.4 23.94 9.296 41.474 4.28 5.45 6.6 15.48 8.252 8.18zm8.22-23.54c5.8-12.014 0-27.433-8.106-22.062-5.258 3.484-5.487 7.11-2.127 17.022 4.093 12.072 6.444 12.89 10.233 5.04zm20.45-32.196c2.35-2.372.204-5.717-4.332-18.868-3.885-11.264-2.25-19.01 4.886-21.32 10.244-2.64 14.063 14.076 16.302 21.12 1.176 5.44 4.787 6.907 7.933 3.08.88-1.073 1.128-1.958-.457-7.893-6.918-25.905-15.68-34.075-29.57-27.448-12.876 6.144-11.028 19.544-1.333 47.658 1.297 3.76 2.165 6.553 3.075 6.935.745.313 2.192-1.945 3.495-3.26zm11.366-8.95c3.033-3.062 2.867-1.692-.764-12.493-4.14-12.314-6.273-14.868-10.527-10.572-2.613 2.64-1.247 5.493 1.88 15.573 3.634 11.71 4.578 12.37 9.4 7.492zm536.064-48.272c20.27-14.278 11.567-39.406-15.42-48.46-3.186-1.07-6.695-2.364-7.797-2.878-12.417-5.79-22.047-7.515-22.025-2.88.013 2.72 3.738 4.055 15.643 9.678 17.612 8.318 21.678 18.107 13.17 30.604-6.132 9.007 5.655 19.112 16.43 13.935zm18.192-30.9c1.694-7.23 4.26-13.446 5.477-17.662 1.66-6.597-.557-5.043-4.912-3.97-11.196 5.95-19.286 2.875-13.727 10.824 6.2 10.6 11.3 18.76 13.16 10.807zm-1.676-25.193c13.937-8.535 16.805-30.402 3.633-40.66-3.15-2.454-8.586-5.674-15.154-7.592-13.33-3.893-32.528-5.515-39.535-3.313-1.49 1.793-1.52 4.585.002 5.38 1.966.703 5.508 1.143 10.622 1.604 19.547 1.762 29.243 7.45 28.46 21.28-.806 14.25-12.162 19.85-32.822 15.577-11.1-2.297-16.26-1.072-11.782 1.465 5.317 3.014 16.74 6.922 27.966 8.997 9.6 1.573 20.534 2.095 28.61-2.737zm-67.382-2.846c15.4-35.517 22.69-128.314-68.294-194.325l3.19 18.5c53.684 45.865 67.1 104.883 56.7 159.272zm79.863-64.257c-5.607 3.715-10.3 7.56-17.508 10.868-4.32 1.987-4.425 2.462 1.5 5.606 2.87 1.52 7.603 4.322 9.423 6.238 3.16 3.324 6.856 4.57 8.22 3.335-.205-5.258 1.407-22.67-1.646-26.046zm-26.632 6.997c18.213-5.96 27.896-14.837 25.65-29.483-3.295-21.485-21.397-25.834-55.112-17.048-16.218 4.226-17.586 11.856-2.193 7.76 19.437-5.173 34.82 2.148 32.91 16.397-1.072 12.287-10.89 19.545-28.27 19.74-9.177.102-12.004.95-10.725 4.234.867 2.228 30.235.86 37.74-1.597zm-30.745-50.786c29.765-10.54 43.48-26.564 36.46-44.27-8.27-20.847-34.35-20.768-60.333-.99-12.14 9.07-10.23 12.356 1.58 7.677 15.297-7.21 25.175-8.41 31.532-2.88 11.482 9.984 4.007 27.702-13.163 34.217-8.313 3.553-10.974 5.492-10.962 8 .02 3.954 1.532 2.984 14.886-1.745zm50.398-.887c.702-6.203-6.56-27.614-9.54-22.634-.79 1.32-3.512 7.418-7.003 10.607-10.176 9.295-8.273 5.797 1.966 8.492 5.69 1.498 13.75 5.392 14.575 3.535zm-79.534-45.042c30.014-17.787 41.265-42.823 25.428-59.204-14.238-14.728-37.467-5.804-58.834 21.496-9.796 12.516-2.35 10.875 10.91-1.074 15.447-13.918 35.363-7.504 35.446 9.656.035 7.328-10.23 19.77-20.002 25.606-3.034 1.812-3.45 4.544-2.35 6.305 1.188 1.9 3.623.64 9.4-2.784zm52.748-18.793c-1.628-4.672-13.218-24.68-15.65-23.963-2.52 5.19-2.634 11.986-5.665 17.493-4.118 8.278-3.6 6.98 9.814 6.8 9.985-.142 11.208 1.238 11.5-.32zm-89.034-21.776c25.085-26.535 26.986-57.3 3.128-64.11-13.212-3.772-34.165 5.953-34.117 15.755.03 6.103 1.188 7.198 6.5 4.948 22.333-8.565 40.347 12.732 20.02 37.666-4.933 7.2-5.584 9.012-4.107 10.475 1.728 1.712 3.112 1.048 8.576-4.732zm270.85-227.527l-7.725-695.824-148.516 1.65L863.42 1.9l.328 45.467c.01 1.57 2.708 2.517 4.42.522 6.646-5.24 4.12.212-3.46 11.998-7.663 11.915-5.17 21.636 3.494 34.17 18.364 26.567 28.328 75.6 20.928 101.663-2.794 9.84-3.396 13.808-1.44 19.275 2.235 6.25 3.605 9.587 9.92 13.56 5.496 3.728 50.554 20.67 123.342 66.194l-3.983-326.904 45.054-44.017 48.615 45.347 7.677 539.693c.08 5.706 11.294 8.18 17.273 2.2zm-32.052-540.27l-40.695-36.95-39.41 37.283 6.968 536.595 39.603 2.396s2.814-8.263-1.127-29.5c-5.914-31.868-6-70.868 2.273-130.277 5.163-36.45-.716-67.94-9.526-101.072-7.573-22.057-8.062-42.54-6.95-62.363 2.465-31.6 10.92-55.552 11.482-100.998.32-25.906-1.2-51.252-.607-83.2.344-4.286 2.163-3.778 2.534.636l3.54 84.588c-.46 36.73-9.048 74.617-9.663 108.24-.485 23.293-.773 31.35 9.404 59.6 15.994 44.383 6.554 112.942 6.385 114.16-6.08 43.924-10.246 100.075 12.398 141.794l21.512 1.675zM830.104 305.52c11.825-5.576 14.07-15.214 7.413-38.292l-3.014-10.882c-1.434-5.7-4.018-6.297-7.405-1.714-2.023 2.737-.122 3.348 3.174 16.04 4.982 19.186 2.282 25.58-4.893 25.614-6.36.03-11.37-5.14-13.326-17.603-.668-4.256-1.606-7.152-2.657-8.846-1.76-2.84-3.837-2.3-5.48.876-2.127 4.11 2.142 20.9 7.656 29 5.974 8.163 10.045 9.807 18.53 5.806zm-3.428-17.24c2.477-4.767-.786-16.393-2.51-24.01-1.556-4.245-3.284-5.266-6.103-4.543-4.2 1.076-3.945 5.667-2.336 13.213 3.276 15.367 4.977 17.293 10.95 15.34zm35.817-28.19c13.51-7.878 14.66-21.22 5.258-45.36-3.855-9.898-8.598-16.84-11.17-16.888-.938 6.333-1.834 9.713-.68 12.182 1.088 2.292 2.912 5.797 4.22 8.732 7.934 17.795 5.966 28.125-1.444 33.796-6.917 5.294-2.455 9.63 3.815 7.54zm-445.118-4.378c31.817-7.155 60.012-58.57 77.62-104.334 15.993-46.09 32.975-96.72 35.286-138.813 0 0-12.055.7-13.508 3.19-1.338 2.462-1.878 7.747-3.075 15.275-7.886 38.787-14.167 68.245-28.268 104.775-9.79 25.358-20.46 54.056-47.302 92.744-8.84 10.827-19.015 17.59-31.872 19.523-3.273.492-8.8-.058-10.178.935-2.424 1.747-.177 5.623 6.142 7.125 5.663 1.347 11.387.364 15.154-.42zm439.35-10.853c4.81-5.212 5.22-11.345-.38-24.24-1.57-3.613-2.294-5.664-4.105-5.14-3.834 1.112-8.212 11.24-5.462 19.74 3.585 11.078 5.64 14.306 9.947 9.638zM406.1 241.75c9.33-1.346 21.08-8.88 29.5-20.583 17.32-23.1 29.155-49.312 37.922-69.68 7.02-16.4 19.63-51.806 23.02-64.612 7.2-27.202 11.113-44.746 14.316-64.197.294-1.788.56-4.642.018-5.56-3.712-.967-11.815-.275-14.278 2.24-4.132 31.186-14.194 62.537-21.514 88.583-12.34 44.307-48.134 115.362-68.037 118.916-10.704 1.91-23.094-7.244-21.224-16.8 1.148-5.867 1.928-8.106 4.79-9.604 6.924-2.514 11.022 2.155 3.43 5.32-8.75 7.753 7.285 19.282 16.958 10.997 16.403-14.05-8.217-40.334-27.99-27.91-21.908 13.766-15.98 37.12-1.986 48.096 7.057 5.534 15.167 6.233 25.076 4.795zm155.846-33.44c13.474-14.09 23.508-32.252 30.703-54.9 15.572-50.852 28.303-109.088 32.647-154.648 0 0-11.654-1.067-14.217 1.414-1.8 1.752-.042 3.38-4.625 36.7-7.773 48.57-19.36 96.85-36.433 138.722-6.998 16.932-9.013 19.02-13.99 27.83-6.944 12.44-4.286 15.56 5.914 4.893zM863.113 99.315c-1.27-.638-1.157-.212-1.69.164-1.844 1.3-.558 7.763 3.77 17.71 11.308 17.75 12.99 52.42 12.412 65.465-.18 3.917-.56 6.166.67 9.635 1.218 3.4 3.33 7.344 6.586.657 3.368-25.723.2-52.577-9.92-74.24-3.57-7.705-7.06-15.232-11.83-19.39zm9.396 75.637c1.87-6.93-2.03-34.294-6.598-43.873-1.84-3.862-5.094-4.126-4.655.28.14 9.494-.687 27.563.397 32.898 4.977 11.11 8.837 18.176 10.856 10.694zM846.125 64.53l-5.244.064c.38 17.92-15.51 23.077-21.63 1.62l-4.708 1.142c6.613 30.306 34.82 16.064 31.583-2.826zm-31.728 13.864c-2.813-7.922-1.718-10.84-8.59-7.19-5.25 2.8-8.383 5.734-.908 9.22 6.647 2.72 11.278 2.98 9.5-2.03zm39.9-5.022c2.14-4.435 1.835-8.412-1.464-8.396-2.546.012-3.23 2.042-3.905 6.33-1.205 7.658 2.008 9.032 5.37 2.066zm2.443-29.808c2.014-.663 1.408-3.495.825-7.098-8.774-11.877-30.113-7.974-37.765-5.51-8.836 2.965-11.07 1.922-17.137-.767-4.998-.868-5.686.348-6.872 2.735-1.044 2.102-1.2 6.08-1.46 13.005-.228 5.852.012 8.568 2.033 6.718 7.836-7.17 16.898-16.122 30.26-16.82 16.194-.847 30.127 8 30.115 7.737zm-58.675 16.862c.012 2.413 2.06.886 7.297-2.47 19.058-11.573 30.2-10.09 46.676-4.855 3.67 1.165 5.892-2.675 1.892-5.878-19.686-15.764-43.6-5.3-55.864 13.204zM866.76-13.95L968.934-186.69l-579.86 6.014L489.554.402C569.637-19.014 701.533-44.134 866.76-13.95z" fill="#131f67"/>
        <path d="M367.414 1334.014c12.08-18.403 73.262 13.467 76.622 26.324 35.682-28.65 79.368-31.194 114.935 3.78 35.73-39.82 74.475-37.554 115.006-15.17-4.6-8.854 50.963-48.806 85.275-24.19l93.86 162.425-589.646 8.44c34.253-52.52 64.42-115.126 103.948-161.606zM100.38 484.384c-3.3-8.812-17.245-99.464 15.548-102.094 53.322 22.863 121.98 106.005 153.933 156.923 39.595 63.096 80.51 208.743 58.742 202.604-3.144-.887 67.738 68.318 72.648 75.103 8.067 11.148-115.733 221.983-136.65 214.7-6.323-2.2-48.602-26.736-48.602-26.736l.428-69.893s64.56-130.664 67.736-174.12c1.2-16.422-45.9-43.98-48.114-49.627-5.5-14.064-5.44-66.548-32.962-89.16-15.13-8.952-29.3-5.884-44.523-3.777-62.002-9.615-31.1-113.966-58.183-133.922zm1035.548 35.152l.658 25.774c-40.647 9.31-113.044-24.305-134.23 31.376 3.37 59.848 17.12 86.55 26.713 104.528 7.242 16.164 56.586-2.917 74.22 13.27 50.75 60.9 39.844 142.86 41.103 216.588l-21.603 11.182c-151.094-86.62-269.41-359.594-286.248-437.497C834.964 434.644 971.916 272 971.916 272c.31-.353 50.886 29.934 50.886 29.934 1.22.472 1.28 211.43 1.278 210.454 39.694 1.595 78.194 5.03 111.85 7.138zM828.814 330.128c-75.794 110.985-100.018 275.867-93.793 390.62 11.886 171.3 136.07 322.757 128.04 337.29-1.402-.988-4.618.75-5.86-.327-28.488-24.707-48.146-20.106-62.576-20.173-27.58-.128-35.113 8.158-50.916 9.897-40.358 4.443-37.067 5.428-71.48-7.066-43.64-34.686-101.86-61.01-148.114-74.68-36.916 3.728-93.07 21.763-114.534 7.9C554.78 699.14 530.638 524.746 374 240.51c12.765 3.6 14.875 15.424 24.432 18.24 31.678 11.8 75.1 6.71 101.013-4.912 28.14-13.016 55.048 5.286 54.68 4.675 56.125 38.59 123.79 63.14 159.06 80.233 10.425 5.22 23.43-3.348 34.85-5.786 23.397-4.995 43.38-15.222 60.943-9.558 5.634 1.817 14.03 4.024 19.825 6.725zM478.807-23.03l-86.51-159.498 574.155-2.925-84.565 142.23c-8.044 7.76-48.268 29.583-90.075-18.358-.698 6.963-60.686 50.646-113.237-.572C647.6-33.46 615.9-16.683 562.908-48.007c-1.07 8.91-41.673 49.28-84.1 24.976z" fill="#e2cf00"/>
        <path d="M556.995 1360.864c-56.204-51.395-113.6-3.802-112.23-.846-22.263-22.08-43.996-40.12-72.92-30.82 0 0-.083-7.832.132-8.012 86.7 14.845 219.267 17.47 373.817-16.603l8.136 16.51c-41.71-14.274-62.9 5.842-81.053 29.256-67.14-40.782-83.003-4.174-115.883 10.516zm123.022-606.38l39.346-1.205c8.68 114.223 106.24 288.066 108.54 288.04-6.762-9.16-69.807-1.177-69.328-.017-35.736-92.098-74.874-184.07-78.557-286.82zm-226.51 273.708s-13.023-32.626-20.757-46.56c40.533-70.924 73.615-144.233 90.1-225.528l28.144-.062c-7.095 112.06-94.935 283.1-97.487 272.15zm506.09-20.613c60.743-112.386 48.26-273.266-128.574-360.29 0 0 3.273-118.062 16.346-118.477 2.96.882 79.58-1.868 79.58-1.868 19.532-49.437 51.184-109.314 95.887-150.005l2.595 131.9c-33.377 3.662-53.637 14.537-63.47 40.75L915.78 560.4c4.873 132.476 56.16 254.36 205.45 362.684-35.046 30.764-155.305 93.766-154.854 92.68zm-742.86-75.02l-.21-137.378c22.4-5.096 40.17 1.2 58.264-39.19l41.673 19.727c-28.503 52.294-52.993 108.11-99.728 156.84zM508.83 686.085l.75-69.753 66.315 1.173c-5.365 23.71-6.862 47.375.92 70.94zm151.234-2.524c4.274-22.87 7.252-45.854-2.407-69.96l71.797.424-.92 69.473zM522.036 548.7C508.576 412.063 413.02 258.3 411.74 261.598c11.075 1.646 30.605 6.9 41.267 1.713 12.997 2.007 24.217.416 24.818-.79.812-4.793 89.436 197.627 78.88 285.488-1.34 2.982-31.824 3.52-34.67.7zm165.93-.643c9.428-63.3 34.294-179.175 95-273.594 7.205 16.565 13.285 33.613 23.09 49.06-45.812 68.18-73.645 145.836-90.178 224.978zm-429.61-29.296C229.46 461.51 110.908 372.177 117.022 381.27c48.174-44.107 102.136-72.38 155.995-100.932 0 0 9.73 9.023 8.297 11.337-32.72 52.797-47.633 164.053-14.682 227.355 31.74 67.655 87.154 107.24 143.544 138.178-3.864 42.565-5.64 73.317-15.64 115.702 0 0-35.42-18.106-64.4-29.693-5.482-80.23-22.914-151.857-71.77-224.444zM563.414-48.86c41.71 24.77 78.786 21.698 114.38-12.94 45.614 40.432 94.238 20.825 114.672 2.143 19.335 21.28 44.35 32.926 80.655 25.42l-8.803 18.996C866.36-25.304 613.08-38.884 491.004-3.277c0 0-7.317-14.178-6.522-14.308 10.65-.764 46.268 11.967 78.932-31.275z" fill="#d40000"/>
        <path d="M-79.87-285.723l.214 19.25 18.488-1.205 1.845 166.146-19.998.316.22 19.75 55.497-.616-.22-19.75-14.5.16-.53-47.778 23.868-31.767 32.66 78.924-20 .222.22 19.75 60.746-.674-.22-19.75-16.843.187-43.53-101.054L40.73-268.81l13.593-.15-.203-18.25-58.496.65.203 18.25 18.374-.204-53.49 79.943-.88-79.34 14.5-.16-.203-18.25zm463.688 98.75L488.237 2.27l4.5-.894c141.5-29.26 253.756-34.295 374.613-14.44l105.265-178.43c-195.183-.052-588.787 4.52-588.787 4.52zm11.495 7.983l568.91-5.69-31.416 52.8c-19.23-5.693-29.814 3.204-32.294 21.58 0 0-2.38-.994-6.83-1.424-28.07-2.716-31.2 34.235-4.98 38.4 6.695 1.064 7.8-.274 7.8-.274-23.128 19.854-36.535 6.78-47.592.435-.272 2.29-20.726 18.003-40.38-.302 27.885 2.47 31.9-25.465 18.477-35.926-2.816-2.705-5.68-4.812-5.68-4.812 6.49-5.777 7.835-13.376 3.537-22.01-8.64-17.362-35.102-16.05-38.937 3.057-1.492 7.434-1.528 8.736-1.528 8.736-21.363 1.632-25.482 21.844-18 32.952 4.247 6.314 13.447 7.592 21.924 7.07-11.252 16.306-37.476 11.1-49.276-2.11-18.277 21.947-39.4 19.535-50.07 7.994 7.154-.156 12.085-.315 18.586-6.457 11.117-10.503 5.394-28.847-10.532-33.823-3.1-.965-5.31-1.146-5.482-1.158.11-.16.4-1.18 1.02-6.73 3.592-32.143-44.5-28.437-39.5 3.095.58 3.654 1.594 5.608 1.594 5.608s-5.11-.228-8.02 1.152c-26.6 12.61-7.8 46.312 12.76 37.36 1.95-.85 7.25-3.525 8.024-3.496-25.23 31.98-46.955 9.75-52.65 6.366-16.993 25.8-47.195 8.663-47.833 6.875 1.875.498 7.488-.724 12.806-3.517 16.81-8.994 11.776-31.604-1.467-36.392-4.056-1.364-8.937-1.458-14.418-.965 0 0 .354-5.71-.21-7.717-8.655-30.77-46.898-14.935-37.16 11.038.854 2.278 3.113 4.56 3.113 4.56s-5.173 3.22-7.472 5.333c-18.156 16.7.808 43.68 22.108 32.132 2.75-1.49 5.396-4.588 6.17-4.413-9.875 18.515-25.098 25.1-47.078 10.117-13.216 21.46-35.265 12.85-41.57 2.243 20.528 1.65 33.412-37.783-6.023-38.623-3.184-10.634-3.21-26.9-28.172-23.814zM262.45-154.61C241.678-97.634 181.835-45.614 147.554 18.678 108.743 83.8 121.9 149.816 175.82 160.654c28.27 5.68 64.76-21.842 67.718-51.067.604-5.97 2.767-9.14 6.78-8.7 3.132.344 2.927 8.04 1.848 17.293-3.983 30.396-19.897 78.74-40.942 101.18l98.995-1.037c-4.003-2.203-41.475-47.97-38.5-104.016-.048-10.016-.09-13.34 4.352-13.362 3.564-.017 3.62 1.632 4.784 11.448 7.36 62.097 84.734 67.984 108.348 8.266 11.92-30.14-1.513-83.388-34.337-128.69-24.99-39.902-67.274-86.15-92.414-146.577zm47.768 372.93c.217.12.365.137.375-.004zm363.67-332.995c4.515-.05 8.196 3.58 8.247 8.096s-3.55 8.227-8.065 8.278a8.2 8.2 0 0 1-8.278-8.096 8.2 8.2 0 0 1 8.096-8.278zm127.128-.443c4.784-.053 8.698 3.807 8.752 8.59s-3.776 8.7-8.56 8.752-8.698-3.776-8.752-8.56 3.776-8.73 8.56-8.783zm-249.067 12.235a8.34 8.34 0 0 1 8.436 8.251c.05 4.613-3.637 8.416-8.25 8.467s-8.416-3.67-8.467-8.282 3.67-8.385 8.282-8.436zm357.06 6.318L901.903-83.6c-8.074-6.92-2.663-16.172 7.107-12.955zM452.735-73.747L445.38-86.98c12.913.727 9.21 10.007 7.354 13.232zm220.437-9.698c49.44 55.086 93.044 38.145 121.267.84 12.63 31.388 40.24 52.88 87.1 31.16-2.793 5.072-9.845 14.048-9.845 14.048-41.497 11.673-62.372-7.684-78.64-26.16-41.953 35.622-81.92 27.543-115.166-3.097-27.7 35.665-73.08 43.767-115.493 15.377-18.928 28.613-46.405 40.388-81.273 26.56l-8.136-12.223c5.074 4.164 69.294 29.99 84.2-34 22.673 37.517 95.653 38.71 115.993-12.507zm5.16 22.82c55.5 50.744 112.63 5.697 114.067 2.546.894 2.845 32.655 39.924 77.693 25.358l-7.204 12.675c-85.2-13.443-163.527-21.817-342.386 6.52 0 0 28.5-8.786 42.713-31.757 8.11 5.14 70.643 39.14 115.118-15.34zm-694.17 22.27c-4.864 12.16-12.894 24.768-19.6 36.032-31.586 50.22-33.362 55.025-35.727 72.65-6.768 34.528 34.064 48.017 46.773 24.357 5.7-10 9.432-3.574 6.94 5.86-1.472 16.542-18.08 35.874-18.138 35.516l49.282-.172S-7.686 114.595-7.55 97.31c-.06-7.9 4.143-8.175 9.363-1.135C16.745 116.314 43.985 99.68 43.845 70.8 43.76 53.108 38.282 43.244 5.73-4.03-1.365-14.377-9.205-27.414-15.84-38.356zM486.316-15.93l25.816 2.995c2.116 1.604-20.042 7.953-20.137 7.505zm51.186 244.478c-1.447.064-3.234 1.7-6.198 4.694-6.413 6.455-7.877 7.3-14.16 8.283-4.737.734-14.693 6.61-20.71 12.23-1.626 1.52-4.75 2.807-8.493 3.5l-9.95 1.83c-2.218.405-4.626 1.135-5.358 1.59-3.17 1.98-8.364 2.335-14.208 1.002-5.637-1.286-6.537-1.24-12.71.735-8.995 2.88-14.902 2.95-19.374.215s-11.537-3.693-15.994-2.198c-6.593 2.21-23.845-7.858-23.875-13.923-.005-1.376-9.835-8.563-12.283-8.552-8.7-1.19-84.69 29.79-84.28 31.53 95.003 114.7 175.85 290.186 118.82 506.65l-10.555-4.914c8.387-39.325 11.442-78.842 13.71-118.972-176.75-74-193.853-250.425-126.815-362.677l-11.73-12.214C232.212 299.896 190.3 312.897 89 399.82l4.762 386.72c37.053 3.687 77.847 6.582 118.083 9.596l.48 172.724c-.323 41.08 1.177 38.49 1.177 38.49l133.896 68.705c-9.766-36.865 13.16-51.802 32.504-50.48-8.94-35.545 12.085-52.096 36.347-47.79 16.388 2.91 22.212 11.862 31.9 41.555l3.738 11.28 9.327-.448c11.398-25.208 18.846-57.205 46.278-61.648 35.9-5.814 49.567 18.745 49.825 43.45 34.504-31.1 76.506-7.79 74.302 38.108 17.407-11.464 47-21.982 66.198 21.268 7.02-1.56 10.518-9.44 20.388-12.006 3.692-.814 12.034-5.415 12.034-5.415l.087-1.507s7.75-2.778 18.16-4.603c8.986 3.24 6.375 3.154 11.13-2.847 5.34-2.812 14.033-4.724 20.762-4.195 7.053.553 10.194 1.027 14.304-.815 6.4-2.88 12.4-3.663 16.257.538 2.77 3.017 6.7 1.503 10.953 1.285 8.5-.436 19.845 2.928 23.462 10.52 5.264 5.25 16.71 10.503 16.71 10.503l9.195-2.227 1.025-3.418 75.082-29.617c-155.62-166.646-154.092-390.033-119.128-503.5l13.98 6.533c-7.004 33.588-14.99 68.093-13.347 118.03 139.14 60.195 209.796 218.993 127.402 359.202l9.002 11.37c34.757-15.045 122.047-65.337 152.108-92.476l6.474.46s18.277-12.124 26.327-18.575l-3-369.614-6.418 1.76-1.396-21.58-114.25-7.795c1.44-1.1 2.528-1.555 2.834-3.72l-2.928-204.605c-4.31-6.437-100.54-61.378-136.237-74.086-1.424.007-.418 2.402.154 8.25 1.97 20.05-11.383 38.065-27.077 38.272-5.65.075-6.6 2.486-6.19 14.007.58 16.383-5.22 27.458-22.407 33.876-20.375 7.608-34.34-2.94-46.19-44.896-3.112-11.02-8.928-8.2-14.36 6.972-2.697 7.526-11.495 25.818-16.764 35.47-4.06 7.416-10.572 10.76-19.43 14.78-6.903 3.5-21.933 3.082-30.64-1.222-15.785-7.802-21.98-17.31-26.77-40.987-.626-3.094-2.66-2.804-7.707 1.086-27.483 21.19-66.7.034-66.873-36.072-.052-10.6-.49-11.018-6.66-5.864-18.624 15.556-44.25 8.056-54.744-16.018-2.456-5.636-3.76-8.145-5.62-8.063zm-159.16 14.58c1.958-.108 8.15 7.94 8.15 7.94 5.697 6.162 13.295 9.23 21.217 13.765.72-1.107 93.107 120.05 110.458 288.323l42.344-.25c-9.713-163.586-55.727-241.752-76.997-292.007l15.133-4.98c34.778 64.868 77.756 196.832 77.665 312.782l-69.933.776c-11.162-116.012-57.574-228.73-121.68-313.918-4.47-6.55-7.964-11.112-6.7-12.3.1-.084.212-.122.342-.13zm-26.588 17.578l7.34 22.17s.794-5.2 2.952-7.19c13.68-12.606 27.084 3.64 21.102 25.955l-3.96 20.39s-13.963-6.967-20.978-9.174c-19.36-7.97-25.96-24.037-11.258-26.033 2.462-.334 7.525-.615 7.525-.615l-19.8-15.594zm64.71 1.782c5.857 3.238 20.917 6.636 29.507 3.298 6.943-2.698 12.265-1.32 19.524-.78 4.162.31 12.42-1.607 12.42-1.607 42.37 86.638 71.993 189.665 77.784 284.123l-32.558.55c-13.407-100.265-53.4-201.825-103.55-276.93-2.22-3.272-5.178-8.507-3.127-8.653zm136.04-.01c12.608.01 25.938 12.432 33.336 32.913 4.12 11.406 5.67 10.695 11.004 8.785 13.702-4.864 28.514 10.073 10.11 12.795-18.06 3.2-7.34 38.467-8.85 41.6-7.317 1.363-21.428-28.564-21.168-37.517.638-21.946-20.172-40.06-32.874-30.7-6.02 4.435-5.325 7.508-7.216 5.955-5.817-4.776-7.132-18.108-.473-25.746 4.813-5.52 10.4-8.09 16.13-8.086zm374.623 3.404s1.033 28.84.016 35.22c-1.935 19.253-27.032 21.555-28.183 6.188-4.035 6.2-6.77 13.864-8.333 20.75l-17.947-12.05c6.71-4.93 13.113-9.263 18.05-15.326-13.195 1.147-20.7-10.2-11.973-20.025 9.688-11.25 36.815-12.753 48.37-14.757zm-654.796 16.395l7.973 8.787c-68.803 125.18-42.29 283.93 128.036 365.6-.697 38.18-5.157 76.836-13.874 112.755l-62.833-29.617c-1.14-140.658-82.27-273.864-210.39-360.593 45.723-37.58 96.4-70.707 151.09-96.933zm511.73-4.62c3.162 16.4 19.044 45.963 20.15 44.248-.174-.975-63.8 83.405-90.304 223.64l-23.966.36c14.677-93.41 45.054-181.737 94.122-268.25zm199 1.697l12.835 7.577c-66.274 56.75-109.536 128.245-141.044 205.172l-16.994-7.812c48.933-111.63 97.952-161.508 145.203-204.937zm17.98 12.207c3.502.184 7.705 4.57 14.184 8.03 6.335 3.383 4.788 5.237-6.965 14.453-13.9 10.9-15.224 10.44-15.274-4.893-.033-10.17 2.46-16.982 7.368-17.552.228-.026.454-.05.687-.04zm-15.23 15.983c.736-.047 1.334.19 1.728.793 1.07 4.045 1.068 13.345-.47 22.538-1.258 6.055-19.067 21.43-25.415 27.503-2.55 1.717-3.734 1.113-4.24-1.89.15-4.766.54-11.114.555-17.57.003-1.988-.437-4.066 1.344-5.61 8.695-10.497 21.354-25.433 26.497-25.764zm33.46 4.566c.108.003.177.017.25.06 1.67.978 1.63 21.828.476 23.215-5.2 1.406-19.252-.648-22.873-2.527-.814-2.413 18.783-20.847 22.146-20.747zM392.73 325.818l5.102 20.382s1.366-2.756 1.713-3.3c9.522-14.92 21.404-6.368 21.44 14.2.01 6.497-5.608 32.533-5.608 32.533s-36.552-17.06-39.495-24.688c-2.896-7.507 1.024-14.185 7.7-14.868 2.5-.314 5.122-.547 8-.09l-15.8-15.794zm416.317-1.903l16.567 5.9c-33.787 56.35-68.68 112.027-93.14 238.392l-69.152.768c8.816-77.158 27.575-153.12 61.73-227.23l21.175-6.892c0 0-55.703 131.414-61.423 215.57l33.412.348c16.914-82.133 49.336-167.424 90.83-226.866zM678.14 327.4c9.288-.45 16.215 6.01 15.82 17.607.001 10.602-.953 12.155-8.505 8-9.913-5.452-17.706-5.487-26.46.92-4.82 3.526-9.554 6.45-9.554 6.45s4.053-18.462 10.512-24.337c6.187-5.627 12.614-8.37 18.186-8.64zm-35.164 27.642c-.602 6.238-2.407 9.115-3.996 14.452 0 0 5.388-2.165 7.963-3.4 12.225-5.866 25.15 4.603 25.097 17.035.644 8.286-8.255 18.32-18.983 18.524-3.743.072-7.718-1.063-11.575-3.872 2.944 15.16 3.574 22.18-7.45 29.928-9.226 6.29-28.89-.565-27.978-17.565l.57-10.476-9.392 1.323c-26.26 1.368-27.077-30.963-5.934-36.28 8.444-2.096 17.7 4.74 17.7 4.74-4.115-7.883-4.348-21.526 1.003-27.888 13.17-15.658 34.437-1.792 32.964 13.48zm229.168-22.733c1.57 12.086 6.524 25.228 5.28 36.537-1.887 14.458-14.064 23.143-23.816 13.9-1.203-1.142-3.383-3.525-3.383-3.525-4.286 5.556-6.828 21.17-6.828 21.17l-17.147-10.3s11.734-8.432 14.948-13.198c.896-1.326 1.3-3.827 1.3-3.827-9.444 3.068-17.595-6.534-15.106-15.114 4.976-14.064 30.405-19.54 44.75-25.623zm119.12 7.428c6.373-.27 16.26 1.428 24.057 2.17 6.008.978 2.72 4.395-10.555 17.618-12.192 12.146-11.817 11.01-21.317 10.956-22.187-.128-26.068.414-13.31-13.666 6.686-7.378 12.52-14.04 17.35-16.537 1.027-.31 2.305-.48 3.775-.542zm-39.97 2.975a1.08 1.08 0 0 1 .722.305c1.484 1.354 1.058 7.615 1 16.865-.06 9.845.046 9.85-4.02 15.046-5.177 6.637-9.465 13.398-14.875 19.79-4.69 5.203-4.547 4.65-7.523-7.698-2.887-11.976-1.394-15.732 13.88-33.312 5.16-6.774 8.844-11.062 10.816-10.996zm69.353 6.074l.458 24.34c-45.277 45.268-75.822 95.955-96.353 151.673l-16.007-6.166c26.824-71.196 67.538-126.938 111.902-169.847zM624.023 367.91a13.68 13.68 0 0 0-13.535 13.839c.085 7.566 6.273 13.65 13.84 13.566s13.65-6.304 13.566-13.87-6.304-13.618-13.87-13.534zm-.046 4.313a9.48 9.48 0 0 1 9.573 9.363 9.48 9.48 0 0 1-9.363 9.573c-5.223.058-9.484-4.14-9.542-9.363s4.11-9.515 9.332-9.573zM115.5 383.65c143.8 90.02 209.397 231.314 210.467 353.3l-8.102-3.535c-10.27-172.288-105.145-277.232-207.183-344.7zm845.337-8.073c3.232-.024 7.636.43 14.013 1.094 11.827.5 13.285 1.23 5.244 10.66-2.202 2.583-6.423 7.98-9.398 12.043s-6.602 8.307-8.277 8.905c-2.475.885-23.235.136-29.165-.614-1.943-.246.582-2.253 10.533-16.805 7.626-11.154 8.408-14.827 15.738-15.238.416-.023.85-.043 1.312-.046zm59.517 4.027s3.706 78.54 2.2 128.67c-32.584-.843-51.577 11.732-59.27 35.223L928.9 526.94c24.4-64.76 57.467-110.004 91.464-147.337zm-100.786 2.932c1.85.007 2.95 3.825 3.564 11.367 2.304 13.482 2.085 15.057-3.455 23.8-2.758 4.348-6.54 10.485-8.38 13.656-3.207 5.533-5.512 7.195-6.356 4.54-4.62-14.522-6.126-23.526-4.575-26.482 2.547-4.86 14.507-22.26 16.197-24.525 1.173-1.57 2.163-2.35 3.005-2.346zm-814.465 10.51c115.563 69.786 200.874 190.215 205.97 336.797 0 0-24.587-11.208-39.78-19.435l-.94-14.24 7.965-.338 2.74 16.033 17.524-.757-5.1-40.04-27.407 2.898-5.783-22.656 8.292-1.873 4.756 14.604 17.8-4.917-9.896-35.61-27.477 7.837-9.08-24.026 9.12-3.383 7.566 14.354 16.715-6.03-16.24-35.634-25.21 12.25-13.134-23.23 9.847-5.39 8.123 13.817 15.596-8.3-19.77-32.72L213.4 546.76l-12.294-18 7.4-5.3 8.355 9.44 13.672-9.902-21.44-28.17-22.83 18.286-17.25-19.528 7.77-6.743 11.835 10.37 12.966-11.582-25.396-27.095-21.714 20.242-16.5-14.005 7.9-8.932 10.273 7.668 10.7-12.963-27.56-22.195-20.243 20.476-19.768-12.75-.107-9.656c6.4 2.388 13.175 5.176 19.25 8.318l9.985-15.487-29.53-19.455zm319.704 2.513l4.622 25.013c4.044-6.86 7.272-11.59 16.213-9.056 10.752 4.242 11.08 20.358 2.282 45.134-1.63 4.6-3.655 8.572-3.655 8.572s-4.713-1.894-7.857-4.007c-6.6-4.404-17.686-9.352-23.422-18.18-6.007-9.244-6.28-22.264 4.577-21.27 2.155-.01 6.417.96 6.417.96l-16.51-20.568zM98.952 406.647l20.016 12.59-4.04 7.545-15.828-6.918zm498.316.374c5.847 7.986-14.152 31.933 12.457 41.114 0 0 .712 5.453-4.777 8.835-12.86 9.573-31.676-7.433-26.094-25.212 3.57-11.37 14.103-24.624 18.414-24.737zm55.005.14s8.057 5.75 9.675 7.268c14.913 13.986 15.28 34.27 1.992 41.512-8.84 4.817-18.936 1.127-22.502-5.688-1.652-3.154.97-6.5 4.365-6.518 6.367-.03 11.092-12.282 9.066-25.102-.803-5.08-2.596-11.472-2.596-11.472zm174.167 2.785s1.95 17.322 4.56 24.982c7.99 21.472-1.765 34.7-16.32 27.652-2.08-1.008-5.782-5.655-5.782-5.655l-1.162 24.796-20.66-5.77c4.375-7.2 10.73-12.373 15.43-20.485l-5.782-.06c-12.296.56-16.983-13.024-4.21-24.392 9.517-8.394 33.924-21.065 33.924-21.065zm107.714 4.554c2.492-.045 5.6.12 9.876.078 13.062-.133 16.395-1.94 10.726 6.256-2.21 3.195-7.588 12.08-9.177 15.103-3.225 6.135-3.863 8.06-9.335 9.323-7.926 1.66-16.944.674-26.02 1.195-1.973-.075 2.006-6.885 4.22-11.1 5.43-10.36 8.733-17.465 13.47-19.682 1.86-.87 3.746-1.118 6.237-1.163zm-40.284 8.416c1.578-.1 2.778 2.715 4.345 8.546 3.657 13.608 4.566 13.938-.97 25.2l-9.505 19.294c-5.02 10.217-5.31 10.122-8.645 1.065-6.397-17.376-6.915-15.575 3.108-35.287 6.26-12.31 9.36-18.67 11.667-18.818zM140.78 436.06l18.632 14.607-5.193 5.152-10.302-7.417-14.914 16.323 25.062 22.348 20.77-20.92 18.208 18.612-5.448 4.717-10.675-10.07-15.662 13.675 23.902 27.61 23.58-18.388 15.122 19.365-6.05 3.88-9.823-9.33-15.35 10.9 19.55 26.9 24.094-14.175 14.032 22.502-7.615 3.772-7.95-12.35-17.294 10.224 16.79 31.534 26.064-11.228 10.8 24.1-7.963 3.34-6.88-14.487-17.547 7.164L250.9 637.6l26.476-7.92 6.712 24.677-8.162 2.372-4.183-13.673-16.86 4.25 7.433 33.357 27.01-2.02 3.52 26.994-8.402.468-2.273-16.1-17.215.4c.155 5.683.942 17.272.942 17.272l-10.46-4.697c-16.6-102.61-72.688-187.656-155.495-246.383l-.574-12.276 20.14 12.465s18.158-16.54 21.27-20.737zm789.25 15.208c5.73-.108 3.246 4.365-3.585 17.728-7.62 14.91-9 15.232-23.54 18.95-17.684 4.522-17.156 5.483-7.793-15.07 3.6-7.925 6.23-14.855 9.587-17.514 4.406-3.488 13.03-2.265 22.366-3.78 1.164-.19 2.147-.3 2.965-.314zm-829.463 13.584c85.92 54.088 141.11 167.33 148.57 236.27 0 0-2.326-1.523-7.01-3.6-6.5-2.897-8.11-4.82-10.096-14.2C214.196 599.104 165.76 528.01 101.1 478.16zm769.453 5.552c3.602-.79 10.463 25.045 8.558 30.5-1.368 3.923-14.16-5.16-18.798-7.073-2.32-.956 7.806-22.893 10.24-23.428zm-411.368 5.755l-.108 26.878s3.195-3.88 4.85-5.117c6.294-4.7 16.06 1.608 16.513 9.536.63 10.995-.983 15.48-9.627 30.86-2.676 4.758-6.724 10.825-6.724 10.825s-10.487-7.302-21.988-18.507c-12.43-12.11-10.264-28.5.494-28.664 3.22-.062 6.1 1.002 8.928 1.87-2.41-7.89-11.226-23.158-11.226-23.158zm333.672 16.422s5.65 7.27 12.264 26.5c6.314 18.353-2.937 32.324-15.78 25.52-2.3-1.22-4.73-3.885-4.73-3.885-.796 8.94.97 24.987 1.185 25.113l-20.632-3.365s11.112-18.088 11.876-22.54c0 0-1.266 1.017-6.926 1.077-20.7.22-16.672-24.442 7.075-38.362 3.565-2.1 15.67-10.05 15.67-10.05zm118.62-1.004c4.474-.25 2.41 4.107-2.435 14.278-5.355 11.247-3.994 10.262-15.64 4.486-16.282-7.73-15.34-8.977 5.118-14.745 6.46-2.47 10.612-3.888 12.956-4.02zm-293.633 6.54c16.22-.082 28.358 15.786 26.21 38.555-3.687 39.088-1.346 36.653 2.95 40.5 7.824 7.012-2.614 11.39-11.917 4.726-6.477-4.64-8.62-9.266-8.56-30.813.07-24.766-1.336-31.056-10.164-28.795-5.5 1.41-7.2 6.128-6.403 22.822 1.118 23.428-.367 29.348-9.184 36.948-9.514 7.534-19.943 1.027-11.232-3.97 3.96-4.553 4.65-10.294 2.948-24.44-1.824-12.046-9.343-55.36 25.354-55.535zm401.163 15.235c2.04-.06 4.088-.06 6.157-.006 31.22.825 110.203 6.37 110.203 6.37l.946 23.303c-3.5 2.208-62.494-6.12-105.8-4.826-10.127.302-17.247 4.854-24.613 1.18 7.065 2.838 6.8 38-24.264 29.834-26.375-9.154-13.97-44.82 19.525-54.158 5.768-.847 11.742-1.514 17.857-1.698zm-173.472 17.552l67.802 32.5c10.845 126.49 56.032 259.753 206.004 359.485-23.922 17.52-83.94 60.57-152.756 90.358l-5.723-6c80.537-140.508 16.815-293.472-127.708-361.417-.042-38.75 4.4-77.03 12.38-114.926zm237.44 18.584c12.926-.648 16.307.8 17.48 6.65 1.11 5.525 5.233 6.78 10.087 4.95 11.82-4.457 19.297 16.51 9.57 25.958-6.04 5.867-4.946 8.087.06 8.062 12.394-.06 12.21 16.166-.28 25.505-5.184 3.874-5.093 5.607.404 8.246 9.21 4.418 7.463 13.374-4.08 20.86-6.28 4.073-6.478 5.057-1.24 6.42 13.192 3.435-.02 22.326-14.444 19.162-5.917-1.298-11.52.04-17.115 3.784-15.34 6.6-17.905 7.893-34.56 6.01-14.637-2.518-21.218-7.253-25.13-20.035-8.858-25.98-18.417-54.764-18.832-83.234-1.484-17.464 27.637-33.593 41.505-34.43 11.283-1.828 24.293 2.117 36.578 2.093zm-922.345 10.678c15.498-.172 28.2 12.252 28.372 27.75s-12.252 28.2-27.75 28.372-28.2-12.252-28.372-27.75 12.252-28.2 27.75-28.372zm311.947 4.787l-2.26 24.558 5.05-4.088c7.232-6.18 18.845.512 16.33 10.038-.76 8.38-14.934 33.418-20.634 38.7 0 0-23.456-24.99-26-29.9-5.63-10.913 1.77-22.436 11.835-17.695 1.435.675 5.604 3.688 5.604 3.688l-7.602-23.198zm-309.96 5.4c-9.914.446-19.26 6.64-17.9 14.73.885 3.454 6.115-1.603 11.3-4.938 3.963-2.555 8.763-3.004 13.332-1.086 4.048 1.392 5.817 5.087 8.182 7.94 2 2.403 4.198 4.365 5.4 3.16 1.028-1.297.588-2.905.296-4.347-2.26-11.025-11.455-15.837-20.6-15.46zm755.714-4.578l10.088 5.013c15.487 178.754 107.12 282.927 202.87 344.52l-7.51 4.646c-117.48-73.436-199.952-206.427-205.445-354.18zm15.268 7.175s25.33 12.6 38.582 18.417l.68 16.18-8.81.4-3.17-15.185-18.297 1.516 6.134 37.372 29.49-3.953 4.376 22.578-9.976 2.205-5.28-13.85-16.89 4.313 11.372 36.25 26.528-8.89 8.607 23.687-8.9 3.35-5.873-13.873-17.462 6.32 13.956 35.347 27.618-9.213 11.433 22.093-8.364 3.812-8.184-13.69-16.53 8.684 19.867 32.938 24.884-13.402 11.883 17.588-9.118 6.258-8.464-10.75-13.37 9.024 21.888 29.196 21.382-16.395 16.33 18.414-7.054 6.39-11.123-11.033-12.9 11.77 26 27.9 22.096-19.622 16.007 14.573-4.632 4.99-10.73-6.537-13.958 15.156 27.228 23.168 21.144-23.705 18.304 13.173.1 9.874-16.31-8.038-10.693 16.495 27.32 20.198-.098 8.064C984.418 821.974 942.133 679.317 933.07 572.96zm-316.617 5.297c6.684-.276 13.81 5.933 25.622 19.31 33 37.392 24.958 95.893-17.312 126.825-6.16 4.507-8.657 4.14-16.308-2.288-44.12-37.064-47.2-87.25-8.776-131.786 6.642-7.696 11.575-11.846 16.773-12.062zm156.267 3.453c8.175 12.23 18.46 24.795 19.786 39.75-.413 14.8-10.356 17.638-20.775 9.138-1.22 7.784 3.38 22.87 3.38 22.87l-18.71-1.792s7.187-12.885 7.393-20.896c-12.873 9.18-22.916-2.493-21.26-12.015 3.53-16.204 16.694-27.253 30.184-37.056zm-155.54 11.384c-1.53.14-3.11 1.204-5.527 3.187-11.282 9.256-20.098 20.713-24.61 32.556-9.522 24.998-2.816 52.983 19.516 74.507 11.345 10.933 15.285 10.132 32.234-12.92 14.197-19.31 16.918-44.078 7.805-65.466-4.446-10.436-12.41-20.57-21.905-27.884-3.65-2.81-5.546-4.158-7.513-3.98zm359.53.602l14.578 6.964c19.85 121.8 80.64 195.57 148.398 246.15l.001 11.313-18.185-13.768-21.342 22.832-17.658-14.15 6.49-6.447 10.04 6.233 12.59-14.422-25.34-22.095-21.663 19.2-18.426-18.547 5.48-4.686 12.715 10.86 13.954-12.656-24.677-27.072-21.628 16.772-15.442-20.017 6.58-4.01 8.1 10.848 16.695-10.655-18.084-27.145-25.198 13.28-13.228-23.23 7.335-3.613 8.55 13.03 15.696-7.768-16.232-32.072-25.8 8.85-9.812-25.268 7.376-2.8 6.697 14.927 17.468-5.82-12.29-34.584-26.696 7.86-6.908-25.456 8.26-1.873 4.496 13.732 18.364-3.892-7.117-32.985-27.366 3.773c-.972-5.607-5.183-20.693-5.17-26.413l8.43-.78 2.818 14.532 18.43-.83zm-358.48 6.636c10.063 1.266 22.548 20.474 25.4 27.47 5.447 13.833 6.072 29.926 1.378 42.456-3.84 10.248-15.46 28.477-22.91 33.663-6.022 3.347-11.12.972-19.9-10.686-17.35-23.04-20.966-50.942-7.686-70.232 10.142-14.73 17.698-22.617 23.72-22.67zm378.012 1.835l7.32 3.357c9.726 70.6 52.702 167.16 135.81 224.287l.1 8.874c-64.644-45.32-124.4-124.052-143.228-236.518zm-379.172 9.024c-28.478 21.965-23.507 55.802-1.5 78.39 23.262-15.77 31.086-57.748 1.5-78.39zm-438.24 6.3c16.196-.554 26.53 4.976 31.588 16.15 7.856 17.356 8.936 20.656 10.613 29.8l3.257 17.496c8.937 47.304 2.946 65.233-25.754 72.947-8.563 2.3-20.534 3.148-28.926 1.227-2.203-.504-10.244-.463-16.57-.597-12.553-.267-16.405-1.552-22.762-6.592-2.292-1.817-4.494-3.267-7.23-3.67-14.385-2.115-18.82-15.222-8.03-25.07 6.145-5.608 6.755-6.35 6.17-7.288-.332-.528-2.986-.948-5.917-.934-14.477.07-14.494-14.823-.034-25.626 6.873-5.134 9.942-9.935 5.372-8.716-13.166 3.26-18.037-15.98-4.307-22.12 7.3-4.19 12.536-7.683 5.44-8-5.944.58-10.837-3.756-9.074-8.955 2.136-6.298 14.154-12.144 21.145-10.086 5.463 1.608 10.788 3.076 14.164.593 8.192-6.027 11.858-8.743 18.955-9.774 4.115-.598 8.432-.764 11.898-.788zm481.48-1.72l66.573.542-1.244 65.3-62.697-.492s13.42-29.315-2.632-65.35zm-149.13 3.156l63.755.074c-10.23 24.717-6.028 49.953-2.007 64.15l-62.413-.276zm106.463-1.087c17.237 9.79 22.355 46.078-1.23 65.023-22.904-23.02-18.682-51.402 1.23-65.023zM460.685 647.96l17.1 1.404-5.822 24.535s2.72-2.934 3.62-3.228c21.842-10.555 23.678 12.794 1.567 34.14-4.89 4.705-12.752 11.174-12.752 11.174s-6.322-9.335-11.354-17.78c-5.708-8.486-9.625-17.6-8.72-22.467 1.315-7.067 9.745-11.823 15.198-7.575 2.687 2.09 5.81 5.28 5.81 5.28zm305.368 14.548l11.665 11.996c15.275 16.342 18.04 31.762 10.438 36.543-6.538 3.08-10.636 1.064-15.974-3.167 1.212 10.222 9.508 25.24 9.312 25.273l-22.5 3.875s5.333-20.565 4.78-28.305c0 0-4.588 3.608-6.638 4.51-14.648 5.534-22.124-11.096-10.216-27.888 9.99-14.088 19.123-22.84 19.123-22.84zm308.106 27.52c15.118-.168 27.51 11.952 27.677 27.07s-11.952 27.51-27.07 27.677-27.51-11.952-27.677-27.07 11.952-27.51 27.07-27.677zm13.638 12.38c-1.177.28-2.112 3.005-2.18 8.994-1.227 12.295-11.387 17.35-22.62 11.783-4.54-2.25-8.423-5.617-8.41-3 .006 1.4 3.712 8.68 6.312 11.15 9.562 8.41 32.597 6.134 31.85-13.698-.35-9.335-2.988-15.7-4.95-15.227zm-496.886 15.8c2.97-.235 6.752.955 9.195 3.43 7.54 5.03 9.03 11.542 9.777 36.175.658 21.73.22 22.265 3.84 24.865 8.85 6.36 14.034-3.54 11.28-25.533-2.652-21.173 4.815-36.667 17.625-36.73 6.303-.03 7.516 3.658 2.78 8.438-4.996 5.043-6.148 11.15-4.428 23.394 4.4 31.372 1.07 46.832-12.065 53.356-13.7 6.804-31.498-.64-34.796-18-2.12-11.576-2.254-25.327-1.02-38.304.096-13.63-.232-15.183-5.068-22.945-3.418-5.208-.94-7.856 2.878-8.157zm-346.24 14.032c7.614-.102 15.57 4.225 20.406 13.93 11.666 23.42-12.826 43.065-35.473 44.834-39.336 1.023-86.156-4.132-125.7-8.95l.378-22.256 121.196 5.75c-5.243-20.63 6.503-33.14 19.194-33.31zm206.975 2.265l21.96 4.6-13.684 22.935c4.115-1.836 6.958-3.117 11.107-1.655 8.96 3.12 9.205 14.426 2.778 25.064-5.088 7.73-19.54 17.058-29.405 22.797-5.71-11.915-18.268-32.748-13.492-44.26 2.535-6.112 9.714-9.15 16.467-5.902 2.237 1.305 6.507 3.428 6.507 3.428zm51.785.05l66.755.04c-8.953 67.59-26.934 157.914-63.524 231.782l-15.673 4.237c32.177-73.352 53.36-142.046 62.764-218.68l-33.373.37c-18.286 82.34-45.843 158.766-88.785 225.375l-19.475-6.097c45.843-74.504 81.908-157.484 91.312-237.028zm152.254-.503l74.402-.826c15.21 137.254 62.678 230.518 132.807 322.514 0 0-4.352 1.026-6.938-.048-7.264-8.86-13.89-14.254-24.658-16.884-59-82.965-99.263-199.424-109.65-288.738l-44.247.49c6.284 112.253 38.42 203.992 80.817 292.715l-22.422 4.374c-34.138-79.444-71.363-148.495-80.11-313.6zm115.963 15.682c6.174 4.668 12.84 9.248 19.122 13.695 16.883 11.568 16.9 33.792.626 33.87-1.73.008-5.752-.186-5.752-.186s6.814 14.493 11.087 21.816c-6.766 1.885-20.918 4.7-20.918 4.7s1.87-14.326 1.335-26.173c0 0-2.687 3.068-4.923 4.15-10.756 4.634-19.997-4.693-18.77-15.855 1.654-15.063 18.195-36.017 18.195-36.017zm-497.033 8.206l36.825 17.78c-24.327 57.085-52.314 110.59-93.2 151.48l-.395-131.285c22.556-.907 45.698-1.368 56.77-37.976zm250.445-.718l22.53-.25c-8.834 104.914-76.507 247.457-89.317 264.695l-4.245 3.266c.257-.142-9.225-32.04-19.733-43.44 38.483-53.13 78.29-154.84 90.766-224.27zm158.428-1.76l34.03-.378c11.528 83.392 38.344 173.32 104.983 282.164 0 0-6.55.732-11.65-2.246-11.226-6.788-18.872 2.45-25.537 2.166-10.423-.445-12.144-1.047-22.862 1.622-55.25-113.268-71.564-202.724-78.963-283.328zm-367.363 22.83l12.22 5.583C302.876 844.616 280 892.912 218.74 952.57l-.414-17.56c43.03-42.608 71.72-98.455 97.797-156.72zm17.78 8.24c5.778 2.102 12.35 5.6 17.814 8.46 1.826.707 1.355 2.34 1.39 4.047-2.235 5.767-12.35 8.398-16.176 9.555-4.62 1.37-9.18 2.346-10.004 2.55-5.284 1.302-3.666-4.024 1.95-15.7 2.53-5.262 3.51-8.766 5.027-8.9zm24.422 12.542c3.637-.264 18.418 7.69 21.588 10.573 1.152 3.43-1.95 8.894-6.477 18.98-6.96 15.508-8.377 15.866-10.652 3.212-.393-2.18-2.6-9.368-3.94-14.145-3.105-11.077-3.457-17.464-.52-18.62zm26.73 12.173s8.583 4.054 11.378 5.843c-36.858 114.61-137.344 210.12-136.825 207.938l-15.946-9.136c66.892-61.8 115.614-134.445 141.393-204.645zm-40.292 2.072c3.69.035.528 4.607-4.327 15.643-4.6 10.805-6.108 14.638-10.506 16.4-6.307 2.363-15.4 2.536-23.457 4.042-3.447.636-2.028-2.02 3.17-12.88 6.1-12.743 6.42-15.378 16.175-18.118 5.646-.945 13.214-5.068 18.945-5.086zm13.626 22.538c4.088 14.097 4.036 16.888 1.46 21.83-4.83 9.266-11.157 20.087-12.9 23.02-4.362 7.328-5.642 5.827-8.476-11.844-1.758-10.962-3.247-15.882-2.087-20.674 2.157-5.43 8.626-18.255 12.28-25.756 5.175-15.97 8.353 12.033 9.722 13.426zm70.046-13.122l20.072 6.34-15.476 19.1s6.567-1.258 7.334-.956c15.75.87 13.31 16.542 1.228 26.144-4.995 4.68-29.76 16.27-29.76 16.27-2.82-13.97-8.412-22.85-7.258-37.234.838-7.747 1.45-14.736 10.927-15.06 4.984-.322 7.062 4.757 10.35 8.823zm362.728 12.943s12.117 6.082 23.382 14.554c14.692 11.05 17.33 24.198 2.827 29.44-1.676.607-6.465.416-6.465.416 4.088 6.936 13.723 17.224 13.723 17.224-4.734 3.39-11.437 6.08-18.876 8.49 0 0-2.043-17.36-3.892-24.052 0 0-1.884 3.817-4.254 5.33-13.93 8.884-25.123-7.443-17.816-28.335 4.438-12.686 11.37-23.065 11.37-23.065zm-154.177 4.618c35.017-1.24 15.136 56.35-2.414 52.843-.303-.517 14.08-34.092-5.842-39.188-9.14-2.338-1.41-13.663 8.255-13.655zm-57.39 4.7c10.883-.187 18.886 7.4 8.544 12.343-16.278 7.783-6.334 25.88-5.85 36.192.297 6.306-14.634-5.338-17.92-18.115-4.25-16.52-2.504-28.805 15.226-30.42zm-259.01 8.907c2.415-.037 4.233.137 4.85.602 1.053 2.694-3.742 11.208-10.755 22.12-3.73 5.808-5.342 7.446-7.652 8.835-5.483 3.162-13.238 2.442-19.687 2.97-9.623.23-7.933.018 2.534-16.685 4.676-7.462 7.613-13.557 10.422-15.523.564-.37 13.047-2.216 20.288-2.32zm12.757 11.828c.23 20.746 7.355 27.468 2.253 34.07-6.214 10.263-14.17 21.507-17.066 25.066-4.878 5.996-4.34 4.866-5.806-10.655-1.064-11.255-2.172-18.774-.748-22.306 4.12-10.214 9.096-15.135 14.212-26.003 4.008-8.757 7.075-7.336 7.155-.173zm276.598 7.336c10.177.025 16.58 10.767 16.23 20.696l-.332 9.504c13.09-5.187 29.46-.468 30.327 12.414 1.47 21.845-14.663 19.5-28.294 18.72 1.38.5 3.602 19.724-4.417 27.176-12.557 14.373-36.427.094-30.702-20.848 1.19-4.35 1.422-7.08 1.422-7.08s-8.47 3.16-11.467 3.065c-25.804-.817-24.234-37.304 1.724-33.302 5.303.817 8.898 2.058 8.898 2.058l-1.5-5.546c-3.924-13.995 3.85-26.894 18.11-26.86zm516.01.77l13.994 7.845.172 15.5-19.942-14.404zm-833.427 19.63c5.48-.114 9.79.267 8.956 1.588.014 2.766-11.785 19.576-18.792 27.273-5.973 6.56-6.84 5.645-21.632 5.084-5.804-.22-9.596-.223-9.458-1.77 6.714-9.007 15.97-20.608 22.353-30.28 2.54-.806 11.53-1.747 18.574-1.894zm13.61 7.13c1.023-.026 1.36 2.19 1.4 7.016.022 3.645.668 14.914 1.25 19.8 1.063 8.883 1.065 8.87-2.686 14.218-4.6 5.04-9.247 12.445-15.174 18.232-8.886 10.067-7.954 10.625-8.057-10.692-.08-16.655-1.334-16.638 2-20.586 1.828-2.17 7.47-9.23 11.18-14.75 5.632-8.378 8.61-13.198 10.104-13.238zm85.777 1.985l18.608 9.67-18.322 18.986s4.634-.07 6.2.212c11.93 2.18 11.178 14.803-.698 24.353-7.305 4.728-32.47 14.205-32.47 14.205-.985-10.6-3.337-20.33-3.04-31.718.12-5.253.538-10.967 4.515-15.55 2.75-3.112 7.386-4.957 13.96-.81 3.462 3.01 5.29 6.442 5.29 6.442zm218.37 3.982a13.13 13.13 0 0 0-12.978 13.27 13.13 13.13 0 0 0 13.27 12.978 13.13 13.13 0 0 0 12.978-13.27 13.13 13.13 0 0 0-13.27-12.978zm206.834.798s24.32 8.83 35.335 18.703c10.28 8.382 5.644 22.43-4.465 22.832-.735.008-5.038-.57-5.038-.57 3.485 5.173 15.105 17.833 15.105 17.833l-18.633 7.8s-3.156-14.375-5.562-22.44c-6.356 15.136-22.562 5.515-23.732-3.862-2.75-13.73 2.95-27.232 6.99-40.3zm-206.787 3.452c5.04-.056 9.17 3.984 9.226 9.023s-3.984 9.17-9.023 9.226-9.17-3.984-9.226-9.023 3.984-9.17 9.023-9.226zm-357.146 22.623c6.524-.133 14.667.078 18.317.265 2.8 2.1-2.933 8.787-14.02 20.688-8.89 9.544-10.232 8.246-21.126 8.454-18.28.348-18.734.475-10.446-9.166 9.08-10.562 14.37-17.357 18.596-19.583 1.424-.387 4.766-.578 8.68-.66zm22.382 8.94c1.93-.407 1.458 4.533 1.268 15.706l-.32 18.942-14.066 13.845c-16.294 14.91-14.317 15.81-14.353 2.034-.03-10.948-.23-18.64 2.083-23.525 7.09-8.74 14.49-16.49 22.57-24.846 1.274-1.287 2.177-2.02 2.82-2.156zm361.5.705c3.955-.374 14.25 16.797 16.942 31.25 6.144 33.008 26.128 48.463 39.923 35.028 5.583-7.87 6.315.643 6.084 4.714-2.46 41.93-50.133 25.018-56-16.536-16.544 11-32.334-10.673-22.4-10.44 23.406-7.727 16.746-29.22 15.45-44.018zm-54.993.923c2.486 14.467-23.365 39.578-38.254 22.332-7.576-8.774-.965-27.116 8.667-15.972 10.595 7.66 20.683-1.476 29.587-6.36zm-358.757 23.86c5.37-.175 13.15.757 16.535.254 4.8.43 1.4 2.78-8.863 12.35-8.838 8.243-11.348 11.896-12.408 8.357-.558-5.5-.415-12.046-.47-19.808.813-.773 2.765-1.072 5.206-1.152zm121.912 8.272l16.066 11.447-15.65 14.737c14.17-.858 15.58 12.42 10.284 19.887-3.427 5.233-16.8 10.852-30.23 13.18l-14.66 2.444s-.373-6.23-.715-16.587c-.697-21.18.653-29.535 8.75-33.756 5.798-3.02 15.72 1.5 18.203 6.892.82 1.778 2.96 4.874 2.96 4.874zm-102.543 2.295c.063-.014.104 0 .125.03.913 1.203-1.947 35.71-1.947 35.71l-23.237-12.743s23.124-22.567 25.06-22.998zm611.195-2.723c16.534 7.566 28.844 5.922 40.017 15.4 9.69 4.936 6.99 18.855-.005 22.033-3.172 1.006-8.432.53-8.432.53 5.897 7.116 18.742 16.043 18.742 16.043l-20.155 8.693s-2.92-13.623-5.578-21.033c-3.562 11.108-16.048 10.976-23.218 5.852-5.08-3.802-7.307-16.7-5.03-27.946l3.658-19.573zm75.243 111.515c21.222 29.168 33.133 53.765 36.8 90.628 2.173 22.73 1.564 26.987-3.825 27.013-3.467.016-4.978-1.68-5-5.57-.32-61.784-76.58-75.464-104.31-21.78-16.258 31.47-7.61 72.85 28.714 128.94 33.433 53.12 76.18 93.303 100.897 150.577 23.222-57.404 70.554-106.02 104.15-161.48 48.627-71.37 30.663-145.84-30.388-153.016-28.016-3.292-58.36 25.08-61.59 54.125-.72 6.476-2.07 8.396-5.63 7.907-4.763-.655-3.126-13.45-1.245-30.52 5.282-32.65 16.5-59.96 34.84-87.86zm296.107 78.374c.548-.145 15.734 20.528 17.94 28.303 1.8 6.338 3.204 12.895 2.143 15.665-1.276 3.332-4.424.83-8.36-4.282-10.822-14.05-31.74-9.29-40.088 9.227-6.015 13.344-2.398 30.406 9.27 49.68 13.975 25.156 47.965 70.295 49.017 74.43.857-3.576 21.757-42.464 38.65-68.277 8.89-15.567 15.517-28.736 15.705-49.177-2.372-25.423-32.934-35.57-46.302-15.675-4.323 6.436-6.918 8.41-8.433 3.22-1.025-3.503 1.972-11.128 3.505-19.26 1.28-6.79 14.254-24.54 14.574-24.382zm-475.937 132.198c-199.144 49.533-361.654 22.075-377.807 16.664l-12.507 19.11c-1.515 3.242-2.36 12.883-10.953 15.59l-12.722 19.455 2.56 2.66-11.357 10.127 2.818 3.313-8.21 12.217-3.285-.307-18.986 29.556 2.974 3.248-43.57 69.894 599.87-6.473-108.828-195.054zm-3.53 8.57l3.672 9.866c-9.933-1.1-21.523-1.58-33.305-1.974 10.326-2.25 20.663-4.982 29.633-7.892zm-34.746 9.01c-18.984 8.967-30.297 19.614-38.942 30.81-11.01-8.356-24.96-14.21-41.575-17.8zm-337.05 8.555l8.5.874s-2.823 2.242-4.855 1.804c-1.558-.336-3.655-2.678-3.655-2.678zm382.188.695l5.525 10.627c-13.07-6.744-68.82-21.894-83.977 33.528-16.842-22.247-85.623-54.007-119.554 15.516-10.077-18.62-68.12-71.874-119.755-2.608-21.12-42.458-38.417-45.843-76.257-39.593 26.65-26.186 64.854.34 81.158 22.194 44.8-37.992 82.713-27.145 116.072 2.993 42.094-46.868 84.71-36.16 114.86-13.213 20.656-31.13 41.066-40.676 81.928-29.443zm-349.007 4.156c26.903 3.327 53.784 4.676 80.662 5.7-15.484 5.878-31.372 10.97-43.908 22.583-9.74-13.287-23.16-20.92-36.754-28.28zm193.848 2.13c-14.585 7.067-30.27 17.62-42.81 28.664-13.793-10.98-27.965-20.445-43.344-25.114 28.13 1.07 59.264-.515 86.153-3.55zm654.158 7.77c-.022.106-.018.157.002.187.03-.037.015-.093-.002-.187zm-481.925 12.257s-5.407.973-7.14 1.454c-23.65 6.567-18.114 39.925 6.284 39.65 2.32-.026 8.083-.996 8.083-.996-.2 22.632 6.725 28.076 29.828 26.545l39.963 69.623-579.68 3.936 36.157-59.28c18.536 1.965 30.062-8.462 25.765-24.13 0 0 11.44 3.353 14.632 3.338 20.956-.1 26.016-32.316 5.863-37.66-2.24-.595-7.858-1.15-8.547-1.343 8.932-23.05 34.32-9.785 41.655-.337 16.123-13.558 34.175-7.77 42.077 9.47 0 0-3.053-1.66-3.995-2.33-19.21-13.727-36.617 15.342-17.8 28.45 1.85 1.3 5.746 2.374 5.746 2.374s-2.247 1.878-4.284 5.392c-9.506 16.4 6.312 36.07 25.093 30.755 14.397-5.822 14.485-16.697 14.34-28.66 0 0 5 .33 9.473.332 17.355.014 22.08-22.266 11.346-32.48-5.8-5.52-13.3-5-17.02-5.677 19.787-19.864 33.5-6.46 47.718 2.44 2.135-.075 24.202-27.182 51.085-1.098-12.942-3.237-26.065 5.278-26.093 18.715.352 8.642 6.618 16.215 19.993 16.677-1.39 4.355-2.314 7.608-2.345 11.83-.103 14.1 10.956 22.764 24.853 20.444 11.617-1.615 20.07-15.01 15.806-26.02-1.925-4.968-4.513-6.763-4.513-6.763 31.375 3.573 30.386-36.107 6.002-38.243-5.782-.507-10.204 2.047-15.97 7.446 14.002-29.453 40.268-23.868 50.214-11.996 13.35-9.928 31.76-23.487 54.223.054-3.667-.73-8.823-.855-13.28.38-17.52 4.86-17.35 27.205-3.342 33.85 3.94 1.87 8.762 2.927 13.938 2.676-4.427 18.83 16.572 32.01 31.23 22.854 10.502-6.56 13.102-21.806 1.506-35.562 19.248-1.076 20.88-25.098 9.66-33.39-8.796-6.502-19.03-3.252-26.378 5.543-2.47-6.864 16.3-31.034 43.378-14.076 14.11-12.097 28.195-15.928 44.488-4.182zm8.614 18.656l7.683 13.603c-5.01.553-12.246-4.737-7.683-13.603zm-97.027 14.984c4.71-.052 8.573 3.725 8.625 8.436s-3.725 8.573-8.436 8.625-8.573-3.725-8.625-8.436 3.725-8.573 8.436-8.625zm-351.817 4.406c1.187 4.566 1.736 9.13-6.576 10.105zm852.2-5.493l.212 19.093 15.624-.173 45.25 101.13-41.61 66.435-17.405.193.188 16.968 60.62-.673-.188-16.968-17.718.197 52.96-82.843.913 82.245-15.468.172.188 16.968 54.81-.61-.188-16.968-20 .222-1.86-167.583 20-.222-.212-19.093-54.81.61.212 19.093 15.468-.172c.56 16.433.81 30.58.522 47.028-7.588 10.362-15.438 22.998-23.794 32.766l-34.943-79.148 22.06-.245-.212-19.093zm-754.125 12.654c4.314-.048 7.85 3.41 7.9 7.725s-3.41 7.85-7.725 7.9-7.85-3.41-7.9-7.725 3.41-7.85 7.725-7.9zm130.05.994c4.574-.05 8.322 3.615 8.373 8.19s-3.615 8.322-8.19 8.373-8.322-3.615-8.373-8.19 3.615-8.322 8.19-8.373z"/>
    </g>
</svg>