<svg xmlns="http://www.w3.org/2000/svg" width="224.225" height="312.808">
    <rect y=".499" x=".498" height="311.811" width="223.228" rx="10.63" fill="#fff" stroke="#000" stroke-width=".997"/>
    <g transform="matrix(.151352 -.001685 .001685 .151352 60.8807 115.4322)">
        <path d="M376.567 1111.814c4.138-52.338 1.713-108.605 4.576-151.206-1.59-3.025 4.342-11.23 4.65-11.228-3.397-6.373-4.384-22.612.158-36.957 35.737-130.242 98.956-231.204 163.96-325.29C600.17 744.378 435.653 852.472 399.8 988.98c-11.98 47.275-10.635 80.392-15.503 123.165zm-271.512-1.03l-190.918-302.25 42.415-20.063 196.115 321.792zM362.512 557.67c1.62 8.634 8.344 13.336 15.583 9.474 7.09-3.782 7.906-4.033 3.446 2.71-9.848 14.89 9.6 29.625 22.326 16.897 4.524-4.524 5.354-11.96 1.335-15.785-4.54-4.32-5.513-6.543 1.218-3.215 16.922 7.07 26.56-17.412 10.18-25.865-4.22-2.18-12.513-.38-15.663 2.83-3.804 3.878-4.318 2.495-3.282-.534.613-1.792 1.066-4.707 2.52-8.17 1.14-2.718 1.98-6.43 1.98-6.43l-17.37-.01s1.36 3.994 2.743 7.358c1.302 3.166 1.782 5.528 2.417 6.845 2.288 4.745-.504 2.967-5.156-.575-6.576-5.007-14.905-3.715-19.706 2.722-1.785 3.795-3.29 7.748-2.575 11.747zm27.797-243.86l37.354-.693 39.803 113.778c-33.473 54.197-43.023 115.642-5.475 178.445l-118.422-1.13c28.823-93.683 34.224-193.33 46.74-290.4zm37.403 147.883c5.062-4.425 5.794-12.544 1.287-18.014-5.667-6.878-4.346-7.21 3.307-2.675 11.043 6.545 21.83-7.225 15.408-19.58-4.08-7.847-17.53-9.723-22.758-2.846-4.357 5.733-3.82.446-.433-7.2 1.245-2.81 3.047-8.097 3.047-8.097l-18.1.17s2.28 5.15 3.488 8.454c3.206 8.766 3.31 11.53-1.72 5.86-10.942-9.406-23.97-2.823-24.24 10.505 0 10.248 9.213 16.93 17.4 12.23 4.974-2.855 7.2-3.528 1.56 3.093-3.91 6.327-2.624 14.46 2.403 18.327 6.895 4.274 14.33 4.12 19.353-.228zM177.16 494.22c1.465-1.055 1.994-.345 1.087 1.09-.773 1.222-2.74 2.95-4.428 4.786-8.55 9.3 2.245 21.36 15.88 19.665 9.28-1.154 14.882-15.67 8.098-21.5-2.2-1.506-3.937-1.808-5.596-3.854-.125-.81.26-1.354 1.077-1.026 1.203.52 3.648 2.54 4.9 2.892 8.585 2.434 15.127-1.053 17.38-7.108 1.46-7.014.213-14.58-5.488-18.592-5.3-3.642-13.207-2.703-17.88 3.358-4.78 6.203-5.364.243-1.415-8.347 1.48-3.22 2.524-7.812 2.524-7.812l-16.645.698a90.68 90.68 0 0 0 2.263 7.722c3.592 9.437 6.2 12.16 1.543 7.254-20.2-12.196-27.12 4.005-27.526 10.474-.765 12.18 16.9 19.288 24.235 10.303zm83.4-182.884l30.02.438c-23.977 120.096-71.483 220.392-150.296 288.9l-146.862-2.087-70.22-50.27 27.726-35.19c186.236 21.286 266.668-70.272 309.632-201.79zm-138.228 277.49c8.83-3.778 12.598-13.688 6.86-20.43-5.188-6.096-5.704-7.988 2.317-3.194 10.733 6.414 21.315-6.032 16.155-18.38-3.212-7.687-13.575-10.168-21.11-5.054-6.627 4.832-6.477 2.642-2.956-5.063 1.743-3.813 3.118-9.94 3.118-9.94l-18.404.053s1.28 4.387 2.587 7.406c2.994 6.92 4.07 10.092 2.644 10.092-.69 0-2.94-2.124-4.257-3.362-3.627-3.407-13.635-4.155-17.393-.644-11.132 10.383-5.134 28.83 8.916 25.596 9.072-2.09 11.18-5.505 3.6 2.92-9.355 10.384 4.788 25.626 17.936 20zM6.302 583.88c7.65-3.503 10.292-12.25 6.096-17.96-4.225-5.75-6.303-9.45 1.267-4.227 10.08 5.213 19.015-1.463 19.015-12.994 0-12.077-13.5-17.862-23.555-10.7-1.7 1.2-3.784 2.293-4.156 2.293-1.218 0 1.068-6.508 3.54-10.757 1.073-1.844 2.97-5.604 2.97-5.604l-18.396-.91s.974 5.025 2.374 8.898c2.845 7.867 3.534 10.486-1.555 5.98-13.695-13.087-28.64 3.22-22.973 17.503 2.994 8.04 12.437 8.143 18.056 4.204 5.1-3.863 2.457 1.306-1.056 5.404-9.58 11.173 4.124 25.34 18.373 18.87zM850.03 291.496l.72 22.272L610.74 509.29l-9.802-15.386zM-34.9 323.323c34.51-23.98 73.08-67.3 110.925-89.676C102.78 297.07 37.678 358.23-34.9 323.323zm628.542-8.972c-33.12-118.61 129.45-108.93 108.75-84.05zm-772.15-85.842L59.035 39.217 69.55 55.47l-250.61 200.682zM468.508 42.1c.64 2.013 7.677 9.74 7.682 10.435-2.017-1.54-14.033-8.45-20.01-1.93-2.09 2.388-4.774 8.123-4.56 14.097 2.354 10.717 14.48 14.624 23.206 7.4 2.512-2.08 4.677-4.61 5.173-3.706.43.787-.97 4.446-2.11 7.342-1.31 2.975-6.122 9.2-2.682 9.233l16.717.156s-.573-3.923-2.525-8.278c-3.647-8.138-3.443-12.534 1.003-6.65 8.655 11.456 25.783 2.174 24.156-11.462-1.175-9.846-11.065-15.58-18.44-10.975-.807.504-3.18 2.806-3.516 2.817-.896.03 1.597-3.693 3.255-6.786 5.5-10.28-2.436-19.942-14.768-19.05-3.983.288-8.368 2.747-8.395 3.103-4.67 3.68-5.503 10.12-4.187 14.253zm204.315-94.012c23.31 21.925 46.687 38.068 70.085 52.2L720.294 35.13C569.818 19.508 459.614 77.842 412.11 238.783l-24.884 4.5c10.463-100.6 45.324-200.106 146.2-296.6zm-144.626 22.5c-.014 4.775 8.692 10.552 6.727 11.845-.902.468-6.073-4.135-8.47-4.417-17.37-2.042-21.277 24.96-4.077 28.186 3.384.635 10.405-1.393 12.5-3.076C537.663.88 539.596-.962 540.16-.75c1.05.395-1.408 5.192-3.34 8.742-1.794 3.298-4.318 9.77-4.318 9.77 6.88 1.322 13.532 1.684 19.77.31 0 0-1.728-5.668-3.46-9.993-2.213-5.53-2.655-9.023-1.13-8.637.657.167 1.38 1.894 2.753 3.1C558.92 9.99 571.52 6.99 574.95-4.46c3.225-10.763-9.576-22.023-18.644-16.082-3.168 2.076-3.155.5.035-4.2 2.914-4.293 2.284-10.852-.27-14.774-9.34-10.134-28.157-3.172-27.875 10.104zm141.61 33.604c-.447-2.413.157-1.72 2.66.945 7.836 8.34 21.502 7.214 25.1-3.686 3.6-10.877-6.868-23.485-16.15-19.3-4.83 2.177-4.904 1.387-2.117-2.156 7.185-9.134-.49-21.364-12.64-21.364-11.103 0-17.77 10.616-12.466 19.854 2.172 3.784 1.443 4.578-2.428 2.647-11.297-5.636-22.092 12.22-13.89 22.975 4.82 6.32 16.133 7.105 22.678.957 3.483-3.272 3.436-1.69.857 5.134-2.246 5.943-4.717 10.742-4.717 10.742l19.65.393s-5.137-10.033-6.537-17.14zM246.25 240.997s-28.268-81.524-37.827-120.563c22.198-51.542 52.346-101.4 3.432-176.502l120.894 1c-38.29 84.265-41.467 297.97-50.247 298.392zm11.663-94.92s-5.877-8.277-6.168-14.932c-.67-4.274.432-4.523 2.603-.15 10.636 12.022 25.34.693 25.523-9.847 1.345-9.63-9.845-18.022-17.143-13.288-5.114 3.317-6.483 2.334-1.886-3.897 6.475-8.776-.345-20.366-11.75-20.366-14.84 0-20.674 13.8-10.15 23.81 7.774 7.395.5 2.996-5.71.313-12.09-5.225-20.195 7.057-14.884 19.604 3.665 8.66 14.683 11.028 21.237 4.124 3.6-3.782 6.894-5.985 4.906-.23-1.058 4.66-6.597 14.505-6.597 14.505zM278.08 16.135S271.02 7.082 269.86.318c-.392-2.5 1.362-1.84 5.388 1.694 12.883 11.31 30.974-8.51 19-20.874-4.12-4.25-8.34-5.515-13.234-3.028-6.107 3.103-5.603 1.57-2.536-1.676 4.496-4.76 4.264-13.537-.47-17.852-13.093-11.93-34.216 5.395-22.066 18.128 5.29 5.543 2.76 4.802-3.088 1.215-11.065-6.788-23.597 11.33-15.35 22.143 9.823 8.493 17.3 4.452 24.216-.738 1.497-.77 2.79-1.112 2.79-.464 0 1.21-7.044 17.3-7.044 17.3zM120.084-36.22c-7.37-.574-11.874-69.552-2.615-91.276 20.248-91.84 79.663-158.236 116.805-214.214 59.514-83.318 53.784-222.872 56.212-217.284l8.298 1.06s-7.34 81.69-4.116 118.673c3.42 32.523 2.568 34.534.206 37.728-.648 3.02.163 11.884-.53 14.917-27.4 119.976-91.007 242.945-156.295 335.588zm604.67-203.39L530.395-553.75l47.588-3.75 186.22 296.596z" fill="#d40000"/>
        <path d="M-105 1114.013c23.415-82.22-35.398-274.71-73.208-300.193 44.69-1.387 98.41.016 96.76-4.183l185.06 302.446c-1.48 1.48-208.613 1.93-208.613 1.93zM670.097 654.7c-45.962-7.053-27.382-45.063 2.26-48.7-3.862.6 3.382-18.963 27.342-26.64 5.53-9.77 9.97-26.512 15.02-34.252-14.36 4.49-31.884 16.387-96.784 6.132 6.004-30.74 68.245-35.3 90.615-30.29 12.916 3.153 25.483 22.588 29.414 23.038 39.987-6.205 90.363 30.468 74.593 66.95-2.44 5.2-8.382-6.3-21.765-11.322-43.252-16.23-46.03-39.765-55.9-50.4-3.623-.722-23.25 37.068-23.25 37.068l5.7 25.88c10.426-.838 56.397 28.28-1.445 47.015-16.544 54.742-46.124 15.65-45.8-4.48zm111.815-244.015c-2.433-2.528 2.157-19.576 8.11-29.346 3.216-5.277 10.55-8.76 14.818-7.962 7.606 1.422 6.293 12.487-4.165 44.81-.474 4.675-10.783 5.052-18.764-7.502zM-132.29 173.337c-12.633-.184-.92-34.4 6.97-45.23 2.59-3.356 12.59 3.97 13.055 8.953.83 8.925-13.2 39.893-20.025 36.277zm-6.363-233.674c15.377 3.89 39.54 19.682 51.075 28.33C-73.237-21.056-77.42.09-65.872 2.098c7.86-3.777 22.575-38.315 22.575-38.315s3.795-17.786-6.336-23.39C-74.84-73.547-74.225-88.3-72.598-89.593c7.74-19.41 22.67-15.775 30.774-16.77.292-10.672.188-33.205 22.253-30.636 19.3 2.04 20.896 29.665 12.768 29.83-.15-.47 36.593-4.858 35.965 19.34-.34 13.12-22.3 29.664-29 23.492 0 0 3.34 26.198-29.637 34.796C-37.24-21.81-43.88 11.37-43.848 8.42-23.825-9.253 7.27-13.103 56.18-6.133 25.206 49.787-58.403 22.524-64.842 11.566c-42.075-13.206-81.488-30.23-73.812-71.902zm362.92-130.812c44.608 4.552 93.613-8.918 130.667-1.083 4.223.624 8.75 6.933 11.28 8.35 19.08 10.686 39.205 7.654 70.23-3.693 7.66-2.802 149.23-.123 149.23-.123 31.72 47.997 88.06 138.252 89.34 135.23 0 0-78.473-1.764-114.655-.026-25.442 1.222-10.532 4.854-28.196 5.422-124.756 91.54-150.545 292.072-150.545 292.072s39.435-9.91 49.588 1.06C481.43 104.325 574.495 40.387 703.12 54.544c59.438 6.542 129.79 65.848 129.79 65.848L704.413 222.6c-98.093-50.863-141.99 95.34-112.066 96.042l258.765-206.758s4.198 17.16 3.752 17.733C836.32 153.375 527.842 398.12 527.842 398.12l-13.257-14.977s-8.516 7.39-13.01 12.326c-.53 8.124 2.257 15.046 8.352 21.476-61.103 47.927-64.098 137.072-19.995 186.246l-21.9 1.515c-25.207 4.027-49.846-120.32.668-177.5-24.61-49.62-39.365-116.92-42.482-120.068.584 7.916-39.776 4.838-39.776 4.838-4.198 100.23-15.757 198.434-40.904 292.9l185.49 6.058-80.508 136.188-126.756-6.298c-39.606-23.64-62.786-6.26-100.297 1.9-53.26.97-131.605-2.38-131.613-1.655-25.995-53.086-54.13-92.223-92.45-137.906-4.842-8.274 157.635-1.387 157.635-1.387s82.6-121.993 97.797-156.54c11.852-26.96 38.86-125.3 38.86-125.3 1.14 5.153-14.468-25.81-51.63-25.528C209.07 498.316-34.382 564.408-178.95 431.34l-1.096-23.765L144.67 150.13l14.115 16.686c-3.048-2.494-199.334 157.18-196.092 156.19 57.306 30.81 124.275 7.133 117.62-91.988 46.036-32.506 86.903-70.514 127.1-109.33.87-1.526 43.275 98.113 41.993 117.182 25.12-8.126 39.74 9.66 39.302 6.645-8.36-57.44 44.276-274.29 45.5-299.276-27.866-2.556-64.86-1.94-122.83-4.887 45.58 90.69 28.718 151.592-37.018 206.415l-13.43-17.263c5.495 3.14 95.947-73.4 25.102-190.022-3.305.24-37.985-3.56-37.985-3.56s72.434-112.13 76.2-128.07zM574.192-559.96s203.158-2.618 203.158 3.336c-7.698 109.045 16.626 208.864 76.983 301.605l-88.293-3.04z" fill="#e2cf00"/>
        <path d="M869.7-563.755l-1055.862-13.053-12.32 1694.763 1054.58 11.743zm-96.653 5.643c-.084-.093-15.608 179.125 76.674 297.648-57.075-9.298-89.906-.9-123.455 22.248l4.504 4.74c46.162-27.658 84.913-19.815 124.668-14.984l-3.654 230.757c-.408 11.202-46.583 5.684-75.57-16.624-13.8-8.35-31.5-25.754-39.383-38.753-2.397-3.954-4.923-7.863-5.622-8.688-2.65-3.12-18.98-34.37-48.93-93.52l-51.7-102.895-31.65-62.575c-2.886-6.46-24.304-49.418-32.653-65.055-22.053-41.304-57.598-113.343-70.277-139.16-2.79-6.694-7.117-9.814.686-9.5 1.733.06 3.462.187 4.456.436 1.367.7 3.07-2.325 3.07-2.325zm-951 959.915l-.466-18.153 309.667-249.66 9.65 12.707zM123.473-38.183c-1.236.44-2.6.89-4.073 1.342-7.495-35.228-2.476-82.13 7.2-117.323 14.08-48.85 39.794-87.87 68.373-127.05 65.33-89.472 94.573-157.14 94.77-278.305l9.184 1.082c-.6 19.13-3.292 33.497-4.315 58.95-1.456 27.272-1.23 48.022 1.375 74.695 1.28 13.107 2.042 21.602-.18 23.28-1.06.842-2.06 5.36-1.116 7.038-.195 3.632-.77 10.882-.77 10.882-15.536 71.967-96.6 256.038-170.456 345.407zm36.545 164.403l-16.035-20.13s-12.395-10.222-1.028-21.492c32.853-32.58 33.536-74.45 2.55-112.456-2.057-4.805 10.08-28.83 10.08-28.83l24.72.683c38.04 47.35 47.638 130.364-20.286 182.226zm24.795-185.945c.806-3.202-36.617-2.38-36.617-2.38 23.62-34.376 43.78-69.783 63.598-105.293 30.727-53.735 73.557-148 87.414-216.515 8.856 80.42 21.71 199.773 90.38 205.24 22.516 1.793 48.782-13.356 53.008-10.756l142.784.46c28.62 59.692 59.652 98.29 96.446 139.3 26.598 15.56 59.108 28.007 90.57 36.198 17.873 4.653 19.627 1.708 54.924 7.143 9.317 1.435 23.577-2.35 23.434-2.35-28.49 21.966-61.008 15.3-96.8 5.35-2-.556-4.102-1.2-6.19-1.966L720.223 35.18c-60.156-14.965-253.907-7.003-307.3 202.96 0 0 5.218 2.735 4.01 1.27C459.512 57.127 631.168 22.604 712.61 41.713l-7.14 10.638c-135.284-18.077-246.526 65.423-274.133 185.284l2.588 2.4C486.782 58.947 701.227-5.89 832.314 121.5l24.493-16.936-1.044 23.282-328.77 269.28-12.878-13.617s-2.313 1.71-4.935 3.845c-8.48 6.902-11.818 8.574-9.506 12.505s11.352 12.83 11.74 13.818c-54.517 43.422-72.603 128.13-21.932 188.16 5.658 6.365 4.6 8.046 3.63.937-45.494-50.627-38.67-139.195 19.213-180.555l11.403 15.29c-25.896 55.224-40.345 141.645 26.044 149.88 23.104 64.083-5.136 139.396-36.285 189.743-33.062 58.034-72.88 106.132-98.11 169.463-12.21 26.407-32.05 104.91-31.72 165.074l-7.144-.153c.263-24.546 2.228-53.634 2.636-72.24 2-90.704 1.82-85.322 3.886-87.603.683-.757 2.595-1.54 2.783-2.177.28-.952-1.453-2.852-2.12-5.075-.683-2.28-1.84-6.288-1.682-9.646s3.364-8.225 2.775-9.325c-13.74-50.22-13.914-140.202-59.608-182.046-22.415-19.688-52.47-20.807-91.58-5.294-85.92-.803-73.23 3.754-142.57-.98-28.12-52.87-62.36-104.44-99.6-142.813-17.386-19.828-41.743-30.854-64.6-45.338 9.426-17.407 20.04-30.095 31.575-38.278 2.416-3.36 4.07-6.995 7.174-9.83C199.29 525.96 252.55 299.948 241.806 305.59l-2.092 1.772C173.15 540.1-54.38 529.062-167.68 426.86c0 0-16.32 13.862-16.205-1.548.108-14.008 5.267-18.008 5.267-18.008L145.45 149c5.827 3.803 12.014 16.32 14.663 14.953 5.952-3.078 14.738-9.295 14.51-13.06-.174-2.894-11.508-21.198-11.508-21.198C250.023 41.7 211.712 1.533 184.813-59.724zm127.3-498.55c1.547.006 3 .755 4.066 2.483 1.924 3.112-6.073 21.067-10.926 24.192-4.592 2.958-4.886-.543-1.394-17.954 1.024-5.105 4.85-8.734 8.254-8.72zm471.22 5.56l74.398.828-2.635 285.695c-54.72-78.753-81.87-169.047-71.764-286.523zm-451.264-4.337c1.858-.062 3.49.47 4.01 1.826 1.854 4.833-9.285 25.52-22.976 42.622-7.103 8.87-10.663 11.424-12.823 9.264-1.8-4.093-1.692-8.83 4.837-16.197 5.383-6.074 14.595-20.315 18.414-28.305 1.662-4.7 3.313-8.93 8.536-9.2zm76.37 1.87c2.167.043 4.394.033 5.01 1.066 12.688 26.628 36.88 50.8 61.762 63.848 3.626 2.112 1.846 7.29 3.035 10.95-28.064-4.5-64.513-44.724-74.057-73.902-.03-2.107 2.082-2.007 4.25-1.963zm43.956.47c5.53 5.742 14.253 12.705 16.162 19.212 1.172 4 2 8.565 1.13 10.7-4.918 3-28.875-25.427-27.9-28.708 3.107-1.994 6.99-2.38 10.608-1.205zm-105.24-1.578c2.385.12 6.03.024 6.543 1.823 2.895 12.315-25.68 59.848-46.286 73.177-7.323 4.737-7.777 3.466-7.105-4.61.45-5.428.968-5 8.51-12.03 10.766-10.055 22.574-25.62 29.13-39.46 8.406-17.746 6.412-18.89 9.21-18.9zm19.028.4c2.668.034 5.146.965 5.82 2.16.914 1.616-.364 4.21-1.27 7.424-9.53 26.046-32.918 63.42-60.132 84.492-10.58 7.972-12.358 7.902-13.027-.458-.39-4.86 1.857-6.25 6.826-9.612 23.063-15.613 43.935-42.92 52.95-70.946 1.756-5.458 1.166-10.384 4.165-12.017 1.4-.755 3.067-1.062 4.668-1.042zM507.712-509c1.074 1.9 8.79 14.254 2.425 9.56-2.61-2.19-7.33-7.683-14.85-16.416-17.783-20.65-18.34-19.39-17.927-24.472.25-6.626-4.37-17.556 5.842-14.62 9.94 11.943 16.055 31.093 24.51 45.95zm-81.495-45.817c2.04-.013 4.453.393 6.46.822 11.61 22.427 40.342 42.323 40.23 42.222 0 0 .622 9.71-.45 11.412-.637 2.983-45.63-32-50.448-52.7.498-1.324 2.165-1.753 4.208-1.766zm-32.298.047c10.436 19.7 31.925 64.352 83.378 82.87 3.705.85 7.545 11.465 4.666 14.343-28.23-8.527-79.295-36.83-96.074-97.032 1.717-1.577 6.23-1.28 8.03-.18zm-13.913 3.647c-1.772.01 23.548 75.796 97.82 99.137 6.422 2.093 10.17 4.924 9.716 8.734-.57 4.802-.42 5.402-7.55 1.73-20.212-10.845-49.134-16.14-73.472-4.112-3.797 1.877-7.688 7.068-4.683 10.4 1.717 1.696 6.004.497 11.473-1.562 28.29-10.65 71.337-3.72 78.76 13.597 5.27 12.292 6.09 21.32 3.12 22.786-2.266 1.12-6.044-3.034-12.713-9.017-21.224-19.043-46.793-24.558-67.367-6.72-4.452 3.86-8.81 3.136-10.366 4.73-1.51 1.545.222 5.076 1.436 8.517 1.27 3.6 1.315 4.58-.023 7.594-1.83 4.127-1.957 9.435-1.805 13.387.372 9.635 6.654 18 24.845 30.904 14.17 10.052 25.272 15.737 8.047 1.465-29.73-24.635-35.064-34.594-15.712-25.958 19.33 8.02 46.34.497 65.564-13.833 6.492-.037 10.365-1.126 13.756 1.403 13.848 33.54 24.98 78.09 43.403 121.362-22.856 25.254-102.15 86.84-158.164 83.987-48.366-2.462-64.57-81.848-74.783-125.735-3.395-18.56-7.3-37.455-6.51-63.608 0 0 .885-.694 2.13-.445 8.096 1.622 22.04 2.84 29.144 1.262 12.9-2.866 15.523-5.13 16.256-3.225.862 2.247-4.555 7.222-13.995 13.533-4.106 2.745-16.032 8.33-14.79 9.18 2.814 1.928 17.25-5.55 19.68-7.563 3.79-3.14 6.367-3.3 8.143-1.534 2.08 2.08 2.538-.106-4.596 17.044-7.862 18.9-7.148 20.63 7.64 32.493 5.142 4.126 9.837 8.24 10.952 10.03 1.405 2.348 2.343 5.1 2.996 6.002 2.486 3.4.998-2.047-.412-10.693-1.67-6.405-7.858-12.817-12.26-15.95-8.078-5.752-6.756-11.29.2-30.5 20.518-56.647 15.73-82.068-6.027-94.667-9.8-5.68-37.468-4.5-46.262 2.683-4.332 3.54-3.667-3.497-2.977-3.96 52.923-35.514 65.623-69.81 79.4-102.872zm101.06 28.993c14.74 14.96 33.07 35.258 44.084 49.67 6.05 7.687 9.196 15.538 13.988 23.595.912 1.46 1.813 3.127 1.145 3.794-.25.284-2.37-.98-3.542-1.883-10.834-8.355-55.364-60.217-55.364-60.217-1.988-8.455-3.402-11.346-.31-14.958zm8.527 34.96s38.606 43.102 60.756 64.337c4.302 9.295 12.587 22.71 12.348 24.952-.105 1-4.752-2.678-4.752-2.678-24.484-23.066-47.053-48.936-70.53-73.477.223.13-1.767-10.07-1.75-14.177.563-2.005 2.91.24 3.926 1.044zm83.558 110.312c5.163 8.615 8.913 16.32 11.388 21.378 4.086 8.013 2.687 8.223-.965 5.24-27.707-23.196-50.81-51.318-76.865-77.142-3.382-3.56-10.123-11.457-10.123-11.457.24.286-8.376-18.495-2.84-18.058 4.313 1.735 7.1 6.474 9.873 9.5 13.646 14.944 39.674 40.656 69.532 70.538zM329.908-440.56c11.533-.218 22.863 2.9 28.515 10.027 5.143 6.493 7.135 16.697 4.2 19.622-1.826 1.826-8.172-3.446-8.172-3.446-26.985-15.54-36.422-8.304-51.21-3.998-2.11.614-4.28-5.077-1.527-10.65 5.512-9.255 19.244-11.385 28.182-11.554zm170.735 16.33c28.725 29.447 57.876 62.13 89.03 87.528 4.363 3.804 7.36 6.248 9.346 8.292l13.386 27.96C578.98-324.38 504-406.424 504.83-405.873c.755.388-6.187-14.928-4.19-18.358zm-56.914 4.19c5.305.01 11.102 1.74 15.668 3.6 14.572 5.97 23.715 12.258 8.577 10.026-21.062-3.105-28.27-3.337-36.01-2.182-14.372 2.145-15.508 3.73-16.736 1.44-3.225-6.018 12.584-12.918 28.5-12.892zm-119.773.375c5.287.026 11.02 1.258 16.615 3.78 17.807 8.023 20.902 13.153 5.696 10.533-7.9-1.36-22.4-1.39-32.796 1.166-3.3.81-6.96 2.682-7.814 2.944-3.694 1.135-4.68-1.625-3.056-6.222 2.808-7.94 11.26-12.25 21.356-12.2zm129.29 24.272l3.7.31c-4.905 26.083-30.977 23.242-37.755.718l3.694-.04c13.5 21.618 23.93 9.107 30.37-.99zm14.527 1.518c12.063 0 11.203 7.234-1.414 11.954-9.67 3.618-10.748 2.933-7.14-4.236 3.466-6.893 3.128-7.718 8.555-7.718zm-124.285-.443c.915 23.56-31.942 27.5-33.67 1.81l3.122-.118c10.527 20.31 23.078 8.26 27.067-1.73zm14.558 3.378c3.685 2.577 1.34 6.034-6.778 10.863-7.325 4.445-9.137-1.048-3.056-8.57 2.545-2.42 6.7-4.397 9.833-2.293zm56.903.602c1.44-.437 4.77 5.968 1.855 7.46-1.735.886-4.256-1.747-4.522-3.676-.21-1.525.772-3.208 2.667-3.783zm98.228 2.563c21.626 24.364 43.4 48.828 107.277 102.045 0 0 8.927 16.3 10.842 22.653-1.588 1.913-2.405 1.683-6.9-.608-41.68-32.924-80.327-72.833-110.534-109.863-1.396-5.196-4.584-10.228-.685-14.227zm-208.764.082c2.487-.056 5.934 5.538 3.964 8.857-1.614 1.237-4.07-.738-5.13-2.276-1.054-1.528-.99-4.312-.313-5.535.396-.715.907-1.033 1.48-1.046zm217.52 35.83c-.162-.843 100.677 103.665 113.78 101.836 6.055 3.653 20.882 33.203 20.882 33.203.425.936.337 2.66-2.1 1.414-17.145-8.722-88.566-69.336-124.923-114.273-2.623-6.514-5.794-14.79-7.63-22.18zm-121.4 13.83c17.688 8.79 9.84 26.325-8.803 14.9-14.692-9.155-26.413-10.1-26.413-2.325 0 3.288 3.982 7.557 7.885 7.557 7.308.55 13.902 3.302 21.07 4.954 11.183 2.53 19.6-.35 22.48-7.123 4.89-11.493-6.292-24.22-13.76-23.632s-5.63 4.182-2.46 5.66zm140.51 29.823c-1.234-1.104 50.093 56.406 120.4 104.222 2.714 3.204 9.375 19.704 10.444 21.93-.3 1.544-1.844.01-1.844.01-35.545-21.08-82.316-62.62-126.537-109.666 0 0-4.19-10.366-5.435-17.093.976-.437 2.027.16 2.962.596zM422.79-289.027c-1.62.205-3.8 2.615-6.483 4.053-5.482 2.94-7.214 3.718-20.56-.448-7.24-2.26-8.418-2.12-12.794 1.045-3.823 2.764-5.93 3.205-10.14 1.262-7.574-3.497-11.128-1.055-18.204 1.33-6.74 2.353-9.012-.63-15.04-2.074-.8 0-1.412 24.362-.624 25.15.274.274 6.324-3.604 9.747-5.298 5.888-2.915 5.043-2.45 13.586-2.005 12.593 2.317 25.094 1.722 33.58-1.5 10.55-2.856 18.762-2.212 25.96 3.82 4.37 3.663 10.23 3.137 6.884-3.55-1.155-2.3-3.733-10.8-3.376-13.945.533-4.7-.478-7.724-2.225-7.838-.103-.007-.205-.017-.312-.003zm134.53 20.5c23.66 23.2 52.758 58.53 121.677 99.86 3.544 6.373 8.336 14.84 11.356 21.44.263 1.822-.202 3.437-1.97 2.79-42.563-27.648-66.247-41.113-125.016-100.334-3.627-5.978-7.45-16.127-10.416-24.4.672-2.317 3.393.04 4.368.642zm-10.19 8.637l25.975 50.105-89.336-1.182c22.854-13.278 44.726-31.073 63.36-48.923zm-148.097-.524c-14.734 5.667-16.964 6.856-31.475 3.15-8.454-2.16-6.183 2.78-1.867 4.86 10.92 5.264 26.86 1.812 32.8-2.188 3.917-2.462 6.64-8.17.54-5.823zm-15.233 15.206c-15.365.045-29.918 5.238-31.067 11.467-.222 1.204 1.02 2.575 3.425 1.163 10.48-6.15 36.348-7.908 55.823-.628 3.154 1.18 3.724-.783.477-3.526-7.25-6.122-18.144-8.506-28.657-8.476zm194.75 23.45c28.62 27 56.255 51.873 118.096 88.292 4.37 9.825 10.723 21.592 11.852 22.62-58.013-28.96-120.96-85.54-120.96-85.54s-9.807-17.933-12.017-25.595c-.18-2.578 2.22-.432 3.03.22zm19.45 41.8s52.746 45.627 113.1 76.87c2.434 2.39 8.382 16.947 10.357 18.523 1.994 1.59-2.426 1.537-6.773-.763-31.606-14.987-99.216-62.577-99.216-62.577-6.42-10.782-15.65-22.03-17.48-32.053zM-41.332 1.13c4.985-10.36 10.083-21.892 13.41-31.31 14.495.313 21.682-5.042 26.898-11.527l22.975-.204c-.217-9.896.39-23.89.39-23.89 10.26-10.328 17.27-22.312 1.755-40.94 0 0-.537-8.608-.603-23.28-7.233-1.235-23.49-.668-23.49-.668-12.926-18.63-36.277-14.23-43.494-.492 0 0-10.475.46-17.66.406-.19 3.908-1.622 21.22-1.622 21.22s-30.85 20.54.64 45.503l-.66 20.67c5.94.544 10.205.19 17.943 1.766 0 0-12.465 28.08-20.605 41.384-2.74.687-2.07-.876-5.272-10.27-3.85-11.075-12.705-23.236-20.264-29.257-10.248-8.088-24.36-10.72-34.148-17.756-9.435-6.783-16.055-15.47-19.096-13.9-1.02 3.342-2.328 22.594 1.1 35.015 4.817 20.42 33.967 33.73 58.33 43.746 1.868 1.237 3.52 3.095 3.52 3.758-.001 3.37-3.245 2.296-11.266 1.406-12.12-1.344-17.172 1.917-21.544 12.23-1.3 2.54-4.372 6.91-6.86 9.8s-5.08 5.705-5.453 6.94-2.96 7.496-5.517 12.72c-1.572 3.217-4.168 6.58-4.408 11.358-.732 14.588-1.168 34.194.888 46.575 1.512 9.096 12.923 14.44 16.863 15.22 6.05 1.2 7.087 7.36 6.08 12.38-4.95 24.756-19.4 39.782-23.884 31.58-1.18-2.157-2.34-12.31-2.677-12.187-.22.08-2.49 8.594-1.697 12.076.852 3.746 5.596 6.55 10.32 4.896 7.01-2.452 12.58-9.31 17.092-25 1.846-6.42 3.565-9.995 6.585-10.427 5.513.442 13.993 11.907 13.993 11.907-28.922 23.558-84.56 66.292-84.56 66.292l6.653-782.204 454.012 5.937c1.837 62.034-6.27 114.12-29.154 169.117-27.05 59.21-68.495 102.98-100.44 157.397-38.57 65.704-51.447 134.156-39.33 203.29C75.2 22.57 42.378 46.494 11.197 69.657l-35.633-38.406s5.438-.39 11.794-.576C16.765 27.7 48.6 23.9 61.215-6.535c1.787-3.38 1.068-4.894-1.003-5.386-23.03 2.932-42.975-.526-56.03.25-31.916 1.898-45.515 12.8-45.515 12.8zm3.252 22.548S-74.786 5.728-77.52 5.202c-16.055-3.095-54.623-23.742-61.023-37.557-.835-1.802-2.7-26.897-3.33-32.04.253-1.633.908-1.57 2.504-.378 4.112 2.903 20.07 13.56 25.974 16.51 24.378 12.18 33.77 20.77 39.57 38.756 1.455 4.506 2.976 9.196 3.856 10.17 1.94 2.142 2.77 1.974 5.25.12 10.653-13.473 15.694-24.738 20.72-39.272.65-1.62 2.034-3.267 1.255-5.63-1.846-6.462-6.463-14.855-1.576-21.106-15.365.532-29.937-10.853-27.938-22.074 4.32-20.783 13.12-16.93 29.713-19.78-1.377-48.2 43.58-36 43.092-2.44C50.03-104.8 26.115-59.256-2.58-66.582 8.543-40.428-25.846-31.047-30.613-35.528-32.643-27.14-45.997-.203-48.866 7.817c37-25.603 95.913-13.4 104.485-14.973C33.8 37.2-35.787 25.568-38.08 23.677zm662.677-156.822c9.24 7.28 87.717 57.582 102.29 58.86 0 0 6.896 7.916 12.583 15.1 5.297 6.703 7.263 7.77 7.868 9.12.6 1.34-2.04 1.245-2.482 1.19-35.38-15.85-71.368-32.514-101.823-58.544-4.11-3.567-5.024-5.183-7.038-7.89-2.67-3.616-10.567-16.502-11.396-17.847zm25.746 40.16c35.918 20.714 66.42 40.75 99.24 51.707 4.677 1.813 7.075 1.96 9.398 3.636s12.3 7.997 14.646 9.414c14.93 8.98 16.475 8.58 12.733 10.017-4.145 1.59-30.447-6.4-52.65-14.9-39.386-15.06-53.28-23.5-67.44-36.566-3.184-3.372-18.01-21.507-15.925-23.31zM-71.503 12.27c3.05-.035 7.9 1.914 12.936 5.863 5.385 4.225 18.628 13.095 24.1 15.52l3.68 1.56L4.318 75.956-88.026 149.33l-9.68-10.25c-2.208-2.426-1.542-4.42 1.276-7.11 2.26-2.16 2.483-6.898 2.134-9.227-.518-3.455-.387-7.346 4.024-10.518 3.555-2.557 4.154-7.1 4-8.362-.123-1.01 1.958-4.31 5.04-6.507 6.475-4.612 8.473-10.29 6.377-17.024-.877-2.82-1.36-3.56 2.348-5.974 6.583-4.285 8.256-8.385 8.82-14.746.09-1.008-.17-2.08-.312-2.88-1.214-6.784 4.742-5.004 9.555 3.544 2.624 4.66 3.302 12.268 4.55 20.927 1.467 10.2 2.52 13 3.1 11.566 3.265-8.19-.136-39.124-9.486-43.42-13.67-6.28-25.013-18.905-21.518-23.772 1.21-1.687 1.415-1.102 9.75 2.86 4.88 2.32 9.398 4.208 10.078 4.237 9.69.415 3.855-3.8.704-4.274-3.788-.568-15.053-7.592-16.358-10.027-2.167-4.05-.92-6.067 2.13-6.102zm-23.464 5.052c8.942 0 10.63 2.417 10.638 10.12.004 4.544 1.66 8.06 8.684 17.192 2.863 3.722 4.773 6.575 4.567 8.02-.34 2.385-1.175-.1-11.017-1.373-3.493-.452-5.27-.53-6.515 1.27-3.45 4.994-10.576-.327-14.914-7.792-10.344-17.795-6.518-27.438 8.556-27.438zM75.297 29.875l95.967 120.154-11.07 8.4-96.35-118.542zm-16.35 7.13l10.225 17.71L30.73 87.318-179.794 254.603l-1.68-23.7zm-175.65 1.232c1.9.07 4.046 2.498 7.076 7.235 2.625 4.106 8.258 12.345 14.3 18.035 11.734 11.054 12.9 10.076 3.253 11.006-3.83.37-5.072-.1-7.47 5.698-7.16 8.728-27.663-23.05-22.642-35.067 1.962-4.69 3.584-6.977 5.484-6.908zm33.746 17.408c1.76-.065 4.07.623 6.756 2.294 5.14 2.175 5.47 3.413 4.564 8.333-.866 4.708-4.472 5.9-11.465-.41-5.3-5.114-4.352-10.052.145-10.218zM72.302 60.29L83.57 75.173l-261.81 206.935.33-24.148c6.316.886 174.312-141.84 250.214-197.67zm-201.25.157c.695-.137 1.752 2.253 4.583 6.614 5.76 8.88 11.076 14.75 17.16 19.442 5.75 4.437 6.374 6.886 2.392 6.87-1.7-.006-4.048 1.76-5.293 3.848-2.5 4.196-2.706 3.193-6.48.928-5.39-3.234-10.774-8.086-12.872-14.394-1.976-5.943-2.103-14.954-.354-21.505.305-1.144.548-1.74.864-1.803zm40.78 17.205c6.615-.156 11.288 7.6 6.847 13.765-2.458 2.343-4.665 3.458-9.475.55-6.35-3.836-7.44-9.648-2.17-12.837 1.644-.995 3.272-1.442 4.798-1.478zm-42.745 16.18c1.392-.048 3.872 1.984 8.024 6.34 3.186 3.343 8.752 6.222 10.98 7.498 4.994 2.86 5.22 3.838 2.464 6.06-1.175.947-5.003.967-6.076 3.995-3.07 8.664-15.564-1.58-16.626-14.03-.54-6.32-.556-9.8 1.235-9.862zm31.674 1.384c8.272.437 12.075 10.137 5.43 14.81-3.622 2.547-12.63-2.12-13.487-6.87-.55-3.057 4.913-8.108 8.058-7.942zm193.402 9.33c4.8.053 8.644 3.984 8.6 8.784s-3.984 8.644-8.784 8.6-8.644-3.984-8.6-8.784 3.984-8.644 8.784-8.6zm-26.007 3.304c4.8.053 8.644 3.984 8.6 8.784s-3.984 8.644-8.784 8.6-8.644-3.984-8.6-8.784 3.984-8.644 8.784-8.6zM-106 117.517a15.88 15.88 0 0 1 1.656.018c7.967.477 8.307 8.07 3.522 12.102-2.86 2.41-5.433 3.15-9.065.18-6.488-5.3-3.992-11.944 3.887-12.3zm193.215 14.86c4.8.053 8.644 3.984 8.6 8.784s-3.984 8.644-8.784 8.6-8.675-3.984-8.62-8.784 4.015-8.643 8.815-8.6zm762.672 9.003l.164 21.973L540.42 415.14l-10.227-13.67zm-780.332-6.815L46.32 185.247l-6.667-13.205-16.962-.198 5.373-15.134-9.852-12.263zm480.437 217.22l40.732-31.917c-16.403-87.877 53.36-121.993 118.954-95.79l41.38-34.48c-75.346-64.9-254.684-23.44-201.065 162.185zM5.755 174.322c4.8.053 8.644 3.984 8.6 8.784s-3.984 8.644-8.784 8.6-8.644-3.984-8.6-8.784 3.984-8.644 8.784-8.6zm-26.397 1.83c4.8.053 8.37 3.705 8.317 8.504s-3.71 8.954-8.51 8.9-8.643-4.015-8.6-8.815 3.984-8.644 8.784-8.6zm140.17 19.2l-40.38 31.598c9.408 84.072-31.91 126.37-119.39 96.61l-42.84 33.214c113.847 80.187 265.113-19.858 202.612-161.42zm-123.264 6.208c4.8.053 8.644 3.984 8.6 8.784s-3.984 8.644-8.784 8.6-8.644-3.984-8.6-8.784 3.984-8.644 8.784-8.6zm841.928 11.577c4.8.053 8.675 3.984 8.62 8.784s-4.015 8.643-8.815 8.6-8.643-3.984-8.6-8.784 3.983-8.644 8.784-8.6zm-859.95-7.5l-26.153 50.335-6.205-15.314-17.182.046 5.745-17.608-10.643-9.197zm825.498 14.522l7.808 13.48 16.794.596-6.462 12.676 11.993 12.638L779 272.39zM-83.284 247.05c4.8.053 8.674 3.984 8.622 8.784s-4.015 8.643-8.815 8.6-8.644-3.984-8.6-8.784 3.984-8.644 8.784-8.6zm-25.01.7c4.8.053 8.674 3.984 8.622 8.784s-4.015 8.643-8.815 8.6-8.644-3.984-8.6-8.784 3.984-8.644 8.784-8.6zm869.236 14.844c4.8.053 8.644 3.984 8.6 8.784s-3.984 8.644-8.784 8.6-8.644-3.984-8.6-8.784 3.984-8.644 8.784-8.6zm87.86 2.324l.166 19.295c-80.834 69.76-250.683 204.248-250.683 204.248l-10.325-13.568 260.843-209.975zM-91.17 273.26c4.8.053 8.643 3.984 8.6 8.784s-3.984 8.675-8.784 8.62-8.643-4.015-8.6-8.815 3.984-8.644 8.784-8.6zm869.646 11.77c4.8.053 8.644 3.984 8.6 8.784s-3.984 8.675-8.784 8.62-8.642-4.015-8.6-8.815 3.983-8.644 8.784-8.6zm-24.6 1.29c4.8.053 8.644 3.984 8.6 8.784s-3.984 8.675-8.784 8.62-8.673-4.015-8.62-8.815 4.015-8.643 8.815-8.6zm97.072 4.16l-1.002 24.548-237.878 194.937-11.8-16.68s175.6-147.877 250.68-202.806zM-107.15 276.2l-24.533 53.72-10.165-14.65-15.095-1.196 3.76-14.564-13.766-9.585zm829.556 30.566l15.3-2.733-2.84 15.608 10.612 11.393-56.42 11.74 27.767-50.155zm81.162 263.95c11.22 17.196 10.3 35.834 5.48 38.638-5.003-2.9-9.32-7.862-14.507-10.167-26.098-11.602-46.93-21.12-50.5-37.798-13.862-37.79 50.164-4.976 59.516 9.328zm-136.704-101.5l89.02-70.843s13.447 7.12 15.97 10.316c.873 3.494-1.578 4.537-5.2 7.74-1.675 2.097-2.73 4.12-2.876 8.697-.155 4.93 1.447 7.156-.57 9.307-3.323-.2-6.028 4.103-5.926 7.62.08 2.685-3.465 5.618-5.545 7.617-3.69 3.546-4.766 4.28-7.244 16.41-.248 1.214-.203 4.378-1.936 5.997-5.105.4-8.943 12.846-11.278 13.612-3.72-.28-9.587-4.897-10.956-11.635-.9-4.38-.54-12.863.553-18.317 1.302-6.494 1.924-12.384 1.53-13.953-.912-3.634-3.332-1.435-3.353 3.65-.008 2.067-.874 8.25-2.25 14.07-1.38 5.836-5.032 13.564-3.48 18.193 2.316 6.904 11.1 9.91 15.02 13.595 10.34 9.69 12.56 14.39 13.723 16.527 8.183 15.362 8.18 17.964 5.96 29.43-1.277 6.6-7.71 5.4-11.56 2.67 0 0-24.606-18.33-35.302-27.416-16.203-13.766-27.53-27.774-34.295-43.3zm32.926 49.735c9.42 3.935 33.857 22.085 33.857 22.085l-22.958 46.43c4.005 7.36 5.447 25.53 5.447 25.53 28.405-1.857 43.244 46.15-.907 41.24 4.715 29.624-43.176 52.267-41.285-.71-49.655 3.3-32.37-52.717-1.914-41.83-.65-23.827 15.262-26.735 26.527-32.46 9.3-10.285 15.192-33.736 15.192-33.736l-2.157-7.198c-9.593 16.332-49.707 20.602-93.633 11.396 12.234-28.107 48.38-26.905 81.83-30.746zm-87.938 34.56c-1.56 5.61-1.598 5.544 5.195 4.933 3.437-.31 17.237-.128 26.864.36 17.695 1.578 45.575 2.012 59.68-8.49 2.734-2.55 4.22-2.36 4.71-.94 1.12 6.894-12.715 29.38-12.715 29.38l-22.554 12.14s-9.18.328-20.545-.073l-.424 20.163c-8.967 5.166-24.5 27.563-.13 45.138l-1.055 21.95 21.648.64c14.217 13.913 25.917 13.982 39.254 1.174l24.965.298.166-23.722c12.417-9.755 14.355-26.523 1.923-40.075l-.04-24.075-19.213-.092s-3.94-3.12-4.024-5.566c.004-1.58 14.344-28.476 17.074-32.3 3.55-4.983 2.57-2.122 8.025 9.533 7.8 16.68 15.642 23.532 35.795 33.55 17.98 8.942 24.396 13.094 29.584 18.157 4.13 4.03 6.607 2.804 8.285-3.127 3.634-13.19 2.708-26.44-4.442-38.63-15.094-25.73-41.866-27.208-46.06-33.17-.543-1.416 4.928-2.984 10.818-5.54 10.2-6.048 25.256-24.516 27.247-31.973-.307-3.61 2.202-14.935 3.983-17.43 2.07-4.44 2.32-6.522 2.363-18.506-1.738-6.86.014-15.745.897-18.804.99-6.208-2.232-13.573-6.827-22.62-1.665-8.37-1.282-6.195 4.332-24.952.914-3.03 7.28-29.178-.473-31.06.093.234.803 1.046 1.015 1.48 1.278 2.643 1.87 13.97.653 17.165-.482 1.265-1.403 4.538-2.05 7.3-4.946 21-7.787 26.263-11.997 21.61-1.003-1.1-4.877-2.718-7.848-4.737-5.612-3.815-5.11-5.653-3.64-12.666.353-1.064 2.7-10.702 2.46-10.41-1.26 3.3-2.177 11.872-6.06 13.84-2.076.458-4.912-1.415-10.245-6.114-2.036-1.794-6.408-4.936-6.408-4.936l88.257-70.48-9.058 794.797-450.67-4.825c-5.09-49.294 10.438-114.26 35.68-179.23 15.6-40.15 37.696-69.82 62.64-105.64 47.814-68.3 84.183-137.78 71.45-226.523-1.645-13.167-3.384-19.485-2.726-23.015 5.836-10.665 28.884-42.946 45.617-56.306 24.553-19.605 58.74-48.923 61.436-47.132 7.907 15.678 17.336 28.406 29.896 38.063 2.202 2.445 2.236 4.57-2.918 5.594-33.587-.677-68.243 6.316-79.8 35.905zm-780.07-234.52c4.8.053 8.644 3.984 8.6 8.784s-3.984 8.643-8.784 8.6-8.644-3.983-8.6-8.784 3.984-8.644 8.784-8.6zm842.48 11.35c4.8.053 8.644 3.984 8.6 8.784s-3.984 8.644-8.784 8.6-8.644-3.984-8.6-8.784 3.984-8.644 8.784-8.6zm18.662 24.042c4.8.053 8.642 3.984 8.6 8.784s-3.982 8.644-8.784 8.6-8.644-3.984-8.6-8.784 3.984-8.644 8.784-8.6zm-28.155 3.385c4.8.053 8.644 3.984 8.6 8.784s-3.984 8.642-8.784 8.6-8.644-3.982-8.6-8.784 3.984-8.644 8.784-8.6zM633.5 377.222l15.72-.6c-2.034 5.618-3.155 11.435-4.338 17.268l12.688 9.54-55.455 8.798 24.397-48.78zm-39.354 142.623l-91.87-121.4 11.343-8.967 92.638 120.093zM584.074 402.78c4.8.053 8.644 3.984 8.6 8.784s-3.984 8.644-8.784 8.6-8.644-3.984-8.6-8.784 3.984-8.644 8.784-8.6zm195.628 15.662c7.49 5.96-.157 14.113-7.342 10.783-6.235-2.714-5.693-9.065-.727-11.555 3.096-1.43 5.442-1.04 8.07.772zm9.996 5.714c7.75.21 16.1 18.68 14.476 24.062-2.38 6.257-4.504 6.458-15.337-2.914-10.705-9.262-10.856-9.645-6.432-14.54 2.457-2.78 3.66-6.473 7.293-6.607zm-184.407 1.3c4.802.053 8.642 3.984 8.6 8.784s-3.983 8.673-8.784 8.622-8.643-4.015-8.6-8.815 3.984-8.644 8.784-8.6zm-26.973 3.044c4.8.053 8.644 3.982 8.6 8.784s-3.984 8.644-8.784 8.6-8.642-3.984-8.6-8.784 3.982-8.642 8.784-8.6zm190.744 8.322c8.56 1.365 10.73 7.865 6.735 12.638-5.433 6.456-17.386.404-14.45-7.318 1.333-3.507 4.485-5.292 7.716-5.32zm15.27 9.952c3.36-.25 8.364 4.448 13.812 12.205 6.123 8.718 6.596 11.515 4.776 16.773-2.654 7.66-4.277 9.052-9.776 1.495-2.075-2.847-6.888-9.53-10.335-13.22-7.357-7.883-8.542-5.912-4.035-11.817 2.1-2.737 3.54-5.286 5.558-5.436zm-20.256 8.866c7.657 4.062 8.338 9.247 3.747 12.858-5.39 2.87-14.8-.7-16.574-6.032-2.597-7.784 5.67-11.628 12.827-6.826zm12.925 11.598c4.357-.227 7.895 4.31 13.128 12.972 8.912 14.75 9.35 19.688 1.51 29.26-5.642 6.887-6.2 7.252-11.532-3.88-4.35-9.097-12.692-19.79-20.46-26.23-3.244-2.7-4.354-6.422-1.99-6.648.687-.065 3.59-.17 6.44-.24 4.2-.106 5.713-.657 8.033-2.88 1.533-1.47 3.166-2.263 4.87-2.352zm-31.4 11.082c4.055-.153 9.266 2.105 13.114 6.678 4.365 4.694 3.795 8.94-4.89 9.696-3.923 1.487-14.48-5.606-14.48-10.287 0-3.928 2.677-5.954 6.256-6.087zm20.256 17.216c.213-.01.416-.005.625.007 3.64.215 5.482 3.75 9.485 12.013 6.143 12.684 4.253 19.53-6.672 24.99-7.412 3.705-13.05 4.777-13.95.437-.262-1.26-.226-4.895-.797-8.434-.76-4.71-1.782-9.62-5.873-15.935-6.528-10.08-7.663-13.646-.4-10.618 3.84 1.603 8.037 1.467 12.478-.8 1.957-1 3.618-1.595 5.113-1.662zm-37.07 19.874c-2.527-.08-4.167 1.45-3.53 5.586 2.28 1.153 5.92.143 8.644 1.16 3.674 1.37 5.887 7.39 9.835 6.454.47-5.048-9.388-13.017-14.948-13.2zm-753.07 79.563c-20.198-9.9-70.258-32.85-94.5-33.444-44.798-13.113-47.88-7.418-63.593-11.63 83.656-20.703 140.604 21.524 161.4 41.965 9.437 9.62 4.27 6.83-3.318 3.11zm50.93 197.227c46.804 83.325 90.253 177.21 163.35 316.332l-7.195 2.16-284.63-2.66c15.796-152.617-65.136-299.092-70.787-293.446C-108.156 816.5-54.5 804.65-42.932 781.02l-9.162-2.737c-37.883 31.964-92.255 32.848-129.644 22.42 1.737-79.59-1.806-163.717 1.56-243.267 44.368-2.805 78.84 13.838 103.05 46.5 40.7 54.915 67.944 124.472 103.774 188.26zm-128.077-222.01c11.425-.745 73.44 25.58 101.1 45.035 7.652 8.092 18.802 22.13 18.802 23.492.002 3.7-5.445-.926-32.192-16.578-20.245-11.687-41.278-21.063-61.757-30.077l-2.814-1.238s-1.505-1.773-4.097-3.825c-7.266-5.753-21.392-15.97-19.04-16.81zm29.963 29.365c-.616-.123 61.54 23.175 110.754 63.27 6.544 5.33 14.43 25.036 14.43 25.036-4.337-8.388-82.246-56.185-109.66-67.238-.034-.037-15.523-21.068-15.523-21.068zM-49.8 629.8c3.425-2.003 94.092 52.883 107.313 66.938 6.012 4.704 19.958 27.38 19.958 31.912.002 4.032-4.397.5-12.484-7.14C23.394 681.804-37 651.547-37.498 652.198zm16.588 31.49c42.654 18.61 95.998 62.808 122.88 89.06 6.72 6.8 11.46 16.595 12.328 21.14.54 2.817-.878 2.613-1.452 4.11-34.76-40.805-111.63-87.797-121.853-91.52.05 2.556-8.337-15.764-11.903-22.8zm140.89 127.514c4.876 5.082 12.495 22.8 10.723 24.933-.87 1.05-.78.492-2.833-.97-11.14-11.334-68.443-63.326-116.4-92.668-4.51-2.318-19.45-26.466-16.22-26.9 25.15 8.516 96.705 66.96 124.74 95.593zM3.884 730.34c.834.07 2.333 1.16 4.91 2.617 44.135 24.988 107.818 87.387 119.857 102.35 2.725 4.597 7 13.027 6.622 18.16-.598 4.032-2.176.582-19.934-17.285C86.8 807.61 53.916 779.897 19 756.542c-6.71-4.722-5.4-5.3-10.22-13.896-4.826-8.622-6.732-12.46-4.894-12.305zm284 4.1c31.698 1.256 43.832 25.398 62.866 69.86 15.5 43.774 21.68 83.8 22.058 115.596.025 2.136-3.833.277-5.592-.22-8.465-2.373-19.013-4.62-31.296-1.66-9.023 2.173-17.572 1.822-8.267-4.124 3-1.918 11.153-9.3 15.477-11.922 8.756-5.312 3.467-5.305-5.206-1.152-6.567 3.144-10.98 7.17-13.68 7.786-1.668.38-.573-5.08 1.07-8.99 9.473-22.575 12.414-35.97-1.27-40.33-3.703-1.18-8.677-4.675-11.017-6.998-1.868-1.856-3.396-9.2-3.988-9.514-.63-.32-1.15 6.674-1.15 7.738 0 3.645 4.594 11.08 10.175 15.177 9.476 6.956 11.342 8.872 5.972 25.037-7.525 22.643-9.137 28.19-10.53 33.447l-3.128 11.497c-3.026 12.848-2.8 24.107-2.388 34.82 2.873 23.954 28.526 36.04 63.284 23.142 3.29-1.238 4.638-.073 4.638-.073-27.88 27.73-59.022 45.303-77.685 101.75-22.673-46.992-55.112-83.975-109.556-99.26l-.696-9.768c18.944 9.344 55.735 22.178 79.332 8.475 12.646-8.43 8.89-14-6.408-8.26-18.214 6.836-50.96 5.65-67.212-3.75-3.308-1.913-6.72-.33-7.682-.023-.794-5.503-8.432-26.292-7.2-34.062-.663-1.097 4.99-1.087 6.062.377 4.457 6.1 27.233 24.33 51.12 23.192 11.876-.566 21.674-4.06 32.107-14.825.867-.757 5.073-1.258 5.65-1.894.932-1.022.282-2.57.253-3.122-.248-.83-1.765-3.118-2.75-5.687-1.304-2.25-1.55-4.584-1.307-6.378.046-1.494 1.045-2.272 1.833-3.308.913-1.99.696-4.542.215-5.903-2.102-1.455-1.814-4.123-.664-5.35 3.267-3.616-27.44-32.28-33.518-32.282-2.194.002-.944 4.058 3.484 7.07 15.652 10.65 26.994 24.453 24.366 26.2-2.023 1.354-9.053-1.74-16.225-3.515-14.394-3.544-31.7-5.893-50.635 7.46-7.094 5.696-25.69 6.356-25.69 6.356-.123-10.126-41.644-123.64-41.78-118.73 15.764-17.97 65.143-60.387 114.354-78.357 15.128-4.775 31.345-7.117 42.193-5.54zm-186.057 23.232l88.933 2.364c-22.49 11.005-63.572 50.932-63.572 50.932-11.364-23.517-14.786-35.226-25.36-53.296zm-77.023 10.872c6.63.11 76.59 58.427 86.484 72.124 1.19 1.65 8.26 9.28 15.72 16.926 18.057 18.508 25.468 29.173 25.468 36.723 0 3.566-3.234 1.21-8.047-4.215-36.115-41.037-59.663-63.358-104.51-95.013-5.1-2.805-20.795-24.183-15.362-26.485.073-.028.145-.06.25-.06zm241.384 13.282c-1.985-.09-1.68 1.82-.62 3.59 11.096 10.026 40.678 9.92 50.966 2.03 9.333-7.156-2.84-3.46-6.637-1.884-8.882 3.69-18.355 3.158-30.624-.247-7.156-1.986-11.102-3.4-13.087-3.5zm27.1 16.428c-10.345-.02-21.194 2.964-18.827 6.79.863 1.397 3.662 4.026 10.465.43 9.814-4.72 29.796 1.834 30.386 1.995 2.04.56-6.6-5.814-9.515-7.138-3.206-1.456-7.807-2.068-12.51-2.077zm-249.37 7.974c37.68 23.636 83.383 70.6 110.754 104.083 4.554 5.764 7.812 12.83 7.812 16.963 0 5.96-1.24 2.643-26.15-23.168-19.536-20.438-49.057-48.3-68.643-63.33C55.922 832 53.822 830.85 48.352 820.53c-5.132-9.683-6.97-14.477-4.435-14.3zm236.29 10.382c-7.17 3.3-16.628 2.482-25.805-.787-8.312-2.962-6.382-.486-3.315 8.65 1.395 4.156 2.223 10.035 2.222 10.9.002 2.024-.002 2.167 5.918-1.06 5.16-2.812 6.256-3.79 17.17-1.12 11.094 2.71 11.285 1.755 16.542-.9 4.583-2.323 5.542-3.736 8.642-2.447 6.07 2.524 12.962 3.646 20.823-.378 6.03-3.086 7.96-.937 10.72.49 3.745 1.936 5.218.747 3.784-3.02-.57-1.5-1.6-7.93-1.608-9.956-.016-3.848-.923-7.325-2.552-6.53-6.015 2.94-10.906 6.084-16.61 5.917-10.46-.307-19.564-6.693-35.93.25zm-462.447 2.765c93.252 118.865 74.65 288.514 71.516 287.1l-74.12-.5zm245.787 26.553c37.477 26.906 81.916 73.575 106.476 105.777 4.177 5.56.71 7.263 2.75 13.938.75 2.478-3.393-1.212-15.25-14.233-14.77-16.225-39.084-40.64-55.112-54.836-17.56-15.55-22.635-19.468-26.355-24.696-2.927-4.373-14.838-25.366-12.512-25.95zM276 859.13c-.4-.014-.798.004-1.188.018-13.452.482-20.445 15.47-9.043 26.245 4.29 4.05 11.14 6.495 11.14 4.343-.005-.512-2.142-2.704-3.645-3.885-9.515-7.485-8.404-18.973 2.524-18.973 3.786 0 4.01 1.352 12.696 7.736 10.217 7.506 22.374 7.65 22.31.217-.046-5.463-2.02-11.08-11.23-10.282-2.42.212-5.647.433-8.466-.313-2.7-.715-4.997-2.394-6.062-2.88-3.19-1.458-6.243-2.152-9.038-2.226zM87.593 891.72c28.682 19.722 67.91 64.036 87.92 90.136 4.584 6.116 4.818 12.824 2.898 16.413-.454.706-3.983-1.544-3.983-1.544-23.165-27.9-49.498-53.32-75.342-79.125 0 0-15.242-25.137-11.494-25.88zm279.678 45.085l-6.276 3.034c-9.303-14.284-17.955-14.576-25.385 1.9l-4.634-1.222c-3.42-3.856 12.9-39.704 36.295-3.722zm-1.266-12.108c2.604.12 7.142 1.58 8.172 4.248 1.16 2.462-.204 5.216-3.775 5.052-.543-.025-3.95-4.302-5.64-6.917-1.254-1.596-.697-2.456 1.243-2.383zM259.68 940.863l-7 .245c-13.112-17.635-23.193-6.008-29.238 1.222l-7.47-1.1c1.408-19.192 35.43-25.504 43.7-.367zm68.144-14.175a8.96 8.96 0 0 1 3.056.628c-2.8 4.145-3.307 7.624-3.97 11.394-2.73 1.094-6.627 3.397-9.473.363-5.303-4.924 3.025-12.61 10.39-12.385zm-109.167.743c3.296.05 2.312-.178.86 1.647-1.466 1.854-3.48 5.152-4.57 8.11-.47 2.06-.822 2.804-2.76 2.85-3.695.075-11.16-1.323-11.11-1.272-2.815-2.718 9.044-11.142 17.58-11.335zm42.24 2.917c2.206-.243 1.654 2.9.934 4.126-1.4 1.627-1.97 2.157-2.726.1-.367-.99-.93-1.778-1.4-2.37-1.072-1.4-.947-1.48.4-1.704.605-.096 2.017-.15 2.8-.154zm114.032 15.23c8.14-.123 2.545 13.624-8.813 16.84-12.574 6.197-26.895 4.52-41.396-3.96-8.272-4.838-10.736-9.866-3.507-7.8 27.24 7.83 33.897 6.51 50.5-3.968 1-.825 2.035-1.018 3.218-1.12zm-262.868-5.917c26.95 23.347 47.133 49.68 68.618 73.977 4.277 5.41 6.25 10.6 5.375 14.092-1.09 4.345-9.9-6.142-9.9-6.142.224.1-52.468-57.41-52.468-57.41s-13.264-24.414-11.624-24.516zm81.204 8.863c1.89.084 5.627 1.002 11.66 2.63 26.08 8.223 34 8.018 49.117 1.28 9.635-4.294 13.59-3.616 9.413 2.956-7.686 12.092-34.364 13.142-54.3 6.123-5.28-1.86-9.902-5.07-14.964-8.948-2.705-2.88-3.352-4.15-.924-4.042zm120.588 9.412c1.568-.085 4.468 1.748 7.998 3.8 21.783 12.674 38 10.574 51.6 2.388 2.468-2.2 3.78-1.118 4.082 1.046 1.066 7.583 1.345 13.027-2.154 16.633-2.035 2.098-5.467 3.016-10.647 4.694-21.305 6.9-47.08 1.513-51.847-14.462-1.517-8.204-2.473-13.917.977-14.1zm-174.322 32.21a.87.87 0 0 1 .25.003c1.533.248 5.038 3.382 10.548 9.774 28.808 33.42 44.74 52.613 41.686 62.156-.27-.003-.48 2.058-1.698.98-15.893-14.035-28.825-29.328-38.405-45.274-10.5-17.474-14.783-27.458-12.38-27.64zm234.96 25.904c-24.83 18.552-55.197 63.03-58.12 85.072-.562 4.212-.147 7.38-1.724 8.888-1.255 1.2-4.04 1.28-7.756.507-2.28-.444-1.732-.69-2.245-3.275-2.005-10.124 7.96-35.442 28.32-65.19 10.684-15.606 34.79-36.573 41.46-36.638 4.43 1.882.007 10.837.064 10.635zm-182.2-12.253c1.74-.03 4.42.907 8.16 2.56 21.997 9.726 30.204 13.267 44.38 25.09 26.415 22.032 55.473 73.98 46.72 78.713-3.843 2.078-6.538.71-8.038-4.1-.273-.875-2.988-8.138-6.258-14.3-17.504-33.04-40.493-55.884-73.075-72.224-12.035-6.035-13.272-5.395-14.136-10.346-.65-3.716.014-5.344 2.247-5.382zm181.746 20.994c2.216-.162 2.703 3.886 1.86 12.01-.685 6.62-1.08 6.48-8.558 14.166-11.92 9.433-26.138 31.74-32.86 54.544.001.796-.63 2.53-1.758 3.48-3.068 2.576-6.9 1.257-9.514 1.175-1.876-1.024-1.3-5.16-.948-7.48 5.636-20.71 19.222-46.07 40.325-68.243 5.935-6.236 9.496-9.51 11.452-9.654zm-177.37-1.38c11.707-.14 52.946 31.394 69.475 58.777 10.802 17.897 13.69 25.222 11.13 27.782-1.354 1.354-7.27 1.507-10.347.26-2.8-1.135-3.83-5.428-8.986-15.382-13.453-25.966-33.036-44.896-54.36-55.015-3.97-1.883-6.09-3.072-7.36-4.513-1.402-2.975-3.15-11.33.45-11.908zm6.055 23.163c3.625.725 13.608 7.358 21.943 13.62 14.74 11.074 37 44.668 32.265 49.394-1.517 1.517-6.7 1.517-9.37.437-15.598-28.506-36.105-42.22-44.407-50.186-2.497-4.303-8.328-14.452-.43-13.265zm-33.116 4.632c.69-.167 3.447 2.604 8.443 7.97 14.76 15.848 24.04 33.334 21.752 42.09-1.937 7.405-4.07 3.315-20.798-29.483-7.04-13.804-10.406-20.33-9.396-20.575zm204.326 2.713c.24 9.025-.514 11.24-1.522 16.015-.687 3.25-2.857 4.743-4.925 7.258-5.148 6.27-11.04 17.14-14.04 25.94-2.52 7.1-1.392 8.82-10.15 7.762-4.083-.58-3.085-1.672-1.43-6.36 5.694-15.39 19.228-40.28 32.066-50.615zM204 1069.027c.237-4.625 39.677 35.966 34.146 40.424-5.2.85-8.294 1.006-10.443-.87-4.156-9.598-22.946-27.92-22.946-27.92zm167.4 14.52a.54.54 0 0 1 .25.003c1.777.384.518 25.064-.99 27.084-2.855 1.402-8.233 1.47-11.093-.124-1.746-.97-2.258-2.738-1.573-4.643 1.706-4.76 10.54-21.763 13.406-22.32zm-150.845 25.478c-1.278 1.946-9.044 2.207-11.948-.04-.93-.72-1.71-12.977-.59-15.185 2.996-1.906 13.555 12.593 12.54 15.224z" fill="#131f67"/>
        <path d="M-277.338-673.81c-31.016.254-46.68 26.035-47.122 52.02l-.735 68.17-18.51-.206-.252 22.625 18.51.206s.203 10.345.082 16.536c-.597 30.626 10.016 49.32 31.08 54.693 20.226 3.914 30.834-.33 46.344-8.14 5.577 2.392 9.443 7.24 15.43 7.912 6.624.743 20.445.582 20.445.582l-.116-23.22-6.9-1.083c-13.198-.374-18.88-5.054-17.36-13.294 2.865-5.348 3.314-9.253 3.653-15.74l1.284-115.302c-.095-28.27-23.005-45.254-45.833-45.755zm-1.22 22.457c14.808-.066 26.916 17.31 26.394 34.952l-.768 89.073c.426 5.61-.54 11.075-3.046 14.89-1.878-5.713-32.15-37.336-47.476-36.062 0 0-.644 1.574-.644-37.572.02-19.228-4.705-47.97 12.708-60.737 4.35-3.128 8.686-4.527 12.833-4.545zm801.497 86.117l4.927 6.618-29.22-.17c4.734 4.088 110.56 223.137 246.18 476.364 22.423 44.425 65.952 60.836 116.677 63.334L729.486-237.07c14.406-7.64 43.065-28.2 60.217-24.132 1.005 5.292 6.134 3.248 6.26-1.442l6.217.194 2.15 3.43 26.123.29 2.17-3.06 22.483 3.5c-59.353-74.85-89.827-189.515-78.278-300.984l-199.586-1.785-2.617-3.53zm-24.292 6.45c-.1-.095-.19-.143-.187-.002zM267.578-416.13c-23.506 73.023-80.292 132.685-114.283 193.02-36.457 65.84-45.5 123.4-36.142 186.547l6.525.635c77.3-103.02 137.652-226.457 172.01-348.125.748-2.65-.432-7.358.206-10.042-1.373-3.243-.1-6.717.804-7.648 1.94-1.996 1.318-9.925.038-23.032-3.16-38.93-2.113-69.445 1.528-104.658 2.803-27.034 2.7-31.292 2.7-31.292l-13.03-.343c1.892 46.1-4.827 102.782-20.366 144.938zm315.03-138.532l21.413.68c2.573 65.493 57.608 74.62 66.146 73.76-14.57 44.1 8.19 92.945 64.227 100.466-13.326 40.894 8.854 95.246 53.76 94.274l4.716 3.053c-2.96 5.877-3.716 18.023-3.547 18.212-10 .62-15.416 2.013-21.912 3.225l-184.804-293.67zm190.363 2.12c-7.3 73.052 6.25 173.644 39.935 233.365 0 0-1.138 3.966-1.87 5.042-3.327 4.895-4.898.61-6.838-3.39-7.164-13.595-20.96-15.852-27.096-8.396-13.57 18.07.843 25.418 11.98 35.83-45.946-3.32-60.71-54.09-49.803-79.002-.29 4.77 2.2 12.006 5.502 17.153 12.702 19.74 31.757 3.42 26.52-12.145-2.166-6.44-10.29-17.228-10.29-17.228s11.213-1.526 15.82-4.24c4.303-2.605 7.053-7.273 6.025-13.714-.825-5.168-1.027-7.425-3.74-12.105-3.344-4.273-9.387-7.268-14.255-6.998-9.5.526-10.725 7.043-16.988 11.45-1.412-11.78-8.845-20.812-21.17-18.725-9.374 1.587-16.225 11.462-10.634 23.984 2.824 6.393 6.872 8.37 10.904 13.93-65.98-8.134-57.907-86.498-50.613-85.014 0 0 1.993-.346 1.37 2.648-3.977 19.152 19.736 30.9 30.343 17.058 6.788-11.24-7.325-29.262-7.325-29.262s9.552-1.94 13.906-4.386c17.363-9.757-.702-38.542-16.833-31.702-5.66 2.5-7.154 7.707-12.68 10.427-3.628-4.13-3.802-8.604-10.364-12.354-18.002-10.287-29.592 13.45-19.682 24.06 4.066 4.3 11.28 8.258 9.853 8.762-56.087-7.717-54.887-66.5-53.607-66.065zm-482.77-4.883l7.732.082c-2.68 34.847-8.142 80.794-5.28 114.834 3.42 32.523 3.538 37.134 1.176 40.328-3.232 3.546-1.563 5.253-.966 8.177.78 5.346.857 5.403.064 8.434-7.11 27.19-16.13 55.35-27.5 83.798-37.25 99.25-97.424 207.246-144.304 263.716-.028-.203-2.115.158-2.145-.045-11.77-79.654 16-145.632 30.43-172.676 29.233-54.83 74.712-101.406 102.05-158.887 23.263-48.912 40.68-107.813 38.744-187.76zm284.53 2.83l185.102 295.017-34.56 16.46L535.94-553.964zM7.112-530.257c-66.8.242-100.312 83.908-44.83 124.884 9.972 7.364 13.017 11.626 10.247 14.396-2.327 2.327-5.412 1.2-10.364-3.834-43.07-43.23-110.54-20.6-117.468 38.57-11.484 98.088 110.418 125.194 142.777 32.06 9.276-26.698 12.78 2.38 3.75 30.794-7.547 26.216-20.464 53.037-35.466 75.33-2.512 3.654-6.155 8.307-6.155 8.307l107.306 1.195s-3.36-4.615-8.136-10.3c-19.2-29.274-29.414-62-32.463-96.086-.686-9.69-.267-17.037 1.64-18.233 3.272-2.052 5.116.58 8.46 12.157 6.877 23.824 20.15 43.377 35.123 50.894 36.23 15.504 66.008 11.257 91.246-21.6 54.6-71.103-32.392-160.66-95.916-103.48-5.83 5.202-9.447 5.734-9.954 1.39-.245-2.102 1.403-4.09 9.346-11.397 54.512-42.322 28.256-116.19-39.055-124.41-3.44-.407-6.802-.624-10.088-.612zM-264.9-488.47c1.33 2.76-3.72 5.42-9.11 6.855-15.207 4.05-29.97-5.562-30.203-27.3-.07-6.622-.42-13.71 1.914-14.73 7-3.053 33.385 26.848 37.398 35.175zm949.394-7.68c4.877.054 8.768 4.065 8.713 8.94s-4.034 8.8-8.9 8.745-8.8-4.065-8.745-8.942 4.065-8.8 8.942-8.745zm-967.557 66.556c-30.545-.264-47.007 41.117-18.2 66.07 5.05 4.373 6.975 8.326 6.616 9.262-.814 2.12-1.572.32-7.736-4.118-27.124-19.53-60.14-2.682-57.563 24.986 3.68 39.5 48 49.343 64.17 13.028 2.86-6.418 4.22-8.406 5.72-8.406 1.37 0 1.527 2.65.83 6.853-3.072 17.154-11.622 35.142-21.147 49.55l49.59.552c-9.996-15.49-14.054-30.7-16.542-49.687-.145-4.994.595-8.285 2.53-8.285 1.303 0 2.03 1.8 4.073 10.265 7.564 31.325 55.845 30.224 64.237-1.285 9.4-35.294-23.752-60.842-51.447-38.763-3.907 3.115-8.328 5.368-9.067 3.15-.212-.636 2.305-5.225 6.726-9.02 28.32-27.053 9.986-63.868-22.793-64.15zm1028.934 31.82a8.94 8.94 0 0 1 8.838 9.036 8.94 8.94 0 0 1-9.037 8.837 8.94 8.94 0 0 1-8.837-9.036 8.94 8.94 0 0 1 9.036-8.837zm-449.003 12.448c3.073 12.8-62.06 203.677-152.943 324.59l39.082 1.248 1.16 4.326c53.866 81.468 18.82 152.615-25.772 185.35l15.084 20.575-13.905 11.002-13.598-16.56c-113.007 82.816-333.77 266.456-333.77 266.456l.886 29.855 17.21-13.247C-59.96 536.885 175.333 533.63 239.49 312.664l16.526.56C216.897 475.27 64.36 537.168-49.93 508.953l-27.272 38.26 7.144 3.924c-1.303-2.07-2.51-2.797-.542-4.663l23.138-29.088c171.198 23.866 275.794-72.015 310.843-203.083l21.87.62c-19.994 110.204-72.835 206.836-147.494 282.094l-146.912-3.073c33.736 33.423 97.748 134.992 100.233 145.25 0 0 66.974 2.88 138.862 1.92 26.474-11.56 61.78-15.923 78.15-7.443 28.765 14.9 55.352 69.297 66.608 156.22 2.9 22.393 5.65 31.9 6.47 36.418.147.813 2.104 1.425 2.392 1.277 1.11-.572-1.798 3.933-1.956 7.29s-.104 8.427 1.48 10.205c2.002 2.25 1.738 3.717 1.448 4.673-.19.628-4.14 4.204-4.14 4.204-1.147 50.553-1.372 96.455-4.83 158.612l9.936.174c1.042-100.066 32.264-192.32 79.506-255.537 28.754-41.515 59.2-86.262 76.222-129.003 19.172-48.1 22.304-98.856 12.798-141.804l-6.816.3c-40.61-28.507-56.617-88.57-5.732-130.79l-17.584-23.416c-50.776 38.36-63.136 110.03-11.644 170.037l-20.404-.29c-50.18-64.076-38.098-136.88 21.285-188.275l-12.97-16.864 14.44-12.442 12.747 14.264 331.33-270.627.1-30.015-25.383 20.12c-145.74-137.778-365.173-44.68-399.017 118.944l-20.016-.012c43.933-175.996 199.12-224.143 310.72-199.43l28.073-41.453c-20.244-5.93-39.9-19.63-58.417-35.768-7.8-6.797-12.732-10.964-18.382-17.744C624-113.64 588.9-191.79 587.215-191.94l-144.057-1.96c-21.253 10.216-57.577 21.698-77.258 5.44-42.26-34.913-55.8-104.543-61.163-149.315-1.624-13.935-2.86-38.16-4.08-46.205-.795-1.48-2.367-1.585-3.79-1.347zM806.75-302.37c4.82.054 8.674 4.027 8.62 8.847s-3.996 8.675-8.815 8.62-8.675-3.996-8.62-8.815 3.996-8.706 8.816-8.652zm18.634 10.49c7 9.28 13.2 18.837 16.617 28.906-3.3-.14-6.43.856-10.082-2.06-.742-10.14-4.843-16.264-10.015-23.07zm-26.486 12.612c2.897 1.46 5.085 12.484 3.028 14.347-3.515.708-5.903.43-7.073-.807-1.727-2.92 1.72-13.003 4.045-13.54zM224.9-190.092l133.74 1.646c23.07 18.097 45.84 15.99 79.013 2.055l148.71 1.656 8.236 15.355-377.133-4.2c2.163-5.647 7.434-16.512 7.434-16.512zm-11.296 23.72l384.882 4.286 9.544 15.763-404.13-4.5zm36.9 23.162l43.185.48-16.3 26.976-44.56-.496zm95.87 1.068l41.216.46-18.645 26.92-40.84-.455zm133.304 1.484l-17.645 26.93-41.904-.467 18.298-26.673zm51.684.576l41.28.46-15.74 26.95-42.747-.476zM-23.14-142.04c-26.76-.604-22.197 34.945-19.66 33.864-16.76-4.034-29.264 3.81-31.49 18.1-1.768 11.343 9.152 27.658 28.588 25.613-2.614 2.948-.17 20.153 2.394 21.747 0 0 .302 2.493-10.182 23.753C-65.934 6.27-68.43 7.444-73.756-9.282c-5.728-17.99-14.794-27.17-38.537-39.025-6.325-3.158-15.262-8.642-19.865-12.19-10.57-8.148-10.695-8.024-10.374 8.29.417 21.185 6.737 30.544 29.207 43.297 10.998 6.242 32.1 15.12 35.928 15.12 2.7 0 12.563 4.558 27.174 12.553 2.854 1.562 12.62 7.08 25.19 8.437 13.343 1.09 43.46-1.726 61.008-11.603 9.847-5.542 13.682-10.556 21.06-24.923 0 0-24.724 1.003-35.98-2.088-23.442-1.637-35.117-.408-53.006 8.63-14.965 7.56-15.813 8.933-9.46-3.762 2.904-5.83 5.625-12.698 8.093-19.536 2.67-6.8 3.358-7.363 9.87-7.953C-9.16-35.33-.94-43.473.538-57.74c.397-3.825-.13-7.873-.13-7.873 9.696 1.544 29.635-3.05 29.238-23.18-.357-18.1-13.21-22.404-29.075-23.824 2.144-9.246-4.404-28.987-23.7-29.423zm.26 5.618C.57-135.996-.217-114.48-10.57-102.375l-12.36-10.407-10.165 9.173c-10.873-7.117-10.538-33.188 10.217-32.812zm641.624 7.405l11.34 17.16-23.81-.265zm-438.09 19.592l44.154.492-17.995 24.707-41.747-.465s9.52-15.796 15.59-24.734zm139.18 1.55L302.86-82.186l-38.59-.43 15.75-25.17zm51.716.576l39.904.444-16.087 27.416-39.435-.44zm93.9 1.046l40.404.45-16.744 27.41-39.84-.444zm91.526 1.02l41.622.463-17.494 27.4-40.123-.447zm-579.615-1.33l19.62 20.22-19.558 19.158L-42.3-86.467zm50.094 20.04C23.682-63.33 1.312-64.843-4.922-76.275l9.24-10.305-11.063-11.102c11.05-17.298 37.052-6.358 34.202 11.16zm-66.5-11.862l-10.862 11.966 11.645 11.444c-7.702 10.45-36.837 9.293-30.7-16 3.9-16.06 20.305-18.838 29.926-7.4zm680.148 4.62l12.093 17.01-23.032-.07zM161.965-78.38l493.733 7.092 13.038 16.302c-172.427 1.05-341.17-6.57-517.28-8.667zm-173.7 8.566c19.432 12.218 4.7 37.344-16.252 32.81-15.576-7.045-18.598-23.315-4.41-32.582l10.932 9.216zM157.46-58.24l-13.47-.087-13.295 15.197c49.028 52.815 46.7 98.127.035 137.134l18.36 21.018c52.345-43.78 64.613-113.347 8.367-173.26zm50.943 2.567c27.326 43.76 50.46 126.33-33.238 200.8L165.3 132.89c72.927-69.655 56.634-129.1 24.972-188.234zm7.706 1.148l112.113 1.686c-25.02 91.2-42.46 144.875-46.584 287.937l-32.406-.173c3.563-3.258-15.817-86.585-39.183-115.662 50.616-83.794 24.376-131.663 6.06-173.787zm-352.667-3.802c1.937.006 5.88 2.558 13.607 7.308l20.024 12.005c15.303 8.804 22.867 17.04 27.11 29.522 3.177 9.346 1.13 9.506-8.195.628-6.936-6.604-14.344-12.308-32.876-25.305-6.528-4.578-8.617-3.86-4.863 1.665 2.707 3.982 8.574 8.54 20.48 15.98C-92.637-11.13-80.788-.4-81.748 1.16c-.873 1.413-2.355 1.273-6.525-.604-1.925-.867-8.15-3.503-13.8-5.873-24.31-10.18-34.6-22.465-35.84-42.714-.43-7.05-.83-10.305 1.365-10.298zm511.65 6.135s3.328 4.492 3.742 6.355c.894 4.025-3.083 7.664-15.553 13.046-4.28 1.847-7.833 2.835-7.747 5.32.503 5.84 11.578 14.87 10.122 22.802-2.636 6.05-18.222 11.848-22.18 18.973-.028 4.933 9.953 12.593 8.442 19.283-.806 1.99-4.08 4-8.935 8.12-9.94 8.433-10.565 9.733-7.027 16.423 8.218 15.54 8.54 14.405-3.03 25.25-11.662 10.928-11.448 10.792-6.04 20.465 5.828 10.426 5.558 9.956-2.496 16.504-7.895 6.418-7.59 7.744-3.5 15.868 3.967 7.857 4.89 7.98-2 13.947-8.048 6.972-9.55 7.698-4.03 16.644 5.7 9.253 6.144 8.87-.494 16.308-6.287 7.046-7.012 7.366-3.7 12.24 4.16 6.123 4.942 7.744.434 14.38-4.87 7.168-4.842 6.656-.525 13.432 3.635 5.706 2.93 12.002 2.93 12.002l-13.874-.186s-.01-7.976-1.597-10.925c-3.852-7.154-3.725-9.36 1.018-15.615 4.867-6.42 4.074-6.982-.318-13.504-4.445-6.6-3.797-6.527 2.155-13.914 5.46-6.776 5.767-10 2.75-13.94-7.154-9.338-7.093-13.238.277-19.28 5.622-4.607 6.164-6.684 1.445-14.735-4.618-7.88-5.203-8.6 3.525-16.306 8.92-7.874 8.823-7.707 3-16.81-5.648-8.83-5.335-9.41 3.98-17.863 9.426-8.552 9.55-8.57 3.562-19.555-5.605-10.282-5.653-10.1 5.63-19.94 11.225-9.144 15.026-10.28 4.077-23.706-6.065-10.62-1.652-11.607 8.562-16.75 17.932-10.68 9.816-10.094 2.512-26.317-6.133-10.89-2.56-10.93 8.4-16.22 2.717-1.133 5.733-2.44 8.828-4.12 7.334-3.984 3.43-7.744 3.43-7.744zm23.277.51l53.52 1.284c-62.925 78.535-93.91 179.533-105.82 286.308l-20.214-.538c-.336-83.496 27.087-187.5 72.513-287.054zm274.83 4.918c30.326 26.1 52.853 41.117 68.924 47.112 0 0-21.99 35.587-23.633 34.26C594.575 9.3 446.094 80.06 410.95 235.787l-19.563-.093c7.908-61.172 24.595-112.15 54.874-165.18 30.03-51.486 57.5-81.464 98.845-119.168zM459.58-50.47l26.368.762s4.885 6.003 7.097 8.173c11.24 13.037 12.248 10.477-12.99 24.357-15.94 8.766-23 12.842-23.967 16.578-.75 3.767 6.79 11.342 7.63 16.398.004.567-21.7 14.748-25.626 16.747-5.464 2.574-5.763 4.84-.47 14.277 6.084 10.85 5.588 10.468-7.907 19.663-13.163 8.97-15.718 8.038-10.254 17.168 7.588 12.68 3.92 15.48-14.374 25.092-4.62 2.427-4.764 4.912-1.65 13.545 4.326 11.996 5.494 10.81-3.973 17.176-11.18 7.517-13.14 7.706-10.733 12.413 6.993 13.68 9.79 17.014.2 21.347-7.316 3.305-7.488 5.22-3.565 14.242 3.944 9.07 4.995 8.72-2.247 13.726-6.7 4.64-10.617 3.547-4.22 11.33 5.06 6.154 4.548 10.963.337 14.66-3.61 1.482-5.358 8.29-4.313 8.452l-9.252.147c-7.134-9.844 1.474-15.34 2.775-16.283 1.202-2.235-.224-3.842-3.086-9.16-3.942-7.324-3.79-8.192 2.044-12.384 5.896-4.236 6.057-3.12 2.266-12.663-4.41-11.102-4.184-12.36 3.006-17.405 7.078-4.965 7.184-6.085 2.52-15.817-4.92-10.265-4.923-10.272 7.643-18.416 8.84-5.73 8.957-5.38 4.43-16.233-3.126-7.496-.828-10.054 11.202-18.095 6.872-4.593 7.398-5.512 4.25-11.1-8.68-15.432-8.582-15.898 6.786-25.614 12.57-7.948 12.474-8.646 7.78-19.477-5.084-11.73-5.56-10.836 11.67-20.903 14.188-8.29 14.95-7.79 9.264-18.023-7.072-12.727-6.637-10.652 21.733-26.447 10.24-6.848 19.384-4.336 9.4-16.303-4.387-5.735-9.774-11.922-9.774-11.922zM-38.497-35.203c1.953-.048 3.45 2.37 3.3 6.818-.417 6.265-3.45 12.45-6.364 18.65C-47.665 2.89-53.708 12.22-56.838 12.22c-7.37 0-7.152-1.65 2.856-20.688 4.568-8.69 9.293-18.62 10.042-20.546 1.622-4.17 3.72-6.147 5.444-6.2zm90.3 29.757c-.166 26.882-84.62 39.487-88.847 25.87 14.823-11.34 58.218-5.75 67.537-15.94C19.4 3.72 4.346 5.38-5.958 5.45c-12.852.087-33.673 5.348-33.91 7.616C-41.133 5.976-17.576-7.04.98-7.668c17.345-.56 36.155 1.704 50.822 2.222zm6.76 41.11l-247.89 199.096.173 29.347L73.266 54.11zm-.606 6.712l10.357 12.866-246.325 196.176-.643-20.852zm770.82 78.38l-8.877 9.27C583.45-50.03 360.897 216.878 479.818 410.908c-1.124 2.47-9.613 8.53-9.613 8.53C337.763 194.245 598.862-64.625 828.778 120.756zM698.01 80.442c13.533.255 38.34 9.824 48.72 22.606 12.085 14.882 8.45 21.413-6.957 7.33-16.59-12.34-30.373-15.313-7.305-.706 5.09 3.222 9.628 9.454 9.856 10.142.82 2.474-3.435-.158-22.824-7.473-11.53-4.35-26.073-15.925-29.8-23.74-2.788-5.847 1.22-8.292 8.3-8.158zm-50.19-.153c4.222.013 7.98.384 10.644 1.18 17 5.086 22.34 7.712 28.64 12.726 4.31 3.43 2.89 5.854-2.134 3.633-5.853-2.588-24.42-8.334-27.756-8.028-4.85.444-.027 3.667 6.908 5.484 15.372 4.027 22.977 8.1 11.973 8.134-5.747.788-30.857.588-37.687-.295-11.4-1.475-28.4-12.083-24.42-15.773 4.295-3.98 21.165-7.1 33.83-7.06zM598.74 95.775c20.22.463 31.077 8.137 8.958 9.413-38.064 5.593-45.454 13.775-3.237 4.402 9.823-2.18 9.603 1.35 2.793 4.594-5.57 2.63-12.5 3.878-18.294 6.61-10.435 4.207-34.24 4.9-43.485 1.266-13.64-5.36 29.604-26.826 53.265-26.284zm162.67 5.25c10.214.378 31.846 15.432 41.394 29.43 6.24 9.15 3.01 15.637-6.498 8.24-1.9-1.48-15.542-13.337-16.287-13.62-1.283-.487 11.293 11.727 13.113 15.147 1.562 2.898 5.157 9.546-1.7 9.607-10.7-1.44-35.546-29.83-35.547-43.71 0-3.713 2.12-5.22 5.526-5.095zm-126.86 6.494c4.26-.1 2.06 2.144-6.087 7.745-14.7 10.105-7.07 8.132 10.068-.45 5.21-2.608 11.482-4.624 13.682-5.004s4.82-.95 5.827-1.248c4.597-1.355 1 4.256-6.52 10.147-15.823 12.396-33.645 22.07-45.906 24.96-15.626 3.683-18.933 4.14-13.064-5.52 9.326-15.352 22.794-27.565 35.553-29.825 2.87-.508 5.027-.773 6.447-.803zm52.43.834c6.493-.057 14.5 1.375 27.11 4.24 8.854 2.87 6.52 3.44-4.144 4.485-20.058 1.966-11.745 4.397 7.734 4.274 26.57.096-13.42 9.43-26.377 11.238-10.095.337-13.053-.054-35.015-4.42-8.37-1.664-3.27-7.752 12.7-15.172 6.53-3.033 11.498-4.586 18-4.644zm164.17 5.422l.528 17.132-324.694 265.4-10.802-12.215zm-109.626 13.5c12.83-.028 31.268 9.076 29.216 14.42-.765 1.994-2.197 1.894-11.96-.82-6.407-1.78-17.896-3.716-16.382-2.276.523.497 9.467 4.032 12.884 4.894 11.3 2.85 24.803 9.407 21.782 11.274-5.287 3.138-10.07.585-16.28-.15-15.53-2.333-40.994-10.472-45.155-14.44-4.72-4.503 12.1-12.87 25.895-12.9zm-150.064-.67c2.31.148 3.152 2.31.91 5.23-3.402 4.383-4.985 8.076-8.057 13.474-10.94 16.488-17.793 22.99-28.203 29.313s-11.874 5.2-10.816-8.183c1.315-13.895 11.435-28.4 25.58-35.124 6.504-.848 10.248-2.517 3.345 5.57-12.25 14.346-3.96 12.96 7.507-3.354 3.645-5.185 7.422-7.07 9.734-6.923zm-41.8 1.472c6.972.042 9.283 2.538.3 6.63-8.552 3.896-25.604 15.54-26.033 16.836-.728 2.196 5.646-1.192 16.233-6.82 14.153-7.524 15.385-7.33 8.485 1.376-7.802 9.843-26.443 22.073-41.017 26.514-20.38 5.338-19.84 1.453-8.32-13.5 11.007-16.272 20.284-23.99 34.192-28.31 6.095-1.893 11.973-2.752 16.156-2.727zm-344.63-1.337c72.303 127.955 29.94 256.674-56.32 321.598-90.183 67.876-229.25 62.24-310.42-21.332l11.508-10.626c-.057.052 127.94 133.34 292.293 18.124 83.4-58.472 119.15-198.35 51.975-296.885zm-330.233-3.396c-.24-.001-.427.032-.564.12-2.5 1.584-12.16 28.94-14.17 40.313-.587 3.328.19 6.607 2.896 9.314 1.902 1.902 5.03.72 5.996.348 6.265-2.752 9.752-7.036 15.356-20.674 3.742-7.458 4.344-16.415 3.656-19.554-.28-1.27-2.264-4.25-4.778-5.96-2.782-1.893-6.718-3.9-8.395-3.906zm1.374 5.734c2.95.005 8.73 4.868 9.408 8.293-.012 5.96-3.535 15.842-6.066 14.34-4.2-5.337-9.134-2.056-9.925-3.986-.483-5.87 3.37-13.5 6.02-18.6.17-.045.367-.057.563-.056zm796.148 13.616c32.78.374 65.272 10.337 88.964 31.805l-12.91 11.576c-55.687-40.64-121.166-29.657-160.194-3.096-38.637 26.294-73.227 85.065-40.913 168.742l-12.12 10.74c-36.498-67.422-15.528-155.755 50.852-196.915 23.405-14.513 53.27-22.636 83.135-22.857l3.188.004zm-484.86 4.383c.995.012 2.468 3.285 2.263 7.276-.246 4.792-2.346 11.025-5.606 12.313-3.674 1.452-5.864-9.472-5.864-9.472a42.12 42.12 0 0 1 9.207-10.117zm586.86 10.285a22.02 22.02 0 0 1 3.748.167c3.656.495 3.65 3.77.173 6.877-3.755 3.355-5.695 3.515-9.415.74-3.32-2.477-3.473-4.275-.555-6.32 1.525-.947 3.82-1.377 6.048-1.464zm-629.594-6.26l10.725 13.527-38.023 29.89-4.504.294-291.142 235.68.173-21.218zm602.397 39.057l-39.65 31.98c-78.076-41.673-141.855 30.33-120.376 96.613l-34.305 29.11C493.87 180.4 672.244 125.3 747.118 190.155zm-205.435-27.76a.83.83 0 0 1 .344.004c.26.06.524.258.776.51 1.36 1.36-1.622 23.44-3.713 27.523-.76 1.485-1.36 3.403-1.36 4.266 0 1.814-7.422 16.908-13.206 26.855-2.18 3.75-4.52 8.673-5.185 10.974-4.797 21.845-14.224-13.472-10.53-33.87 1.737-9.587 15.6-29.264 19.53-27.753 2.008.77 1.847 2.283-1.767 9.918-10.084 21.306-12.676 32.32-2.1 11.727 12.19-23.734 15.36-29.836 17.212-30.154zM-125.75 155.4c1.457.1 2.608.92 3.22 2.63.422 1.458.86 4.474.028 5.938-2.064 4.513-6.27 7.452-10.486 7.134-1.853-.14-3.855-1.792-4.083-3.796-.206-1.813.27-4.88 2.58-7.2 3.04-3.04 6.31-4.88 8.74-4.715zm299.09 4.706c4.65.28 9.417 12.853 6.23 18.54-2.607 4.653-3.07 3.775-7.44-5.333-2.298-4.79-4.046-9.92-4.046-9.92l3.846-2.957c.313-.165.653-.265.972-.302.15-.017.288-.035.438-.026zm-7.902 5.194s4.798 8.924 5.916 16.004c.682 4.323.57 3.515-4.144 1.673-3.705-2.372-4.512-3.732-6.8-6.67-1.497-2.712-3-4.72-3-4.72zm29.415 2.234c2.476-.057 5.103 2.47 7.467 8.615 8.876 23.068 7.75 48.83-2.647 60.88-1.722 1.996-2.14 2.08-4.165.797-1.655-1.047-1.696-11.96-.05-15.033.515-.963 2.095-7.533 2.25-11.257.367-8.818-2.043-9.952-3.293-1.787-1.445 9.436-2.976 16.024-5.5 10.315-1.263-2.9-1.89-5.792-2.84-8.876-4.914-19.914 1.34-43.484 8.768-43.655zM155 172.964s8.663 11.444 12.234 15.543c1.253 2.207 1.196 2.765-.852 3.522-3.494 1.292-15.036-6.584-19.62-9.032-2.464-2.01-1.367-3.515-1.367-3.515 3.204-2.358 6.407-4.674 9.604-6.518zm346.6 4.266c4.7 0 4.674 1.634-.4 8.777-28.398 39.898-22.688 33.99-4.667 12.2 10.02-12.118 11.75-13.264 12.805-10.514.8 2.058-11.234 25.722-17.414 34.277-3.192 4.42-14.014 11.752-19.474 14.44-13.368 6.582-11.864 3.894-6.765-12.732 6.553-25.8 22.524-46.447 35.926-46.447zm-363.164 9.863c74.5 191.4-136.246 272.69-229.933 183.514l11.128-8.658c130.694 90.784 262.263-50.856 204.02-163.488 0 0 5.44-4.423 14.784-11.367zm17.697 4.822c12.598 1.432 30.975 24.71 31.77 37.575 1.89 9.152-.707 10.7-5.1 4.225-7.4-14.04-6.59-5.184-.316 8.747 3.337 7.04 4.035 15.44.48 15.85-4.84-1.037-15.155-17.893-18.287-24.83-7.484-15.206-8.07-12.648-12.016-35.105-.74-4.21.382-6.462 3.478-6.462zm-38.192 5.825C175.07 310.32 48.016 443.4-78.72 355.06l38.617-29.947C26.193 357.827 100.993 319 80.718 226.86zm582.017 27.353l-106.265 86.56c-20.858-72.96 59.162-113.61 106.265-86.56zm-195.553-2.36c3.448-.678 6.124 21.378 6.418 52.293.287 30.242 1.027 33.238-8.246 22.003-3.89-4.58-8.686-8.965-10.793-13.058-6.1-11.87-3.987-24.2-2.07-41.463 1.8-16.097 7.526-13.516 6.4 3.353-.725 10.854-.76 24.356.948 24.356.62 0 .807-1.042.434-2.527-.778-3.1 3.33-38.056 4.907-42.167.68-1.774 1.36-2.665 2-2.8zm-290.318 10.08c7.572 3.06 9.453 28.467.942 52.92-3.657 10.506-9.176 17.334-17.334 21.496-5.822 2.97-7.164 1.993-4.495-3.27 4.9-8.57 7.563-17.477 9.63-28.582.9-10.85-4.926-2.195-4.496 2.45-4.715 20.206-10.646 23.2-9.646 1.86.737-15.72 2.874-22.443 10.4-33.167 3.785-5.37 7.852-12.775 14.997-13.71zm264.05 5.503c3.13.063 3.85 4.268.956 12.418-2.005 5.648-8.824 23.937-8.048 23.88.486-.035 7.768-16.47 9.245-19.148 2.425-4.398 3.316-5.225 5.4-5.003 1.944 8.177-.266 18.337-1.36 26.768-4.546 21.956-19.786 44.515-25.452 37.688-9.232-11.124-4.352-55.704 8.208-69.132 4.73-5.057 8.62-7.52 11.053-7.47zm-401.044-1.09c10.44 77.962-54.15 110.476-109.375 86.38 1.18-.28 109.375-86.38 109.375-86.38zm262.53 4.36l11.023 14.81 20.487 1.29-10.672 15.35 10.216 19.927-22.878.183-13.324 14.978-11.285-13.783-19.987-1.285 11.863-18.463-9.208-17.885 21.604-.79zm-172.095 4.772c2.57.12 15.027 16.875 16.213 23.026 3.653 14.9 1.93 43-3.405 41.965-5.573-20.31-3.203-30.738-5.31-28.436-3.645 3.684 1.85 34.782-.16 42.407-.938 1.94-4.013-.442-7.44-5.49-9.15-13.477-7.317-65.778-.12-73.412.06-.032.137-.064.22-.06zm684.198 39.162L596.42 492.274l14.384 18.943 241.045-194.535zm-365.422-.454c1.11-.214 3.612 1.588 8.3 6.843 8.155 11.27 16.76 26.72 19.822 38.567 1.162 4.607 3.043 10.718 4.193 13.58 1.727 4.296 1.862 5.48.8 6.76-4.44 5.35-22.62-8.45-28.387-21.536-8.1-18.38-8.127-34.86.02-18.72 2.964 5.87 6.627 14.42 6.627 11.043 0-.963-3.54-13.26-6.292-18.76-1.707-3.458-7.917-17.23-5.084-17.776zm362.64 9.132l.338 17.35-237.805 194.427-9.124-11.352L848.953 294.2zm-367.972 6.622c1.106.124 1.657 1.714 1.286 5.233-1.206 11.442-4.305 36.35-3.742 38.555.34 1.326 3.91-16.474 4.72-19.636 4.208-16.483 9.922 23.096 6.015 40.757-.614 2.777-1.845 7.254-2.487 10.004s-2.666 7.442-3.472 8.68c-6.792 10.423-22-31.546-19.132-52.8 1.792-13.242 12.86-31.226 16.813-30.783zm-272.68 6.12c3.084-.13 3.644 2.9 3.053 9.253-2.024 21.78-16.773 44.51-32.72 50.42-15.88 5.886-17.337 4.652-7.834-6.556 7.205-8.498 11.6-17.456 10.427-18.635-.654-.653-2.274 2.93-8.115 10.254-7.322 9.182-8.425 1.326-1.708-12.207 5.8-11.688 11.166-17.78 21.903-24.85 7.575-4.99 12.27-7.562 14.993-7.677zm143.2 8.22C347.27 409 322.73 510.72 276.556 598.875l-42.217-.376c52.54-75.568 86.583-169.474 97.034-283.156zm18.56.3s6.258 6.64 8.783 11.098c2.784 4.918 3.53 9.195-1.674 12.795-6.048 5-8.525 3.088 1.106 15.763 5.075 6.68 3.4 7.743-3.054 13.248-6.652 5.683-7.033 5.986-.998 13.834 6.458 8.397 7.626 9.69-.99 16.02-7.763 5.705-7.873 7.063-1.966 16.542 5.44 8.73 7.12 8.664-3.602 17.523-9.16 7.568-9.348 5.442-.75 19.65 3.163 5.227 2.935 5.56-3.026 10.717-14.646 12.67-13.88 11.877-11.858 15.275 15.642 22.953 8.46 22.222-7.21 32.922-3.167 2.65-2.393 5.685 4.497 17.145 5.856 9.74 4.966 11.822-9.112 21.275-14.66 9.844-15.15 11.188-8 21.475 7.053 10.133 7.22 9.45-4.532 19.7-5.305 4.627-9.662 8.893-9.662 8.893l-25.78-.287s5.5-4.9 9.242-7.616c21.345-15.434 21.24-13.777 12.437-25.176-7.79-10.087-7.017-10.736 1.057-16.364 5.805-4.05 13.613-8.203 19.482-12.346 3.162-2.196.862-4.082-4.25-14.017-5.73-11.135-6.06-9.857 4.927-18.696 12.03-9.676 12.223-9.31 5.9-21.81-6.343-12.536-6.463-11.455 1.795-18.044 12.277-9.796 12.85-9.257 6.576-20.834-5.005-9.234-5.058-8.974 3.664-17.492 8.795-8.59 7.708-8.055 2.648-16.065-5.142-8.142-4.857-9.23 2.108-15.3 7.504-6.53 6.448-6.14.382-14.653-5.978-8.39-5.892-7.767 1.564-14.14 3.92-3.35 7.86-6.756 7.656-8.353-.527-4.117-4.388-9.997-8.107-15.654-1.418-2.157 1.477-2.782 6.147-7.526 4.75-4.826 4.526-3.603 1.05-10.114-1.88-3.523-5.457-9.468-5.457-9.468zm-69.092-.55l7.34.27a39.94 39.94 0 0 0 2.931 3.439c4.664 4.865 4.84 7.69.074 10.22-4.574 2.427-2.868 5.917.872 11.542 3.967 5.967 3.938 5.287-1.904 11.042-6.02 4.784-9.117 6.122-2.64 15.378 3.692 4.3 3.18 8.69-2.67 12.44-4.495 2.883-11.935 5.236-4.246 16.485 3.723 7.998 4.03 7.492-3.99 13.05-10.672 7.397-12.648 6.068-7.91 17.07 5.272 12.24 5.805 12.43-5.385 20.473-13.004 9.347-13.453 10.1-8.21 21.535 5.29 11.523 5.46 8.62-8.307 19.096-10.086 7.676-12.365 8.078-9.475 14.552 5.415 12.126 7.73 15.39-8.543 23.5-18.792 9.367-19.742 10.067-10.93 24.41 7.168 11.666 5.565 10.003-6.563 16.803-17.532 9.83-25.274 14.11-25.85 17.213-.394 3.517 13.437 14.15 13.437 14.15l-24.318.386s-10.128-8.4-14.05-12.314c-10.877-10.826-11.035-7.322 25.714-24.653 20.28-9.565 18.564-7.364 15.334-13.11-9.537-16.976-9.857-18.735 8.497-27.72 15.947-7.806 13.23-8.408 9.5-20.52-3.243-10.556-2.72-9.58 5.706-15.687 20.368-14.76 19.802-13.215 16.73-20.596-3.022-7.263-5.367-10.655-2.998-14.2 7.396-10.36 22.907-12.405 16.716-24.91-2.865-8.052-3.9-9.858 5.093-16.694 8.114-6.602 8.15-5.79 3.1-14.685-6.177-8.18-5.26-9.505 3.988-15.77 6.606-5.906 6.517-5.75 2.91-11.625-4.97-8.1-4.723-8.345 2.57-14.597 5.94-5.092 6.968-5.36 3.28-11.09-4.892-7.602-4.05-9.25 2.55-12.88 4.047-2.225 4.036-3.15 3.734-7-.058-.74-2.1-5.024-2.1-5.024zm91.177 1.453l33.84.47c10.1 62.87 28.694 88.83 39.385 108.82-43.554 68.218-34.46 125.38-8.9 176.162l-107.176-1.6c28.525-93.698 43.746-188.12 42.85-283.853zm-232.3-2.337c1.245-.076 2.098 1.946 4.157 5.547 6.652 11.634 1.675 27.972-8.44 45.034-7.567 12.765-8.804 2.937-5.202-15.528 2.27-11.642-3.803 5.772-6.752 19.832-1.6 7.623-5.33 13.747-9.305 13.335-3.74-.65-2.463-11.343-2.316-13.714 1.037-16.857 7.455-28.734 19.85-45.344 4.695-6.29 6.598-9.076 8.01-9.16zm345.11 36.845c1.61-.055 3.847.64 6.6 2.26l8.662 5.16c9.33 5.273 10.07 6.855 5.554 12-5.588 6.365-9.094 3.876-18.518-6.926-6.358-7.287-6.41-12.354-2.298-12.495zm-3.282 14.09c1.515.053 4.622 1.72 7.63 5.242 6.103 7.143 5.29 13.112-1.532 11.327-2.75-4.116-4.122-10.353-6.74-14.982-.596-1.052-.267-1.62.643-1.587zm302.284 4.272c-5.993-.057-16.116 7.742-18.114 15.768-6.097 24.483-6.077 23.42-.895 27.054l3.412 2.32c3.035 2.448 7.163 6.23 7.72 5.493 4.974.082 12.88-31.285 12.703-37.767.4-6.84.638-7.665-1.036-10.793-.76-1.42-2.11-2.058-3.8-2.074zm-306.893-2.886c.4-.072.898.148 1.493.642 3.884 3.95 5.386 10.96 7.322 15.99 0 1.085-.474 2.862-1.044 3.926-3.466 6.476-8.676.1-9.095-11.133-.235-6.316.125-9.208 1.324-9.423zm305.896 8.25c.264-.013.517-.005.75.008 4.022.226 3.35 4.378-2.303 10.35-2.973 3.14-9.05 4.576-11.03 2.596-2.88-2.88 3.22-10.64 9.796-12.454 1.07-.295 1.995-.462 2.787-.5zm-679.777-4.132c.226.003.437-.01.656.007 2.102.155 3.856 1.125 5.22 2.746 2.644 3.344 1.46 8.455.14 12.72-3.303 11.184-24.572 32.675-32.116 32.676-4.482-.833 14.56-24.48 15.193-28.49-1.383-1.383-13.168 11.925-18.737 21.2-2.522 4.2-5.392 9.38-6.896 10.268-3.926.408-8.475 2.855-8.472.218.78-11.912 24.406-37.627 32.438-44.767 4.93-4.54 9.177-6.556 12.574-6.58zm56.265 1.752c18.032 0-17.906 39.055-40.935 44.485-7.173 1.69-20.364 2.01-21.288.513s.146-2.693 3.1-3.434c4.754-1.194 28.385-15.863 28.385-17.623 0-2.2-9.734 1.346-18.075 6.612-5.4 3.41-7.91 2.663-4.952-1.493 13.698-19.237 31.85-29.06 53.765-29.06zm312.074 3.538c1.023.094 2.025 2.14 2.613 6.686 3.183 8.5 3.314 10.8.196 13.253-5.335 4.196-6.625 2.99-6.456-6.79.14-8.06 1.942-13.306 3.647-13.148zm-594.057 4.604s6.55 2.54 3.78 5.636c-1.924 2.152-9.996.21-9.996-.424zm905.722 10.336c2.148-.116 2.178 1.865.986 6.855-.626 2.62-3.376 16.408-8.007 20.193-.56.36-7.18-3.687-8.97-5.538-.82-.857-3.403-2.824-3.736-4.104-1.088-4.188.187-9.604 3.387-12.276 1.25-1.044 3.743-1.6 5.08-1.6 1.05 0 4.167-.984 6.93-2.173 1.934-.833 3.352-1.305 4.328-1.358zm-903.52-.53c4.33.017 9.642.54 14.134 2.126 13.252 4.013 37.52 15.21 41.23 18.835 5.405 5.28-8.915 10.68-26.058 10.68-9.1 0-10.782-1.908-23.27-9.572-1.603-1.08-8.874-5.97-6.727-7.7 2.356-2.357 9.34.788 18.036 5.326 2.836 1.48 9.783 1.143 9.783-.14 0-1.5-17.388-8.194-30.425-12.496-8.56-2.824-8.33-5.576-3.05-6.69 1.512-.2 3.75-.377 6.348-.367zm-17.253 5.777s3.584 3.245 8.237 6.81c5.05 3.87 10.913 8.642 14.96 14.95 5.872 7.325 15.08 25.492 13.993 28.75-2.49 7.472-27.48-5.966-47.8-26.753-6.605-6.757-10.463-11.774-10.463-11.774l7.922-7.006 14.7 12.946c14.776 13.334 14.727 8.8-.13-5.22l-8.073-7.528c.227-2.512 2.628-4.706 6.652-5.176zm613.924 7.46s7.928 8.413 10.864 12.278c-49.438 47.264-68.854 113.85-22.442 185.512l-22.654-.346c-41.503-83.976-20.68-146.62 34.232-197.444zm-413.653-2.637c3.042-.103.234 3.444-5.265 12.567C67.156 430.37 65.1 434.676 48.7 438.766c-4.225 1.042-10.22.108-12.693.4-7.046.803-3.906-.053 6.953-6.923 15.047-9.522 2.304-4.68-11.588 2.277-8.046 4.03-16.436 3.732-17.144 1.6-.39-1.18 3.288-4.235 5.664-6.312 21.244-18.573 27.69-17.71 47.336-24.287 8.574-2.87 13.38-4.663 15.46-4.734zm-88.123 16.176c7.614.13 14.707.972 21.005 2.453 4.17 1 10.97 1.9 5.172 7.027-6.57 6.045-24.224 14.203-37.228 14.618-1.826.047-28.565-2.14-22.79-7.817 1.148-.624 4.78-.416 7.918-.975 14.856-2.64 10.87-5.072-7.4-4.3-22.87.965-23.888-1.41-6.528-5.948 12.696-3.32 25.155-4.96 36.56-5.062l3.28.006zm122.098 3.1c10.174.013 18.06 1.917 18.062 5.795 0 6.29-19.42 19.867-32.096 22.457l-9.43 1.958c-4.42.946-28.838-.175-31.21-1.066-11.393-4.28-3.416-5.823 17.6-8.023 9.142-.958 13.526-3.303 13.526-5.037-.001-.843-6.726-1.154-16.75.001-11.2 1.3-8.968-1.977 5.038-9.038 9.253-4.664 23.737-7.06 35.268-7.045zm-188.367 6.622c1.423.052 4.844 1.27 10.522 3.71 12.14 3.68 28.83 7.875 40.15 20.51 9.153 9.064 11.375 11.977 9.395 15.106-2.4 3.8-31.08.568-43.106-4.73-7.944-3.5-17.377-10.926-21.652-17.305-10.357-15.452-5.883-19.442 7.377-8.575 15.98 13.096 18.354 14.45 21.222 13.893 1.153-.224-1.655-2.91-7.016-6.985-13.467-10.238-20.02-15.74-16.9-15.627zM27.45 444.25c13.504.168 16.408 1.212 29.45 7.36 16.343 5.965 12.307 11.066-16.89 18-14.62 3.26-29.265.697-39.842-5.975-23.306-14.702-21.726-17.572 4.402-10.827 8.587 2.217 17.16 2.708 17.708 1.104.42-1.23-9.966-3.997-18.393-6.893-9.127-3.136-1.256-2.79 17.063-2.78l6.5.01zm674.555 69.9s-3.015 1.385-4.347 2.097c-1.052.564-9.174 1.488-18.055 2.05-17.512 1.107-29.31 3.78-39.973 7.93-16.097 6.263-27.035 26.013-27.035 26.013 11.988-.68 79.657 12.333 98.742-11.885 3.996-5.07-10.542 38.492-17.772 40.352-17.846-2.345-25.68 25.613-23.877 24.45-18.102 6.783-32.125 10.728-27.776 31.698 1.897 9.145 11.022 20.084 30.642 17.578-5.74 36.216 38.547 46.094 43.925 2.42 0 0 8.675-1.553 12.01-1.9 20.293-4.57 25.526-34.085-4.075-43.798-8.215-2.533-8.663-4.087-8.663-4.087 1.61-6.656 1.323-13.663-3.417-21.497 6.726-15.542 23.372-45.47 23.372-45.47zm3.035 9.058c4.023 5.5-17.376 14.292-40.077 15.99-5.09.38-16.29 1.282-16.583 1.784-2.49 4.25 43.84 1.66 58.354-6.257 4.97-2.71 5.39-.274 3.196 3.967-16.985 21.343-57.344 15.587-88.905 11.454-1.783-1.834-.223-4.04 6.92-9.705 13.104-10.39 22.494-13.804 43.02-15.678 5.724-.12 31.53-4.68 34.072-1.555zm24.79 22.555c-3.015 9.23-18.542 37.327-18.542 37.327-1.89 1.847-8.568 3.1-7.987-4.058.165-7.68 14.9-39.165 18.787-39.73 4.64-.305 8.012 3.143 7.74 6.462zm9.625 2.263c4.096 32.486 28.626 40.473 52.13 50.96 6.184 2.92 11.398 8.04 17.593 11.384 11.85-15.788-.958-46.847-21.396-57.148-15.188-7.294-29.037-13.12-37.644-12.576-4.98.314-10.57 3.448-10.683 7.38zm12.652-1.796c2.643 0 6.417.81 20.168 4.63 20.757 5.77 35.274 21.3 38.883 41.56.146.82 1.04 16.51-2.542 15.91-5.405-1.62-8.266-7.1-16.922-10.844-10.8-4.663-25.974-10.802-35.224-19.393-7.472-6.94-11.514-14.368-12.364-20.702-.86-6.573 1.344-7.22 6.802-1.862 12.244 9.966 24.387 13.463 36.495 23.095 3.364 2.676 15.47 9.562 7.245 1.063-5.57-5.757-22.053-15.87-30.815-20.202-12.18-6.022-18.756-13.256-11.728-13.256zm-938.115 21.93L-48.85 787.92c-34.557 17.738-51.58 25.485-108.577 20.386l.187 2.877-24.223-1.682c41.14 65.82 91.864 151.654 75.547 300.228l170.032 1.72 2.884 2.726c2.467 1.706 6.25-2.882 6.25-2.882l76.705.444 2.047 2.498 35.767.15-240.56-460.673c-33.063-61.326-67.9-88.796-133.212-85.55zM694.1 585.18c9.168-.124 18.212 6.277 18.14 18.516-.038 6.375-5.516 15.207-5.516 15.207l-12.322-12.01-12.038 11.782c-5.807-4.913-9.18-14.176-7.2-19.404 3.764-8.93 11.808-13.996 18.94-14.092zm-144.414 2.736c11.302 46.17 23.355 109.797-80.723 255.367-61.56 86.1-82.297 167.742-85.83 267.623l-6.125-.037c3.504-54.798 5-154.204 5-154.204l5.775-5.03s-2.557-4.255-3.647-9.23c-1.838-8.382-.242-5.577 5-27.977 22.15-108.215 160.552-326.514 160.552-326.514zM2.432 602.95l519.16 8.156-7.057 13.547-502.366-9.188zm692.007 11.643l19.07 18.995-19.078 20.945-19.61-20.97zm-15.902 7.806l-10.643 11.067 9 9.694c-9.606 19.598-34.413 3.945-33.413-10.79 1.17-17.238 21.406-24.086 35.046-9.97zm33.07 22.6l8.496-10.557-9.352-10.482c15.674-15.137 30.183-1.5 31.458 11.3 1.36 13.633-20.046 28.768-30.603 9.74zm-614.76-19.872l42.524.88-16.14 29.416-43.12-.668zm94.742 1.274l39.06.435-16.833 29.814-39.53-.44zm92.244 1.027l41.435.46-17.145 29.81-42.56-.474zm92.744 1.033l42.404.472-15.77 29.826-43.997-.5zm94.463 1.052l40.872.455-16.895 29.814-42.06-.468zm-451.35-4.87l27.467.306-11.438 19.624zm684.674 26.552c15.58 12.795 4.425 33.406-11.958 33.593-11.282.13-27.444-19.135-9.554-34.488l11.68 10.918zm-577.944 9.513l39.935.445-15.33 26.83-39.123-.436zm88.773 1.207l43.8.488-15.737 26.826-41.685-.464zM309 662.96l43.59.485-14.52 26.84-44.028-.5zm93.463 1.04l43.247.482-13.77 26.848-45.716-.51zm-356.677-2.94l27.56.307-12 21.493zm20.43 31.542l404.654 8.1-7.02 13.048-387.54-4.253zm13.956 23.657l379.216 5.16-8.92 18.058-131.017-2.053c-25.356-19.37-54.673-10.872-88.126-.387l-139.74-1.556zm531.67 52.267c20.737 27.162 35.415 64.835 41.2 94.496 5.722 30.324-1.017 45.07-8.457 18.5-12.083-66.36-90.487-76.902-126.093-26-49.46 70.7 34.833 158.132 96.6 100.894 5.27-4.885 8.18-6.05 9.92-3.952 2.02 2.435.58 4.575-10.422 15.416-42.94 42.313-27.847 104.068 29.49 119.023 81.387 21.23 131.838-77.97 61.03-125.86-7.356-5.727-8.123-7.163-5.387-10.186 2.445-2.7 4.538-2.358 11.073 3.686 60.52 55.985 144.834-15.34 106.983-90.502-29.154-57.892-112.177-48.25-132.73 15.492-3.832 11.882-4.116 12.564-6.186 13.87-8.5.232-2.2-27.81-.826-35.23 9.98-32.705 20.95-63.293 41.55-88.45zM-46.8 791.787l196.503 317.926-44.2-.992-186.62-299.096zm982.205 29.364c1.318 1.012 19.38 52.477 15.69 57.143-1.172 3.694-4.307 2.38-5.475-2.28-11.127-44.403-66.002-37.558-66.002 8.234 0 28.358 28.977 40.923 54.49 23.608 3.783-2.567 5.5-2.598 5.5-.095.002.75-2.96 4.59-6.596 8.552-20.593 22.44-13.283 53.834 14.108 60.567 36.808 9.05 55.145-32.288 27.73-62.476-3.987-4.39-7.244-8.424-7.244-8.956 0-2.25 3.103-1.83 6.678.887 25.386 19.29 56.72 6.817 56.692-22.558-.04-38.77-48.11-49.522-61.756-13.813-3.398 8.893-5.037 11.254-6.7 9.613-6.44-3.47 18.006-58.48 18.66-58.473zm-1022.525-9.25l185.546 297.164c-8.663-.298-16.712.144-25.378-.084 4.124-55.067-39.932-81.397-65.973-83 16.347-64.27-30.334-91.91-61.62-97.377 13.642-83.61-55.557-96.258-56.575-95.426.414-6.872-.824-11.845-1.684-17.6l25.685-3.688zm-30.644 4.336c-.426 1.768 3.352 18.5-4.077 15.34l-.36-15.36zm-39.757-.016c2.572 11.126 8.25 13.4 15.91 20.92 0 0-9.923 1.57-12.2-.042-4.086-2.892-12.485-21.064-12.485-21.064zm29.325 19.1c4.787.053 8.612 3.996 8.56 8.783a8.65 8.65 0 1 1-17.311-.193c.053-4.787 3.965-8.644 8.752-8.59zm17.084 6.86c24.854-1.35 60.577 25.694 50.524 75.44-1.614-3.5-3.485-11.182-7.455-16.662-16.866-23.282-37.376 8.138-23.932 21.204 6.6 6.405 9.682 8.935 8.958 9.502-15.276-3.076-27.025 10.352-20.82 25.468 10.403 19.59 25.273 9.44 33.94-2.017 0 0 5.06 17.486 10.265 19.76 7.966 3.48 19.054-.693 22.923-10.322 5.754-14.322-7.808-18.16-10.71-26.202 28.722 1.256 64.86 43.658 47.8 79.89 2.277-8.278-6.416-26.967-23.768-22.368-8.68 2.923-11.828 15.48-5 28.506 2.185 4.17 3.374 5.725 3.374 5.725s-7.493.905-9.472 2.093c-22.6 13.572 5.92 51.6 22.885 28.215 1.735-2.783 4.564-5.955 4.564-5.955 2.7 5.28 3.46 12.683 8.463 15.272 20.566 10.64 30.03-11.232 21.46-22.1l-10.272-13.184c-.82-3.888 61.844 13.292 53.5 74.345l-166.61-2.082c16.5-93.747-19.708-201.612-38.43-234.57l8.387-10.814c2.027 4.08 5.356 14.328 11.414 16.353 19.257 6.437 25.296-7.006 22.86-20.92-1.297-7.41-11.583-13.474-14.86-14.578zm43.134 88.88c4.544.05 8.177 3.797 8.126 8.34s-3.766 8.177-8.3 8.127-8.208-3.766-8.158-8.3a8.27 8.27 0 0 1 8.341-8.158zm988.874 87.03c-10.966-10.466-23.225-10.316-34.32-9.227l-.862 23.274s27.45-1.058 23.646 13.118c-1 2.777-2.43 12.115-2.43 12.115l-1.69 119.387c3.87 52.52 71.31 63.774 88.516 14.166 3.303-8.467 2.863-16.197 2.966-25.475l.7-62.946 19.216-.17-.486-22.376-17.598.077c1.636-31.425-3.458-61.763-25.46-69.198-24.197-7.58-39.497-1.567-52.198 7.254zm56.698 54.364c-11.18 1.905-26.558-19.34-39.236-34.588 6-11.254 23.894-9.013 30.493-1.986 9.563 10.185 8.688 28.8 8.743 36.574zm-984.133-42.86c4.6.05 8.27 3.815 8.22 8.405s-3.815 8.27-8.405 8.22-8.27-3.815-8.22-8.405 3.815-8.27 8.405-8.22zm935.62 30.5c11.532 23.143 47.545 41.206 48.128 37.69l-.505 63.32c1.557 25.382-7.5 37.643-23.59 39.115-28.188-.006-27.484-35-27.274-54.516l.32-62.496c.267-7.52-.535-16.915 2.92-23.115z"/>
    </g>
</svg>