<svg xmlns="http://www.w3.org/2000/svg" width="224.225" height="312.808">
    <rect rx="10.63" width="223.228" height="311.811" x=".498" y=".498" fill="#fff" stroke="#000" stroke-width=".997"/>
    <path d="M140.76 26.92s25.294 36.56 33.872 43.05c.63.296 11.207-1.724 11.207-1.724-5.42-12.977-8.908-26.403-5.4-41.455zm14.055 57.82c-17.437 4.922-34.842 9.55-53.746 1.527l-20.644 19.945c-.17.514 26.752 12.112 27.175 10.843l-6.627 21.154 15.278 3.363 7.014-22.502s21.093-2.024 30.883-5.382c7.443-2.554 15.14-4.406 21.788-9.954-13.73-8.25-21.136-19.092-21.12-18.994zM49.932 90.638c-6.61-4.056-11.775 4.29-6.935 8.46-.57 2.435-.762 6.058 1.594 7.65 2.165 1.368 6.202-.05 6.785-.036.04.001.105 4.383-.232 4.37-.626-.02-2.99-2.034-4.447-2.47-4.926-1.477-11.854-2.205-11.732-1.95.206.426-1.227 1.437 4.27 4.888 2.042 1.282 8.492-.162 13.63 1.46 3.13.987 6.207 2.63 7.907 1.81 2.15-.898 4.654-3.733 5.463-6.042.228-2.522-12.9 2.935-12.092 3.023l-.04-5.083c5.286.582 10.057-3.25 4.862-9.817 3.87-3.846-1.543-13.01-9.03-6.26zm22.022 23.25c-13 13.105-39.574 37.7-39.574 37.7l.284 18.355 25.96 23.23c2.057-24.66 16.07-47.676 29.415-59.2 1.226-3.502-13.26-18.866-16.086-20.095zm92.625 4.533c-1.96 15.163-3.74 35.842-29.464 58.828 4.458 7.592 10.132 15.318 18.297 19.006.58 1.304 23.602-23.823 37.765-35.703l-.075-16.092zm-115.942 3.255c-.053.33-1.004 4.313-1.248 4.208.02.217 2.634-.97 2.93-2.064.26-.958.86-2.255.898-2.438-.6-4.1-1.705-1.188-2.58.294zm-9.63 10.6c-.935 2.257-1.81 6.402-1.486 9.1 4.606 2.305 5.857-7.284 4.62-8.2-.742-.313-2.5-.92-3.132-.9zm142.237 43.97c-.427 1.912-.337 2.48.514 2.853 1.49.653 2.16-.136 3.358-3.25.713-1.854 1.348-4.643.773-5.752-2.825-1.97-4.318 4.705-4.645 6.15zm-69.653-4.493c-.904.007-1.774.08-2.58.266-7.602 1.74-7.027 15.022-8.317 20.32-23.88 3.408-30.197 5.03-36.74 7.718-10.174 4.18-13.396 6.73-16.088 8.834 1.692-.198 19.948 16.825 20.89 19.228-1.16-3.295 35.318-11.314 54.747-3.26 2.383.853 20.535-17.616 19.962-19.677 2.356-4.125-22.88-8.76-26.062-11.336-2.61-14.054 17.63-21.753 3.613-21.343-2.55.074-6.195-.775-9.423-.75zm63.513 15.79c-.45.53-.903.812-1.488 1.434l-1.333 1.758.97 1.57 2.487-2.743zm-17.807 17.675c2.62-1.182 11.92-5.69 12.32-4.648l-.197 4.513c-1.423-.466-10.606 1.052-5.295 10.53-3.345 7.53 4.11 11.413 9.33 6.435 10.943 3.754 9.478-7.195 7.22-8.964 1.78-2.764-.457-8.65-1.57-8.67 0 0 9.55 2.153 8.615.453-.426-.776-.96-2.114-3.08-3.53-2.446-1.633-6.742-1.04-10.22-1.768-3.718-.778-6.11-2.107-9.236-2.295-4.716.43-9.117 4.57-7.885 7.943zM50.884 240.754l-13.157 3.516s4.256 9.876 5.728 18.682c1.8 10.772.362 22.483.362 22.483l38.185.193z" fill="#e2cf00"/>
    <path d="M206.21 301.715c-5.026-1.746-5.13-4.91-5.302-8.94-.297-6.116-.244-12.55.634-17.533.336-1.515.517-2.3-.996-2.826-.834-.288-1.67-.172-2.503-.3v-3.77c1.584-.085 3.056-.082 4.393.7l1.273.773c1.97-1.863 7.143-2.14 9.602.16 1.63 1.643 2.157 3.018 2.263 6.72.078 2.73 0 2.916 0 2.916l2.836-.016v3.668h-2.836s.063 1.823 0 5.775c-.05 3.076-.11 5.087-.323 6.55-.966 5.104-5.512 7.263-9.04 6.113zm5.44-6.316c.988-2.633.575-12.81.575-12.81-4.234-1.627-6.03-4.177-7.753-6 0 0-.718 11.296.14 17.38.78 5.046 5.335 5.798 7.04 1.42zm.024-17.113c.23.034.494.05.53-.05.324-.914-.24-4.74-1.196-5.508-2.575-2.066-4.93 0-4.853.093 1.215 1.65 2.642 3.466 4.482 4.897.35.292.645.508 1.038.567zM85.17 285.494c-16.754-23.913-32.28-46.66-52.9-71.73l.09-19.3 63.32 90.795zm58.655-31.244c8.3-9.01 14.588-18.61 20.17-28.418 6.36 11.297 13.724 20.5 21.854 28.1-7.97 8.057-15.202 17.277-20.927 28.863-4.654-8.854-10.7-18.092-21.097-28.544zm55.094-2.897c3.54-3.7 6.588-7.865 9.452-12.252 3.183 4.512 5.1 7.888 9.377 12.65-3.67 3.89-6.76 7.797-9.274 12.05-3.03-4.826-6.186-9.316-9.555-12.446zm-79.83-4.47c-.54-4.542-1.465-9.977-2.795-14.655l11.562-10.9c-1.248 9.74-3.163 17.214-8.767 25.556zm55.255-34.358c2.587 3.437-1.78 5.344-3.428 3.815-3.343-3.1 1.554-6.304 3.428-3.815zM59.7 190.884c-1.918 1.23 3.448-29.968 18.177-46.09 8.96 25.662-6.848 40.05-18.177 46.09zm72.666-.115l-9.783-2.64 4.87-13.68s9.185 2.152 8.402 4.993c-2.55 9.248-3.5 11.33-3.5 11.33zM87.09 185.5c2.65-4.355 4.66-9.156 6.51-14.07l13.9-1.928-8.062 15.635zm58.958-19.198c-7.57-15.075 1.348-38.935 17.82-45.502-.593 15.287-5.337 30.772-17.82 45.502zm-50.886-4.283c.333-5.354-.28-10.965-1.02-15.938l34.433 4.6 1.203 14.433zm25.198-22.93c1.167-4.59 2.204-8.412 4.457-12.133 2.507.08 12.676-1.592 11.38.383-2.764 3.536-4.087 9.277-5.897 12.888-1.9-.2-10.508 1.28-9.94-1.138zm-22.808-2.63c-3.482-1.23-8.244-1.572-10.096-4.265l3.622-11.48 10.728 3.29zM127.66 26.946l8.408-.08 55.54 71.806c-.505 2.048.17 19.4.17 19.4L127.66 26.946zM50.19 99.07c-2.26-2.425 1.334-4.574 2.827-2.407 1.316 1.91-1.636 3.686-2.827 2.407zm45.33-8.475c.13-11.98 8.625-26.195 8.537-25.83-.098-.023 1.21 11.7 2.843 15.402-.44.65-10.978 11.18-11.38 10.43zM59.336 86.62c-6.586-12.6-14.5-22.13-21.392-28.813 8.584-8.12 15.02-18.148 21.624-28.027 5.452 10.363 12.538 19.834 20.487 28.835-7.973 7.83-15.506 18.92-20.718 28.005zM6.36 61.06c3.857-3.848 9.557-12.6 9.502-12.61 2.712 4.43 5.57 9.016 9.508 12.677-.042-.04-6.1 6.473-9.23 12.596a52.91 52.91 0 0 0-9.779-12.663zm-.548-27.847v-3.7h2.775s-.032.302-.01-4.756c.03-7.076.384-9.25 1.8-11.056 3.8-4.867 10.8-3.374 12.637 2.698a12.01 12.01 0 0 1 .487 3.18c.082 4.026.09 10.707-.044 14.88.067 1.635-.517 3.768-.936 4.132.202 1.486 2.54 1.785 4.006 1.67v3.88c.007-.022-1.487.142-3.25 0-.742-.06-2.455-1.472-2.455-1.472s-2.71 1.863-5.144 1.813C7.7 44.3 8.595 34.366 8.618 33.23zm6.382.98s.006 1.397.09 2.33c.28 3.083 2.293 4.68 4.298 4.132 1-.31 1.588-.914 1.588-.914-1.706-2.532-3.734-4.66-5.977-5.55zM19.6 18.76c-.85-4.65-5.23-5.363-6.88-1.428-.297.71-.546 6.314-.546 6.314l.034 6.62c3.553.78 5.513 3.06 7.733 5.647 0 0 .445-11.9-.34-17.153z" fill="#d40000"/>
    <path d="M30.71 24.752l-.316 262.08 163.068.03-.055-261.686zm149.022 2.05c-1.325 14.5-1.556 25.865 5.967 40.904-1.36 1.425-11.598 1.83-14.824 3.517-.06.405.83 1.106.83 1.106 3.376-1.566 16.538-2.995 16.538-2.995-5.512-9.608-10.047-28.088-6.633-42.26l9.5.03-.06 69.83 1.03 21.073c-5.058-6.537-11.766-15.667-16.146-22.445L158.624 71.09c-1.79-2.592-4.345-5.955-6.43-8.984l-9.37-13.34-11.403-15.997c-3.65-5.152-3.82-5.762-3.82-5.762zm-62.393.27c6.158 10.702 17.182 14.326 19.956 15.048l1.612 2.356C125.9 41.93 118.95 33.588 115.68 28.43c-.254-.4-.226-1.324-.226-1.324zm-6.095 0c-1.703 4.04-4.087 6.363-6.347 8.81l.078-2.6c.07.163 3.383-3.513 4.524-6.21zm2.982 0s.05.7-.156 1.258c-1.305 4.214-9.408 12.212-9.175 11.013l-.082-2.063c-.035.09 6.087-5.83 7.7-10.208zm-5.892 0c-.632 1.176-2.987 4.73-3.2 3.745l.21-3.745zm18.512 0c1.02 1.478 1.95 2.56 3.022 4.07.2.288.32.63.27.758-.163.42-.648.108-1.99-1.08-2.2-1.95-3.697-3.748-3.697-3.748zm-8.194 0l2 .005c4.122 6.845 11.516 10.487 14.076 11.284.683.753 1.42 2.13 1.705 2.434-6.902-1.87-14.635-7.705-17.77-13.722zm4.84-.03c2.195 3.167 5.635 5.388 7.572 6.904 1.042.817 2.418 2.484 2.29 2.816-4.315-1.364-9.36-6.147-11.677-9.69zm-8.46 1.96l1.2 1.91c-2.906 4.79-6.55 9.108-11.4 12.5l-.026-2.502c5.515-3.97 7.898-7.962 10.237-11.917zm1.945 2.767c3.464 4.667 10.93 11.89 22.904 14.048 0 0 .68.614 1.672 1.965 1.258 1.713 1.278 1.78 1.444 4.588.11 5.138 1.78 12.112 3.44 16.5-.205 1.09-.397 1.646-2.454 4.424-8.57 11.576-26.83 22.524-35.824 7.58-3-4.787-3.292-13.966-3.482-19.69l.08-.512c.216-1.04.513-.875 2.137-.43 1.646.707 3.36.136 5.102-.338 1.984-.8 2.15-.183.236 1.602-.662.617-1.47 1.56-1.386 1.516s1.198-.5 1.7-.874c1.53-1.164 1.9-.718 1.323.563-2.403 5.432-2.83 5.65.55 7.158a6.08 6.08 0 0 1 1.581 1.011c2.31 2.175 1.48 1.003.835.005-.994-1.563-.095-2.39 1.583-1.42 1.122.647 2.595 1.17 3.397.92 1.555-.506 2.03-2.2 1.57-4.085-.37-1.037-2.495-2.868-2.004-.95 1.277-.057 2.38 1.754 1.27 2.98-.838 1.13-2.33.52-4.622-.995-1.266-.95-2.803-.465-2.743.705.04.786-1.073.605-1.796-.396-.4-.556-.13-2.156.625-3.673 4.75-9.55.745-18.808-7.48-16.197l-1.72.52-.044-3.653c4.723-3.29 9.732-8.54 12.12-12.87zm4.802 17.143c-1.24 1.497-.8 2.83 1.922 1.488 2.217-1.093 2.524-1.222 4.94-1.31 3.43-.124 6.507.967 10.317 3.304 2.525 1.55 2.893 1.666 2.207.696-2.04-3.903-14.093-9.827-19.387-4.178zm-11.647.447c2.38.6 4.665 2.172 4.267 2.823-.143.234-.28.28-.584.12-1.74-.86-4.517-2.267-8.53-.55-.442.19-.688-.104-.686-.638.004-1.035 1.747-1.862 3.588-1.93.655-.001 1.37.033 1.945.173zm13.827 3.027c-1.42.737-1.906 1.13-2.51.8-1.44-.787-1.136-.17-.24 1.415.63 1.118.625 1.348.53 2.033-.102.745-.086.774.638 1.57 1.354 1.78 2.7 3.496 4.73 4.846.632.42 1.477.9 1.54.902.202.006.125-.155-.237-.507-2.596-2.498-4.644-4.736-2-3.785 3.08 1.004 6.007-.247 8.408-1.063.98-.302 2.007-.556 2.262-.556 2.217.002 2.74-.92 1.323-2.328-4.797-5.38-8.777-6.645-14.444-3.327zm11.382 1.008c.992.916 1.514 1.413 1.415 1.652-.106.256-.87-.178-2.15-.86-2.574-1.372-5.492-1.695-9.138-.642-2.83.817-1.995-.48 1.16-1.7 2.526-1.165 6-.817 8.713 1.55zm-26.433-1.853c2.162-.035 4.414.675 5.92 1.974 1.05.906.282 1.117-1.425.41-2.583-1.068-4.76-1.238-6.878-.246-.665.31-1.432.682-1.642.662-.354-.24-.505-.936-.198-1.43.852-.836 2.54-1.343 4.222-1.37zm35.64.742c.16.007.398.26.753.758.647.908.67 1.356.135 2.946-.655 1.94-.917 1.626-1.082-1.082-.107-1.757-.1-2.636.193-2.623zm2.144 2.927c.247-.035.534.4.995 1.3.32.628.245.815-.758 3.753-.42 1.23-.815 2.208-.826 2.217-.31.243-.27.222-.4.053-.716-.914-.664-2.698-.048-4.835.467-1.62.72-2.442 1.038-2.487zm-19.484.222c.078-.007.558.098.558.098-.05 4.35 3.315 3.476 3.76.385 0 0 .83-.085.957.12.4.647-.527 2.508-1.912 3.118-1.01.45-2.384.34-3.205-.414-.23-.426-.925-2.042-.795-2.713.162-.39.404-.574.638-.594zm-2.005.508a.99.99 0 0 1 .101 0c.33.017.57.106.7.506l.72 2.2c-.53.634-2.546-.65-2.542-1.615.003-.666.503-1.076 1.02-1.1zm-13.68-.004c.508-.05.688.007.747.482.172 1.436-1.265 2.997-3.128 3.082-1.803.202-2.776-1.197-2.72-2.56.004-1.037.896-1.166.995-.347.286 2.366 2.308 2.502 3.23 1.196.35-.512.27-1.773.875-1.852zm22.14.48c.144-.006.335.048.618.145 1.86.594 1.91.88.32 1.454-1.897.683-2.02.773-1.575-.55.248-.738.322-1.035.638-1.048zm-19.712.21c1.38.085 1.494 1.252.282 1.64-1.805.797-2.414.745-1.714-.43.38-.833.718-1.195 1.432-1.21zm-8.625.42c.165-.002.353.062.555.213.207.625.558 1.107.836 1.753-.283.28-.958.276-1.39-.065-.863-.685-.715-1.894-.002-1.9zm43.344 1.348c.535.003 1.08.85 1.257 1.483-1.87 2.403-1.576 6.89-2.01 8.244-.377 1.102-.5.15-1.54-2.704-.42-1.152 1.697-6.88 2.187-7.01.035-.01.07-.015.106-.014zm1.913 2.463c.416.238.982.783 1.082 1.642.058.498-.19 1.16-.348 1.816-.378 1.558-.89 4.5-1.072 7.22-.078 1.157-.074 2.198-.126 2.3-.563 1.103-1.75-1.864-1.648-4.227.37-1.886.575-8.492 2.11-8.75zm2.642 3.39c.264.367.432.648.513.965.142.55.023 1.208-.3 2.61-.858 3.715-.734 7.718-.174 11.828.118.865-.483.432-1.39-1.058-.504-.826-.826-1.958-.98-3.294-.316-2.922.294-6.882.813-10.007.23-1.383.4-2.6 1.52-1.044zm1.425 2.26l1.502 1.81s-.64 4.164-.638 6.385c-.105.832.747 9.88 1.024 10.61-.923-1.034-1.355-1.642-2.367-2.94-.115.02-.99-8.914-.386-12.33.366-2.067.865-3.535.865-3.535zm2.357 3.598c.252-.01.573.275.976.84.364.5.54.93.56 1.565.014.463-.215.82-.222 1.647-.042 4.922.623 9.566 1.46 14.044.295 1.602-.28.95-1.23-.065-.87-.928-.887-1.28-1.352-2.6-.093-.263-1.02-9.34-1.012-10.025.033-2.82.114-4.39.44-5.068.106-.22.23-.333.382-.338zm-5.46 9.89s-1.75.9-2.207.584c-.738-2.014-3.403-7.405-3.45-8.36.047-.314 1.092-1.732 1.092-1.732 1.472 3.194 2.797 6.46 4.563 9.508zm-32.91-6.475c-.527.62-1.156.36-2.427-.198-.652-.2-.55.068-1.628.628-.835.434-1.13.445-1.682.44-.73-.006-.993-.262-.995.25-.002.284-.044 1.567-.216 2.23-.235.903-.44 1.3-.31 1.458.37.34.683.133 1.466-.623 1.298-1.254 2.174-.895 3.62-.428 1.645.53 1.985.726 3.5.2 2.13-.745 3.415-.746 4.264-.205 1.463.93 1.904.877 1.3-1.67-.194-.82-.208-2.094-.328-2.315-.136-.25-.507.463-.897.725-.744.5-1.13.49-2.806-.058-.994-.326-2.107-1.4-2.85-.435zm26.978.332c.65 1.53 3.233 6.64 3.154 7.212-.503.452-1.177.78-1.576.377-1.292-2.357-1.68-3.628-2.73-6.273-.313-.632.624-2.244 1.15-1.316zm13.876-.188c.183-.025.565.355.85.735.885 1.184.938 1.33.966 2.598.102 4.6.68 10.012 1.975 14.185.255.82.738 1.82.686 1.956-.434.633-2.45-1.063-3.057-3.642-.84-3.275-1.33-6.692-1.596-8.917-.338-3.912-.336-6.712.177-6.916zm-15.5 2.536c.744 1.435 1.682 3.912 2.313 5.398.288.645-1.184 1.154-1.522.934-.588-.44-.866-1.674-1.252-2.415-1.228-2.685-1.45-2.742-.768-3.578.42-.58.92-1.294 1.23-.34zM162.4 77.85c.108 0 .248.105.425.333.776.918 1.304 1.62 1.507 2.3.147.494.03.864.082 1.758.14 2.343.754 5.54 2.497 12.084.17.638.4 1.393.372 1.6-.17 1.2-1.93-.746-2.444-2.758-.595-2.284-1.68-5.2-2-7.897-.658-4.28-1.023-7.42-.44-7.42zm-19.97 1.73c1.465 3.42 1.58 3.414.66 3.684-.975.286-1.034.192-2.18-2.136-.836-1.7-1-1.912-.298-2.525 1.073-1.265 1.355-.06 1.82.977zm-20.41-.816c-.167.003-.658.376-1.15.57-1.21.48-3.36.512-4.67.117-2.322-.932-1.668.278.386 1.015 1.594.536 4.75.12 5.24-.873.3-.318.4-.835.196-.83zm17.656 1.798c1.308 2.022 1.7 2.83 1.48 2.987-.21.21-1.245.6-1.67.39-.535-.262-1-1.5-1.235-2.49.164-.478 1.024-1.335 1.426-.89zm-32.77.852c.585.002 2.105 2.046 1.797 2.415-.086.2-.656.01-1.988-.36-.445-.164-1.45-.295-1.132-.94.158-.293 1.1-1.116 1.323-1.115zm31.365 2.8c-.13.35-1.117.432-1.536.406-.36-.75-.455-1.107-.555-1.604.136-.298.812-1.07 1.145-.918.2.178.844 1.746.946 2.116zm27.217-1.97c.21.007.57.373 1.106 1.14 1.014 1.45.876 1.344 1.604 4.806.826 3.926 1.813 6.722 2.81 10.732.014.665-.256.49-.995.04-1.208-.735-1.605-1.552-1.985-3.68-.65-3.515-2.02-6.768-2.545-10.92-.278-1.373-.3-2.126.005-2.115zm-30.424 1.403c.713-.024.617 1.074.413 1.252-.52.454-1.957.318-2.204.344-.552-.865 1.326-1.567 1.79-1.596zm34.047 3.736c.2.03.773.824 1.826 2.304 1.012 1.422.8 1.2 1.396 3.53.857 3.235 2.275 5.567 3.106 8.544-.002.34-.413.296-.807.135-.767-.32-1.452-.864-2.1-1.396-.444-.48-.44-1.09-1.753-5.603-.474-1.628-.597-2.052-1.188-4.526-.495-2.07-.716-3.022-.478-3zM59.398 97.048c3.44 6.332 2.167 9.14-5.234 10.017-.534-.075-.03 3.244-.045 4.727 3.708-2.12 8.192-2.617 12.325-3.95-1.125 3.603-3.1 7.686-9.083 7.057-6.253-4.832-13.613-1.93-18.606-3.9-2.716-1.012-3.753-4.028-3.785-4.546 3.257.326 6.934 1.024 10.09.796-3.448-2.656-2.44-6.33-1.953-8.012-4.034-5.087-.666-10.808 5.193-9.478.606.137 1.8.726 1.8.726 5.652-5.06 12.204-.306 9.297 6.55zm114.36-3.08c.234-.022.75.59 1.787 2.038 3.074 4.3 5.735 8.3 5.694 8.525-.133.74-3.336-.557-4.144-1.618-.92-1.208-3.5-7.43-3.507-8.42.002-.33.046-.515.17-.526zM48.585 112.385c1.6.235 2.045.37 2.03.995.137.53-3.88.6-4.424.208-.435-.314.126-1.004.555-1.17.622-.187 1.238-.122 1.84-.034zm110.72.57c-22.44 10.6-31.62 38.788-20.294 60.39l-1.56 1.126c-11.105-22.84-2.844-47.315 15.2-59.675.73-.52 2.347-.92 3.098-1.418 0 0-7.36 1.68-9.852 2.654-.505-.017-2 .506-3.585 2.236-1.394 1.292-5.754 7.303-5.615 7.512l-11.585.467.01.428 11.37-.263c-11.71 19.278-8.832 37.62-1.603 50.458l.18.12c.42.283 1.526-.526 3.82-2.7l2.647-2.473c1.418-1.3 3.437-3.54 4.825-5.158-7.873-16.047-.107-37.182 18.317-46.706.03-.507-.196-2.055-.196-2.055s-.696-.625-1.107-.56c-20.525 9.04-28.75 31.493-20.404 51.9l-1.377 1.498c-10.486-21.143.77-47.57 20.397-55.056-.01-.478-.435-1.088-.962-.72-21.188 9.837-30.422 34.958-20.043 56.37l-1.307 1.155c-11.808-23.445.634-49.717 20.14-58.694.575-.133-.512-.845-.512-.845zm-114.2.22s-.15 1.25.292 1.675c.203.89-.12.794-.88.613-1.865-.445-.4.616 1.116 1.473 1.503.844 1.302.815-.01 1.647-.882.56-.8.77-.67 1.193.176.63.296.2.662-.126.767-.705 1.38-.882 2.062-.88 1.024.004 1.128.824.947 1.463-.407 1.342-1.79 1.27-2.922.937-1.854-.546-4.88-3.76-4.834-5.653-.13-1.695 2.19-2.42 4.238-2.344zm8.334.414c.72.264 1.623.617 2.618 1.034 1.374.437 2.766 1.147 3.664 1.746 2.734 1.823 2.567 5.468 2.37 5.83l-14.125 13.387-1.55-.773c-2.375-1.212-2.946-1.85-1.628-2.52.64-.326.846-1.025.937-1.7.123-.917.075-.76.623-1.178.954-.727 1-1.027 1.005-2.236.003-.8.086-1.17.377-1.67.23-.4.475-1.232.638-2.188.027-.157.035-.55.065-.688.167-.748.404-.968.563-1.138s.412-.746.59-1.246c.394-1.115.32-.95.956-.826.925.18.792.72.69 1.575-.05.415-.326.707-.232.613a3.35 3.35 0 0 1 .811-.42c.296-.067.59.034.667.497.042.258-.07.734-.063 1.1.02.953.058 2.094.275 2.845 1.05 3.62.84 3.118.483.106-.085-.72-.186-1.78-.082-2.66.073-.62.25-1.39.493-1.81.62-1.08.654-1.294-.69-1.826-.5-.198-1.35-.544-1.526-.89-.215-.422-.856-.997-1.7-1.193-2.03-.477-3.2-2.438-2.917-2.73.192-.19 1.01.06 1.526.077 1.852.066 2.246-.03 3.067-.734.437-.375.633-.71.98-.734.367-.007.835.266 1.105.362zm96.146 2.17c-18.976 15.352-22.302 40.187-12.835 59.35l-1.638 1.287c-11.897-22.48-3.906-46.727 10.7-59.99zm-109.554 1.83c.335-.03.7.46 2.033 1.884.897.96 1.832 1.792 2.323 2.072 1.115.534.87.31-.058 1.193-.95 1.09-.425 1.985-1.56 1.44-2.953-1.386-5.026-5.47-3.106-6.453.145-.074.255-.125.367-.135zm-1.468 4.294c.072-.006.15.005.227.024.364.09.806.773 1.28 1.25 1.312 1.32 1.922 1.908 2.97 2.37 1.03.456 1.06.567.333 1.372-.264.293-.42.645-.483.84s-.078.445-.3.488c-1.15.22-4.97-2.096-5.12-3.695.123-1.495.5-2.606 1.092-2.652zm8.095.444c.663-.017 1.052.574 1.048 1.53-.003.663-.376.933-1.135 1.217-1.622.607-2.622-.554-1.488-1.835.477-.54 1.12-.9 1.575-.913zm-1 3.898c1.224.005 1.578 1.037.68 1.927-.843.836-2.544.84-2.54-.077.003-.72 1.08-1.853 1.86-1.85zm-7.588 1.235c.828.245 2.843 1.697 3.73 1.867.047.5-.543.623.294 1.544.38.418.412.703.082.88-1.01.54-4.513-1.164-4.748-2.917-.114-.856.17-1.343.642-1.373zm4.57 2.098c1.205.05 2.568.086 2.425.662-.104.417-.535 1.52-1.087 1.314-.268-.1-.53-.367-.715-.546-.643-.617-.814-1.438-.623-1.43zm45.568 4.988c3.5 3.178 16.262 36.374-10.312 60.558l-5.64 1.7c25.514-20.034 21.27-48.475 14.385-60.745.002-.36-.1-.32-.735.256-.556.503-.615.612-.39.705 7.78 11.973 10.69 45.8-19.967 62.108-.514.534.527.453.527.453.054-.44 13.804-3.78 12.833-3.864 12.815-11.328 23.972-38.342 10.083-61.89-.335-.22-.783.728-.783.728zm-4.427 3.76l-.18.75c11.123 21.836.506 48.59-20.17 58.5.34.25.718.422 1.098.6 23.454-12.63 30.217-39.36 19.986-60.062zm-1.86 1.548l-.13.792c9.208 18.584 1.898 44.374-20.078 54.835-.208 1.125.003.796 1.03.743 25.428-13.636 27.818-39.568 19.862-56.408zm-1.58 2.23c-.718.95-2.033 1.44-2.47 2.663 7.387 19.523-2.16 38.317-18.323 46.24-.013.983-.718 3.414.993 3.025 19.968-9.046 28.656-33.09 19.925-52.014 0 0-.114.083-.126.087zm100.3 37.748c.735.052 1.394.274 2.076.363 2.48.322 4.09 2.13 2.98 3.23-.364.36-.873.153-2.484-.635-.74-.362-.86-.7-1.012-1.518-.184-.98-.38-1.078-.628-.32-.25.768-.522 1.244-1.37 1.05-2.378-.553-1.48-2.2.436-2.17zM154.11 196.45c-5.956-3.38-13.31-9.475-17.516-16.4-2.1 3.922-4.546 11.06-4.546 11.06l-9.348-2.61-.1.195 9.24 2.663-.9 3.083c-.097.333-1.528 3.842-1.528 3.842l14.43 6.734c-.894 1.4-1.87 2.304-3.11 3.61-.7.736-.72 1.7-.72 1.7L160 191.228s2.58 3.828 3.54 4.696c.9.814 1.18 1.01.13 1.254-4.7.69-8.35 4.25-7.078 9.024.206.53.62.336 1.51-.225 3.12-2.827 10.75-5.444 11.01-4.78l.03 3.04c-8.214.12-7.372 6.158-6.77 9.396 0 .07-2.375 2.146-2.375 2.146.84.44 1.662.896 2.44 1.44-.722 4.028 2.7 9.867 9.452 6.878.583.598 1.134 1.2 1.776 1.95.7-.8 1.485-2.68 1.485-2.68 3.35 1.515 10.298-1.877 6.744-9.646l1.96-1.87-1.882-1.186c-.05-1.975-.355-3.74-1.534-5.46 0 0 3.162.806 5.5.942h0c1.445.13 2.663.167 2.54-.706-.036-.257-.252-1.514-.393-1.926-.698-2.035-4.317-3.53-7.832-3.727-.573-.032-1.19-.014-1.314-.163-.23-.28.182-.675.56-.6 1.925.335 3.777-1.088 4.1-2.898.066-.317.46-.9 1.024-1.517 1.002-1.097 1.08-1.068 1.06-2.652-.013-1.1.18-1.344.687-2.08a5.09 5.09 0 0 0 .63-3.842c-.104-.45-.53-1.086-.167-2.206.6-1.823-.707-3.5-2.407-4.44-.136-.04-.095.095-.208.23-1.543.48-3.422-.625-3.422-.625-.388-.2 1.314-10.077 4.84-9.194.586.355.834 2.074.8 2.104.162-.004.25-1.01.022-1.683-.24-.705-.786-1.376-1.838-1.178-.815.154-1.757 1.236-2.183 1.78-1.647 2.1-1.666 3.438-2.216 5.67-.264 1.055-.293.994-1.754-.147-1.048-.82-1.556-1.08-1.192-1.56.164-.216.843-.898.843-.898l12.762-12.28V284.57h-72.17l.505-15.804c1.354-11.112-1.028-34.447-2.83-36.642 1.4-1.562 5.705-5.328 5.467-5.498l-.572-.338-2.28 2.098-5.633-1.706c-2.403-1.66-4.855-3.194-7.4-3.847-4.154-1.066-12.153 2.33-12.16 2.366-12.78.946-23.015 6.136-22.87 6.096-.557-.51-1.293-2.142-1.313-2.133-6.588-9.168-13.064-14.303-21.912-20.57l11.207-6.19-26.558-27.747-.234-22.532 38.472-36.78c.227-.635 12.274 8.51 16.76 15.95.86-3.637 2.462-6.94 3.797-10.512.14-.327 7.654 2.778 9.883 2.9.333.02.602-.332.602-.332l-9.918-3.225 2.03-5.81s.706-1.578-.09-1.84c-4.52-1.462-8.763-4.04-13.087-6.236l2.05-2.344c.03-.093.847-1.298.652-1.713-2.2 2.134-20.15 18.78-20.15 18.78-.51-2.857-1.313-3.856-3.058-5.618.95-.046 2.44-.985 3.3-1.612 2.63-1.916 4.063-5.336 3.718-7.334-2.525.803-4.805 1.745-7.968 2.32-1.777.323-3.463 1.125-4.486 1.986l-.157-3.188c.006.036 4.255.745 6.223-2.107 1.696-2.457 1-5.27.61-6.705.044-.318-.05-.283.68-.956.54-.497 1.38-1.14 1.38-1.14.036-.18-2.194-1.007-2.57-1.762.594-5.908-4.127-8.19-8.122-7.14-.747.225-1.103.365-1.99-.624-.132-.147-1.198-1.273-1.198-1.273s-.47 1.085-.71 1.56c-.784 1.545-1 1.08-2.688 1.163-4.28.2-6.19 3.665-5.207 7.907.23.996.127.842-.526 2.1-.334.643-.88 1.463-.88 1.463s.785.435 1.314.67c.783.35.824.76.82 1.54.11 1.72.487 2.874 1.477 4.352-3.352.077-5.924-.236-8.96-1.244.465 4.667 3.905 6.406 8.12 7.1 0 0-.442.413-.907.597-.986.286-1.603 1.152-1.594 1.927-.142.74-.62 1.484-1.063 1.88-.656.568-1.195 1.368-.937 2.916-.066 1.122-.337 1.446-.667 1.874-.66.86-.884 1.715-.72 2.845.077.526.24 1.652.13 2.816-.18 1.94.514 2.667 1.396 4.033.57.885.45.908.32 1.55-.317 1.542-.647 2.334-1 3.507-.767 2.623-.796 4.613-.17 5.125.945.77 2.014.54 2.512.386 3.728-1.15 3.083-4.812 3.28-7.27.106-.632.322-.935.532-.905 1.054 1.234 2.17 1.947 3.604 2.725-4.962 5.05-8.203 8.14-14.475 13.65l.17-123.005h71.557s.075.9-.096 5.36c-.3 9.046-.7 18.52-.097 27.743.1 3.19.034 6.343.493 9.5.447 3.076.644 6.394 2.082 9.26.578 1.553.596 1.434-1.605 3.468-1.08.998-1.997 2.06-1.957 2.247.013.062-.048.296.118.164a24.37 24.37 0 0 0 .996-.982c.596-.703 1.594.2 4.998 1.16.668.188 1.608.817 2.328 1.338 5.088 4.288 12.248 2.95 17.6.612 1.52-.664 1.89-.732 4.332-1.022 9.04-1.072 18.698-5.02 18.678-5.01l1.18 1.933s.444-.082.76.404c5.2 9.82 22.174 21.04 21.872 20.52l-11.095 6.142c8.077 9.98 26.55 26.912 26.55 26.912l-.425 24.336c-4.96 3.966-9.32 8.513-13.682 12.953-1.254 1.24-2.14 1.95-1.663 1.973 1.132-.173 2.11.944 3.03 1.718.583.65.443.59-.23 1.48-.473.624-.646.805-.648 1.256.017.873.01 1.458-.767 2.113-.483.606-.758.994-.846 1.712s-.08 1.177-.574 1.81c-.836.178-.915 1.394-.768 1.94.875.868.475 1.807.557 1.6-1.67 1.814-3.426 3.386-2.306.85.505-.944.68-1.727.68-1.727s-.805.834-1.226 1.227c-.644.597-.88.245-.9-1.606-.083-1.4-.674-3.357-.908-3.73-.13-.21-.153.153-.092 1.502.08 1.775.292 2.3-.333 4.062-.844 2.394-1.445 2.733-.073 2.65 1.3-.078 2.397-.092 2.965.683.192.26.438.71.963.973 1.07.584 1.92 1.232 2.513 1.878 1.92 2.09 1.37 3.957-2.345 2.7-1.956-.667-.675-1.506 1.427-1.312 1.29.12 1.51-.356.39-.698-2.08-.384-2.414-.62-3.785 1.01-5.757-.57-9-3.788-10.543-6.4-.65-1.097-.85-1.306-.396-1.927.178-.245.07-.17-.237.17s-1.143.623-1.42.867c-1.934 1.93-3.894 4.002-5.637 5.572zm25.058-13.514c.977.12.958.94.086 1.73-.82.62-1.38.74-1.844.274-.8-.816.236-2 1.758-2.004zm2.846.57c.788-.003 1.792.36 2.986 1.35 1.425 1.184 1.75 4.05.442 4.547-.548.208-.633.004-1.8-1.105-.787-.748-1.642-1.425-2.483-1.826-1.717-.817-1.937-1.126-.777-1.683.244-.125.56-.42.705-.652.298-.477.39-.63.927-.632zm-1.855 3.817c.228.007.533.145 1.01.4 2.894 1.58 4.31 4.06 3.33 5.458-.642.917-1.688.567-2.485-.734-.45-.733-1.64-1.67-2.995-2.357-1.55-.786-1.583-.898-.464-1.434.46-.22.804-.53 1.03-.927.26-.46.282-.414.575-.406zm.928 5.905c2.187 2.18 1.937 3.36.516 4.248-.97.606-2.525.757-3.035.255-.824-.72-.803-1.546.11-1.81.85-.182.53-.522-.263-.724-2.836-.805-4.578-2.31-1.496-1.983.885.094 1.74-.594 2.203-1.143.67-.812 1.572.764 1.966 1.157zm-149.12.84l63.82 91.363-51.594-.1s-.194-.67.226-6.147c.62-7.43-.333-13.874-2.09-21.126.222-.025-2.47-8.804-4.564-13.094-.38-.9-.318-.986.918-1.145 3.652-.587 7.586-1.47 11.234-3.014 1.696-.15 4.186.512 4.052.305-.06-.1-2.207-2.067-2.207-2.067-5.958 2.38-11.454 3.25-16.63 3.842 6.87 11.69 9.32 27.605 7.26 41.9l-9.886-.03-.03-70.352zm11.406 13.53c.9-.035 3.147 1.55 3.42 2.742.056.244.64 1.7 1.294 3.073.013.252 2.225 4.246 1.253 3.898-1.934-2.628-5.39-7.103-6.26-9.283.002-.3.037-.42.3-.43zm6.894 3.996c.12.66.8 2.386 1.318 3.524 1.377 2.965 3.5 7.612 3.077 8.935-.292.892.008.845-.773-.256l-1.86-2.584c-.698-.936-.228-.077-.627-1.602-.95-4.31-2.485-6.576-3.482-9.096-.356-1.183 1.89.6 2.346 1.078zm1.227.657c.186.13 2.715 1.91 2.97 2.164.897 3.188 4.48 13.402 3.553 15.227-.323-.253-1.69-1.9-1.88-2.75-.413-4.884-1.963-8.396-3.626-12.036-.468-1.097-.835-2.194-1.02-2.606zm4.758 3.586c.8.39 1.63 1.286 2.1 2.084.314.542.475 1.18.77 2.523.917 4.167 2.665 8.39 1.88 12.838-.5.665-1.557-.843-1.7-2.328-.505-4.924-.94-7.283-2.67-13.075-.336-1.123-.6-2.004-.367-2.043zm4.062 3.82c.17.007.52.325 1.106.874 1.137 1.067 1.297 1.46 1.304 3.23.037 2.602.904 5.574 1.038 8.2.078 1.516.355 5.438.12 5.67-.33.456-1.8-1.205-1.686-3.753.187-3.062.035-5.367-1.27-10.664-.603-2.448-.91-3.494-.647-3.555.01-.002.022-.005.034-.005zM178.137 204.2c4.56 2.927 2.952 8.33 1.976 8.993 6.297 7.956-3.49 12.03-6.597 9.17-4.598 4.57-12.488.74-9.45-6.79-.004 0-5.775-11.03 5.614-10.293 0 0 .196-4.457-.125-4.66-4.066-.273-9.592 3.64-11.157 4.724-.87.525-1.06.274-1.06.274-.217-2.313-.222-3.373.718-4.663 1.64-2.25 4.353-3.012 7.915-3.794 4.41 1.357 8.607 3.488 12.692 3.157 2.25.013 4.55.377 6.73 1.547 1.47.694 2.237 3.298 2.237 3.298-2.308 1.207-9.494-.96-9.494-.96zm-2.17-16.357c.02-.8.91-1.67 1.8-1.568 1.207.087 1.365 1.516.292 2.043-.3.25-1.312-.12-1.366.158.074.487-.417.282-.512.106-.166-.207-.204-.502-.203-.74zm-.732 3.115c.443-.31.813-.338 1.26-.396.685-.083 1.56.02 1.755.738.19.704-1.16 1.12-2.253 1.138-.556.01-1.2.118-1.368-.273-.157-.366.383-1.04.607-1.206zM37.225 140.64c.88-3.058.33-4.77 1.797-8.54l3.57 1.188s.15 3.697-.568 5.757-3.088 3.7-4.798 1.594zm26.59 82.702c.42.05 1.456 1.523 1.922 2.87.428 1.248.287 2.833.6 4.178.7 4.608.66 9.225.473 10.62-.093.695-.54.412-1.154-.25-.892-.964-.77-.985-.758-3.66.01-2.294-.5-7.962-.734-9.114-.433-2.13-.614-4.162-.512-4.51.03-.098.086-.14.164-.13zm41.747.55c4.597.732 8.272 3.87 10.377 9.036 2.033 5.253 2.533 12.42 2.85 19.01-.022 1.576-.672 1.178-2.374.2-1.86-.91-2.256-.645-4.97-.024-1.694.388-1.54-.764 1.246-2.676.95-.62 2.053-1.446 1.7-1.57-.184-.063-1.033.166-1.647.662-2.735 2.2-3.476 2.748-2.688.6.2-.543.833-2.05 1.098-2.772.99-2.7-.15-3.856-3.515-5.565-.842-.428-1.396-1.14-.555.353.687 1.22-.733 2.207-2.492.778-1.222-.993-3.68-.332-4.472.908-.768 1.2-.357 3.44 1.157 4.167 1.334.575 1.832.16.54-.734-1.66-1.15-1.337-3.092.527-3.085.46.002 1.274.515 3.33 1.632 1.47.796 2.517.46 2.52-.73.002-.795.456-.73 1.423-.252 1.303.644 1.16 1.227.472 3.027-.464 1.257-.695 2.685-1.12 4-1.097 4.422-1.243 9.43-.03 10.99 3.227 4.152 6.654 3.712 9.59.968l-.126 4.546c-2.992 2.402-6.488 4.038-11.884 12.94-1.882-2.364-9.957-12.028-22.906-14.21l-2.914-3.987c.05-.247-2.177-14.827-3.634-19.79 0 0 1.602-2.432 3.057-4.225 5.814-7.163 15.64-15.36 25.454-14.195zm-16.887 4.138c-.498.158-.66-.835-.39-1.024.6-.05.8-.03 1.41.013.453.028.442.547-1.022 1.01zm-21.85-.744c.646.46 1.435 1.7 2.207 2.83.427.625.185 1.662.25 2.685l.357 5.313c.2 2.867-.07 5.264-.488 6.13-.428 1.035-1.296.32-1.512-1.096-.052-.34.23-3.856.232-5.786 0-3.32-.85-7.418-1.048-10.075zm19.6-.02c.228-.013.402-.005.553.19.697.893.98 1.433.345 1.923-.842.703-1.608.526-2.075-.81-.3-.95.41-1.25 1.177-1.302zm-2.596.787c.75.504 1.497 1.83 1.575 2.787-.048.263-.28.485-.784.893-.5.458-.658.43-1.216-.452-.876-1.368-1.285-2.27-1.114-2.74.438-.455 1.007-.636 1.538-.487zm30.608.173c1.255.106 2.494.68 3.715.968l-1.863 1.8c-.554-.923-1.185-1.846-1.852-2.77zm-33.392.94c.688.896 1.888 3.238 1.824 4.11-.176.296-.448.56-.736.727-.23.062-.435-.34-1.212-1.712-1.35-2.388-1.745-3.06-1.044-3.348.368-.04.93-.023 1.168.225zm-2.722.555c.75.668 2.552 4.226 2.604 5.227-.02.282-.105.526-.272.715-1.133 1.218-.846 1.022-2.532-2.45-1.424-2.855-1.8-3.136-.858-3.457.208-.07.73-.165 1.058-.035zm-2.707.928c.494-.007.633.82 1.597 2.702 1.613 3.56 2.218 4.054 1.853 4.434-.45.567-.713.966-1.14.277-.973-1.582-1.938-3.6-2.844-5.37-.725-1.322-.8-1.483-.324-1.806.267-.186.665-.233.858-.235zm28.79 1.01c-.606.17-3.043.942-1.55 1.082.302.028 1.066-.163 1.604-.2 1.51-.104 4.648.18 4.535-.11-.286-1.084-3.766-.983-4.588-.773zm-30.9.333c0 .06.39.754.78 1.433 2.293 4.43 3.567 6.042 3.16 6.742-.335.423-.853.954-1.16.828-.493-.203-1.15-1.653-2.79-4.935-1.695-3.39-1.872-3.645-1-4.086.357-.165.8-.288 1 .016zm-2.3 1.563c1.054 1.712.915 1.487.903 7.06-.008 3.47-.453 5.68-1.034 6.535-.304.447-.84.184-1.106-.69-.122-.4.225-.995.3-1.628.4-4.174.124-8.345.133-12.296.318-.033.643.738.813 1.018zm27.178 1.367c.49.7.37 1.265.367 2.207-.005 1.332.09 1.43 1.01.758.816-.596.88-.635 2.336.353.863.586 1.952.652 2.656.005.496-.456.668-.25 1.333-.077.724.402.93.464 2.483-.3 1.05-.464 1.09-.53 1.715-.202 1.097.967 1.26.617 1.11-.647.003-.44.13-1.266.26-1.802.546-2.25-.338-2.274-1.507-.84-.453.555-1.462.796-2.415.348-1.366-.64-3.497-.382-5.073-.117-1.864.314-2.727-.2-3.476-.84-.424-.362-1.394-.685-1.502-.408s.112.714.7 1.553zm-25 3.154c.233-.05.592.64 1.116 2.106.676 1.89-.506 8.463-1.217 9.54-.376.565-.618.91-1.39-.135-.308-.46-.068-.606.237-1.898.464-1.966.855-5.147.88-6.627.006-1.92.112-2.928.377-2.985zm2.376 6.375c.168.012.364.39.633 1.14.38 1.03.195 3.012-.304 4.53-.29.884-.565 1.827-1.058 2.618-.168.444-1.028.29-1.265-.696-.15-.623.368-1.395.618-2.386a119.67 119.67 0 0 0 .681-2.898c.263-1.555.45-2.326.696-2.31zm18.392 2.912c-.02-.003-.04 0-.053.005.004-.006-.01.01-.015.015-.04.04 1.793 2.036 2.285 2.594.257.218 2.464 2.9 1.092 2.285-3.464-1.436-7.517-.73-10.012 1.676-.313.302-.57-.007-1.517-.077-1.94-.144-2.642.624-1.463 1.58.18.146.557.212.727.447.156.215.1.6.19.71 3.748 4.976 10.69 5.944 15.05 2.694.548-.41.856-.553 1.367-.4 1.014.302 1.103-.547.208-1.734-.39-.517-.872-1.114-.59-1.286.554-.476.827-1.254-.135-1.546-.663-.2-1.407-.94-1.78-1.97-.436-1.203-4.705-4.902-5.352-4.99zm-17.016 2.178c.814-.02.852 4.794-.048 6.255-.463.553-1.52-.475-1.362-1.53.12-.803.986-4.42 1.183-4.608.08-.076.158-.114.227-.116zm16.6 3.004c.684-.007 1.62.3 2.364.97.402.363 1.107 1.938.814 2.554-.082.314-.927.295-1.003.065-.464-3.176-3.04-3.637-3.857-.672 0 0-.53.45-.598-.418.183-1.683.975-2.488 2.28-2.5zm20.735.275c.818-.015 1.6.396 2 1.27.28.61.3 1.122.2 1.4-.083.2-.36.113-.36.113-1.307-3.584-3.085-1.927-3.73.055 0 0-.673.208-.756-.006s-.032-.617.236-1.175c.51-1.065 1.483-1.63 2.4-1.647zm-17.484.222c.463-.025 1.255.35 1.848.948.602.607.66.97.175 1.418-.292.27-1.33.538-1.532.068l-.875-2.043c-.083-.194.174-.38.384-.392zm-6.298.096c.518.002.628.12-.186 2.012-.174.405-2.26-.183-1.864-.964.597-.62 1.53-1.05 2.05-1.048zm20.91.15c.208-.01.378.02.45.116-.187.067-.976 2.062-.976 2.062-.745-.1-1.636.015-1.797-.594-.152-.576.148-.926 1.198-1.328.318-.115.778-.24 1.125-.256zm6.11.512c.79.3.975.96.874 1.304-.077.26-.45.264-.715.063-.252-.292-.623-.8-.594-1.125.082-.333.183-.337.435-.24zm-39.377 1.843c.243.457.682 3.048.17 2.982-.497-.128-.73-.9-.816-1.613-.018-.145.425-1.35.647-1.368zm8.7 1.383c.23-.033.8.17 1.67.657 2.834 1.37 5.74 1.563 8.826.874 1.78-.462 2.234-.732 2.485-.427.427.52-.247 1.038-2.76 1.882-2.756.926-5.616.77-9.376-1.883-1.01-.713-1.142-1.06-.846-1.103zm31.452.714c.467.87-1.122 1.696-1.927 1.93-1.7.494-4.3.264-5.764-.615-.123-.074-.24-.152-.353-.236-1.2-.886-.697-1.52.628-.836 1.425.735 4.325.87 5.863.128.77-.372 1.3-.84 1.552-.37zm-35.195 1.623c-.158.035.11.435.662 1.034 3.877 4.352 13.127 6.712 18.327 2.227 1.628-1.528 1.38-2.216-1.188-.995-2.84.935-6.876 1.057-10.367.54-1.717-.232-4.512-.9-5.93-1.927-.894-.653-1.363-.9-1.502-.88zm26.734.13c.237.02.652.107 1.552.575 1.314.683 4.297.45 5.274.09 2.058-.76 2.48.206.53 1.283-2.173 1.315-5.17.8-6.92-.894-.542-.486-.835-1.1-.597-1.14.023-.005.13.083.162.086zm-25.703 7.697c7.635.698 19.158 8.274 23.65 17.375h-2.586c-4.514-7.162-11.46-12.927-19.7-15.078-.326-.25-1.54-1.98-1.364-2.298zm33.9 1.667l-.353 2.516c-1.28 1.05-5.97 4.934-9.448 11.018-.725-.034-1.076-.907-.955-1.502 2.785-5.49 6.115-8.523 10.756-12.033zm-30.858 1.97c1.752-.12 13.15 6 16.986 13.74h-2.1c-4.317-5.622-9.115-9.3-13.374-10.76-1.036-1.092-2.17-2.93-1.51-2.977zm30.505 1.75l-.02 3.4c-2.727 2.654-4.72 5.325-6.28 8.588h-2.117s-.47-.933-.307-1.514c2.406-4.33 4.71-7.484 8.723-10.474zm-17.313 11.988h-2.05c-1.73-2.445-4.298-4.797-6.657-6.197-.966-1.198-2.05-2.676-1.613-2.915.026-.884 9.095 5.244 10.32 9.112zm17.358-6.917l-.044 1.966c-1.387 1.773-2.55 3.26-3.66 4.95h-1.746c1.592-3.437 5.592-7.846 5.45-6.917zm-23.516 3.807c.632.167 2.94 2.37 2.867 3.1l-1.04-.03c-.583-.736-1.274-1.502-1.684-2.255-.257-.477-.42-.918-.143-.824zm23.114.608c.018.002-.006 2.502-.006 2.502h-1.753c-.19-.034.85-1.89 1.758-2.502z" fill="#131f67"/>
    <path d="M153.978 26.47c-8.6-.001-17.277.048-26.94.15l65.248 92.577.053-20.566L171.4 71.61c4.765-1.47 10.584-2.485 15.166-2.893-5.885-13.045-8.828-25.296-6.235-42.088l-26.352-.16zm25.265.59c-.51 5.928-1.182 12.538-.106 19.88-3.396-1.24-4.192.878-4.755 1.1-.64-1.424-3.006-3.89-5.685-.992-1.393 1.506-.716 4.338 2.518 5.616-3.703.284-5.628-2.88-6.277-6.145-2.002-1.28-4.105-2.548-4.306-7.04l1.026.17c-.34 3.134 2.915 4.73 4.82 3.234 1.232-.944 1.364-2.4.878-4.664 1-.203 3.308-1.173 2.695-4.15-.846-4.11-5.07-3.63-7-.925-1.604-1.985-4.544-2.353-5.723.73-.657 1.717.84 3.646 2.54 4.018-3.777.724-5.68-4.483-5.892-8.008l-1.565-2.777 26.83-.048zm-51.144.1l7.578.005 55.307 71.57.116 17.818zm19.16.005l1.207.014c.947 6.3 4.57 10.86 10.766 13.08.322 5.146 2.803 12.137 12.22 14.5-.278 5.81 3.456 11.364 7.453 14.026 0 0-1.08.267-1.922.348-5.374-4.26-6.698-10.534-7.23-13.123-.182-.374-.694-.464-1.1-.555-4.6-1.624-8.47-5.402-10.05-10.012l-.995-4.526c.002-.58-.116-.308-1.483-.81-3.547-1.306-6.827-5.143-8.298-9.727-.773-2.4-.565-3.212-.565-3.212zm-4.873.014l4.245.005a17.06 17.06 0 0 0 .087 1.236c.57 4.513 4.623 10.177 8.757 12.055.585.266 1.4.64 1.59.816 1.155 7.398 4.51 11.854 11.587 14.905.113.117.432.19.526.338.965 4.575 3.074 9.878 7.085 12.794l-1.734.18zm20.74 7.764a1.74 1.74 0 0 1 1.739 1.739c0 .96-.78 1.734-1.74 1.734s-1.74-.774-1.74-1.734a1.74 1.74 0 0 1 1.739-1.739zm-58.596 9.488c.1.25-23.746 20.422-21.425 58.374l-.69.773.188.27c-.787.894-1.546 1.61-2.405 2.483 4.945 3.15 13.564 6.59 13.59 6.5l-1.647 3.816 10.302 3.328-1.38 3.627-10.138-3.366c-1.466 3.25-2.353 6.68-3.42 10.06-.1.272-.335.14-.7-.386-5.352-9.127-16.343-15.712-15.973-15.06l-38.977 36.983-.266 22.855 26.975 27.8s-7.806 3.84-11.5 6.36c2.872 2.344 6.124 4.15 8.98 6.366 5.907 4.166 9.893 10.29 13.722 14.437 18.055-8.952 36.237-8.453 51.94-3.02-1.83 1.925-3.87 3.593-5.757 5.68 4.565 11.976 3.104 35.76 2.874 36.408 9.503-9.708 23.64-30.524 21.754-59.833l4-4.01c-.073-.205-10.004-5.52-14.142-6.68l1.145-3.643-9.91-3.096 1.106-2.893 9.872 2.86c1.87-4.59 3.85-11.017 3.85-11.017 3.942 5.898 8.288 11.263 17.233 16.72l38.755-37.08-.25-23.84-26.386-26.386 10.983-5.723c-1.055-.85-2.585-1.66-3.67-2.512-.077-.06.218-.244.14-.304-.276-.212-.477-.384-.758-.58-.063-.044-.26.242-.324.198-3.727-2.614-7.455-5.185-10.39-8.312-.073-.08.035-.404-.04-.483-1.525-1.63-3.042-3.145-4.593-4.748-.72-.726-1.908-2.45-1.908-2.45l-.068-.57-1.666-2.096c-5.366 3.165-28.243 11.11-50.38 2.314l4.207-4.207c-1.12-2.702-1.846-5.717-2.135-8.187-1.158-9.904-.715-27.738-.715-27.738zm69.782 5.608c1.013 0 1.835.822 1.835 1.835s-.822 1.835-1.835 1.835-1.83-.822-1.83-1.835.818-1.835 1.83-1.835zm5.74 2.183c.934 4.562 2.988 11.185 5.035 15.65l-2.438.27c-1.985-1.3-4.083-3.172-4.303-5.84-5.368.04-6.938-8.378-4.977-7.368-.25 2.876 1.813 4 3.838 3.728 1.743-.243 3.25-2.65 1.176-5.307.922-.36 1.373-.63 1.67-1.133zm-76.073 13.5c.356 5.833 1.5 10.088 2.57 14.495L95.942 90.215c.827-9.134 3.5-17.298 8.037-24.502zm50.87 19.213l1.348 1.932c-15.328 9-41.49 9.637-57.428 2.048l2.116-2.014c14.015 6.328 36.833 6.8 53.965-1.966zm-99.55 3.004c-1.544-.02-3.327.57-5.216 2.01-7.032-3.203-11.637 4.285-7.288 9.244-.644 3.57-1.13 4.235 1.555 7.85-2.854.363-6.456-.383-9.52-.855.518 5.286 8.088 6.517 11.24 5.936 3.402-.737 6.612.946 6.752.985 2 .56 3.243 1.522 5.216 1.985 3.254.774 8.018-3.04 8.708-6.66.065-.487.216-.927-.053-1-2.224.57-4.668 1.37-6.834 1.845-2.122.52-3.72 1.034-5.337 2.3l-.135-4.366c11.016.524 6.222-9.95 5.598-10.4 2.047-4.132-.415-8.82-4.685-8.873zm100.124.328l2.396 5.762-6.366 2.16-1.628-5.64zm-100.583.174c3.744.036 7.093 3.98 3.497 8.394 6.97 6.148-1.963 12.735-6.216 8.163-5.663 5.186-11.68-.23-8.515-5.878-6.04-5.404 1.41-12.652 6.496-7.984 1.25-1.92 3.036-2.712 4.738-2.695zm43.47 2.11c.896 0 1.623.727 1.623 1.623s-.727 1.623-1.623 1.623-1.623-.727-1.623-1.623.726-1.623 1.623-1.623zm-41.474.12c-.093.001-.203.043-.324.15-.182.017-.576.694-1.565 1.84-1.72 1.993-1.905 2.01-1.905 2.01-1.832-.6-3.056-.276-4.263.488 0 0-1.376-.26-3.275-1.847-.866-.724-1.332-.88-1.483-.493-.16.414.232.82 1.893 1.95L48.07 96.2c-.142 1.375.08 2.492.6 3.532 0 0-.405.976-2.037 3.114-.46.604-.84 1.26-.84 1.46-.003.832.722.273 2.39-1.835l1.55-2.01c1.96.68 2.646.266 3.875-.17a65.84 65.84 0 0 0 1.49 1.165c1.955 1.56 2.378 1.725 2.62 1.527.324-.266.28-.353-.46-.89-2.205-1.597-2.964-2.52-2.964-2.52.45-1.747-.042-3.192-.523-4.103 0 0 .035-.223 1.28-1.613.914-1.02 2.165-2.632 2.087-2.864a.31.31 0 0 0-.304-.338zm45.135.353l5.733 1.782-1.265 5.96-6.1-1.97zm41.49 1.463l1.6 5.815-5.965 1.584-.976-6.173zm4.188.097c.897 0 1.623.727 1.623 1.623s-.726 1.623-1.623 1.623-1.623-.727-1.623-1.623.727-1.623 1.623-1.623zm13.558.208l5.013 4.463-5.564 2.81-2.68-5.815zm-47.275 1.3l5.825.686-.237 6.26-6.685-.894zm-20.208.068l6.482 2.845-2.338 6.53-6.636-2.85zm16.707.507c2.39.374 1.746 3.193 0 3.246-.896 0-1.623-.727-1.623-1.623s.727-1.623 1.623-1.623zm20.957.005l.797 6.264-6.047.367-.13-6.366zm4.16.715c.896 0 1.623.727 1.623 1.623s-.727 1.623-1.623 1.623-1.623-.727-1.623-1.623.726-1.623 1.623-1.623zm-84.185.588c.925 0 1.676.747 1.676 1.67a1.68 1.68 0 0 1-1.676 1.676c-.924 0-1.67-.75-1.67-1.676a1.67 1.67 0 0 1 1.671-1.671zm71.607-.06c.896 0 1.623.727 1.623 1.623s-.727 1.623-1.623 1.623-1.623-.727-1.623-1.623.726-1.623 1.623-1.623zm28.482.4l2.357 6.438-6.607 2.13-1.87-6.612zm4.637.174c.896 0 1.623.727 1.623 1.623s-.727 1.623-1.623 1.623-1.623-.727-1.623-1.623.726-1.623 1.623-1.623zm11.423 1.826l4.27 3.02-2.115 1.178c-.554-1.327-1.533-2.9-2.154-4.197zm-61.03.584l6.303 1.367-.96 6.602-6.878-1.372zm-18.745.362l3.347 1.575-2.207 5.5-5.414-2.883zm14.963.357c.896 0 1.623.727 1.623 1.623s-.726 1.623-1.623 1.623-1.623-.727-1.623-1.623.727-1.623 1.623-1.623zm36.403.362l1.125 6.602-7.1 1-.44-6.733zm26.618.126c.896 0 1.623.727 1.623 1.623s-.726 1.623-1.623 1.623-1.623-.727-1.623-1.623.727-1.623 1.623-1.623zm-5.042.048l2.352 5.82-6.955 2.908-2.058-5.825zm-17.735.42c.897 0 1.623.727 1.623 1.623s-.726 1.623-1.623 1.623-1.623-.727-1.623-1.623.727-1.623 1.623-1.623zm-23.488.662l6.656.12-.077 6.675-7.288-.203zm53.23.464l2.618 1.816c-26.94 17.324-64.788 19.472-94.323 2.42L82.867 104c26.625 15.934 65.496 13.698 89.812-2.328zm-56.838.753c.897 0 1.623.727 1.623 1.623s-.726 1.623-1.623 1.623-1.623-.727-1.623-1.623.727-1.623 1.623-1.623zm13.664.367c.896 0 1.623.727 1.623 1.623s-.727 1.623-1.623 1.623-1.623-.727-1.623-1.623.726-1.623 1.623-1.623zm-31.7.894l6.95 2.01-1.183 5.487L95.952 109zm-4.598.04c.897 0 1.623.727 1.623 1.623s-.726 1.623-1.623 1.623-1.623-.727-1.623-1.623.727-1.623 1.623-1.623zm53.984 1.17l1.66 6.158-7.684 1.642-.927-6.057zm4.415.894c.896 0 1.623.727 1.623 1.623s-.726 1.623-1.623 1.623-1.623-.727-1.623-1.623.727-1.623 1.623-1.623zm-100.4.956l-.015 4.318c-1.274-1.05-2.714-2.17-4.188-3.3 1.503.08 2.9-.335 4.202-1.02zm-15.828.106c.35-.003 1.172.283 2.15.28 3.13-.01 8.974.966 10.703 2.386.576.47 1.438.9 1.908 1.652-.002.363-.515.373-1.27-.097-1.45-.9-3.86-1.702-7.085-2.15-.583-.08-.656-.057-.657.217-.002.34.537.537 2.236.816 2.2.36 2.667.577 3.154.7 1.306.358.47.835-.873.964-5.486.514-9.593-1.847-10.42-4.543-.067-.177-.005-.235.155-.237zm76.424.097l6.902.894-.314 5.777-7.554-.865zm-58.693.502c1.206.947.376 3.816-.28 4.66-.425.474-1.42.223-1.415-.444.15-.6-.062-3.453.068-4.337.48-.274 1.188-.196 1.628.12zm79.983.256l.357 5.955-7.53.343.058-5.85zm-25.405.4c.896 0 1.623.727 1.623 1.623s-.727 1.623-1.623 1.623-1.623-.727-1.623-1.623.726-1.623 1.623-1.623zm-41.957.082c.278 4.37-6.434 7.335-8.945 5.994-1.112-.594-.65-.96 1.555-1.406 2.853-.755 4.73-1.49 4.733-2.024.002-.327-.43-.288-1.594.145-1.8.6-3.652.86-5.36 1.628-1.278.58-1.775.784-2.062.435-.602-.73 2.238-2.576 5.182-3.067 2.2-.368 4.437-1.546 6.49-1.705zm71.516.546c.896 0 1.623.727 1.623 1.623s-.726 1.623-1.623 1.623-1.623-.727-1.623-1.623.726-1.623 1.623-1.623zm-15.093 1.188c.896 0 1.623.727 1.623 1.623s-.726 1.623-1.623 1.623-1.623-.727-1.623-1.623.726-1.623 1.623-1.623zm36.162 2.758c10.862 10.342 22.767 22.248 32.587 32.042l-.043 15.374-37.5 35.64c-6.79-4.145-12.54-9.328-17.832-18.532.597-.515 1.122-.842 1.575-1.405l-1.956 1.17c-6.918-11.063-9.85-33.106 1.898-50.777l-11.872.435 1.937-4.043 12.925-.705 5.226-5.608s1.656-.306 3.028-.623c1.36-.314 4.14-1.11 6.177-1.768l3.85-1.198zm-87.668 2.864s11.16 6.066 17.36 18.214c-20.033 17.232-27.584 37.3-29.29 58.186-10.904-10.198-16.413-15.84-26.265-25.743l.357-14.78zm42.136 1.927c-2.888 6.174-5.372 12.937-7.597 20.184l-3.106-.918s2.01-.84 2.903-1.372l-1.613-2.598 3.057-1.256-1.806-2.202 3.1-1.797-1.55-1.946 2.84-1.42-1.763-2.03 2.98-1.66-1.555-1.942zm.95.014l.87.17c.113-.043-.56 1.618-.488 1.676 1.085.223 1.148.163 1.473.26l.826-1.7 1.357.256c-2.738 6.18-5.666 12.94-7.346 20.257l-1.6-.333s.467-1.543.47-1.748c-.188-.04-1.088-.42-1.367-.53-.096.24-.667 2.03-.667 2.03l-1.265-.034c2.07-8 5.682-16.85 7.738-20.3zm5.202.237l2.835 2.347-3.217 1.25 1.666 2.217-3.4 1.232 1.956 2.304-3.376 1.246 2.014 2.787-3.51 1.183 2.217 2.45-3.168 1.483 1.898 1.88-2.09.68c-.318.08-1.647-.246-1.647-.246 2.003-7.13 4.478-14.358 7.834-20.812zM49.97 118.92c-.783.508-.336 1.615-1.32 2.56-.157.17-.17.56-.232.898-.047.258-.823 3.343-.823 3.343s.196-.236.507-1.22c.265-.84.495-2.434.64-2.7.724-.22.834-2.582 1.568-2.26.424.187.343.573.104 1.478-.523 1.8-.728 2.572.17 1.338 1.34-1.613 1.47-3.068-.04-3.376-.16-.03-.482-.06-.575-.063zm20.257.67l-35.04 32.9-.106 12.278 12.196 12.36 8.655 8.4c3.142-18.79 10.35-36.714 28.096-52.226-2.72-4.372-7.377-9.88-13.8-13.702zm94.454.338c-20.59 9.677-25.324 29.522-18.948 47.488 9.812-12.62 17.513-24.474 18.948-47.488zm-73.28 1.005l9.35 3.01-3.52 12.007-8.42-2.555-.86-2.125zm72.246.314c-.895 16.057-6.95 31.74-17.484 44.044-5.327-13.14-2.123-34.15 17.484-44.044zm-50.36.087l-.59 1.492 1.294.367.55-1.517zm-1.294 3.526l-.53 1.517 1.328.45.497-1.54zm55.158.275c-2.882 22.272-14.915 42.54-27.627 52.868 4.05 6.57 8.814 10.797 13.654 14.326l35.81-34.302-.14-11.442zm-94.628 5.912c-.22.814-.298 1.228-.298 1.228s.412-.38 1.5-.977c7.036-3.51 4.766 1.827 1.45 3.8-.74.394-1.502.863-1.502.863a43.53 43.53 0 0 0 1.467.301c4.27.887 3.36 3.385-1.092 2.996-.658-.057-1.432-.182-1.432-.145s.267.975.575 1.75c1.5 3.78-1.3 4.076-3.14 1.672-.256-.335-.838-1.258-.838-1.258s-.182.7-.292 1.374c-1.59 5.927-5.518 5.776-4.052-.237.183-.62.407-1.734.407-1.734s-.883.533-1.844.962c-5.085 2.27-5.91-.066-1.29-3.483 1.314-.972 1.76-1.354 1.76-1.354a13.46 13.46 0 0 1-2.239-.355c-3.685-.925-4.667-3.128 1.237-3.024.872.018 1.76.075 1.76.075s-.29-1.266-.6-2.22c-1.424-4.418 1.446-4.944 3.868-.986.515.842.663.847.663.847-.074.003.152-1.507.74-2.903 2.932-5.43 4.08-.474 3.194 2.805zm63.33-4.395c-2.46 4.345-4.604 8.666-5.627 13.17l-9.568-.164c.662-3.995 2.352-8.15 4.37-12.543 3.895-.106 7.408-.278 10.824-.464zm-25.26 1.927l-.55 1.6 1.386.425.502-1.555zm-71.55 3c-1.025 2.664-1.368 5.63-1.937 8.008-.24 1.378.004 1.952.83 2.26 1.176.44 2.872-.16 3.82-1.517.535-.766.923-2.347 1.005-5.14l.092-2.487c-1.454-.27-2.447-.66-3.81-1.125zm70.256.348l-.46 1.468 1.338.497.512-1.483zm61.968.55c1.628.04 1.93.186 3.405 1.058l2.845 2.927c-.746.714-1.212 1.717-1.212 2.83 0 2.165 1.757 3.922 3.922 3.922 1.073 0 2.753-1.13 2.753-1.13l4.51 4.67c-2.628 1.15-5.202-1.498-6.17-2.546-.227-.246-.286-.415-.286-.415s.04.13-.054.647c-.378 2.08-2.43 8.215-4.39 7.888-2.208-.368.04-9.14.064-8.937-1.518 1.605-8.916 3.314-8.398 1.522 1.03-3.56 6.563-4.932 7.29-5.55-2.942-1.77-6.673-6.678-4.28-6.885zm-131.866.115c.937.066 1.58.18 2.217.445.297.08.3.327.343.56.006 1.05.27 4.137-.705 4.168-1.082-.023-2.098.21-2.81.753-.573.438-.763.12-.61-1 .15-1.086.7-3.37.923-4.294.037-.38.34-.65.642-.633zm29.235.04c-2.165 0-3.922 1.757-3.922 3.922s1.757 3.922 3.922 3.922 3.922-1.757 3.922-3.922-1.757-3.922-3.922-3.922zm0 1.372a2.55 2.55 0 0 1 2.55 2.55 2.55 2.55 0 1 1-5.1 0 2.55 2.55 0 0 1 2.55-2.55zm20.236.048c8.99 15.517 7.948 36.815-2.65 52.31l11.394-.797-1.497 2.917-12.147 1.183c-1.856 1.7-3.545 3.64-5.37 5.458l-.02.642c-4.164.967-8.332 2.08-12.577 3.6-2.24-2.2-6.455-6.598-6.427-6.71l.27-1.424c28.89-14.74 20.438-44.297 18.404-46.728 3.1-3.72 6.798-7.223 10.62-10.46zm80.178 2.82c1.17 0 2.115.95 2.115 2.12s-.945 2.12-2.115 2.12a2.12 2.12 0 1 1 0-4.241zm9.418.57l3.55 3.656c-.46.455-1.093.74-1.792.74a2.55 2.55 0 0 1-1.758-4.395zm-121.93.454c1.17 0 2.116.945 2.116 2.115s-.945 2.12-2.116 2.12a2.12 2.12 0 0 1-2.12-2.12 2.12 2.12 0 0 1 2.12-2.115zm-15.765.89c.992.332.76 1.26-.52 2.075-.83.528-1.59.644-2.32.254-1.383-.74 1.486-2.81 2.84-2.328zm16.378 5.187l-12.765 12.35c.803-2.052.833-4.1.894-6.148 3.84.396 5.45-1.553 4.888-5.564 2.48.148 5.052-.113 6.984-.638zm20.455 1.4c5.92 16.877.778 34.738-17.735 45.082.762-16.172 7.55-31.635 17.735-45.082zm16.86 1.478c10.16 2.66 21.725 3.9 33.732 3.907.1 4.57.3 9.4 1.246 14.065-10.228-2.676-21.653-3.92-34.133-3.7.518-4.83-.31-10.307-.845-14.272zm75.337 2.497l-10.82 12.65.454-6.907c3.644.464 4.942-1.458 4.405-5.255 1.988.246 3.972-.102 5.96-.488zm-105.128.7l-.855 5.052c-2.16.058-4.28.825-4.25 5.646l-6.453-.077zM183.74 151c1.17 0 2.115.95 2.115 2.12s-.945 2.12-2.115 2.12a2.12 2.12 0 1 1 0-4.241zm-128.88.642a2.12 2.12 0 0 1 2.12 2.12c0 1.17-.95 2.115-2.12 2.115s-2.12-.945-2.12-2.115a2.12 2.12 0 0 1 2.12-2.12zm124.153 2.173l-1.13 7.65c-2.948-.26-5.408.195-4.65 5.38-2.494-.244-5.958.345-8.278.546zm-10.563 1.386a2.12 2.12 0 0 1 2.12 2.12c0 1.17-.95 2.115-2.12 2.115s-2.12-.945-2.12-2.115a2.12 2.12 0 0 1 2.12-2.12zm-129.123 1.642a2.12 2.12 0 0 1 2.12 2.12c0 1.17-.95 2.115-2.12 2.115s-2.115-.945-2.115-2.115.945-2.12 2.115-2.12zm7.028 2.507c2.706.607 1.454 6.916.845 8.63-.046.046 7.55-3.98 8.003-2.202.297 3.563-6.29 6.047-6.29 6.047s4.438 3.855 4.564 6.28c.01 1.568-1.856 1.277-4.28-.7l-2.55-2.487c.832-.72 1.357-1.784 1.357-2.97 0-2.165-1.757-3.922-3.922-3.922a3.91 3.91 0 0 0-2.985 1.381l-2.053-1.98c-1.4-1.31-2.383-2.35-2.24-2.82 1.847-1.3 5.52 2.194 5.85 2.512-.275-.68 1.757-7.395 3.7-7.757zm-3.7 7.757c.015.036.034.058.063.058l-.063-.058zm115.367-2.83c1.287-.018 1.207 2.912.75 4.434-.314 1.16-.623 2.11-.623 2.11s1.085-.847 1.565-1.072c3.503-1.64 4.81.217 3.043 2.37-.85 1.108-2.006 1.354-2.946 2.285 1.34.06 2.876.358 4.033 1.038.9.538 1.605 1.19 1.604 1.594-.004.906-2.228 1.394-4.308 1.16-.885.02-2.55-.454-2.55-.454s.7 1.16.942 1.855c.777 2.155.504 4.68-.618 4.675-1.88-.502-2.796-2.59-3.53-4.09-.603 1.672-1.188 3.46-2.53 4.704-1.332 1.232-2.015.21-1.946-1.88.027-.83.638-3.308.638-3.308-7.89 2.664-7.305-.94-1.147-4.096-3.793-1.81-6.098-3.436.354-3.805-.17-.155-1.297-3.6-.092-4.42 1.12-.752 3.508 1.83 3.622 1.956-.048-.255.63-2.28 1.763-3.676.87-.984 1.515-1.375 1.98-1.38zm-7.274 7.52zm34.544-2.282c-1.374.125-2.23 1.344-2.865 2.408-.13.216-.367.292-.455.577-.57 1.833-1.066 4.03-1.37 6.763.87.358 2.835.962 3.703.637.244-.102.17-.734.25-.942 1.37-3.45 2.047-6.028 2.047-7.613 0-1.278-.44-1.91-1.31-1.83zm-141.198-.157a2.55 2.55 0 0 1 2.55 2.55c0 .81-.378 1.53-.966 1.995l-3.584-3.574a2.54 2.54 0 0 1 2-.971zm141.684 1.214c.345.837-.763 1.745-2.196 1.74-.852-.003-1.13.117-.75-.622.452-.9 2.287-2.718 2.946-1.117zm-19.227-.59a2.12 2.12 0 0 1 2.12 2.12 2.12 2.12 0 0 1-2.12 2.116c-1.17 0-2.12-.945-2.12-2.116a2.12 2.12 0 0 1 2.12-2.12zm-111.77.15c1.17 0 2.12.945 2.12 2.116a2.12 2.12 0 0 1-2.12 2.12 2.12 2.12 0 0 1-2.115-2.12c0-1.17.945-2.116 2.115-2.116zm100.24.86c-2.165 0-3.922 1.757-3.922 3.922s1.757 3.922 3.922 3.922 3.922-1.757 3.922-3.922-1.757-3.922-3.922-3.922zm-52.414.526c-1.03 4.52-2.618 8.84-4.622 13.113-3.78.228-7.867.404-10.563.787 4.49-7.863 4.598-9.71 6.26-13.876zm6.496.638c1.062.125 2.226.286 3.275.488-1.93 6.793-4.482 13.767-7.776 20.48l-1.995-.31-.947-1.17 3.168-1.265-2.468-2.52 4.09-1.236-2.516-2.483 4.043-1.01-2.164-2.627 3.627-1.415-2.304-2.975 3.864-1.063zm45.918.208a2.55 2.55 0 0 1 2.55 2.55 2.55 2.55 0 0 1-2.55 2.545c-1.407 0-2.55-1.138-2.55-2.545a2.55 2.55 0 0 1 2.55-2.55zm-41.92.386l1.348.217-.415 1.444 1.536.328.497-1.56s1.235.114 1.367.213c-1.61 6.557-7.298 20.28-7.37 20.208l-1.463-.217.386-1.386-1.362-.193v-.015l-.657 1.507-1.454-.12c3.522-8.038 5.92-14.208 7.588-20.426zm71.59.522c1.08-.005 1.015.552.232 2.59-.736 1.914-1.01 2.68-1.368 2.928-.85.604-2.685.097-2.536-.783.482-2.86.654-4.08 1.392-4.467.77-.152 1.518-.264 2.28-.267zm-66.17.237l3.516.68-2.94 1.748 1.87 2.183-3.613 1.54 2.193 2.27-3.487 1.425 2.12 2.497-3.618 1.526 2.463 2.135-4.067 1.285 1.54 2.367-1.53.855-1.888-.295c3.135-7.313 5.15-13.328 7.443-20.218zm8.64 1.748l6.887 1.874 1.377 2.458-3.23 10.91-9.177-2.695zm-13.688 1.053l-.657 1.792 1.517.314.584-1.845zm-1.333 4.115l-.657 1.792 1.425.28.67-1.81zm-1.343 3.618l-.67 1.782 1.386.285.662-1.787zm64.71 3.28c.002 0-.703.5-.888.735.153.41.598 1.037.53 1.45-.06.3-.406.56-.926 1.113-1.297 1.51-1.753 1.345-1-.266.248-.506.357-.976.357-.976-.3.42-.526.918-.73 1.312l-.827 1.602c.826.285 1.375.9 1.908 1.297 0 0 .27-.73.46-1.43.262-.974.777-1.375 1.4-1.7.4-.212.78-.596.78-.596-.697-.7-.776-1.726-1.077-2.533zm-66.144.44l-.7 1.898 1.38.338.768-1.937zm-77.926 4.772c-.126 7.558.124 12.535-.14 20.686l20.464 26.52-3.193 1.072s-.035.368-.208.415c-4.373 1.203-11.466 2.4-11.466 2.4 5.276 12.046 8.697 27.11 6.337 42.155l52.965-.14zm112.015 12.81l-1.826 1.83c-26.936-14.578-64.035-14.52-91.107 3.13l-2.207-1.618c29.547-18.93 65.9-18.81 95.14-3.342zM32.43 195.174l62.34 89.55-7.322.106-54.964-71.903zm133.784 1.618s-1.8.467-3.313.95c-4.332 1.387-6.358 3.892-5.96 7.37.118 1.028.384 1.013 2.15-.1 4.13-2.608 4.39-2.723 9.534-4.23.398-.117.976-.03.976-.03l-.227 4.062c-8.577-.032-8.108 6.78-5.64 10.322-.864 1.638-2.753 7.355 3.468 9.53 3.103.618 6.4-1.903 6.29-2.033 5.724 2.707 12.367-1.832 7.187-9.694 1.947-3.43.574-5.974-1.285-8.163 0 0 .314.027 3.024.526 4.1.758 5.68.623 5.68.623.005-3.7-3.058-5.35-9.447-5.854-4.525.638-12.432-3.31-12.432-3.28zm-69 .43l.923.005-.3 6.318-6.96.32-.454-6.293c2.397-.165 4.625-.34 6.79-.348zm8.34.155l7.467.908-1.13 5.907-6.878-.74zm60.408.068c.767-.017.6.78-.3.956-1.342.263-4.785 2.267-4.786 2.787-.002.335.17.287 1.43-.386.63-.337 1.944-.9 2.917-1.28a63.2 63.2 0 0 0 2.473-.99c1.157-.522 1.73-.16 1.314.826-.276.653-.385.704-3.067 1.555-2.427.77-2.873.97-4.415 1.956a34.6 34.6 0 0 1-2.265 1.304c-1.585.82-1.907.824-1.903-.28-.087-3.272 3.533-5.728 8.438-6.433.06-.01.113-.013.164-.015zm-64.47.768a1.69 1.69 0 0 1 0 3.381 1.69 1.69 0 1 1 0-3.381zm-18.474.45l.555 5.733-6.844 1.758-1.565-5.92c2.618-.64 5.235-1.092 7.853-1.57zm88.165.435c1.876.286 1.727 4.582.768 5.327-1.477 1.063-2.383-1.16-1.724-4.1.186-.887.528-1.197.956-1.217zm-84.282.232a1.69 1.69 0 1 1 0 3.381 1.69 1.69 0 1 1 0-3.381zm33.433.493l7.738 2.11-1.893 5.99-7.26-2.043zm-4.212.116a1.69 1.69 0 1 1 0 3.381 1.69 1.69 0 1 1 0-3.381zm63.296.502c3.333.035 7.73 1.707 7.738 4.284-.068.732-6.983-.24-10.177-1.526-1.133-.456-2.514-1.845-2.512-2.425.002-.345.676-.32.95.015.45.546 2.042 1.117 5.7 2.038 2.8.708 3.09.735 3.09.31.002-.388-1.66-.923-3.458-1.222-.905-.148-1.75-.42-3.14-.54-.648-.002-.806-.41-.266-.686.59-.175 1.303-.254 2.072-.246zm-5.888 1.333c.84.394 1.144 1.18 1.608 1.594-.577.273-.834.55-1.768.618.017-.617-.15-1.353.16-2.212zm-101.327.464a1.69 1.69 0 0 1 0 3.381 1.69 1.69 0 1 1 0-3.381zm-4.55.478l1.826 5.854-6.54 2.845-2.318-5.8c2.26-1.188 4.734-2.052 7.032-2.898zm30.24.956l7.008.03-.42 6.607-6.5.048zm-6.96.362l.362 6.598-6.26.84-1.236-6.636zm39.576.058a1.69 1.69 0 1 1 0 3.381 1.69 1.69 0 1 1 0-3.381zm45.3.155c3.81.016 7.446 4.4 3.68 8.993 6.177 4.752-.54 12.74-6 8.085-7.807 7.67-12.17-2.745-8.94-5.506-4.77-7.84 1.09-12.795 7.14-9.336 1.114-1.58 2.63-2.243 4.12-2.236zm-63.798.188l6.868 1.526-1.38 6.525-6.71-1.362zm22.73.16l6.28 3.12-4.87 4.685-3.618-1.802zm-40.257.74a1.69 1.69 0 1 1 0 3.381 1.69 1.69 0 1 1 0-3.381zm13.567.213a1.69 1.69 0 0 1 0 3.381c-2.488-.4-1.82-3.326 0-3.38zm-31.274.95l1.53 6.525-6.36 2.15-2.275-6.356zm4.37.464a1.69 1.69 0 1 1 0 3.381 1.69 1.69 0 0 1 0-3.381zm94.16 3.01c-.478.595-1.107 1.295-1.107 1.295-1.583-.653-3.116-.392-4.143.312l-2.087-1.675c-1.726-1.395-2.302-1.713-2.304-1.13 0 .12.586.718 1.3 1.328 1.946 1.665 2.344 2.266 2.344 2.266-.468 1.51-.463 2.695.43 3.966 0 0 .037.165-.646.887-1.24 1.308-2.52 3.328-2.225 3.625.366.37 1.402-.515 2.703-2.272.927-1.252 1.205-1.28 1.205-1.28 1.58.427 2.457.813 4.037-.492 0 0 .596.18 1.787 1.164 1.856 1.532 2.522 1.862 2.724 1.343.164-.424-.08-.707-1.652-1.903l-2.162-1.69c.334-.55.572-2.5-.573-3.835 0 0 .045.088 1.737-2.105 1.126-1.46 1.32-1.643.948-1.956-.497-.65-2.15 1.946-2.318 2.154zm-49.057-1.87l6.197 2.603-2.217 6.477-5.984-2.444zm-68.184.435a1.69 1.69 0 1 1 0 3.381 1.69 1.69 0 1 1 0-3.381zm63.393.174a1.69 1.69 0 1 1 0 3.381 1.69 1.69 0 1 1 0-3.381zm-67.72.464l2.03 5.023-4.613-3.44zm50.854 1.294l6.173.73-.976 5.883-5.323-.483zm-6.738.015l-.063 6.047-5.864.25-.497-6.037zm-30.168 1.1a1.69 1.69 0 1 1 0 3.381 1.69 1.69 0 1 1 0-3.381zm-4.675.12l2.386 6.076-3.7 1.787-4.96-4.695zm22.068.077l.956 5.78-6.115 1.512-1.483-5.883zm87.397.058a2.41 2.41 0 1 1 0 4.82 2.41 2.41 0 1 1 0-4.82zm-71.545.184a1.69 1.69 0 1 1 0 3.381 1.69 1.69 0 0 1 0-3.381zm16.654.623l6.52 2.11-2.193 5.22-5.632-1.526zm-28.897.217a1.69 1.69 0 1 1 0 3.381 1.69 1.69 0 1 1 0-3.381zm24.792.623a1.69 1.69 0 1 1 0 3.381 1.69 1.69 0 1 1 0-3.381zm-41.402 1.98l2.246 5.168-6.134 2.652-2.67-5.27zm4.347.31a1.69 1.69 0 1 1 0 3.381 1.69 1.69 0 1 1 0-3.381zm22.6 1.56c10.07-.02 19.16 2.084 26.458 5.105l-2.173 2.038c-23.67-8.134-39.148-4.47-55.022 2.492l-1.604-1.98c11.22-5.488 22.27-7.634 32.34-7.655zm26.777.063a1.69 1.69 0 1 1 0 3.381 1.69 1.69 0 1 1 0-3.381zm-61.683 3.71c1.358.08 1.488 2.614.855 1.884l-1.512-1.748c.245-.105.463-.147.657-.135zm63.277 1.048c-.05 1.922-1.87 14.802-8.013 23.657-.373-4.48-1.454-9.834-2.66-13.408 0 0 6.6-6.107 10.674-10.25zm-78.578 19.518l31.964 43.102-3.357-.024c-.7-3.165-1.716-6.403-3.71-8.824-1.618-1.966-3.067-3.447-5.97-4.767-1.746-.794-1.97-.625-2.082-1.966-.527-7.54-6.632-12.28-11.307-14.084-.45-4.557-2.508-9.04-7.665-12.814zm-3.112 1.032c2.92 2.007 6.12 3.748 7.846 11.66.13 1.655.23 1.48 1.53 1.965 5.094 1.493 9.526 7.616 9.92 12.968-.004 1.614.522 1.758 2.512 2.594 2.443 1.026 4.98 3.196 6.414 5.332 2.135 3.07 2.89 7.722 2.705 7.5l-1.758.01c-1.254-7.885-6.215-11.03-11.462-12.504.41-11.132-8.247-14.606-11.27-15.128.178-8.018-5-11.325-8.358-14.016.624-.245 1.92-.383 1.92-.383zm-5.17 1.106c2.614.854 4.596 4.498 4.395 6.174 3.45.435 7.072 3.768 6.277 7.24-.255.147-.658.177-1.057-.222.924-6.736-9.132-3.402-5.114 1.472l-1.797 1.174c-1.445-6.742-3.224-10.56-5.155-15.43.704-.186 2.45-.408 2.45-.408zm8.326 14.124c.893 0 1.613.725 1.613 1.618s-.72 1.618-1.613 1.618a1.62 1.62 0 0 1-1.618-1.618 1.62 1.62 0 0 1 1.618-1.618zm8.633 7.27c3.84 1.086 5.083 4.973 4.956 6.388l-.84-.02c-1.35-6.16-8.37-2.808-5.44 2.103-3.752 1.387-3.456 4.85-2.35 6.22 1.525 1.9 5.413 1.83 6.598-1.078 3.648 4.72 8.68-.576 4.24-4.975 3.637 1.34 4.22 6.212 3.674 7.734 1.688.576 3.633 3.255 3.373 3.24l-27.25.005s1.32-10.996-.082-19.295c1.813.436 3.03.874 5.115-1.575 3.376 2.795 5.802.686 5.627-1.73-.26-1.69-1.132-2.528-2.58-3.42 2.955-.726 5.19 4.384 4.958 6.402zm3.04 7.747c.92 0 1.666.746 1.666 1.666s-.746 1.666-1.666 1.666-1.666-.746-1.666-1.666.746-1.666 1.666-1.666z"/>
</svg>