<svg xmlns="http://www.w3.org/2000/svg" width="224.225" height="312.808">
    <rect rx="10.63" width="223.228" height="311.811" x=".499" y=".499" fill="#fff" stroke="#000" stroke-width=".997"/>
    <g transform="matrix(.154103 .000598 -.000598 .154103 -223.733174 103.833855)">
        <path d="M2703.566-522.465l-1059 4.64 12.97 1700.212 1062.765-6.342-16.746-1698.5zm-124.88 14.797l111.69.13 2.538 654.245s-6.96-.174-6.33-4.757c.84-6.136-.144-17.61-4.462-22.42-1.82-2.028-4.79-5.217-5.967-7.54-2.956-5.836-7.808-11.87-11.677-13.486-1.923-.804-4.15-1.248-4.447-2.577-.275-1.234-.92-5.31-1.754-9.056-2.1-9.382-3.916-9.08 2.022-18.445 20.576-32.453 28.43-62.264 25.7-91.78-.853-9.22-3.213-21.16-4.312-22.794-19.93 20.126-34.317 44.96-47.86 63.317-3.136-26.14-2.776-45.882-3.298-66.847 10.673-3.088 17.115-8.8 21.66-23.365 0 0 11.49 8.922 18.498 7.616l-4.685-16.88c30.6-9.52 34.635-49.516-1.582-57.825l3.176-21.065s-10.904 3.698-15.695 6.06c-2.386 1.016-2.98.22-4.67-3.232-16.975-26.184-43.154-20.495-54.604 5.43l-14.148-5.945c1.56 7.156 3.414 14.412 2.146 21.586-29.595 13.315-22.132 49.414 1.553 54.057l-1.997 16.883 17.8-5.82c2.628 7.92 1.317 12.508 15.583 21.377-.21 35.37-.7 57.486.532 88.905-18.628-18.926-36.584-32.05-68.006-41.61 0 0-.263 7.618 1.606 19.18.616 3.815.5 3.255-1.3 3.255-4.08-.077-22.584-29.57-22.584-29.57s-2.137.035-3.993 1.89c-2.182 2.182 2.838 6.177 9.908 16.587 8.276 12.186 7.48 11.673 1.035 17.184-36.628 31.323-89.242 150.213-80.28 161.72-23.224 1.48-113.6 46.225-129.685 137.817-.96 4.125-2.87 9.48-2.87 9.48l-26.213-6.398 50.555-227.604s25.034-7.217 39.685-8.842l-.18-5.906-34.47 8.165 1.606-13.07 32.538-6.533-.106-3.093-34.45 4.76 5.54-21.772s-77.334 11.665-105.052 10.94c2.083 84.57-4.32 154.856-.373 245.99l-37.918-22.778c-3.61-63.446-5.243-223.73-5.243-223.73l-104.516-16 3.566 25.166c-86.723-33.983-173.713-65.225-237.935-132.07 39.26-30.372 104.86-60.595 104.86-60.595l-2.175-4.804c-161.26 83.925-221.048 142.03-301.953 214.142l-4.5-593.55 440.996-1.93-1.05 108.255s-.562 2.806-1.392 3.787c-5.3 26.245 10.37 72.734 7.34 95.4 1.47 7 1.015 19.996 1.015 19.996-26.19 36.165-40.005 70.455-51.564 112.42-4.528 1.817-11.195 5.552-15.91 6.843l-1.322 5.724c10.3-5.715 39.567-15.09 39.567-15.09 130.747 63.113 226.58 47.168 329.032-.495-16.142 57.505 19.718 130.41 78.315 145.54 6.7 1.73 18.173 3.183 24.725 1.435 6.547-1.915-14.948-50.587-24.39-52.375-28.324-12.138-40.08-40.872-37.193-73.888l-4.718-7.857c-9.484 40.132 13.868 80.753 45.758 90.573l8.635 18.654c-57.794-17.09-82.585-71.047-63.577-124.567.206-33.352-21.46-48.014-31.43-62.347-50.276-18.956-59.785-65.412-51.15-103.02 23.408 9.85-15.878-32.94-15.878-32.94-17.07 37.35-24.078 84.512 15.482 132.128-25.34 33.848-58.08 60.674-94.708 83.618-53.552 28.21-93.883 9.498-120.048-52.4-15.7-37.17-21.43-74.263-21.502-113.136-.005-24.067.263-24.798 9.295-20.755 8.485 3.8 26.86 4.272 37.807-1.428 14.918-7.766 14.23-3.072-1.978 13.727-4.41 4.57-9.12 8.695-9.12 9.567 0 4.94 6.95.75 16.84-9.128 3.61-3.607 6.277-7.077 7.4-7.03 1.298.055 1.198 4.683-.275 9.69-.565 1.92-2.357 10.04-3.993 18.016s-3.883 17.345-4.982 20.832c-4.36 13.838-3.138 20.24 10.142 26.573 7.003 3.34 19 14.75 18.896 14.752 0 0-2.904-12.554-1.862-16.598 1.253-4.864 7.04-1.45 12.936 1.337 13.03 6.162 20.6 6.3 27.556.456 9.6-8.078 6.77-26.128-5.154-30.793-8.747-3.422-10.262-.22-1.52 5.827 13.116 9.07-1.58 23.227-12.72 14.53-8.716-6.803-23.805-7.5-25.466-1.8-1.57 5.39-3.22 4.417-9.248.926-9.37-5.427-9.452-6.382-1.736-36.556 14.61-57.135 13.077-78.085-6.65-95.35-14.603-12.78-38.663-18.646-63.548-4.285l-.075-19.437c36.552-14.77 63.092-39.077 84.4-79.672l4.187-.016c21.56 46.213 56.253 79.33 121.37 103.467 25.503 24.984-32.48-71.92-13.938-32.227-34.554-13.228-65.413-39.01-82.465-71.337l9.406-.036c9.967 14.282 30.15 40.334 65.976 58.244 3.256 2.703 6.375-.118 6.375-.118s-30.18-46.883-35.132-58.052l299.703-3.284c-9.227 73.03-22.312 152.406 30.945 294.367-24.77-12.884-123.782 15.152-106.312 20.55 8.72-10.14 71.822-25.307 118.6-14.46-3.88-3.323-71.89-159.463-33.222-298.936zm33.222 298.936c.086.074.167.11.188.03-.06-.014-.126-.016-.188-.03zM2381.44 73.852l.326 11.436 2.373-.572-1.418-11.12zM2108.596-505.5l13.156-.05c-2.866 5.953-7.066 10.425-13.477 14.115zm22.625-.088l14.156-.055c-10.96 17.595-22.644 28.273-36.764 36.643l.197-13.75c8.155-7.2 15.932-14.64 22.412-22.837zm23.406-.09l13.063-.05c-17.623 27.303-35.747 45.658-58.997 57.323l-.043-11.125c14.345-11.246 34.686-27.77 45.978-46.147zm19.937-.077l10.562-.04c-18.027 34.668-43.263 58.662-76.377 72.078l-.032-8.312c36.252-19.5 52.063-41.17 65.847-63.725zm28.875-.112l12.687-.05c17.542 34.523 53.832 67.105 93.597 81.294l6.117 14.008c-52.42-18.6-87.196-45.873-112.402-95.252zm36.718-.142l9.062-.035c9.577 13.24 21.165 23.985 34.7 32.897l8.28 15.874c-18.256-12.178-38.64-26.974-52.033-48.736zm16.53-.064l10.127.492 13.493 22.292c-8.952-4.984-15.755-15.162-23.62-22.784zm-11.276 89.857c-13.883-.01-26.496 3.867-35.613 11.357-9.63 7.912-2.49 16.463 11.382 9.956 23.627-11.082 50.84-6.234 80.257 9.72 24.768 13.433 16.055-.632-7.06-15.598-15.847-10.395-33.232-15.424-48.966-15.435zm-111.555 18.152c19.913.08 42.76 8.81 43.36 20.488-13.25-10.995-39.815-16.256-65.238-4.81-1.95-.406-2.25-7.332-1.1-9.87 5.468-4.07 13.926-5.845 22.978-5.808zm120.622 7.063c-12.592.046-24.1 3.387-29.397 10.49-2.706 3.368-3.424 3.73-6.425 3.244-5.86-.95-5.52 2.434 1.202 11.683 3.26 4.487 2.748 9.608-1.564 15.725-4.95 7.023-3.98 7.287 10.868 14.333 11.35 5.472 20.48 13.26 30.795 19.662 7.368 4.12 8.822.465 2.012-4.977-2.337-1.868-9.26-6.77-15.48-10.784-10.54-6.802-18.285-13.69-9.916-10.65 3.836 1.196 4.825 1.697 9.04 2.402 10.84 2.3 21.548 3.563 30.632 1.694 6.515-1.328 14.993-5.677 21.955-11.742 1.78-.83 3.547.037 7.876.188 16.56.578 12.886-4.267-10.942-17.145-23.576-12.742-42.04-15.01-57.062-7.904-6.36 3.01-10.005 3.768-9.087 1.88.957-1.97 2.718-4.26 5.57-5.928 24.267-14.65 43.86-2.66 65.345 8.184 9.223 5.448 11.715 6.864 12.8 5.107 1.39-2.25-10.3-10.492-25.977-18.274-9.192-4.72-21.136-7.228-32.247-7.187zm-77.697 17.154c4.123 1.596 2.296 6.308-1.47 4.84-22.5-9.997-27.027-14.894-53.765-5.457-8.834 3.118-12.348.406-1.51-4.3 23.614-9.988 40.803-3.38 56.746 4.907zm-15.347 11.926c-5.964 30.925-36.764 21.517-33.374.286l5.656.01c.513 18.66 19.217 18.462 22.344.1zm178.905-.632l8.35 17.686c-17.944 44.688 6.884 104.672 60.43 118.86 0 0 8.68 13.226 6.995 14.9-100.505-21.834-93.152-117.594-75.776-151.457zm-95.12 1.525l2.813.145c8.756 21.504 21.303 9.08 23.72-.03l6.407.13c-1.87 22.315-35.697 26.233-32.94-.247zm-77.403.925c4.062-.5 5.47 5.605 4.34 6.733-.313.312-7.718 7.562-8.644 3.315-1.354-6.213 2.617-9.737 4.305-10.048zm-46.84.807c.344.001.692.016 1.063.058 2.528 1.91 3.506 7.65 2.197 10.617-1.486 1.554-7.522-.536-8.698-2.84-1.806-3.37.283-7.848 5.438-7.834zm162.882 1.43c1.983.07 7.447 2.406 6.926 5.036-.132.668-7.7 6.286-9.417 5.38-3.3-1.742 1.225-9.787 1.866-10.29.113-.088.34-.138.625-.127zm-44.37 1.14c.05-.015.107-.014.125 0 .587.432 5.45 3.43 1.348 9.026-.283.386-5.793-1.55-5.884-2.196-.46-3.243 3.656-6.597 4.41-6.83zm121.838 38.653c-1.125 25.65 5.66 50.523 33.727 66.4l-6.074-10.977c-7.2-5.69-22.308-21.953-20.504-41.4zm-251.32 46.82l3.222 16.863c-15.312 25.666-26.915 50.878-36.5 80.33l-14.542 5.37c11.418-37.14 21.995-66.577 47.82-102.56zm6.227 26.257l4.18 14.484c-7.513 13.974-15.538 29.758-20.345 48.11l-16.07 6c7.148-24.32 17.647-47.96 32.234-68.594zm51.054 5.802c-.24.003-.476.03-.718.096-.16 2.86-.097 10.76.56 23.78.125 2.47 2.544 1.42 9.367-2.1 5.95-3.068 5.333-3.548 11.12-1.637 16.022 5.417 23.292 3 29.537 1.375 9.524-2.493 13.42-1.514 18.976 1.78 3.056 1.812 7.22 3.14 8.045 3.438 4.396 1.58 2.715-.345-.33-12.186-3.423-13.317-1.983-14.785-7.313-11.292-1.17.767-4.553 2.657-6.405 2.88-4.653.56-12.45-5.116-17.078-3.284-11.2 4.436-11.114 3.28-21.55.765-5.217-1.257-10.195 1.937-14.717 2.848-2.585.333-5.892-6.503-9.494-6.463zm191.025 6.165c19.037 17.324 38.56 23.203 59.74 29.706-2.516 8.662-7.584 18.4-9.916 29.726-109.87 58.62-220.512 57.22-325.078 4.792l54.076-20.897c29.786 51.127 67.767 64.66 110.342 47.73 47.564-22.35 82.72-53.324 110.835-91.056zm-235.208 11.163l4.736 12.544-6.895 18.964-13.26 5.426c2.494-12.91 7.36-23.53 15.42-36.935zm99.556 14.176c-3.295.17-8.264 2.406-19.615 2.514-6.146.058-10.962-.472-13.344.02-4.94 1.02.847 3.207 11.93 6.33 11.084 3.108 24.593-1.697 26.256-6.508.406-1.176-1.06-2.57-5.228-2.355zm-91.694 6.543l2.93 6.364-4.962 1.8zm292.73 2.458l8.29 18.687c-14.12 30.873-23.247 115.375 71.924 141.285l4.203 12.078c-64.7 1.515-129.863-80.476-84.418-172.05zm-217.66 7.22c-9.3-.056-19 2.288-25.253 7.286-5.645 4.5 1.288 7.298 8.64 3.685 9.52-4.68 25.448-4.358 34.818 1.46 7.167 4.845 10.89 3.973 6.08-3.43-3.776-5.8-13.756-8.936-24.285-9zm415.172 19.42c24.847-.506 27.568 35.054 22.742 38.13 1.397-.477 5.638-1.743 11.68-1.608 18.21.406 27.742 10.435 28.848 25.076 1.113 14.75-10.066 23.013-26.414 22.26-6.067-.28-10.25-.878-9.968.195 3.082 11.778-.515 29.564-16.118 34.063-1.793.517-4.338 3.028-4.39 3.923-1.097 18.705 4.478 82.92 4.478 82.92s29.093-49.332 35.655-56.826c12.823-17.646 15.16-16.083 15.3 13.16-1.976 40.57-8.448 49.9-32.205 84.032-10.17 14.7-34.415 7.097-32.184 17 .493 2.187 4.44 6.103 8.382 9.81 2.525 2.375 5.134 3.863 11.014 3.645 10.33-.383 14.344-2.494 8.21 6.507-4.856 7.124-22.013 8.664-23.933 12.366-4.465 8.613-1.393 6.702-9.054 14.285-5.86 6.47-3.825 3.177-1.123 8.473 4.235 6.83 2.536 20.502-1.603 29.725-3.372 7.513-2.972 12.862-2.972 12.862.064.625 9.523-9.84 12.344-21.9 2.346-10.033 5.12-15.07 5.12-9.457-.001 7.08 1.27 16.7 7.673 20.345 5.063 2.884 5.802 5.78 4.974 9.356-.856 3.695 3.102 6.932 7.008 10.004.918.91 3.993 2.098 3.672 4.048-1.015 6.165 1.514 13.4 6 14.562 2.005.984 14.753-.15 16.83-7.34-.213-2.288-.064-11.706-5.14-12.23-3.593-1.637-3.223-2.625 2.196-5.884 8.106-4.875 13.987-8.373 17.996-9.132 5.37-.75 10.506-6.603 10.506-6.603l2.533 387.18c-47.996 49.507-100.622 98.8-170.086 147.317-40.606-33.572-84.967-67.545-132.018-92.926l-16.256-9.53 5.784-7.46-28.3-37.015 31.588-25.623 8.07 10.125-14.943 14.62 22.596 24.788 50.37-49.508-33.436-31.746 17.218-32.536 11.115 5.394-8.295 20.626 25.406 15.933 31.474-63.123-40.3-18.156 10.023-42.352 12.41 1.264-4.007 30.485 31.368 6.097 12.47-71.893-46.032-8.04 3.747-40.984 12.844.106-1.787 22.663 32.518 4.5 5.882-62.648-45.122-7.294 5.625-48.366 10.318 1.43-1.884 29.82 33.115 5.528c3.56-20.232 6.424-45.63 11.746-65.484l-42.686-15.7 14.936-40.652 9.607 3.307-8.3 22.032 31.52 13.253 26.328-52.446-37.164-26.075c8.25-13.81 16.49-26.935 28.32-38.14l7.306 6.315s-2.663 2.42-6.75 8.12c-4.964 6.924-6.516 10.418-5.828 12.2.68 1.772 23.645 18.59 25.385 18.59 2.02 0 9.588-6.952 13.486-11.615 4.17-5 6.366-5.48 10.7-2.385.866.617 2.116 1.84 3.01 2.895 1.046 1.246 1.468 2.293 1.574 3.088.105.78-.113 1.304-.306 1.626.367-.35 1.162-.958 2.868-1.917 3.106-1.748-6.065-9.746-13.554-13.885-22.398-12.455-48.783-35.99-54.973-65.537-2.28-13.27 32.112 2.568 55.85 26.034l16.97 16.403c-2.076-34.173-4.994-68.884-3.62-103.487l-5.233-3.605c-7.326-5.06-10.17-13.402-10.866-21.77-.48-5.77 4.462-8.74-6.845-8.317-23.53.3-37.235-21.796-23.033-40.786 5.074-7.105 26.765-10.65 26.74-10.48-5.632-22.623 10.972-34.837 23.235-36.028zm-7.54 263.375c-.444.423-.255.425 0 0zm30.283-225.244l-.655.22a1.35 1.35 0 0 0 .655-.221zM1860.74-56.9c65.932 55.07 108.006 92.133 241.925 133.28l3.39 19.8c-76.98-17.458-161.024-53.08-261.116-142.05zM1841-44.052c41.762 38.684 84.532 68.105 127.798 92.755L1984 57.77l-7.782 8.03 25.548 36.526-32.584 26.783-7.81-7.72 16.997-16.785-24.374-23.78-49.274 50.254 34.023 29.93-19.54 30.295-7.137-3.19 10.356-21.103-31.566-17.065-34.967 64.855 44.923 20.232-9.97 39.758-10.47-.49 3.4-31.138-33.742-5.838-11.06 72.762 43.4 6.644-.87 41.88-11.563-.143.72-23.66-34.256-1.46-2.826 61.043 42.177 5.305-3.995 49.547-10.385-2.616 1.03-32.16-32.137-3.032-10.797 68.417 43.39 12.207-15.147 42.684-9.426-5.12 6.07-22.024-30.174-12.57-28.106 53.203 36.816 24.857-22.44 39.775-8.74-5.8 15.504-23.217-30.574-19.038-17.283 23.786c-7.4-6.377-20.7-15.214-25.77-21.15-5.423-4.9-9.535-5.634-16.484-3.967-5.484 1.315-10.765 2.328-9.56.38.592-.96 10.987-8.01 26.867-18.167 4.44-2.84 7.94-5.32 7.876-7.843-.047-1.884 2.392-4.88 5.6-6.834 3.548-2.163 2.744-4.162 2.163-6.383-3.123-11.93-1.255-30.557 4.708-43.112 3.99-8.405 5.246-9.916 2.618-9.916-7.745 1.023-17.08 29.127-18.856 37.042-.6-.625-1.482-8.022-2.042-10.867-1.01-5.14-1.746-8.325-5.88-9.3-4.943-1.154-3.385-3.524-3.903-7.235-.84-6.02-3.7-9.823-8.86-11.934-4.966-2.032-5.51-2.856-5.312-7.792-.032-3.877-4.097-10.425-7.11-12.504l-17.164 6.13c-1.335 4.543.487 10.42 3.33 12.55 8.67 8.093-3.968 8.254-12.604 13.58-2.333 1.523-5.12 4.827-7.017 3.746-5.502-1.78-5.007 14.637-10.42 12.603l-.215-393.846C1707.2 55.908 1841-44.052 1841-44.052zm696.328 66.955L2544 30.22c-20.457 23.2-35.268 47.065-51.58 76.2-13.917 24.858-25.892 59.63-32.09 97.53-4.808 23.203-5.475 46.8-8.414 70.533-2.99 25.536-3.445 59.903-8.225 86.876-8.73 73.952-29.34 113.365-74.304 155.477-19.763 18.51-81.33 53.56-83.013 53.23l-14.64-3.568c126.27-65.258 157.726-110.05 170.823-263.415 1.93-192.36 89.13-267.205 94.79-280.182zm12.487 12.827l6.806 6.505-36.735 52.3 36.505 25.515-14.307 33.775-11.047-4.05 7.755-23.03-30.675-12.787-24.5 67.096 43.678 13.58-7.018 43.684-8.822-2.34-.084-29.75-32.4-6.468-9.116 74.88 47.713 6.44-3.35 38.638-11.284-.737-.527-22.998-33.1-1.622-7.31 64.904 47 7.786-8.32 46.126-10.01-2.336 2.132-30.415-31.516-4.034-17.977 62.32 39.64 19.784-19.314 39.98-8.366-5.78 10.7-23.635-30.84-15.068-29.52 51.615 32.373 31.593-31.372 33.122-7.066-8.973 16.182-17.563-24.374-23.937-50.344 40.352 25.913 33.87-3.015 4.293-26.666-10.584-12.815-16.794-15.224 6.747-12.05-4.547c74.435-39.398 122.8-84.933 142.562-153.398 10.857-37.855 13.968-79.127 17.376-120.725 1.77-21.604 3.608-43.302 6.655-64.65 3.542-34.865 8.764-64.135 22.777-97.808 16.995-40.84 37.73-69.655 63.297-100.87zm-401.272 27.338l51.323 26.8-.68 17.94-47.435-23.535zm14.408.444l36.52 4.858.213 14.718zm-164.528 1.107l21.35 9.51 18.143 20.774 13.497-8.927 14.71 5.443c-46.315 24.03-87.382 52.73-119.26 102.088-35.523 55.005-39.216 126.854-43.52 196.202-7.253 95.667-23.393 162.908-86.66 240.682l-9.398-5.87 34.1-54.633-38.784-24.85 17.5-32.287 8.918 3.028-6.832 19.245 32.065 16.75 24.265-68.782-45.18-13.887 7.396-42.998 11.348.956-2.88 30.793 32.27 4.97 8.968-72.66-43.494-6.488.82-38.378 10.66 1 .03 23.344 34.288 1.71 2.4-66.26-42.643-4.553 5.068-46.8 11.942 1.172-2.64 28.073 32.83 4.56 15.328-60.622-42.7-19.084 22.84-40.995 10.362 4.7-10.475 22.697 29.618 14.29 30.816-47.495-33.06-31.497 32.212-33.97 7.968 7.75-17.484 20.255 24.43 22.405 48.03-40.624-23.668-35.283zm306.538 1.06l-1.434 16.974-51.23 29.355-.095-16.625zm275.563-.475l11.37 6.987-8.18 9.782-9.93-6.212zm-297.145 3.56l-30.68 17.87-.068-17.656zm362.687 15.156c1.606.03 3.08.37 4.223 1.11 3.102 2.006 2.678 6.98-.807 9.44-4.538 3.202-17.004 3.035-18.25-.242-1.798-4.724 7.878-10.44 14.835-10.308zm-490.75 8.904l44.217 23.64-.09 16.782-42.56-23.18zm143.75-.026l-2.51 21.885-45.344 24.27-.45-18.967zm-219.934 1.26l18.11 4.524c-66.867 30.142-132.898 73.742-158.36 149.46-7.95 22.662-13.277 47.87-16.684 80.127-1.528 34.015-5.784 67.5-7.282 95.866-3.05 57.76-21.755 136.04-87.095 219.38l-6.3-4.913c40.1-49.8 60.856-94.88 73.604-142.474 20.202-75.736 9.717-159.193 31.274-235.436 13.15-46.384 40.666-87.918 81.99-123.913 28.763-22.526 70.74-42.62 70.74-42.62zm30.43 6.226c.198-.01.288-.007.313.06 16.475 54.682 36.943 154.39 36.943 154.39-43.096-20.637-114.7-16.555-114.7-16.555s-40.5-51.814-48.312-56.063c32.05-43.585 119.6-81.505 125.746-81.832zm553.904 6.476c9.905-.355 9.25 14.698-3.247 24.982-6.384 5.253-9.352 4.53-14.092.367-1.397-1.86-5.432-3.176-8.386-2.81-7.026 0 6.803-14.587 19.14-20.637 2.55-1.25 4.752-1.835 6.586-1.9zm-502.855 14.2l39.422 20.035.44 16.623L2164 138.01zm133.383 1.733l-2.054 18.29-40.886 21.47.153-16.844zm383.4 5.325c1.36-.13 2.42.4 3.412 1.487 5.61 6.198-4.932 25.085-16.943 30.785-4.61 2.188-7.46 1.844-11.318-1.456-1.875-1.603-4.648-3.708-6.233-3.538-6.887.736-3.115-7.005 2.44-7.478 1.534-.13 11.146-7.382 18.417-13.478 4.873-4.086 7.958-6.102 10.226-6.32zm-41.596 7.505c8.696-.244 11.888 6.982 1.602 10.18-7.324 2.278-11.423.694-11.423-4.237 1.522-5.07 5.955-5.677 9.82-5.944zm-469.677 11.604l34.974 17.364.226 17.937-32.127-16.594zm124.915 1.984l-2.372 16.978-37.52 19.458.04-14.032zm394.056 5.596c2.377.138 3.092 2.785 3.092 7.488 0 7.79-5.13 15.002-12.866 18.55-5.662 2.598-9.665 2.412-12.502-.608-1.292-1.375-3.088-2.483-4-2.516-12.145-.434-10.2-3.572 1.405-8.474 4.087-1.727 12.1-7.328 15.9-10.062 4.274-3.077 7.134-4.486 8.983-4.38zm-44.54 5.704c5.956 0 11.217 4.182 7.933 6.907-2.553 2.12-12.157 3.174-14.058 1.273-3.61-3.61-.426-8.18 6.125-8.18zm-468.543 13.88l29.812 15.916-.1 17.063-28.468-15.952zm114.13.87l-.62 17.47-34.09 16.976-.283-16.655zm367.523 5.82c5.78.395 5.073 5.99.41 8.722-3.476 2.434-7.998 1.178-9.85-1.65-4.184-7.875 5.258-6.96 9.44-7.073zm11.662 17.883c.97 1.927.45 5.382-1.442 6.482-2.53 1.078-9.107-.01-10.13-1.923-.84-1.57-.653-2.397.953-4.004 2.68-2.15 8.717-3.76 10.62-.556zm-488.898 2.224l25.46 13.776-.09 16.75-23.396-13.472zm105.657.028l-1.187 16.13-29.505 14.77.345-15.72zM1972.63 212.47c6.337.05 11.246 4.252 7.545 11.47-2.31 4.508-4.06 6.177-14.167 13.368-4.125 2.935-7.702 5.62-7.977 5.968s-2.908 2.182-4.643 3.393c-9.058 6.322-5.957-6.817 5.305-26.208 3.228-5.558 9.01-8.03 13.938-7.992zm307.303 13.183l-2.275 17.76-26.385 13.602-.066-17.094zm-99.4 2.042l21.416 10.51.38 17.28-19.446-10.112zm256.784.348c.686-.03 1.287.202 1.722.806 1.76 2.445 2.082 13.032.386 19.03-2.964 7.06-8.85-10.7-8.215-15.218 1.235-2.05 4.048-4.526 6.107-4.617zm-449.328 4.962c8.644-.193 14.917 5.69 12.025 14.453-3.338 8.464-22.83 13.857-31.61 19.717-5.747 2.878-7.152-.215-5.395-5.198.813-2.305 1.437-4.11-2.956-4.74-10.665-1.53-4.2-6.734 15.298-19.903 4.27-2.885 8.7-4.243 12.64-4.33zm428.706 3.868c3.066-.046 6.853 1.736 10.773 5.958 6.742 7.262 11.654 22.59 8.01 26.594-2.806-.3-4.18 3.84-4.322 5.517-.407 4.836-9.263-3.955-17.663-17.838-6.767-11.183-3.542-20.13 3.203-20.23zm-360.02 3.99c26.35-.282 76.685 4.968 146.5 48.276 8.904 5.53 17.81 11.632 27.877 16.548 26.477 14.145 48.32 23.718 82.398 29.93l-.9 17.63c-.285 5.562 9.008 37.73 4.873 55.857-6.248-.096 6.052 5.32 6.052 5.32l8.063 16.344s-41.807-.192-60.828-3.858c-30.635-4.86-86.61-30.594-113.698-50.903-28.133-20.47-70.57-37.4-106.92-43.898l-.56-15.154s-3.808-51.882-6.73-58.974l-6.75-16.38c1.642.652 8.645-.608 20.622-.736zm219.886 10.522l-1.964 17.414-23.145 10.965-.058-14.906zm115.565.333c6.49-.01 16.345 7.545 27.62 22.674 2.54 3.408 4.5 6.366 4.876 8.42.347 1.893-.817 2.985-2.677 2.76-4.425-.782-6.053-2.37-7.27 3.122-.3 1.36.498 3.818-1.018 3.38-7.882-2.28-30.48-24.903-29.125-32.168 1.017-5.457 3.7-8.18 7.593-8.186zm-206.494 1.957l16.94 8.934.817 17.153-15.056-6.4zM2003.97 259.6c5.2-.19 8.42 1.847 10.085 5.867 4.014 9.69-3.005 15.565-23.89 20.03-18.144 4.387-17.77 4.654-15.258-2.097 1.667-4.48-3.946-4.955-7.086-6.13-5.307-1.983-.973-2.62 14.242-10.274 9.56-4.81 16.72-7.21 21.91-7.398zm-60.42 4.828c.516-.046 1.136.44 2.037 1.555 26.53 31.886 19.92 78.53-13.418 101.678-3.786 2.528-3.928.2-3.52-4.8l.62-9.502c.164-1.888 38.3-25.503 9.824-77.6l2.346-7.384c.747-2.352 1.25-3.868 2.1-3.946zm431.442 8.264c10.425 0 39.786 26.43 27.325 27.425-1.464.117-.956 2.015-.956 3.222s-.055 3.507-.39 4.377c-.89 2.32-4.304 1.876-9.567-1.213-13.343-7.83-16.374-10.33-20.994-14.67-9.092-8.536-6.56-19.143 4.582-19.143zm-103.013 4.962l-.132 14.313-20.804 10.175.075-12.938zm-264.114 11.306c14.027-.54 21.973 13.41 7.987 20.813-5.59 2.96-24.042.97-32.624.252-9.687-.813-3.98-3.7-3.455-4.58 1.32-2.192 2.35-2.533-2.71-5.52-4.028-4.205-6.33-5.232 3.693-6.577 4.865-.653 16.68-1.85 20.77-3.206 2.206-.73 4.335-1.104 6.34-1.18zm427.04 1.75c1.033-.05.928 1.665.524 6.123l-.65 9.565c-6.385 1.044-37.973 40.628-12.01 86.422l-2.125 8.165c-.975 4.036-1.295 4.626-4.648 2.143-19.378-13.28-25.913-81.25 14.013-109.524 2.6-1.736 4.092-2.855 4.895-2.894zm-75.344 8.26c3.732.052 8.3 1.086 13.545 3.447 12.216 5.502 20.337 9.958 22.238 12.914 1.174 1.825-.65 3.357-3.11 4.075-2.973.87-3.332 2.116-2.5 5.604-.002 2.028.527 4.268-2.014 4.414-4.702.27-15.223-3.002-25.878-8.68-17.988-9.588-15.6-21.96-2.272-21.773zm-91.186.573l.068 17.406-17.156-7.84zm-287.002 16.082c1.815.04 4.22.356 7.378.846 3.86.6 9.854 1.172 12.942 1.106 19.515-.414 27.652 13.142 11.578 20.11-4.396 1.906-6.23 1.708-18.288-1.742-5.775-1.652-12.848-3.382-15.735-4.19-5.808-1.623-7.822-3.443-3.987-4.766 3.57-1.232 3.87-3.706 1.63-6.975-.554-3.28.5-4.484 4.483-4.392zm453.528-1.76c-2.66 26.966-4.836 47.98-8.805 74.378-2.976-1.16-24.23-50.79 8.805-74.378zm-82.074 13.225c6.35.09 17.08 2.494 27.526 6.55 9.127 3.32 10.28 4.212 3.996 6.922-3.796 1.637-3.328 3.09-2.197 5.57 1.74 1.858 5.04 5.576-.137 4.844-6.13.484-22.24-.363-27.16-1.207-14.718-2.524-18.777-15.768-6.742-21.974.97-.5 2.6-.736 4.716-.706zm-377.877 8.28c1.36-.008 3.854.714 8.383 2.124 26.445 8.23 37.193 18.284 24.297 28.125-3.74 2.855-9.568 1.67-20.58-4.42-11.26-6.23-16.913-9.644-19.015-11.864-2.086-2.202-.963-4.74 2.232-4.54 4.385.273 3.718-1.924 3.353-5.607-.255-2.58-.42-3.807 1.33-3.818zm71.26 2.16l20.268 4.515-49.704 221.32c-17.24 5.046-27.186 7.23-39.3 13.81l34.945-6.167-2.97 15.824-31.727 6.092-.7 4.72 36.35-6.703s-1.238 15.097-2.48 20.947c34.702-2.93 68.95-12.714 103.856-13.122l-.032-193.533-.144-45.125 35.076 19.614 6.634 219.913 109.693 17.387c-.78-3.707-3.83-20.696-3.83-20.696 81.367 23.647 163.912 58.755 237.136 131.682l-98.788 54.618-4.754 6.893c83.47-39.388 210.27-121.09 301.714-211.203l4.288 581.55-439.334 3.454-.242-54.406.06-48.626c-1.905-31.175 3.4-65.538-6.262-91.664l-1.98-27.4c26.956-31.597 41.433-71.365 54.19-111.992l19.347-7.356 2.157-7.977c-12.57 6.48-41.433 17.38-41.433 17.38 3.1-2.444-61.575-29.377-101.483-35.607-65.85-10.28-154.33.915-224.768 36.185-3.447 2.452-4.922 2.4-4.066-.766 16.155-59.657-18.597-119.344-79.25-136.444-12.867-3.627-23.39-3.565-23.39-3.565l1.114 5.215c99.05 10.77 122.68 115.3 84.754 164.047-9.93 16.074-11.435 20.758 9.54 20.143 84.77-1.02 114.602 93.584 76.173 146.147.096-.408 3.153 6.086 3.153 6.086 23.97-31.895 30.15-92.34-12.7-134.64 31.427-35.314 91.8-91.872 144.22-88.78 19.08 1.126 37.994 24.14 50.603 42.523 26.7 38.922 33.73 93.386 35.733 124.456.495 8.14 1.603 14.053 1.634 18.337.09 12.44-2.294 10.96-10.34 8.915-10.1-2.566-23.94-2.616-34.154.54-16.413 5.07-13.772 2.205.782-15.972 8.587-10.725 9.733-14.024 6.162-14.712-1.09-.2-4.733 3.47-9.49 10.85-14.34 22.25-13.252 13.134-2.96-21.52 6.693-22.53 6-24.1-12.523-38.014-6.128-4.603-13.652-9.068-14.322-10.476-3.508-7.37-4.923 1.9-1.782 7.976 3.07 5.937-3.372 8.68-14.74 2.588-26.756-14.685-44.02 15.322-20.14 28.203 5.63 3.036 8.754.515 4.393-3.486-14.714-13.498-4.558-24.957 15.325-13.028 11.493 6.895 15.84 4.657 19.64-4.045 2.11-3.55 19.96 9.13 19.96 14.08 0 3.246-2.02 13.644-4.014 20.6-5.625 19.66-7.15 25.765-9.57 38.506-4.387 23.105-4.222 34.932.612 45.06 10.832 22.695 37.92 33.316 61.344 24.075 3.404-1.343 9.928-2.476 9.928-2.476l.346 16.686c-46.19 17.697-79.396 72.505-77.868 74.365l-16.5.095c-22.07-43.393-60.73-75.982-109.77-93.887 0 0-5.93-9.784-.594 8.096.354 7.18 7.954 17.277 14.08 20.79 23.3 11.734 54.17 32.583 71.284 65.068l-11.687.233c-14.334-21.667-32.85-36.263-50.41-48.992-4.12-.85 3.153 39.38 20.013 51.735l-301.54 6.42c20.266-80.595 23.873-169.952-24.8-286.875 39.988 2.298 75.418-6.418 107.858-20.73l-2.97-8.332c-36.956 17.82-77.567 21.454-118.246 17.46 31.07 56.988 58.525 176.554 32.695 291.75l-110.684 1.023-3.965-627.427 5.708 5.3c3.49 3.473 5.858 8.674 6.86 12.442 1.282 4.82 2.622 5.107 9.54 10.244 3.32 2.464 5.242 4.638 5.242 5.917-.186 1.426-.215 5.826 2.033 8.523 6.105 7.325 5.047 12.046.503 16.81-21.136 22.158-34.245 68.6-23.326 117.498 25.102-17.038 50.848-61.437 51.668-61.514l2.672 60.5c-2.238-.49-17.564 8.67-17.702 20.57-6.95 2.095-15.453-1.33-22.513-3.38l5.155 17.8c-25.79 10.402-27.044 45.74 2.93 55.713 0 0-2.678 13.826-5 21.257l19.426-3.036c11.42 33.674 54.727 22.71 54.427-.813 0 0 13.2 4.902 18.223 7.086l-4.964-22.965c49.197-24.785 12.2-56.84.945-56.332.128-6.424 3.067-8.462 5.743-15.96l-19.9 1.327c-3.698-11.858-17.114-21.517-17.6-20.213l-3.086-86.582c15.102 13.067 29.962 26.47 49.956 36.838 18.453 9.57 20.32 7.41 17.527-9.224-1.26-7.504-1.173-12.433-1.173-12.433 6.913 1.597 24.432 24.174 23.637 35.346 6.397 8.278 12.084-14.085-4.4-33.046 43.533-45.942 76.546-121.937 83.452-173.67l58.035-23.35.627-7.565c39.497-26.65 60.006-63.582 70.717-105.306zm48.427 13.343l13.398 5.917-15.158 7.6zm-128.86 4.156c2.582 1.177 6.495 3.73 11.873 7.64 11.4 8.292 18.053 14.003 18.293 19.054.12 2.496-1.702 5.735-4.566 7.268-6.852 3.667-13.432.713-28.337-14.42-4.817-4.89-8.036-7.506-9.506-9.682-1.714-2.537-.467-4.94 2.36-3.915 12.07 5.393 1.58-9.673 9.883-5.945zm409.603 1.536c2.477.001 4.432.05 5.657.29 3.22.634 4.16 2.456 2.173 4.242-3.078 2.767-2.19 5.552.933 7.028 2.144 1.013 1.285 3.17-1.294 4.66-1.507.87-3.81 1.81-6.958 2.808-18.225 5.776-31.682 4.126-35.236-4.363-4.084-9.756 3.638-14.532 25.944-14.6l8.78-.065zm-265.694 6.843l-.105 13.094-18.902 9.167 2.01-13.29zm-160.952 4.718c1.662.093 4.396 2.635 8.373 7.468 18.353 22.303 20.836 26.608 14.876 32.568-7.063 7.063-17.035.3-27.825-19.267-1.45-2.63-3.223-6.008-4.278-7.233-3.947-4.584-2.222-6.03 2.76-5.667 2.728.2 4.02-.768 4.08-3.578.063-2.967.722-4.362 2.015-4.29zm437.79 9.614c3.325-.012 3.082 1.123 1.613 4.994-1.13 3.43-2.994 4.543 1.838 6.68.8.386 2.587 2.573.982 3.527-3.8 2.59-20.797 10.41-26.952 12.48-11.96 4.02-19.365-5.706-12.372-15.42 2.93-4.072 23.15-11.5 33.234-12.192.628-.043 1.18-.067 1.656-.07zm-447.26 14.704c12.208 18.054 13.758 26.51 5.78 31.822-5.047 3.872-15.855-1.62-18.364-13.304-1.922-8.946-2.822-18.302.064-25.747 4.37-11.275 11.258 5.36 12.52 7.23zm170.407-8.16l.15 14.156-22.986 11.652 2.064-15.602zm46.94.38l21.71 13.947 1.297 12.058-22.423-12.226zm241.646 13c.57.007.88.263.88.934-.004 1.665-.397 7.59 2.844 8.114 6.374 1.032 4.93 3.024-.626 7.846-6.02 5.37-11.514 11.738-18.783 15.667-18.75 7.015-24.728-12.808-6.996-23.192 6.122-3.585 11.673-6.063 15.816-7.25 3.116-.892 5.614-2.134 6.867-2.12zm-240.97 8.216l25.15 14.684.933 14.87-24.987-12.59zm-48.4 1.563l.144 12.937-24.445 14.126 1.975-14.477zm101.446 10.17c6.95 3.208 96.095 27.6 125.544 19.044 0 0 25.376 36.28 44.098 49.236-28.738 42.527-126.454 84.49-126.454 84.49zm200.44.13c1.62-.062 2.018 1.548 2.018 4.586-.362 8.8-14.694 41.255-26.28 24.696-3.2-6.17.004-12.584 10.078-20.258 7.988-6.085 12.1-8.944 14.184-9.024zm-484.813 7c2.208 2.385 1.24 9.765-3.495 9.295-1.37-.136-1.582-7.622-.702-11.685 1.36-.67 3.43 1.602 4.197 2.4zm183.32 3.398l-.093 16.438-29 15.925 3.054-18.293zm48.07 2.126l28.84 15.232 3.445 18.143-31.97-16.407zm-48.038 22.53l.064 16.562-32.59 16.877 2.155-16.352zm48.693 1.25l32.258 18.187 4.286 17.234-36.01-18.423zm-456.245 2.3c5.276-.09 7.194 5.52 3.223 9.113-2.622 2.458-10.084 1.99-10.75.042-3.382-3.24 1.22-9.045 7.527-9.154zm9.912 17.493c.78-.056 1.517-.013 2.157.148 3.806.955 6.195 6.44 3.88 9.58-4.273 5.797-15.617 1.834-14-5.477.43-1.935 4.577-4.005 7.952-4.25zm397.175 4l.057 14.812-35.458 18.888 2.186-16.57zm50.258 1.868l36.732 19.545 2.877 16.583-39.485-20.347zm-464.807 2.24c1.77-.105 3.178.383 3.944 1.703.684 1.18 1.503 4.204 4.053 5.672 4.758 2.738 5.253 3.31-3.753 7.296-3.793 1.678-11.24 6.788-13.842 8.554-7.96 5.402-11.213 3.612-11.823-2.735-.77-8.002 13.755-20.036 21.42-20.5zm27.547 12.018c1.848-.113 3.648.227 4.942 1.075 3.058 2.004 3.234 6.046.313 8.093-6.695 4.317-17.218-1.524-11.65-6.674 1.564-1.447 4.02-2.348 6.397-2.494zm387.028 6.53l.262 19.218-39.544 21.06 2.55-19.5zm-406.582 3.827c2.597-.157 5.085.442 7.258 2.034 2.36 2.985 5.2 3.854 6.828 3.91 6.8.236 4.643 2.727-2.477 6-9.814 4.525-16.697 10.247-23.747 16.842-7.334 6.86-7.862 8.33-10.29 5.54-9.035-10.38 8.407-33.5 22.43-34.337zm457.497-1.556l41.62 22.557 3.637 19.174-45.19-24.92zm-430.163 15.2c1.68-.046 3.262.35 4.505 1.358 2.96 2.397 1.274 7.056-2.808 9.167-3.472 1.796-9.202 1.06-10.846-.583-3.94-3.94 3.15-9.778 9.15-9.942zm-20.025 9.734c2.527-.254 4.834 2.964 6.9 6.442.72.868 3.56.468 5.596.478 7.773.033 8.87 3.315 1.342 7.526-2.2 1.23-9.416 6.8-14.24 10.93-12.99 12.502-20.07 9.61-18.45-3.147 1.548-12.198 12.1-21.55 18.85-22.23zm450.282-.56l45.9 24.947 4.55 20.64-50.386-26.9zm-50.56.57l-.114 19.032-43.036 22.98 3.27-19.325zm51.344 24.02l51.433 30.863 1.953 20.21-53.306-30.418zm-51.268 3.574l.166 18.656-47.593 24.372 2.338-17.634zm-387.074 13.846c1.22-.034 2.365.148 3.315.58 5.595 2.55 4.148 7.002-4.236 11.6-8.554 4.702-11.5 3.908-13.35-1.323-1.565-4.404 7.7-10.685 14.27-10.868zm535.787.453c89.298 20.075 176.82 63.9 261.923 140.672l-17.67 12.6s-74.646-84.465-239.99-133.507zm-96.81 9.25l24.806 14.498.076 3.72-24.82-1.935zm-421.652 1.792c1.876.093 3.53 1.18 12.396 5.358 35.618 25.506 49.9 40.913 58.83 68.99 5.35 16.826 5.245 16.136-12.16 7.047-16.374-8.6-38.823-22.923-53.35-41.48-2.225 43.808 3.1 98.24 3.1 98.24 22.23 10.847 15.16 39.34 15.097 39.17 57.034-15.804 44.815 59.59 2.21 43.506 10.36 56.487-54.38 52.14-47.94 3.663-51.525-1.792-42.63-57.977.163-50.38-4.516-17.306 1.572-29.064 17.313-36.562l-2.693-74s-41.753 60.42-48.77 59.502c-4.12-.54-10.346-7.433-.11-60.313 5.33-27.53 34.368-61.146 50.696-62.29 2.887-.202 4.09-.513 5.217-.458zm41.064.403l7.55 5.127-7.045 12.684-7.866-5.657zm328.543 2.35l-.207 11.095-23.12 1.465zm-253.075 126.233c-3.468.104 5.864 2.252 11.78 7.517 54.45 8.216 88 74.65 63.01 122.944-3.038 2.178 1.705 12.653 4.753 8.7 26.398-37.726 6.28-130.12-71.195-138.63-4.596-.373-7.2-.565-8.346-.53zm20.66 25.2c-4.327 12.008-5.466 14.884 5.726 9.947 19.838 7.256 41.338 39.416 34.623 71.835-2.185 3.787 1.633-2.472 4.282 8.17 9.686-23.75-.266-74.844-44.63-89.953zm251.764 59.367c55.702-.38 110.877 11.58 154.83 36.618-14.873 8.345-62.39 20.086-62.39 20.086-26.847-29.89-40.587-59.83-88.86-44.312-50.567 13.264-95.98 57.25-121.52 86.417-25.782-15.213-39.726-18.9-62.535-20.078-1.32-.032-3.255 5.778-1.67-3.587 6.484-10.077 10.938-21.482 15.247-32.997 47.7-27.366 107.605-41.743 166.9-42.148zM2301.912 832c-10.953 35.933-25.14 71.34-49.32 102.567l-3.06-15.55c22.715-35.174 33.42-67.118 38.248-81.118zm-21.526 9.396c1.434 2.275-21.924 58.553-33.515 68.818l-4.62-14.482c9.432-14.37 23.344-48.983 22.934-49.308zm-143.81.62c-.734.07-.992.717-.992 2.13 0 5.158 5.395 9.196 15.2 11.38 13.248 2.95 31.782-1.7 31.782-7.967 0-3.62-2.588-3.874-10.158-.336-9.492 4.437-17.888 3.608-30.324-2.914-2.85-1.495-4.566-2.38-5.51-2.29zm117.94 8.51c-3.628 13.627-9.058 23.67-15.993 34.094l-2.278-7.147c4.795-7.816 7.946-16.743 11.995-25.422zm-13.827 4.46c-1.767 4.74-3.716 10.23-7.788 14.468l-5.356-11.23zm-83.764 10.755c-8.968.207-17.837 3.127-18.59 7.896-.36 2.285 3.078 1.388 19.755-.7 8.8-1.107 13.02 4.093 21.088 3.516 4.108-.503.25-4.285-1.033-5.38-4.5-3.8-13.307-5.507-21.22-5.324zm-38.248 10.53c-.9.187.117 2.472 3.5 8.3 1.833 3.155 2.3 9.596 2.678 13.584-.398 9.934-.368 9.622 4.515 3.858 3.075-3.075 9.076-2.42 18.594.115 6.133 1.634 7.61 2.222 11.85-.46 4.92-3.1 6.084-1.556 10.333-.72 4.103.807 7.815-.85 12.304-2.1 5.48-1.537 6.533-1.2 11.313-.044 7.31 3.426 6.248 3.123 6.808-9.245.562-12.177-.1-13.04-7.128-8.9-6.81 4-11.504 5.82-21.992 2.2-11.428-3.932-13.04-2.92-21.127-.45-9.775 2.985-14.22 4.006-22.034-.727-5.143-3.115-8.596-5.612-9.615-5.4zm-159.396 18.994l4.403 7.108c39.507 13.96 66.362 46.105 50.797 100.522l3.773 5.985c19.533-54.847-3.18-100.037-58.972-113.616zm12.31 23.14l5.418 11c29.746 14.225 28.122 53.726 26.453 52.18l4.696 10.263c7.328-25.585-6.35-63.27-36.566-73.452zm124.228 58.425c-1.168.015-1.934.417-2.245 1.227-.755 1.97 1.545 3.14 15.142 12.473 11.68 8.015 20.712 13.957 20.027 15.1-.458.77-7.706-.963-12.885-2.48-13.57-3.977-33.538.954-44.716 8.892-2.837 1.922-7.58-.147-11.692-1.205-1.646-.46-5.277-.886-7.064-.4-8.467 2.252-.233 10.314 20.55 20.733 25.504 12.787 39.28 13.9 54.71 6.038 10.246-5.35 13.94-1.424 2.737 4.677-19.57 10.657-38.363 7.457-69.43-13.73-14.4-9.814-20.12-8.143-7.745 1.218 21.714 16.842 63.47 37.324 88.954 12 .997-.366 3.32-.205 4.437-.205 5.32 0 5.538-1.678-.04-10.438-3.362-5.28-10.146-10.823-1.942-17.336 6.22-4.938 5.76-7.27-1.787-9.493-1.992-.543-1.786.764-4.788-1.638-18.16-14.53-35.92-25.486-42.224-25.43zm7.956 28.813c7.604.182 15.286 6.004 17.72 16.525a30.34 30.34 0 0 1 .542 2.904l-6.476.267c-5.454-21.432-21.6-14.258-23.163-1.687l-5.84-.755c2.102-11.972 9.61-17.436 17.214-17.255zm134.225 17.792l-4.3.653c-2.854-7.89-15.67-18.455-21.683.823l-5.438-.198c3.686-26.1 27.38-22.14 31.43-1.278zm-33.106-10.7c1.775 2.495-1.308 6.73-3.1 8.665-1.712 1.85-5.543.308-7.15-1.505-1.408-1.79-.384-5.372 1.943-6.57 2.415-1.243 6.525-2.373 8.307-.6zm-75.805 1.07c1.824 4.04-3.228 7.082-3.868 5.714-1.09-.373-2.457-7.043-1.835-7.486 1.676-.06 5.01.476 5.703 1.772zm113.965-1.1c2.732.2 5.714 1.49 6.268 4.57.037 2.04-2.314 4.266-5.014 4.394-1.187.057-5.75-3.263-4.914-8.03.958-1.694 2.073-1.06 3.66-.934zm-158.43 1.896c.964 1.463-.815 5.85-1.225 6.442-.213.308-6.032.08-5.908-.352s-.555-3.727.85-6.128c1.6-1.034 5.1-1.59 6.28.038zm105.742 13.715c.753.016 1.712.32 2.848 1.02 16.314 10.53 37.263 15.17 52.31 7.547 3.36-1.702 5.563-1.62 5.563.01-.003 1.788-3.714 5.46-10.658 7.573-15.513 4.722-41.174-1.333-50.074-10.806-2.617-2.786-2.25-5.39.01-5.344zm-142.675 11.647c-1.554-.037-2.052.883-1.74 2.757 1.054 6.308 44.675 31.115 62.884 34.412 14.952 2.708 26.555 1.424 35.672-3.92 22.143-12.977 16.383-30.39-5.285-17.167-14.557 8.882-51.55 4.963-73.593-7.652-9.8-5.61-15.35-8.368-17.94-8.43zm196.12 8.372c5.5-2.33 7.85-3.143 9.062-2.137 5.612 4.658-3.526 12-20.23 14.903-13.36 2.25-21.397 2.71-36.705-8.52-11.85-8.695-6.3-12.95.5-9.01 18.092 10.482 31.506 10.764 47.373 4.767zm-192.104 28.05c38.556 13.64 82.486 46.725 102.088 87.042l-11.875-.048c-13.3-23-39.58-52.2-82.782-72.617-3.833-3.126-5.84-8.727-7.43-14.378zm202.29 18.122l.05 12.625c-23.748 12.083-43.622 30.618-58.564 56.134l-13.47-.135c15.324-27.374 38.34-53.04 71.984-68.623zm.075 19.25l.06 15.5c-15.01 8.88-27.522 20.556-36.275 33.922l-15.937.062c12.69-21.64 30.145-38.92 52.152-49.484zm-176.234 12.6c11.49 6.544 30.54 24.042 37.5 37.542l-6.124.305c-6.274-7.92-16.284-17.02-24.438-24.187-5.218-6.082-6.928-13.66-6.928-13.66zm176.32 9.254c.192-.001.193.12.001.375l.048 12.312c.001.323-11.397 7.83-16.224 14.813l-12.937.05c8.82-16.105 27.26-27.576 29.112-27.55zm.1 20.468l-.004 6.97-8.125.063c.537-.8 5.04-5.78 8.13-7.032zm-158.555 2.365c2.44 1.27 4.33 5.833 4.33 5.833l-2.18.242z" fill="#131f67"/>
        <path d="M1765.505 887.033c26.782.624 83.26-9.597 82.358-8.574l169.333 287.794c-2.266 3.623-224.612 4.355-224.612 4.355-4.817.074 46.756-108.134-27.08-283.574zm78.713-205.552c85.165-71.128 174.665-72 270.732-82.1l1.27-240.605 34.865 20.683 1.6 220.44c126.9 9.016 236.532 55.05 330.878 136.01 1.184 1.76-135.75 75.662-195.77 95.307-46.79-34.064-169.97-55.177-251.496-28.53-22.393 7.32-49.877 19-76.628 27.655 18.948-116.22-71.814-133.016-103.736-138.254-4-.657-8.804-9.235-11.704-10.597zm-109.526 37.976c1.4-24.752-.312-49.516-2.26-74.813-.51-5.775-49.67 75.478-52.513 55.828-7.115-49.195 17.09-111.875 55.46-119.697 3.81-5.195 80.07 41.597 76.75 82.3-1.08 13.258-68.04-44.507-68.302-41.042-1.54 6.79 2.347 97.583 4.4 97.394 19.26 10.736 15.13 24.64 17.272 36.14 51.465-7.792 48.87 49.334.266 47.74 3.265 67.465-59.522 37.22-47.316 1.23-63.122-2.73-32.272-61.798-.796-48.964-1.952-14.87 1.667-30.4 17.03-36.113zm71.295-286.565c-3.64-1.423-134.67-7.624-134.67-7.624l5.617-319.004c66.285-153.803 318.26-82.974 278.344-50.146-119.97 79.25-137.722 222.992-149.292 376.774zM2047.1 300.92l-4.133-35.4c-10.364-21.97 268.24 105.37 271.388 108.102l8.237 37.763c1.672 16.596-177.152-66.59-275.492-110.463zm505.65-64.52c-3.538 143.15-25.24 240.166-107.957 357.453-2.295 3.853-25.767 13.68-27.582 16.992 11.963 18.748 79.93 46.054 111.332 60.752l162.69-97.725c1.887.127-6.9-340.126-6.9-340.126zm61.1-155.678c-21.918-3.257-73.104-55.912-62.596-71.934.28-12 63.554 33.673 70.164 46.02-3.25-3.665-4.122-112.145-5.126-107.827-2.398 1.283-19.317-10.73-15.01-33.357-48.334 10.877-45.923-51.97-3.633-49.564-5.686-57.15 64.247-36.424 45.81 1.935 59.733-11.24 49.673 55.9 4.458 45.147 3.932 25.43-6.536 32.5-21.2 37.64.98 10.66 5.26 81.785 5.26 81.785s43.933-67.876 47.126-62.053c8.924 20.502-6.774 129.15-65.258 112.21zm-205.778-248.887c-19.68 68.797 35.27 147.1 86.895 146.682 10.374-1.675 30.285 3.853 23.443 9.438-81.188 66.28-271.187 80.71-271.247 77.85 2.305 80.968-1.008 162.773-2.632 243.732l-34.907-20.833-5.497-223.195c-121.834-15.41-231.43-54.253-318.238-137.44 57.257-42.767 125.764-69.61 191.56-96.72 83.14 42.763 198.76 67.2 330.622.483zm-61.364-326.275c-3.825-1.667 13.072-14.312 13.072-14.312l211.666.1c-25.162 105.02-6.7 198.96 26.66 289.105-8.765-2.012-66.86 2.927-81.025 9.325-2.272 2.295-168.57-281.65-170.373-284.208z" fill="#e2cf00"/>
        <path d="M2764.467 1243.75c-2.295-6.422-2.332-7.215-3.072-66-.748-59.402-.528-65.91 2.645-78.248 6.094-15.392-11.886-15.397-23.28-17.19l-.094-24.307c13.345-1.9 29.448 1.912 35.378 9.7 13.834-9.648 22.81-11.29 32.4-10.95 32.247 0 46.5 19.868 45.77 58.326-.12 6.263 1.047 14.285 1.047 14.285l17.328-.067.095 24.583-18.236.07s3.21 60.933-.836 82.5c-12.35 48.028-71.918 51.388-89.158 7.288zm65.664-8.906c3.057-7.32 2.603-4.266 2.5-60.202l-.185-25.56c-25.584-5.803-48.312-36.355-48.162-36.352 0 0-.33-2.94-.33 55.105 0 65.78 2.34 69.593 16.32 80.185 13.557 7.594 24.66-1.134 29.848-13.175zm-36.287-147.788c7.828 10.9 17.547 22.047 29.06 31.02 4.314 3.362 10.345 4.676 10.345 4.676l-.387-11.17c-.25-22.97-16.857-40.97-39.018-24.525zm-772.05 78.772L1849.62 877.752l25.625-11.25 177.514 299.623zm446.773-41.766c-64.26-9.877-82.646-90.536-35.74-166.652 22.19-36.915 115.16-174.348 109.678-169.76-2.937-2.55 72.267 105.828 109.86 161.413 35.628 58.64 54.83 154.603-32.086 172.578-33.282 6.883-68-13.02-69.687-51.916-.237-5.45-2.5-9.88-5.683-9.88-2.667 0-4.512 3.824-4.512 7.593-.764 37.16-34.004 62.64-71.832 56.626zm300.732-96.18c-28.62-9.417-33.87-43.68-12.708-82.978 17.328-31.22 26.44-39.268 42.398-70.294 6.553-12.812 7.29-13.074 12.276-4.36l35.96 57.88c28.18 43.533 33.226 73.964 15.32 92.415-16.24 16.735-50.8 7.182-51.06-14.113-.012-1-.503-2.715-1.092-3.815-1.325-2.475-3.925-.823-3.94 2.503-.07 15.484-20.756 28.156-37.154 22.76zm-1053.38-246.91l24.613-25.515 24.875 25.003-25.817 24.164zm548.186-164.06l-3.557-20.625c98.653 23.744 179.512 74.076 237.733 129.008l-13.772 10.158c4.303-1.192-140.437-108.84-220.404-118.54zm-286.315-19.223l31.226-4.65-.82 17.357-29.667 6.863zm576.826-15.952l-17.08-13.65 12.195-14.573 16.595 12.97zm-579.4-137.66c42.23-20.184 74.943-101.092 70.778-106.463l23.075 5.373-52.398 221.525-40.07 7.405-1.386-127.84zm278.914 124.145c-14.525-46.533-43.174-151.808-43.174-151.808 1.046 3.437 91.882 28.877 124.21 19.356 13.893 18.858 29.154 35.418 45.24 50.59-33.472 32.985-75.082 60.59-126.275 81.86zM2633.82 397.14l-16.035-13.783 14.27-17.608 17.608 13.3zm-208.854-8.448c-13.115-23.343-14.122-49.787 9.938-75.964zm-496.68-43.415c-1.04-2.407 5.253-57.874 6.774-60.335 2.674-4.326 7.997 11.206 10.53 23.08 3.175 14.885-13.49 46.086-17.304 37.255zm365.08-18.634l49.48-226.778 42.83-10.98-5.27 133.685c-35.107 31.633-64.115 106.784-64.115 106.784zm-564.834-24.88L1711.503 286l14.293-15.758 15.025 15.247zm303.662-64.642l-46.82-54.333c28.718-40.26 76.554-63.69 127.267-82.124l34.98 152.836c-38.914-11.56-80.872-24.083-115.427-16.38zm-238.726-135.42l11.895-14.908 15.7 12.26-11.832 16.484zm560.917-48.133l29.978-4.4-2.18 20.59-31.73 5.173zM1865.42-60.198l18.418-11.556C1948.89-13.82 2020.64 26.042 2098.814 48.57l5.343 25.112c-88.148-26.796-171.495-67.6-238.737-133.88zM2622.8-86.35l-24.104-23.577 21.524-24.114 25.76 22.08c-8.426 12.816-23.18 25.61-23.18 25.61zm-805.924-40.656c-29.933-45.82-64.396-94.478-91.506-134.562-44.97-66.693-57.235-111.972-43.315-153.042 22.81-67.302 121.29-64.146 128.726 4.125 1.52 13.944 8.106 12.737 9.85-1.65 9.216-75.978 124.75-66.526 132 14.37 7.57 68.69-39.734 122.22-65.822 158.697-23.14 37.146-50.102 72.55-69.934 112.065zM1531.88-234.745c-19.612-32.506-73.172-105.897-22.19-128.77 18.104-8.122 41.335 6.153 41.335 21.492 0 6.936 3.835 7.312 4.703.116 3.634-30.12 45.834-32.45 59.45-3.387 11.685 34.596-9.038 66.268-38.08 110.88-6.666 10.24-22.04 38.083-22.04 38.083zm957.465 33.73L2308.45-506.83l25.96-.316 177.98 294.56zm-981.938-263.8l-18.36.07-.096-24.61 18.36-.07.532-36.607c.926-49.826 2.194-57.584 16.802-71.338 28.91-27.22 77.592-5.323 77.158 35.435l-1.464 120.116c-2.976 13.692-3.277 14.475-2.024 16.955 2.536 5.026 24.5 7.104 24.504 5.694l.094 24.22c-16.767 1.364-23.73-.154-37.18-9.523-8.34 7.983-33.806 16.02-54.102 6.747-15.443-7.055-27.217-25.425-24.224-67.1zm62.28 42.7c-9.162-12.9-24.54-30.477-39.02-36.654-.82 14.83.508 27.287 5.864 33.97 8.518 10.628 22.192 13.028 33.155 2.683zm7-142.09c-6.82-18.796-24.215-25.074-36.847-13.3-7.917 7.38-9.153 15.062-9.153 56.89l.017 36.64c24.744 7.752 47.94 35.933 47.717 35.566l.3-78.016c.412-12.635-.258-25.315-2.044-37.782z" fill="#d40000"/>
        <path d="M2306.79-511.988l-42.937.323L2509.473-22.49s-6.6 1.135-19.54-2.205c-58.597-15.13-94.907-76.82-81.91-137.527 1.328-4.72 1.653-8.756 1.653-8.756-150.63 68.875-244.148 44.086-331.436.942l-37.1 14.394c2.38-22.446 29.815-106.817 71.182-146.652l-.227-42.5-1.078-20.058-3.422-36.393c-61.548 58.4-133.272 150.226-141.79 280.27 0 0-56.135 29.105-104.013 61.248 2.663-.365 75.12 87.897 248.564 136.943l-7.735-28.22c25.79 7.13 62.436 12.705 98.88 17.18l5.736 221.886 41.47 24.34.453-245.69c1.274 1.008 65.98-2.538 100.802-10.985l-4.814 23.706 34.41-6.915.067 17.28-37.715 9.053-52.86 229.863 31.34 6.847c8.985-46.293 31.983-83.798 65.43-106.88l-.378-8.81c21.45-15.514 66.104-27.95 66.393-27.664 14.96-74.537 50.25-126.288 87.788-175.53L2521.563-7.66l68.808-25.548-96.287-162.346c36.704-25.54 109.72-16.363 109.72-16.363-31.607-84.313-59.435-171.302-29.036-299.233l-266.06 1.25zm87.307 4.955c.02 21.352-27.883 19.262-31.363.015zm170.928-1.332c-16.55 97.93-10.567 193.24 29.038 283.67 0 0-5.718.35-6.437.212-.542-.105.648-4.888.35-6.158-.794-3.4-6.432-1.784-11.15 1.418-2.056 1.395-4.426 2.987-5.923 3.742-4.852 2.446-29.51 2.357-29.51 2.357 8.023-5.477 19.28-20.85 12.678-29.768-1.495-1.9-2.392-1.056-3.83 1.523-6.956 12.473-10.427 14.438-19.788 14.358-14.684-.126-25.227-9.182-24.09-22.907 1.096-13.337 20.694-20.452 17.846-7.507-.748 11.525 10.69 13.72 12.76 2.232.775-4.302.154-2.304 1.065-7.348 22.814-12.217 10.097-36.866-11.216-31.613-5.012 1.345-5.64 1.814-9.188.004-6.593-3.363-12.055-2.276-14.522 2.494-2.173 4.2 1.172 7.54 6.06 7.54 5.068 0 6.053 2.438 6.052 5.477-.003 7.066-12.187 10.515-20.288 6.423-21.386-10.805-13.586-39.137 11.192-39.137 7.533 0 10.682.46 10.996-1.168.883-4.574-10.648-12.434-17.137-11.246-5.5 1.096-8.838 2.547-5.956-4.79 1.758-7.56 1.694-10.983.154-16.657-3.992-8.095-3.88-3.937-6.302 2.65-8.11 13.567-20.398 16.61-31.027 9.245-9.858-6.832-9.615-19.88-.3-29.218 6.47-6.487 13.454-2.116 9.582 5.12-1.603 2.995-.316 6.698 2.59 7.428 5.87 1.474 9.495-1.992 9.496-9.1-.138-3.913-1.224-4.782 5.81-8.835 18.213-10.495 4.45-38.92-16.115-29.688-4.514 2.027-5.563 3.995-7.613 3.06-8.643-8.102-20.953 2.23-13.627 7.647 3.162 1.524 7.026 2.096 8.04 2.188 1.783 1.008 1.2 3.54-1.38 6.724-8.5 10.1-27.878 5.2-32.504-8.968-5.36-16.408 11.37-33.743 24.28-24.22 3.817 2.816 7.12 3.1 7.12-1.1-.005-6.53-8.254-13.988-18.74-13.21-10.647.79-9.48 2.16-3.717-7.486 4.244-8.586 3.633-16.946-.116-21.968-2.89-3.87-5.85-4.677-5.533-.572 2.38 12.726-12.452 24.9-24.705 19.596-11.78-5.21-17.66-18.35-11.928-29.798 5.284-10.56 18.2-11.703 16.092-.437-.984 7.18 4.5 10.936 9.745 6.68 1.91-1.547 2.355-2.91 2.47-7.54.128-5.157-1.974-6.66 1.337-9.693 8.715-1.2 9.183-19.708 7.858-20.468l140.028-1.2zm-156.1 1.23c5.53-.02 10.132 1.837 10.154 7.367s-4.43 10.017-9.96 10.04-10.05-4.43-10.07-9.96 4.347-7.423 9.877-7.445zm-98.13 1.1l22.258-.086 176.928 292.28-20.777 10.206zm36.597 10.096c10.676 6.05 20.53 11.008 33.895 12.262-3.88 7.955-7.413 16.638-8.002 31.473zm36.034 58.86c10.86 3.843 20.3 9.693 38.145 3.676-9.494 8.468-14.85 18.573-18.846 29.217zm91.594 35.034c5.124-.02 9.297 4.12 9.317 9.245s-4.12 9.266-9.245 9.286-9.297-4.1-9.317-9.214 4.12-9.297 9.245-9.317zm-56.857 23.352c7.847 2.854 16.068 4.735 25.187 4.282-4.485 6.22-5.984 15.66-6.232 26.448zm27.1 46.07c7.27 3.5 15.88 8.63 31.108 6.92-10.024 17.158-7.845 21.872-8.848 29.366zm88.23 33.664c5.366-.02 9.736 4.315 9.756 9.68s-4.315 9.736-9.68 9.756a9.72 9.72 0 0 1-9.756-9.681 9.72 9.72 0 0 1 9.681-9.756zm-54.518 22.036c6.66 3.73 19.8 5.822 19.93 4.804-.845-.628-3.73 12.667-4.208 21.02zm30.788 49.785c9.466 5.533 19.916 4.96 26.062 5.593-6.564 1.34-12.748 3-19.79 5.807zm111.608 54.352c-22.75 1.555-27.958 19.023-25.193 36.693-17.358-2.705-36.715 13.815-31.208 33.906 5.223 19.052 22.96 19.652 35.194 18.33-.922 4.637-3.44 20.228 15.436 33.334l2.892 99.005s-8.326-7.59-13.765-12.964c-23.742-23.466-59.388-40.392-57.106-27.122.336 1.95 1.112 6.9 1.7 10.993 3.85 22.403 34.057 46.517 54.634 58.632 7.35 4.063 11.908 8.423 11.908 8.423-38.244 41.206-58.717 85.093-63.69 128.592l-11.996 113.922c-14.95 186.124-94.614 233.232-98.373 242.352l-1.404 24.818-22.287-1.57-25.6 22.318c84.308 43.15 133.588 95.423 132.906 96.423 67-44.25 124.81-93.343 179.348-144.134L2702.1 154.9s-4.534 1.678-5.712 1.678c-4.156 0-4.677 1.873-6.087 9.805-.755 4.246-3.27 8.163-5.24 10.958-3.74 5.31-2.41 2.625 2.33 4.522 10.795 4.32-3.123 24.132-18.428 26.603-11.023 1.78-17.176 3.832-19.038 6.386-23.138 20.4-46.258 23.707-63.78 16.3-8.62-3.64-17.996-8.972-21.195-17.918-7.263-20.31 7.6-49.668 16.304-66.626 15.978-31.098 42.633-54.5 42.633-54.5l-4.393-4.733s5.256.06 6.25-.305c23.047-8.48 24.474-8.606 28.693-14.736s14.856-23.623 17.042-29.38c11.74-30.897 13.33-32.907 13.23-53.145-.084-16.396-1.218-27.347-4.39-28.202-18.13 14.012-36.363 46.64-47.026 65.87-3.822-28.414-5.115-78.04-5.115-78.04 3.83-4.268 25.677-1.974 20.698-37.553 19.255 8.594 39.453-4.747 38.535-23.25-1.43-28.814-23.632-27.88-41.692-24.17 8.545-17.442-7.905-38.364-24.346-37.24zm-.34 2.426c23.75.642 28.563 26.868 14.068 41.78l-14.475-11.333c-4.738 3.75-6.096 6.987-11.306 10.848-6.202-4.547-9.965-12.62-10.052-20.41.242-12.17 12.486-21.135 21.765-20.885zm-542.56 2.917c96.31 53.332 216.823 56.705 326.915 1.544l-1.31 9.1-12.067 6.86 6.892 12.505 3.774-1.827.126 8.28c-90.734 49.466-243.003 60.22-362.553-20.875l10.356-4.853s2.347 1.627 4.606 3.013c4.357 2.674 11.544 6.962 16.285 9.062l7.178-10.434s-11.047-6.674-9.965-7.118l9.76-5.257zm8.533 16.436l-5.45 12.52 13.8 7.3 5.2-12.614zm-52.275 1.61c148.348 92.315 285.993 64.13 368.572 25.82l1.1 9.902c-106.597 45.837-246.948 58.573-380.935-30.74zm348.364 4.617l-13.136 5.3 5.265 12.042 13.51-5.834zm-366.02 3.67c120.56 77.076 249.6 91.755 388.386 34.4l5.37 14.823c-135.17 54.9-278.067 49.182-408.95-42.726zm92.407.08l-5.325 13.02 14.928 5.598 4.294-12.767zm252.925 4.394l-13.015 4.27 4.11 12.422 13.482-4.646zm-230.11 4.455l-3.168 13.075 15.235 4.222 2.605-13.135zm550.84 19.366c2.136 22.208-30.765 33.056-43.17 12.37l10.81-13.232-9.75-9.022c13.1-20.898 40.103-10.97 42.108 9.884zm-684.555-18.13l35.97 24.517-25.905 40.6-38.725-25.787zm621.78-1.287l22.858 19.66-20.81 24.55-21.458-21.48zm-14.136 6.754l-12.753 14.94 13.92 14.687c-16.373 17.537-40.95 6.847-40.788-14.545.123-16.328 25.052-32.32 39.62-15.083zm-265.608-4.7l-13.672 4.147 3.172 11.988 14.142-3.742zm-184.61 4.497l-2.48 12.916 15.732 3.314 2.606-12.854zm162.04 1.56l-14.55 3.213 2.55 12.834 14.582-3.12zm303.884 1.852l-11.954 11.828 12.048 12.39 12.045-12.484zm-440.683 2.085l-1.793 13.007 16.477 2.155 1.23-13.16zm110.912 1.35l-14.806 1.745 1.55 12.744 15.367-1.997zm-87.43 1.84l-.136 13.344 14.442 1.1-.02-13.22zm63.692 1.003l-14.498.588.144 12.906 14.81-.995-.455-12.498zm-264.56 1.15c-8.53.033-15.412 6.967-15.377 15.497s6.966 15.41 15.497 15.377 15.412-6.967 15.377-15.497-6.966-15.41-15.497-15.377zm240.25-.495l-14.25.18.113 13.062 14.688.006-.55-13.248zm377.84-1.403l6.274 6.226-6.226 6.18-6.43-6.13zm-618.1 7.336a10.12 10.12 0 0 1 10.164 10.086c.02 5.597-4.49 10.174-10.086 10.195s-10.175-4.52-10.196-10.117 4.52-10.143 10.117-10.164zm-54.903.963l20.596 16.64c-6.484 12.53-27.068 39.012-27.068 39.012l-38.055-30.26 19.8-11.296c-1.072 2.1-1.67 4.435-1.66 6.944.032 8.383 6.862 15.13 15.246 15.097s15.16-6.832 15.13-15.215c-.03-8.04-6.336-14.576-14.246-15.07zm-11.427 10.794c5.622-.022 10.206 4.526 10.227 10.148s-4.526 10.174-10.148 10.196-10.205-4.495-10.227-10.117 4.526-10.205 10.148-10.227zm697.834 2.1s5.6 2.1 6.977 4.196c11.078 16.86-.315 37.002-18.774 36.68-21.563-.376-27.344-27.38-12.556-38.464l12.098 11.335zm-560.508 9.054l42.563 16.147-15.946 46.25-46.542-18.882zM1900.18-81c173.993 155.545 420.358 165.824 598.993 61.427l10.905-.26 5.804 5.915c-203.496 121.41-457.146 96.147-628.92-58.435zm477.47 7.46l13.865 45.603-46.952 12.557-10.68-46.21zm-495.21 3.578c52.82 50.504 127.394 94.65 214.872 119.51l2.23 18.7c-92.865-27.494-163.07-64.422-231.564-128.728zm203.72-.072c-8.383.033-15.16 6.863-15.128 15.246s6.863 15.13 15.246 15.097 15.16-6.832 15.13-15.215-6.863-15.16-15.246-15.128zm-75.58 3.7l43.933 23.017L2032.84.485l-46.66-24.788zm75.412 1.3c5.62-.022 10.205 4.526 10.227 10.148s-4.526 10.174-10.148 10.196-10.205-4.495-10.227-10.117 4.526-10.205 10.148-10.227zm72.617 5.937l42.148 5.962-1.756 46.695-49.18-5.715c1.82-16.44 8.787-46.94 8.787-46.94zm203.472.367c-8.383.033-15.16 6.863-15.128 15.246s6.863 15.13 15.246 15.097 15.16-6.832 15.13-15.215-6.863-15.16-15.246-15.128zm-.168 5c5.62-.022 10.205 4.526 10.227 10.148s-4.526 10.174-10.148 10.196-10.205-4.495-10.227-10.117 4.526-10.205 10.148-10.227zm-342.495 1.985a15.2 15.2 0 0 0-15.128 15.246c.033 8.383 6.863 15.13 15.246 15.097s15.158-6.832 15.13-15.215-6.863-15.16-15.246-15.128zm269.31-.982l6.213 46.882-45.99 2.46-2.9-46.77zm329.7 2.908l6.53-.025c.76 40.365 4.135 87.083 8.94 121.622.724 5.145 1.05 6.663.53 7.592-4.486 8.017-9.773-2.03-11.9-24.985l-2.146-21.586c-2.433-18.296-1.946-82.618-1.946-82.618zm-777.46 3.735c-69 43.418-183.65 146.937-182.953 149.336l2.005 396.058 9.002.403 7.38-14.59c-11.52-2.836-8.38-24.473 13.638-28.897 3.757-.755 15.23-4.663 18.036-6.82 16.677-12.816 43.823-20.45 62.91-15.494 27.83 7.002 33.612 27.42 20.37 63.015-10.438 28.06-31.194 63.966-50.775 74.26-1.598.84-5.053 2.55-5.053 2.55s4.577 4.13 6.24 5.195c53.927-31.443 80.78-143.58 79.048-213.277 1.9-71.405 13.937-143.102 42.555-195.323 47.297-86.305 110.163-121.174 109.842-121.5 0 0-85.13-51.23-132.244-94.925zm178.28-.66c5.625-.022 10.205 4.526 10.227 10.148s-4.523 10.174-10.148 10.196-10.205-4.495-10.227-10.117 4.527-10.205 10.148-10.227zm420.16-.005l16.575 43.53-45.52 18.833-16.615-45.748zm-262.247 1.236c-8.383.033-15.16 6.863-15.128 15.246s6.863 15.13 15.246 15.097 15.16-6.832 15.13-15.215-6.86-15.16-15.246-15.128zm92.702 3.422a15.2 15.2 0 0 0-15.129 15.246c.033 8.383 6.863 15.13 15.246 15.097s15.158-6.832 15.128-15.215-6.863-15.16-15.246-15.128zm-92.87 1.58c5.622-.022 10.21 4.526 10.227 10.148s-4.526 10.174-10.148 10.196-10.208-4.495-10.227-10.117 4.526-10.205 10.148-10.227zm92.7 3.422c5.626-.022 10.205 4.527 10.227 10.148s-4.523 10.174-10.148 10.196-10.206-4.495-10.227-10.117 4.527-10.205 10.148-10.227zm155.082 4.586c-8.384.033-15.16 6.863-15.13 15.246s6.863 15.13 15.246 15.097 15.16-6.832 15.128-15.215-6.86-15.16-15.246-15.128zm-.168 5c5.623-.022 10.208 4.526 10.227 10.148s-4.526 10.174-10.148 10.196-10.21-4.495-10.227-10.117 4.527-10.205 10.148-10.227zm-322.026 2.03l45.607 11.48-10.408 47.822-51.46-13.457zm576.372-3.47c7.543 23.31-6.016 53.3-6.698 55.26-8.19 23.51-18.082 42.737-21.705 43.866-3.08 1.182-4.447.438-4.447-2.452.003-4.433 10.05-34.54 17.98-53.914 1.94-4.745 6.423-19.083 6.423-21.488-.004-3.62-3.49 2.292-7.243 11.335-7.26 18.087-17.88 37.466-20.13 54.985-1.606 14.316-4.335 12.305-6.393-4.725-2.858-23.64 2.27-35.822 28.733-68.862 6.33-7.905 12.83-16.022 13.483-14.004zM2344.28-15.505l13.37 46.73-53.745 9.396-8.56-47.405zm-225.167 5.592c-8.385.033-15.16 6.863-15.13 15.246s6.863 15.13 15.246 15.097 15.16-6.832 15.128-15.215-6.864-15.16-15.246-15.128zm80.417 2.72l48.73 2.592.626 48.623-52.883-2.076zm-80.586 2.28c5.623-.022 10.205 4.526 10.227 10.148s-4.526 10.174-10.148 10.196-10.206-4.495-10.227-10.117 4.527-10.205 10.148-10.227zm204.484 3.52c-8.383.033-15.16 6.863-15.128 15.246s6.863 15.13 15.246 15.097 15.16-6.832 15.13-15.215-6.863-15.16-15.246-15.128zm-100.984 4.298c-8.383.033-15.16 6.863-15.128 15.246s6.863 15.13 15.246 15.097 15.16-6.832 15.13-15.215-6.863-15.16-15.246-15.128zm100.816.703c5.622-.022 10.205 4.526 10.227 10.148s-4.525 10.174-10.148 10.196-10.205-4.495-10.227-10.117 4.527-10.205 10.148-10.227zm-100.984 4.298c5.622-.022 10.205 4.526 10.227 10.148s-4.525 10.174-10.148 10.196-10.205-4.495-10.227-10.117 4.527-10.205 10.148-10.227zm332.227 1.617c.8-.023 1.86.126 2.563.115 10.877-.166 47.673 26.045 57.132 41.966 7.852 14.06 3.838 19.67-5.19 7.114-12.44-13.746-35.404-34.133-38.32-34.133-3.125 0 1.197 4.446 15.822 18.595 14.507 14.03 29.825 32.33 29.826 35.603.008 2.158-2.868 1.897-7.002-.63-9.036-5.52-16.884-11.105-20.902-14.857-2.42-2.26-7.04-6.423-10.317-9.273-13.52-11.76-28.985-38.94-24.672-44.186.192-.233.58-.303 1.06-.317zm-679.73 6.512c9.385-.31 20 5.618 20.47 16.546.334 7.72.86 8.308 7.845 8.407 6.66.094 25.915 2.306 25.915 2.306l.21 21.624s-9.29-.02-20.002-.485c-18.237-.792-18.155-.818-20.44 7.204-.924 3.243-2.22 4.84-5.847 7.24-16.333 10.82-32.197-8.632-22.105-27.102 3.464-6.34 3.66-8.503 1.234-12.286-4.94-10.983 1.533-22.86 12.72-23.456zm4.043 11.047c-2.02.008-4.223.884-6.24 2.9-2.7 2.687-2.682 10.32.026 14.75 2.583 4.237 2.523 5.38-.468 8.19-5.27 4.952-5.383 14.733-.2 18.392 4.717 3.337 9.688-1.114 9.688-7.898.001-7.433 5.202-7.317 5.202-7.317l34.26.46.09-5.583-24.86-1.148c-3.457-.001-7.074-.316-9.75-2.1-2.835-1.945-6.07-5.326-3-9.466 4.288-5.8.427-11.228-4.73-11.17zm-74.2 13.07l16.357 27.562 18.94.614 1.72 16.806 23.077 14.735-23.528 13.888-1.098 16.918-17.858 2.315-16.513 20.845-15.987-20.688-17.53.162-.317-17.343-24.185-15.438 26.348-14.946-.358-19.81 18.714-1.323 12.218-24.298zm574.044 10.335l.846 16.684-26.575 4.822 3.403-17.013zM2208.29 67.96l35.848.955-1.154 234.225-8.406-.03-.192-9.124-11.467.42-11.684-7.017zm-403.537 7.503l-20.928 26.706 25.555 22.15 22.336-26.118zm414.323 1.955l.042 10.78 15.03-.058-.042-10.78zm-413.805 10.824l14.854 10.786-11.223 14.95-14.33-12.32zm574.3 3.897l.03 128.188c-49.1 38.84-64.18 106.94-64.18 106.937l-20.036-1.1 50.03-226.008zm-266.956 3.88c-44.236 21.257-88.836 37.395-132.598 87.86 17.08 15.252 35.127 30.797 51.22 56.833 36.575-5.592 77.314.797 121.8 18.1zm106.542 2.462l.043 11.156 15.03-.058-.043-11.156zm-498.1 18.026c1.106 3.406 1.465 7.057 1.465 7.057 32.486-2.852 24.346 34.895 3.64 36.267-2.428.324 2.034 6.68 6.878 8.692 12.328 5.124 21.16 1.767 29.184-9.02 6.155-8.273 6.526-9.463 6.526-9.463l20.104 10.547s.573-.294-2.934 8.918c-6.383 16.765 3.103 37.267 10.305 22.273 3.838-7.99 15.198-12.577 23.09-9.308 9.223 3.82 12.475 20.248 6.056 30.633-1.943 3.14-1.998 3.795-.787 6.69 1.823 4.36 2.984 15.583 1.106 19.215-2.436 4.7-5.263 5.792-10.805 1.98-7.59-5.218-11.83-7.385-25.012-10.997-23.14-4.26-27.697-12.38-36.966-31.357-27.355 8.308-68.402-8.704-63.098-49.38 2.45-8.982 3.066-26.208-1.522-29.713-8.99-6.87.806-16.873 14.272-18.524 11.066-1.142 16.432 9.323 18.498 15.49zm387.39-13.284l36.204 149.048c-39.158-14.17-77.576-25.196-111.503-16.755-15.65-24.757-28.954-36.92-46.268-52.977 33.455-40.65 76.1-63.5 121.568-79.316zm-403.03 8.876c-2.304-.015-4.903 1-7.612 3.405 0 0 2.416 2.007 3.737 4.736 2.113 4.363 2.135 4.36-.195 14.063-10.71 38.904 15.158 64.515 51.77 53.143 9-2.82 8.644-2.512 11.28 8.05 4.34 17.383 16.678 26.322 41.146 29.528 1.504.197 4.013.678 6.007 1.883 10.786 6.82 6.337-2.29 3.384-5.826-2.11-2.765-5.96-5.508-5.96-5.508s3.27-2.137 4.8-2.956c6.888-3.686 9.406-18.023 3.7-21.077-5.205-2.785-14.033 1.485-14.036 6.805-.002 9.72-12.265 10.8-23.03 2.762-13.815-10.317-1.713-36.498-1.63-36.464l-7.78-3.385c1.036.912-16.26 25.682-37.687 17.15-14.965-5.958-25.565-23.22-18.654-28.188 5.043-1.37 11.107 1.377 14.932-1.59 7.617-6.023 1.41-16.515-9.5-16.088-2.29.1-7.496 1.123-7.496 1.123.555-4.9 1.796-8.347 1.168-13.067-.658-4.724-3.948-8.47-8.346-8.5zm513.978 9.35l.036 9.187 14.875.036-.036-9.187zm-.083 18.938l.037 9.47 15.03-.058-.037-9.47zm.08 20.406l.038 9.687 15.03-.058-.038-9.687zm.074 19.03l.04 10.25 15.03-.058-.04-10.25zm.074 19.094l.037 9.562 15.03-.058-.037-9.562zm.076 19.47l.037 9.656 15.03-.058-.037-9.656zm-488.647 11.333l12.74 21.326 15.034.598.65 14.685 25.638 19.432-22.282 16.055-1.564 15.85-17.716.63-14.25 24.243-17.738-21.15-14.196-2.226-1.7-19.306-21.907-16.26 20.467-16.486 1.6-17.163 16.724 1.404zm831.815 6.992c1.368.022 2.858.394 4.473 1.2 5.32 2.658 6.996 2.965 20.795 3.607 16.006.745 21.667 2.152 29.623 7.416 4.797 3.174 5.077 3.155 10.187-.258 22.412-14.976 48.128-1.54 50.102 26.18.52 7.29 1.26 10.222 4.157 16.328 1.975 4.23 4.02 7.564 2.852 10.27-3.57 8.27-20.88 8.868-30.357-3.35-1.695-1.843-3.413-2.634-5.76-2.634-4.676 1.76-16.696-7.624-16.562-8.03-1.088 6.566-1.624 11.784-2.76 21.323l-20.97-.23s-.482-3.84-1.504-17.244c-1.177-15.408-5.025-19.9-9.92-11.555-8.42 14.37-30.978 8.154-32.347-8.906-.464-5.783-.796-6.533-3.972-8.953-10.64-8.116-7.617-25.32 1.965-25.164zm-343.088 2.175l.033 8.562 15.03-.058-.033-8.562zm345.533 7.816c-4.164.314-1.763 7.695 5.14 11.574 3.917 2.2 3.928 2.185 3.44 8.987-.882 12.32 11.015 18.31 16.25 8.187.908-1.752 1.29-3.98.916-5.472-2.247-8.942 17.128-6.576 21.823 2.665 1.08 2.124 2.297 7.778 2.896 13.49.57 5.412.733 11.685.733 11.685l6.187-.024s-.09-3.74.253-7.314c1.475-15.306 8.206-25.005 17.34-25.005 3.9 0 4.042.692 1.335 5.745-4.58 8.547-.112 14.71 10.65 14.74 6.827.02 6.802.03 9.363 4.87 2.81 5.316 4.928 6.997 7.523 6.002 1.832-.703 1.87.325-.6-17.842-3.682-27.07-19.468-34.304-41.167-18.872-6.14 4.368-7.49 4.242-12.973-1.012-8.217-7.874-13.407-9.664-29.415-10.198-7.627-.255-15.145-.973-16.694-1.59-1.235-.493-2.232-.67-3.002-.613zm-516.372 9.753c-3.56.075-7.685.84-11.267 1.16 4.06 20.915 5.992 41.838 7.892 62.76 18.313-3.254 42.06-.38 73.428 14.1 19.25 8.88 42.776 24.094 67.442 41.27 26.7 18.593 57.957 29.513 84.567 35.18 32.403 6.9 58.402 6.2 57.686 4.674-1.43.245-11.87-51.296-10.57-62.33-44.8-3.94-88.105-20.354-121.246-42.69-43.87-29.57-94.547-55.232-147.93-54.114zm170.912 1.087l.034 8.687 15.03-.058-.034-8.687zm-493.24 3.632l-23.685 24.873 25.97 24.4 21.872-25.054zm-.613 11.252l13.52 12.854-10.82 13.823-15.207-13.004zm335.318.73c3.17.015 6.278 2.228 16.78 8.06 8.814 6.03 15.848 9.79 13.25.292 1.993-2.747 11.765 6.124 23.264 11.69 13.88 11.032 13.922 8.36 15.7 2.845 1.84-4.033 4.407-1.32 15.503 8.877 14.577 13.398 13.273 13.42 16.164 10.062 3.286-6.297 4.4-6.236 16.278 7.312 12.356 13.677 14.97 16.597 17.573 10.713 4.038-3.057 6.144-.112 22.904 15.505 8.245 8.16 10.172 6.88 11.693 1.36 1.566-5.686 2.023-4.408 15.932 6.532 16.106 12.79 17.7 13.726 18.35 9.273 1.033-7.073 6.017-4.583 22.59 7.225 10.044 7.12 13.837 9.095 15.966 7.313 2.168-3.864-5.476-11.248 10.702-4.323l4.528 23.42-5.6-1.572c-3.437-.964-10.976-3.483-8.1 3.813 1.654 4.213-2.412 3.73-14.983-3.692-18.008-10.63-21.333-13.075-22.667-10.88-2.34 8.02-2.037 8.535-14.19-.914-14.142-10.638-16.99-13.58-18.945-9.927-.226 8.074-4.168 6.45-17.363-4.84-11.155-9.68-13.543-14.75-18.493-7.293-1.357 2.6-2.733 1.944-4.578.608-6.483-4.755-19.537-18.427-23.23-22.354-2.9-3.137-4.54-2.116-6.904.496-2.207 2.438-2.38 1.685-9.582-4.87-17.2-15.653-20.402-19.57-22.786-17.412-1.94 3.694-.053 8.697-13.256-1.636-16.556-11.828-23.747-17.078-22.6-9.287-2.82 3.5-.832 4.176-17.394-4.9-15.74-8.627-17.743-11.23-20-8.235-1.524 4.725-6.8 3.05-6.802 2.776l-3.28-23.83 5.656.04s5.43-2.237 7.93-2.25zm-126.022 2.49c-1.245 3.69-9.826 24.993-9.724 79.132 1.044 1.275 21.398-19.636 22.317-39.056.872-18.402-12.55-40.128-12.593-40.076zm284.597.396l.038 9.875 15.03-.058-.038-9.875zm-283.487 8.928c19.223 30.215-1.725 58.858-6.96 60.896-.088-22.764 3.178-44.177 6.96-60.896zm501.52 23.5c-31.333 19.914-26.026 73.457-10.56 87.12 1.134-.004 10.804-57.9 10.56-87.12zm-4.275 6.606l-8.186 68.97c-11.028-12.12-13.117-48.367 8.186-68.97zm198.126 10.868l16.675 20.8 14.754 1.037 3.34 15.05 21.6 17.448-21.505 14.71-1.842 16.695-16.025 1.687-15.778 25.03-15.626-24.408-14.88-1.536-.53-16.06-23.442-17.16 22.26-13.493.367-18.158 17.47-.005zm-587.626 8.81c-10.35 50.17-35.397 84.572-70.832 107.776l.207 5.062-59.75 24.232c-12.87 61.206-36.213 120.954-85.407 177.114l13.9 27.946-66.754 23.228 96.324 163.72c6.59-.026-46.264 25.24-110.21 18.96 40.836 98.883 49.574 201.4 27.537 291.27l313.21-2.528L1857.16 695.11c-3.348-6.124 127.323 17.865 100.072 139.082-.377 2.805.594 3.155 2.164 1.992 25.3-21.904 193.648-83.02 328.582-3.712l39.935-16.718c-18.777 66.712-40.238 112.638-76.563 152.954l6.556 94.82c64.345-53.11 134.013-150.43 142.917-279.432 29.014-14.278 54.234-30.46 81.26-45.722l3.598 1.142 17.5-10.6c-56.465-61.3-171.494-119.634-245.12-134.8l4.425 20.827c-40.636-10.74-71.002-12.993-102.595-16.258l-5.7-220.667-40.968-23.935-.337 243.44c-30.564.497-100.795 12.83-100.795 12.83l3.076-20.825-32.162 6.75-.64-20.28 36.334-10.578 51.882-223.828zm4.425 4.952l16.826 3.34-51.368 219.45s-29.26 8.206-31.067 7.09c-2.5-41.106-3.703-124.893-3.703-124.893 51.37-43.16 59.322-73.608 69.312-104.988zm-358.34 17.484c7.87-.13 16.36 5.562 16.917 10.716 1.36 3.173 2.5 4.54 4.612 4.826 13.18 1.77 13.614 5.257 14.02 12.852-1.8 14.57 7.902 2.307 10.61-12.166.282-1.508.076-12.563.076-12.563l16.124-.22.833 13.372c1.465 11.18 6.27 20.23 9.555 14.276 11.264-20.416 37.288-10.13 33.256 9.527-.992 4.65-.927 4.944 2.252 8.46 5.184 5.737 7.127 11.822 5.442 17.135-1.64 5.188-5.265 5.99-13.083 2.895-3.675-1.455-8.12-1.963-20.01-2.266-16.815-.43-17.865-.744-24.434-7.062l-4.14-3.984-7.11 4.215c-11.836 7.017-22.62 7.326-35.184.95-8.18-4.152-12.972-14.158-14.303-29.788-.274-8.306-2.63-14.312-7.782-16.282-2.788-2.605.285-7.817 5.014-12.582 2.17-1.57 4.71-2.267 7.335-2.3zm940.283-1.273l-22.05 27.71 26.435 23.46 24.42-28.94zm-513.2 5.96l30.756 17.443 4.78 217.546-34.69-.834-.846-234.155zm-426.204 4.685c-2.333.238-.852 3.976.88 9.684 1.555 5.107 1.955 8.284 1.484 11.838-3.165 23.853 24.218 35.87 43.887 19.267 5.223-6.03 6.084-5.644 10.503.772 5.44 6.764 13.326 8.94 29.843 7.884 7.54-.482 12.554 3.524 15.816.845 2.36-1.725.046-6.26-4.535-8.89-2.804-1.608-2.906-1.86-2.373-7.46 1.346-14.118-10.306-17.808-18.523-5.866-6.787 9.865-17.105 3.403-20.487-12.827-2.02-12.49-3.593-12.29-5.037-1.387-1.56 13.256-18.955 27.7-25.95 21.195-1.914-1.914-1.894-1.434.03-8.094 2.485-8.548.457-11.722-8.867-13.903-1.526-.357-3.286-1.623-3.886-2.797-4.962-7.615-4.756-10.294-12.8-10.263zm941.67 1.41l14.11 12.07-12.194 14.516-15.013-11.442zm-505.78 9.712l.04 10.28 13.125-.05-.04-10.28zm.08 20.72l.042 10.812 13.125-.05-.042-10.812zm79.1 12.13l44.948 163.64c13.975-5.646 94.66-41.832 132.598-87.9-1.45.12-34.78-32.214-46.488-53.226-38.096 6.43-81.916-1.393-131.057-22.523zm-79.037 6.807l.04 10.094 13.125-.05-.04-10.094zm87.354 2.41c34.782 10.226 79.337 24.343 120.285 16.908 10.643 18.947 25.997 34.515 43.315 48.864-30.88 33.854-75.625 59.76-121.94 79.755zm329.763 2.658c1.747.004 3.52.662 5.227 2.167 5.515 4.866 9.76 6.54 21 8.325 18.106 2.877 31.95 14.123 35.926 29.173 1.67 6.322 2.576 6.664 11.58 4.36 34.11-8.724 60.543 19.482 52.566 57.296-2.786 13.204-3.65 14.787.328 20 8.715 9.322 10.6 9.436 1.13 17.714-8.62 7.806-25.81 4.115-29.502-8.48-3.51-6.895-3.46-7.418-9.19-8.308-22.296-3.466-21.494-34.288-.522-37.936 1.754-.305 3.052.045 3.936-.36 5.948-2.717-6.558-16.76-16.838-14.56-12.61 2.7-18.864 10.82-23.784 23.53l-19.92-11.267c4.947-10.33 8.554-23.628 4.19-31.83-3.53-6.916-7.955-7.164-9.283-.526-3.123 15.617-22.504 20.353-35.283 7.7-7.143-7.07-8.004-14.687-2.816-24.99 3.36-6.666 3.443-7.143 1.993-9.945-5.042-9.75 1.684-22.083 9.258-22.067zm-417.04 14.306l.04 10.53 13.156-.114-.072-10.47-13.125.05zm419.532-.753c-4.04.045-3.997 3.983-.247 8.75 3.33 3.354 3.984 4.896-.595 7.815-5.73 5.353-6.954 13.38-2.956 19.48 6 9.157 19.75 3.988 18.13-6.82-1.136-7.584 4.812-11 14.312-8.18 13.807 4.1 20.437 19.486 15.074 35.036-1.01 2.93-3.02 9.765-3.02 9.765l4.086 2.454s4.802-7.738 6.68-10.084c15.592-19.318 52.662-9.706 48.63 14.396-.606 7.57-.57 8.592-8.82 6.253-5.484-2.798-10.747 3.074-10.553 10.385.296 6.586 6.034 11.847 13.948 10.758 6.274-1.202 7.853-.993 7.435 7.47.666 5.883 2.875 9.772 6.733 11.755 9.367 3.825 14.157-1.515 6.65-9.307-4.547-4.72-4.302-12.05-1.48-18.932 3.373-8.228 1.525-26.282-3.735-36.455-7.58-14.65-28.648-20.72-46.24-13.32-8.038 4.337-8.915 5.334-9.727-2.212-4.487-18.706-18.63-32.798-36.195-33.985-6.753-.456-13.8-4.113-18.113-5.024zm-419.454 20.752l.038 9.72 13.156-.05-.038-9.72zm.074 19l.042 10.72 13.125-.05-.042-10.72zm.08 20.906l.042 10.72s7.18-.227 13.125-.05l-.042-10.72zm428.688 15.524l14.457 21.194 15.9 1 1.942 17.15 24.183 14.937-20.855 13.175-.092 16.594-19.93 1.765-17.534 23.443-15.08-20.567-15 .12-3.603-18.392-26.614-13.366 27.2-15.637-.825-19.34 18.53-.197 17.32-21.88zm-428.612 4.194l.043 11 13.125-.05-.043-11zm.078 20.156l.042 10.875 13.125-.05-.042-10.875zm420.59 6.462l-20.487 27.486 27.84 22.83 21.955-27.804zm-420.517 12.6l.046 11.906 13.125-.05-.046-11.906zm422.7-.202l14.355 11.007-10.168 13.008-14.26-10.79zm-422.605 22.202l.04 9.97 13.125-.05-.04-9.97zm-390.617 2.797c-25.3.214-49.074 41.286-54.734 60.713-6.68 24.885-7.513 69.858-1.068 71.098 22.617-16.407 33.26-44.107 50.217-64.883C1734.24 671.22 1734 717.4 1734 717.4s-10.062 5.345-15.464 13.746c-3.898 6.986-5.117 15.317-1.742 23.06-12.625-4.045-35.45.668-36.657 23.955.948 32.78 36.725 28.023 36.857 27.576-.76-.2-6.913 34.902 24.868 38.498 11.407 1.3 31.427-7.097 25.35-38.974 20.067 3.23 37.314-7.878 37.457-27.177.204-13.22-9.884-24.55-27.19-24.55-3.607 0-11.212 1.67-11.212 1.67.236-1.907 6.842-22.45-16.488-37.25l-4.024-94.89s8.066 8.724 11.672 12.017c15.522 14.176 25.645 21.307 43.526 30.644 17.404 9.09 15.25 6.84 12.178-10.547-8.307-26.098-25.54-45.778-61.93-70.323-4.684-3.16-9.426-4.547-14.11-4.508zm2.508 2.022l5.615 134.21-7.53.018-6.99-134.068zm744.637 1.548a16.19 16.19 0 0 1 2.063.055c16.377 1.315 20.654 19.603 13.327 27.76-2.897 3.225-3.9 3.922-2.383 5.884 7.062 8.874 3.194 22.952-3.746 25.14-22.065 6.956-25.462-5.116-25.45-19.34l-34.13-1.15.142-19.876 37.628.604c-2.872-9.016 2.525-18.66 12.55-19.08zm-760.43 3.17c.142-.013.282-.012.406-.002 3.537.287-.064 9.753-9.875 24.195-6.63 9.764-15.84 26.976-18.587 33.916-6.015 15.192-10 42.41-5.95 37.398 3.63-11.385 3.968-16.124 7.093-24.31 4.116-10.678 23.386-45.797 27.215-49.262 3.276-2.964 4.134-1.154 4.096 8.703-.086 22.202-10.514 45.603-35.498 73.045-4.165 4.574-9.72 9.57-10.12 9.57-2.417-.001-2.373-5.026-2.373-15.585 0-41.943 15.423-79.45 39.317-95.653 1.868-1.267 3.282-1.926 4.274-2.017zm25.414 1.84c11.02 3.18 30.846 20.77 39.022 29.818 9.47 10.142 22.215 38.27 20.01 42.6-.73 1.904-2.324 1.612-7.85-1.47-35.102-19.58-60.276-43.783-53.732-51.667 1.827-2.203 9.37 2.295 19.483 11.612 6.872 6.05 13.91 12.185 20.196 18.328 9.88 9.653 12.1 11.07 6.126.32-5.365-9.652-20.526-25.826-38.84-39.537-7.446-5.575-9.15-10.085-4.414-10.014zm737.204 2.796c-.467.012-.89.084-1.218.223-6.88 2.93-4.04 11.85-4.677 18.706l-37.88-1.166-.198 5.25 35.538 1.8c.645 5.356-2.1 16.93 2.48 18.866 9.958 4.098 15.342-8.738 6.874-16.402-3.017-2.658-6.277-3.83 2.064-7.633 5.487-4.726 6.308-13.913 1.586-17.975a7.3 7.3 0 0 0-4.569-1.67zm-479.178 3.42l-1.852 14.04-21.947 5.616-.62-14.998zm259.11 3.964c81.19 21.532 171.54 70.782 230.305 126.576l-11.69 7.733c-61.052-55.953-141.465-98.298-215.277-119.197zm-139.74 2.698c133.554-.886 255.51 50.562 354.085 134.034l-16.023 10.187c-89.906-73.734-189.39-122.75-323-128.123-87.33-3.51-186.885 19.265-284.873 73.668l-7.364-13.253c95.174-52.375 188.716-75.926 277.174-76.514zm-10.422 20.166l52.537 1.327-3.06 48.794-47.756-1.377zm-56.486 3.688l7.59 47.033-45.685 8.71-13.152-47.137zm166.304 5.574l52.24 13.704-17.032 48.035-45.863-12.885zm-83.59 1.012c-8.287.032-14.973 6.774-14.942 15.058a15 15 0 0 0 15.058 14.942c8.284-.032 14.97-6.773 14.942-15.058s-6.774-14.973-15.058-14.942zm.02 5.188c5.524-.02 10.018 4.343 10.038 9.774s-4.438 9.86-9.962 9.883-10.02-4.374-10.038-9.805 4.437-9.83 9.962-9.85zm-103.624.496c-8.285.032-14.973 6.774-14.942 15.058s6.773 14.974 15.058 14.942 14.974-6.774 14.942-15.058-6.774-14.974-15.058-14.942zm.02 5.187c5.524-.02 10.018 4.343 10.038 9.774s-4.438 9.86-9.962 9.882-10.017-4.374-10.038-9.805 4.44-9.83 9.962-9.85zm206.616 5.23c-8.284.032-14.97 6.774-14.942 15.058s6.774 14.974 15.058 14.942a15 15 0 1 0-.116-30zm-290.804 2.878l15.647 45.846-44.21 18.11-16.77-45.28zm290.824 2.31c5.526-.02 10.02 4.343 10.038 9.774s-4.436 9.86-9.962 9.883-10.016-4.374-10.038-9.805 4.44-9.83 9.962-9.85zm86.792 10.663l47.065 24.63-24.11 43.97-43.87-22.642zm-393.232 5.494c-8.285.032-14.974 6.774-14.942 15.058s6.773 14.974 15.058 14.942 14.974-6.774 14.942-15.058-6.774-14.974-15.058-14.942zm177.442.75l2.367 46.335-41.582 3.1-7.74-46.033zm49.915 2.244l47.43 6.378-10.983 44.668-42.933-6.74 6.484-44.307zm-227.337 2.194c5.523-.02 10.017 4.343 10.038 9.774s-4.44 9.86-9.962 9.882-10.017-4.374-10.038-9.805 4.44-9.83 9.962-9.85zm155.335 5.397c-8.285.032-14.974 6.774-14.942 15.058s6.773 14.974 15.058 14.942 14.974-6.774 14.942-15.058-6.774-14.974-15.058-14.942zm-75.742 2.17l12.456 45.046-45.668 13.27-14.2-43.32zm165.97.075c-8.285.032-14.973 6.773-14.942 15.058s6.773 14.973 15.058 14.942 14.974-6.774 14.942-15.058-6.774-14.974-15.058-14.942zm-90.208 2.944c5.523-.02 10.017 4.343 10.038 9.774s-4.44 9.86-9.962 9.883-10.017-4.374-10.038-9.805 4.44-9.83 9.962-9.85zm90.228 2.244c5.524-.02 10.018 4.342 10.038 9.774s-4.438 9.86-9.962 9.882-10.017-4.374-10.038-9.805 4.44-9.83 9.962-9.85zm160.437-.528c-8.286.032-14.974 6.774-14.942 15.058s6.773 14.974 15.058 14.942 14.973-6.774 14.942-15.058-6.774-14.974-15.058-14.942zm-81.14 4.7l45.873 15.478-18.115 42.883-43.908-16.517zm81.16.498c5.523-.02 10.017 4.343 10.038 9.774s-4.44 9.86-9.962 9.883-10.018-4.374-10.038-9.805 4.438-9.83 9.962-9.85zm-344.616 2.93c-8.285.032-14.97 6.774-14.942 15.058s6.774 14.974 15.058 14.942 14.973-6.773 14.942-15.058a15 15 0 0 0-15.058-14.942zm.02 5.188c5.526-.02 10.02 4.343 10.038 9.774s-4.436 9.86-9.962 9.883-10.017-4.374-10.038-9.805 4.44-9.83 9.962-9.85zm277.594 7.673c-8.285.032-14.973 6.773-14.942 15.058s6.773 14.973 15.058 14.942 14.974-6.774 14.942-15.058-6.774-14.974-15.058-14.942zm.02 5.187c5.524-.02 10.018 4.342 10.038 9.774s-4.438 9.86-9.962 9.882-10.017-4.374-10.038-9.805 4.44-9.83 9.962-9.85zm-536.6 7.3c11.99.46 21.026 11.19 21.613 22.39.447 8.515-10.372 19.703-10.372 19.703l-12.69-11.653-12.094 11.23c-2.045.69-11.54-15.305-8.692-23.6 3.71-10.817 11.4-18.474 22.233-18.06zm681.12-2.643l36.396 29.547-18.83 11.48c.356-1.292.52-2.66.516-4.065-.032-8.284-6.774-14.973-15.058-14.942s-14.974 6.774-14.942 15.058c.027 7.104 5.013 13.054 11.65 14.58l-8.668 4.94-19.218-15.988zm-57.13 79.566l-16.03 6.648c-99.045-64.507-234.333-99.496-388.576-33.552l-5.365-12.787c114.5-48.205 259.156-63.64 409.97 39.69zm-9.033-64.81l38.967 23.693-24.54 38.002-38.063-24.134zM2345 806.312l-16.29 6.188c-120.893-77.013-249.407-72.384-364.07-25.494l-1.816-10.876c135.002-59.07 270.792-40.97 382.175 30.182zm80.67-61.095c5.523-.02 10.017 4.343 10.038 9.774s-4.44 9.86-9.962 9.883-10.018-4.374-10.038-9.805 4.438-9.83 9.962-9.85zm-701.6 20.493l-13.357 13.58 12.296 13.7s-3.872 3.3-6.68 4.844c-16.013 8.797-33.624-4.93-32.843-19.832 1.138-21.71 27.255-32.16 40.586-12.303zm638.056-12.84c-8.285.032-14.973 6.774-14.942 15.058s6.773 14.974 15.058 14.942 14.974-6.774 14.942-15.058-6.774-14.974-15.058-14.942zm-583.814 2.874c11.936.045 21.242 9.174 22.428 19.7.946 8.404-3.395 16.493-12.797 22.245-12.756 7.804-27.662-4.693-27.408-5.467l10.74-10.698-13.016-13.212c-.376-.25 8.505-12.622 20.05-12.578zm-37.326 2.723l22.18 21.945-23.3 21.872-21.74-21.666zm582.88 56.364l-12.384 5.736-16.946-10.122-4.963 9.613 9.43 5.932-9.765 3.704c-112.918-62.862-240.16-44.03-324.626-1.695l.753-6.516 9.194-4.734-3.483-11.643-4.932 1.457-.425-12.905c120.624-54.878 257.78-42.95 358.147 21.173zm38.28-56.774c5.524-.02 10.018 4.343 10.038 9.774s-4.438 9.86-9.962 9.883-10.017-4.374-10.038-9.805 4.44-9.83 9.962-9.85zm-621.6 10.287l-11.736 11.764 11.767 12.454 11.4-12.138zm368.82 1.163l-15.435.747.86 12.6 15.06-.433zm10.53.022l.33 12.593 14-.116-.1-12.437-14.22-.04zm24.844.122l-.64 12.534 13.91.57.952-12.473zm-59.993 1.826l-15.806 1.78 1.8 12.65 14.962-1.808zm85.906-.146l-1.075 12.942 14.287 1.57 1.9-12.382zm-430.028 1.73l6.903 7.286-6.817 6.84-7.31-7.097zm317.48 2.612l-15.24 2.465 1.676 13.025 14.863-2.995zm138.343-.537l-2.484 12.072 14.2 3.35 2.265-12.32zm-163.322 5.915l-12.8 3.456 2.83 12.677 13.518-3.365zm187.688-.228l-2.64 12.26 14.484 3.88 2.86-11.76zm-208.82 6.904l-13.388 4.802 3.514 11.736 13.607-4.647zm233.753.437l-4.423 11.798 12.55 4.983 5.5-10.71zm-255.846 7.9l-12.698 5.268 5.295 11.636 12.04-5.547zm-262.155 1.38l12.927 12.805 15.244-13.86c13.395 11.748 13.29 39.353-10.322 44.054-20.622 4.106-39.616-26.712-17.85-43zm541.008.38l-4.864 10.83 13.867 6.04 4.74-10.425zm-394.603 70.906l175.838 296.226-27.627-.424-170.174-286.248zm-28.632 11.42l9.718 14.97c-18.976-14.987-46.73-2.21-45.482 16.766.958 8.472 8.146 13.6 8.146 5.437-.893-8.526 11.166-16.006 19.94-15.64 16.19.148 26.16 20.914 15.028 31.317-7.323 6.796-17.265 6.532-13.948-2.758.516-3.203.25-4.37-1.272-5.745-4.66-4.22-13.207 1.333-11.096 7.387 1.388 3.98 1.794 4.96-2.968 8.262-18.47 13.08-5.466 38.668 16.917 26.903 4.58-1.67 6.44-1.92 8.527-1.127 9.348 3.554 15.675-4.57 6.8-8.745-5.15-2.426-5.297-6.602-.35-9.936 10.562-7.115 27.102 3.876 27.1 18.02-.001 10.01-13.18 17.458-25.85 14.6-7.53-1.698-8.413 3.4-1.498 8.662 13.4 10.194 33.376 1.623 39.28-16.84 1.856-5.807 1.58-7.02 1.58-7.02l17.94 29.363s-5.54-2.595-8.884-3.6c-16.8-5.056-35.576 5.898-35.576 20.763-.003 7.004 4.153 9.7 6.454 4.194 5.353-12.81 17.086-17.834 29.17-12.488 11.18 4.943 16.33 16.23 12.01 26.33-4.525 10.576-19.83 13.746-18.142 3.758.808-4.76-2.105-7.654-7.215-7.16-1.934.187-4.395 5.816-3.717 8.514.634 2.525.2 3.14-6.343 8.275-15.523 12.202-3.47 31.974 15.945 26.157 3.263-.978 4.48-.893 7.408.502 7.044 3.36 14.418 1.222 14.42-4.18-.004-3.714-1.683-5.133-6.082-5.133-6.664 0-5.252-7.543 2.113-11.258 18.46-9.313 37.442 13.95 26.25 32.18-4.81 7.832-7.863 8.65-25.16 6.816-2.8-.296-4.042 1.618-2.374 3.88 5.143 7.232 20.37 9.47 29.22 5.42 9.55-4.368 15.337-15.32 15.966-26.98l19.678 34.053c-15.265-15.834-41.468-9.655-45.592 13.123.002 5.77 5.272 8.754 7.078 4.004 7.826-20.574 37.906-14.392 37.906 7.8.004 3.57-.694 5.594-2.966 8.73-5.477 10.66-19.565 13.342-17.048 3.785 1.125-2.958-1.146-6.16-5.027-7.074-3.82-.9-6.242 2.307-6.125 8.118l.124 5.68c-7.02 2.993-11.485 8.812-13.014 17.406l-136.83.84c15.904-94.9 11.75-180.528-19.67-261.394l-6.614-17.21 24.15.547c5.846 5.028 27.856 2.982 36.427-4.86zm23.375 37.152l14.23 25.33c-5.862-3.328-11.825-5.527-20.93-6.263 4.723-7.065 5.077-13.385 6.7-19.07zm-37.043 27.124c5.15-.02 9.33 4.128 9.35 9.276s-4.128 9.33-9.276 9.35-9.36-4.128-9.38-9.276 4.16-9.33 9.308-9.35zm97.73 75.456l13.704 24.173c-6.632-2.795-12.236-5.527-22.586-5.757 3.747-4.414 6.976-11.8 8.882-18.416zm-39.15 26.1a8.85 8.85 0 0 1 8.878 8.809c.02 4.882-3.928 8.828-8.81 8.847s-8.828-3.897-8.847-8.778 3.897-8.86 8.778-8.878zm98.906 75.126l20.233 35.567c-7.92-4.495-16.45-10.197-27.122-9.054 5.038-10.874 7.785-16.805 6.89-26.513zm-26.562 44.574l-21.554.158c4.236-18.86 21.68-14.028 21.554-.158zm20.362-9.16c7.33.344 13.662 2.827 17.647 9.2l-27.123.174s.153-9.376 9.475-9.375z"/>
    </g>
</svg>