<svg xmlns="http://www.w3.org/2000/svg" width="224.225" height="312.808">
    <rect y=".499" x=".499" height="311.811" width="223.228" rx="10.63" fill="#fff" stroke="#000" stroke-width=".997"/>
    <g transform="matrix(.153866 .001708 -.001708 .153866 275.130269 113.265111)">
        <path d="M-1108.565 1129.142l147.78-277.023c-.018.065 36.668 13.6 79.506 24.202-39.81 107.273 2.455 247.727 2.455 247.727l-229.742 5.095zm-419.764-465.96c-9.88-116.928-11.4-229.98 6.822-323.853.34-1.504-54.248-32.23-48.676-35.89 8.53-5.6 114.77-62.49 114.77-62.49s7.264 4.025 13.487 3.322c4.857-.55 9.363-5.017 7.423-9.717-4.587-11.114-12.865-38.802-8.394-66.816 2.57-16.094 11.082-33.874 19.996-44.8 19.87-24.354 65.98-12.112 79.344-12.663 8.484-.35 33.136-90.33-7.895-106.52-11.305-4.46-36.458 57.055-18.354 70.6 2.723 2.037-36.324-20.027-66.193-33.117-2.767-1.213-15.008-10.42-17.876-22.722-3.578-15.345 45.044-45.5 35.24-62.725-14.283-25.107-50.867-62.484-66.233-51.943-14.485 13.378-49.09 40.77-48.65 59.246 11.27 33.008 39 35.006 53.92 66.187 3.706 6.734 30.806 34.906 30.806 34.906-9.886 15.483 6.684 42.166 7.397 38.05l-127.5-53.864s31.513 218.483 1.16 251.208c-3.212 3.463 27.08-8.886 27.616-7.02 9.376 11.596 112.575 75.602 142.168 98.7 51.284-73.213 69.954-105.38 136.374-170.57 14.6-12.34 47.203-34.945 65.692-61.875 14.855-21.638 20.845-45.888 17.926-64.628-3.775-24.233-6.12-40.82-21.318-59.996-35.11-44.302-90.648-86.316-89.685-87.104l18.645-15.5s68.532 55.384 97.748 96.354c19.684 27.603 11.346 59.6 28.114 65.122 4.034 1.33 31.445-1.264 40.475.364 1.093.197 201.325 138.18 165.394 146.665-49.742 11.748-129.343 5.327-129.343 5.327-57.387-54.77-84.993-72.686-118.636-54.95 0 0-84.91 75.934-133.74 135.192-27.83 33.77-50.9 75.903-69.477 103.047-7.153 10.457-99.17-75.995-98.133-65.517 14.586 95.054 23.57 209.66 13.962 287.532-6.45 66.13-15.498 137.177-19.214 198.14 0 0 15.232-4.606 26.928-.598 6.32 2.166 10.965 7.95 11.584 14.43 3.72 28.962-33.704 22.647-34.602 20.145.042-.025 21.343 44.506 21.343 44.506l-30.86 53.71c.54-1.508-29.953-49.197-29.953-49.197s22.28-40.386 25.048-48.775c1.66-5.032-32.614 16.967-35.626-14.316-3.036-31.537 37.418-23.526 35.65-19.622-5.583-64.677-17.19-131.482-24.672-185.943zm488.052 140.223c.886-.68-86.242-33.848-165.895-29.746-28.197-10.615-74.115-21.542-104.454-.833-34.627-22.882-64.586-48.164-95.016-73.203 8.44-.202 37.8-203.9 57.71-274.986-10.205-87.896 74.607-88.774 82.754-18.37 92.415 93.418 205.368 189.852 321.75 284.675-17.923 38.233-83.814 67.967-96.846 112.464zm192.848-624.73c-105.344-105-325.448-292.353-325.448-292.353l100.942-100.692c53.743 15.362 108.94 28.087 171.175 28.024.247.24 68.54 30.145 104.403-1.24l95.027 73.564s-36.79 205.84-58.934 277.785c.803 28.392-9.563 63.098-37.565 68.547-23.913 4.653-42.717-29.1-49.6-53.634zM-639.623-69.57c10.125-66.895 11.824-115.526 18.5-193.512-46.832 14.277-46.898-49.03-.563-32.892l-21.916-46.885 31.09-53.43 29.64 50.083-24.545 44.962c52.08 1.98 40.056 50.412-4.894 39.25 9.28 74.535 28.726 149.72 28.643 223.507 17.42 118.15-16.677 283.198-10.685 287.036l51.144 34.33-5.815 257.536-80.543-34.22-23.677 16.347c7.825 15.066 17.727 29.483 21.2 45.907 0 0 55.705 44.767 48.2 58.995 3.58 2.046-38.63 59.2-51.218 57.917-24.034-2.43-52.448-33.07-60.375-55.037-7.017-22.1 49.074-44.46 41.788-60.604-8.715-19.31-30.276-28.405-49.36-33.9-26.31-7.574-38.54-28.2-39.743-28.176 0 0-9.276 82.396-19.16 75.926-39.766-26.025-13.704-110.286-6.355-108.028 0 0 17.282 3.768 37.667 5.455 71.834 6.716 65.996-81.398 51.617-123.92-3.6-10.088 1.85-10.225 1.466-10.352-3.344-1.108 11.6-.44 24.23-4.314 34.727-10.65 87.712-46.668 87.712-46.668-56.423-30.464-106.32-65.386-151.103-98.526 0 0-40.446 70.77-88.768 120.083-35.177 35.9-40.83 48.05-99.857 94.43-1.146.9-44.523 53.917-22.9 115.02 18.496 52.29 105.22 108.153 104.63 111.953l-16.77 16.37c.695.933-122.718-74.632-120.78-157.403-.17-3.125-55.745-3.586-55.745-3.586l-163.156-147.792 136.797-2.106 70.878 56.554 43.914 1.8c2.896 2.49 4.33-11.64 42.664-40.883 73.24-55.875 163.177-198.267 163.177-198.267l97.615 66.95c-5.974-102.09-23.67-211.75-14.635-299.9zm-357.652-478.804s-98.45 189.863-152.596 279.387l-78.352-21.518c31.765-87.167-1.408-252.263-9.688-256.34z" fill="#e2cf00"/>
        <path d="M-1597.23-552.7l24.805 1699.646 1055.386-12.396-21.9-1699zM-850.04 670.893c49.55-47.06 98.65-85.997 144.642-114.41 17.838-11.02 23.27-12.664 30.396-6.325 11.62 10.337 18.887 19.36 15.21 26.73-.83 1.662-3.508 4.435-3.508 4.435l-27.777-10.21 9.3 31.27c-24.777 10.406-24.028 37.318.148 51.317l-16.105 38.203 38.234-17.33c1.563 8.27 29.184 28.003 45.912-.503l34.884 16.54-12.428-42.336c11.273-10.978 17.72-28.393-.372-44.175l7.878-33.36-31.22 10.542c-7.97-10.642-12.522-9.854-14.358-12.76-.58-3.99-.782-13.305-6.087-21.83-4.387-7.052-9.4-14.535-14.064-19.765-2.49-4.104-.54-4.474 11.897-11.378 5.844-3.244 10.665-6.512 10.665-6.512l87.295 41.736 7.75 569.492-338.258 2.77c-39.3-113.094-13.06-211.51-3.44-252.92-17.75-1.28-109.556-29.89-112.41-40.05 35.6-57.957 84.2-110.802 135.805-159.165zm-656.337 173.003c-44.276-13.754-44.133 39.365-21.55 43.23 5.858 1.003 11.972 1.8 21.076-1.24 2.274.445-25.93 44.822-25.93 44.822s23.44 41.465 34.643 59.072l34.054-62.003-23.185-42.394c35.764 17.724 53.578-36.438 16.157-43.083-9.035-1.13-18.953 3.494-18.953 3.494l17.583-184.798c15.95 10.578 45.066 31.823 45.066 31.823 7.703 101.618 3.826 186.42 62.336 333.742l1.726 102.935-195.234 2.168-6.725-537.452 34.44 24.064c.76 3.028-5.435 1.067-1.7 38.432 3.383 33.755 14.322 92.232 26.19 187.2zm685.66-1389.43c1.582 2.19 1.504 5.567 2.898 10.028 8.195 26.24 36.015 57.545 58 65.606 7.698 2.822 10.724 7.207 6.344 11.685-5.53 5.654-28.775-9.383-46.03-29.026-15.67-17.84-26.153-32.627-28.563-43.91-1.43-6.698-2.158-11.005-1.194-14.507 2.788-3.95 6.314-2.9 8.546.127zm27.266-3.15c2.894-.045 6.824 3.32 9.23 9.492 5.787 14.843 14.722 25.888 28.613 35.372 3.683 2.515 5.18 6.33 3.346 8.588-.68.836-1.573 1.254-2.582 1.548-10.713 3.12-39.377-29.302-41.857-49.6-.54-4.408.998-5.365 3.25-5.4zm35.22.015c5.716-.09 8.59 11.806 5.347 18.088-2.136 1.994-6.91-.99-11.207-8.775-3.69-6.688-2.27-9.187 5.86-9.313zm-19.153.4c1.28-.054 3.92-.76 5.282 1.084 2.34 12.298 11.734 21.117 19.228 28.174 1.27 2.324 1.907 7.208-.803 8.51-6.465 2.95-26.27-19.065-26.55-31.924-.084-3.87 1.08-5.77 2.842-5.844zm-24.733 8.088c7.105 22.42 23.916 40.587 38.89 49.945 10.703 6.648 14.85 10.446 9.957 13.954-1.213.87-2.443 1.54-2.734 1.5-24.996-9.225-56-44.923-57.303-70.42 5.344-7.003 10.215.72 11.2 5.02zm-85.058 98.607c-13.09.163-29.088 3.32-42.04 9.372-18.025 8.422-22.505 13.934-19.842 15.885 1.916 1.372 13.524-3.76 19.362-4.584 31.456-8.156 53.14-10.314 73.797-1.582 15.97 6.75 16.03 3.57 5.232-7.846-7.83-8.277-21.673-11.43-36.508-11.245zm111.38 16.055c10.437-.22 21.12 2.1 24.96 6.924 3.12 15.716-4.822 8.602-11.19 5.535-9.204-4.122-19.732-7.655-29.505-6.044-6.28 1.036-6.46.722-2.917-1.338 5.34-3.33 12.942-4.934 18.652-5.077zm-123.577 7.506c-29.8 2.647-39.974 17.847-59.062 33.62-7.847 6.105-5.994 10.74 3.632 9.054 11.882-2.08 16.686-1.668 32.982 3.695 17.792 5.855 30.524 8.22 40.223 4.37 18.342-7.28 16.774-6.086-9.282 19.705-13.967 11.473-8.283 10.817 5.882.86 10.454-8.542 17.65-13.993 19.8-18.636 1.045-2.256 1.05-10.296 3.037-10.317 6.7-.072 3.152-8.393-2.976-11.874-4.032-2.804-3.172-5.795 1.947-11.332 8.035-8.642 5.228-12.48-3.54-7.052-1.544.86-2.34-1.744-7.765-4.934-8.582-5.047-15.793-7.362-24.877-7.16zm21.63 10.958c7.278 5.987 4.21 7.7-11.527 7.727-13.3.02-24.605 1.544-40.345 6.957-17.873 6.147-18.968 6.31-8.53-2.785 14.357-12.512 43.666-25.23 60.403-11.9zm93.137-6.274c7.234-.236 13.353.723 18.9 3.7 15.122 8.116 18.546 15.262 1.75 9.592-10.536-3.556-24.705-2.882-34.472-.06-10.087 2.916-11.818 3.92-10.51-1.553 1.604-6.705 12.275-11.286 24.332-11.68zm-117.92 25.753c3.762 17.812 17.237 11.83 18.46 1.035l4.944-.034c-1.942 14.358-21.328 26.57-29.22-.935 1.602-.06 8.693.35 5.816-.067zm108.015-.898l3.668-.157c2.573 13.66 15.342 17.994 20.683.812l4.44.043c-3.08 28.6-33.455 15.018-28.792-.698zm-118.36 2.648c2.454.835 3.642 7.516 3.25 9.286-.81 3.668-12.806-.094-15.376-3.642 2.466-2.682 8.318-6.94 12.125-5.644zm162.65 1.235l.025 5c-5.505 1.384-7.762 4.508-12.93 3.55.257-3.198-.332-7.582 2.624-11.342 3.736-2.027 8.24.357 10.28 2.792zm-120.366 7.118c-2.484 2-5.917 2.253-5.917 2.253-.593-4.78-1.46-10.155 4.507-10.265 3.934 1.1 3.713 5.955 1.41 8.012zm68.783-8.702c2.1.125 4.616 5.317 4.937 8.352-.56 5.002-12.87 3.145-12.925-1.82-.024-2.1 5.065-6.493 7.99-6.532zm-110.394 190.3c-9.542-4.64-82-47.566-101.28-124.687l-3.576 7.95c8.02 18.428 19.88 48.37 19.88 48.37-.51-2.586 3.165 20.11 10.925 58.627-3.9.088-8.202-.97-12.44-2.052-9.884-35.232-12.437-62.91-20.79-97.398l-3.36 9.694s10.7 61.938 17.77 86.12c-3.886-.325-11.052-1.846-11.052-1.846l-16.13-69.795-4.827 6.4c7.27 21.46 10.224 40.7 13.994 61.286-4.837-.674-9.7-1.083-14.327-3.59 0 0-7.676-37.56-8.645-38.098-2.736 2.818-3.836 6.418-3.836 6.418-.295-.335 6.528 20.795 6.155 29.53-4.63-.71-12.67-2.93-18.34-4.765-2.935 2-4.44 5.292-6.68 8.26 2.916 11.946 168.304 36.04 158.29 26.246-.048 1.036 73.15 31.078 113.522 4.412l99.156 72.294c.026 2.383 9.72 13.388 19.758 20.344l28.238 21.25c8.206 6.227 11.408 1.617 12.51-10.296l11.905-121.765c7.692-64.254 7.7-63.573-2.022-60.513-14.85 4.68-28.326-1.036-28.495-16.278-.104-9.325 4.124-17.096 14.02-20.813 2.81-.996 6.484-1.122 10.707-1.088 1.93.326 5.5.523 5.882.59 4.74-.32-18.842-41.918-18.842-41.918s21.652-39.608 32.117-54.39l29.167 51.492-22.905 45.96c45.562-3.93 41.733 53.44-3.118 34.742l-.001 15.78c.377-4.88.263-9.04 1.796-9.972 43.427 15.906 51.54-47.255 4.968-43.83l23.72-42.192-34.376-61.044-37.364 63.74 19.594 39.316c-4.317-1.07-7.77-.352-12.374.17-28.147 6.092-21.58 51.42 10.592 44.823 3.678-.754 9.184-3.602 9.184-3.602l-18.758 185.667s-2.034 1.687-10.454-4.238c-9.723-6.842-30.097-21.716-31.403-23.254 5.905-118.633-25.134-243.035-59.86-320.754-2.218-5.967-2.247-123.598-2.247-123.598l191.998-1.627 6.78 546.224c-10.113-6.244-21.06-14.486-31.46-21.652-3.12-2.47-5.074-5.418-3.8-10.208-3.314 7.3-1.23 10.392-1.23 10.392l42.772 33.4 4.286 537.6s-68.836-34.5-111.165-51.06c-19.097-7.545-19.922-5.3-19.922-5.3.06-.035 13.77 29.997 10.01 35.486 9.155 8.606 24.583 26.662 25.522 44.49 8.19 6.93 10.476 7.78 16.67 17.82l25.328-9.474-5.48 26.556c27.25 18.637 1.496 44.392-3.54 42.102 0 0 12.216 25.47 15.07 37.094-4.274-.243-25.82-11.62-31.817-14.304-15.18 30.715-41.67 5.373-41.93.872l-28.926 13.267 9.925-33.2c-18.846-11.178-31.684-28.25-1.62-47.12l-7.277-25.734 25.004 9.5 8.033-13c-9.762-40.44-70.9-32.09-90.97-68.338 0 0-4.325 45.575-9.092 62.1-1.45 43.558-32.44-.144-32.952-46.2-.115-10.4 12.57-45.538 16.976-47.285 4.595-.7 48.532 19.95 77.646-1.362 13.207-14.046 35.818-53.395 13-114.352-7.483-14.062 13.75-16.087 20.704-11.39l92.15-50.525c-48.66-26.038-150.02-95.628-150-98.985-13.177 21.45-28.35 39.48-49.618 69.84-34.563 41.62-61.502 81.112-105.58 114.554-61.996 46.198-76.165 92.165-58.136 145.748 7.312 23.16 21.776 46.574 45.13 54.47 11.967 11.832 60.006 56.313 60.006 56.313-78.564 73.14-132.392 133.176-169.876 199.27 32.443 16.605 110.508 40.307 110.508 40.307-27.827 96.348-13.827 172.478 6.062 248.832l-343.026.415c-.992 1-13.68.464-13.857-.342-.557-8.557 20.75-32.332 27.24-29.117 3.21-3.23 10.055-4.938 8.777-8.848-16.186-1.748-40.408 26.455-41.25 38.023l-9.642.107c-1.995-1.703 16.977-47.378 55.964-51.437-.4 1.64 5.2-3.592.936-5.76-45.435 5.897-66.062 56.612-64.712 57.285l-7.03.078c14.918-49.814 55.023-65.928 78.31-68.342.224-.1 7.532-2.736 5.516-7.062-51.418 9.517-76.852 32.098-88.756 75.46l-9.286.103c6.216-43.916 50.887-82.822 101.876-82.136 1.586-1.03 3.525-2.242 2.64-7.217-56.5 7.002-84.502 26.19-107.205 75.04-21.388-53.73-79.446-78.69-80.137-78.907 0 0-1.564-15.1 1.67-14.5 49.487 17.296 67.83-25.71 65.494-50.55-1.3-13.824-.61-21.455-5.46-41.348-4.324-17.738-7.5-29.687-7.268-37.412.24-7.646 2.617-9.218 8.23-11.838 10.515-4.908 16.938-22.322 14.565-24.418-5.29 12.674-19.614 15.008-26.13 23.56-5.2 7.04-2.753 18.13 7.075 56.62 5.99 23.454-.922 12.716-14.37 5.5l-8.984-4.95c6.055 6.088 12.45 11.817 18.618 17.78 5.515 4.93 2.492 8.052-5.37 5.247-11.34-5.502-33.044-2.905-41.294 4.274-3.22 2.348-4.374 2.12-5.217-.003-4.3-59.9 1.583-96.84 20.937-142.104 12.496-30.764 31.35-53.905 56.824-55.82 25.66-2.415 62.688 6.175 96.482 28.582 39.688 26.315 78.527 66.57 83.16 116.436.164.576 2.982-4.3 4.26-6.875 1.736-5.953-5.037-23.7-15.53-44.246-2.067-15.516-7.715-42.7-12.12-61.083 3.178-1.49 9.993-.75 11.93 1.554 7.55 30.39 12.947 54.062 19.585 94.82.132 3.98 5.138-5.967 5.124-8.59-.957-6.08-18.857-85.772-18.496-83.956.07-2.717 16.15.677 13.974 3.22 0 0 12.94 66.873 13.783 64.788l4.062-5.733s-12.185-48.8-10.835-58.258c.98-1.454 10.033 1.368 12.908 2.888 3.645 4.775 6.137 22.21 7.785 34.103 4.184 3.122 4.903-6.042 4.563-8.457-3.042-4.708-6.402-22.364-4.04-23.3 1.857-.736 12.242 3.253 14.244 4.998 2.356 2.053 11.23-10.525 8.917-12.66-48.98-18.14-110.632-28.358-156.942-28.58-10.762.164-15.048-1.306-31.616-7.083-42.193-14.706-76.772.794-81.813 5.646-51.708-35.086-109.543-84.245-155.493-115.5-2.16-1.396-7.284-2.182-7.845-2.176-6.623 55.394-10.965 119.448-16.567 170.565-2.284 20.24-2.563 21.82-1.63 22.38.81.487 2.382-.337 3.006-.667 14.946-5.695 28.543-2.246 35.877 11.227 3.828 19.344-12.984 32.287-30.962 23.283-6.676-3.344-7.62-2.662-4.52 3.77 5.357 11.58 20.78 42.053 20.78 42.053.03.01-19.916 41.815-30.098 53.244-10.23-16.12-23.236-32.4-28.995-50.056 7.725-15.542 22.424-35.6 26.968-50.896-.677-.48-4.735-.015-7.546 1.5-25.945 12.627-30.393-10.556-30.138-18.91.517-16.984 15.266-20.76 36.83-13.087-24.923-153.962-30.855-241.78-24.82-232.335 0 0-28.26-19.73-42.35-33.175l-13.73-1123.126 335.486-3.22c35.215 91.304 27.024 201.664 7.22 259.302 36.383 6.234 73.153 14.4 114.854 37.727-68.862 103.398-177.52 215.532-295.757 287.863-6.715 3.12-29.032-10.457-31.785-24.085-.64-3.165 1.05-9.438 4.62-9.362 8.776 2.74 17.293 6.545 25.87 9.93 0 0-12.225-29.712-6.534-34.308 3.707-2.494 6.74-4.575 9.106-7.127 8.42-11.13 7.598-23.647-1.554-33.163-3.687-3.776-7.966-6.362-10.102-7.3l12.217-34.4-32.904 11.29c-10.862-14.705-30.652-26.02-44.94-3.788-2.706 5.915-2.14 5.004-22.687-3.813-11.646-4.998-18.818-7.546-18.818-7.546 4.488 12.892 10.31 24.98 15.442 39.905-22.593 14.758-17.137 39.164 2.098 46.25l-9.722 33.157s21.424-8.258 33.052-11.5c0 0 10.34 10.165 13.48 19.892 5.387 16.688 17.335 28.697 24.88 35.528-12.343 9.258-18.455 12.398-32.394 19.3l48.593 19.005c-3.12-10.192-9.613-17.712-10.4-30.64-.697-11.074-1.33-11.27-8.577-18.69-11.83-9.976-13.745-23.48-20.446-34.448-4.62-2.72-8.346-8.235-11.838-14.476-7.354.78-23.892 9.23-27.074 6.302-3.905-4.075 6.418-25.296 5.222-27.39-8.498-.632-32.493-18.907-4.4-39.873l-9.41-33.487s21.674 9.186 32.068 14.348c6.81-33.64 39.73-17.9 45.183-3.5 0 0 25.86-8.82 24.33-1.88-.655 6.224-4.697 21.78-4.697 21.78 23.566 20.403 18.85 30.6.04 44.36-.168 10.956 4.62 27.933 4.62 27.933s-13.268-5.717-21.994-8.083c-3.442 3.52-7.324 9.852-6.627 13.083 6.2 26.05 38.476 32.965 86.492 59.128 1.45-16.89 12.836-40.084 13.93-60.346.656-14.774 1.16-15.013 11.604-10.41 27.562 19.443 19.82 73.803 10.1 96.175-5.762 12.67-6.733 12.355-18.247 8.828-15.945-4.885-44.013-2.533-59.41 2.878-21.272 8.99-30.827 56.768-30.898 71.254-.223 13.762 1 27.397 8.4 44.316 3.112 10.842-2.29 19.285-12.13 16.48-2.207-.63-7.467-2.574-7.467-2.574l-91.715 48.74 17.492 10.03s-12.895-7.504-5.002-11.735l78.63-42.15c14.802 5.585 12.84 6.78 22.282-3.28 5.652-5.952 8.458-6.1 16.124-5.45 46.68 3.957 67.257-3.062 75.102-22.692 1.177-2.946.717-2.84 5.453-5.296 8.783-3.527 12.862-9.778 13.225-17.572.238-5.108 2.445-5.83 6.292-9.44 7.18-6.74 8.558-15.108 3.894-23.638-2.195-4.015-3.854-5.27-3.007-9.47 1.42-7.035-1.258-14.315-8.088-21.974-7.862-8.815-7.794-7.31 6.673-21.09 28.41-27.614 53.484-48.79 81.14-73.796 18.915-17.107 16.866-15.876 24.387-8.227 27.69 28.155 38.92 72.41 27.027 111.567-.558 1.84-.82 1.633.594-.007 7.643-8.863 7.372-53.032.538-72.542-8.33-23.977-16.286-36.42-43.223-59.69-16.82-14.854-62.623-57.76-62.623-57.76 65.298-57.91 135.53-129.77 174.625-195.553-20.678-21.687-115.64-40.843-115.64-40.843 11.52-24.594 33.628-134.754-7.664-256.17l340.402.153 12.115.685s1.817-.718 2.784-.982c3.252-.89 4.904 1.39 4.156 5.048-2.402 9.327-15.8 31.254-25.46 29.562-4.31-1.62-3.01 6.62-4.896 10.077 15.16-2.135 32.75-21.567 36.996-40.68 2.4-4.03 3.98-4.724 6.425-3.978 2.815.86 2.143 3.538-.793 12.79-9.25 23.166-28.29 44.81-50.717 42.917l-2.82 7.9c30.225-.824 53.284-29.425 59.954-50.7 4.684-12.656 4.854-14.366 9.716-13.202 4.05 3.665 1.63 9.02.312 13.42-14.656 48.72-56.255 62.16-77.06 60.28-2.507-.285-2.922 2.068-2.12 6.055 44.685 2.45 79.82-36.41 84.484-69.473 2.345-9.194 6.556-12.37 9.05-8.21 1.422 3.68 1.004 7.457.365 10.983-11.625 52.24-66.84 82.445-100.876 74.37-1.586-1.45-4.063 5.78-.34 8.31 68.488-3.346 89.25-38.937 104.533-70.346 18.953 27.9 34.517 56.737 79.377 73.277 0 0 4.564 9.763 1.076 12.002-1.84 1.18-4.673.672-8.782.055-54.547-8.19-71.987 42.9-47.967 118.665 6.577 20.745 3.7 17.59-9.722 30.766-6.396 6.28-9.35 17.32-7.65 17.555 2.3-1.334 3.037-4.907 8.643-9.66 2.44-2.07 7.475-4.074 11.176-6.687 10.006-5.952 9.873-9.948 6.103-23.717-2.803-10.238-9.995-41.388-10.04-44.556-.083-5.983 1.34-5.368 8.887-.1 10.535 7.632 16.454 7.01 3.7-2.773-4.94-3.793-8.155-6.752-9.658-8.892-2.045-2.91-.82-4.82 3.273-3.587 18.826 5.672 34.93 5.066 53.02-6.22 2.64 50.126-3.418 126.3-44.83 181.16-31.832 36.555-93.848 9.85-116.803-1.328zm48.092-115.79c-1.25.07-5.738 1.05-8.502 2.675-12.3 7.224-9.066 32.33 4.48 35.528 5.446 1.286 10.387 1.97 19.47-2.49 5.41-2.655 13-4.77 15.145-3.9 4.507 1.824 5.88-2.156 6.788-6.634 2.03-10.018-14.363-10.074-27.292.4-16.313 13.218-29.14-5.88-13.796-20.536 5.133-3.395 4.96-5.117 3.708-5.046zm-127.248 55.212l14 15.82 9.108 37.974c-5.26.954-11.678-1.902-11.678-1.902-4.502-17.174-8.905-34.366-11.43-51.893zm188.354 7.488c-.14.02-.304.056-.467.13-.58.262-3.142 1.45-6.698 1.887-2.052.25-5.175-1.174-7.387-1.012-6.045.442-11.682 2.287-13.187 2.928-1.854.79-3.68 1.133-5.28.215-4.542-2.61-17.68-1.712-21.65.678-4.7 2.065-10.03 2.15-13.936.186-1.684-.847-3.42-3.013-3.718-2.71-.61.625-3.018 11.43-3.733 15.605.037 1.466-.97 3.92-.36 4.16.774.306 3.228-1.974 6.273-3.57 6.242-3.272 13.264-3.103 25.624-.222 15.255 3.556 21.17 2.4 30.102-2.272 7.11-3.727 11.446-4.65 16.213-3.4 1.176.31 4.313 1.894 4.736 1.48.83-.817-1.522-5.302-3.546-9.742-1.464-3.213-2-4.473-2.986-4.342zm-163.968 19.003c13.504 12.512 12.488 11.438 20.993 17.607l-.273 12.203s-10.332.346-15.42-1.173c-1.654-4.728-8.87-28.474-5.3-28.637zm110.02 6.976c.9.612 2.234 1.252 4.052 1.85 21.368 7.742-.91 5.977-2.947 13.6.007.684.98.78 2.022.357 7.267-2.95 25.084-5.004 33.213-3.525 10.567 3.436 11.2.974 1.016-4.2-7.44-2.835 1.52-4.92 4.515-7.506 6.234-4.11 1.896-5.726-6.056-1.803-7.96 3.927-22.21 4.024-28.747.458-2.892-1.427-5.705-2.755-7.032-2.824-2.723-.08-1.245 2.75-.036 3.593zm-83.6 14.597l12.56 9.596-12.747-1.082zm-279.312 247.73a4.57 4.57 0 0 0-4.512 4.613 4.57 4.57 0 0 0 4.613 4.512 4.57 4.57 0 0 0 4.511-4.613 4.57 4.57 0 0 0-4.613-4.512zm16.673 4.42l-56.812 27.748 15.15 4.886.053 15.625 13.852-4.587 6.055 14.527zm2.674 12.74a4.57 4.57 0 0 0-4.512 4.613 4.57 4.57 0 0 0 4.613 4.512 4.57 4.57 0 0 0 4.512-4.613 4.57 4.57 0 0 0-4.613-4.512zm-72.1 28.55c-2.515.028-4.54 2.067-4.512 4.582a4.57 4.57 0 0 0 4.613 4.512 4.57 4.57 0 0 0 4.511-4.613c-.028-2.515-2.098-4.508-4.612-4.48zm17.648 8.29l-63.785 30.16 19.067 5.565-4.805 19.622 15.41-6.67 8.788 13.037zm2.043 13.995a4.57 4.57 0 0 0-4.511 4.613 4.57 4.57 0 0 0 4.613 4.512c2.515-.028 4.508-2.098 4.48-4.613s-2.067-4.54-4.582-4.512zm-127.173 4.346c24.107-.3 51.247 8.574 60.702 29.11 2.57 10.3-7.504 16.547-29.225 10.85-35.907-9.42-42.6-10.45-36.583-4.43.793.793 2.39 2.74 7.77 4.508 13.534 4.446 39.693 9.472 46.724 8.67 9.605-1.383 16.312 3.02 14 11.064-2.627 9.136-15.075 13-33.885 10.564-19.48-2.524-30.213-4.647-36.7-6.53-8.325-2.417-8.613-2.2-4.617 3.583 2.08 3.01 2.308 5.437 5.348 5.972 12.835-.867 26.538 1.438 38.342 2.418 21.2 1.66 24.57 7.623 9.126 16.962-7.32 4.427-29.374 3.482-41.95-.888-8.988-3.123-29.56-7.5-21.58-1.344 1.918 1.48 1.307 5.17 4.633 6.293 10.87 1.377 41.58 3.186 46.425 7.474 3.12 2.762-3.758 9.94-18.044 13.803-21.518 4.325-53.782 2.978-62.365-2.743-16.123-31.937-8.22-84.587 16.237-105.406 7.81-6.25 21.178-9.748 35.642-9.928zm141.55 15.178c-2.515.028-4.508 2.098-4.48 4.613s2.067 4.51 4.58 4.48 4.54-2.067 4.512-4.582a4.57 4.57 0 0 0-4.613-4.512zm19.096 4.656l-65.83 33.702 16.8 4.787-3.755 19.306 15.443-6.565 9.54 12.855zm.693 16.127a4.57 4.57 0 0 0-4.512 4.613 4.57 4.57 0 0 0 4.613 4.512 4.57 4.57 0 0 0 4.512-4.613 4.57 4.57 0 0 0-4.613-4.512zm38.93 38.445c-29.04 28.893-61.868 51.89-91.78 79.97l6.542-.336 16.302-15.033 463.708-6.604-10.657 15.935 4.58 1.905s13.678-20.715 12.723-21.65l-292.286 4.073c-20.592-19.95-42.32-38.615-63.83-57.545zm-140.753 19.884a4.57 4.57 0 0 0-4.511 4.613 4.57 4.57 0 0 0 4.613 4.512c2.515-.028 4.508-2.098 4.48-4.613s-2.067-4.54-4.582-4.512zm605.437-3.234c40.386 29.284 88.254 65.215 127.88 86.42 15.85 6.677 14.35 9.03-1.595 16.782-15.645 9.968-41.725 22.876-63.47 34.144-9.436 3.686-13.63-.934-20.34.382-4.836 1.3-6.21 2.217-9.058 6.07-4.67 6.318-3.38 6.087-28.725 5.225-25.572-.87-36.103-.183-41.567 2.68-5.253 2.753-14.215 12.06-14.173 15.877.04 3.674-2.794 8.42-8.04 10.06-6.115 1.557-13.135 6.49-12.75 14.017-1.576 5.69-5.017 8.24-8.062 11.38-7.203 7.43-6.412 13.203-4.23 20.004 1.01 3.048 2.485 2.32 1.83 11.37-1.502 20.73-2.948 19 19.38 34.082l-112.115 99.903c-2.6 2.094-3.376 1.897-5.78.28-13.918-10.097-23.716-26.932-29.44-43.82-19.71-52.475 3.162-96.015 33.906-122.846 10.653-9.297 24.98-20.4 28.967-23.194 57.896-50.496 107.947-121.654 147.38-178.82zm-588.456 10.39l-64.38 31.277 20.884 3.28-3.79 18.053 15.034-5.9 8.16 15.1zm4.116 14.238a4.57 4.57 0 0 0-4.512 4.613c.028 2.515 2.098 4.508 4.613 4.48s4.51-2.067 4.48-4.58-2.067-4.54-4.582-4.512zm593.25 13.454l-7.54-17.294s-19.885 50.58-24.02 67.692l67.67-35.5-21.755-3.787 2.234-19.747zm-739.244 11.315a4.57 4.57 0 0 0-4.512 4.613 4.57 4.57 0 0 0 4.613 4.512 4.57 4.57 0 0 0 4.512-4.613 4.57 4.57 0 0 0-4.613-4.512zm19.87 3.937l-69.538 33.125 20.343 4.027-3.346 19.774 18.24-7.348 7.604 19.422zm2.74 14.877a4.57 4.57 0 0 0-4.511 4.613c.028 2.515 2.098 4.508 4.612 4.48s4.54-2.067 4.512-4.582a4.57 4.57 0 0 0-4.613-4.512zm681.532-4.286c-2.515.028-4.54 2.067-4.512 4.582a4.57 4.57 0 0 0 4.613 4.512c2.515-.028 4.508-2.098 4.48-4.613s-2.067-4.51-4.58-4.48zm78.786 3.25l-22.215 63.954 61.643-31.896-16.88-4.41-.088-15.76-13.8 4.185zm-732.44 23.447a4.57 4.57 0 0 0-4.511 4.613 4.57 4.57 0 0 0 4.613 4.512 4.57 4.57 0 0 0 4.512-4.613 4.57 4.57 0 0 0-4.613-4.512zm678.03-6.37c-2.515.028-4.508 2.098-4.48 4.613s2.067 4.51 4.58 4.48 4.54-2.067 4.512-4.582a4.57 4.57 0 0 0-4.613-4.512zm-658.956 11.986l-65.33 32.772 20.44 4.55-2 20.533 16.47-9.596 9.206 18.602zm4.256 13.503c-2.515.028-4.287 2.095-4.26 4.6s2.098 4.508 4.612 4.48 4.51-2.067 4.48-4.58-2.32-4.537-4.834-4.51zm683.112-3.555a4.57 4.57 0 0 0-4.512 4.613c.028 2.515 2.098 4.508 4.613 4.48s4.54-2.067 4.512-4.582a4.57 4.57 0 0 0-4.613-4.512zm-90.282 21.957l-6.294-17.08-23.604 63.154 65.02-30.663-20.792-4.635.185-16.425zm-66.55-12.8c-.748-.032-1.404.183-1.4.672.016 1.453-16.502 17.957-16.502 17.957l-192.875 3.923c.397.024 16.103 4.183 16.103 4.183 25.53 19.936 65.58 55.354 65.58 55.354l47.865-2.44c26.228-26.328 65.855-46.567 83.267-78.92-.438-.43-1.292-.695-2.04-.727zm180.956 10.956a4.57 4.57 0 0 0-4.511 4.613c.028 2.515 2.098 4.508 4.612 4.48s4.51-2.067 4.48-4.58-2.067-4.54-4.582-4.512zm-148.66 23.608c-2.515.028-4.51 2.067-4.48 4.58s2.067 4.54 4.582 4.512a4.57 4.57 0 0 0 4.511-4.613c-.028-2.515-2.098-4.508-4.612-4.48zm97.996 5.497c13.825-.224 27.148.104 30.626 2.696 21.57 17.756 12.375 101.98-14.444 112.9-29.486 6.98-49.918 8.44-75.76-8.196-7.315-3.464-21.872-14.027-19.152-22.908 3.72-10.92 14.3-10.246 44.71-1.153 11.1 3.32 17.174 2.558 19.974.372 2.614-2.04-.863-4.25-6.516-4.21-2.277.017-12.103-2.3-20.304-4.712-11.577-3.42-14.904-4.424-22.367-4.783-12.55-.603-16.2-1.055-16.285-8.726-.16-14.325 19.74-16.442 56.503-8.44 4.396.957 12.353 1.983 14.303 1.904 1.42.523-2.846-4.715-3.588-7.867-1.337-1.114-3.712-1.623-9.958-1.765-23.606-2.05-43.197-3.432-43.655-6.516-2.25-15.14 28.203-19.607 59.966-7.79 8.155 3.033 8.302 1.74 8.212-.622-.165-4.368-13.843-11.846-33.892-11.415-19.502.42-16.89-9.522-.94-17.147 5.452-2.606 18.744-1.397 32.57-1.62zm-75.243 17.09c-2.515.028-4.508 2.098-4.48 4.613s2.067 4.54 4.582 4.512a4.57 4.57 0 0 0 4.511-4.613 4.57 4.57 0 0 0-4.613-4.512zm-69.928 32.252l-4.313-16.95-25.804 66.42 66.648-34.876-22.147-3.906 1.783-13.936zm-33.86 26.93a4.57 4.57 0 0 0-4.511 4.613 4.57 4.57 0 0 0 4.613 4.512c2.515-.028 4.508-2.098 4.48-4.613s-2.067-4.54-4.582-4.512zm66.985 18.016l-5.82-16.003-21.9 57.81 56.91-26.183-16.943-4.424 2.208-17.468zm-45.527.675a4.57 4.57 0 0 0-4.511 4.613 4.57 4.57 0 0 0 4.613 4.512c2.515-.028 4.508-2.098 4.48-4.613s-2.067-4.54-4.582-4.512zm14.886 21.823c-2.515.028-4.54 2.067-4.512 4.582a4.57 4.57 0 0 0 4.613 4.512c2.515-.028 4.508-2.098 4.48-4.613s-2.067-4.51-4.58-4.48zm-28.594 13.796l-18.697 54.733 53.453-26.613-15.762-5s.728-12.27-.746-11.684c-.934.37-11.018 3.306-11.018 3.306zm47.91 5.99c-2.515.028-4.54 2.067-4.512 4.582a4.57 4.57 0 0 0 4.613 4.512 4.57 4.57 0 0 0 4.512-4.613c-.028-2.515-2.098-4.508-4.613-4.48zm-70.96 27.017a4.57 4.57 0 0 0-4.511 4.613 4.57 4.57 0 0 0 4.613 4.512 4.57 4.57 0 0 0 4.512-4.613 4.57 4.57 0 0 0-4.613-4.512zm20.778 20.864c-2.515.028-4.54 2.067-4.512 4.582a4.57 4.57 0 0 0 4.613 4.512 4.57 4.57 0 0 0 4.511-4.613c-.028-2.515-2.098-4.508-4.612-4.48zm-280.672 254.227c-2.46.394-8.92-5.382-10.196-8.114 3.637-.966 7.407-.325 9.468 1.362 1.705 1.582 2.945 5.676.728 6.752zm19.414-4.157c-.793 6.67 3.465 18.668 2.713 21.536-2.1 1.06-12.92-10.29-15.583-13.047-.594-3.8-.057-8.637.134-10.825 3.667-.69 10.184-.52 12.736 2.335zm19.29 3.1c2.443 14.735 9.204 38.393 8.278 46.407-.97-.758-9.304-8.793-15.486-17.345-2.2-5.137-5.73-23.067-5.54-31.67 4.098-.608 9.613-.012 12.748 2.61zm-128.993-.23c-6.536 3.425-13.986 5.922-23.368 5.987-7.526.053-20.53-3.705-19.206-2.76 3.495 6.09 12.408 2.778 12.625 6.775-2.182 3.98-8.133 3.672-11.052 7.494-.6 1.01.897 1.844 5.08 1.356 12.647-5.906 29.256-5.984 44.505-1.16 3.204.633 1.07-2.404-.024-3.203-1.99-1.426-5.267-2.9-8.017-3.208-13.304-2.21-7.486-3.613 1.352-7.68 6.492-2.455 8.065-8.335-1.898-3.6zm28.97 18.434c-1.763.158-6.16 2.453-10.982 4.466-8.14 3.397-15.716 2.707-26.754-.234-9.587-2.555-13.06-1.775-22.52 3.12-6.267 4.116-13.167 5.322-18.2 2.55-6.52-3.612-6.464-2.35-3.152 6.722.827 2.266-.682 9.17 2.158 10.728 2.158 1.184 4.6-2.867 6.243-3.445s12.133 3.984 17.894-1.23c10.338-3.88 13.523 2.19 20.706 1.52 11.625-4.243 18.878-8.614 28.99-.78.564-2.982 2.715-19.255 6.403-23.146-.098-.222-.378-.31-.784-.273zm-20.738 47.016c-8.398.193-12.887 5.402-23.727 4.536-8.655-.5-11.532 7.192-7.806 12.742 2.624 3.91 6.087 4.596 17.816-.94 4.825-2.277 11.51-7.24 15.456-6.89 11.545 1.025 14.457 12.14 4.96 21.665-4.642 2.802-4.653 5.783-3.226 5.822 3.798.103 11.434-4.518 13.12-9.823 4.62-14.53-4.117-27.51-16.592-27.113zm38.417 66.29c-10.9 2.422-26.5 15.14-31.774 23.318-4.92 7.967-9.617 16.964-6.067 21.345 2.91 3.6 6.962 7.067 7.328 9.026.32 1.71-2.005 3.44-4.17 5.917-9.477 10.838-7.186 11.4 6.19 4.284 6.777-3.605 9.932-5.057 14.395-3.946 13.006 3.24 29.124.648 40.057-3.507 4.94-1.877 9.765-4.4 10.153-3.144-19.79 22.268-44.832 16.996-53.766 15.754-1.557-.387-2.758-.28-2.747.25.012 1.073 2.622 3.37 8.158 5.754 9.252 3.983 31.32-.606 45.04-10.844 27.148-18.195 42.034-35.455 20.565-28.074-9.85 3.386-13.56 2.854-25.622-2.434-18.082-7.928-31.895-10.158-46.744-4.794-18.807 6.794-4.5-8.93 16.593-22.654 4.57-2.978 5.107-6.33 2.413-6.25zm-101.326 47.634l-6.295.164c-4.673-15.115-15.554-14.965-20.097.318l-5.264-.314c4.945-18.962 24.363-23.07 31.656-.168zm112.01.01l-4.727.267c-2.97-9.153-13.172-17.123-20.127-2l-3.3-.64c5.555-24.11 28.92-10.992 28.145 2.362zm-31.695-13.465c2.946-.033 3.73 3.305.44 8.777-2.316 3.854-5.12 3.538-7.962.682-2.565-2.51-2.417-2.96.314-5.504 2.91-2.71 5.44-3.936 7.207-3.955zm34.843-.293c1.28-.053 3.726.974 6.468 1.866 7.205 2.344 8.857 4.335 5.948 7.31-2.857 2.922-8.333 3.855-10.882 2.242-.156-3.612-3.764-6.354-3.928-9.98-.001-.973 1.116-1.384 2.395-1.437zm-112.46 1.374c4.975-.283 11.682 2.588 11.227 5.47-.497 3.144-5.384 5.256-9.428 5.64-2.706.383-2.61-.714-3.34-2.633-.653-1.71-1.494-3.894-1.976-5.604-1.153-3.287.975-2.748 3.518-2.872zm-34.026 1.47s-2.696 8.33-3.91 11.172c-10.42-.443-9.487-5.046-4.606-8.42 2.623-2.043 5.3-2.112 8.517-2.752zm-7.865 19.8c1.884.013 4.244 1.617 7.53 2.635 9.256 2.868 24.576 2.362 36.496-.53 5.708-1.385 8.397-3.19 9.663-2.295 2.258 1.596.003 7.274-8.222 10.998-10.722 4.1-27.117 6.426-39.625.22-10.7-5.307-11.945-11.07-5.842-11.03zm-2.712 11.906c9.827 6.335 19.614 8.26 31.67 7.006 18.064-.862 21.258-3.126 6.124 5.107-13.985 7.607-35.7 6.476-39.957-1.556-2.445-4.602-.96-10.133 2.164-10.556zm87.677 9.84c-.065.001-.112.012-.156.033 1.566 9.733 18.035 18.474 25.917 20.495 16.753 7.2 43.173-.406 63.026-9.232 14.497-6.444 19.646-15.984 2.353-10.402-27.824 8.982-62.865 10.026-80.492 3.488-5.738-2.642-9.67-4.435-10.648-4.382zm-91.473 37.53c35.027 7.495 77.856 60.9 77.962 84.47l-11.286.125c-17.844-59.74-62.6-72.216-67.003-75.746-2.08-7.33.408-9.03.326-8.85zm-.385 15.185c41.725 17.726 56.853 50.014 63.3 69.453l-12.14.135c-9.342-26.74-25.814-45.705-51.108-57.342-1.748-3.718-.042-12.245-.042-12.245zm.142 18.37c21.35 6.038 40.422 33.84 45.947 51.274l-10.625.055c-7.746-19.436-18.555-31.837-35.6-38.857-.742-3.67-.646-7.83.268-12.472zm-.132 19.034c10.013 1.9 27.103 17.24 29.706 32.422l-9.75.108c-3.553-10.213-14.285-19.462-19.776-23.22l-.18-9.31zm1.208 16.225c1.064-.682 16.13 12.585 13.655 16.362l-13.437.15c-.2-4.173-.434-16.552-.218-16.51z" fill="#131f67"/>
        <path d="M-996.993-545.77c-24.78 49.33-152.264 271.68-153.497 279.382l33.442 14.348 158.315-293.03-38.26-.7zM-613.5-365.516l-14.857 21.385 13.1 23.137 12.775-23.175zm-591.083 228.232s-46.08 46.81-64.05 68.603c39.576 38.617 114.93 86.822 116.32 162.27l51.582-.376 168.615 147.475 154-1.263c3.037-.74 55.9-78.232 55.9-78.232l96.58 68.784-9.562-121.23c-1.528-30.818-2.757-49.77 19.626-63.665-31.13-14.417-29.472-41.572-6.923-61.752-7.63-10.3-18.875-12.096-20.972-48.9-4.796-5.03-9.317-7.96-15.293-12.206l-6.126 5.6c-19.68 18.067-33.023 36.422-35.122 48.3-3.995 22.606 19.084 37.803 32.143 21.176 3.68-4.686 7.024-3.422 7.092 2.64.137 12.3-15.26 19.418-28.418 13.16-3.075-1.462-5.786-2.427-6.055-2.152-.47.48 13.36 33.3 17.076 40.532 6.184 12.03 9.488 24.147 10.097 36.86.65 13.574.397 15.315-5.694 38.847-5.738 22.17-2.774 35.283 7.922 35.164 6.022-.067 5.897 5.72-.162 7.91-12.88 4.65-21.005-4.788-21.687-25.136-.414-12.366-.63-12.668-6.95-9.61-21.993 10.637-46.21-7.672-36.023-27.227 2.14-4.108 4.737-2.85 6.158 2.963 2.666 10.906 8.448 15.665 18.798 15.51 23.86-.354 33.478-34.177 19.34-67.97-2.838-6.782-4.225-6.38-7.757 2.274-5.54 13.575-15.033 17.658-22.985 9.88-2.666-2.607-3.99-6.87-2.204-7.1.412-.053 3.036-.195 5.81-.315 13.896-.6 18.547-14.14 11.807-34.352-5.923-17.76-6.84-20.98-8.653-30.625-2.798-14.9-1.088-26.253 6.14-40.82 1.277-2.573 9.328-11.773 19.35-22.122 10.23-10.566 19.044-18.68 19.044-18.68s-5.284-4.454-12.44-9.706l-17.74-12.97s-68.88 195.87-63.004 271.82c-7.903 100.242-81.832 73.355-88.02 4.06zm-2.845 29.283c24.278-.673 40.643 31.26 50.526 97.79 3.275 22.046 17.075 52.818 26.918 60.017 24.837 18.166 63.23 3.528 62.956-24.013-.343-34.286-48.537-38.833-48.898-4.614-.085 8.065-4.22 8.53-8.272.904-3.614-6.804-.57-19.63 6.24-26.165 4.364-4.19 4.01-4.965-4.45-9.514-29.465-15.84-42.2-39.8-26.653-50.238 6.795-4.56 16.21 1.005 11.986 7.086-6.604 9.502-6.672 10.996-.98 18.762 6.47 8.827 14.073 13.184 32.05 18.27 15.092 4.27 17.575 5.075 24.56 8.165 20.444 9.044 29.96 29.35 23.08 49.247l-3.51 10.3c-.705 2.182.5 2.182 14.783.117 22.747-3.286 48.146 4.57 60.775 18.795 6.788 7.646 12.357 24.942 12.688 39.424.064 2.788.992 9.078 2.093 13.978s2.58 13.185 3.267 18.402c6.51 49.5 48.06 74.394 65.502 39.244 10.977-22.12-15.217-43.834-28.2-23.376-4.56 7.186-9.38 3.958-6.8-4.55 5.01-16.533 25.554-19.564 39.72-5.848 7.66 7.417 11.48 24.39 7.923 35.227-1.867 5.687-1.66 6.044 2.52 4.535 9.38-3.387 25.69-.408 31.597 5.775 13.922 14.568 11.36 32.272-5.514 38.19-7.674 2.665-16.427.08-19.38-8.9-1.324-6.418 3.082-8.318 6.563-2.823 6.52 10.292 20.376 1.784 16.948-10.408-3.9-13.87-15.825-16.692-37.695-8.895-34.765 12.396-46.042 11.52-62.933-4.895-12.06-11.717-16.658-21.905-20.12-44.467-3.824-24.912-4.17-25.555-10.288-20.23-29.255 25.455-68.69-12.084-43.948-37.327 7.65-7.82 13.42-1.145 6.553 7.584-10.024 12.743 3.422 30.186 19.976 25.905 30.145-7.795 23.483-51.96-9.344-61.93-10.007-3.04-37.385-1.43-58.403 3.43-58.7 13.567-84.96-11.256-97.97-92.48-1.52-9.5-3.253-16.497-9.066-36.902-6.897-24.207-29.583-37.137-41.735-23.788-9.7 10.643-4.375 24.766 9.274 24.65 13.607-.117 9.54 9.26-4.632 10.677-24.593 2.46-29.33-38.467-5.842-50.47 5.734-2.93 11.098-4.477 16.137-4.617zm-321.105 18.692l7.956 29.074 30.515 8.256-9.953-27.64zm78.135 7.838l-7.876 26.477 22.998-5.912 7.216-27.604zm250.714 40.42a8.75 8.75 0 1 1 .194 17.499c-4.832.054-8.792-3.82-8.847-8.652a8.75 8.75 0 0 1 8.652-8.847zm-293.07 19l-23.896 8.66-4.384 20.97 25.032-6.747zm57.297 5.976l-19.63-3.162 5.748 21.536 20.847 8.25zm850.68-11.1l-12.493 9.944c37.09 31.52-2.22 62.73-3.476 60.66 26.75 17.282 22.328 45.06 19.165 70.48-5.783 45.354-7.757 88.214-14.1 134.696 0 0 32.24 21.722 53.617 30.03.402.046-2.897-272.294-2.897-272.294zm-452.856 46.046a8.75 8.75 0 1 1 .194 17.499c-4.832.054-8.792-3.82-8.847-8.652a8.75 8.75 0 0 1 8.652-8.847zm-536.853 28.356l3.918 254.122 51.562-94.65-36.657-41.35 30.913-33.75zm512.66 33.04a8.75 8.75 0 1 1 .194 17.499c-4.832.054-8.792-3.82-8.847-8.652a8.75 8.75 0 0 1 8.652-8.847zm119.72 24.672c4.832-.054 8.792 3.82 8.847 8.652a8.75 8.75 0 1 1-17.499.194 8.75 8.75 0 0 1 8.652-8.847zm345.244 279.308l39.082 39.23-29.766 37.917 48.42 80.116-3.536-249.507zm-975.172-72.646l4.87 273.315 41.653 29.682 10.368-10.01c-26.98-28.178-11.29-49.537 8.677-62.016-35.552-7.863-25.31-55.013-23.435-76.83-1.316-40.452 13-86.786 8.003-125.637zm238.394 35.35l-58.304 83.166s-65.62-48.566-98.676-70.438l12.4 119.203c11.262 55.802-16.43 57.075-16.625 62.432 44.402 32.924 7.793 64.583 1.15 63.087 23.6 12.507 22.09 51.316 22.09 51.316l11.2 6.166s3.596-2.245 5.122-3.088c11.82-6.53 30.953-29.55 35.225-44.644 7.245-25.595-15.146-46.542-28.864-26.994-6.74 9.603-12.293 3.292-6.805-7.737 5.008-10.067 18.32-15.24 27.26-10.585 5.198 2.708 3.962-4.454-4.24-24.454-2.752-6.7-5-14.037-8.946-28.902-3.807-14.38-2.582-31.78 3.544-49.542 8.832-25.61 5.42-41.572-9.195-42.807-7.798-.66-8.668-3.088-2.356-6.756 14.092-8.19 27.97 3.093 27.626 22.476-.186 10.483-.068 10.657 5.437 8.378 27.856-11.535 50.29 17.256 30.975 39.752-5.906 6.875-9.718 2.597-5.886-6.59 5.923-14.198.02-24.206-14.206-24.156-20.642.073-31.75 28.713-23.273 59.98 2.646 9.76 3.038 9.878 9.818 3.266 6.018-5.87 10.545-7.778 15.273-6.42 9.803 2.814 12.48 13.18 3.102 11.998-16.115-2.034-20.156 14.868-10.723 44.747 12.517 39.642.653 72.2-34.815 95.642-1.794 1.186-4.65 3.458-4.65 3.458 13.917 12.125 22.808 19.002 41.14 29.89l62.094-263.413s-1.262-14.906-2.94-21.918c-.835-70.51 64.877-77.993 86.18-14.2 2.045 6.126 12.683 21.706 12.683 21.706L-905.974 721.1s63.255-62.5 62.36-64.127c-49.12-48.42-115.108-82.304-118.36-159.96-11.644-.206-50.553.944-50.553.944L-1180.76 347.06c-52.262.914-98.66-2.3-152.883-.104zm93.38 4.687c9.143-.39 18.423 4.26 18.508 11.89.073 6.582-4.32 8.137-8.032 2.84-5.187-7.406-11.12-7.935-17.08-1.53-16.52 17.756 9.63 33.526 39.39 23.752 18.225-5.986 27.064-7.644 33.775-6.375 28.278 5.347 42.115 24.233 44.933 61.286 1.433 18.84 1.397 18.77 9.47 11.208 19.647-18.408 48.442-8.604 53.205 18.13 2.045 11.473-10.168 26.083-21.93 26.214-4.612.05-3.934-4.772 1.014-7.2 11.9-5.837 12.16-24.704.458-31.945-15.535-9.612-35.69 5.873-35.202 27.05.585 25.455 19.73 36.97 57.26 34.398l30.638-1.778c17.93-.963 37.17-4.557 55.604 9.04 19.31 15.01 32.352 45.132 38.27 88.8 9.156 53.725 15.93 68.073 34.02 69.165 10.73.648 19.718-8.586 19.6-19.195-.084-7.48-10.052-13.962-17.534-11.4-9.035 3.093-10.975-6.7-2.086-10.54 12.315-5.307 27.533 4.487 31.068 20 2.06 9.042-7.975 26.54-18.655 30.998-27.86 11.626-48.015-11.27-55.142-62.93-4.283-23.68-6.668-39.65-14.3-59.845-13.992-37.17-36.472-52.325-60.645-40.892-27.373 12.947-21.456 54.076 7.688 53.45 16.027 1.09 19.25-10.714 19.442-23.316.272-9.296 10.902-.7 11.874 5.696.95 7.75-5.9 17.428-11.99 22.038-9.85 6.752-6.324 6.297 3.854 8.856 27.338 4.723 48.017 40.602 31.84 53.043-8.418 5.263-17.508-2.245-11.713-9.782 9.21-11.98-6.8-30.57-35.66-36.557-37.788-7.84-53.11-35.73-39.833-64.718 4.392-9.6 4.786-9.373-13.59-8.13-40.432 2.733-54.86-2.7-68.7-25.99-4.176-7.028-6.09-16.474-7.173-35.266-1.936-33.645-5.236-54.45-9.545-60.273-21.33-28.823-64.937-19.643-59.116 12.438 3.058 16.846 20.556 22.064 32.328 9.642 8.89-9.382 13.18-.804 4.507 9.013-20.865 23.617-57.932-3.27-47.353-34.35 2.422-7.114 2.76-6.89-10.8-7.13-30.16-.534-44.792-26.172-25.56-44.75 3.368-3.253 8.092-4.846 12.882-5.05zm73.975 109.936a8.75 8.75 0 1 1 .194 17.499 8.75 8.75 0 1 1-.194-17.499zm121.556 29.715a8.75 8.75 0 1 1 .194 17.499 8.75 8.75 0 1 1-.194-17.499zm-25.396 57.38a8.75 8.75 0 1 1 .194 17.499c-4.832.054-8.793-3.82-8.847-8.652a8.75 8.75 0 0 1 8.652-8.847zm385.576 29.752l5.832 25.817 20.14 5.062-3.38-22.14zm70.346 8.178l-.264 15.35 17.886 1.903 6.025-26.525zm-299.634 26.495c4.832-.054 8.793 3.82 8.847 8.652a8.75 8.75 0 1 1-17.499.194 8.75 8.75 0 0 1 8.652-8.847zm256.93 32.797l-20.934 6.06-9.765 29.27 26.774-10.03zm41.103 2.17l2.81 21.577 26 11.404-9.09-30.7zm-379.26 188.4l-157.377 292.122 43.88-1.098 148.542-275.452zm-504.33 75.894l-13.975 19.25 13.714 22.005 15.22-22.42z" fill="#d40000"/>
        <path d="M-1691.258-640.638c-19.78.308-39.484 13.842-44.78 39.812-1.182 5.8-1.557 15.805-1.67 43.802l-.608 38.134-17.785-.24 1.194 23.082 18.97-.054c-.1.11-.397 1.362.347 14.403 1.857 32.502 7.06 43.997 25.585 52.532 12.528 5.772 35.565 5.483 45.91-2.822 6.268-4.073 6.9-4.048 14.444.496 16.046 9.666 29.11 4.177 29.11 4.177l-.7-23.62c-25.117-.105-28.522-6.015-22.125-22.412.448-1.146.486-3.277.65-6.07 1.56-26.323-.17-114.974-3.206-125.503-6.84-23.733-26.756-36.007-45.337-35.718zm-1.898 23.273c9.035-.052 18.32 5.95 22.63 17.28 4.56 11.985 4.49 10.94 6.6 85.026 1.04 36.47-.492 36.34-.492 36.34-14.214-18.4-32.076-31.882-51.542-38.1 0 0 .383 1.717-.38-34.23-.788-37.122-.428-45.113 4.996-54.862 4.297-7.723 11.158-11.412 18.187-11.453zm450.46 67.056c30.567 89.326 34.295 177.648 9.575 262.826 14.628.58 78.598 16.23 113.95 37.5-6.313 16.783-104.495 140.306-171.452 196.237 19.416 18.805 40.765 37.587 63.214 58.302 33.953 31.506 46.063 53.327 48.742 94.683-.08 19.984-6.967 44.72-19.497 62.314-9.473 13.302-19.57 23.558-39.9 37.352-18.757 12.725-46.075 39.962-80.366 80.053-13.07 15.288-35.11 43.1-53.324 69.596-6.897 9.634-27.182 39.687-27.182 39.687-69.397-55.357-143.526-97.828-145.408-97.475l89.403-48.67c12.094 7.57 28.324.8 20.31-16.068-15.47-38.418-5.42-78.25 12.742-106.182 4.348-6.73 14.962-10.746 32.18-12.14 7.476-.57 15.385-.416 23.307-.603 2.858-.032 10.57.984 14.818 3.242 14.132 7.514 16.838-2.38 25.23-35.69 8.35-33.138-6.14-74.77-26.143-74.683-4.7.02-7.32 1.783-6.223 13.53.83 8.867-1.254 13.5-3.478 19.112-4.852 12.266-7.37 24.247-8.778 40.194 2.927.56-18.807-21.176-52.764-29.5-22.032-2.36-33.51-29.634-32.582-29.703 0 0 3.213-7.457 6.073-10.38 7.556 3.512 14.986 7.655 23.927 10.172 0 0-2.175-10.984-3-13.936-4.257-15.26-4.064-17.592 1.8-20.834 14.537-8.038 15.923-22.143 4.364-34.832-2.92-3.246-5.372-5.32-9.265-6.93l6.9-28.828s-6.597 1.497-11.872 3.163c-15.252 4.82-14.11 4.963-20.715-2.395-14.378-16.014-36.028-12.7-39.06 5.997-.335 2.066-1.253 5.358-1.253 5.358l-32.82-15.478c1.038 7.645 9.805 33.484 9.805 33.484-28.315 22.502-3.96 41.882 3.855 43.87l-8.633 30.156 32.11-9.564c2.775 6.106 6.163 10.73 12.9 14.952 1.95 18.102 16.075 32.558 25.795 41.242-.001-.001 1.46 6.613.67 10.86-1.96 10.56 8.933 27.125 10.758 28.102-44.4-17.593-90.733-38.78-135.46-59.595l8.852 546.78s10.46 9.165 31.17 23.655c9.95 6.96 9.946 6.99 7.98 15.162-2.6 10.776-1.83 18.97 8.12 89.603l16.106 110.828c2.018 12.652 2.37 20.78 2.37 20.78-9.87-4.44-24.175-4.74-31.476 3.64-12.6 14.665-2.127 37.932 16.758 37.222 4.3-.3 7.2-1.588 10.86-4.152 2.546-1.4 5.197-.232 5.197-.232l-27.64 49.844 33.058 54.276 31.724-58.79-24.055-45.96s2.293-.283 5.503 1.284c3.18 1.554 7.45 2.716 10.407 2.853 16.426-.057 19.714-7.583 21.3-21.08-.193-17.348-14.09-25.04-33.018-18.29-2.97 1.06-6.266 1.382-6.266 1.382l17.82-190.928 10.774 7.725 3.48-1.945-9.432-7.864c1.687-30.58-8.512-41.292-19.48-48.566 36.18-21.114 20.036-53.68-4.287-63.49 0 0 15.63-9.364 18.675-19.045 2.588-8.65 1.434-22.308-1.88-46.52-2.69-37.356-11.584-114.503-11.584-114.503l96.002 72.845 60.61-86.24 148.377-.616 171.237 152.702 49.002-.107s.597 5.233 1.128 8.707c5.206 50.502 39.502 84.843 70.65 108.847 12.71 11.165 44.14 40.512 44.14 40.512l-57.007 58.762-356.542-311.405s-1.74-4.582-2.457-7.38c-8.524-33.306-30.807-47.047-50.903-44.47-21.086 2.705-38.864 23.7-37.565 59.077.2 5.473 2.293 15.1 2.293 15.1l-61.513 269.356s-26-19.402-40.04-28.714l-3.043 1.815 38.063 27.954 2.8-1.25 10.81 8.255.876 5.71c33.273 22.1 89.74 63.414 89.74 63.414 26.217-19.937 54.08-13.68 81.994-6.598 0 0 20.3 6.54 31.073 6.374 54.704.622 103.257 10.708 154.295 28.508l-181.654 330.537 352.986-3.2c-18.163-68.56-37.423-138.19-5.684-255.828-34.89-6.64-112.634-36.752-112.634-36.752s-.387-1.756 2.842-5.813c14.08-20.62 49.648-76.483 83.202-108.93 4.097-3 62.563-61.01 63.12-62.83.312-1.02 1.688-4.906 3.99-6.45 5.407-3.7 19.736-17.547 19.736-17.547l-74.677-63.317s-3.254-.278-4.313-.855c-10.4-5.66-29.39-37.672-34.222-59.2-11.112-49.498 7.954-88.944 62.53-129.827 53.314-37.383 153.598-181.302 153.9-184.47 55.435 44.864 98.58 67.934 147.24 97.224-29.008 17.07-52.688 28.534-72.995 39.835-13.173 7.71-14.977 9.308-26.213 6.26-12.7.244-16.974 5.184-13.635 16.1 19.546 30.14 12.085 100.898-13.737 114.806-22.414 12.073-44.37 9.115-62.558 2.6-14.03-4.323-13.847-4.372-19.94 8.378-13.39 29.357-13.997 53.963-1.03 81.83 10.635 22.37 26.183 32.448 27.748 2.112.92-17.814 8.532-38.704 8.073-57.825 15.938 17.208 26.465 25.036 52.388 31.827 17.363 2.504 36.015 24.042 35.542 32.912-4.707 4.858-6.086 11.014-6.862 10.586-8.473-2.663-26.84-10.235-26.84-10.235l8.086 27.412s-1.27 1.26-4.996 3.212c-17.108 8.97-15.734 32.687 2.435 41.976 3.7 1.892 3.972 2.797 2.463 7.88-2.12 11.302-6.97 18.93-9.5 30.14 0 0 2.46.063 22.956-9.693l8.052-3.84 4.933 5.164c10.8 11.29 23.62 11.08 34.683-.573l5.066-5.338 14.392 7.09c13.562 6.686 17.122 8.06 17.122 8.06l-9.59-33.52c-.8-1.856-2.41-3.73-3.578-4.148-1.93-.69-1.63-1.145 3.442-5.257 12.858-10.424 14.002-24.625 2.827-35.284-4.26-4.064-4.805-4.916-4.805-4.916l6.408-28.042-27.757 9.538c-4.5-9.303-11.534-13.48-15.966-15.336-.612-12.614-2.34-25.57-24.246-45.057 7.232-6.756-1.635-22.744-8.9-32.3 12.246 3.96 42.9 16.528 42.9 16.528l4.604-.238 14.645 6.822 1.737 2.57 67.224 31.004c-.066-1.13-.483-23.765-3.312-272.95l-3.11-271.545c-.31-.78-5.385-4.587-10.657-8.476-9.728-7.175-11.72-8.574-24.06-16.61-9.903-6.448-9.24-6.403-7.28-13.983 2.25-8.706 2.066-20.64-1.3-42.957l-24.288-166.553c-1.76-13.3-.095-19.105-.388-19.296 46.243 19.42 49.142-46.72 3.105-37.282 8.63-17.9 15.973-26.245 23.326-45.345-9.85-20.61-31.54-55.4-31.54-55.4l-33.065 59.09 20.294 40.402c-22.872-3.86-34.8 12.892-30.413 27.746 4.737 13.128 17.413 16.683 28.502 11.247 8.55-3.48 8.53-4.34 1.637 60.142L-638.267-81.48c-.826 8.9-1.373 11.387-5.02 9.463-4.937-2.058-7.78-5.11-12.75-8.296l-2.72 2.593c4.42 3.502 9.66 8.04 15.015 12.855-.953 23.596-.32 37.252 19.437 48.542-35.334 22.7-14.15 56.78 6.804 61.508-12.42 3.355-24.524 19.515-21.195 51.32l11.55 131.1-97.258-70.55-55.722 81.655-149.176 1.844-169.957-149.966-52.038-.297c1.708-.818-3.698-46.9-28.385-76.752-26.82-31.177-87.648-82.453-87.608-82.47l62.564-64.95 358.8 315.818 2.768 12.876c12.437 50.35 69.906 52.773 81.55 1.22 1.88-8.33 4.045-27.685 3.136-29.974-.292-.737 1.4-9.187 3.76-18.793l51.806-212.026 5.82-24.566c2.933-14.626 2.473-14.528 17.872-3.2 9.43 6.937 13.324 9.415 13.324 9.415l2.934-3.127c-10.577-8-28.67-20.745-28.67-20.745l.127-5.502c-58.14-40.665-70.143-51.498-104.593-78.187-26.204 23.598-64.156 14.58-87.963 6.602-6.137-2.335-21.194-6.078-21.194-6.078-59.074.732-111.1-10.095-160.294-25.566l185.252-338.64-72.994.815-2.518 2.89-37.98.422-.158-2.858zM-533.45 548.8c.012.207.03 0 .03 0zm-493.737-1093.9l25.848.213-149.9 274.556-16.32-6.163s1.48-.798 1.332-12.297c-.16-12.342-2.886-17.587-8.526-24.813-4.725-6.256-6.713-6.582 6.946-4.86 27.928 3.523 47.405-27.013 36.066-50.56-4.375-9.084-3.78-9.645 7.504-10.896 31.065-3.445 42.725-43.034 20.495-62.45-4.595-4.067-2.594-6.71 5.914-4.972 26.972 5.507 47.482-24.56 36.534-47.815-3.553-6.482-.435-7.6 4.47-8.3 22.975-5.657 30.612-23.834 29.633-41.644zm-206.112 2.32l119.712-1.298c-15.835 24.816 12.768 39.088 16.353 37.32-25.652 14.382-18.347 34.17-4.884 40.85 13.06 6.478 32.475.302 26.962-28.312l6.375-2.852c6.306 6.974 12.97 50.56-34.596 45.012-8.47-.988-12.968 6.96-5.844 11.253 38.012 42.737-20.53 62.456-23.168 55.323l-.277-7.3c15.92 2.748 36.026-17.955 17.996-35.957-10.25-10.235-39.595-4.865-34.214 26.48-17.654-25.746-36.524-17.7-41.48-3.95-3.843 10.67 1.357 25.157 18.705 27.437-19.163 16.42-9.568 34.396 3.772 38.24 14.727 4.244 29.65-1.903 25.305-28.52.202-2.53 5.336-1.762 5.76-1.908 15.596 37.7-20.524 52.014-40.197 44.418-7.287-2.743-10.96 8.486-3.187 14.1 11.792 8.516 8.456 33.443 7.1 33.707-21.84-8.008-53.072-13.763-51.903-13.312 19.87-82.413 17.595-165.964-8.278-250.726zm190.864-2.088l10.812-.09c.315 15.476-6.196 34.603-32.582 37.833.072-4.15-.272-8.08-1.388-12.454 9.882-2.354 23.06.25 23.158-25.3zm47.225.32l34.53-.227-159.257 290.16-26.115-13.055zm-84.94 22.82c6.102-.068 11.117 4.806 11.184 10.908s-4.837 11.117-10.94 11.185-11.086-4.838-11.153-10.94a11.02 11.02 0 0 1 10.908-11.153zm-338.6 8.822c-25.28 67.716-74.874 109.128-110.538 177.363-37.265 69.38-19.195 128.577 34.64 139 28.384 5.495 61.173-22.45 65.078-52.476.932-7.166 2.16-9.212 5.523-9.25 4.92-.055 4.5 12.438 1.576 29.39-6.99 44.95-22.09 72.416-33.636 89.285l93.267-1.817c-19.206-22.572-34.093-53.122-37.638-91.025-2.52-20.6-.934-29.682 5.71-26.22 2.185 1.138 2.76 3.182 3.84 13.833 3.792 36.945 42.75 56.673 73.856 40.058 42.934-23.334 41.293-66.047 31.018-97.07-30.756-81.14-97.268-134-132.695-211.07zm-284.765 28.69c11.316 9.372 22.544 19.982 30.297 29.404-10.656 7.808-21.95 8.4-28.926 4.647-7.848-4.222-11.34-14.18-12.265-30.98-.514-9.32 2.77-9.787 10.894-3.07zm14.462 89.007c.318-.083-16.5 35.308-28.898 54.387-8.816 16.74-30.694 45.983-24.484 69.12 7.147 24.056 32.993 29.92 46.502 11.203 6.333-8.775 7.72-7.753 7.647 1.978.05 18.603-9.7 29.284-16.824 38.502l47.126-.18c-10.12-11.887-19.21-21.753-20.423-38.026-.04-6.13 1.73-10.605 6.112-4.037 4.907 4.678 9.135 13.336 22.37 10.752 13.727-2.607 25.53-20.594 22.58-37.878-3.918-20.074-16.7-39.704-29.535-56.52-10.705-14.034-32.56-48.6-32.174-49.302zm541.064-.007c5.648-.063 10.27 4.456 10.332 10.105s-4.456 10.3-10.104 10.363-10.27-4.488-10.332-10.136 4.456-10.27 10.105-10.332zm534.9 2.218l28.03 47.567-30.756 55.907-26.777-52.956zm-.32 16.317l-18.988 32.15 17.925 32.522 19.622-31.314zm.527 13.682l10.214 19.2-11.938 19.727-10.323-20.605zm-25.934 65.167c2.08-.017 4.308.4 6.61 1.333 18.6 7.534 13.02 35.76-6.777 34.234-2.614-.244-6.062-1.534-8.567-3.186-13.845-11.1-5.82-32.26 8.735-32.38zm45.284.03c16.204.113 26.216 22.543 9.276 33.274-8.18 4.673-20.513 2.03-25.444-6.062-4.23-6.944-2.566-18.616 6.663-24.763 3.295-1.727 6.503-2.47 9.505-2.45zm-22.142 32.404c1.618.118 3.468 7.963 5.24 21.6l3.805 27.46 8.136 62.914c.49 4.12 1.704 12.882 2.685 19.47 10.127 68.022 12.493 89.758 10.343 95.58-5.687 20.38-33.4 22.24-45.104 10.564-8.853-8.823-10.25-18.607-7.085-44.174 1.827-14.763 2.564-22.188 7.784-78.59l3.973-39.047c2.074-22.07 4.584-42.756 7.347-64.523.778-7.784 1.767-11.332 2.875-11.25zm-453.44 55.662s89.114 28.277 156.644 26.2c9.916-.118 11.525-.222 23.917 3.672 7.348 2.31 18.904 5.422 25.672 6.903 20.87 3.803 39.162 2.46 55.3-4.333 2.536-1.067 6.242-4.24 10.028-3.143 2.31.67 5.715 5.218 5.715 5.218-58.97 16.36-197.365 15-283.9-20.35zm456.263 4.247c-.367.065-.748.574-1.174 1.263-1.42 2.3-.06 17.28 5.846 64.908 11.28 90.98 11.26 92.928-1.08 102.643-6.065 4.775-6.993 6.678-4.032 8.358 2.203 1.25 2.025 1.247 6.47-.04 10.438-3.024 14.68-11.382 14.405-28.35-.21-12.934-.378-14.492-4.764-46.23l-4.633-34.45c-7.37-56.672-9.054-68.454-11.038-68.1zm-464.99 14.694c88.744 30.67 181.2 38.6 292.337 20.287l16.208 10.164-3.74.917 1.858 15.355 18.87-3.24s10.316 8.018 17.988 12.926c-98.928 31.41-259.302 27.967-358.687-14.894-3.787-2.128-6.012-3.84-6.012-3.84 2.075-5.265 4.62-8.408 7.218-11.362l18.12 4.955 5.036-16.526-13.867-4.878zm23.374 19.46l-5.6 16.282 25.332 7.22 4.128-16.61zm38.734 9.602l-3.138 18.505 25.394 4.406 2.957-18.003zm42.03 8.2l-1.802 17.834 26.905 2.545 1.456-18.05zm184.7-1.77l-22.846 2.754 1.612 15.67 23.093-2.975zm-40.29 4.98l-22.67 1.752.964 16.428 22.795-1.69zm-102.21 1.48l.163 17.468 23.258.617.083-17.846zm63.958 1.478l-21.435.332.09 16.625 21.656-.147zm-248.515 5.697c2.3-.094 7.653 4.995 9.9 10.734 4.422 11.287 2.6 23.875-4.094 28.1-9.1 5.764-19.963-2.984-13.75-11.067 1.1-1.43 2.877-2.873 3.964-3.232 4.694-1.547 5.71-8.977 3.008-21.785-.4-1.894.066-2.724.97-2.76zm34.327 3.963c96.028 30.26 204.715 39.578 316.316 15.427L-817.164 94.89zm-46.896 1.177c5.036-.056 6.046 8.483 1.55 13.077-5.737 5.866-16.857 1.334-14.63-5.963.647-2.12 9.752-7.077 13.078-7.114zm27.554 4.726c1.043-.088 3.04 1.962 6.225 6.15 10.91 14.35 11.93 30.504 2.39 37.976-11.184 8.76-19.578-4.548-10.307-16.355 2.4-3.058 2.697-8.662 1.1-21.045-.566-4.4-.46-6.637.582-6.726zm371.066 1.1c1.234-.054 3.435.876 7.846 2.976 6.895 3.283 9.33 8.17 6.073 12.183-4.733 5.833-18.007-5.468-15.617-13.296.363-1.19.74-1.82 1.698-1.863zm-10.228 7.645c1.72.152 4.505 3.27 7.764 9.633 2.093 4.087 3.295 5.25 6.76 6.457 8.214 2.863 9.826 11.32 2.655 13.91-7.787 2.812-13.673-2.742-17.402-16.433-2.46-9.03-1.99-13.76.224-13.566zm-342.193 9.862c1.186-.085 3.488 2.55 7.15 7.827 10.87 15.664 7.52 46.003-5.878 53.225-5.906 3.183-10.05 2.565-14.868-2.148-7.043-6.888-5.4-12.417 4.913-16.337 8.77-3.337 11.506-13.39 8.587-31.597-1.167-7.275-1.247-10.874.097-10.97zm51 4.434c65.94 53.156 125.57 110.267 202.35 176.858 17.44-55.753 42.482-171.382 42.565-171.764-2.848 2.402-127.496 21.5-244.915-5.094zm244.915 5.094c.06-.05.078-.1.03-.125l-.03.125zm40.444-8.106c1.088-.012 4.327 8.058 6.203 15.432 1.7 6.68 8.295 17.83 10.797 18.225 12.9 2.036 18.463 9.154 12.174 15.585-4.62 4.722-14.76 2.188-19.712-4.906-9.308-13.332-15.905-44.264-9.462-44.335zm-728.997 15.532c7.77-.023 15.292 4.792 17.29 14.87 2.326 11.73-4.224 20.35-9.86 19.043-6.134-2.216-8.32-11.87-8.32-11.87s-1.366 7.907-3.828 11.917c-5.386 8.422-17.044-3.865-15.115-15.927 1.883-11.778 11.025-18.007 19.832-18.034zm465.1-2.07c71.277 9.9 132.53 11.993 217.315 1.838L-830.935 59.26zm-53.744.847c1.055.057 3.24 1.926 6.655 5.458 11.188 11.57 14.56 27.758 7.46 35.888-4.32 4.948-7.258 5.546-11.943 2.414-5.984-4-6.498-10.112-1.082-12.99 4.98-2.646 5.37-8.34 1.288-19.078-3.043-8.007-3.922-11.777-2.38-11.693zm-464.177 9.154l26.118 10.492 9.556 21.864-26-6.4zm98.34 1.815l-7.475 21.96-19.916 7.7 7.518-23.74zm678.228-2.936c.962-.025 2.42 2.726 4.22 8.422 4.45 14.1 6.3 17.657 10.248 19.48 6.415 2.972 6.965 10.706.963 13.52-3.81 1.787-5.07 1.442-7.836-2.1-4.307-5.518-7.842-16.135-8.567-25.688-.68-8.955-.263-13.604.974-13.637zm-289.3 13.088c.753-.06 1.874 1.033 3.533 2.96 10.234 11.892 11.538 30.296 2.555 35.91-8.7 5.438-21.073-5.446-13.508-11.882.68-.58 2.25-1.875 3.5-2.852 2.11-1.646 2.28-2.594 2.356-13.027.056-7.747.3-11 1.564-11.112zm76.75.427L-838.17 35.8l27.333-112.2c-49.1 4.96-100.486 4.218-153.052.48zm-305.69 9.084c39.784 41.084 91.606 74.077 104.286 115.224 22.535 56.59 7.205 122.702-43.653 160.995-28.066 21.732-55.556 44.584-78.33 72.062-37.417 40.728-62.198 85.053-87.14 117.287-4.228 5.42-15.345 22.453-15.345 22.453s-5.464 6.387-24.132-8.92c-49.554-43.087-101.403-74.165-154.16-103.732l22.05-12.652c44.044 24.467 98.847 59.382 148.25 100.232l50.525-73.687c17.75-23.57 30.236-38.764 46.807-57.023 42.246-53.357 86.28-71.34 104.384-98.32 26.52-39.528 27.16-86.045 4.544-125.496-22.287-37.637-65.09-63.136-93.676-94.185zm373.26-1.08l48.653-.54s-7.08 6.04-12.517 9.765c-3.41 2.336-7.432 2.065-15.044-1.02-7.393-2.998-21.092-8.204-21.092-8.204zm55.715-.62l11.347.218c-8.364 10.747-16.98 17.715-28.26 27.315-1.464.65-2.282.918-5.72-.155-23.34-7.435-44.79-16.975-67.542-25.97l20.185-.318s9.75 2.995 24.413 8.886c16.814 6.754 21.173 8.843 27.583 4.538 6.18-4.2 11.263-10.497 17.996-14.513zm22.967-.255l-3.897 14.95c-6.69 8.55-20.305 18.47-31.657 28.228-2.67 1.432-2.578 1.685-14.375-2.747-43.433-16.315-64.46-27.005-64.46-27.005l-8.868-7.746s11.313 3.1 18.786 5.948l19.3 7.1c5.522 1.972 17.742 7.006 25.895 10.12 18.8 7.18 17.768 7.418 35.532-8.614 19.235-17.36 23.746-20.234 23.746-20.234zm-655.163 8.65l19.114 21.414-24.92 21.434-19.247-22.163zm716.126-7.928c4.43 8.075 7.45 17.65 14.57 24.41 5.362 5 6.727 8.887 3.61 11.773-8.152 5.167-9.66-3.014-12.262-8.34-4.578-9.384-10.18-22.074-5.918-27.844zm-682.478 9.742c.48-.02.97-.02 1.47-.016 20.13.08 25.21 29.77 6.35 37.12-6.76 2.635-14.586 1.56-18.842-2.603-4.13-4.04-4.742-7.484-1.962-9.656 4.33-3.153 14.722-3.48 14.722-3.48s-9.47-3.095-13.7-5.404c-8.326-4.622-1.276-15.284 11.965-15.96zm414.38-4.57c1.14.05 3.122 2.344 5.952 6.903 10.34 16.655 10.16 48.564-.34 56.757-5.458 4.26-12.323 3.735-16.984-1.312-6.147-6.653-4.354-13.465 4.618-17.552 8.663-3.946 10.342-12.568 6.563-33.794-1.318-7.398-1.274-11.067.2-11.003zm-488.37 5.953c6.007-.28 11.828 2.004 14.763 6.712 2.168 3.478 1.164 6.063-2.837 7.855-4.87 1.988-14.13 3.842-14.13 3.842s9.017 1.38 14.478 3.528c6.844 2.93 6.374 8.45-3.543 13.3-19.094 9.334-37.507-15.388-21.828-29.87 3.65-3.373 8.425-5.147 13.097-5.364zm504.915 6.426c.142-.024.297-.024.47-.005 1.765.197 5.045 2.71 8.36 7 11.612 15.03 13.852 37.784 4.158 42.33-10.24 4.803-17.75-4.785-10.43-13.323 5.182-6.046 4.433-14.8-2.73-32.065-1.043-2.51-.817-3.768.175-3.94zm247.15-2.025c.9-.08 2.584 3.548 5.31 10.88 6 16.14 11.05 22.88 17.036 22.812 7.524-.084 11.58 10.183 5.692 14.406-11.636 8.344-27.223-11.61-28.628-36.684-.422-7.533-.3-11.334.592-11.414zm-61.906 8.782l-3.322 13.256s-7.9 7.863-13.577 12.87c-9 7.952-11.22 9.538-18.42 7.174-11.083-3.69-22.047-7.02-33.586-10.378l-26.836-21.703 60.947 23.012s5.278 1.492 7.1-.36c7.86-8.03 16.52-14.283 27.705-23.872zm57.384 11.74c.76-.182 1.537.78 2.098 3.196 2.887 12.42 6.975 21.396 10.347 22.762 4.273 1.73 5.945 5.398 4.196 9.173-5.045 10.887-18.84-8.09-19.042-26.196-.058-5.138 1.135-8.63 2.4-8.933zm-219.008 3.307c.74-.054 1.95 1.04 3.845 2.895 8.483 8.297 11.277 31.45 4.613 38.264-9.63 9.847-20.19-4.513-10.852-14.755 2.47-2.71 2.472-2.898 1.742-14.77-.508-8.265-.58-11.544.652-11.633zm-508.318 7.956l-6.32 21.822-20.907 5.64 4.707-17.96zm25.148 1.94c1.663-.086 3.555.525 5.553 1.938 8.61 6.093 9.43 16.658 5.522 24.503-3.735 7.66-11.52 9.93-19.086 9.244-9.814-.98-17.3-7.73-16.9-18.19.113-5.242 2.333-11.076 5.85-13.597 2.476-1.775 4.53-1.08 6.732 2.48 2.054 3.485 5.582 11.385 5.582 11.385s.022-8.147 1.13-12.35c.904-3.347 2.957-5.276 5.608-5.413zm16.02 1.73l15.244 5.02 6.23 20.557-17.072-6.405zm865.927-5.765s4.378 1.794 25.296 18.028c5.232 4.06 14.07 11.845 14.07 11.845l2.488 269.145s-41.134-21.647-46.488-26.83c-2.858-2.984-1.588-11.45-.766-26.806 4.362-40.358 5.973-71.267 10.732-108.626 3.155-41.615 11.013-53.642-17.014-70.963 29.748-19.14 20.967-48.31 2.034-60.29zm-244.224 3.738l-2.613 12.342c-9.672 16.985-18.51 16.218-33.688 8.562L-884.65-13.43c11.754 2.314 18.104 6 29.607 9.484 5.71 1.51 7.78.476 11.747-3.162l13.242-12.023zm-134.295 7.96c6.218 6.635 7.893 13.22 7.547 29.543-1.054 11.617-.44 20.25-9.9 26.86-4.617 3.1-12.655 3.194-16.28.212-8.682-5.675-4.06-17.27 7.228-17.96 7.122-.205 9.796-23.527 5.59-38.03-.653-2.25-.507-3.735.61-3.853s3.218 1.116 5.195 3.226zm192.572-3.013c1.385-.03 3.868 3.488 5.384 9.253 2.197 8.352 5.205 13.02 9.858 15.33 5.97 2.963 7.953 8.76 4.2 12.235-7.477 6.92-15.287-1.192-17.958-18.646-.138-1.985-3.783-17.96-1.483-18.172zm162.147 1.075c16.844.075 26.505 11.76 26.64 26.042-.07 10.3-5.58 20.835-15.892 25.297-24.656 7.556-38.342-8.853-38.286-24.964.045-13 10.694-26.45 27.537-26.376zM-949.506.01c14.324 14 15.295 44.302 1.43 44.456-16.695-5.32-3.828-15.282-3.54-17.837 1.184-10.45-1.286-17.114-3.833-26.834-1.14-5.75 4.362-1.456 5.94.215zm340.87-5.16c-2.973-.056-2.727 2.932 2.772 7.563 9.97 8.4 5.31 24.157-7.2 24.363-5.772.095-7.142 3.997-2.1 5.96 19.514 7.587 32.45-22.093 14.903-34.2-3.664-2.528-6.6-3.654-8.385-3.688zM-1351.54 7.067c15.692 5.155 21.414 34.88 22.124 45.383.906 18.276-7.276 48.266-14.804 54.324-19.492 15.685-29.317-38.89-12.888-74.268 1.44-2.902 3.238-6.82 2.47-13.997-.763-7.123.394-11.36 3.098-11.443zm516.65-2.86s-1.87 8.95-3.91 13.857c-2.36 5.676-4.14 5.874-9.832 1.11-3.17-2.653-8.435-8.157-8.435-8.157 4.918.713 9.335 3.21 13.482 1.1 4.424-2.25 7.966-6.418 8.694-7.9zm59.345-.2c1.1.025 2.56 3.12 4.51 9.263 5.334 16.813 9.905 23.1 16.726 23.034 11.174-.124 13.758 13.302 3.25 16.87-3.894 1.323-5.2 1.327-10.22.05-7.546-1.922-18.12-27.192-16.8-40.13.625-6.083 1.414-9.117 2.524-9.09zm-687.974 17.45c4.1-.145 5.736 1.858 8.2 6.816 2.807 5.644 10.085 12.778 16.208 15.852 14.76 7.052 30.286 12.518 44.877 19.597 18.916 9.24 36.093 37.99 24.583 41.136-4.173 1.012-8.988 1.115-13.274.772-1.407-.717-4.17-3.85-6.14-6.995-8.735-13.945-24.934-27.514-49.752-33.668-17.497-4.34-33.366-25.656-36.836-35.718-.9-2.606-.962-4.658 1.378-5.36 4.948-1.483 8.295-2.345 10.755-2.432zm530.487-4.14c.777-.136 1.934.847 3.686 2.678 10.508 10.984 12.023 31.352 2.757 37.222-10.045 6.363-19.015-3.876-11.173-12.752 3.457-3.913 3.457-3.9 3.328-15.538-.1-8.013.107-11.383 1.402-11.6zM-781.7 28.587c1.247.036 3.155 3.462 5.49 10.22 3.313 9.592 3.76 10.344 7.448 12.2 6.24 3.136 7.3 7.93 2.796 12.532-8.393 8.58-17.092-4.983-17.364-27.06-.07-5.307.53-7.925 1.63-7.894zm-135.735 3.033c.773.065 2.947 1.734 4.645 3.704 12.9 14.945 10.722 50.302-3.412 55.76-4.72 1.823-6.16 1.936-9.118.695-10.632-4.46-9.465-15.646 3.496-22.884 9.692-5.412 2.39-37.114 4.39-37.275zm-650.357 18.35l52.817 25.478s14.735 30.156 21.493 41.45c4.638 7.832 13.83 15.34 4.48 20.702-15.685 10.888-24.578 17.09-24.363 23.74.174 5.382 6.927 10.794 16.05 21.292 13.104 15.08 12.938 11.574 1.45 34.924-8.82 16.384-16.065 53.338-16.065 53.338l-52.756 27.93c15.37-37.886 33.604-70.186 54.186-93.357-15.605-11.322-28.75-23.14-42.497-38.874 9.865-13.522 22.964-24.502 35.037-36.297-25.093-27.736-40.916-54.43-49.832-80.327zm664.34-6.907c.084-.014.187-.008.28-.003 2.205.12 7.295 5.54 11.816 14.276 5.838 11.285 6.55 25.57 1.528 30.704-8.653 8.847-20.175-2.273-12.1-11.68 5.724-4.256 4.037-14.665-.626-25.463-2.16-5.178-2.154-7.618-.9-7.834zm-670.1 12.534c14 28.888 29.537 52.338 45.455 74.53l-33.787 36.252c10.66 12.095 23.563 25.07 41.635 40.103-21.71 24.7-35.752 59.08-49.83 91.56zm786.208-8.104c1.185.075 2.906 3.576 4.712 10.636 2.277 8.9 3.8 11.167 9.024 13.338 8.3 3.453 8.588 11.44.504 14.402-2.964 1.086-8.56-1.84-10.908-5.723-3.096-5.55-4.742-13.042-4.784-19.917-.576-8.503.108-12.82 1.453-12.736zm189.6 3.274c12.96 3.477 17.774 16.376 15.52 40.39l-9.482 97.36c-3.338 34.04-5.287 51.724-6.1 53.07-2.575 4.27-3.185-11.7-1.484-29.485 2.608-25.422 3.956-47.675 6.127-73.073 4.864-56.506 3.323-74.332-6.945-79.428-7.943-3.942-11.313-1.527-5.426 3.904 11.207 8.444 10.898 12.033.553 151.16l-1.446 24.58-15.197-9.207-2.863-29.876c-3.785-33.847-6.175-69.953-8.794-102.41-2.808-34.623 3.546-46.823 25.032-47.906 3.435-.17 7.252.064 10.502.92zm-277.09 23.217c1.697 4.57 9.57 38.667-9.716 29.066-5.142-2.828-5.473-7.34-1.75-11.768 4.163-4.954 5.074-12.02 2.85-22.064-1.354-6.114-2.966-11.176-2.966-11.176 3.712 1.3 11.142 14.75 11.585 15.943zm-570.368-4.388c16.257 2.9 34.182 12.165 45.8 23.873 7.208 7.494 6.916 13.597-4.216 14.432-10.71 1.697-10.92 3.443-16.092-.935-2.32-1.775-6.85-6.146-11.965-6.88-16.215-2.324-24.81-32.503-13.527-30.5zm654.934 1.68c1.74 2.733 1.98 8.136 3.446 11.994 2.543 10.803 10.062 18.735 16.728 17.66 4.48-.6 10.688.698 11.412 6.06 1.353 4.53-.98 8.855-5.88 10.878-5.53 2.284-11.813.99-16.6-3.4-10.1-9.27-16.527-39.826-9.105-43.183zm-78.03 1.29c5.843 2.168 13.475 20.714 14.433 35.48.094 10.582-1.4 23.913-10.46 29.055-5.762 3.06-11.77 1.632-14.445-3.402-3.282-6.176-.968-12.62 5.64-15.69 8.083-3.753 10.54-20.253 5.4-36.28-.31-2.677-4.455-10.23-.578-9.164zm-619.62 14.612l43.05 21.21c-6.135 8.574-10.943 16.516-14.217 25.534-13.777-15.282-21.084-30.932-28.833-46.745zm635.877.365c.736-.026 3.225 2.298 5.403 4.36 10.8 10.228 15.617 28.962 9.243 35.9-5.096 5.546-14.122 5.267-15.694-.482-.576-2.82 2.366-8.144 3.663-10.698 1.93-3.803 2.166-14.603-.906-22.46-1.377-3.522-2.655-6.587-1.71-6.62zm-297.36 7.565l48.4 1.12 163.673 144.16-15.222-.175-150.403-134.026-46.34.64zm-278.4 29.39c-18.14 29.552-22.772 66.61-11.064 99.364 8.87 23.224-9.915 24.827-17.797 9.546-6.056-11.423-9.69-31.384-8.12-52.7 2.144-34.463 17.654-69.206 30.333-73.5 12.875-4.36 10.225 12.56 6.65 17.287zm664.796 63.265c-4.66 23.012-13.637 34.54-26.5 39.453-52.69 20.126-76.922-86.32-28.124-112.382 46.606-16.07 60.78 42.537 54.626 72.93zm-389.03-65.404l45.633.43c42.01 37.364 87.1 72.164 132.127 117.665l-21.53.24-7.863-7.32-109.9-97.442-40.73-.673zm348.152 3.17c-24.657 1.272-26.295 34.715-25.416 47.366 2 18.22 9.568 45.093 32.696 42.7 16.97-1.884 24.61-22.09 22.79-46.233-1.713-22.72-11.225-44.074-30.07-43.843zm-352.106 15l40.04.462c35.604 30.362 73.27 63.355 110.74 99.808l-17.468.194-6-5.684c-30.303-26.788-61.134-56.672-90.495-80.72l-41.547-1.164zm352.9-2.605c7.034 2.517 8.394 19.563 2.36 26.7-4.135 4.9-13.87-4.173-14.863-15.715-.605-7.036 6.176-13.247 12.504-10.983zm-661.56 9.47c-3.1 11.067-5.078 23.5-6.247 36.915l-16.985-21.094zm674.53 13.044c4.093-.045 7.442 3.23 7.488 7.324s-3.23 7.443-7.324 7.488-7.442-3.23-7.488-7.324 3.23-7.443 7.324-7.488zm-336.282 7.453l80.61 74.1-22.715.502-66.092-58.582-41.546-1.1 7.967-14.246zm310.276-2.163c4.093-.045 7.443 3.23 7.488 7.324s-3.23 7.443-7.324 7.488-7.443-3.23-7.488-7.324 3.23-7.443 7.324-7.488zm94.965-.898c45.36 34.453 109.357 80.12 175.716 116.994-.001-.13-10.772 8.66-20.748 11.512-51.635-27.723-113.143-66.952-151.326-98.89-35.125 52.958-102.652 149.345-163.136 194.167-38.173 27.953-57.176 62.1-56.624 101.76.57 41.027 15.355 67.572 56.09 100.727 26.277 21.387 55.044 48.736 55.044 48.736l-14.825 13.072c-2.494-.276-44.07-35.3-86.2-76.673-23.152-22.735-33.9-73.08-30.303-100.357 4.888-37.087 16.936-63.762 51.724-92.736 13.363-10.582 26.885-18.838 38.63-30.837C-759.35 234.43-721.162 164.83-721.162 164.83zm-72.784 19.872c4.218 8.43 6.61 19.525-6.305 20.415-7.65.527-12.175-12.168-5.67-23.595 4.92-8.993 9.475-1.436 11.974 3.18zm-384.376 2.017l43.074.803s42.876 36.543 64.54 56.818l144.24-1.6 144.905-.92c.998.976-10.07 16.175-10.07 16.175l-475.718 5.563c.097-.075 29.094-26.478 39.5-33.91 18.43-13.16 35.317-25.408 49.526-42.927zm-291.315 21.142c3.24 11.45 5.975 23.135 11.468 33.656l-32.835 17.897c5.876-17.552 12.638-34.444 21.366-51.553zm918.254 85.31c-6.362 17.948-23.124 54.614-43.556 82.49-4.06 5.344-6.832 9.514-6.832 9.514l40.896 38.298-34.708 37.73c19.954 20.307 36.986 51.56 46.04 76.494-16-6.116-24.99-9.82-44.762-20.536-5.71-13.876-11.54-28.582-17.928-41.24-14.657-28.884-14.43-26.045-2.823-34.72 16.99-12.7 22.06-15.66 17.54-21.915-3.18-4.4-23.656-28.173-24.885-28.913-1.87-1.128-1.084-4.687 2.29-10.4 11.477-21.162 20.82-44.446 26.56-65.11zm7.672 1.384l3.773 244.16c-14.817-29-30.225-58.64-47.234-77.074-.647-1.26 36.236-38.092 36.236-38.092l-41.167-37.358c18.292-27 32.62-62.19 48.392-91.637zm-1026.124 19.862l46.693 26.416-8.91 125.642c-3.587 35.833-5.048 52.345 1.407 62.207 5.454 7.205 20.03 14.903 20.03 14.903-24.3 10.152-33.376 39.388-5.78 60.88 0 0-6.585 5.3-9.5 8.48l-38.376-28.044zm726.31 4.28c-11.422 13.09-29.348 32.5-43.163 41.857-18.426 12.468-44.225 36.292-42.97 36.636 0 0-27.316.166-45.82-.366l-64.44-56.226s2.27-.864-84.56.814l-203.18 1.943 12.55-18.047zm227.58 8.662c-6.06 20.256-15.6 39.024-27.748 56.655-2.997-12.38-4.714-25.532-10.807-36.007zm-901.28 16.476l5.606 3.907-3.8 54.514-4.167 66.582c-3.485 46.13-2.742 52.917 6.384 59.933 7.016 5.13 11.734 2.712 5.49-3.81-4.124-5.182-4.104-5.077-5.423-12.753-.916-5.335-.87-13.31.112-34.94l7.07-125.993 13.97 8.814c-.75 1.878 14.07 122.587 13.035 152.646-1.21 35.148-48.58 27.915-51.112 1.867-.995-5.982 6.882-104.726 6.882-104.726zm385.774 2.81l18.567.325 115.66 103.972 39.038.4-3.26 13.318-37.718.325zm70.996-.788l17.968-.2 66.187 58.675 40.348.177-7.56 11.522-40.135-.71zm-22.373.31l97.84 86.263 33.048 1.352-4.96 11.993-39.166-.66-109.944-98.473zm-93.397 1.35l20.124-.223 152.942 134.654 39.693.278-.457 12.287-47.78.312zm509.637-1.783c8.01 1.916 12.036 9.616 17.99 38.27 6.94 33.416-6.69 87.942-24.4 98.34-9.146 7.36-19.272-.224-12.86-9.764 20.933-31.14 23.18-81.734 10.28-109.87-4.1-9.044-.087-18.512 9-16.976zm-642.405 12.164c48.393.04 62.002 99.274 14.558 113.738-30.868 4.908-47.102-22.9-51.87-48.106-5.635-31.32 7.81-65.657 37.31-65.632zm-25.933 59.91c3.112 19.883 15.716 42.552 33.648 40.404 23.586-2.826 26.2-34.384 23.684-50.226-3.036-19.118-13.784-36.358-30.66-37.126-25.162-1.145-29.072 31.608-26.67 46.948zm25.5-38.966c6.748-.185 11.818 8.775 10.097 19.983-1.114 7.256-3.77 16.202-11.98 10.236-3.83-3.418-7.342-13.532-6.514-21.126.544-4.992 2.963-8.895 8.397-9.093zm667.464 15.56l23.01 26.027-25.6 18.38c3.473-13.87 4.51-28.588 2.6-44.407zm-650.715 9.6c4.093-.045 7.443 3.262 7.488 7.355s-3.23 7.443-7.324 7.488-7.443-3.23-7.488-7.324 3.23-7.474 7.323-7.52zm-26.448 4.856c4.093-.045 7.443 3.23 7.488 7.324s-3.23 7.443-7.324 7.488-7.473-3.23-7.52-7.323 3.262-7.443 7.355-7.488zm15.105 9.395c3.735 1.088 6.148 4.48 8.177 7.428 5.038 7.318 5.788 16.564 2.308 20.475-7.02 8.534-18.236-.383-17.043-13.454.874-9.584 3.352-15.383 6.56-14.45zm63.755 28.294c10.624-.118 13.76 12.378 4.676 18.605-5.907 4.05-7.084 17.017-3.206 34.913 3.127 12.92 1.585 14.94-6.276 3.35-13.44-21.02-10.428-56.7 4.806-56.87zm-24.767 7.088c9.316-.46 12.387 6.627 7 12.142-3.147 3.57-2.725 12.893.915 20.522 5.153 11.048 4.006 14.415-5.52 3.843-13.157-13.757-13.204-35.975-2.405-36.507zm616.085-1.433c10.73 13.94 20.303 32.177 29.09 52.868l-46.075-20.552zm-669.26 63.954c-3.287-3.72-4.992-15.863-7.712-21.03-2.136-6.214-3.973-9.827-7.34-9.58-19.352 1.857-18.736-16.674-7.657-20.296 22.932-7.495 31.94 47.97 22.707 50.905zm95.894-19.76c-3.177 9.744-.722 15.523.076 25.885.627 4.703.884 5.943-3.025 2.372-9.28-7.915-14.465-35.215-6.246-40.377 11.05-6.94 14.55 4.533 9.195 12.12zm459.118-18.08c4.493-.258 9.633 3.182 12.232 9.584 3.738 9.21 3.658 31.89 1.957 43.98-2.603 18.508-6.87 35.528-8.56 48.254-6.402 7.782-22.683-19.317-24.424-40.825-2.704-17.043 2.78-52.576 15.833-60.21.93-.46 1.923-.723 2.96-.783zm61.922 2.22c4.016-.23 3.116 1.136 6.123 4.212 4.565 4.67 6.4 5.8 12.805 7.733 13.193 3.988 27.853 22.158 22.346 27.79-4.362 3.537-16.415-2.92-20.522-4.277l-12.265-4.052c-11.06-3.593-27.133-23.733-22.248-27.88 2.612-2.217 10.638-3.35 13.76-3.527zm-32 3.73c8.146-.01 10.394 1.996 15.15 10.707 7.05 12.913 19.983 21.934 38.677 27 23.868 6.998 44.548 20.557 43.832 46.1-5.676.123-11.35.563-17.006 2.354-6.79-18.458-23.292-28.897-37.424-31.94-32.605-7.018-63.154-39.675-54.715-52.865 3.73-1.958 7.764-1.382 11.485-1.378zm-560.98 7.853l283.668 241.553c-119.052-42.67-227.813-40.516-332.808-23.088zm119.998 14.87c-.443 7.624-10.877 9.367-13.017 11.27-5.203 4.628-4.357 17.81-1.94 33.166 1.82 9.216-.483 8.835-5.42 1.654-8.74-12.715-8.815-34.934-3.257-48.085 7.16-16.94 24.255-8.687 23.634 1.994zm-161.7-10.187c10.785 1 13.917 15.626 14.47 25.34.15 13.393-3.656 12.933-5.937.066-1.083-5.7-2.88-7.9-7.51-9.23-10.515-3.024-11.343-16.062-1.023-16.177zm130.72 13.518c-2.728 3.068-2.633 17.266-.015 26.783 1.448 5.262-1.117 5.7-4.733 1.553-11.774-13.502-13.1-36.608-2.364-41.195 8.757-2.38 11.156 8.312 7.112 12.86zM-1326.483 539c.413 13.603-2.677 14.892-6.917 1.89-1.084-3.02-2.98-6.052-4.327-6.952-7.707-5.15-9.1-9.216-4.715-13.698 10.788-9.007 15.77 14.716 15.96 18.762zm40.927-12.455l-36.288 162.882c93.666-8.9 136.245-11.024 236.628 7.436zm113.617 1.426c5.75 1.374 7.813 8.833 1.21 15.988-2.162 2.828-4.157 7.182-1.355 18.635 3.834 15.674-2.383 10.715-10.046-4.04-4.91-9.45-2.974-33.73 10.192-30.584zm-179.327 2.49c10.187-.113 19.812 16.316 20.164 34.403.27 14.62-1.825 13.586-7.4-.324-3.926-9.197-7.047-12.5-14.01-14.845-12.904-4.33-11.948-19.087 1.255-19.234zm68.89 3.923l178.138 152.22c-72.374-10.744-143.308-10.845-212.09-1.427zm146.9 4.182c13.838-.154 19.476 16.882 2.57 23.052-10.074 3.677-5.532 24.082-3.538 36.212.754 4.573-.69 4.91-3.647.853-10.834-15.617-17.237-55.223 4.614-60.118zm-18.473 19.425c-2.465 3.986-2.7 8.237-.886 15.886 4.67 16.44 5.87 19.48-3.595 11.197-9.977-10.317-14.5-30.914-6.32-37.12 9.202-6.97 17.65.556 10.8 10.037zm-348.776-8.856c16.375-.298 28.395 10.17 27.93 24.96-.512 16.288-10.596 26.67-25.565 27.692-16.7 1.033-27.19-12.193-27.713-26.01-.463-12.203 7.153-26.313 25.348-26.644zm-.208 6.543c-18.744.148-25.49 24.936-9.85 36.174 6.706 4.817 11.945 3.38 6.418-1.76-10.413-9.68-6.452-25.918 7.084-29.05 6.692-1.548 4.048-5.428-3.654-5.366zm228.25 1.654l-21.346 109.68c46.075-7.683 101.935-6.115 145.074-2.548zm-75.95 5c11.217-.695 14.685 16.15 14.85 22.868.106 8.7-.872 13.226-2.525 8.597-3.898-10.914-7.69-16.89-11.75-16.846-2.208-.54-4.094-1.403-5.888-3.372-4.048-5.23-.248-10.965 5.313-11.247zm78.138 3.508l15.014 12.46c-9.617-4.087-17.644 6.853-17.644 6.853zm153.314 18.955c-4.254 5.477-4.097 16.93-.602 30.227.978 3.722-2.538.995-6.1-3.4-6.75-8.316-9.984-18.112-8.868-26.19 1.113-20.394 27.015-16.712 15.57-.637zm-235.406-7.137c9.638.984 13.493 21.04 13.333 27.135-.244 6.374-1.647 10.686-2.952 6.828-2.572-8.373-7.827-20.38-12.292-23.098-7.655-4.658-5.565-10.11 1.91-10.866zm737.282 14.336c.42 7.086-2.448 14.376-6.79 16.76-4.437 2.44-7.197-.766-9.952-8.908l-2.744-8.287s-1.57 7.534-2.076 9.11c-3.364 10.467-14.695 10.692-19.57-.906-5.204-13.532 8.753-27.613 19.605-27.236 12.032.42 20.763 8.083 21.526 19.464zm-643.112-8.038c3.38-.038 16.564 5.69 16.564 5.69l13.2 11.417s-12.07-5.086-16.324-6.538c-10.153-3.467-9.937-3.498-18.027 3.263-8.332 6.963-15.18 12.076-15.18 12.076l2.43-14.872s12.182-10.98 17.347-11.037zm-85.31 37.418c2.102 15.665-2.27 17.04-6.696 2.106-3.8-12.785-7.432-17.418-13.63-17.35-11.393 1.83-15.42-15.055-5.206-18.568 19.3-5.648 24.64 27.634 25.533 33.812zm662.702-41.766l17.935 8.083 3.986 18.426-16.482-3.88zm-399.887 6.142c17.122-4.954 19.48 16.4 6.353 19.702-8.015 2.016-7.833 14.465-5.343 32.525.567 4.12 1.733 9.106 1.484 9.797-1.186 3.285-5.33-1.667-10.96-13.192-8.448-21.04-6.146-44.604 8.466-48.832zm490.866-5.715l-4.73 21.43-15.104-.864-.708-13.087zm-508.338 19.543c-8.135 12.062-.583 23.03 1.356 32.378.386 5.44-6.703.2-10.84-7.702-8.626-16.455-9.262-29.807-1.742-35.858 10.563-6.344 15.57 4.74 11.226 11.18zm-154.874-1.21c2.922-.002 6.896 1.54 15.24 4.644l20.966 8.11 19.47 16.816s-17-6.05-28.84-10.9c-26.67-10.92-22.86-11.324-43.667 4.89-6.004 4.678-12.265 10.012-12.265 10.012l2.4-13.715s7.84-7.962 17.645-15.197c4.224-3.117 6.12-4.66 9.043-4.663zm-246.85 9.2c13.58-.528 22.63 10.178 26.03 22.212 1.97 6.97.407 13.443.1 20.156-8.58 71.95-11.964 138.672-19.847 205.295-1.024 3.187-2.192 2.02-3.635-3.68-10.65-60.21-17.886-126.345-26.942-186.025-2.166-22.3-8.254-51.42 19.926-57.443 1.5-.306 2.965-.463 4.37-.517zm-.724 7.977c-5.99.306-13.03 4.5-15.486 9.83-5.017 10.884-3.43 32.912 7.067 98.865.874 5.49 2.104 14.66 2.726 20.377 1.907 17.523 4.4 31.427 6.097 33.997 3.25 4.892 3.6-.407 1.118-17.545-1.267-8.746-3.006-22.12-3.86-29.71-4.736-31.282-5.938-53.564-8.975-82.124-1.517-14.038 4.023-24.458 14.603-27.383 5.728-1.583 6.006-4.17.623-5.85-1.2-.375-2.53-.527-3.912-.457zm898.392-9.095c19.842-.175 27.447 27.522 8.136 37.533-7.165 3.714-19.27 2.137-22.336-3.636-1.504-4.5.096-7.148 3.674-9.104 4.353-2.38 10.757-4.45 10.757-4.45s-10.53-1.92-13.546-6.86c-6.5-10.655 5.186-13.19 13.315-13.48zm-746.184 38.25c-.164 5.24-2.862 3.11-3.562.04-2.216-6.943-6.762-14.45-10.538-17.415-4.56-3.583-5.693-8.495-2.66-11.596 11.406-10.304 16.662 25.7 16.76 28.972zm672.83-37.512c5.078-.203 12.005 1.444 16.422 5.764 5.705 5.58 5.423 7.697-3.99 11.246-4.57 1.756-7.715 3.118-7.715 3.118s4.28 1.627 7.455 2.475c9.096 2.925 8.676 8.187.424 14.492-11.237 8.585-29.568-2.44-29.52-17.334.04-11.807 7.232-19.373 16.925-19.76zm41.885-.55l18.346 19.766-20.943 22.17-20.18-21.652zm-615.88 8.713c.258-.015.508-.005.78-.01 5.62.042 14.625 3.735 36.702 12.343l26.145 10.117 19.974 17.28s-27.194-8.206-36.676-12.875c-2.06-1.014-6.58-2.88-10.047-4.14l-19.113-7.257c-15.152-5.903-15.324-5.942-20.332-1.618-2.14 1.848-7.4 6.07-11.678 9.38l-13.88 10.78c-3.96 3.078-8.946 7.725-8.946 7.725l3-16.91s2.817-2.822 7.863-6.775l15.49-12.14c4.5-3.53 6.842-5.674 10.716-5.9zm194.684 12.652c.6 3.506.275 4.185-3.72 8.354-5.044 5.265-5.646 13.807-1.787 24.834 1.065 3.04 2.36 6.64 2.083 6.924-5.33 5.45-19.898-28.427-16.623-38.608 3.916-12.174 17.236-12.503 20.047-1.504zm-311.058 4.922c3.712-.215 8.055 2.554 10.28 8.386 6.047 16.314 2.683 36.442-3.522 17.8-1.6-3.945-4.33-8.17-6.396-10.305-2.128-2.213-6.882-4.752-6.812-8.394.404-4.78 3.174-7.29 6.45-7.478zm121.28-.878c2.38.05 5.564 1.198 11.29 3.47 5.175 2.052 19.732 6.723 28.017 9.815 12.867 4.802 26.313 11.177 26.313 11.177l-29.016-1.303s-9.89-3.168-15.78-5.513c-21.334-8.5-20.15-8.458-30.63-.316-3.745 2.91-8.448 7.594-8.448 7.594l-14.74.976s6.85-7.473 16.772-15c3.246-2.462 7.68-5.973 9.82-7.797 2.467-2.1 4.023-3.15 6.404-3.103zm226.933 3.2c8.054-1.62 12.56 6.024 12.103 10.83-.5 5.27-5.33 10.57-12.835 12.114-1.516 5.902-5.874 19.38-3.023 39.384 2.223 9.362-1.747 9.615-5.9.66-6.73-14.512-16.777-57.674 9.654-62.986zm-22.86 16.317c-3.34 7.354-4.463 13.26-2.47 22.466 2.215 10.23 2.685 12.755-3.2 6.41-11.452-14.92-13.363-38.853-2.995-41.72 10.01-2.767 12.332 8.104 8.674 12.842zm-338.414-7.46c17.643 2.59 23.163 32.536 20.847 45.394-4.493 15.583-4.378 5.086-6.078-1.37-4.51-15.58-9.62-24.034-14.996-24.866-14.472-2.24-12.656-21.048.227-19.157zm135.055 4.405c.303-.024.57.01.844.053 5.806.904 21.38 5.522 14.706 7.212l-22.904.38c-4.445.214 2.812-7.273 7.353-7.645zm616.83-1.942c2.22-.226 5.278 2.345 8.88 5.933 8.24 8.212 4.81 21.34-6.128 27.913-17.17 10.322-37.058-8.553-27.76-26.193 5.102-9.682 11.38-8.033 16.87 5.487.996 1.64-.03-1.697 1.752-5.85 1.775-4.136 4.168-7.063 6.388-7.3zm-28.987 1.29l-4.955 20.93-20.95 10.358 7.402-25.803zm43.85 3.076l16.795 1.157 9.613 27.02-24.3-10.043zm-396.337 19.732c12.2.37 13.576 11.88 6.627 17.003-3.885 3.805-5.182 9.264-4.27 17.955.405 3.864 1.224 8.593 1.195 9.143-.094 1.856-1.637 1.583-3.758-.677-13.045-13.905-11.66-43.783.206-43.425zm-369.146 8.612c7.735-.086 16.753 21.977 12.53 30.502-2.665 5.007-5.302 3.807-6.358-1.957-.786-4.197-3.26-9.923-9.508-10.882-9.096-2.794-6.31-17.555 3.335-17.663zm391.656 9.06c5.942 2.99 6.575 9.78 1.277 13.643-4.108 2.994-5.17 5.502-5.725 13.502 1.56 18.178-8.794 6.742-9.94-9.796-.624-9.002 4.103-22.423 14.39-17.348zm-397.945 10.012c5.552-.062 12.257 9.83 10.86 15.665-.727 4.63-3.156 3.838-6.588.444-1.324-1-4.28-2.036-5.66-2.436-8.335-2.42-7.063-13.58 1.387-13.674zm157.856 5.904c75.03-1.182 153.213 9.86 218.37 35.047l-5.237 9.653-17.095-5.654-5.672 15.502 14.1 5.188-6.435 14.322c-76.845-24.33-159.625-42.165-296.62-20.333-6.864-4.666-19.28-13.88-19.28-13.88l10.94-2.528-1.607-15.233-27.662 5.245-8.187-8.378c43.203-11.595 93.056-18.14 144.392-18.948zm251.71.55c7.184-.068 11.733 7.95 6.503 11.46-3.664 2.46-11.85 3.2-13.518 1.244-3.448-4.06 1.286-12.65 7.016-12.704zm-262.16 12.35l-.137 15.815 22.616-.97.302-15.004zm39.533-.095l.266 15.53 21.975.475.862-15.23zm-57.453 1.7l-22.2 1.715.85 14.49 22.02-1.213zm99.364 1.303l-.396 14.974 22.37 2.22 1.456-15.236zm-140.67 2.28l-22.31 3.092 2.072 14.884 21.69-2.647zm183.917 2.802l-2.014 15.648 20.877 2.862 2.523-14.873zm365.747.47c10.217 13.966 19.974 25.86 26.838 41.517 8.81 20.12 14.87 46.47 15.102 68.243.134 13.008-8.966 10.49-10.972-3.035-8.444-56.957-77.175-64.78-103.575-11.788-6.845 15.176-7.97 33.824-4.05 54.58 13.862 73.42 107.37 143.438 137.298 220.302 53.343-112.466 101.057-130.376 124.9-221.713 19.235-70.224-49.472-121.53-98.377-75.63-8.93 8.415-17.08 23.963-17.934 34.17-1.865 16.42-9.178 14.06-10.026.55-.41-14.23 5.385-41.627 13.736-66.063 4.447-12.893 11.098-28.775 20.19-42.164zm-324.34 7.82l-1.887 15.803 21.236 4.265 2.68-14.687zm-149.758 19.85c70.347-.864 134.592 10.542 188.82 30.468 0 0-6.83 15.165-9.283 16.823-38.92-15.036-105.11-28.678-149.737-28.964-16.357-.424-19.987-.82-26.033-2.836-34.13-10.806-64.204-15.308-91.708 1.518l-11.4-7.874c34.13-5.82 67.366-8.742 99.342-9.135zm769.918 50.3s4.04 5.31 6.53 8.24c11.038 12.995 17.95 36.397 10.78 36.476-1.778.02-2.66-1.62-5.327-4.13-9.9-14.312-29.363-9.054-36.796 1.7-7.643 11.047-8.284 28.787-2.13 41.714 19.973 40.06 57.938 85.625 57.325 90.9 19.523-44.91 35.805-57.693 50.28-90.564 5.142-16.263 5.097-25.74.827-38.137-5.83-16.93-33.296-24.38-42.794-6.557-3.14 5.438-5.652 7.02-7.853 4.87-4.482-4.384 2.933-28.73 11.82-38.8 1.57-1.778 4.494-6.238 4.494-6.238zm-1066.024 43.18c16.1.01 24.02 24.59 7.14 35.142-4.532 2.63-10.53 2.35-15.373.233-13.847-6.406-15.1-26.877.875-33.762 2.582-1.113 5.06-1.614 7.358-1.613zm525.79-5.025c5.798 3.456 27.173 12.637 27.173 12.637l-146.4 271.736-36.15.683zm-481.86 5.988c8.942-1.097 15.38 6.517 17.76 12.915 3.247 8.73-2.23 24.36-18.02 23.64-18.115-.827-26.587-33.26.26-36.554zm513.928 8.345c4.033 2.157 18.57 4.402 19.862 7.186.56 1.393-.506 4.16-.79 7.728-.683 8.593 1.567 18.08 6.848 25.644 8.646 11.736-.637 6.404-9.148 6.414-19.26-4.693-43.434 21.743-33.838 48.566 2.215 5.934 1.8 6.4-8.456 9.657-23.282 7.37-33.194 32.273-21.724 54.285 5.977 11.47 6.14 10.88-4.137 11.85-28.557 2.7-44.875 28.23-32.6 54.02 1.9 3.99.732 5.108-5.492 6.343-19.473 3.796-28.03 20.21-30.297 38.15l-25.808.537zm24.854 9.256l49.74 12.98c-19.817 70.247-21.76 151.624 4.07 245.44l-114.023 1.36c15.678-14.39 9.205-33.96-9.352-38.077 17.847-10.513 17.552-37.953-4.01-41.012-18.96-2.7-28.532 15.414-19.926 33.348l-8.06 2.3s-3.67-4.504-4.528-6.92c-7.37-20.734 7.345-41.56 32.82-41.773 15.712-.13 18.915-4.615 10.124-14.176-15.715-17.093-11.1-41.4 9.062-51.18 9.283-4.498 14.817-1.65 14.817-1.65l.61 11.436s-3.78.41-6.718.91c-22.347 3.828-17.8 39.463 4.95 38.903 12.52-.31 21.37-9.905 21.222-23.545l-.087-9.486c11.72 19.547 31.488 20.734 39.724 4.635 9.694-18.95-8.406-30.594-26.398-28.45 0 0 3.753-2.496 6.128-3.75 19.07-10.076 12.153-38.186-9.06-37.95-14.557.162-22.896 13.78-18.047 28.068.778 2.292 2.602 5.962 2.602 5.962l-8.636 2.292s-1.98-1.48-2.876-2.843c-15.116-23.056 8.46-48.898 38.583-43.43 11.042 3.327 10.6-4.278 4.346-11.08-6.754-9.834-11.837-21.003-7.078-32.298zm-560.322 16.347l26.54 45.583-28.568 53.164-29.454-49.176zm-2.297 23.902l-17.785 25.074 18.004 28.364 16.46-29.09zm-.678 9.352l11.924 15.62-11.628 19.474-11.795-18.026zm538.455 43.587c5.473-.06 9.986 4.322 10.047 9.795s-4.354 9.955-9.827 10.016-9.955-4.323-10.016-9.796 4.322-9.955 9.796-10.016zm541.54 48.554c-7.616.273-15.844 2.588-24.36 7.115-9.178 4.878-9.178 4.867-12.817 2.517-8.854-5.72-11.574-7.06-21.485-6.95-6.154.07-10.402.46-10.402.46l1.107 23.74c21.34-.813 27.27 6.372 22.934 19.278-4.584 5.88-2.603 89.673-.77 121.985-.175 15.885 7.053 30.907 16.914 39.97 15.393 13.34 42.365 12.03 57.916.576 10.382-7.646 15.22-20.31 17.31-33.14.762-26.302-.13-52.65-.423-78.96h16.903l-.452-23.81-16.5-.785s.177.678-.72-16.962c.75-36.937-18.403-54.328-43.645-55.05-.502-.004-.992-.002-1.5.017zm-1.077 23.955c13.938.905 19.654 6.363 23 18.215 2.385 8.447 3.358 18.44 1.474 21.606-3.07 5.157-15.21-3.628-31.19-22.686-5.384-6.42-7.788-9.733-7.788-9.733 3-5.47 9.44-7.73 14.505-7.402zm-24.96 32.25c14.614 12.288 16.8 24.895 51.083 36.524 0 0 .955-1.34.84 40.306-.127 45.944-2.772 55.382-16.592 59.344-11.976 3.433-23.35-2.018-28.466-13.622-5.234-11.87-6.783-39.94-7.193-93.363-.15-19.393.328-29.188.328-29.188zm-584.198 20.39c5.67-.063 10.332 4.465 10.394 10.135s-4.496 10.332-10.167 10.395-10.3-4.496-10.364-10.167a10.24 10.24 0 0 1 10.136-10.363zm-15.462 7.16c-.932.412.128 9.313 2.412 12.98-14.795 1.07-18.588 12.44-19.922 22.017l-13.263.11c1.85-32.358 29.85-33.394 30.773-35.107z"/>
    </g>
</svg>