<svg xmlns="http://www.w3.org/2000/svg" 
    xmlns:xlink="http://www.w3.org/1999/xlink" width="223.228" height="311.811">
    <defs>
        <pattern patternTransform="matrix(0.70710678,-0.70710678,0.70710678,0.70710678,127.76526,536.84923)" id="A" xlink:href="#B"/>
        <pattern id="B" patternTransform="translate(127.76526,536.84923)" height="17.116" width="16.772" patternUnits="userSpaceOnUse">
            <g stroke="none" fill="#d40000">
                <path transform="matrix(.625486 0 0 .625486 -79.915121 -335.79144)" d="M139.93 538.17l-1.53 4.514 2.85 3.82-4.767-.06-2.752 3.892-1.415-4.552-4.552-1.415 3.892-2.752-.06-4.767 3.82 2.85z" fill-opacity="1"/>
                <path d="M139.93 538.17l-1.53 4.514 2.85 3.82-4.767-.06-2.752 3.892-1.415-4.552-4.552-1.415 3.892-2.752-.06-4.767 3.82 2.85z" transform="matrix(.312743 .541687 -.541687 .312743 264.52873 -238.94464)" fill-opacity="1"/>
                <path d="M139.93 538.17l-1.53 4.514 2.85 3.82-4.767-.06-2.752 3.892-1.415-4.552-4.552-1.415 3.892-2.752-.06-4.767 3.82 2.85z" transform="matrix(.625486 0 0 -.625486 -79.915121 352.9078)" fill-opacity="1"/>
                <path transform="matrix(.312743 -.541687 -.541687 -.312743 264.52873 256.061)" d="M139.93 538.17l-1.53 4.514 2.85 3.82-4.767-.06-2.752 3.892-1.415-4.552-4.552-1.415 3.892-2.752-.06-4.767 3.82 2.85z" fill-opacity="1"/>
            </g>
        </pattern>
    </defs>
    <g transform="translate(550.943 -490.003)">
        <rect rx="10.63" y="490.502" x="-550.442" height="310.811" width="222.228" fill="#fff" stroke="#000"/>
        <g stroke="#d40000">
            <path d="M-537.854 502.586h197.052V789.23h-197.052z" fill="none" stroke-width="4.952"/>
            <path d="M-533.467 506.455H-345.2V785.36h-188.277z" fill="url(#A)"/>
        </g>
    </g>
</svg>